<svg width="2106" height="1095" xmlns="http://www.w3.org/2000/svg" xmlns:xlink="http://www.w3.org/1999/xlink" xml:space="preserve" overflow="hidden"><defs><filter id="fx0" x="-10%" y="-10%" width="120%" height="120%" filterUnits="userSpaceOnUse" primitiveUnits="userSpaceOnUse"><feComponentTransfer color-interpolation-filters="sRGB"><feFuncR type="discrete" tableValues="0 0"/><feFuncG type="discrete" tableValues="0 0"/><feFuncB type="discrete" tableValues="0 0"/><feFuncA type="linear" slope="0.501961" intercept="0"/></feComponentTransfer><feGaussianBlur stdDeviation="4.58333 4.58333"/></filter><filter id="fx1" x="-10%" y="-10%" width="120%" height="120%" filterUnits="userSpaceOnUse" primitiveUnits="userSpaceOnUse"><feComponentTransfer color-interpolation-filters="sRGB"><feFuncR type="discrete" tableValues="0 0"/><feFuncG type="discrete" tableValues="0 0"/><feFuncB type="discrete" tableValues="0 0"/><feFuncA type="linear" slope="0.501961" intercept="0"/></feComponentTransfer><feGaussianBlur stdDeviation="4.58333 4.58333"/></filter><clipPath id="clip2"><rect x="2444" y="17126" width="2106" height="1095"/></clipPath><clipPath id="clip3"><rect x="2612" y="17383" width="1885" height="681"/></clipPath><clipPath id="clip4"><rect x="2612" y="17383" width="1885" height="681"/></clipPath><clipPath id="clip5"><rect x="2612" y="17383" width="1885" height="681"/></clipPath></defs><g clip-path="url(#clip2)" transform="translate(-2444 -17126)"><rect x="2445" y="17127" width="2103" height="1092" fill="#FFFFFF"/><g><path d="M2612.5 17722.5 4494.5 17722.5" stroke="#D9D9D9" stroke-width="3.4375" stroke-linejoin="round" stroke-miterlimit="10" fill="none" fill-rule="evenodd"/></g><g clip-path="url(#clip3)"><g filter="url(#fx0)" transform="translate(2601 17369)"><g><path d="M19.9819 374.209C32.4962 384.899 45.0109 398.24 57.5255 406.28 70.0398 414.32 82.5544 429.689 95.0691 422.45 107.583 415.21 120.098 372.767 132.613 362.841 145.127 352.916 157.641 355.569 170.156 362.896 182.67 370.223 195.185 399.873 207.699 406.805 220.214 413.737 232.728 402.624 245.243 404.487 257.757 406.35 270.272 424.074 282.787 417.983 295.301 411.89 307.815 371.069 320.33 367.934 332.844 364.799 345.359 395.92 357.873 399.172 370.388 402.423 382.902 395.743 395.417 387.442 407.931 379.142 420.446 337.307 432.96 349.368 445.475 361.428 457.989 470.982 470.504 459.806 483.018 448.629 495.533 306.022 508.047 282.31 520.064 259.541 533.574 303.51 545.591 317.532 558.105 332.135 570.62 359.057 583.134 369.929 595.649 380.8 608.163 380.973 620.678 382.76 633.192 384.547 645.706 388.817 658.221 380.65 670.735 372.483 683.25 336.809 695.765 333.758 708.279 330.706 720.794 361.807 733.308 362.341 745.823 362.875 758.337 339.218 770.851 336.962 783.366 334.706 795.88 343.773 808.395 348.807 820.909 353.841 833.424 363.329 845.939 367.163 858.453 370.997 870.967 365.508 883.482 371.812 895.996 378.116 908.511 415.078 921.025 404.987 933.54 394.897 946.054 316.508 958.569 311.27 971.083 306.031 983.598 354.465 996.112 373.558 1008.63 392.65 1021.14 430.441 1033.66 425.824 1046.17 421.208 1058.68 356.075 1071.2 345.859 1083.71 335.643 1096.23 364.253 1108.74 364.528 1121.26 364.803 1133.77 349.951 1146.29 347.512 1158.8 345.072 1171.31 347.413 1183.83 349.888 1196.34 352.363 1208.86 365.49 1221.37 362.36 1233.89 359.23 1246.4 336.943 1258.92 331.107 1270.32 325.792 1285.06 312.305 1296.46 327.347 1308.97 343.86 1321.49 420.178 1334 430.187 1346.52 440.196 1359.03 400.78 1371.55 387.401 1384.06 374.023 1396.58 361.721 1409.09 349.917 1421.6 338.112 1434.12 305.743 1446.63 316.573 1459.15 327.402 1471.66 415.118 1484.18 414.894 1496.69 414.671 1509.21 328.919 1521.72 315.232 1534.24 301.545 1546.75 338.196 1559.26 332.772 1571.78 327.348 1584.29 283.389 1596.81 282.687 1609.32 281.984 1621.84 306.098 1634.35 328.558 1646.87 351.017 1659.38 416.312 1671.89 417.444 1680 418.177 1701.33 379.756 1709.44 335.35 1721.95 266.773 1740.72 60.8769 1746.98 5.98242" stroke="#FFB226" stroke-width="9" stroke-linecap="round" stroke-linejoin="round" stroke-miterlimit="10" fill="none"/></g></g></g><g clip-path="url(#clip4)"><g filter="url(#fx1)" transform="translate(2601 17560)"><g><path d="M19.9819 58.0344C32.4904 59.7844 45.0166 49.1 57.5255 63.2871 70.0398 77.4806 82.5544 139.652 95.0691 143.196 107.583 146.741 120.098 85.4285 132.613 84.5536 145.127 83.6783 157.641 142.563 170.156 137.945 182.67 133.326 195.185 62.8037 207.699 56.8434 220.214 50.8827 232.728 83.748 245.243 102.181 257.757 120.614 270.272 163.695 282.787 167.44 295.301 171.185 307.815 122.246 320.33 124.651 332.844 127.055 345.359 168.083 357.873 181.868 370.388 195.653 382.902 216.082 395.417 207.36 407.931 198.639 420.446 133.755 432.96 129.54 445.475 125.323 457.989 182.272 470.504 182.065 483.018 181.857 495.533 139.363 508.047 128.296 520.561 117.229 533.076 114.075 545.591 115.664 558.105 117.252 570.62 125.933 583.134 137.826 595.649 149.719 608.163 186.084 620.678 187.02 633.192 187.956 645.706 159.666 658.221 143.441 670.735 127.216 683.25 93.6063 695.765 89.6702 708.279 85.7338 720.794 113.926 733.308 119.823 745.823 125.72 758.337 118.026 770.851 125.055 783.366 132.083 795.88 160.464 808.395 161.995 820.909 163.526 833.424 136.446 845.939 134.239 858.453 132.033 870.967 144.583 883.482 148.756 895.996 152.929 908.511 167.749 921.025 159.278 933.54 150.806 946.054 99.0092 958.569 97.9293 971.083 96.8494 983.598 137.9 996.112 152.798 1008.63 167.696 1021.14 192.099 1033.66 187.317 1046.17 182.536 1058.68 131.782 1071.2 124.109 1083.71 116.436 1096.23 136.583 1108.74 141.278 1121.26 145.973 1133.77 153.155 1146.29 152.279 1158.8 151.403 1171.31 137.408 1183.83 136.022 1196.34 134.636 1208.86 147.093 1221.37 143.962 1233.89 140.831 1246.4 119.02 1258.92 117.239 1271.43 115.458 1283.95 122.86 1296.46 133.275 1308.97 143.689 1321.49 175.408 1334 179.728 1346.52 184.047 1359.03 167.579 1371.55 159.193 1384.04 150.822 1396.6 149.819 1409.09 129.408 1421.6 108.958 1434.12 17.9824 1446.63 36.4924 1459.15 55.0025 1471.66 222.954 1484.18 240.468 1496.69 257.982 1509.21 161.266 1521.72 141.578 1533.01 123.812 1547.97 130.587 1559.26 122.338 1571.78 113.197 1584.29 82.8634 1596.81 86.73 1609.32 90.5963 1621.84 132.067 1634.35 145.536 1646.87 159.005 1659.38 160.979 1671.89 167.545 1681.23 172.444 1700.1 203.331 1709.44 184.93 1721.95 160.272 1740.72 47.1527 1746.98 19.5975" stroke="#000000" stroke-width="9" stroke-linecap="round" stroke-linejoin="round" stroke-miterlimit="10" fill="none"/></g></g></g><g clip-path="url(#clip5)"><path d="M2614.5 17736.7C2627.01 17747.4 2639.53 17760.8 2652.04 17768.8 2664.56 17776.8 2677.07 17792.2 2689.59 17785 2702.1 17777.7 2714.62 17735.3 2727.13 17725.4 2739.65 17715.4 2752.16 17718.1 2764.67 17725.4 2777.19 17732.7 2789.7 17762.4 2802.22 17769.3 2814.73 17776.3 2827.25 17765.1 2839.76 17767 2852.28 17768.9 2864.79 17786.6 2877.3 17780.5 2889.82 17774.4 2902.33 17733.6 2914.85 17730.5 2927.36 17727.3 2939.88 17758.4 2952.39 17761.7 2964.91 17764.9 2977.42 17758.3 2989.94 17750 3002.45 17741.7 3014.96 17699.8 3027.48 17711.9 3039.99 17723.9 3052.51 17833.5 3065.02 17822.3 3077.54 17811.1 3090.05 17668.5 3102.57 17644.8 3114.58 17622.1 3128.09 17666 3140.11 17680.1 3152.62 17694.7 3165.14 17721.6 3177.65 17732.4 3190.17 17743.3 3202.68 17743.5 3215.2 17745.3 3227.71 17747.1 3240.22 17751.3 3252.74 17743.2 3265.25 17735 3277.77 17699.3 3290.28 17696.3 3302.8 17693.2 3315.31 17724.3 3327.83 17724.9 3340.34 17725.4 3352.85 17701.7 3365.37 17699.5 3377.88 17697.2 3390.4 17706.3 3402.91 17711.3 3415.43 17716.4 3427.94 17725.8 3440.46 17729.7 3452.97 17733.5 3465.49 17728 3478 17734.3 3490.51 17740.6 3503.03 17777.6 3515.54 17767.5 3528.06 17757.4 3540.57 17679 3553.09 17673.8 3565.6 17668.5 3578.12 17717 3590.63 17736.1 3603.14 17755.2 3615.66 17793 3628.17 17788.3 3640.69 17783.7 3653.2 17718.6 3665.72 17708.4 3678.23 17698.2 3690.75 17726.8 3703.26 17727 3715.78 17727.3 3728.29 17712.5 3740.8 17710 3753.32 17707.6 3765.83 17709.9 3778.35 17712.4 3790.86 17714.9 3803.38 17728 3815.89 17724.9 3828.41 17721.7 3840.92 17699.5 3853.43 17693.6 3864.83 17688.3 3879.58 17674.8 3890.98 17689.9 3903.49 17706.4 3916.01 17782.7 3928.52 17792.7 3941.04 17802.7 3953.55 17763.3 3966.06 17749.9 3978.58 17736.5 3991.09 17724.2 4003.61 17712.4 4016.12 17700.6 4028.64 17668.3 4041.15 17679.1 4053.67 17689.9 4066.18 17777.6 4078.7 17777.4 4091.21 17777.2 4103.72 17691.4 4116.24 17677.8 4128.75 17664.1 4141.27 17700.7 4153.78 17695.3 4166.3 17689.9 4178.81 17645.9 4191.33 17645.2 4203.84 17644.5 4216.35 17668.6 4228.87 17691.1 4241.38 17713.5 4253.9 17778.8 4266.41 17780 4274.52 17780.7 4295.85 17742.3 4303.96 17697.9 4316.47 17629.3 4335.24 17423.4 4341.5 17368.5" stroke="#FFB226" stroke-width="9.16667" stroke-linecap="round" stroke-linejoin="round" stroke-miterlimit="10" fill="none"/></g><g><path d="M2614.5 17611.6C2627.01 17613.3 2639.53 17602.6 2652.04 17616.8 2664.56 17631 2677.07 17693.2 2689.59 17696.7 2702.1 17700.3 2714.62 17638.9 2727.13 17638.1 2739.65 17637.2 2752.16 17696.1 2764.67 17691.5 2777.19 17686.8 2789.7 17616.3 2802.22 17610.4 2814.73 17604.4 2827.25 17637.3 2839.76 17655.7 2852.28 17674.1 2864.79 17717.2 2877.3 17721 2889.82 17724.7 2902.33 17675.8 2914.85 17678.2 2927.36 17680.6 2939.88 17721.6 2952.39 17735.4 2964.91 17749.2 2977.42 17769.6 2989.94 17760.9 3002.45 17752.2 3014.96 17687.3 3027.48 17683.1 3039.99 17678.8 3052.51 17735.8 3065.02 17735.6 3077.54 17735.4 3090.05 17692.9 3102.57 17681.8 3115.08 17670.7 3127.59 17667.6 3140.11 17669.2 3152.62 17670.8 3165.14 17679.5 3177.65 17691.3 3190.17 17703.2 3202.68 17739.6 3215.2 17740.5 3227.71 17741.5 3240.22 17713.2 3252.74 17697 3265.25 17680.7 3277.77 17647.1 3290.28 17643.2 3302.8 17639.3 3315.31 17667.4 3327.83 17673.3 3340.34 17679.2 3352.85 17671.5 3365.37 17678.6 3377.88 17685.6 3390.4 17714 3402.91 17715.5 3415.43 17717 3427.94 17690 3440.46 17687.8 3452.97 17685.6 3465.49 17698.1 3478 17702.3 3490.51 17706.4 3503.03 17721.3 3515.54 17712.8 3528.06 17704.3 3540.57 17652.5 3553.09 17651.4 3565.6 17650.4 3578.12 17691.4 3590.63 17706.3 3603.14 17721.2 3615.66 17745.6 3628.17 17740.8 3640.69 17736.1 3653.2 17685.3 3665.72 17677.6 3678.23 17670 3690.75 17690.1 3703.26 17694.8 3715.78 17699.5 3728.29 17706.7 3740.8 17705.8 3753.32 17704.9 3765.83 17690.9 3778.35 17689.5 3790.86 17688.2 3803.38 17700.6 3815.89 17697.5 3828.41 17694.3 3840.92 17672.5 3853.43 17670.8 3865.95 17669 3878.46 17676.4 3890.98 17686.8 3903.49 17697.2 3916.01 17728.9 3928.52 17733.2 3941.04 17737.6 3953.55 17721.1 3966.06 17712.7 3978.56 17704.3 3991.12 17703.3 4003.61 17682.9 4016.12 17662.5 4028.64 17571.5 4041.15 17590 4053.67 17608.5 4066.18 17776.5 4078.7 17794 4091.21 17811.5 4103.72 17714.8 4116.24 17695.1 4127.53 17677.3 4142.49 17684.1 4153.78 17675.9 4166.3 17666.7 4178.81 17636.4 4191.33 17640.2 4203.84 17644.1 4216.35 17685.6 4228.87 17699.1 4241.38 17712.5 4253.9 17714.5 4266.41 17721.1 4275.75 17726 4294.62 17756.8 4303.96 17738.4 4316.47 17713.8 4335.24 17600.7 4341.5 17573.1" stroke="#000000" stroke-width="9.16667" stroke-linecap="round" stroke-linejoin="round" stroke-miterlimit="10" fill="none"/></g><g><text font-family="Inter,Inter_MSFontService,sans-serif" font-weight="400" font-size="32" transform="matrix(1 0 0 1 2542.69 18071)">80</text></g><g><text font-family="Inter,Inter_MSFontService,sans-serif" font-weight="400" font-size="32" transform="matrix(1 0 0 1 2542.46 17902)">90</text></g><g><text font-family="Inter,Inter_MSFontService,sans-serif" font-weight="400" font-size="32" transform="matrix(1 0 0 1 2527.52 17732)">100</text></g><g><text font-family="Inter,Inter_MSFontService,sans-serif" font-weight="400" font-size="32" transform="matrix(1 0 0 1 2532.67 17563)">110</text></g><g><text font-family="Inter,Inter_MSFontService,sans-serif" font-weight="400" font-size="32" transform="matrix(1 0 0 1 2528.16 17393)">120</text></g><g><text font-family="Inter,Inter_MSFontService,sans-serif" font-weight="400" font-size="32" transform="matrix(0.707107 -0.707107 0.707107 0.707107 2590.39 18137)">1/6</text></g><g><text font-family="Inter,Inter_MSFontService,sans-serif" font-weight="400" font-size="32" transform="matrix(0.707107 -0.707107 0.707107 0.707107 2690.45 18149)">1/27</text></g><g><text font-family="Inter,Inter_MSFontService,sans-serif" font-weight="400" font-size="32" transform="matrix(0.707107 -0.707107 0.707107 0.707107 2803.03 18149)">2/17</text></g><g><text font-family="Inter,Inter_MSFontService,sans-serif" font-weight="400" font-size="32" transform="matrix(0.707107 -0.707107 0.707107 0.707107 2924.23 18141)">3/9</text></g><g><text font-family="Inter,Inter_MSFontService,sans-serif" font-weight="400" font-size="32" transform="matrix(0.707107 -0.707107 0.707107 0.707107 3022.35 18155)">3/30</text></g><g><text font-family="Inter,Inter_MSFontService,sans-serif" font-weight="400" font-size="32" transform="matrix(0.707107 -0.707107 0.707107 0.707107 3135.51 18155)">4/20</text></g><g><text font-family="Inter,Inter_MSFontService,sans-serif" font-weight="400" font-size="32" transform="matrix(0.707107 -0.707107 0.707107 0.707107 3255.71 18147)">5/11</text></g><g><text font-family="Inter,Inter_MSFontService,sans-serif" font-weight="400" font-size="32" transform="matrix(0.707107 -0.707107 0.707107 0.707107 3378.47 18137)">6/1</text></g><g><text font-family="Inter,Inter_MSFontService,sans-serif" font-weight="400" font-size="32" transform="matrix(0.707107 -0.707107 0.707107 0.707107 3474.13 18154)">6/22</text></g><g><text font-family="Inter,Inter_MSFontService,sans-serif" font-weight="400" font-size="32" transform="matrix(0.707107 -0.707107 0.707107 0.707107 3590.39 18150)">7/13</text></g><g><text font-family="Inter,Inter_MSFontService,sans-serif" font-weight="400" font-size="32" transform="matrix(0.707107 -0.707107 0.707107 0.707107 3712.47 18140)">8/3</text></g><g><text font-family="Inter,Inter_MSFontService,sans-serif" font-weight="400" font-size="32" transform="matrix(0.707107 -0.707107 0.707107 0.707107 3811.2 18154)">8/24</text></g><g><text font-family="Inter,Inter_MSFontService,sans-serif" font-weight="400" font-size="32" transform="matrix(0.707107 -0.707107 0.707107 0.707107 3926.81 18151)">9/14</text></g><g><text font-family="Inter,Inter_MSFontService,sans-serif" font-weight="400" font-size="32" transform="matrix(0.707107 -0.707107 0.707107 0.707107 4040.14 18151)">10/5</text></g><g><text font-family="Inter,Inter_MSFontService,sans-serif" font-weight="400" font-size="32" transform="matrix(0.707107 -0.707107 0.707107 0.707107 4138.64 18165)">10/26</text></g><g><text font-family="Inter,Inter_MSFontService,sans-serif" font-weight="400" font-size="32" transform="matrix(0.707107 -0.707107 0.707107 0.707107 4258.06 18158)">11/16</text></g><g><text font-family="Inter,Inter_MSFontService,sans-serif" font-weight="400" font-size="32" transform="matrix(0.707107 -0.707107 0.707107 0.707107 4379.18 18149)">12/7</text></g><g><text font-family="Inter Medium,Inter Medium_MSFontService,sans-serif" font-weight="700" font-size="46" transform="matrix(1 0 0 1 2529.01 17217)">U.S. Hotel Occupancy and ADR Recovery Levels</text></g><g><path d="M2521.5 17318.5 2609.5 17318.5" stroke="#FFB226" stroke-width="9.16667" stroke-linecap="round" stroke-linejoin="round" stroke-miterlimit="10" fill="none" fill-rule="evenodd"/></g><g><text font-family="Inter Medium,Inter Medium_MSFontService,sans-serif" font-weight="500" font-size="37" transform="matrix(1 0 0 1 2618.39 17331)">Occ Index</text></g><g><path d="M2846.5 17318.5 2934.5 17318.5" stroke="#000000" stroke-width="9.16667" stroke-linecap="round" stroke-linejoin="round" stroke-miterlimit="10" fill="none" fill-rule="evenodd"/></g><g><text font-family="Inter Medium,Inter Medium_MSFontService,sans-serif" font-weight="500" font-size="37" transform="matrix(1 0 0 1 2943.74 17331)">ADR Index</text></g><rect x="2445.5" y="17127.5" width="2103" height="1092" stroke="#D9D9D9" stroke-width="3.4375" stroke-linejoin="round" stroke-miterlimit="10" fill="none"/><g><text fill="#7F7F7F" font-family="Inter,Inter_MSFontService,sans-serif" font-weight="400" font-size="32" transform="matrix(1 0 0 1 2526.75 17274)">Indexed to 2023, Source: STR, str.com</text></g></g></svg>