<svg width="2111" height="1059" xmlns="http://www.w3.org/2000/svg" xmlns:xlink="http://www.w3.org/1999/xlink" xml:space="preserve" overflow="hidden"><defs><filter id="fx0" x="-10%" y="-10%" width="120%" height="120%" filterUnits="userSpaceOnUse" primitiveUnits="userSpaceOnUse"><feComponentTransfer color-interpolation-filters="sRGB"><feFuncR type="discrete" tableValues="0 0"/><feFuncG type="discrete" tableValues="0 0"/><feFuncB type="discrete" tableValues="0 0"/><feFuncA type="linear" slope="0.501961" intercept="0"/></feComponentTransfer><feGaussianBlur stdDeviation="4.58333 4.58333"/></filter><filter id="fx1" x="-10%" y="-10%" width="120%" height="120%" filterUnits="userSpaceOnUse" primitiveUnits="userSpaceOnUse"><feComponentTransfer color-interpolation-filters="sRGB"><feFuncR type="discrete" tableValues="0 0"/><feFuncG type="discrete" tableValues="0 0"/><feFuncB type="discrete" tableValues="0 0"/><feFuncA type="linear" slope="0.501961" intercept="0"/></feComponentTransfer><feGaussianBlur stdDeviation="4.58333 4.58333"/></filter><clipPath id="clip2"><rect x="2449" y="17126" width="2111" height="1059"/></clipPath><clipPath id="clip3"><rect x="2617" y="17374" width="1889" height="659"/></clipPath><clipPath id="clip4"><rect x="2617" y="17374" width="1889" height="659"/></clipPath></defs><g clip-path="url(#clip2)" transform="translate(-2449 -17126)"><rect x="2450" y="17127" width="2108" height="1056" fill="#FFFFFF"/><g><path d="M2617.5 17702.5 4503.5 17702.5" stroke="#D9D9D9" stroke-width="3.4375" stroke-linejoin="round" stroke-miterlimit="10" fill="none" fill-rule="evenodd"/></g><g clip-path="url(#clip3)"><g filter="url(#fx0)" transform="translate(2607 17608)"><g><path d="M19.9817 114.731C32.5184 125.032 45.0555 137.887 57.5926 145.635 70.1293 153.382 82.6667 168.192 95.2038 161.216 107.741 154.24 120.278 113.341 132.815 103.777 145.352 94.2122 157.889 96.7687 170.426 103.829 182.963 110.89 195.5 139.46 208.037 146.14 220.574 152.82 233.111 142.112 245.648 143.907 258.185 145.702 270.723 162.782 283.26 156.911 295.796 151.041 308.333 111.705 320.871 108.684 333.407 105.663 345.945 135.652 358.482 138.785 371.019 141.918 383.556 135.481 396.093 127.482 408.63 119.483 421.167 79.1713 433.704 90.793 446.241 102.415 458.778 207.982 471.315 197.213 483.852 186.443 496.389 49.0249 508.926 26.1755 521.103 3.98242 534.361 46.4486 546.538 60.1164 559.074 74.188 571.611 100.13 584.148 110.606 596.685 121.082 609.223 121.249 621.76 122.971 634.297 124.693 646.834 128.807 659.371 120.937 671.908 113.067 690.713 83.2828 696.982 75.7521" stroke="#FFB226" stroke-width="9" stroke-linecap="round" stroke-linejoin="round" stroke-miterlimit="10" fill="none"/></g></g></g><g clip-path="url(#clip4)"><g filter="url(#fx1)" transform="translate(2607 17580)"><g><path d="M19.9817 21.6563C32.5184 23.3548 45.0555 12.9824 57.5926 26.7521 70.1293 40.5214 82.6667 100.835 95.2038 104.274 107.741 107.712 120.278 48.2321 132.815 47.3831 145.352 46.5337 157.889 103.659 170.426 99.1792 182.963 94.6986 195.5 26.2831 208.037 20.5008 220.574 14.7181 233.111 46.6015 245.648 64.484 258.185 82.366 270.723 124.16 283.26 127.794 295.796 131.427 308.333 83.9497 320.871 86.2828 333.407 88.6155 345.945 128.417 358.482 141.791 371.019 155.164 383.556 174.982 396.093 166.521 408.63 158.061 421.167 95.1152 433.704 91.0251 446.241 86.9351 458.778 142.182 471.315 141.981 483.852 141.78 496.389 100.555 508.926 89.8187 521.464 79.0825 534.001 76.0227 546.538 77.5638 559.074 79.1045 571.611 87.5268 584.148 99.0644 596.685 110.602 609.223 145.88 621.76 146.788 634.297 147.696 646.834 120.251 659.371 104.511 671.908 88.7711 690.713 61.0408 696.982 52.3467" stroke="#000000" stroke-width="9" stroke-linecap="round" stroke-linejoin="round" stroke-miterlimit="10" fill="none"/></g></g></g><g><path d="M2620.5 17716.2C2633.04 17726.5 2645.57 17739.4 2658.11 17747.2 2670.65 17754.9 2683.19 17769.7 2695.72 17762.7 2708.26 17755.8 2720.8 17714.9 2733.33 17705.3 2745.87 17695.7 2758.41 17698.3 2770.94 17705.3 2783.48 17712.4 2796.02 17741 2808.56 17747.7 2821.09 17754.3 2833.63 17743.6 2846.17 17745.4 2858.7 17747.2 2871.24 17764.3 2883.78 17758.4 2896.31 17752.6 2908.85 17713.2 2921.39 17710.2 2933.93 17707.2 2946.46 17737.2 2959 17740.3 2971.54 17743.4 2984.07 17737 2996.61 17729 3009.15 17721 3021.69 17680.7 3034.22 17692.3 3046.76 17703.9 3059.3 17809.5 3071.83 17798.7 3084.37 17788 3096.91 17650.5 3109.44 17627.7 3121.62 17605.5 3134.88 17648 3147.06 17661.6 3159.59 17675.7 3172.13 17701.6 3184.67 17712.1 3197.2 17722.6 3209.74 17722.8 3222.28 17724.5 3234.82 17726.2 3247.35 17730.3 3259.89 17722.5 3272.43 17714.6 3291.23 17684.8 3297.5 17677.3" stroke="#FFB226" stroke-width="9.16667" stroke-linecap="round" stroke-linejoin="round" stroke-miterlimit="10" fill="none"/></g><g><path d="M2620.5 17595.2C2633.04 17596.9 2645.57 17586.5 2658.11 17600.3 2670.65 17614 2683.19 17674.4 2695.72 17677.8 2708.26 17681.2 2720.8 17621.8 2733.33 17620.9 2745.87 17620.1 2758.41 17677.2 2770.94 17672.7 2783.48 17668.2 2796.02 17599.8 2808.56 17594 2821.09 17588.2 2833.63 17620.1 2846.17 17638 2858.7 17655.9 2871.24 17697.7 2883.78 17701.3 2896.31 17704.9 2908.85 17657.5 2921.39 17659.8 2933.93 17662.1 2946.46 17701.9 2959 17715.3 2971.54 17728.7 2984.07 17748.5 2996.61 17740 3009.15 17731.6 3021.69 17668.6 3034.22 17664.5 3046.76 17660.5 3059.3 17715.7 3071.83 17715.5 3084.37 17715.3 3096.91 17674.1 3109.44 17663.3 3121.98 17652.6 3134.52 17649.5 3147.06 17651.1 3159.59 17652.6 3172.13 17661 3184.67 17672.6 3197.2 17684.1 3209.74 17719.4 3222.28 17720.3 3234.82 17721.2 3247.35 17693.8 3259.89 17678 3272.43 17662.3 3291.23 17634.6 3297.5 17625.9" stroke="#000000" stroke-width="9.16667" stroke-linecap="round" stroke-linejoin="round" stroke-miterlimit="10" fill="none"/></g><g><text font-family="Inter,Inter_MSFontService,sans-serif" font-weight="400" font-size="32" transform="matrix(1 0 0 1 2548.24 18040)">80</text></g><g><text font-family="Inter,Inter_MSFontService,sans-serif" font-weight="400" font-size="32" transform="matrix(1 0 0 1 2548.01 17876)">90</text></g><g><text font-family="Inter,Inter_MSFontService,sans-serif" font-weight="400" font-size="32" transform="matrix(1 0 0 1 2533.07 17712)">100</text></g><g><text font-family="Inter,Inter_MSFontService,sans-serif" font-weight="400" font-size="32" transform="matrix(1 0 0 1 2538.23 17548)">110</text></g><g><text font-family="Inter,Inter_MSFontService,sans-serif" font-weight="400" font-size="32" transform="matrix(1 0 0 1 2533.71 17385)">120</text></g><g><text font-family="Inter,Inter_MSFontService,sans-serif" font-weight="400" font-size="32" transform="matrix(0.707107 -0.707107 0.707107 0.707107 2595.95 18105)">1/6</text></g><g><text font-family="Inter,Inter_MSFontService,sans-serif" font-weight="400" font-size="32" transform="matrix(0.707107 -0.707107 0.707107 0.707107 2696.24 18118)">1/27</text></g><g><text font-family="Inter,Inter_MSFontService,sans-serif" font-weight="400" font-size="32" transform="matrix(0.707107 -0.707107 0.707107 0.707107 2809.05 18118)">2/17</text></g><g><text font-family="Inter,Inter_MSFontService,sans-serif" font-weight="400" font-size="32" transform="matrix(0.707107 -0.707107 0.707107 0.707107 2930.48 18109)">3/9</text></g><g><text font-family="Inter,Inter_MSFontService,sans-serif" font-weight="400" font-size="32" transform="matrix(0.707107 -0.707107 0.707107 0.707107 3028.82 18124)">3/30</text></g><g><text font-family="Inter,Inter_MSFontService,sans-serif" font-weight="400" font-size="32" transform="matrix(0.707107 -0.707107 0.707107 0.707107 3142.21 18123)">4/20</text></g><g><text font-family="Inter,Inter_MSFontService,sans-serif" font-weight="400" font-size="32" transform="matrix(0.707107 -0.707107 0.707107 0.707107 3262.64 18116)">5/11</text></g><g><text font-family="Inter,Inter_MSFontService,sans-serif" font-weight="400" font-size="32" transform="matrix(0.707107 -0.707107 0.707107 0.707107 3385.63 18105)">6/1</text></g><g><text font-family="Inter,Inter_MSFontService,sans-serif" font-weight="400" font-size="32" transform="matrix(0.707107 -0.707107 0.707107 0.707107 3481.52 18122)">6/22</text></g><g><text font-family="Inter,Inter_MSFontService,sans-serif" font-weight="400" font-size="32" transform="matrix(0.707107 -0.707107 0.707107 0.707107 3598.01 18119)">7/13</text></g><g><text font-family="Inter,Inter_MSFontService,sans-serif" font-weight="400" font-size="32" transform="matrix(0.707107 -0.707107 0.707107 0.707107 3720.31 18109)">8/3</text></g><g><text font-family="Inter,Inter_MSFontService,sans-serif" font-weight="400" font-size="32" transform="matrix(0.707107 -0.707107 0.707107 0.707107 3819.27 18123)">8/24</text></g><g><text font-family="Inter,Inter_MSFontService,sans-serif" font-weight="400" font-size="32" transform="matrix(0.707107 -0.707107 0.707107 0.707107 3935.11 18120)">9/14</text></g><g><text font-family="Inter,Inter_MSFontService,sans-serif" font-weight="400" font-size="32" transform="matrix(0.707107 -0.707107 0.707107 0.707107 4048.67 18119)">10/5</text></g><g><text font-family="Inter,Inter_MSFontService,sans-serif" font-weight="400" font-size="32" transform="matrix(0.707107 -0.707107 0.707107 0.707107 4147.39 18133)">10/26</text></g><g><text font-family="Inter,Inter_MSFontService,sans-serif" font-weight="400" font-size="32" transform="matrix(0.707107 -0.707107 0.707107 0.707107 4267.04 18126)">11/16</text></g><g><text font-family="Inter,Inter_MSFontService,sans-serif" font-weight="400" font-size="32" transform="matrix(0.707107 -0.707107 0.707107 0.707107 4388.39 18118)">12/7</text></g><g><text font-family="Inter Medium,Inter Medium_MSFontService,sans-serif" font-weight="700" font-size="46" transform="matrix(1 0 0 1 2534.37 17216)">U.S. Hotel Occupancy and ADR Recovery Levels</text></g><g><path d="M2526.5 17312.5 2614.5 17312.5" stroke="#FFB226" stroke-width="9.16667" stroke-linecap="round" stroke-linejoin="round" stroke-miterlimit="10" fill="none" fill-rule="evenodd"/></g><g><text font-family="Inter Medium,Inter Medium_MSFontService,sans-serif" font-weight="500" font-size="37" transform="matrix(1 0 0 1 2624.11 17324)">Occ Index</text></g><g><path d="M2852.5 17312.5 2940.5 17312.5" stroke="#000000" stroke-width="9.16667" stroke-linecap="round" stroke-linejoin="round" stroke-miterlimit="10" fill="none" fill-rule="evenodd"/></g><g><text font-family="Inter Medium,Inter Medium_MSFontService,sans-serif" font-weight="500" font-size="37" transform="matrix(1 0 0 1 2949.93 17324)">ADR Index</text></g><rect x="2450.5" y="17127.5" width="2108" height="1056" stroke="#D9D9D9" stroke-width="3.4375" stroke-linejoin="round" stroke-miterlimit="10" fill="none"/><g><text fill="#7F7F7F" font-family="Inter,Inter_MSFontService,sans-serif" font-weight="400" font-size="32" transform="matrix(1 0 0 1 2532.07 17270)">Indexed to 2023, Source: STR, str.com</text></g></g></svg>