<svg width="2106" height="1059" xmlns="http://www.w3.org/2000/svg" xmlns:xlink="http://www.w3.org/1999/xlink" xml:space="preserve" overflow="hidden"><defs><filter id="fx0" x="-10%" y="-10%" width="120%" height="120%" filterUnits="userSpaceOnUse" primitiveUnits="userSpaceOnUse"><feComponentTransfer color-interpolation-filters="sRGB"><feFuncR type="discrete" tableValues="0 0"/><feFuncG type="discrete" tableValues="0 0"/><feFuncB type="discrete" tableValues="0 0"/><feFuncA type="linear" slope="0.501961" intercept="0"/></feComponentTransfer><feGaussianBlur stdDeviation="4.58333 4.58333"/></filter><filter id="fx1" x="-10%" y="-10%" width="120%" height="120%" filterUnits="userSpaceOnUse" primitiveUnits="userSpaceOnUse"><feComponentTransfer color-interpolation-filters="sRGB"><feFuncR type="discrete" tableValues="0 0"/><feFuncG type="discrete" tableValues="0 0"/><feFuncB type="discrete" tableValues="0 0"/><feFuncA type="linear" slope="0.501961" intercept="0"/></feComponentTransfer><feGaussianBlur stdDeviation="4.58333 4.58333"/></filter><clipPath id="clip2"><rect x="2444" y="16555" width="2106" height="1059"/></clipPath><clipPath id="clip3"><rect x="2612" y="16804" width="1885" height="658"/></clipPath><clipPath id="clip4"><rect x="2612" y="16804" width="1885" height="658"/></clipPath></defs><g clip-path="url(#clip2)" transform="translate(-2444 -16555)"><rect x="2445" y="16556" width="2103" height="1056" fill="#FFFFFF"/><g><path d="M2612.5 17131.5 4494.5 17131.5" stroke="#D9D9D9" stroke-width="3.4375" stroke-linejoin="round" stroke-miterlimit="10" fill="none" fill-rule="evenodd"/></g><g clip-path="url(#clip3)"><g filter="url(#fx0)" transform="translate(2601 17037)"><g><path d="M19.9819 114.724C32.4945 125.026 45.0075 137.882 57.5205 145.63 70.0331 153.378 82.5461 168.189 95.059 161.213 107.572 154.236 120.085 113.334 132.598 103.77 145.11 94.2043 157.623 96.7606 170.136 103.822 182.648 110.883 195.161 139.456 207.674 146.136 220.187 152.816 232.7 142.107 245.213 143.902 257.726 145.697 270.238 162.778 282.751 156.907 295.264 151.037 307.777 111.698 320.29 108.677 332.802 105.656 345.315 135.647 357.828 138.78 370.341 141.913 382.854 135.476 395.367 127.477 407.879 119.477 420.392 79.1623 432.905 90.7849 445.418 102.407 457.931 207.982 470.444 197.212 482.956 186.441 495.469 49.0134 507.982 26.1627 520.127 3.98242 533.375 46.4463 545.521 60.1061 558.033 74.1787 570.546 100.123 583.059 110.599 595.572 121.076 608.084 121.243 620.597 122.965 633.11 124.687 645.623 128.802 658.136 120.931 670.649 113.061 683.161 78.6828 695.674 75.7425 708.187 72.8018 720.7 102.773 733.213 103.288 745.726 103.802 758.238 81.0039 770.751 78.8301 783.264 76.6561 795.777 85.3942 808.29 90.2449 820.802 95.0952 833.315 104.239 845.828 107.934 858.341 111.629 870.854 106.339 883.367 112.414 895.88 118.489 908.392 154.108 920.905 144.385 933.418 134.661 945.931 59.1186 958.444 54.0709 970.956 49.0228 983.469 95.6972 995.982 114.096 1008.49 132.495 1021.01 168.914 1033.52 164.465 1046.03 160.016 1058.55 97.2487 1071.06 87.404 1083.57 77.5588 1096.08 105.129 1108.6 105.395 1121.11 105.66 1133.62 91.3476 1146.14 88.9963 1158.65 86.6446 1171.16 88.9015 1183.67 91.2867 1196.19 93.6715 1208.7 106.322 1221.21 103.306 1233.73 100.289 1246.24 78.8114 1258.75 73.188 1270.39 67.9561 1284.65 54.76 1296.29 69.5643 1308.8 85.4777 1321.32 159.023 1333.83 168.669 1346.34 178.314 1358.85 140.329 1371.37 127.437 1383.88 114.545 1396.39 102.69 1408.91 91.3144 1421.42 79.9383 1433.93 48.7454 1446.44 59.1817 1458.96 69.6176 1477.73 138.14 1483.98 153.932" stroke="#FFB226" stroke-width="9" stroke-linecap="round" stroke-linejoin="round" stroke-miterlimit="10" fill="none"/></g></g></g><g clip-path="url(#clip4)"><g filter="url(#fx1)" transform="translate(2601 16988)"><g><path d="M19.9819 42.8668C32.4945 44.5665 45.0075 34.1864 57.5205 47.9663 70.0331 61.7463 82.5461 122.105 95.059 125.546 107.572 128.987 120.085 69.4625 132.598 68.6128 145.11 67.7627 157.623 124.931 170.136 120.448 182.648 115.964 195.161 47.4971 207.674 41.7104 220.187 35.9233 232.7 67.831 245.213 85.7268 257.726 103.622 270.238 145.447 282.751 149.083 295.264 152.719 307.777 105.207 320.29 107.542 332.802 109.876 345.315 149.708 357.828 163.091 370.341 176.474 382.854 196.307 395.367 187.84 407.879 179.373 420.392 116.381 432.905 112.288 445.418 108.195 457.931 163.483 470.444 163.282 482.956 163.081 495.469 121.825 507.982 111.08 520.495 100.336 533.008 97.2741 545.521 98.8164 558.033 100.358 570.546 108.786 583.059 120.333 595.572 131.879 608.084 167.184 620.597 168.093 633.11 169.001 645.623 141.536 658.136 125.784 670.649 110.032 683.161 77.4019 695.674 73.5805 708.187 69.7587 720.7 97.1286 733.213 102.854 745.726 108.579 758.238 101.11 770.751 107.934 783.264 114.758 795.777 142.311 808.29 143.797 820.802 145.283 833.315 118.993 845.828 116.851 858.341 114.708 870.854 126.892 883.367 130.944 895.88 134.995 908.392 149.383 920.905 141.159 933.418 132.935 945.931 82.6474 958.444 81.599 970.956 80.5503 983.469 120.404 995.982 134.868 1008.49 149.332 1021.01 173.023 1033.52 168.382 1046.03 163.739 1058.55 114.465 1071.06 107.016 1083.57 99.5656 1096.08 119.125 1108.6 123.684 1121.11 128.242 1133.62 135.215 1146.14 134.364 1158.65 133.514 1171.16 119.927 1183.67 118.582 1196.19 117.236 1208.7 129.329 1221.21 126.29 1233.73 123.25 1246.24 102.075 1258.75 100.346 1271.26 98.6162 1283.78 105.803 1296.29 115.914 1308.8 126.025 1321.32 156.819 1333.83 161.013 1346.34 165.206 1358.85 149.219 1371.37 141.077 1383.88 132.935 1396.39 132.014 1408.91 112.16 1421.42 92.3061 1433.93 3.98242 1446.44 21.953 1458.96 39.9232 1477.73 186.977 1483.98 219.983" stroke="#000000" stroke-width="9" stroke-linecap="round" stroke-linejoin="round" stroke-miterlimit="10" fill="none"/></g></g></g><g><path d="M2614.5 17145.2C2627.01 17155.5 2639.53 17168.4 2652.04 17176.1 2664.55 17183.9 2677.06 17198.7 2689.58 17191.7 2702.09 17184.8 2714.6 17143.9 2727.12 17134.3 2739.63 17124.7 2752.14 17127.3 2764.65 17134.3 2777.17 17141.4 2789.68 17170 2802.19 17176.7 2814.71 17183.3 2827.22 17172.6 2839.73 17174.4 2852.24 17176.2 2864.76 17193.3 2877.27 17187.4 2889.78 17181.6 2902.29 17142.2 2914.81 17139.2 2927.32 17136.2 2939.83 17166.2 2952.35 17169.3 2964.86 17172.4 2977.37 17166 2989.88 17158 3002.4 17150 3014.91 17109.7 3027.42 17121.3 3039.94 17132.9 3052.45 17238.5 3064.96 17227.7 3077.47 17217 3089.99 17079.5 3102.5 17056.7 3114.65 17034.5 3127.89 17077 3140.04 17090.6 3152.55 17104.7 3165.06 17130.6 3177.58 17141.1 3190.09 17151.6 3202.6 17151.8 3215.12 17153.5 3227.63 17155.2 3240.14 17159.3 3252.65 17151.4 3265.17 17143.6 3277.68 17109.2 3290.19 17106.3 3302.71 17103.3 3315.22 17133.3 3327.73 17133.8 3340.24 17134.3 3352.76 17111.5 3365.27 17109.3 3377.78 17107.2 3390.29 17115.9 3402.81 17120.8 3415.32 17125.6 3427.83 17134.8 3440.35 17138.5 3452.86 17142.1 3465.37 17136.9 3477.89 17142.9 3490.4 17149 3502.91 17184.6 3515.42 17174.9 3527.94 17165.2 3540.45 17089.6 3552.96 17084.6 3565.47 17079.5 3577.99 17126.2 3590.5 17144.6 3603.01 17163 3615.53 17199.4 3628.04 17195 3640.55 17190.5 3653.06 17127.8 3665.58 17117.9 3678.09 17108.1 3690.6 17135.6 3703.12 17135.9 3715.63 17136.2 3728.14 17121.9 3740.65 17119.5 3753.17 17117.2 3765.68 17119.4 3778.19 17121.8 3790.71 17124.2 3803.22 17136.8 3815.73 17133.8 3828.24 17130.8 3840.76 17109.3 3853.27 17103.7 3864.91 17098.5 3879.17 17085.3 3890.81 17100.1 3903.32 17116 3915.83 17189.5 3928.35 17199.2 3940.86 17208.8 3953.37 17170.8 3965.88 17158 3978.4 17145.1 3990.91 17133.2 4003.42 17121.8 4015.94 17110.5 4028.45 17079.3 4040.96 17089.7 4053.47 17100.1 4072.24 17168.7 4078.5 17184.4" stroke="#FFB226" stroke-width="9.16667" stroke-linecap="round" stroke-linejoin="round" stroke-miterlimit="10" fill="none"/></g><g><path d="M2614.5 17024.4C2627.01 17026.1 2639.53 17015.7 2652.04 17029.5 2664.55 17043.3 2677.06 17103.6 2689.58 17107.1 2702.09 17110.5 2714.6 17051 2727.12 17050.1 2739.63 17049.3 2752.14 17106.4 2764.65 17102 2777.17 17097.5 2789.68 17029 2802.19 17023.2 2814.71 17017.4 2827.22 17049.3 2839.73 17067.2 2852.24 17085.1 2864.76 17127 2877.27 17130.6 2889.78 17134.2 2902.29 17086.7 2914.81 17089.1 2927.32 17091.4 2939.83 17131.2 2952.35 17144.6 2964.86 17158 2977.37 17177.8 2989.88 17169.4 3002.4 17160.9 3014.91 17097.9 3027.42 17093.8 3039.94 17089.7 3052.45 17145 3064.96 17144.8 3077.47 17144.6 3089.99 17103.3 3102.5 17092.6 3115.01 17081.9 3127.53 17078.8 3140.04 17080.3 3152.55 17081.9 3165.06 17090.3 3177.58 17101.8 3190.09 17113.4 3202.6 17148.7 3215.12 17149.6 3227.63 17150.5 3240.14 17123.1 3252.65 17107.3 3265.17 17091.5 3277.68 17058.9 3290.19 17055.1 3302.71 17051.3 3315.22 17078.6 3327.73 17084.4 3340.24 17090.1 3352.76 17082.6 3365.27 17089.5 3377.78 17096.3 3390.29 17123.8 3402.81 17125.3 3415.32 17126.8 3427.83 17100.5 3440.35 17098.4 3452.86 17096.2 3465.37 17108.4 3477.89 17112.5 3490.4 17116.5 3502.91 17130.9 3515.42 17122.7 3527.94 17114.5 3540.45 17064.2 3552.96 17063.1 3565.47 17062.1 3577.99 17101.9 3590.5 17116.4 3603.01 17130.8 3615.53 17154.5 3628.04 17149.9 3640.55 17145.3 3653.06 17096 3665.58 17088.5 3678.09 17081.1 3690.6 17100.6 3703.12 17105.2 3715.63 17109.8 3728.14 17116.7 3740.65 17115.9 3753.17 17115 3765.68 17101.4 3778.19 17100.1 3790.71 17098.8 3803.22 17110.8 3815.73 17107.8 3828.24 17104.8 3840.76 17083.6 3853.27 17081.9 3865.78 17080.1 3878.29 17087.3 3890.81 17097.4 3903.32 17107.5 3915.83 17138.3 3928.35 17142.5 3940.86 17146.7 3953.37 17130.7 3965.88 17122.6 3978.4 17114.5 3990.91 17113.5 4003.42 17093.7 4015.94 17073.8 4028.45 16985.5 4040.96 17003.5 4053.47 17021.4 4072.24 17168.5 4078.5 17201.5" stroke="#000000" stroke-width="9.16667" stroke-linecap="round" stroke-linejoin="round" stroke-miterlimit="10" fill="none"/></g><g><text font-family="Inter,Inter_MSFontService,sans-serif" font-weight="400" font-size="32" transform="matrix(1 0 0 1 2542.69 17469)">80</text></g><g><text font-family="Inter,Inter_MSFontService,sans-serif" font-weight="400" font-size="32" transform="matrix(1 0 0 1 2542.46 17305)">90</text></g><g><text font-family="Inter,Inter_MSFontService,sans-serif" font-weight="400" font-size="32" transform="matrix(1 0 0 1 2527.52 17142)">100</text></g><g><text font-family="Inter,Inter_MSFontService,sans-serif" font-weight="400" font-size="32" transform="matrix(1 0 0 1 2532.67 16978)">110</text></g><g><text font-family="Inter,Inter_MSFontService,sans-serif" font-weight="400" font-size="32" transform="matrix(1 0 0 1 2528.16 16814)">120</text></g><g><text font-family="Inter,Inter_MSFontService,sans-serif" font-weight="400" font-size="32" transform="matrix(0.707107 -0.707107 0.707107 0.707107 2590.39 17535)">1/6</text></g><g><text font-family="Inter,Inter_MSFontService,sans-serif" font-weight="400" font-size="32" transform="matrix(0.707107 -0.707107 0.707107 0.707107 2690.45 17547)">1/27</text></g><g><text font-family="Inter,Inter_MSFontService,sans-serif" font-weight="400" font-size="32" transform="matrix(0.707107 -0.707107 0.707107 0.707107 2803.03 17547)">2/17</text></g><g><text font-family="Inter,Inter_MSFontService,sans-serif" font-weight="400" font-size="32" transform="matrix(0.707107 -0.707107 0.707107 0.707107 2924.23 17539)">3/9</text></g><g><text font-family="Inter,Inter_MSFontService,sans-serif" font-weight="400" font-size="32" transform="matrix(0.707107 -0.707107 0.707107 0.707107 3022.35 17553)">3/30</text></g><g><text font-family="Inter,Inter_MSFontService,sans-serif" font-weight="400" font-size="32" transform="matrix(0.707107 -0.707107 0.707107 0.707107 3135.51 17553)">4/20</text></g><g><text font-family="Inter,Inter_MSFontService,sans-serif" font-weight="400" font-size="32" transform="matrix(0.707107 -0.707107 0.707107 0.707107 3255.71 17545)">5/11</text></g><g><text font-family="Inter,Inter_MSFontService,sans-serif" font-weight="400" font-size="32" transform="matrix(0.707107 -0.707107 0.707107 0.707107 3378.47 17535)">6/1</text></g><g><text font-family="Inter,Inter_MSFontService,sans-serif" font-weight="400" font-size="32" transform="matrix(0.707107 -0.707107 0.707107 0.707107 3474.13 17552)">6/22</text></g><g><text font-family="Inter,Inter_MSFontService,sans-serif" font-weight="400" font-size="32" transform="matrix(0.707107 -0.707107 0.707107 0.707107 3590.39 17548)">7/13</text></g><g><text font-family="Inter,Inter_MSFontService,sans-serif" font-weight="400" font-size="32" transform="matrix(0.707107 -0.707107 0.707107 0.707107 3712.47 17538)">8/3</text></g><g><text font-family="Inter,Inter_MSFontService,sans-serif" font-weight="400" font-size="32" transform="matrix(0.707107 -0.707107 0.707107 0.707107 3811.2 17552)">8/24</text></g><g><text font-family="Inter,Inter_MSFontService,sans-serif" font-weight="400" font-size="32" transform="matrix(0.707107 -0.707107 0.707107 0.707107 3926.81 17549)">9/14</text></g><g><text font-family="Inter,Inter_MSFontService,sans-serif" font-weight="400" font-size="32" transform="matrix(0.707107 -0.707107 0.707107 0.707107 4040.14 17549)">10/5</text></g><g><text font-family="Inter,Inter_MSFontService,sans-serif" font-weight="400" font-size="32" transform="matrix(0.707107 -0.707107 0.707107 0.707107 4138.64 17563)">10/26</text></g><g><text font-family="Inter,Inter_MSFontService,sans-serif" font-weight="400" font-size="32" transform="matrix(0.707107 -0.707107 0.707107 0.707107 4258.06 17556)">11/16</text></g><g><text font-family="Inter,Inter_MSFontService,sans-serif" font-weight="400" font-size="32" transform="matrix(0.707107 -0.707107 0.707107 0.707107 4379.18 17547)">12/7</text></g><g><text font-family="Inter Medium,Inter Medium_MSFontService,sans-serif" font-weight="700" font-size="46" transform="matrix(1 0 0 1 2529.01 16646)">U.S. Hotel Occupancy and ADR Recovery Levels</text></g><g><path d="M2521.5 16741.5 2609.5 16741.5" stroke="#FFB226" stroke-width="9.16667" stroke-linecap="round" stroke-linejoin="round" stroke-miterlimit="10" fill="none" fill-rule="evenodd"/></g><g><text font-family="Inter Medium,Inter Medium_MSFontService,sans-serif" font-weight="500" font-size="37" transform="matrix(1 0 0 1 2618.39 16754)">Occ Index</text></g><g><path d="M2846.5 16741.5 2934.5 16741.5" stroke="#000000" stroke-width="9.16667" stroke-linecap="round" stroke-linejoin="round" stroke-miterlimit="10" fill="none" fill-rule="evenodd"/></g><g><text font-family="Inter Medium,Inter Medium_MSFontService,sans-serif" font-weight="500" font-size="37" transform="matrix(1 0 0 1 2943.74 16754)">ADR Index</text></g><rect x="2445.5" y="16556.5" width="2103" height="1056" stroke="#D9D9D9" stroke-width="3.4375" stroke-linejoin="round" stroke-miterlimit="10" fill="none"/><g><text fill="#7F7F7F" font-family="Inter,Inter_MSFontService,sans-serif" font-weight="400" font-size="32" transform="matrix(1 0 0 1 2526.75 16700)">Indexed to 2023, Source: STR, str.com</text></g></g></svg>