<svg width="2106" height="1059" xmlns="http://www.w3.org/2000/svg" xmlns:xlink="http://www.w3.org/1999/xlink" xml:space="preserve" overflow="hidden"><defs><filter id="fx0" x="-10%" y="-10%" width="120%" height="120%" filterUnits="userSpaceOnUse" primitiveUnits="userSpaceOnUse"><feComponentTransfer color-interpolation-filters="sRGB"><feFuncR type="discrete" tableValues="0 0"/><feFuncG type="discrete" tableValues="0 0"/><feFuncB type="discrete" tableValues="0 0"/><feFuncA type="linear" slope="0.501961" intercept="0"/></feComponentTransfer><feGaussianBlur stdDeviation="4.58333 4.58333"/></filter><filter id="fx1" x="-10%" y="-10%" width="120%" height="120%" filterUnits="userSpaceOnUse" primitiveUnits="userSpaceOnUse"><feComponentTransfer color-interpolation-filters="sRGB"><feFuncR type="discrete" tableValues="0 0"/><feFuncG type="discrete" tableValues="0 0"/><feFuncB type="discrete" tableValues="0 0"/><feFuncA type="linear" slope="0.501961" intercept="0"/></feComponentTransfer><feGaussianBlur stdDeviation="4.58333 4.58333"/></filter><clipPath id="clip2"><rect x="2444" y="17126" width="2106" height="1059"/></clipPath><clipPath id="clip3"><rect x="2612" y="17374" width="1885" height="659"/></clipPath><clipPath id="clip4"><rect x="2612" y="17374" width="1885" height="659"/></clipPath></defs><g clip-path="url(#clip2)" transform="translate(-2444 -17126)"><rect x="2445" y="17127" width="2103" height="1056" fill="#FFFFFF"/><g><path d="M2612.5 17702.5 4494.5 17702.5" stroke="#D9D9D9" stroke-width="3.4375" stroke-linejoin="round" stroke-miterlimit="10" fill="none" fill-rule="evenodd"/></g><g clip-path="url(#clip3)"><g filter="url(#fx0)" transform="translate(2601 17608)"><g><path d="M19.9819 114.724C32.5017 125.026 45.0219 137.882 57.542 145.63 70.0618 153.378 82.5819 168.189 95.1021 161.213 107.622 154.236 120.142 113.334 132.662 103.769 145.182 94.2042 157.702 96.7608 170.222 103.822 182.742 110.883 195.262 139.456 207.782 146.136 220.302 152.816 232.822 142.107 245.342 143.902 257.862 145.697 270.382 162.778 282.902 156.908 295.422 151.037 307.942 111.698 320.462 108.677 332.982 105.656 345.502 135.647 358.022 138.78 370.542 141.913 383.062 135.476 395.582 127.477 408.102 119.477 420.622 79.1622 433.142 90.7847 445.662 102.407 458.182 207.982 470.702 197.212 483.222 186.441 495.742 49.0137 508.262 26.1627 520.414 3.98242 533.669 46.4462 545.822 60.106 558.342 74.1785 570.862 100.123 583.382 110.599 595.902 121.075 608.422 121.243 620.942 122.965 633.461 124.687 645.982 128.801 658.502 120.931 671.022 113.06 683.542 78.683 696.062 75.7427 708.582 72.802 721.102 102.773 733.622 103.287 746.142 103.802 758.661 81.0041 771.182 78.8304 783.701 76.6563 796.222 85.394 808.742 90.2447 821.262 95.095 833.782 104.239 846.302 107.934 858.822 111.629 871.342 106.339 883.862 112.414 896.382 118.489 908.901 154.108 921.422 144.384 933.941 134.66 952.722 69.1232 958.982 54.0711" stroke="#FFB226" stroke-width="9" stroke-linecap="round" stroke-linejoin="round" stroke-miterlimit="10" fill="none"/></g></g></g><g clip-path="url(#clip4)"><g filter="url(#fx1)" transform="translate(2601 17580)"><g><path d="M19.9819 21.6563C32.5017 23.3548 45.0219 12.9824 57.542 26.7521 70.0618 40.5214 82.5819 100.835 95.1021 104.274 107.622 107.712 120.142 48.2321 132.662 47.3831 145.182 46.5337 157.702 103.659 170.222 99.1792 182.742 94.6986 195.262 26.2831 207.782 20.5008 220.302 14.7181 232.822 46.6015 245.342 64.484 257.862 82.366 270.382 124.16 282.902 127.794 295.422 131.427 307.942 83.9497 320.462 86.2828 332.982 88.6155 345.502 128.417 358.022 141.791 370.542 155.164 383.062 174.982 395.582 166.521 408.102 158.061 420.622 95.1152 433.142 91.0251 445.662 86.9351 458.182 142.182 470.702 141.981 483.222 141.78 495.742 100.555 508.262 89.8187 520.782 79.0825 533.302 76.0227 545.822 77.5638 558.342 79.1045 570.862 87.5268 583.382 99.0644 595.902 110.602 608.422 145.88 620.942 146.788 633.461 147.696 645.982 120.251 658.502 104.511 671.022 88.7711 683.542 56.1653 696.062 52.3467 708.582 48.5278 721.102 75.8776 733.622 81.5989 746.142 87.3199 758.661 79.8557 771.182 86.6745 783.701 93.4929 796.222 121.026 808.742 122.511 821.262 123.996 833.782 97.7251 846.302 95.5848 858.822 93.4441 871.342 105.619 883.862 109.667 896.382 113.716 908.901 128.093 921.422 119.875 933.941 111.657 952.722 70.2786 958.982 60.3593" stroke="#000000" stroke-width="9" stroke-linecap="round" stroke-linejoin="round" stroke-miterlimit="10" fill="none"/></g></g></g><g><path d="M2614.5 17716.2C2627.02 17726.5 2639.54 17739.4 2652.06 17747.1 2664.58 17754.9 2677.1 17769.7 2689.62 17762.7 2702.14 17755.8 2714.66 17714.9 2727.18 17705.3 2739.7 17695.7 2752.22 17698.3 2764.74 17705.3 2777.26 17712.4 2789.78 17741 2802.3 17747.7 2814.82 17754.3 2827.34 17743.6 2839.86 17745.4 2852.38 17747.2 2864.9 17764.3 2877.42 17758.4 2889.94 17752.6 2902.46 17713.2 2914.98 17710.2 2927.5 17707.2 2940.02 17737.2 2952.54 17740.3 2965.06 17743.4 2977.58 17737 2990.1 17729 3002.62 17721 3015.14 17680.7 3027.66 17692.3 3040.18 17703.9 3052.7 17809.5 3065.22 17798.7 3077.74 17788 3090.26 17650.5 3102.78 17627.7 3114.93 17605.5 3128.19 17648 3140.34 17661.6 3152.86 17675.7 3165.38 17701.6 3177.9 17712.1 3190.42 17722.6 3202.94 17722.8 3215.46 17724.5 3227.98 17726.2 3240.5 17730.3 3253.02 17722.4 3265.54 17714.6 3278.06 17680.2 3290.58 17677.3 3303.1 17674.3 3315.62 17704.3 3328.14 17704.8 3340.66 17705.3 3353.18 17682.5 3365.7 17680.3 3378.22 17678.2 3390.74 17686.9 3403.26 17691.8 3415.78 17696.6 3428.3 17705.8 3440.82 17709.5 3453.34 17713.1 3465.86 17707.9 3478.38 17713.9 3490.9 17720 3503.42 17755.6 3515.94 17745.9 3528.46 17736.2 3547.24 17670.6 3553.5 17655.6" stroke="#FFB226" stroke-width="9.16667" stroke-linecap="round" stroke-linejoin="round" stroke-miterlimit="10" fill="none"/></g><g><path d="M2614.5 17595.2C2627.02 17596.9 2639.54 17586.5 2652.06 17600.3 2664.58 17614 2677.1 17674.4 2689.62 17677.8 2702.14 17681.2 2714.66 17621.8 2727.18 17620.9 2739.7 17620.1 2752.22 17677.2 2764.74 17672.7 2777.26 17668.2 2789.78 17599.8 2802.3 17594 2814.82 17588.2 2827.34 17620.1 2839.86 17638 2852.38 17655.9 2864.9 17697.7 2877.42 17701.3 2889.94 17704.9 2902.46 17657.5 2914.98 17659.8 2927.5 17662.1 2940.02 17701.9 2952.54 17715.3 2965.06 17728.7 2977.58 17748.5 2990.1 17740 3002.62 17731.6 3015.14 17668.6 3027.66 17664.5 3040.18 17660.5 3052.7 17715.7 3065.22 17715.5 3077.74 17715.3 3090.26 17674.1 3102.78 17663.3 3115.3 17652.6 3127.82 17649.5 3140.34 17651.1 3152.86 17652.6 3165.38 17661 3177.9 17672.6 3190.42 17684.1 3202.94 17719.4 3215.46 17720.3 3227.98 17721.2 3240.5 17693.8 3253.02 17678 3265.54 17662.3 3278.06 17629.7 3290.58 17625.9 3303.1 17622 3315.62 17649.4 3328.14 17655.1 3340.66 17660.8 3353.18 17653.4 3365.7 17660.2 3378.22 17667 3390.74 17694.5 3403.26 17696 3415.78 17697.5 3428.3 17671.2 3440.82 17669.1 3453.34 17667 3465.86 17679.1 3478.38 17683.2 3490.9 17687.2 3503.42 17701.6 3515.94 17693.4 3528.46 17685.2 3547.24 17643.8 3553.5 17633.9" stroke="#000000" stroke-width="9.16667" stroke-linecap="round" stroke-linejoin="round" stroke-miterlimit="10" fill="none"/></g><g><text font-family="Inter,Inter_MSFontService,sans-serif" font-weight="400" font-size="32" transform="matrix(1 0 0 1 2542.69 18040)">80</text></g><g><text font-family="Inter,Inter_MSFontService,sans-serif" font-weight="400" font-size="32" transform="matrix(1 0 0 1 2542.46 17876)">90</text></g><g><text font-family="Inter,Inter_MSFontService,sans-serif" font-weight="400" font-size="32" transform="matrix(1 0 0 1 2527.52 17712)">100</text></g><g><text font-family="Inter,Inter_MSFontService,sans-serif" font-weight="400" font-size="32" transform="matrix(1 0 0 1 2532.67 17548)">110</text></g><g><text font-family="Inter,Inter_MSFontService,sans-serif" font-weight="400" font-size="32" transform="matrix(1 0 0 1 2528.16 17385)">120</text></g><g><text font-family="Inter,Inter_MSFontService,sans-serif" font-weight="400" font-size="32" transform="matrix(0.707107 -0.707107 0.707107 0.707107 2590.39 18105)">1/6</text></g><g><text font-family="Inter,Inter_MSFontService,sans-serif" font-weight="400" font-size="32" transform="matrix(0.707107 -0.707107 0.707107 0.707107 2690.45 18118)">1/27</text></g><g><text font-family="Inter,Inter_MSFontService,sans-serif" font-weight="400" font-size="32" transform="matrix(0.707107 -0.707107 0.707107 0.707107 2803.03 18118)">2/17</text></g><g><text font-family="Inter,Inter_MSFontService,sans-serif" font-weight="400" font-size="32" transform="matrix(0.707107 -0.707107 0.707107 0.707107 2924.23 18109)">3/9</text></g><g><text font-family="Inter,Inter_MSFontService,sans-serif" font-weight="400" font-size="32" transform="matrix(0.707107 -0.707107 0.707107 0.707107 3022.35 18124)">3/30</text></g><g><text font-family="Inter,Inter_MSFontService,sans-serif" font-weight="400" font-size="32" transform="matrix(0.707107 -0.707107 0.707107 0.707107 3135.51 18123)">4/20</text></g><g><text font-family="Inter,Inter_MSFontService,sans-serif" font-weight="400" font-size="32" transform="matrix(0.707107 -0.707107 0.707107 0.707107 3255.71 18116)">5/11</text></g><g><text font-family="Inter,Inter_MSFontService,sans-serif" font-weight="400" font-size="32" transform="matrix(0.707107 -0.707107 0.707107 0.707107 3378.47 18105)">6/1</text></g><g><text font-family="Inter,Inter_MSFontService,sans-serif" font-weight="400" font-size="32" transform="matrix(0.707107 -0.707107 0.707107 0.707107 3474.13 18122)">6/22</text></g><g><text font-family="Inter,Inter_MSFontService,sans-serif" font-weight="400" font-size="32" transform="matrix(0.707107 -0.707107 0.707107 0.707107 3590.39 18119)">7/13</text></g><g><text font-family="Inter,Inter_MSFontService,sans-serif" font-weight="400" font-size="32" transform="matrix(0.707107 -0.707107 0.707107 0.707107 3712.47 18109)">8/3</text></g><g><text font-family="Inter,Inter_MSFontService,sans-serif" font-weight="400" font-size="32" transform="matrix(0.707107 -0.707107 0.707107 0.707107 3811.2 18123)">8/24</text></g><g><text font-family="Inter,Inter_MSFontService,sans-serif" font-weight="400" font-size="32" transform="matrix(0.707107 -0.707107 0.707107 0.707107 3926.81 18120)">9/14</text></g><g><text font-family="Inter,Inter_MSFontService,sans-serif" font-weight="400" font-size="32" transform="matrix(0.707107 -0.707107 0.707107 0.707107 4040.14 18119)">10/5</text></g><g><text font-family="Inter,Inter_MSFontService,sans-serif" font-weight="400" font-size="32" transform="matrix(0.707107 -0.707107 0.707107 0.707107 4138.64 18133)">10/26</text></g><g><text font-family="Inter,Inter_MSFontService,sans-serif" font-weight="400" font-size="32" transform="matrix(0.707107 -0.707107 0.707107 0.707107 4258.06 18126)">11/16</text></g><g><text font-family="Inter,Inter_MSFontService,sans-serif" font-weight="400" font-size="32" transform="matrix(0.707107 -0.707107 0.707107 0.707107 4379.18 18118)">12/7</text></g><g><text font-family="Inter Medium,Inter Medium_MSFontService,sans-serif" font-weight="700" font-size="46" transform="matrix(1 0 0 1 2529.01 17216)">U.S. Hotel Occupancy and ADR Recovery Levels</text></g><g><path d="M2521.5 17312.5 2609.5 17312.5" stroke="#FFB226" stroke-width="9.16667" stroke-linecap="round" stroke-linejoin="round" stroke-miterlimit="10" fill="none" fill-rule="evenodd"/></g><g><text font-family="Inter Medium,Inter Medium_MSFontService,sans-serif" font-weight="500" font-size="37" transform="matrix(1 0 0 1 2618.39 17324)">Occ Index</text></g><g><path d="M2846.5 17312.5 2934.5 17312.5" stroke="#000000" stroke-width="9.16667" stroke-linecap="round" stroke-linejoin="round" stroke-miterlimit="10" fill="none" fill-rule="evenodd"/></g><g><text font-family="Inter Medium,Inter Medium_MSFontService,sans-serif" font-weight="500" font-size="37" transform="matrix(1 0 0 1 2943.74 17324)">ADR Index</text></g><rect x="2445.5" y="17127.5" width="2103" height="1056" stroke="#D9D9D9" stroke-width="3.4375" stroke-linejoin="round" stroke-miterlimit="10" fill="none"/><g><text fill="#7F7F7F" font-family="Inter,Inter_MSFontService,sans-serif" font-weight="400" font-size="32" transform="matrix(1 0 0 1 2526.75 17270)">Indexed to 2023, Source: STR, str.com</text></g></g></svg>