<svg width="2106" height="1059" xmlns="http://www.w3.org/2000/svg" xmlns:xlink="http://www.w3.org/1999/xlink" xml:space="preserve" overflow="hidden"><defs><filter id="fx0" x="-10%" y="-10%" width="120%" height="120%" filterUnits="userSpaceOnUse" primitiveUnits="userSpaceOnUse"><feComponentTransfer color-interpolation-filters="sRGB"><feFuncR type="discrete" tableValues="0 0"/><feFuncG type="discrete" tableValues="0 0"/><feFuncB type="discrete" tableValues="0 0"/><feFuncA type="linear" slope="0.501961" intercept="0"/></feComponentTransfer><feGaussianBlur stdDeviation="4.58333 4.58333"/></filter><filter id="fx1" x="-10%" y="-10%" width="120%" height="120%" filterUnits="userSpaceOnUse" primitiveUnits="userSpaceOnUse"><feComponentTransfer color-interpolation-filters="sRGB"><feFuncR type="discrete" tableValues="0 0"/><feFuncG type="discrete" tableValues="0 0"/><feFuncB type="discrete" tableValues="0 0"/><feFuncA type="linear" slope="0.501961" intercept="0"/></feComponentTransfer><feGaussianBlur stdDeviation="4.58333 4.58333"/></filter><clipPath id="clip2"><rect x="2444" y="16555" width="2106" height="1059"/></clipPath><clipPath id="clip3"><rect x="2612" y="16804" width="1885" height="658"/></clipPath><clipPath id="clip4"><rect x="2612" y="16804" width="1885" height="658"/></clipPath></defs><g clip-path="url(#clip2)" transform="translate(-2444 -16555)"><rect x="2445" y="16556" width="2103" height="1056" fill="#FFFFFF"/><g><path d="M2612.5 17131.5 4494.5 17131.5" stroke="#D9D9D9" stroke-width="3.4375" stroke-linejoin="round" stroke-miterlimit="10" fill="none" fill-rule="evenodd"/></g><g clip-path="url(#clip3)"><g filter="url(#fx0)" transform="translate(2601 17037)"><g><path d="M19.9819 114.724C32.4928 125.026 45.0041 137.882 57.5153 145.63 70.0262 153.378 82.5375 168.189 95.0488 161.213 107.56 154.236 120.071 113.334 132.582 103.77 145.093 94.2043 157.604 96.7606 170.115 103.822 182.626 110.883 195.137 139.456 207.649 146.136 220.16 152.816 232.671 142.107 245.182 143.902 257.693 145.697 270.204 162.778 282.715 156.907 295.226 151.037 307.737 111.698 320.248 108.677 332.759 105.656 345.271 135.647 357.782 138.78 370.293 141.913 382.804 135.476 395.315 127.477 407.826 119.477 420.337 79.1623 432.849 90.7849 445.36 102.407 457.871 207.982 470.382 197.212 482.893 186.441 495.404 49.0134 507.915 26.1627 520.059 3.98242 533.305 46.4463 545.449 60.1061 557.959 74.1787 570.471 100.123 582.982 110.599 595.493 121.076 608.004 121.243 620.515 122.965 633.026 124.687 645.537 128.802 658.048 120.931 670.559 113.061 683.071 78.6828 695.582 75.7425 708.093 72.8018 720.604 102.773 733.115 103.288 745.626 103.802 758.137 81.0039 770.648 78.8301 783.159 76.6561 795.67 85.3942 808.182 90.2449 820.693 95.0952 833.204 104.239 845.715 107.934 858.226 111.629 870.737 106.339 883.249 112.414 895.759 118.489 908.27 154.108 920.782 144.385 933.292 134.661 945.804 59.1186 958.315 54.0709 970.826 49.0228 983.337 95.6972 995.848 114.096 1008.36 132.495 1020.87 168.914 1033.38 164.465 1045.89 160.016 1058.4 97.2487 1070.91 87.404 1083.43 77.5588 1095.94 105.129 1108.45 105.395 1120.96 105.66 1139.73 91.7291 1145.98 88.9963" stroke="#FFB226" stroke-width="9" stroke-linecap="round" stroke-linejoin="round" stroke-miterlimit="10" fill="none"/></g></g></g><g clip-path="url(#clip4)"><g filter="url(#fx1)" transform="translate(2601 17009)"><g><path d="M19.9819 21.6563C32.4928 23.3548 45.0041 12.9824 57.5153 26.7521 70.0262 40.5217 82.5375 100.835 95.0488 104.274 107.56 107.713 120.071 48.2321 132.582 47.3831 145.093 46.5337 157.604 103.659 170.115 99.1792 182.626 94.6986 195.137 26.2831 207.649 20.5008 220.16 14.7181 232.671 46.6019 245.182 64.4843 257.693 82.3664 270.204 124.16 282.715 127.794 295.226 131.427 307.737 83.9497 320.248 86.2828 332.759 88.6155 345.271 128.418 357.782 141.791 370.293 155.164 382.804 174.982 395.315 166.521 407.826 158.061 420.337 95.1152 432.849 91.0255 445.36 86.9355 457.871 142.183 470.382 141.982 482.893 141.781 495.404 100.555 507.915 89.8191 520.426 79.0828 532.937 76.0231 545.449 77.5641 557.959 79.1048 570.471 87.5268 582.982 99.0644 595.493 110.602 608.004 145.881 620.515 146.789 633.026 147.696 645.537 120.252 658.048 104.512 670.559 88.7715 683.071 56.1656 695.582 52.3471 708.093 48.5282 720.604 75.8776 733.115 81.5989 745.626 87.3199 758.137 79.8561 770.648 86.6748 783.159 93.4936 795.67 121.026 808.182 122.512 820.693 123.996 833.204 97.7255 845.715 95.5848 858.226 93.4441 870.737 105.619 883.249 109.667 895.759 113.716 908.27 128.093 920.782 119.875 933.292 111.657 945.804 61.4072 958.315 60.3596 970.826 59.3117 983.337 99.1359 995.848 113.589 1008.36 128.042 1020.87 151.716 1033.38 147.077 1045.89 142.439 1058.4 93.2012 1070.91 85.7572 1083.43 78.3128 1095.94 97.858 1108.45 102.413 1120.96 106.968 1139.73 111.307 1145.98 113.086" stroke="#000000" stroke-width="9" stroke-linecap="round" stroke-linejoin="round" stroke-miterlimit="10" fill="none"/></g></g></g><g><path d="M2614.5 17145.2C2627.01 17155.5 2639.52 17168.4 2652.03 17176.1 2664.54 17183.9 2677.06 17198.7 2689.57 17191.7 2702.08 17184.8 2714.59 17143.9 2727.1 17134.3 2739.61 17124.7 2752.12 17127.3 2764.63 17134.3 2777.14 17141.4 2789.66 17170 2802.17 17176.7 2814.68 17183.3 2827.19 17172.6 2839.7 17174.4 2852.21 17176.2 2864.72 17193.3 2877.23 17187.4 2889.74 17181.6 2902.26 17142.2 2914.77 17139.2 2927.28 17136.2 2939.79 17166.2 2952.3 17169.3 2964.81 17172.4 2977.32 17166 2989.83 17158 3002.34 17150 3014.86 17109.7 3027.37 17121.3 3039.88 17132.9 3052.39 17238.5 3064.9 17227.7 3077.41 17217 3089.92 17079.5 3102.43 17056.7 3114.58 17034.5 3127.82 17077 3139.97 17090.6 3152.48 17104.7 3164.99 17130.6 3177.5 17141.1 3190.01 17151.6 3202.52 17151.8 3215.03 17153.5 3227.54 17155.2 3240.06 17159.3 3252.57 17151.4 3265.08 17143.6 3277.59 17109.2 3290.1 17106.3 3302.61 17103.3 3315.12 17133.3 3327.63 17133.8 3340.14 17134.3 3352.66 17111.5 3365.17 17109.3 3377.68 17107.2 3390.19 17115.9 3402.7 17120.8 3415.21 17125.6 3427.72 17134.8 3440.23 17138.5 3452.74 17142.1 3465.26 17136.9 3477.77 17142.9 3490.28 17149 3502.79 17184.6 3515.3 17174.9 3527.81 17165.2 3540.32 17089.6 3552.83 17084.6 3565.34 17079.5 3577.86 17126.2 3590.37 17144.6 3602.88 17163 3615.39 17199.4 3627.9 17195 3640.41 17190.5 3652.92 17127.8 3665.43 17117.9 3677.94 17108.1 3690.46 17135.6 3702.97 17135.9 3715.48 17136.2 3734.24 17122.2 3740.5 17119.5" stroke="#FFB226" stroke-width="9.16667" stroke-linecap="round" stroke-linejoin="round" stroke-miterlimit="10" fill="none"/></g><g><path d="M2614.5 17024.2C2627.01 17025.9 2639.52 17015.5 2652.03 17029.3 2664.54 17043 2677.06 17103.4 2689.57 17106.8 2702.08 17110.2 2714.59 17050.8 2727.1 17049.9 2739.61 17049.1 2752.12 17106.2 2764.63 17101.7 2777.14 17097.2 2789.66 17028.8 2802.17 17023 2814.68 17017.2 2827.19 17049.1 2839.7 17067 2852.21 17084.9 2864.72 17126.7 2877.23 17130.3 2889.74 17133.9 2902.26 17086.5 2914.77 17088.8 2927.28 17091.1 2939.79 17130.9 2952.3 17144.3 2964.81 17157.7 2977.32 17177.5 2989.83 17169 3002.34 17160.6 3014.86 17097.6 3027.37 17093.5 3039.88 17089.5 3052.39 17144.7 3064.9 17144.5 3077.41 17144.3 3089.92 17103.1 3102.43 17092.3 3114.94 17081.6 3127.46 17078.5 3139.97 17080.1 3152.48 17081.6 3164.99 17090 3177.5 17101.6 3190.01 17113.1 3202.52 17148.4 3215.03 17149.3 3227.54 17150.2 3240.06 17122.8 3252.57 17107 3265.08 17091.3 3277.59 17058.7 3290.1 17054.9 3302.61 17051 3315.12 17078.4 3327.63 17084.1 3340.14 17089.8 3352.66 17082.4 3365.17 17089.2 3377.68 17096 3390.19 17123.5 3402.7 17125 3415.21 17126.5 3427.72 17100.2 3440.23 17098.1 3452.74 17096 3465.26 17108.1 3477.77 17112.2 3490.28 17116.2 3502.79 17130.6 3515.3 17122.4 3527.81 17114.2 3540.32 17063.9 3552.83 17062.9 3565.34 17061.8 3577.86 17101.7 3590.37 17116.1 3602.88 17130.6 3615.39 17154.2 3627.9 17149.6 3640.41 17145 3652.92 17095.7 3665.43 17088.3 3677.94 17080.8 3690.46 17100.4 3702.97 17104.9 3715.48 17109.5 3734.24 17113.8 3740.5 17115.6" stroke="#000000" stroke-width="9.16667" stroke-linecap="round" stroke-linejoin="round" stroke-miterlimit="10" fill="none"/></g><g><text font-family="Inter,Inter_MSFontService,sans-serif" font-weight="400" font-size="32" transform="matrix(1 0 0 1 2542.69 17469)">80</text></g><g><text font-family="Inter,Inter_MSFontService,sans-serif" font-weight="400" font-size="32" transform="matrix(1 0 0 1 2542.46 17305)">90</text></g><g><text font-family="Inter,Inter_MSFontService,sans-serif" font-weight="400" font-size="32" transform="matrix(1 0 0 1 2527.52 17142)">100</text></g><g><text font-family="Inter,Inter_MSFontService,sans-serif" font-weight="400" font-size="32" transform="matrix(1 0 0 1 2532.67 16978)">110</text></g><g><text font-family="Inter,Inter_MSFontService,sans-serif" font-weight="400" font-size="32" transform="matrix(1 0 0 1 2528.16 16814)">120</text></g><g><text font-family="Inter,Inter_MSFontService,sans-serif" font-weight="400" font-size="32" transform="matrix(0.707107 -0.707107 0.707107 0.707107 2590.39 17535)">1/6</text></g><g><text font-family="Inter,Inter_MSFontService,sans-serif" font-weight="400" font-size="32" transform="matrix(0.707107 -0.707107 0.707107 0.707107 2690.45 17547)">1/27</text></g><g><text font-family="Inter,Inter_MSFontService,sans-serif" font-weight="400" font-size="32" transform="matrix(0.707107 -0.707107 0.707107 0.707107 2803.03 17547)">2/17</text></g><g><text font-family="Inter,Inter_MSFontService,sans-serif" font-weight="400" font-size="32" transform="matrix(0.707107 -0.707107 0.707107 0.707107 2924.23 17539)">3/9</text></g><g><text font-family="Inter,Inter_MSFontService,sans-serif" font-weight="400" font-size="32" transform="matrix(0.707107 -0.707107 0.707107 0.707107 3022.35 17553)">3/30</text></g><g><text font-family="Inter,Inter_MSFontService,sans-serif" font-weight="400" font-size="32" transform="matrix(0.707107 -0.707107 0.707107 0.707107 3135.51 17553)">4/20</text></g><g><text font-family="Inter,Inter_MSFontService,sans-serif" font-weight="400" font-size="32" transform="matrix(0.707107 -0.707107 0.707107 0.707107 3255.71 17545)">5/11</text></g><g><text font-family="Inter,Inter_MSFontService,sans-serif" font-weight="400" font-size="32" transform="matrix(0.707107 -0.707107 0.707107 0.707107 3378.47 17535)">6/1</text></g><g><text font-family="Inter,Inter_MSFontService,sans-serif" font-weight="400" font-size="32" transform="matrix(0.707107 -0.707107 0.707107 0.707107 3474.13 17552)">6/22</text></g><g><text font-family="Inter,Inter_MSFontService,sans-serif" font-weight="400" font-size="32" transform="matrix(0.707107 -0.707107 0.707107 0.707107 3590.39 17548)">7/13</text></g><g><text font-family="Inter,Inter_MSFontService,sans-serif" font-weight="400" font-size="32" transform="matrix(0.707107 -0.707107 0.707107 0.707107 3712.47 17538)">8/3</text></g><g><text font-family="Inter,Inter_MSFontService,sans-serif" font-weight="400" font-size="32" transform="matrix(0.707107 -0.707107 0.707107 0.707107 3811.2 17552)">8/24</text></g><g><text font-family="Inter,Inter_MSFontService,sans-serif" font-weight="400" font-size="32" transform="matrix(0.707107 -0.707107 0.707107 0.707107 3926.81 17549)">9/14</text></g><g><text font-family="Inter,Inter_MSFontService,sans-serif" font-weight="400" font-size="32" transform="matrix(0.707107 -0.707107 0.707107 0.707107 4040.14 17549)">10/5</text></g><g><text font-family="Inter,Inter_MSFontService,sans-serif" font-weight="400" font-size="32" transform="matrix(0.707107 -0.707107 0.707107 0.707107 4138.64 17563)">10/26</text></g><g><text font-family="Inter,Inter_MSFontService,sans-serif" font-weight="400" font-size="32" transform="matrix(0.707107 -0.707107 0.707107 0.707107 4258.06 17556)">11/16</text></g><g><text font-family="Inter,Inter_MSFontService,sans-serif" font-weight="400" font-size="32" transform="matrix(0.707107 -0.707107 0.707107 0.707107 4379.18 17547)">12/7</text></g><g><text font-family="Inter Medium,Inter Medium_MSFontService,sans-serif" font-weight="700" font-size="46" transform="matrix(1 0 0 1 2529.01 16646)">U.S. Hotel Occupancy and ADR Recovery Levels</text></g><g><path d="M2521.5 16741.5 2609.5 16741.5" stroke="#FFB226" stroke-width="9.16667" stroke-linecap="round" stroke-linejoin="round" stroke-miterlimit="10" fill="none" fill-rule="evenodd"/></g><g><text font-family="Inter Medium,Inter Medium_MSFontService,sans-serif" font-weight="500" font-size="37" transform="matrix(1 0 0 1 2618.39 16754)">Occ Index</text></g><g><path d="M2846.5 16741.5 2934.5 16741.5" stroke="#000000" stroke-width="9.16667" stroke-linecap="round" stroke-linejoin="round" stroke-miterlimit="10" fill="none" fill-rule="evenodd"/></g><g><text font-family="Inter Medium,Inter Medium_MSFontService,sans-serif" font-weight="500" font-size="37" transform="matrix(1 0 0 1 2943.74 16754)">ADR Index</text></g><rect x="2445.5" y="16556.5" width="2103" height="1056" stroke="#D9D9D9" stroke-width="3.4375" stroke-linejoin="round" stroke-miterlimit="10" fill="none"/><g><text fill="#7F7F7F" font-family="Inter,Inter_MSFontService,sans-serif" font-weight="400" font-size="32" transform="matrix(1 0 0 1 2526.75 16700)">Indexed to 2023, Source: STR, str.com</text></g></g></svg>