<svg width="2106" height="1059" xmlns="http://www.w3.org/2000/svg" xmlns:xlink="http://www.w3.org/1999/xlink" xml:space="preserve" overflow="hidden"><defs><filter id="fx0" x="-10%" y="-10%" width="120%" height="120%" filterUnits="userSpaceOnUse" primitiveUnits="userSpaceOnUse"><feComponentTransfer color-interpolation-filters="sRGB"><feFuncR type="discrete" tableValues="0 0"/><feFuncG type="discrete" tableValues="0 0"/><feFuncB type="discrete" tableValues="0 0"/><feFuncA type="linear" slope="0.501961" intercept="0"/></feComponentTransfer><feGaussianBlur stdDeviation="4.58333 4.58333"/></filter><filter id="fx1" x="-10%" y="-10%" width="120%" height="120%" filterUnits="userSpaceOnUse" primitiveUnits="userSpaceOnUse"><feComponentTransfer color-interpolation-filters="sRGB"><feFuncR type="discrete" tableValues="0 0"/><feFuncG type="discrete" tableValues="0 0"/><feFuncB type="discrete" tableValues="0 0"/><feFuncA type="linear" slope="0.501961" intercept="0"/></feComponentTransfer><feGaussianBlur stdDeviation="4.58333 4.58333"/></filter><clipPath id="clip2"><rect x="2444" y="16555" width="2106" height="1059"/></clipPath><clipPath id="clip3"><rect x="2612" y="16804" width="1885" height="658"/></clipPath><clipPath id="clip4"><rect x="2612" y="16804" width="1885" height="658"/></clipPath></defs><g clip-path="url(#clip2)" transform="translate(-2444 -16555)"><rect x="2445" y="16556" width="2103" height="1056" fill="#FFFFFF"/><g><path d="M2612.5 17131.5 4494.5 17131.5" stroke="#D9D9D9" stroke-width="3.4375" stroke-linejoin="round" stroke-miterlimit="10" fill="none" fill-rule="evenodd"/></g><g clip-path="url(#clip3)"><g filter="url(#fx0)" transform="translate(2601 17037)"><g><path d="M19.9819 114.724C32.491 125.026 45.0004 137.882 57.5098 145.63 70.0188 153.378 82.5283 168.189 95.0377 161.213 107.547 154.236 120.056 113.334 132.566 103.77 145.075 94.2043 157.584 96.7606 170.093 103.822 182.602 110.883 195.111 139.456 207.621 146.136 220.13 152.816 232.639 142.107 245.149 143.902 257.658 145.697 270.167 162.778 282.677 156.907 295.186 151.037 307.695 111.698 320.204 108.677 332.713 105.656 345.223 135.647 357.732 138.78 370.241 141.913 382.75 135.476 395.26 127.477 407.769 119.477 420.278 79.1623 432.788 90.7849 445.297 102.407 457.806 207.982 470.315 197.212 482.824 186.441 495.334 49.0134 507.843 26.1627 519.985 3.98242 533.229 46.4463 545.371 60.1061 557.88 74.1787 570.389 100.123 582.899 110.599 595.408 121.076 607.917 121.243 620.426 122.965 632.935 124.687 645.445 128.802 657.954 120.931 670.463 113.061 682.973 78.6828 695.482 75.7425 707.991 72.8018 720.501 102.773 733.01 103.288 745.519 103.802 758.028 81.0039 770.537 78.8301 783.047 76.6561 795.556 85.3942 808.065 90.2449 820.574 95.0952 833.084 104.239 845.593 107.934 858.102 111.629 870.612 106.339 883.121 112.414 895.63 118.489 908.139 154.108 920.648 144.385 933.158 134.661 945.667 59.1186 958.176 54.0709 970.685 49.0228 983.195 95.6972 995.704 114.096 1008.21 132.495 1020.72 168.914 1033.23 164.465 1045.74 160.016 1058.25 97.2487 1070.76 87.404 1083.27 77.5588 1095.78 105.129 1108.29 105.395 1120.8 105.66 1133.31 91.3476 1145.82 88.9963 1158.32 86.6446 1170.83 88.9015 1183.34 91.2867 1195.85 93.6715 1208.36 106.322 1220.87 103.306 1233.38 100.289 1245.89 78.8114 1258.4 73.188 1270.04 67.9561 1284.29 54.76 1295.93 69.5643 1308.44 85.4777 1320.94 159.023 1333.45 168.669 1345.96 178.314 1364.73 134.309 1370.98 127.437" stroke="#FFB226" stroke-width="9" stroke-linecap="round" stroke-linejoin="round" stroke-miterlimit="10" fill="none"/></g></g></g><g clip-path="url(#clip4)"><g filter="url(#fx1)" transform="translate(2601 17009)"><g><path d="M19.9819 21.6563C32.491 23.3548 45.0004 12.9824 57.5098 26.7521 70.0188 40.5217 82.5283 100.835 95.0377 104.274 107.547 107.713 120.056 48.2321 132.566 47.3831 145.075 46.5337 157.584 103.659 170.093 99.1792 182.602 94.6986 195.111 26.2831 207.621 20.5008 220.13 14.7181 232.639 46.6019 245.149 64.4843 257.658 82.3664 270.167 124.16 282.677 127.794 295.186 131.427 307.695 83.9497 320.204 86.2828 332.713 88.6155 345.223 128.418 357.732 141.791 370.241 155.164 382.75 174.982 395.26 166.521 407.769 158.061 420.278 95.1152 432.788 91.0255 445.297 86.9355 457.806 142.183 470.315 141.982 482.824 141.781 495.334 100.555 507.843 89.8191 520.352 79.0828 532.862 76.0231 545.371 77.5641 557.88 79.1048 570.389 87.5268 582.899 99.0644 595.408 110.602 607.917 145.881 620.426 146.789 632.935 147.696 645.445 120.252 657.954 104.512 670.463 88.7715 682.973 56.1656 695.482 52.3471 707.991 48.5282 720.501 75.8776 733.01 81.5989 745.519 87.3199 758.028 79.8561 770.537 86.6748 783.047 93.4936 795.556 121.026 808.065 122.512 820.574 123.996 833.084 97.7255 845.593 95.5848 858.102 93.4441 870.612 105.619 883.121 109.667 895.63 113.716 908.139 128.093 920.648 119.875 933.158 111.657 945.667 61.4072 958.176 60.3596 970.685 59.3117 983.195 99.1359 995.704 113.589 1008.21 128.042 1020.72 151.716 1033.23 147.077 1045.74 142.439 1058.25 93.2012 1070.76 85.7572 1083.27 78.3128 1095.78 97.858 1108.29 102.413 1120.8 106.968 1133.31 113.935 1145.82 113.086 1158.32 112.236 1170.83 98.6594 1183.34 97.3147 1195.85 95.9696 1208.36 108.054 1220.87 105.017 1233.38 101.98 1245.89 80.8199 1258.4 79.0922 1270.91 77.3641 1283.42 84.5453 1295.93 94.6491 1308.44 104.753 1320.94 135.523 1333.45 139.714 1345.96 143.905 1364.73 123.113 1370.98 119.793" stroke="#000000" stroke-width="9" stroke-linecap="round" stroke-linejoin="round" stroke-miterlimit="10" fill="none"/></g></g></g><g><path d="M2614.5 17145.2C2627.01 17155.5 2639.52 17168.4 2652.03 17176.1 2664.54 17183.9 2677.05 17198.7 2689.56 17191.7 2702.06 17184.8 2714.57 17143.9 2727.08 17134.3 2739.59 17124.7 2752.1 17127.3 2764.61 17134.3 2777.12 17141.4 2789.63 17170 2802.14 17176.7 2814.65 17183.3 2827.16 17172.6 2839.67 17174.4 2852.18 17176.2 2864.69 17193.3 2877.19 17187.4 2889.7 17181.6 2902.21 17142.2 2914.72 17139.2 2927.23 17136.2 2939.74 17166.2 2952.25 17169.3 2964.76 17172.4 2977.27 17166 2989.78 17158 3002.29 17150 3014.8 17109.7 3027.31 17121.3 3039.81 17132.9 3052.32 17238.5 3064.83 17227.7 3077.34 17217 3089.85 17079.5 3102.36 17056.7 3114.5 17034.5 3127.75 17077 3139.89 17090.6 3152.4 17104.7 3164.91 17130.6 3177.42 17141.1 3189.93 17151.6 3202.44 17151.8 3214.94 17153.5 3227.45 17155.2 3239.96 17159.3 3252.47 17151.4 3264.98 17143.6 3277.49 17109.2 3290 17106.3 3302.51 17103.3 3315.02 17133.3 3327.53 17133.8 3340.04 17134.3 3352.55 17111.5 3365.06 17109.3 3377.56 17107.2 3390.07 17115.9 3402.58 17120.8 3415.09 17125.6 3427.6 17134.8 3440.11 17138.5 3452.62 17142.1 3465.13 17136.9 3477.64 17142.9 3490.15 17149 3502.66 17184.6 3515.17 17174.9 3527.68 17165.2 3540.19 17089.6 3552.69 17084.6 3565.2 17079.5 3577.71 17126.2 3590.22 17144.6 3602.73 17163 3615.24 17199.4 3627.75 17195 3640.26 17190.5 3652.77 17127.8 3665.28 17117.9 3677.79 17108.1 3690.3 17135.6 3702.81 17135.9 3715.31 17136.2 3727.82 17121.9 3740.33 17119.5 3752.84 17117.2 3765.35 17119.4 3777.86 17121.8 3790.37 17124.2 3802.88 17136.8 3815.39 17133.8 3827.9 17130.8 3840.41 17109.3 3852.92 17103.7 3864.55 17098.5 3878.81 17085.3 3890.44 17100.1 3902.95 17116 3915.46 17189.5 3927.97 17199.2 3940.48 17208.8 3959.25 17164.8 3965.5 17158" stroke="#FFB226" stroke-width="9.16667" stroke-linecap="round" stroke-linejoin="round" stroke-miterlimit="10" fill="none"/></g><g><path d="M2614.5 17024.2C2627.01 17025.9 2639.52 17015.5 2652.03 17029.3 2664.54 17043 2677.05 17103.4 2689.56 17106.8 2702.06 17110.2 2714.57 17050.8 2727.08 17049.9 2739.59 17049.1 2752.1 17106.2 2764.61 17101.7 2777.12 17097.2 2789.63 17028.8 2802.14 17023 2814.65 17017.2 2827.16 17049.1 2839.67 17067 2852.18 17084.9 2864.69 17126.7 2877.19 17130.3 2889.7 17133.9 2902.21 17086.5 2914.72 17088.8 2927.23 17091.1 2939.74 17130.9 2952.25 17144.3 2964.76 17157.7 2977.27 17177.5 2989.78 17169 3002.29 17160.6 3014.8 17097.6 3027.31 17093.5 3039.81 17089.5 3052.32 17144.7 3064.83 17144.5 3077.34 17144.3 3089.85 17103.1 3102.36 17092.3 3114.87 17081.6 3127.38 17078.5 3139.89 17080.1 3152.4 17081.6 3164.91 17090 3177.42 17101.6 3189.93 17113.1 3202.44 17148.4 3214.94 17149.3 3227.45 17150.2 3239.96 17122.8 3252.47 17107 3264.98 17091.3 3277.49 17058.7 3290 17054.9 3302.51 17051 3315.02 17078.4 3327.53 17084.1 3340.04 17089.8 3352.55 17082.4 3365.06 17089.2 3377.56 17096 3390.07 17123.5 3402.58 17125 3415.09 17126.5 3427.6 17100.2 3440.11 17098.1 3452.62 17096 3465.13 17108.1 3477.64 17112.2 3490.15 17116.2 3502.66 17130.6 3515.17 17122.4 3527.68 17114.2 3540.19 17063.9 3552.69 17062.9 3565.2 17061.8 3577.71 17101.7 3590.22 17116.1 3602.73 17130.6 3615.24 17154.2 3627.75 17149.6 3640.26 17145 3652.77 17095.7 3665.28 17088.3 3677.79 17080.8 3690.3 17100.4 3702.81 17104.9 3715.31 17109.5 3727.82 17116.5 3740.33 17115.6 3752.84 17114.8 3765.35 17101.2 3777.86 17099.8 3790.37 17098.5 3802.88 17110.6 3815.39 17107.5 3827.9 17104.5 3840.41 17083.3 3852.92 17081.6 3865.43 17079.9 3877.94 17087.1 3890.44 17097.2 3902.95 17107.3 3915.46 17138 3927.97 17142.2 3940.48 17146.4 3959.25 17125.6 3965.5 17122.3" stroke="#000000" stroke-width="9.16667" stroke-linecap="round" stroke-linejoin="round" stroke-miterlimit="10" fill="none"/></g><g><text font-family="Inter,Inter_MSFontService,sans-serif" font-weight="400" font-size="32" transform="matrix(1 0 0 1 2542.69 17469)">80</text></g><g><text font-family="Inter,Inter_MSFontService,sans-serif" font-weight="400" font-size="32" transform="matrix(1 0 0 1 2542.46 17305)">90</text></g><g><text font-family="Inter,Inter_MSFontService,sans-serif" font-weight="400" font-size="32" transform="matrix(1 0 0 1 2527.52 17142)">100</text></g><g><text font-family="Inter,Inter_MSFontService,sans-serif" font-weight="400" font-size="32" transform="matrix(1 0 0 1 2532.67 16978)">110</text></g><g><text font-family="Inter,Inter_MSFontService,sans-serif" font-weight="400" font-size="32" transform="matrix(1 0 0 1 2528.16 16814)">120</text></g><g><text font-family="Inter,Inter_MSFontService,sans-serif" font-weight="400" font-size="32" transform="matrix(0.707107 -0.707107 0.707107 0.707107 2590.39 17535)">1/6</text></g><g><text font-family="Inter,Inter_MSFontService,sans-serif" font-weight="400" font-size="32" transform="matrix(0.707107 -0.707107 0.707107 0.707107 2690.45 17547)">1/27</text></g><g><text font-family="Inter,Inter_MSFontService,sans-serif" font-weight="400" font-size="32" transform="matrix(0.707107 -0.707107 0.707107 0.707107 2803.03 17547)">2/17</text></g><g><text font-family="Inter,Inter_MSFontService,sans-serif" font-weight="400" font-size="32" transform="matrix(0.707107 -0.707107 0.707107 0.707107 2924.23 17539)">3/9</text></g><g><text font-family="Inter,Inter_MSFontService,sans-serif" font-weight="400" font-size="32" transform="matrix(0.707107 -0.707107 0.707107 0.707107 3022.35 17553)">3/30</text></g><g><text font-family="Inter,Inter_MSFontService,sans-serif" font-weight="400" font-size="32" transform="matrix(0.707107 -0.707107 0.707107 0.707107 3135.51 17553)">4/20</text></g><g><text font-family="Inter,Inter_MSFontService,sans-serif" font-weight="400" font-size="32" transform="matrix(0.707107 -0.707107 0.707107 0.707107 3255.71 17545)">5/11</text></g><g><text font-family="Inter,Inter_MSFontService,sans-serif" font-weight="400" font-size="32" transform="matrix(0.707107 -0.707107 0.707107 0.707107 3378.47 17535)">6/1</text></g><g><text font-family="Inter,Inter_MSFontService,sans-serif" font-weight="400" font-size="32" transform="matrix(0.707107 -0.707107 0.707107 0.707107 3474.13 17552)">6/22</text></g><g><text font-family="Inter,Inter_MSFontService,sans-serif" font-weight="400" font-size="32" transform="matrix(0.707107 -0.707107 0.707107 0.707107 3590.39 17548)">7/13</text></g><g><text font-family="Inter,Inter_MSFontService,sans-serif" font-weight="400" font-size="32" transform="matrix(0.707107 -0.707107 0.707107 0.707107 3712.47 17538)">8/3</text></g><g><text font-family="Inter,Inter_MSFontService,sans-serif" font-weight="400" font-size="32" transform="matrix(0.707107 -0.707107 0.707107 0.707107 3811.2 17552)">8/24</text></g><g><text font-family="Inter,Inter_MSFontService,sans-serif" font-weight="400" font-size="32" transform="matrix(0.707107 -0.707107 0.707107 0.707107 3926.81 17549)">9/14</text></g><g><text font-family="Inter,Inter_MSFontService,sans-serif" font-weight="400" font-size="32" transform="matrix(0.707107 -0.707107 0.707107 0.707107 4040.14 17549)">10/5</text></g><g><text font-family="Inter,Inter_MSFontService,sans-serif" font-weight="400" font-size="32" transform="matrix(0.707107 -0.707107 0.707107 0.707107 4138.64 17563)">10/26</text></g><g><text font-family="Inter,Inter_MSFontService,sans-serif" font-weight="400" font-size="32" transform="matrix(0.707107 -0.707107 0.707107 0.707107 4258.06 17556)">11/16</text></g><g><text font-family="Inter,Inter_MSFontService,sans-serif" font-weight="400" font-size="32" transform="matrix(0.707107 -0.707107 0.707107 0.707107 4379.18 17547)">12/7</text></g><g><text font-family="Inter Medium,Inter Medium_MSFontService,sans-serif" font-weight="700" font-size="46" transform="matrix(1 0 0 1 2529.01 16646)">U.S. Hotel Occupancy and ADR Recovery Levels</text></g><g><path d="M2521.5 16741.5 2609.5 16741.5" stroke="#FFB226" stroke-width="9.16667" stroke-linecap="round" stroke-linejoin="round" stroke-miterlimit="10" fill="none" fill-rule="evenodd"/></g><g><text font-family="Inter Medium,Inter Medium_MSFontService,sans-serif" font-weight="500" font-size="37" transform="matrix(1 0 0 1 2618.39 16754)">Occ Index</text></g><g><path d="M2846.5 16741.5 2934.5 16741.5" stroke="#000000" stroke-width="9.16667" stroke-linecap="round" stroke-linejoin="round" stroke-miterlimit="10" fill="none" fill-rule="evenodd"/></g><g><text font-family="Inter Medium,Inter Medium_MSFontService,sans-serif" font-weight="500" font-size="37" transform="matrix(1 0 0 1 2943.74 16754)">ADR Index</text></g><rect x="2445.5" y="16556.5" width="2103" height="1056" stroke="#D9D9D9" stroke-width="3.4375" stroke-linejoin="round" stroke-miterlimit="10" fill="none"/><g><text fill="#7F7F7F" font-family="Inter,Inter_MSFontService,sans-serif" font-weight="400" font-size="32" transform="matrix(1 0 0 1 2526.75 16700)">Indexed to 2023, Source: STR, str.com</text></g></g></svg>