<svg width="2106" height="1095" xmlns="http://www.w3.org/2000/svg" xmlns:xlink="http://www.w3.org/1999/xlink" xml:space="preserve" overflow="hidden"><defs><filter id="fx0" x="-10%" y="-10%" width="120%" height="120%" filterUnits="userSpaceOnUse" primitiveUnits="userSpaceOnUse"><feComponentTransfer color-interpolation-filters="sRGB"><feFuncR type="discrete" tableValues="0 0"/><feFuncG type="discrete" tableValues="0 0"/><feFuncB type="discrete" tableValues="0 0"/><feFuncA type="linear" slope="0.501961" intercept="0"/></feComponentTransfer><feGaussianBlur stdDeviation="4.58333 4.58333"/></filter><filter id="fx1" x="-10%" y="-10%" width="120%" height="120%" filterUnits="userSpaceOnUse" primitiveUnits="userSpaceOnUse"><feComponentTransfer color-interpolation-filters="sRGB"><feFuncR type="discrete" tableValues="0 0"/><feFuncG type="discrete" tableValues="0 0"/><feFuncB type="discrete" tableValues="0 0"/><feFuncA type="linear" slope="0.501961" intercept="0"/></feComponentTransfer><feGaussianBlur stdDeviation="4.58333 4.58333"/></filter><clipPath id="clip2"><rect x="2444" y="17126" width="2106" height="1095"/></clipPath><clipPath id="clip3"><rect x="2612" y="17383" width="1885" height="681"/></clipPath><clipPath id="clip4"><rect x="2612" y="17383" width="1885" height="681"/></clipPath></defs><g clip-path="url(#clip2)" transform="translate(-2444 -17126)"><rect x="2445" y="17127" width="2103" height="1092" fill="#FFFFFF"/><g><path d="M2612.5 17722.5 4494.5 17722.5" stroke="#D9D9D9" stroke-width="3.4375" stroke-linejoin="round" stroke-miterlimit="10" fill="none" fill-rule="evenodd"/></g><g clip-path="url(#clip3)"><g filter="url(#fx0)" transform="translate(2601 17626)"><g><path d="M19.9819 117.411C32.4921 128.079 45.0027 141.392 57.5133 149.415 70.0235 157.439 82.5341 172.776 95.0446 165.551 107.555 158.327 120.065 115.972 132.576 106.067 145.086 96.1624 157.596 98.8098 170.107 106.122 182.617 113.434 195.128 143.022 207.638 149.939 220.148 156.857 232.659 145.767 245.17 147.626 257.68 149.485 270.19 167.173 282.701 161.094 295.211 155.014 307.721 114.278 320.232 111.149 332.742 108.021 345.253 139.077 357.763 142.322 370.273 145.567 382.784 138.9 395.295 130.617 407.805 122.334 420.315 80.586 432.826 92.6217 445.336 104.657 457.846 213.982 470.357 202.83 482.867 191.676 495.378 49.3664 507.888 25.7037 519.901 2.98242 533.407 46.86 545.42 60.8531 557.93 75.4254 570.44 102.291 582.951 113.14 595.461 123.988 607.971 124.161 620.482 125.945 632.992 127.728 645.503 131.989 658.013 123.839 670.523 115.689 683.034 80.0899 695.545 77.0449 708.055 73.9996 720.565 105.035 733.076 105.569 745.586 106.101 758.096 82.4932 770.607 80.2424 783.117 77.9913 795.628 87.0394 808.138 92.0626 820.648 97.0854 833.159 106.554 845.67 110.38 858.18 114.206 870.69 108.728 883.201 115.019 895.711 121.31 908.221 158.195 920.732 148.126 933.242 138.056 945.753 59.8306 958.263 54.6034 970.773 49.3758 983.284 97.7087 995.795 116.761 1008.3 135.814 1020.82 173.526 1033.33 168.919 1045.84 164.312 1058.35 99.3156 1070.86 89.121 1083.37 78.9261 1095.88 107.476 1108.39 107.751 1120.9 108.025 1133.41 93.2043 1145.92 90.7697 1158.43 88.3347 1170.94 90.6717 1183.45 93.1412 1195.96 95.6108 1214.73 103.513 1220.98 105.587" stroke="#FFB226" stroke-width="9" stroke-linecap="round" stroke-linejoin="round" stroke-miterlimit="10" fill="none"/></g></g></g><g clip-path="url(#clip4)"><g filter="url(#fx1)" transform="translate(2601 17596)"><g><path d="M19.9819 21.9178C32.4864 23.6679 45.0085 12.9824 57.5133 27.171 70.0235 41.3661 82.5341 103.544 95.0446 107.089 107.555 110.634 120.065 49.315 132.576 48.4399 145.086 47.5645 157.596 106.456 170.107 101.837 182.617 97.2178 195.128 26.6876 207.638 20.7266 220.148 14.7653 232.659 47.6343 245.17 66.0694 257.68 84.5041 270.19 127.59 282.701 131.336 295.211 135.081 307.721 86.1366 320.232 88.5417 332.742 90.9464 345.253 131.979 357.763 145.765 370.273 159.552 382.784 179.982 395.295 171.26 407.805 162.538 420.315 97.6472 432.826 93.4309 445.336 89.2143 457.846 146.169 470.357 145.962 482.867 145.754 495.378 103.255 507.888 92.1872 520.399 81.119 532.909 77.9648 545.42 79.5534 557.93 81.1417 570.44 89.8239 582.951 101.718 595.461 113.612 607.971 149.981 620.482 150.918 632.992 151.853 645.503 123.56 658.013 107.334 670.523 91.1071 683.034 57.4936 695.545 53.5572 708.055 49.6203 720.565 77.8152 733.076 83.7132 745.586 89.6113 758.096 81.916 770.607 88.9456 783.117 95.9748 795.628 124.359 808.138 125.89 820.648 127.421 833.159 100.338 845.67 98.1313 858.18 95.9244 870.69 108.476 883.201 112.649 895.711 116.823 908.221 131.644 920.732 123.172 933.242 114.7 945.753 62.8972 958.263 61.8171 970.773 60.7371 983.284 101.792 995.795 116.692 1008.3 131.592 1020.82 155.997 1033.33 151.215 1045.84 146.433 1058.35 95.6738 1070.86 87.9997 1083.37 80.3256 1095.88 100.475 1108.39 105.171 1120.9 109.866 1133.41 117.049 1145.92 116.173 1158.43 115.297 1170.94 101.301 1183.45 99.9145 1195.96 98.528 1214.73 106.532 1220.98 107.855" stroke="#000000" stroke-width="9" stroke-linecap="round" stroke-linejoin="round" stroke-miterlimit="10" fill="none"/></g></g></g><g><path d="M2614.5 17736.9C2627.01 17747.6 2639.52 17760.9 2652.03 17768.9 2664.54 17777 2677.05 17792.3 2689.56 17785.1 2702.07 17777.8 2714.58 17735.5 2727.09 17725.6 2739.6 17715.7 2752.11 17718.3 2764.62 17725.6 2777.14 17733 2789.65 17762.5 2802.16 17769.5 2814.67 17776.4 2827.18 17765.3 2839.69 17767.1 2852.2 17769 2864.71 17786.7 2877.22 17780.6 2889.73 17774.5 2902.24 17733.8 2914.75 17730.7 2927.26 17727.5 2939.77 17758.6 2952.28 17761.8 2964.79 17765.1 2977.3 17758.4 2989.81 17750.1 3002.32 17741.9 3014.83 17700.1 3027.34 17712.1 3039.85 17724.2 3052.36 17833.5 3064.88 17822.3 3077.39 17811.2 3089.9 17668.9 3102.41 17645.2 3114.42 17622.5 3127.92 17666.4 3139.94 17680.4 3152.45 17694.9 3164.96 17721.8 3177.47 17732.7 3189.98 17743.5 3202.49 17743.7 3215 17745.5 3227.51 17747.2 3240.02 17751.5 3252.53 17743.4 3265.04 17735.2 3277.55 17699.6 3290.06 17696.6 3302.57 17693.5 3315.08 17724.6 3327.59 17725.1 3340.1 17725.6 3352.61 17702 3365.12 17699.8 3377.64 17697.5 3390.15 17706.6 3402.66 17711.6 3415.17 17716.6 3427.68 17726.1 3440.19 17729.9 3452.7 17733.7 3465.21 17728.2 3477.72 17734.5 3490.23 17740.8 3502.74 17777.7 3515.25 17767.6 3527.76 17757.6 3540.27 17679.3 3552.78 17674.1 3565.29 17668.9 3577.8 17717.2 3590.31 17736.3 3602.82 17755.3 3615.33 17793 3627.84 17788.4 3640.35 17783.8 3652.86 17718.8 3665.38 17708.6 3677.89 17698.4 3690.4 17727 3702.91 17727.3 3715.42 17727.5 3727.93 17712.7 3740.44 17710.3 3752.95 17707.9 3765.46 17710.2 3777.97 17712.7 3790.48 17715.1 3809.24 17723 3815.5 17725.1" stroke="#FFB226" stroke-width="9.16667" stroke-linecap="round" stroke-linejoin="round" stroke-miterlimit="10" fill="none"/></g><g><path d="M2614.5 17611.4C2627 17613.2 2639.53 17602.5 2652.03 17616.7 2664.54 17630.9 2677.05 17693.1 2689.56 17696.6 2702.07 17700.2 2714.58 17638.8 2727.09 17638 2739.6 17637.1 2752.11 17696 2764.62 17691.4 2777.14 17686.7 2789.65 17616.2 2802.16 17610.2 2814.67 17604.3 2827.18 17637.2 2839.69 17655.6 2852.2 17674 2864.71 17717.1 2877.22 17720.9 2889.73 17724.6 2902.24 17675.7 2914.75 17678.1 2927.26 17680.5 2939.77 17721.5 2952.28 17735.3 2964.79 17749.1 2977.3 17769.5 2989.81 17760.8 3002.32 17752.1 3014.83 17687.2 3027.34 17682.9 3039.85 17678.7 3052.36 17735.7 3064.88 17735.5 3077.39 17735.3 3089.9 17692.8 3102.41 17681.7 3114.92 17670.6 3127.43 17667.5 3139.94 17669.1 3152.45 17670.7 3164.96 17679.3 3177.47 17691.2 3189.98 17703.1 3202.49 17739.5 3215 17740.4 3227.51 17741.4 3240.02 17713.1 3252.53 17696.9 3265.04 17680.6 3277.55 17647 3290.06 17643.1 3302.57 17639.1 3315.08 17667.3 3327.59 17673.2 3340.1 17679.1 3352.61 17671.4 3365.12 17678.5 3377.64 17685.5 3390.15 17713.9 3402.66 17715.4 3415.17 17716.9 3427.68 17689.9 3440.19 17687.6 3452.7 17685.4 3465.21 17698 3477.72 17702.2 3490.23 17706.3 3502.74 17721.2 3515.25 17712.7 3527.76 17704.2 3540.27 17652.4 3552.78 17651.3 3565.29 17650.3 3577.8 17691.3 3590.31 17706.2 3602.82 17721.1 3615.33 17745.5 3627.84 17740.7 3640.35 17736 3652.86 17685.2 3665.38 17677.5 3677.89 17669.8 3690.4 17690 3702.91 17694.7 3715.42 17699.4 3727.93 17706.6 3740.44 17705.7 3752.95 17704.8 3765.46 17690.8 3777.97 17689.4 3790.48 17688 3809.24 17696 3815.5 17697.4" stroke="#000000" stroke-width="9.16667" stroke-linecap="round" stroke-linejoin="round" stroke-miterlimit="10" fill="none"/></g><g><text font-family="Inter,Inter_MSFontService,sans-serif" font-weight="400" font-size="32" transform="matrix(1 0 0 1 2542.69 18071)">80</text></g><g><text font-family="Inter,Inter_MSFontService,sans-serif" font-weight="400" font-size="32" transform="matrix(1 0 0 1 2542.46 17902)">90</text></g><g><text font-family="Inter,Inter_MSFontService,sans-serif" font-weight="400" font-size="32" transform="matrix(1 0 0 1 2527.52 17732)">100</text></g><g><text font-family="Inter,Inter_MSFontService,sans-serif" font-weight="400" font-size="32" transform="matrix(1 0 0 1 2532.67 17563)">110</text></g><g><text font-family="Inter,Inter_MSFontService,sans-serif" font-weight="400" font-size="32" transform="matrix(1 0 0 1 2528.16 17393)">120</text></g><g><text font-family="Inter,Inter_MSFontService,sans-serif" font-weight="400" font-size="32" transform="matrix(0.707107 -0.707107 0.707107 0.707107 2590.39 18137)">1/6</text></g><g><text font-family="Inter,Inter_MSFontService,sans-serif" font-weight="400" font-size="32" transform="matrix(0.707107 -0.707107 0.707107 0.707107 2690.45 18149)">1/27</text></g><g><text font-family="Inter,Inter_MSFontService,sans-serif" font-weight="400" font-size="32" transform="matrix(0.707107 -0.707107 0.707107 0.707107 2803.03 18149)">2/17</text></g><g><text font-family="Inter,Inter_MSFontService,sans-serif" font-weight="400" font-size="32" transform="matrix(0.707107 -0.707107 0.707107 0.707107 2924.23 18141)">3/9</text></g><g><text font-family="Inter,Inter_MSFontService,sans-serif" font-weight="400" font-size="32" transform="matrix(0.707107 -0.707107 0.707107 0.707107 3022.35 18155)">3/30</text></g><g><text font-family="Inter,Inter_MSFontService,sans-serif" font-weight="400" font-size="32" transform="matrix(0.707107 -0.707107 0.707107 0.707107 3135.51 18155)">4/20</text></g><g><text font-family="Inter,Inter_MSFontService,sans-serif" font-weight="400" font-size="32" transform="matrix(0.707107 -0.707107 0.707107 0.707107 3255.71 18147)">5/11</text></g><g><text font-family="Inter,Inter_MSFontService,sans-serif" font-weight="400" font-size="32" transform="matrix(0.707107 -0.707107 0.707107 0.707107 3378.47 18137)">6/1</text></g><g><text font-family="Inter,Inter_MSFontService,sans-serif" font-weight="400" font-size="32" transform="matrix(0.707107 -0.707107 0.707107 0.707107 3474.13 18154)">6/22</text></g><g><text font-family="Inter,Inter_MSFontService,sans-serif" font-weight="400" font-size="32" transform="matrix(0.707107 -0.707107 0.707107 0.707107 3590.39 18150)">7/13</text></g><g><text font-family="Inter,Inter_MSFontService,sans-serif" font-weight="400" font-size="32" transform="matrix(0.707107 -0.707107 0.707107 0.707107 3712.47 18140)">8/3</text></g><g><text font-family="Inter,Inter_MSFontService,sans-serif" font-weight="400" font-size="32" transform="matrix(0.707107 -0.707107 0.707107 0.707107 3811.2 18154)">8/24</text></g><g><text font-family="Inter,Inter_MSFontService,sans-serif" font-weight="400" font-size="32" transform="matrix(0.707107 -0.707107 0.707107 0.707107 3926.81 18151)">9/14</text></g><g><text font-family="Inter,Inter_MSFontService,sans-serif" font-weight="400" font-size="32" transform="matrix(0.707107 -0.707107 0.707107 0.707107 4040.14 18151)">10/5</text></g><g><text font-family="Inter,Inter_MSFontService,sans-serif" font-weight="400" font-size="32" transform="matrix(0.707107 -0.707107 0.707107 0.707107 4138.64 18165)">10/26</text></g><g><text font-family="Inter,Inter_MSFontService,sans-serif" font-weight="400" font-size="32" transform="matrix(0.707107 -0.707107 0.707107 0.707107 4258.06 18158)">11/16</text></g><g><text font-family="Inter,Inter_MSFontService,sans-serif" font-weight="400" font-size="32" transform="matrix(0.707107 -0.707107 0.707107 0.707107 4379.18 18149)">12/7</text></g><g><text font-family="Inter Medium,Inter Medium_MSFontService,sans-serif" font-weight="700" font-size="46" transform="matrix(1 0 0 1 2529.01 17217)">U.S. Hotel Occupancy and ADR Recovery Levels</text></g><g><path d="M2521.5 17318.5 2609.5 17318.5" stroke="#FFB226" stroke-width="9.16667" stroke-linecap="round" stroke-linejoin="round" stroke-miterlimit="10" fill="none" fill-rule="evenodd"/></g><g><text font-family="Inter Medium,Inter Medium_MSFontService,sans-serif" font-weight="500" font-size="37" transform="matrix(1 0 0 1 2618.39 17331)">Occ Index</text></g><g><path d="M2846.5 17318.5 2934.5 17318.5" stroke="#000000" stroke-width="9.16667" stroke-linecap="round" stroke-linejoin="round" stroke-miterlimit="10" fill="none" fill-rule="evenodd"/></g><g><text font-family="Inter Medium,Inter Medium_MSFontService,sans-serif" font-weight="500" font-size="37" transform="matrix(1 0 0 1 2943.74 17331)">ADR Index</text></g><rect x="2445.5" y="17127.5" width="2103" height="1092" stroke="#D9D9D9" stroke-width="3.4375" stroke-linejoin="round" stroke-miterlimit="10" fill="none"/><g><text fill="#7F7F7F" font-family="Inter,Inter_MSFontService,sans-serif" font-weight="400" font-size="32" transform="matrix(1 0 0 1 2526.75 17274)">Indexed to 2023, Source: STR, str.com</text></g></g></svg>