<svg width="2106" height="1059" xmlns="http://www.w3.org/2000/svg" xmlns:xlink="http://www.w3.org/1999/xlink" xml:space="preserve" overflow="hidden"><defs><filter id="fx0" x="-10%" y="-10%" width="120%" height="120%" filterUnits="userSpaceOnUse" primitiveUnits="userSpaceOnUse"><feComponentTransfer color-interpolation-filters="sRGB"><feFuncR type="discrete" tableValues="0 0"/><feFuncG type="discrete" tableValues="0 0"/><feFuncB type="discrete" tableValues="0 0"/><feFuncA type="linear" slope="0.501961" intercept="0"/></feComponentTransfer><feGaussianBlur stdDeviation="4.58333 4.58333"/></filter><filter id="fx1" x="-10%" y="-10%" width="120%" height="120%" filterUnits="userSpaceOnUse" primitiveUnits="userSpaceOnUse"><feComponentTransfer color-interpolation-filters="sRGB"><feFuncR type="discrete" tableValues="0 0"/><feFuncG type="discrete" tableValues="0 0"/><feFuncB type="discrete" tableValues="0 0"/><feFuncA type="linear" slope="0.501961" intercept="0"/></feComponentTransfer><feGaussianBlur stdDeviation="4.58333 4.58333"/></filter><clipPath id="clip2"><rect x="2444" y="16555" width="2106" height="1059"/></clipPath><clipPath id="clip3"><rect x="2612" y="16804" width="1885" height="658"/></clipPath><clipPath id="clip4"><rect x="2612" y="16804" width="1885" height="658"/></clipPath></defs><g clip-path="url(#clip2)" transform="translate(-2444 -16555)"><rect x="2445" y="16556" width="2103" height="1056" fill="#FFFFFF"/><g><path d="M2612.5 17131.5 4494.5 17131.5" stroke="#D9D9D9" stroke-width="3.4375" stroke-linejoin="round" stroke-miterlimit="10" fill="none" fill-rule="evenodd"/></g><g clip-path="url(#clip3)"><g filter="url(#fx0)" transform="translate(2601 17037)"><g><path d="M19.9819 114.724C32.496 125.026 45.0104 137.882 57.5249 145.63 70.039 153.378 82.5534 168.189 95.0678 161.213 107.582 154.236 120.096 113.334 132.611 103.77 145.125 94.2043 157.639 96.7606 170.153 103.822 182.667 110.883 195.182 139.456 207.696 146.136 220.21 152.816 232.725 142.107 245.239 143.902 257.753 145.697 270.268 162.778 282.782 156.907 295.296 151.037 307.81 111.698 320.325 108.677 332.839 105.656 345.353 135.647 357.868 138.78 370.382 141.913 382.896 135.476 395.411 127.477 407.925 119.477 420.439 79.1623 432.954 90.7849 445.468 102.407 457.982 207.982 470.496 197.212 483.01 186.441 495.525 49.0134 508.039 26.1627 520.186 3.98242 533.435 46.4463 545.582 60.1061 558.096 74.1787 570.611 100.123 583.125 110.599 595.639 121.076 608.153 121.243 620.668 122.965 633.182 124.687 645.696 128.802 658.211 120.931 670.725 113.061 683.239 78.6828 695.753 75.7425 708.268 72.8018 720.782 102.773 733.296 103.288 745.81 103.802 758.325 81.0039 770.839 78.8301 783.353 76.6561 795.868 85.3942 808.382 90.2449 820.896 95.0952 833.41 104.239 845.925 107.934 858.439 111.629 870.953 106.339 883.468 112.414 895.982 118.489 908.496 154.108 921.01 144.385 933.525 134.661 946.039 59.1186 958.553 54.0709 971.067 49.0228 983.582 95.6972 996.096 114.096 1008.61 132.495 1021.12 168.914 1033.64 164.465 1046.15 160.016 1058.67 97.2487 1071.18 87.404 1083.7 77.5588 1096.21 105.129 1108.72 105.395 1121.24 105.66 1133.75 91.3476 1146.27 88.9963 1158.78 86.6446 1171.3 88.9015 1183.81 91.2867 1196.32 93.6715 1208.84 106.322 1221.35 103.306 1233.87 100.289 1246.38 78.8114 1258.9 73.188 1270.54 67.9561 1284.8 54.76 1296.44 69.5643 1308.95 85.4777 1327.72 152.151 1333.98 168.669" stroke="#FFB226" stroke-width="9" stroke-linecap="round" stroke-linejoin="round" stroke-miterlimit="10" fill="none"/></g></g></g><g clip-path="url(#clip4)"><g filter="url(#fx1)" transform="translate(2601 17009)"><g><path d="M19.9819 21.6563C32.496 23.3548 45.0104 12.9824 57.5249 26.7521 70.039 40.5217 82.5534 100.835 95.0678 104.274 107.582 107.713 120.096 48.2321 132.611 47.3831 145.125 46.5337 157.639 103.659 170.153 99.1792 182.667 94.6986 195.182 26.2831 207.696 20.5008 220.21 14.7181 232.725 46.6019 245.239 64.4843 257.753 82.3664 270.268 124.16 282.782 127.794 295.296 131.427 307.81 83.9497 320.325 86.2828 332.839 88.6155 345.353 128.418 357.868 141.791 370.382 155.164 382.896 174.982 395.411 166.521 407.925 158.061 420.439 95.1152 432.954 91.0255 445.468 86.9355 457.982 142.183 470.496 141.982 483.01 141.781 495.525 100.555 508.039 89.8191 520.553 79.0828 533.068 76.0231 545.582 77.5641 558.096 79.1048 570.611 87.5268 583.125 99.0644 595.639 110.602 608.153 145.881 620.668 146.789 633.182 147.696 645.696 120.252 658.211 104.512 670.725 88.7715 683.239 56.1656 695.753 52.3471 708.268 48.5282 720.782 75.8776 733.296 81.5989 745.81 87.3199 758.325 79.8561 770.839 86.6748 783.353 93.4936 795.868 121.026 808.382 122.512 820.896 123.996 833.41 97.7255 845.925 95.5848 858.439 93.4441 870.953 105.619 883.468 109.667 895.982 113.716 908.496 128.093 921.01 119.875 933.525 111.657 946.039 61.4072 958.553 60.3596 971.067 59.3117 983.582 99.1359 996.096 113.589 1008.61 128.042 1021.12 151.716 1033.64 147.077 1046.15 142.439 1058.67 93.2012 1071.18 85.7572 1083.7 78.3128 1096.21 97.858 1108.72 102.413 1121.24 106.968 1133.75 113.935 1146.27 113.086 1158.78 112.236 1171.3 98.6594 1183.81 97.3147 1196.32 95.9696 1208.84 108.054 1221.35 105.017 1233.87 101.98 1246.38 80.8199 1258.9 79.0922 1271.41 77.3641 1283.92 84.5453 1296.44 94.6491 1308.95 104.753 1327.72 132.203 1333.98 139.714" stroke="#000000" stroke-width="9" stroke-linecap="round" stroke-linejoin="round" stroke-miterlimit="10" fill="none"/></g></g></g><g><path d="M2614.5 17145.2C2627.01 17155.5 2639.53 17168.4 2652.04 17176.1 2664.56 17183.9 2677.07 17198.7 2689.59 17191.7 2702.1 17184.8 2714.61 17143.9 2727.13 17134.3 2739.64 17124.7 2752.16 17127.3 2764.67 17134.3 2777.19 17141.4 2789.7 17170 2802.21 17176.7 2814.73 17183.3 2827.24 17172.6 2839.76 17174.4 2852.27 17176.2 2864.79 17193.3 2877.3 17187.4 2889.81 17181.6 2902.33 17142.2 2914.84 17139.2 2927.36 17136.2 2939.87 17166.2 2952.39 17169.3 2964.9 17172.4 2977.41 17166 2989.93 17158 3002.44 17150 3014.96 17109.7 3027.47 17121.3 3039.99 17132.9 3052.5 17238.5 3065.01 17227.7 3077.53 17217 3090.04 17079.5 3102.56 17056.7 3114.7 17034.5 3127.95 17077 3140.1 17090.6 3152.61 17104.7 3165.13 17130.6 3177.64 17141.1 3190.16 17151.6 3202.67 17151.8 3215.19 17153.5 3227.7 17155.2 3240.21 17159.3 3252.73 17151.4 3265.24 17143.6 3277.76 17109.2 3290.27 17106.3 3302.79 17103.3 3315.3 17133.3 3327.81 17133.8 3340.33 17134.3 3352.84 17111.5 3365.36 17109.3 3377.87 17107.2 3390.39 17115.9 3402.9 17120.8 3415.41 17125.6 3427.93 17134.8 3440.44 17138.5 3452.96 17142.1 3465.47 17136.9 3477.99 17142.9 3490.5 17149 3503.01 17184.6 3515.53 17174.9 3528.04 17165.2 3540.56 17089.6 3553.07 17084.6 3565.59 17079.5 3578.1 17126.2 3590.61 17144.6 3603.13 17163 3615.64 17199.4 3628.16 17195 3640.67 17190.5 3653.19 17127.8 3665.7 17117.9 3678.21 17108.1 3690.73 17135.6 3703.24 17135.9 3715.76 17136.2 3728.27 17121.9 3740.79 17119.5 3753.3 17117.2 3765.81 17119.4 3778.33 17121.8 3790.84 17124.2 3803.36 17136.8 3815.87 17133.8 3828.39 17130.8 3840.9 17109.3 3853.41 17103.7 3865.06 17098.5 3879.31 17085.3 3890.96 17100.1 3903.47 17116 3922.24 17182.7 3928.5 17199.2" stroke="#FFB226" stroke-width="9.16667" stroke-linecap="round" stroke-linejoin="round" stroke-miterlimit="10" fill="none"/></g><g><path d="M2614.5 17024.2C2627.01 17025.9 2639.53 17015.5 2652.04 17029.3 2664.56 17043 2677.07 17103.4 2689.59 17106.8 2702.1 17110.2 2714.61 17050.8 2727.13 17049.9 2739.64 17049.1 2752.16 17106.2 2764.67 17101.7 2777.19 17097.2 2789.7 17028.8 2802.21 17023 2814.73 17017.2 2827.24 17049.1 2839.76 17067 2852.27 17084.9 2864.79 17126.7 2877.3 17130.3 2889.81 17133.9 2902.33 17086.5 2914.84 17088.8 2927.36 17091.1 2939.87 17130.9 2952.39 17144.3 2964.9 17157.7 2977.41 17177.5 2989.93 17169 3002.44 17160.6 3014.96 17097.6 3027.47 17093.5 3039.99 17089.5 3052.5 17144.7 3065.01 17144.5 3077.53 17144.3 3090.04 17103.1 3102.56 17092.3 3115.07 17081.6 3127.59 17078.5 3140.1 17080.1 3152.61 17081.6 3165.13 17090 3177.64 17101.6 3190.16 17113.1 3202.67 17148.4 3215.19 17149.3 3227.7 17150.2 3240.21 17122.8 3252.73 17107 3265.24 17091.3 3277.76 17058.7 3290.27 17054.9 3302.79 17051 3315.3 17078.4 3327.81 17084.1 3340.33 17089.8 3352.84 17082.4 3365.36 17089.2 3377.87 17096 3390.39 17123.5 3402.9 17125 3415.41 17126.5 3427.93 17100.2 3440.44 17098.1 3452.96 17096 3465.47 17108.1 3477.99 17112.2 3490.5 17116.2 3503.01 17130.6 3515.53 17122.4 3528.04 17114.2 3540.56 17063.9 3553.07 17062.9 3565.59 17061.8 3578.1 17101.7 3590.61 17116.1 3603.13 17130.6 3615.64 17154.2 3628.16 17149.6 3640.67 17145 3653.19 17095.7 3665.7 17088.3 3678.21 17080.8 3690.73 17100.4 3703.24 17104.9 3715.76 17109.5 3728.27 17116.5 3740.79 17115.6 3753.3 17114.8 3765.81 17101.2 3778.33 17099.8 3790.84 17098.5 3803.36 17110.6 3815.87 17107.5 3828.39 17104.5 3840.9 17083.3 3853.41 17081.6 3865.93 17079.9 3878.44 17087.1 3890.96 17097.2 3903.47 17107.3 3922.24 17134.7 3928.5 17142.2" stroke="#000000" stroke-width="9.16667" stroke-linecap="round" stroke-linejoin="round" stroke-miterlimit="10" fill="none"/></g><g><text font-family="Inter,Inter_MSFontService,sans-serif" font-weight="400" font-size="32" transform="matrix(1 0 0 1 2542.69 17469)">80</text></g><g><text font-family="Inter,Inter_MSFontService,sans-serif" font-weight="400" font-size="32" transform="matrix(1 0 0 1 2542.46 17305)">90</text></g><g><text font-family="Inter,Inter_MSFontService,sans-serif" font-weight="400" font-size="32" transform="matrix(1 0 0 1 2527.52 17142)">100</text></g><g><text font-family="Inter,Inter_MSFontService,sans-serif" font-weight="400" font-size="32" transform="matrix(1 0 0 1 2532.67 16978)">110</text></g><g><text font-family="Inter,Inter_MSFontService,sans-serif" font-weight="400" font-size="32" transform="matrix(1 0 0 1 2528.16 16814)">120</text></g><g><text font-family="Inter,Inter_MSFontService,sans-serif" font-weight="400" font-size="32" transform="matrix(0.707107 -0.707107 0.707107 0.707107 2590.39 17535)">1/6</text></g><g><text font-family="Inter,Inter_MSFontService,sans-serif" font-weight="400" font-size="32" transform="matrix(0.707107 -0.707107 0.707107 0.707107 2690.45 17547)">1/27</text></g><g><text font-family="Inter,Inter_MSFontService,sans-serif" font-weight="400" font-size="32" transform="matrix(0.707107 -0.707107 0.707107 0.707107 2803.03 17547)">2/17</text></g><g><text font-family="Inter,Inter_MSFontService,sans-serif" font-weight="400" font-size="32" transform="matrix(0.707107 -0.707107 0.707107 0.707107 2924.23 17539)">3/9</text></g><g><text font-family="Inter,Inter_MSFontService,sans-serif" font-weight="400" font-size="32" transform="matrix(0.707107 -0.707107 0.707107 0.707107 3022.35 17553)">3/30</text></g><g><text font-family="Inter,Inter_MSFontService,sans-serif" font-weight="400" font-size="32" transform="matrix(0.707107 -0.707107 0.707107 0.707107 3135.51 17553)">4/20</text></g><g><text font-family="Inter,Inter_MSFontService,sans-serif" font-weight="400" font-size="32" transform="matrix(0.707107 -0.707107 0.707107 0.707107 3255.71 17545)">5/11</text></g><g><text font-family="Inter,Inter_MSFontService,sans-serif" font-weight="400" font-size="32" transform="matrix(0.707107 -0.707107 0.707107 0.707107 3378.47 17535)">6/1</text></g><g><text font-family="Inter,Inter_MSFontService,sans-serif" font-weight="400" font-size="32" transform="matrix(0.707107 -0.707107 0.707107 0.707107 3474.13 17552)">6/22</text></g><g><text font-family="Inter,Inter_MSFontService,sans-serif" font-weight="400" font-size="32" transform="matrix(0.707107 -0.707107 0.707107 0.707107 3590.39 17548)">7/13</text></g><g><text font-family="Inter,Inter_MSFontService,sans-serif" font-weight="400" font-size="32" transform="matrix(0.707107 -0.707107 0.707107 0.707107 3712.47 17538)">8/3</text></g><g><text font-family="Inter,Inter_MSFontService,sans-serif" font-weight="400" font-size="32" transform="matrix(0.707107 -0.707107 0.707107 0.707107 3811.2 17552)">8/24</text></g><g><text font-family="Inter,Inter_MSFontService,sans-serif" font-weight="400" font-size="32" transform="matrix(0.707107 -0.707107 0.707107 0.707107 3926.81 17549)">9/14</text></g><g><text font-family="Inter,Inter_MSFontService,sans-serif" font-weight="400" font-size="32" transform="matrix(0.707107 -0.707107 0.707107 0.707107 4040.14 17549)">10/5</text></g><g><text font-family="Inter,Inter_MSFontService,sans-serif" font-weight="400" font-size="32" transform="matrix(0.707107 -0.707107 0.707107 0.707107 4138.64 17563)">10/26</text></g><g><text font-family="Inter,Inter_MSFontService,sans-serif" font-weight="400" font-size="32" transform="matrix(0.707107 -0.707107 0.707107 0.707107 4258.06 17556)">11/16</text></g><g><text font-family="Inter,Inter_MSFontService,sans-serif" font-weight="400" font-size="32" transform="matrix(0.707107 -0.707107 0.707107 0.707107 4379.18 17547)">12/7</text></g><g><text font-family="Inter Medium,Inter Medium_MSFontService,sans-serif" font-weight="700" font-size="46" transform="matrix(1 0 0 1 2529.01 16646)">U.S. Hotel Occupancy and ADR Recovery Levels</text></g><g><path d="M2521.5 16741.5 2609.5 16741.5" stroke="#FFB226" stroke-width="9.16667" stroke-linecap="round" stroke-linejoin="round" stroke-miterlimit="10" fill="none" fill-rule="evenodd"/></g><g><text font-family="Inter Medium,Inter Medium_MSFontService,sans-serif" font-weight="500" font-size="37" transform="matrix(1 0 0 1 2618.39 16754)">Occ Index</text></g><g><path d="M2846.5 16741.5 2934.5 16741.5" stroke="#000000" stroke-width="9.16667" stroke-linecap="round" stroke-linejoin="round" stroke-miterlimit="10" fill="none" fill-rule="evenodd"/></g><g><text font-family="Inter Medium,Inter Medium_MSFontService,sans-serif" font-weight="500" font-size="37" transform="matrix(1 0 0 1 2943.74 16754)">ADR Index</text></g><rect x="2445.5" y="16556.5" width="2103" height="1056" stroke="#D9D9D9" stroke-width="3.4375" stroke-linejoin="round" stroke-miterlimit="10" fill="none"/><g><text fill="#7F7F7F" font-family="Inter,Inter_MSFontService,sans-serif" font-weight="400" font-size="32" transform="matrix(1 0 0 1 2526.75 16700)">Indexed to 2023, Source: STR, str.com</text></g></g></svg>