<svg width="2106" height="1095" xmlns="http://www.w3.org/2000/svg" xmlns:xlink="http://www.w3.org/1999/xlink" xml:space="preserve" overflow="hidden"><defs><filter id="fx0" x="-10%" y="-10%" width="120%" height="120%" filterUnits="userSpaceOnUse" primitiveUnits="userSpaceOnUse"><feComponentTransfer color-interpolation-filters="sRGB"><feFuncR type="discrete" tableValues="0 0"/><feFuncG type="discrete" tableValues="0 0"/><feFuncB type="discrete" tableValues="0 0"/><feFuncA type="linear" slope="0.501961" intercept="0"/></feComponentTransfer><feGaussianBlur stdDeviation="4.58333 4.58333"/></filter><filter id="fx1" x="-10%" y="-10%" width="120%" height="120%" filterUnits="userSpaceOnUse" primitiveUnits="userSpaceOnUse"><feComponentTransfer color-interpolation-filters="sRGB"><feFuncR type="discrete" tableValues="0 0"/><feFuncG type="discrete" tableValues="0 0"/><feFuncB type="discrete" tableValues="0 0"/><feFuncA type="linear" slope="0.501961" intercept="0"/></feComponentTransfer><feGaussianBlur stdDeviation="4.58333 4.58333"/></filter><clipPath id="clip2"><rect x="2444" y="17126" width="2106" height="1095"/></clipPath><clipPath id="clip3"><rect x="2612" y="17383" width="1885" height="681"/></clipPath><clipPath id="clip4"><rect x="2612" y="17383" width="1885" height="681"/></clipPath></defs><g clip-path="url(#clip2)" transform="translate(-2444 -17126)"><rect x="2445" y="17127" width="2103" height="1092" fill="#FFFFFF"/><g><path d="M2612.5 17722.5 4494.5 17722.5" stroke="#D9D9D9" stroke-width="3.4375" stroke-linejoin="round" stroke-miterlimit="10" fill="none" fill-rule="evenodd"/></g><g clip-path="url(#clip3)"><g filter="url(#fx0)" transform="translate(2601 17626)"><g><path d="M19.9819 117.411C32.4928 128.079 45.0041 141.392 57.5154 149.415 70.0262 157.439 82.5375 172.776 95.0488 165.551 107.56 158.327 120.071 115.972 132.582 106.067 145.093 96.1624 157.604 98.8098 170.115 106.122 182.626 113.434 195.137 143.022 207.649 149.939 220.16 156.857 232.671 145.767 245.182 147.626 257.693 149.485 270.204 167.173 282.715 161.094 295.226 155.014 307.737 114.278 320.249 111.149 332.759 108.021 345.271 139.077 357.782 142.322 370.293 145.567 382.804 138.9 395.315 130.617 407.826 122.334 420.338 80.586 432.849 92.6217 445.36 104.657 457.871 213.982 470.382 202.83 482.893 191.676 495.404 49.3664 507.915 25.7037 519.928 2.98242 533.435 46.86 545.449 60.8531 557.96 75.4254 570.471 102.291 582.982 113.14 595.493 123.988 608.004 124.161 620.515 125.945 633.026 127.728 645.537 131.989 658.049 123.839 670.56 115.689 683.071 80.0899 695.582 77.0449 708.093 73.9996 720.604 105.035 733.115 105.569 745.626 106.101 758.137 82.4932 770.648 80.2424 783.159 77.9913 795.671 87.0394 808.182 92.0626 820.693 97.0854 833.204 106.554 845.715 110.38 858.226 114.206 870.737 108.728 883.249 115.019 895.76 121.31 908.271 158.195 920.782 148.126 933.293 138.056 945.804 59.8306 958.315 54.6034 970.826 49.3758 983.337 97.7087 995.849 116.761 1008.36 135.814 1020.87 173.526 1033.38 168.919 1045.89 164.312 1058.4 99.3156 1070.92 89.121 1083.43 78.9261 1095.94 107.476 1108.45 107.751 1120.96 108.025 1133.47 93.2043 1145.98 90.7697 1158.49 88.3347 1171 90.6717 1183.52 93.1412 1196.03 95.6108 1208.54 108.711 1221.05 105.587 1233.56 102.464 1246.07 80.2229 1258.58 74.3998 1269.98 69.095 1284.72 55.637 1296.12 70.6474 1308.63 87.1259 1321.14 163.284 1333.65 173.272 1346.16 183.26 1358.67 143.926 1371.18 130.576 1383.69 117.226 1396.2 104.95 1408.72 93.1701 1421.23 81.39 1433.74 49.0888 1446.25 59.8959 1458.76 70.7026 1471.27 158.235 1483.78 158.012 1496.29 157.789 1508.8 72.2161 1521.32 58.5576 1533.83 44.8991 1546.34 81.4736 1558.85 76.0611 1571.36 70.6481 1583.87 26.7813 1596.38 26.0805 1608.89 25.3793 1621.4 49.4425 1633.91 71.8552 1646.43 94.2675 1658.94 159.426 1671.45 160.556 1683.96 161.686 1702.73 92.2872 1708.98 78.6334" stroke="#FFB226" stroke-width="9" stroke-linecap="round" stroke-linejoin="round" stroke-miterlimit="10" fill="none"/></g></g></g><g clip-path="url(#clip4)"><g filter="url(#fx1)" transform="translate(2601 17574)"><g><path d="M19.9819 44.0344C32.4871 45.7844 45.0099 35.1 57.5154 49.2871 70.0262 63.4806 82.5375 125.652 95.0488 129.196 107.56 132.741 120.071 71.4285 132.582 70.5536 145.093 69.6783 157.604 128.563 170.115 123.945 182.626 119.326 195.137 48.8037 207.649 42.8434 220.16 36.8827 232.671 69.748 245.182 88.1811 257.693 106.614 270.204 149.695 282.715 153.44 295.226 157.185 307.737 108.246 320.249 110.651 332.759 113.055 345.271 154.083 357.782 167.868 370.293 181.653 382.804 202.082 395.315 193.36 407.826 184.639 420.338 119.755 432.849 115.54 445.36 111.323 457.871 168.272 470.382 168.065 482.893 167.857 495.404 125.363 507.915 114.296 520.426 103.229 532.937 100.075 545.449 101.664 557.96 103.252 570.471 111.933 582.982 123.826 595.493 135.719 608.004 172.084 620.515 173.02 633.026 173.956 645.537 145.666 658.049 129.441 670.56 113.216 683.071 79.6063 695.582 75.6702 708.093 71.7338 720.604 99.9256 733.115 105.823 745.626 111.72 758.137 104.026 770.648 111.055 783.159 118.083 795.671 146.464 808.182 147.995 820.693 149.526 833.204 122.446 845.715 120.239 858.226 118.033 870.737 130.583 883.249 134.756 895.76 138.929 908.271 153.749 920.782 145.278 933.293 136.806 945.804 85.0092 958.315 83.9293 970.826 82.8494 983.337 123.9 995.849 138.798 1008.36 153.696 1020.87 178.099 1033.38 173.317 1045.89 168.536 1058.4 117.782 1070.92 110.109 1083.43 102.436 1095.94 122.583 1108.45 127.278 1120.96 131.973 1133.47 139.155 1145.98 138.279 1158.49 137.403 1171 123.408 1183.52 122.022 1196.03 120.636 1208.54 133.093 1221.05 129.962 1233.56 126.831 1246.07 105.02 1258.58 103.239 1271.09 101.458 1283.6 108.86 1296.12 119.275 1308.63 129.689 1321.14 161.408 1333.65 165.728 1346.16 170.047 1358.67 153.579 1371.18 145.193 1383.67 136.822 1396.23 135.819 1408.72 115.408 1421.23 94.9578 1433.74 3.98242 1446.25 22.4924 1458.76 41.0025 1471.27 208.954 1483.78 226.468 1496.29 243.982 1508.8 147.266 1521.32 127.578 1532.6 109.812 1547.56 116.587 1558.85 108.338 1571.36 99.1966 1583.87 68.8634 1596.38 72.73 1608.89 76.5963 1621.4 118.067 1633.91 131.536 1646.43 145.005 1658.94 146.979 1671.45 153.545 1683.96 160.11 1702.73 168.032 1708.98 170.93" stroke="#000000" stroke-width="9" stroke-linecap="round" stroke-linejoin="round" stroke-miterlimit="10" fill="none"/></g></g></g><g><path d="M2614.5 17736.9C2627.01 17747.6 2639.52 17760.9 2652.03 17768.9 2664.54 17777 2677.06 17792.3 2689.57 17785.1 2702.08 17777.8 2714.59 17735.5 2727.1 17725.6 2739.61 17715.7 2752.12 17718.3 2764.63 17725.6 2777.14 17733 2789.66 17762.5 2802.17 17769.5 2814.68 17776.4 2827.19 17765.3 2839.7 17767.1 2852.21 17769 2864.72 17786.7 2877.23 17780.6 2889.74 17774.5 2902.26 17733.8 2914.77 17730.7 2927.28 17727.5 2939.79 17758.6 2952.3 17761.8 2964.81 17765.1 2977.32 17758.4 2989.83 17750.1 3002.34 17741.9 3014.86 17700.1 3027.37 17712.1 3039.88 17724.2 3052.39 17833.5 3064.9 17822.3 3077.41 17811.2 3089.92 17668.9 3102.43 17645.2 3114.45 17622.5 3127.95 17666.4 3139.97 17680.4 3152.48 17694.9 3164.99 17721.8 3177.5 17732.7 3190.01 17743.5 3202.52 17743.7 3215.03 17745.5 3227.54 17747.2 3240.06 17751.5 3252.57 17743.4 3265.08 17735.2 3277.59 17699.6 3290.1 17696.6 3302.61 17693.5 3315.12 17724.6 3327.63 17725.1 3340.14 17725.6 3352.66 17702 3365.17 17699.8 3377.68 17697.5 3390.19 17706.6 3402.7 17711.6 3415.21 17716.6 3427.72 17726.1 3440.23 17729.9 3452.74 17733.7 3465.26 17728.2 3477.77 17734.5 3490.28 17740.8 3502.79 17777.7 3515.3 17767.6 3527.81 17757.6 3540.32 17679.3 3552.83 17674.1 3565.34 17668.9 3577.86 17717.2 3590.37 17736.3 3602.88 17755.3 3615.39 17793 3627.9 17788.4 3640.41 17783.8 3652.92 17718.8 3665.43 17708.6 3677.94 17698.4 3690.46 17727 3702.97 17727.3 3715.48 17727.5 3727.99 17712.7 3740.5 17710.3 3753.01 17707.9 3765.52 17710.2 3778.03 17712.7 3790.54 17715.1 3803.06 17728.2 3815.57 17725.1 3828.08 17722 3840.59 17699.7 3853.1 17693.9 3864.5 17688.6 3879.24 17675.2 3890.63 17690.2 3903.14 17706.6 3915.66 17782.8 3928.17 17792.8 3940.68 17802.8 3953.19 17763.4 3965.7 17750.1 3978.21 17736.7 3990.72 17724.5 4003.23 17712.7 4015.74 17700.9 4028.26 17668.6 4040.77 17679.4 4053.28 17690.2 4065.79 17777.8 4078.3 17777.5 4090.81 17777.3 4103.32 17691.7 4115.83 17678.1 4128.34 17664.4 4140.86 17701 4153.37 17695.6 4165.88 17690.2 4178.39 17646.3 4190.9 17645.6 4203.41 17644.9 4215.92 17669 4228.43 17691.4 4240.94 17713.8 4253.46 17778.9 4265.97 17780.1 4278.48 17781.2 4297.24 17711.8 4303.5 17698.2" stroke="#FFB226" stroke-width="9.16667" stroke-linecap="round" stroke-linejoin="round" stroke-miterlimit="10" fill="none"/></g><g><path d="M2614.5 17611.6C2627.01 17613.3 2639.53 17602.6 2652.03 17616.8 2664.54 17631 2677.06 17693.2 2689.57 17696.7 2702.08 17700.3 2714.59 17638.9 2727.1 17638.1 2739.61 17637.2 2752.12 17696.1 2764.63 17691.5 2777.14 17686.8 2789.66 17616.3 2802.17 17610.4 2814.68 17604.4 2827.19 17637.3 2839.7 17655.7 2852.21 17674.1 2864.72 17717.2 2877.23 17721 2889.74 17724.7 2902.26 17675.8 2914.77 17678.2 2927.28 17680.6 2939.79 17721.6 2952.3 17735.4 2964.81 17749.2 2977.32 17769.6 2989.83 17760.9 3002.34 17752.2 3014.86 17687.3 3027.37 17683.1 3039.88 17678.8 3052.39 17735.8 3064.9 17735.6 3077.41 17735.4 3089.92 17692.9 3102.43 17681.8 3114.94 17670.7 3127.46 17667.6 3139.97 17669.2 3152.48 17670.8 3164.99 17679.5 3177.5 17691.3 3190.01 17703.2 3202.52 17739.6 3215.03 17740.5 3227.54 17741.5 3240.06 17713.2 3252.57 17697 3265.08 17680.7 3277.59 17647.1 3290.1 17643.2 3302.61 17639.3 3315.12 17667.4 3327.63 17673.3 3340.14 17679.2 3352.66 17671.5 3365.17 17678.6 3377.68 17685.6 3390.19 17714 3402.7 17715.5 3415.21 17717 3427.72 17690 3440.23 17687.8 3452.74 17685.6 3465.26 17698.1 3477.77 17702.3 3490.28 17706.4 3502.79 17721.3 3515.3 17712.8 3527.81 17704.3 3540.32 17652.5 3552.83 17651.4 3565.34 17650.4 3577.86 17691.4 3590.37 17706.3 3602.88 17721.2 3615.39 17745.6 3627.9 17740.8 3640.41 17736.1 3652.92 17685.3 3665.43 17677.6 3677.94 17670 3690.46 17690.1 3702.97 17694.8 3715.48 17699.5 3727.99 17706.7 3740.5 17705.8 3753.01 17704.9 3765.52 17690.9 3778.03 17689.5 3790.54 17688.2 3803.06 17700.6 3815.57 17697.5 3828.08 17694.3 3840.59 17672.5 3853.1 17670.8 3865.61 17669 3878.12 17676.4 3890.63 17686.8 3903.14 17697.2 3915.66 17728.9 3928.17 17733.2 3940.68 17737.6 3953.19 17721.1 3965.7 17712.7 3978.19 17704.3 3990.75 17703.3 4003.23 17682.9 4015.74 17662.5 4028.26 17571.5 4040.77 17590 4053.28 17608.5 4065.79 17776.5 4078.3 17794 4090.81 17811.5 4103.32 17714.8 4115.83 17695.1 4127.12 17677.3 4142.08 17684.1 4153.37 17675.9 4165.88 17666.7 4178.39 17636.4 4190.9 17640.2 4203.41 17644.1 4215.92 17685.6 4228.43 17699.1 4240.94 17712.5 4253.46 17714.5 4265.97 17721.1 4278.48 17727.6 4297.24 17735.5 4303.5 17738.4" stroke="#000000" stroke-width="9.16667" stroke-linecap="round" stroke-linejoin="round" stroke-miterlimit="10" fill="none"/></g><g><text font-family="Inter,Inter_MSFontService,sans-serif" font-weight="400" font-size="32" transform="matrix(1 0 0 1 2542.69 18071)">80</text></g><g><text font-family="Inter,Inter_MSFontService,sans-serif" font-weight="400" font-size="32" transform="matrix(1 0 0 1 2542.46 17902)">90</text></g><g><text font-family="Inter,Inter_MSFontService,sans-serif" font-weight="400" font-size="32" transform="matrix(1 0 0 1 2527.52 17732)">100</text></g><g><text font-family="Inter,Inter_MSFontService,sans-serif" font-weight="400" font-size="32" transform="matrix(1 0 0 1 2532.67 17563)">110</text></g><g><text font-family="Inter,Inter_MSFontService,sans-serif" font-weight="400" font-size="32" transform="matrix(1 0 0 1 2528.16 17393)">120</text></g><g><text font-family="Inter,Inter_MSFontService,sans-serif" font-weight="400" font-size="32" transform="matrix(0.707107 -0.707107 0.707107 0.707107 2590.39 18137)">1/6</text></g><g><text font-family="Inter,Inter_MSFontService,sans-serif" font-weight="400" font-size="32" transform="matrix(0.707107 -0.707107 0.707107 0.707107 2690.45 18149)">1/27</text></g><g><text font-family="Inter,Inter_MSFontService,sans-serif" font-weight="400" font-size="32" transform="matrix(0.707107 -0.707107 0.707107 0.707107 2803.03 18149)">2/17</text></g><g><text font-family="Inter,Inter_MSFontService,sans-serif" font-weight="400" font-size="32" transform="matrix(0.707107 -0.707107 0.707107 0.707107 2924.23 18141)">3/9</text></g><g><text font-family="Inter,Inter_MSFontService,sans-serif" font-weight="400" font-size="32" transform="matrix(0.707107 -0.707107 0.707107 0.707107 3022.35 18155)">3/30</text></g><g><text font-family="Inter,Inter_MSFontService,sans-serif" font-weight="400" font-size="32" transform="matrix(0.707107 -0.707107 0.707107 0.707107 3135.51 18155)">4/20</text></g><g><text font-family="Inter,Inter_MSFontService,sans-serif" font-weight="400" font-size="32" transform="matrix(0.707107 -0.707107 0.707107 0.707107 3255.71 18147)">5/11</text></g><g><text font-family="Inter,Inter_MSFontService,sans-serif" font-weight="400" font-size="32" transform="matrix(0.707107 -0.707107 0.707107 0.707107 3378.47 18137)">6/1</text></g><g><text font-family="Inter,Inter_MSFontService,sans-serif" font-weight="400" font-size="32" transform="matrix(0.707107 -0.707107 0.707107 0.707107 3474.13 18154)">6/22</text></g><g><text font-family="Inter,Inter_MSFontService,sans-serif" font-weight="400" font-size="32" transform="matrix(0.707107 -0.707107 0.707107 0.707107 3590.39 18150)">7/13</text></g><g><text font-family="Inter,Inter_MSFontService,sans-serif" font-weight="400" font-size="32" transform="matrix(0.707107 -0.707107 0.707107 0.707107 3712.47 18140)">8/3</text></g><g><text font-family="Inter,Inter_MSFontService,sans-serif" font-weight="400" font-size="32" transform="matrix(0.707107 -0.707107 0.707107 0.707107 3811.2 18154)">8/24</text></g><g><text font-family="Inter,Inter_MSFontService,sans-serif" font-weight="400" font-size="32" transform="matrix(0.707107 -0.707107 0.707107 0.707107 3926.81 18151)">9/14</text></g><g><text font-family="Inter,Inter_MSFontService,sans-serif" font-weight="400" font-size="32" transform="matrix(0.707107 -0.707107 0.707107 0.707107 4040.14 18151)">10/5</text></g><g><text font-family="Inter,Inter_MSFontService,sans-serif" font-weight="400" font-size="32" transform="matrix(0.707107 -0.707107 0.707107 0.707107 4138.64 18165)">10/26</text></g><g><text font-family="Inter,Inter_MSFontService,sans-serif" font-weight="400" font-size="32" transform="matrix(0.707107 -0.707107 0.707107 0.707107 4258.06 18158)">11/16</text></g><g><text font-family="Inter,Inter_MSFontService,sans-serif" font-weight="400" font-size="32" transform="matrix(0.707107 -0.707107 0.707107 0.707107 4379.18 18149)">12/7</text></g><g><text font-family="Inter Medium,Inter Medium_MSFontService,sans-serif" font-weight="700" font-size="46" transform="matrix(1 0 0 1 2529.01 17217)">U.S. Hotel Occupancy and ADR Recovery Levels</text></g><g><path d="M2521.5 17318.5 2609.5 17318.5" stroke="#FFB226" stroke-width="9.16667" stroke-linecap="round" stroke-linejoin="round" stroke-miterlimit="10" fill="none" fill-rule="evenodd"/></g><g><text font-family="Inter Medium,Inter Medium_MSFontService,sans-serif" font-weight="500" font-size="37" transform="matrix(1 0 0 1 2618.39 17331)">Occ Index</text></g><g><path d="M2846.5 17318.5 2934.5 17318.5" stroke="#000000" stroke-width="9.16667" stroke-linecap="round" stroke-linejoin="round" stroke-miterlimit="10" fill="none" fill-rule="evenodd"/></g><g><text font-family="Inter Medium,Inter Medium_MSFontService,sans-serif" font-weight="500" font-size="37" transform="matrix(1 0 0 1 2943.74 17331)">ADR Index</text></g><rect x="2445.5" y="17127.5" width="2103" height="1092" stroke="#D9D9D9" stroke-width="3.4375" stroke-linejoin="round" stroke-miterlimit="10" fill="none"/><g><text fill="#7F7F7F" font-family="Inter,Inter_MSFontService,sans-serif" font-weight="400" font-size="32" transform="matrix(1 0 0 1 2526.75 17274)">Indexed to 2023, Source: STR, str.com</text></g></g></svg>