<svg width="2106" height="1059" xmlns="http://www.w3.org/2000/svg" xmlns:xlink="http://www.w3.org/1999/xlink" xml:space="preserve" overflow="hidden"><defs><filter id="fx0" x="-10%" y="-10%" width="120%" height="120%" filterUnits="userSpaceOnUse" primitiveUnits="userSpaceOnUse"><feComponentTransfer color-interpolation-filters="sRGB"><feFuncR type="discrete" tableValues="0 0"/><feFuncG type="discrete" tableValues="0 0"/><feFuncB type="discrete" tableValues="0 0"/><feFuncA type="linear" slope="0.501961" intercept="0"/></feComponentTransfer><feGaussianBlur stdDeviation="4.58333 4.58333"/></filter><filter id="fx1" x="-10%" y="-10%" width="120%" height="120%" filterUnits="userSpaceOnUse" primitiveUnits="userSpaceOnUse"><feComponentTransfer color-interpolation-filters="sRGB"><feFuncR type="discrete" tableValues="0 0"/><feFuncG type="discrete" tableValues="0 0"/><feFuncB type="discrete" tableValues="0 0"/><feFuncA type="linear" slope="0.501961" intercept="0"/></feComponentTransfer><feGaussianBlur stdDeviation="4.58333 4.58333"/></filter><clipPath id="clip2"><rect x="2444" y="16555" width="2106" height="1059"/></clipPath><clipPath id="clip3"><rect x="2612" y="16804" width="1885" height="658"/></clipPath><clipPath id="clip4"><rect x="2612" y="16804" width="1885" height="658"/></clipPath><clipPath id="clip5"><rect x="2612" y="16804" width="1885" height="658"/></clipPath></defs><g clip-path="url(#clip2)" transform="translate(-2444 -16555)"><rect x="2445" y="16556" width="2103" height="1056" fill="#FFFFFF"/><g><path d="M2612.5 17131.5 4494.5 17131.5" stroke="#D9D9D9" stroke-width="3.4375" stroke-linejoin="round" stroke-miterlimit="10" fill="none" fill-rule="evenodd"/></g><g clip-path="url(#clip3)"><g filter="url(#fx0)" transform="translate(2601 16790)"><g><path d="M19.9819 362.124C32.4951 372.46 45.0085 385.357 57.522 393.13 70.0351 400.904 82.5486 415.763 95.0621 408.764 107.575 401.764 120.089 360.73 132.602 351.134 145.115 341.537 157.628 344.102 170.142 351.186 182.655 358.27 195.169 386.936 207.682 393.638 220.195 400.34 232.709 389.596 245.222 391.397 257.735 393.198 270.249 410.334 282.762 404.445 295.275 398.555 307.788 359.088 320.302 356.057 332.815 353.026 345.328 383.115 357.842 386.258 370.355 389.402 382.869 382.943 395.382 374.918 407.895 366.893 420.409 326.446 432.922 338.107 445.435 349.767 457.948 455.686 470.462 444.88 482.975 434.075 495.488 296.199 508.002 273.274 520.148 251.022 533.396 293.624 545.542 307.328 558.055 321.447 570.569 347.475 583.082 357.986 595.595 368.496 608.108 368.664 620.622 370.392 633.135 372.119 645.648 376.247 658.162 368.351 670.675 360.455 683.188 325.965 695.702 323.015 708.215 320.065 720.729 350.134 733.242 350.65 745.755 351.166 758.268 328.294 770.782 326.113 783.295 323.932 795.808 332.699 808.322 337.565 820.835 342.431 833.348 351.605 845.862 355.312 858.375 359.018 870.889 353.712 883.402 359.807 895.915 365.901 908.428 401.636 920.942 391.881 933.455 382.125 945.968 306.337 958.482 301.273 970.995 296.209 983.508 343.035 996.022 361.494 1008.54 379.953 1021.05 416.49 1033.56 412.027 1046.07 407.563 1058.59 344.592 1071.1 334.715 1083.61 324.838 1096.13 352.498 1108.64 352.764 1121.15 353.03 1133.67 338.671 1146.18 336.312 1158.7 333.953 1171.21 336.217 1183.72 338.61 1196.23 341.003 1208.75 353.694 1221.26 350.668 1233.77 347.642 1246.29 326.094 1258.8 320.453 1270.44 315.204 1284.7 301.965 1296.34 316.817 1308.86 332.782 1321.37 406.567 1333.88 416.244 1346.39 425.921 1358.91 387.813 1371.42 374.879 1383.93 361.944 1396.45 350.051 1408.96 338.638 1421.47 327.225 1433.99 295.93 1446.5 306.401 1459.02 316.871 1471.53 401.675 1484.04 401.459 1496.55 401.243 1509.07 318.337 1521.58 305.104 1534.09 291.871 1546.61 327.306 1559.12 322.062 1571.64 316.818 1584.15 274.318 1596.66 273.639 1609.18 272.96 1621.69 296.273 1634.2 317.987 1646.71 339.701 1659.23 402.829 1671.74 403.924 1679.88 404.636 1701.14 367.7 1709.28 324.554 1721.79 258.253 1734.31-19.0176 1746.82 6.11721 1759.33 31.252 1771.85 419.743 1784.36 475.363 1796.87 530.982 1809.39 385.021 1821.9 339.834 1834.41 294.646 1846.93 233.988 1859.44 204.24 1870.5 177.96 1885.93 173.976 1896.98 161.344" stroke="#FFB226" stroke-width="9" stroke-linecap="round" stroke-linejoin="round" stroke-miterlimit="10" fill="none"/></g></g></g><g clip-path="url(#clip4)"><g filter="url(#fx1)" transform="translate(2601 16974)"><g><path d="M19.9819 56.8211C32.4951 58.5212 45.0085 48.1389 57.522 61.9218 70.0351 75.7047 82.5486 136.076 95.0621 139.519 107.575 142.96 120.089 83.4225 132.602 82.5727 145.115 81.7224 157.628 138.903 170.142 134.419 182.655 129.934 195.169 61.4524 207.682 55.6645 220.195 49.8762 232.709 81.7907 245.222 99.6904 257.735 117.59 270.249 159.424 282.762 163.061 295.275 166.697 307.788 119.174 320.302 121.51 332.815 123.845 345.328 163.685 357.842 177.071 370.355 190.457 382.869 210.295 395.382 201.826 407.895 193.357 420.409 130.351 432.922 126.257 445.435 122.163 457.948 177.464 470.462 177.262 482.975 177.061 495.488 135.796 508.002 125.049 520.515 114.303 533.029 111.24 545.542 112.783 558.055 114.325 570.569 122.755 583.082 134.304 595.595 145.852 608.108 181.165 620.622 182.074 633.135 182.983 645.648 155.511 658.162 139.756 670.675 124.001 683.188 91.3637 695.702 87.5414 708.215 83.7188 720.729 111.095 733.242 116.821 745.755 122.548 758.268 115.077 770.782 121.902 783.295 128.728 795.808 156.287 808.322 157.773 820.835 159.26 833.348 132.964 845.862 130.821 858.375 128.678 870.889 140.865 883.402 144.917 895.915 148.969 908.428 163.36 920.942 155.135 933.455 146.909 945.968 96.6103 958.482 95.5617 970.995 94.5127 983.508 134.375 996.022 148.842 1008.54 163.309 1021.05 187.006 1033.56 182.363 1046.07 177.72 1058.59 128.435 1071.1 120.984 1083.61 113.532 1096.13 133.096 1108.64 137.656 1121.15 142.215 1133.67 149.189 1146.18 148.339 1158.7 147.488 1171.21 133.898 1183.72 132.552 1196.23 131.206 1208.75 143.302 1221.26 140.262 1233.77 137.222 1246.29 116.042 1258.8 114.312 1271.31 112.583 1283.83 119.771 1296.34 129.884 1308.86 139.997 1321.37 170.798 1333.88 174.993 1346.39 179.187 1358.91 163.196 1371.42 155.052 1383.93 146.908 1396.45 145.988 1408.96 126.13 1421.47 106.271 1433.99 17.9284 1446.5 35.9029 1459.02 53.8769 1471.53 216.968 1484.04 233.975 1496.55 250.982 1509.07 157.066 1521.58 137.947 1533.07 120.397 1547.63 127.413 1559.12 119.264 1571.64 110.387 1584.15 80.9315 1596.66 84.6861 1609.18 88.4404 1621.69 128.711 1634.2 141.791 1646.71 154.87 1659.23 156.786 1671.74 163.162 1681.28 168.021 1699.74 198.294 1709.28 180.044 1721.79 156.1 1734.31 14.9824 1746.82 19.4963 1759.33 24.0098 1771.85 194.433 1784.36 207.126 1796.87 219.818 1809.39 126.936 1821.9 95.6495 1834.41 64.3626 1846.93 15.8908 1859.44 19.4045 1871.95 22.9178 1884.47 84.2883 1896.98 116.73" stroke="#000000" stroke-width="9" stroke-linecap="round" stroke-linejoin="round" stroke-miterlimit="10" fill="none"/></g></g></g><g clip-path="url(#clip5)"><path d="M2614.5 17145.6C2627.01 17156 2639.53 17168.9 2652.04 17176.6 2664.55 17184.4 2677.07 17199.3 2689.58 17192.3 2702.09 17185.3 2714.61 17144.2 2727.12 17134.7 2739.63 17125.1 2752.15 17127.6 2764.66 17134.7 2777.17 17141.8 2789.69 17170.5 2802.2 17177.2 2814.71 17183.9 2827.23 17173.1 2839.74 17174.9 2852.25 17176.7 2864.77 17193.9 2877.28 17188 2889.79 17182.1 2902.31 17142.6 2914.82 17139.6 2927.33 17136.5 2939.85 17166.6 2952.36 17169.8 2964.87 17172.9 2977.39 17166.5 2989.9 17158.4 3002.41 17150.4 3014.93 17110 3027.44 17121.6 3039.95 17133.3 3052.47 17239.2 3064.98 17228.4 3077.49 17217.6 3090.01 17079.7 3102.52 17056.8 3114.67 17034.5 3127.91 17077.1 3140.06 17090.8 3152.57 17105 3165.09 17131 3177.6 17141.5 3190.11 17152 3202.63 17152.2 3215.14 17153.9 3227.65 17155.6 3240.17 17159.8 3252.68 17151.9 3265.19 17144 3277.71 17109.5 3290.22 17106.5 3302.73 17103.6 3315.25 17133.7 3327.76 17134.2 3340.27 17134.7 3352.79 17111.8 3365.3 17109.6 3377.81 17107.4 3390.33 17116.2 3402.84 17121.1 3415.35 17125.9 3427.87 17135.1 3440.38 17138.8 3452.89 17142.5 3465.41 17137.2 3477.92 17143.3 3490.43 17149.4 3502.95 17185.2 3515.46 17175.4 3527.97 17165.6 3540.49 17089.9 3553 17084.8 3565.51 17079.7 3578.03 17126.6 3590.54 17145 3603.05 17163.5 3615.57 17200 3628.08 17195.5 3640.59 17191.1 3653.11 17128.1 3665.62 17118.2 3678.13 17108.4 3690.65 17136 3703.16 17136.3 3715.67 17136.5 3728.19 17122.2 3740.7 17119.8 3753.21 17117.5 3765.73 17119.7 3778.24 17122.1 3790.75 17124.5 3803.27 17137.2 3815.78 17134.2 3828.29 17131.2 3840.81 17109.6 3853.32 17104 3864.96 17098.7 3879.22 17085.5 3890.86 17100.3 3903.37 17116.3 3915.89 17190.1 3928.4 17199.8 3940.91 17209.4 3953.43 17171.3 3965.94 17158.4 3978.45 17145.5 3990.97 17133.6 4003.48 17122.2 4015.99 17110.7 4028.51 17079.4 4041.02 17089.9 4053.53 17100.4 4066.05 17185.2 4078.56 17185 4091.07 17184.8 4103.59 17101.9 4116.1 17088.6 4128.61 17075.4 4141.13 17110.8 4153.64 17105.6 4166.15 17100.3 4178.67 17057.8 4191.18 17057.2 4203.69 17056.5 4216.21 17079.8 4228.72 17101.5 4241.23 17123.2 4253.75 17186.3 4266.26 17187.4 4274.4 17188.2 4295.66 17151.2 4303.8 17108.1 4316.31 17041.8 4328.83 16764.5 4341.34 16789.6 4353.85 16814.8 4366.37 17203.3 4378.88 17258.9 4391.39 17314.5 4403.91 17168.5 4416.42 17123.4 4428.93 17078.2 4441.45 17017.5 4453.96 16987.8 4465.01 16961.5 4480.45 16957.5 4491.5 16944.9" stroke="#FFB226" stroke-width="9.16667" stroke-linecap="round" stroke-linejoin="round" stroke-miterlimit="10" fill="none"/></g><g><path d="M2614.5 17024.3C2627.01 17026 2639.53 17015.7 2652.04 17029.4 2664.55 17043.2 2677.07 17103.6 2689.58 17107 2702.09 17110.5 2714.61 17050.9 2727.12 17050.1 2739.63 17049.2 2752.15 17106.4 2764.66 17101.9 2777.17 17097.5 2789.69 17029 2802.2 17023.2 2814.71 17017.4 2827.23 17049.3 2839.74 17067.2 2852.25 17085.1 2864.77 17126.9 2877.28 17130.6 2889.79 17134.2 2902.31 17086.7 2914.82 17089 2927.33 17091.4 2939.85 17131.2 2952.36 17144.6 2964.87 17158 2977.39 17177.8 2989.9 17169.3 3002.41 17160.9 3014.93 17097.9 3027.44 17093.8 3039.95 17089.7 3052.47 17145 3064.98 17144.8 3077.49 17144.6 3090.01 17103.3 3102.52 17092.6 3115.03 17081.8 3127.55 17078.8 3140.06 17080.3 3152.57 17081.8 3165.09 17090.3 3177.6 17101.8 3190.11 17113.4 3202.63 17148.7 3215.14 17149.6 3227.65 17150.5 3240.17 17123 3252.68 17107.3 3265.19 17091.5 3277.71 17058.9 3290.22 17055.1 3302.73 17051.2 3315.25 17078.6 3327.76 17084.3 3340.27 17090.1 3352.79 17082.6 3365.3 17089.4 3377.81 17096.2 3390.33 17123.8 3402.84 17125.3 3415.35 17126.8 3427.87 17100.5 3440.38 17098.3 3452.89 17096.2 3465.41 17108.4 3477.92 17112.4 3490.43 17116.5 3502.95 17130.9 3515.46 17122.7 3527.97 17114.4 3540.49 17064.1 3553 17063.1 3565.51 17062 3578.03 17101.9 3590.54 17116.4 3603.05 17130.8 3615.57 17154.5 3628.08 17149.9 3640.59 17145.2 3653.11 17096 3665.62 17088.5 3678.13 17081 3690.65 17100.6 3703.16 17105.2 3715.67 17109.7 3728.19 17116.7 3740.7 17115.9 3753.21 17115 3765.73 17101.4 3778.24 17100.1 3790.75 17098.7 3803.27 17110.8 3815.78 17107.8 3828.29 17104.7 3840.81 17083.6 3853.32 17081.8 3865.83 17080.1 3878.35 17087.3 3890.86 17097.4 3903.37 17107.5 3915.89 17138.3 3928.4 17142.5 3940.91 17146.7 3953.43 17130.7 3965.94 17122.6 3978.45 17114.4 3990.97 17113.5 4003.48 17093.6 4015.99 17073.8 4028.51 16985.4 4041.02 17003.4 4053.53 17021.4 4066.05 17184.5 4078.56 17201.5 4091.07 17218.5 4103.59 17124.6 4116.1 17105.5 4127.59 17087.9 4142.15 17094.9 4153.64 17086.8 4166.15 17077.9 4178.67 17048.4 4191.18 17052.2 4203.69 17056 4216.21 17096.2 4228.72 17109.3 4241.23 17122.4 4253.75 17124.3 4266.26 17130.7 4275.8 17135.5 4294.26 17165.8 4303.8 17147.6 4316.31 17123.6 4328.83 16982.5 4341.34 16987 4353.85 16991.5 4366.37 17162 4378.88 17174.6 4391.39 17187.3 4403.91 17094.5 4416.42 17063.2 4428.93 17031.9 4441.45 16983.4 4453.96 16986.9 4466.47 16990.4 4478.99 17051.8 4491.5 17084.2" stroke="#000000" stroke-width="9.16667" stroke-linecap="round" stroke-linejoin="round" stroke-miterlimit="10" fill="none"/></g><g><text font-family="Inter,Inter_MSFontService,sans-serif" font-weight="400" font-size="32" transform="matrix(1 0 0 1 2542.69 17469)">80</text></g><g><text font-family="Inter,Inter_MSFontService,sans-serif" font-weight="400" font-size="32" transform="matrix(1 0 0 1 2542.46 17305)">90</text></g><g><text font-family="Inter,Inter_MSFontService,sans-serif" font-weight="400" font-size="32" transform="matrix(1 0 0 1 2527.52 17142)">100</text></g><g><text font-family="Inter,Inter_MSFontService,sans-serif" font-weight="400" font-size="32" transform="matrix(1 0 0 1 2532.67 16978)">110</text></g><g><text font-family="Inter,Inter_MSFontService,sans-serif" font-weight="400" font-size="32" transform="matrix(1 0 0 1 2528.16 16814)">120</text></g><g><text font-family="Inter,Inter_MSFontService,sans-serif" font-weight="400" font-size="32" transform="matrix(0.707107 -0.707107 0.707107 0.707107 2590.39 17535)">1/6</text></g><g><text font-family="Inter,Inter_MSFontService,sans-serif" font-weight="400" font-size="32" transform="matrix(0.707107 -0.707107 0.707107 0.707107 2690.45 17547)">1/27</text></g><g><text font-family="Inter,Inter_MSFontService,sans-serif" font-weight="400" font-size="32" transform="matrix(0.707107 -0.707107 0.707107 0.707107 2803.03 17547)">2/17</text></g><g><text font-family="Inter,Inter_MSFontService,sans-serif" font-weight="400" font-size="32" transform="matrix(0.707107 -0.707107 0.707107 0.707107 2924.23 17539)">3/9</text></g><g><text font-family="Inter,Inter_MSFontService,sans-serif" font-weight="400" font-size="32" transform="matrix(0.707107 -0.707107 0.707107 0.707107 3022.35 17553)">3/30</text></g><g><text font-family="Inter,Inter_MSFontService,sans-serif" font-weight="400" font-size="32" transform="matrix(0.707107 -0.707107 0.707107 0.707107 3135.51 17553)">4/20</text></g><g><text font-family="Inter,Inter_MSFontService,sans-serif" font-weight="400" font-size="32" transform="matrix(0.707107 -0.707107 0.707107 0.707107 3255.71 17545)">5/11</text></g><g><text font-family="Inter,Inter_MSFontService,sans-serif" font-weight="400" font-size="32" transform="matrix(0.707107 -0.707107 0.707107 0.707107 3378.47 17535)">6/1</text></g><g><text font-family="Inter,Inter_MSFontService,sans-serif" font-weight="400" font-size="32" transform="matrix(0.707107 -0.707107 0.707107 0.707107 3474.13 17552)">6/22</text></g><g><text font-family="Inter,Inter_MSFontService,sans-serif" font-weight="400" font-size="32" transform="matrix(0.707107 -0.707107 0.707107 0.707107 3590.39 17548)">7/13</text></g><g><text font-family="Inter,Inter_MSFontService,sans-serif" font-weight="400" font-size="32" transform="matrix(0.707107 -0.707107 0.707107 0.707107 3712.47 17538)">8/3</text></g><g><text font-family="Inter,Inter_MSFontService,sans-serif" font-weight="400" font-size="32" transform="matrix(0.707107 -0.707107 0.707107 0.707107 3811.2 17552)">8/24</text></g><g><text font-family="Inter,Inter_MSFontService,sans-serif" font-weight="400" font-size="32" transform="matrix(0.707107 -0.707107 0.707107 0.707107 3926.81 17549)">9/14</text></g><g><text font-family="Inter,Inter_MSFontService,sans-serif" font-weight="400" font-size="32" transform="matrix(0.707107 -0.707107 0.707107 0.707107 4040.14 17549)">10/5</text></g><g><text font-family="Inter,Inter_MSFontService,sans-serif" font-weight="400" font-size="32" transform="matrix(0.707107 -0.707107 0.707107 0.707107 4138.64 17563)">10/26</text></g><g><text font-family="Inter,Inter_MSFontService,sans-serif" font-weight="400" font-size="32" transform="matrix(0.707107 -0.707107 0.707107 0.707107 4258.06 17556)">11/16</text></g><g><text font-family="Inter,Inter_MSFontService,sans-serif" font-weight="400" font-size="32" transform="matrix(0.707107 -0.707107 0.707107 0.707107 4379.18 17547)">12/7</text></g><g><text font-family="Inter Medium,Inter Medium_MSFontService,sans-serif" font-weight="700" font-size="46" transform="matrix(1 0 0 1 2529.01 16646)">U.S. Hotel Occupancy and ADR Recovery Levels</text></g><g><path d="M2521.5 16741.5 2609.5 16741.5" stroke="#FFB226" stroke-width="9.16667" stroke-linecap="round" stroke-linejoin="round" stroke-miterlimit="10" fill="none" fill-rule="evenodd"/></g><g><text font-family="Inter Medium,Inter Medium_MSFontService,sans-serif" font-weight="500" font-size="37" transform="matrix(1 0 0 1 2618.39 16754)">Occ Index</text></g><g><path d="M2846.5 16741.5 2934.5 16741.5" stroke="#000000" stroke-width="9.16667" stroke-linecap="round" stroke-linejoin="round" stroke-miterlimit="10" fill="none" fill-rule="evenodd"/></g><g><text font-family="Inter Medium,Inter Medium_MSFontService,sans-serif" font-weight="500" font-size="37" transform="matrix(1 0 0 1 2943.74 16754)">ADR Index</text></g><rect x="2445.5" y="16556.5" width="2103" height="1056" stroke="#D9D9D9" stroke-width="3.4375" stroke-linejoin="round" stroke-miterlimit="10" fill="none"/><g><text fill="#7F7F7F" font-family="Inter,Inter_MSFontService,sans-serif" font-weight="400" font-size="32" transform="matrix(1 0 0 1 2526.75 16700)">Indexed to 2023, Source: STR, str.com</text></g></g></svg>