<svg width="2106" height="1059" xmlns="http://www.w3.org/2000/svg" xmlns:xlink="http://www.w3.org/1999/xlink" xml:space="preserve" overflow="hidden"><defs><filter id="fx0" x="-10%" y="-10%" width="120%" height="120%" filterUnits="userSpaceOnUse" primitiveUnits="userSpaceOnUse"><feComponentTransfer color-interpolation-filters="sRGB"><feFuncR type="discrete" tableValues="0 0"/><feFuncG type="discrete" tableValues="0 0"/><feFuncB type="discrete" tableValues="0 0"/><feFuncA type="linear" slope="0.501961" intercept="0"/></feComponentTransfer><feGaussianBlur stdDeviation="4.58333 4.58333"/></filter><filter id="fx1" x="-10%" y="-10%" width="120%" height="120%" filterUnits="userSpaceOnUse" primitiveUnits="userSpaceOnUse"><feComponentTransfer color-interpolation-filters="sRGB"><feFuncR type="discrete" tableValues="0 0"/><feFuncG type="discrete" tableValues="0 0"/><feFuncB type="discrete" tableValues="0 0"/><feFuncA type="linear" slope="0.501961" intercept="0"/></feComponentTransfer><feGaussianBlur stdDeviation="4.58333 4.58333"/></filter><clipPath id="clip2"><rect x="2444" y="16555" width="2106" height="1059"/></clipPath><clipPath id="clip3"><rect x="2612" y="16804" width="1885" height="658"/></clipPath><clipPath id="clip4"><rect x="2612" y="16804" width="1885" height="658"/></clipPath></defs><g clip-path="url(#clip2)" transform="translate(-2444 -16555)"><rect x="2445" y="16556" width="2103" height="1056" fill="#FFFFFF"/><g><path d="M2612.5 17131.5 4494.5 17131.5" stroke="#D9D9D9" stroke-width="3.4375" stroke-linejoin="round" stroke-miterlimit="10" fill="none" fill-rule="evenodd"/></g><g clip-path="url(#clip3)"><g filter="url(#fx0)" transform="translate(2601 17037)"><g><path d="M19.9819 114.724C32.4984 125.026 45.0152 137.882 57.532 145.63 70.0485 153.378 82.5653 168.189 95.0821 161.213 107.599 154.236 120.115 113.334 132.632 103.77 145.149 94.2043 157.665 96.7606 170.182 103.822 182.698 110.883 195.215 139.456 207.732 146.136 220.248 152.816 232.765 142.107 245.282 143.902 257.799 145.697 270.315 162.778 282.832 156.907 295.349 151.037 307.865 111.698 320.382 108.677 332.898 105.656 345.415 135.647 357.932 138.78 370.448 141.913 382.965 135.476 395.482 127.477 407.999 119.477 420.515 79.1623 433.032 90.7849 445.549 102.407 458.065 207.982 470.582 197.212 483.098 186.441 495.615 49.0134 508.132 26.1627 520.281 3.98242 533.533 46.4463 545.682 60.1061 558.199 74.1787 570.715 100.123 583.232 110.599 595.749 121.076 608.265 121.243 620.782 122.965 633.298 124.687 645.815 128.802 658.332 120.931 670.848 113.061 683.365 78.6828 695.882 75.7425 708.398 72.8018 720.915 102.773 733.432 103.288 745.949 103.802 758.465 81.0039 770.982 78.8301 783.498 76.6561 796.015 85.3942 808.532 90.2449 821.048 95.0952 833.565 104.239 846.082 107.934 858.599 111.629 871.115 106.339 883.632 112.414 896.149 118.489 908.665 154.108 921.182 144.385 933.698 134.661 946.215 59.1186 958.732 54.0709 971.248 49.0228 983.765 95.6972 996.282 114.096 1008.8 132.495 1021.31 168.914 1033.83 164.465 1046.35 160.016 1058.86 97.2487 1071.38 87.404 1083.9 77.5588 1096.42 105.129 1108.93 105.395 1121.45 105.66 1133.97 91.3476 1146.48 88.9963 1159 86.6446 1171.51 88.9015 1184.03 91.2867 1196.55 93.6715 1209.06 106.322 1221.58 103.306 1234.1 100.289 1246.62 78.8114 1259.13 73.188 1270.78 67.9561 1285.04 54.76 1296.68 69.5643 1309.2 85.4777 1321.71 159.023 1334.23 168.669 1346.75 178.314 1359.26 140.329 1371.78 127.437 1384.3 114.545 1396.82 102.69 1409.33 91.3144 1421.85 79.9383 1434.37 48.7454 1446.88 59.1817 1459.4 69.6176 1471.91 154.147 1484.43 153.932 1496.95 153.716 1515.72 73.8962 1521.98 57.8895" stroke="#FFB226" stroke-width="9" stroke-linecap="round" stroke-linejoin="round" stroke-miterlimit="10" fill="none"/></g></g></g><g clip-path="url(#clip4)"><g filter="url(#fx1)" transform="translate(2601 16988)"><g><path d="M19.9819 42.8662C32.4984 44.5659 45.0152 34.1859 57.532 47.9656 70.0485 61.7454 82.5653 122.103 95.0821 125.545 107.599 128.986 120.115 69.4614 132.632 68.6118 145.149 67.7617 157.665 124.929 170.182 120.446 182.698 115.962 195.215 47.4964 207.732 41.7098 220.248 35.9228 232.765 67.83 245.282 85.7255 257.799 103.621 270.315 145.445 282.832 149.081 295.349 152.717 307.865 105.205 320.382 107.54 332.898 109.874 345.415 149.706 357.932 163.089 370.448 176.471 382.965 196.304 395.482 187.837 407.999 179.37 420.515 116.379 433.032 112.286 445.549 108.193 458.065 163.481 470.582 163.279 483.098 163.078 495.615 121.823 508.132 111.079 520.648 100.335 533.165 97.2727 545.682 98.8149 558.199 100.357 570.715 108.785 583.232 120.331 595.749 131.877 608.265 167.181 620.782 168.09 633.298 168.999 645.815 141.534 658.332 125.782 670.848 110.03 683.365 77.4007 695.882 73.5794 708.398 69.7577 720.915 97.1271 733.432 102.853 745.949 108.578 758.465 101.108 770.982 107.932 783.498 114.756 796.015 142.309 808.532 143.795 821.048 145.281 833.565 118.991 846.082 116.849 858.599 114.707 871.115 126.89 883.632 130.942 896.149 134.993 908.665 149.381 921.182 141.157 933.698 132.933 946.215 82.6462 958.732 81.5978 971.248 80.5491 983.765 120.402 996.282 134.866 1008.8 149.329 1021.31 173.021 1033.83 168.379 1046.35 163.737 1058.86 114.463 1071.38 107.014 1083.9 99.5641 1096.42 119.124 1108.93 123.682 1121.45 128.24 1133.97 135.212 1146.48 134.362 1159 133.512 1171.51 119.926 1184.03 118.58 1196.55 117.234 1209.06 129.327 1221.58 126.288 1234.1 123.248 1246.62 102.073 1259.13 100.344 1271.65 98.6148 1284.17 105.801 1296.68 115.912 1309.2 126.023 1321.71 156.817 1334.23 161.01 1346.75 165.204 1359.26 149.217 1371.78 141.075 1384.3 132.933 1396.82 132.012 1409.33 112.159 1421.85 92.3047 1434.37 3.98242 1446.88 21.9527 1459.4 39.9227 1471.91 202.976 1484.43 219.979 1496.95 236.982 1515.72 139.974 1521.98 123.973" stroke="#000000" stroke-width="9" stroke-linecap="round" stroke-linejoin="round" stroke-miterlimit="10" fill="none"/></g></g></g><g><path d="M2614.5 17145.2C2627.02 17155.5 2639.53 17168.4 2652.05 17176.1 2664.57 17183.9 2677.08 17198.7 2689.6 17191.7 2702.12 17184.8 2714.63 17143.9 2727.15 17134.3 2739.67 17124.7 2752.18 17127.3 2764.7 17134.3 2777.22 17141.4 2789.73 17170 2802.25 17176.7 2814.77 17183.3 2827.28 17172.6 2839.8 17174.4 2852.32 17176.2 2864.83 17193.3 2877.35 17187.4 2889.87 17181.6 2902.38 17142.2 2914.9 17139.2 2927.42 17136.2 2939.93 17166.2 2952.45 17169.3 2964.97 17172.4 2977.48 17166 2990 17158 3002.52 17150 3015.03 17109.7 3027.55 17121.3 3040.07 17132.9 3052.58 17238.5 3065.1 17227.7 3077.62 17217 3090.13 17079.5 3102.65 17056.7 3114.8 17034.5 3128.05 17077 3140.2 17090.6 3152.72 17104.7 3165.23 17130.6 3177.75 17141.1 3190.27 17151.6 3202.78 17151.8 3215.3 17153.5 3227.82 17155.2 3240.33 17159.3 3252.85 17151.4 3265.37 17143.6 3277.88 17109.2 3290.4 17106.3 3302.92 17103.3 3315.43 17133.3 3327.95 17133.8 3340.47 17134.3 3352.98 17111.5 3365.5 17109.3 3378.02 17107.2 3390.53 17115.9 3403.05 17120.8 3415.57 17125.6 3428.08 17134.8 3440.6 17138.5 3453.12 17142.1 3465.63 17136.9 3478.15 17142.9 3490.67 17149 3503.18 17184.6 3515.7 17174.9 3528.22 17165.2 3540.73 17089.6 3553.25 17084.6 3565.77 17079.5 3578.28 17126.2 3590.8 17144.6 3603.32 17163 3615.83 17199.4 3628.35 17195 3640.87 17190.5 3653.38 17127.8 3665.9 17117.9 3678.42 17108.1 3690.93 17135.6 3703.45 17135.9 3715.97 17136.2 3728.48 17121.9 3741 17119.5 3753.52 17117.2 3766.03 17119.4 3778.55 17121.8 3791.07 17124.2 3803.58 17136.8 3816.1 17133.8 3828.62 17130.8 3841.13 17109.3 3853.65 17103.7 3865.29 17098.5 3879.56 17085.3 3891.2 17100.1 3903.72 17116 3916.23 17189.5 3928.75 17199.2 3941.27 17208.8 3953.78 17170.8 3966.3 17158 3978.82 17145.1 3991.33 17133.2 4003.85 17121.8 4016.37 17110.5 4028.88 17079.3 4041.4 17089.7 4053.92 17100.1 4066.43 17184.7 4078.95 17184.4 4091.47 17184.2 4110.24 17104.4 4116.5 17088.4" stroke="#FFB226" stroke-width="9.16667" stroke-linecap="round" stroke-linejoin="round" stroke-miterlimit="10" fill="none"/></g><g><path d="M2614.5 17024.4C2627.02 17026.1 2639.53 17015.7 2652.05 17029.5 2664.57 17043.3 2677.08 17103.6 2689.6 17107.1 2702.12 17110.5 2714.63 17051 2727.15 17050.1 2739.67 17049.3 2752.18 17106.4 2764.7 17102 2777.22 17097.5 2789.73 17029 2802.25 17023.2 2814.77 17017.4 2827.28 17049.3 2839.8 17067.2 2852.32 17085.1 2864.83 17127 2877.35 17130.6 2889.87 17134.2 2902.38 17086.7 2914.9 17089.1 2927.42 17091.4 2939.93 17131.2 2952.45 17144.6 2964.97 17158 2977.48 17177.8 2990 17169.4 3002.52 17160.9 3015.03 17097.9 3027.55 17093.8 3040.07 17089.7 3052.58 17145 3065.1 17144.8 3077.62 17144.6 3090.13 17103.3 3102.65 17092.6 3115.17 17081.9 3127.68 17078.8 3140.2 17080.3 3152.72 17081.9 3165.23 17090.3 3177.75 17101.8 3190.27 17113.4 3202.78 17148.7 3215.3 17149.6 3227.82 17150.5 3240.33 17123.1 3252.85 17107.3 3265.37 17091.5 3277.88 17058.9 3290.4 17055.1 3302.92 17051.3 3315.43 17078.6 3327.95 17084.4 3340.47 17090.1 3352.98 17082.6 3365.5 17089.4 3378.02 17096.3 3390.53 17123.8 3403.05 17125.3 3415.57 17126.8 3428.08 17100.5 3440.6 17098.4 3453.12 17096.2 3465.63 17108.4 3478.15 17112.5 3490.67 17116.5 3503.18 17130.9 3515.7 17122.7 3528.22 17114.5 3540.73 17064.2 3553.25 17063.1 3565.77 17062.1 3578.28 17101.9 3590.8 17116.4 3603.32 17130.8 3615.83 17154.5 3628.35 17149.9 3640.87 17145.3 3653.38 17096 3665.9 17088.5 3678.42 17081.1 3690.93 17100.6 3703.45 17105.2 3715.97 17109.8 3728.48 17116.7 3741 17115.9 3753.52 17115 3766.03 17101.4 3778.55 17100.1 3791.07 17098.8 3803.58 17110.8 3816.1 17107.8 3828.62 17104.8 3841.13 17083.6 3853.65 17081.9 3866.17 17080.1 3878.68 17087.3 3891.2 17097.4 3903.72 17107.5 3916.23 17138.3 3928.75 17142.5 3941.27 17146.7 3953.78 17130.7 3966.3 17122.6 3978.82 17114.4 3991.33 17113.5 4003.85 17093.7 4016.37 17073.8 4028.88 16985.5 4041.4 17003.5 4053.92 17021.4 4066.43 17184.5 4078.95 17201.5 4091.47 17218.5 4110.24 17121.5 4116.5 17105.5" stroke="#000000" stroke-width="9.16667" stroke-linecap="round" stroke-linejoin="round" stroke-miterlimit="10" fill="none"/></g><g><text font-family="Inter,Inter_MSFontService,sans-serif" font-weight="400" font-size="32" transform="matrix(1 0 0 1 2542.69 17469)">80</text></g><g><text font-family="Inter,Inter_MSFontService,sans-serif" font-weight="400" font-size="32" transform="matrix(1 0 0 1 2542.46 17305)">90</text></g><g><text font-family="Inter,Inter_MSFontService,sans-serif" font-weight="400" font-size="32" transform="matrix(1 0 0 1 2527.52 17142)">100</text></g><g><text font-family="Inter,Inter_MSFontService,sans-serif" font-weight="400" font-size="32" transform="matrix(1 0 0 1 2532.67 16978)">110</text></g><g><text font-family="Inter,Inter_MSFontService,sans-serif" font-weight="400" font-size="32" transform="matrix(1 0 0 1 2528.16 16814)">120</text></g><g><text font-family="Inter,Inter_MSFontService,sans-serif" font-weight="400" font-size="32" transform="matrix(0.707107 -0.707107 0.707107 0.707107 2590.39 17535)">1/6</text></g><g><text font-family="Inter,Inter_MSFontService,sans-serif" font-weight="400" font-size="32" transform="matrix(0.707107 -0.707107 0.707107 0.707107 2690.45 17547)">1/27</text></g><g><text font-family="Inter,Inter_MSFontService,sans-serif" font-weight="400" font-size="32" transform="matrix(0.707107 -0.707107 0.707107 0.707107 2803.03 17547)">2/17</text></g><g><text font-family="Inter,Inter_MSFontService,sans-serif" font-weight="400" font-size="32" transform="matrix(0.707107 -0.707107 0.707107 0.707107 2924.23 17539)">3/9</text></g><g><text font-family="Inter,Inter_MSFontService,sans-serif" font-weight="400" font-size="32" transform="matrix(0.707107 -0.707107 0.707107 0.707107 3022.35 17553)">3/30</text></g><g><text font-family="Inter,Inter_MSFontService,sans-serif" font-weight="400" font-size="32" transform="matrix(0.707107 -0.707107 0.707107 0.707107 3135.51 17553)">4/20</text></g><g><text font-family="Inter,Inter_MSFontService,sans-serif" font-weight="400" font-size="32" transform="matrix(0.707107 -0.707107 0.707107 0.707107 3255.71 17545)">5/11</text></g><g><text font-family="Inter,Inter_MSFontService,sans-serif" font-weight="400" font-size="32" transform="matrix(0.707107 -0.707107 0.707107 0.707107 3378.47 17535)">6/1</text></g><g><text font-family="Inter,Inter_MSFontService,sans-serif" font-weight="400" font-size="32" transform="matrix(0.707107 -0.707107 0.707107 0.707107 3474.13 17552)">6/22</text></g><g><text font-family="Inter,Inter_MSFontService,sans-serif" font-weight="400" font-size="32" transform="matrix(0.707107 -0.707107 0.707107 0.707107 3590.39 17548)">7/13</text></g><g><text font-family="Inter,Inter_MSFontService,sans-serif" font-weight="400" font-size="32" transform="matrix(0.707107 -0.707107 0.707107 0.707107 3712.47 17538)">8/3</text></g><g><text font-family="Inter,Inter_MSFontService,sans-serif" font-weight="400" font-size="32" transform="matrix(0.707107 -0.707107 0.707107 0.707107 3811.2 17552)">8/24</text></g><g><text font-family="Inter,Inter_MSFontService,sans-serif" font-weight="400" font-size="32" transform="matrix(0.707107 -0.707107 0.707107 0.707107 3926.81 17549)">9/14</text></g><g><text font-family="Inter,Inter_MSFontService,sans-serif" font-weight="400" font-size="32" transform="matrix(0.707107 -0.707107 0.707107 0.707107 4040.14 17549)">10/5</text></g><g><text font-family="Inter,Inter_MSFontService,sans-serif" font-weight="400" font-size="32" transform="matrix(0.707107 -0.707107 0.707107 0.707107 4138.64 17563)">10/26</text></g><g><text font-family="Inter,Inter_MSFontService,sans-serif" font-weight="400" font-size="32" transform="matrix(0.707107 -0.707107 0.707107 0.707107 4258.06 17556)">11/16</text></g><g><text font-family="Inter,Inter_MSFontService,sans-serif" font-weight="400" font-size="32" transform="matrix(0.707107 -0.707107 0.707107 0.707107 4379.18 17547)">12/7</text></g><g><text font-family="Inter Medium,Inter Medium_MSFontService,sans-serif" font-weight="700" font-size="46" transform="matrix(1 0 0 1 2529.01 16646)">U.S. Hotel Occupancy and ADR Recovery Levels</text></g><g><path d="M2521.5 16741.5 2609.5 16741.5" stroke="#FFB226" stroke-width="9.16667" stroke-linecap="round" stroke-linejoin="round" stroke-miterlimit="10" fill="none" fill-rule="evenodd"/></g><g><text font-family="Inter Medium,Inter Medium_MSFontService,sans-serif" font-weight="500" font-size="37" transform="matrix(1 0 0 1 2618.39 16754)">Occ Index</text></g><g><path d="M2846.5 16741.5 2934.5 16741.5" stroke="#000000" stroke-width="9.16667" stroke-linecap="round" stroke-linejoin="round" stroke-miterlimit="10" fill="none" fill-rule="evenodd"/></g><g><text font-family="Inter Medium,Inter Medium_MSFontService,sans-serif" font-weight="500" font-size="37" transform="matrix(1 0 0 1 2943.74 16754)">ADR Index</text></g><rect x="2445.5" y="16556.5" width="2103" height="1056" stroke="#D9D9D9" stroke-width="3.4375" stroke-linejoin="round" stroke-miterlimit="10" fill="none"/><g><text fill="#7F7F7F" font-family="Inter,Inter_MSFontService,sans-serif" font-weight="400" font-size="32" transform="matrix(1 0 0 1 2526.75 16700)">Indexed to 2023, Source: STR, str.com</text></g></g></svg>