<svg width="2106" height="1059" xmlns="http://www.w3.org/2000/svg" xmlns:xlink="http://www.w3.org/1999/xlink" xml:space="preserve" overflow="hidden"><defs><filter id="fx0" x="-10%" y="-10%" width="120%" height="120%" filterUnits="userSpaceOnUse" primitiveUnits="userSpaceOnUse"><feComponentTransfer color-interpolation-filters="sRGB"><feFuncR type="discrete" tableValues="0 0"/><feFuncG type="discrete" tableValues="0 0"/><feFuncB type="discrete" tableValues="0 0"/><feFuncA type="linear" slope="0.501961" intercept="0"/></feComponentTransfer><feGaussianBlur stdDeviation="4.58333 4.58333"/></filter><filter id="fx1" x="-10%" y="-10%" width="120%" height="120%" filterUnits="userSpaceOnUse" primitiveUnits="userSpaceOnUse"><feComponentTransfer color-interpolation-filters="sRGB"><feFuncR type="discrete" tableValues="0 0"/><feFuncG type="discrete" tableValues="0 0"/><feFuncB type="discrete" tableValues="0 0"/><feFuncA type="linear" slope="0.501961" intercept="0"/></feComponentTransfer><feGaussianBlur stdDeviation="4.58333 4.58333"/></filter><clipPath id="clip2"><rect x="2444" y="17126" width="2106" height="1059"/></clipPath><clipPath id="clip3"><rect x="2612" y="17374" width="1885" height="659"/></clipPath><clipPath id="clip4"><rect x="2612" y="17374" width="1885" height="659"/></clipPath></defs><g clip-path="url(#clip2)" transform="translate(-2444 -17126)"><rect x="2445" y="17127" width="2103" height="1056" fill="#FFFFFF"/><g><path d="M2612.5 17702.5 4494.5 17702.5" stroke="#D9D9D9" stroke-width="3.4375" stroke-linejoin="round" stroke-miterlimit="10" fill="none" fill-rule="evenodd"/></g><g clip-path="url(#clip3)"><g filter="url(#fx0)" transform="translate(2601 17608)"><g><path d="M19.9819 114.724C32.4969 125.026 45.0122 137.882 57.5275 145.63 70.0424 153.378 82.5577 168.189 95.073 161.213 107.588 154.236 120.103 113.334 132.619 103.769 145.133 94.2042 157.648 96.7608 170.164 103.822 182.679 110.883 195.194 139.456 207.709 146.136 220.224 152.816 232.74 142.107 245.255 143.902 257.77 145.697 270.285 162.778 282.8 156.908 295.315 151.037 307.83 111.698 320.346 108.677 332.86 105.656 345.376 135.647 357.891 138.78 370.406 141.913 382.921 135.476 395.437 127.477 407.952 119.477 420.467 79.1622 432.982 90.7847 445.497 102.407 458.012 207.982 470.527 197.212 483.042 186.441 495.558 49.0137 508.073 26.1627 520.22 3.98242 533.471 46.4462 545.618 60.106 558.133 74.1785 570.649 100.123 583.164 110.599 595.679 121.075 608.194 121.243 620.709 122.965 633.224 124.687 645.739 128.801 658.255 120.931 670.77 113.06 683.285 78.683 695.8 75.7427 708.315 72.802 720.83 102.773 733.346 103.287 745.861 103.802 758.376 81.0041 770.891 78.8304 783.406 76.6563 795.921 85.394 808.436 90.2447 820.951 95.095 839.724 104.986 845.982 107.934" stroke="#FFB226" stroke-width="9" stroke-linecap="round" stroke-linejoin="round" stroke-miterlimit="10" fill="none"/></g></g></g><g clip-path="url(#clip4)"><g filter="url(#fx1)" transform="translate(2601 17580)"><g><path d="M19.9819 21.6563C32.4969 23.3548 45.0122 12.9824 57.5275 26.7521 70.0424 40.5214 82.5577 100.835 95.073 104.274 107.588 107.712 120.103 48.2321 132.619 47.3831 145.133 46.5337 157.648 103.659 170.164 99.1792 182.679 94.6986 195.194 26.2831 207.709 20.5008 220.224 14.7181 232.74 46.6015 245.255 64.484 257.77 82.366 270.285 124.16 282.8 127.794 295.315 131.427 307.83 83.9497 320.346 86.2828 332.86 88.6155 345.376 128.417 357.891 141.791 370.406 155.164 382.921 174.982 395.437 166.521 407.952 158.061 420.467 95.1152 432.982 91.0251 445.497 86.9351 458.012 142.182 470.527 141.981 483.042 141.78 495.558 100.555 508.073 89.8187 520.588 79.0825 533.103 76.0227 545.618 77.5638 558.133 79.1045 570.649 87.5268 583.164 99.0644 595.679 110.602 608.194 145.88 620.709 146.788 633.224 147.696 645.739 120.251 658.255 104.511 670.77 88.7711 683.285 56.1653 695.8 52.3467 708.315 48.5278 720.83 75.8776 733.346 81.5989 745.861 87.3199 758.376 79.8557 770.891 86.6745 783.406 93.4929 795.921 121.026 808.436 122.511 820.951 123.996 839.724 100.072 845.982 95.5848" stroke="#000000" stroke-width="9" stroke-linecap="round" stroke-linejoin="round" stroke-miterlimit="10" fill="none"/></g></g></g><g><path d="M2614.5 17716.2C2627.01 17726.5 2639.53 17739.4 2652.05 17747.1 2664.56 17754.9 2677.08 17769.7 2689.59 17762.7 2702.11 17755.8 2714.62 17714.9 2727.14 17705.3 2739.65 17695.7 2752.17 17698.3 2764.68 17705.3 2777.2 17712.4 2789.71 17741 2802.23 17747.7 2814.74 17754.3 2827.26 17743.6 2839.77 17745.4 2852.29 17747.2 2864.8 17764.3 2877.32 17758.4 2889.83 17752.6 2902.35 17713.2 2914.86 17710.2 2927.38 17707.2 2939.89 17737.2 2952.41 17740.3 2964.92 17743.4 2977.44 17737 2989.95 17729 3002.47 17721 3014.98 17680.7 3027.5 17692.3 3040.02 17703.9 3052.53 17809.5 3065.05 17798.7 3077.56 17788 3090.08 17650.5 3102.59 17627.7 3114.74 17605.5 3127.99 17648 3140.14 17661.6 3152.65 17675.7 3165.17 17701.6 3177.68 17712.1 3190.2 17722.6 3202.71 17722.8 3215.23 17724.5 3227.74 17726.2 3240.26 17730.3 3252.77 17722.4 3265.29 17714.6 3277.8 17680.2 3290.32 17677.3 3302.83 17674.3 3315.35 17704.3 3327.86 17704.8 3340.38 17705.3 3352.89 17682.5 3365.41 17680.3 3377.92 17678.2 3390.44 17686.9 3402.95 17691.8 3415.47 17696.6 3434.24 17706.5 3440.5 17709.5" stroke="#FFB226" stroke-width="9.16667" stroke-linecap="round" stroke-linejoin="round" stroke-miterlimit="10" fill="none"/></g><g><path d="M2614.5 17595.2C2627.01 17596.9 2639.53 17586.5 2652.05 17600.3 2664.56 17614 2677.08 17674.4 2689.59 17677.8 2702.11 17681.2 2714.62 17621.8 2727.14 17620.9 2739.65 17620.1 2752.17 17677.2 2764.68 17672.7 2777.2 17668.2 2789.71 17599.8 2802.23 17594 2814.74 17588.2 2827.26 17620.1 2839.77 17638 2852.29 17655.9 2864.8 17697.7 2877.32 17701.3 2889.83 17704.9 2902.35 17657.5 2914.86 17659.8 2927.38 17662.1 2939.89 17701.9 2952.41 17715.3 2964.92 17728.7 2977.44 17748.5 2989.95 17740 3002.47 17731.6 3014.98 17668.6 3027.5 17664.5 3040.02 17660.5 3052.53 17715.7 3065.05 17715.5 3077.56 17715.3 3090.08 17674.1 3102.59 17663.3 3115.11 17652.6 3127.62 17649.5 3140.14 17651.1 3152.65 17652.6 3165.17 17661 3177.68 17672.6 3190.2 17684.1 3202.71 17719.4 3215.23 17720.3 3227.74 17721.2 3240.26 17693.8 3252.77 17678 3265.29 17662.3 3277.8 17629.7 3290.32 17625.9 3302.83 17622 3315.35 17649.4 3327.86 17655.1 3340.38 17660.8 3352.89 17653.4 3365.41 17660.2 3377.92 17667 3390.44 17694.5 3402.95 17696 3415.47 17697.5 3434.24 17673.6 3440.5 17669.1" stroke="#000000" stroke-width="9.16667" stroke-linecap="round" stroke-linejoin="round" stroke-miterlimit="10" fill="none"/></g><g><text font-family="Inter,Inter_MSFontService,sans-serif" font-weight="400" font-size="32" transform="matrix(1 0 0 1 2542.69 18040)">80</text></g><g><text font-family="Inter,Inter_MSFontService,sans-serif" font-weight="400" font-size="32" transform="matrix(1 0 0 1 2542.46 17876)">90</text></g><g><text font-family="Inter,Inter_MSFontService,sans-serif" font-weight="400" font-size="32" transform="matrix(1 0 0 1 2527.52 17712)">100</text></g><g><text font-family="Inter,Inter_MSFontService,sans-serif" font-weight="400" font-size="32" transform="matrix(1 0 0 1 2532.67 17548)">110</text></g><g><text font-family="Inter,Inter_MSFontService,sans-serif" font-weight="400" font-size="32" transform="matrix(1 0 0 1 2528.16 17385)">120</text></g><g><text font-family="Inter,Inter_MSFontService,sans-serif" font-weight="400" font-size="32" transform="matrix(0.707107 -0.707107 0.707107 0.707107 2590.39 18105)">1/6</text></g><g><text font-family="Inter,Inter_MSFontService,sans-serif" font-weight="400" font-size="32" transform="matrix(0.707107 -0.707107 0.707107 0.707107 2690.45 18118)">1/27</text></g><g><text font-family="Inter,Inter_MSFontService,sans-serif" font-weight="400" font-size="32" transform="matrix(0.707107 -0.707107 0.707107 0.707107 2803.03 18118)">2/17</text></g><g><text font-family="Inter,Inter_MSFontService,sans-serif" font-weight="400" font-size="32" transform="matrix(0.707107 -0.707107 0.707107 0.707107 2924.23 18109)">3/9</text></g><g><text font-family="Inter,Inter_MSFontService,sans-serif" font-weight="400" font-size="32" transform="matrix(0.707107 -0.707107 0.707107 0.707107 3022.35 18124)">3/30</text></g><g><text font-family="Inter,Inter_MSFontService,sans-serif" font-weight="400" font-size="32" transform="matrix(0.707107 -0.707107 0.707107 0.707107 3135.51 18123)">4/20</text></g><g><text font-family="Inter,Inter_MSFontService,sans-serif" font-weight="400" font-size="32" transform="matrix(0.707107 -0.707107 0.707107 0.707107 3255.71 18116)">5/11</text></g><g><text font-family="Inter,Inter_MSFontService,sans-serif" font-weight="400" font-size="32" transform="matrix(0.707107 -0.707107 0.707107 0.707107 3378.47 18105)">6/1</text></g><g><text font-family="Inter,Inter_MSFontService,sans-serif" font-weight="400" font-size="32" transform="matrix(0.707107 -0.707107 0.707107 0.707107 3474.13 18122)">6/22</text></g><g><text font-family="Inter,Inter_MSFontService,sans-serif" font-weight="400" font-size="32" transform="matrix(0.707107 -0.707107 0.707107 0.707107 3590.39 18119)">7/13</text></g><g><text font-family="Inter,Inter_MSFontService,sans-serif" font-weight="400" font-size="32" transform="matrix(0.707107 -0.707107 0.707107 0.707107 3712.47 18109)">8/3</text></g><g><text font-family="Inter,Inter_MSFontService,sans-serif" font-weight="400" font-size="32" transform="matrix(0.707107 -0.707107 0.707107 0.707107 3811.2 18123)">8/24</text></g><g><text font-family="Inter,Inter_MSFontService,sans-serif" font-weight="400" font-size="32" transform="matrix(0.707107 -0.707107 0.707107 0.707107 3926.81 18120)">9/14</text></g><g><text font-family="Inter,Inter_MSFontService,sans-serif" font-weight="400" font-size="32" transform="matrix(0.707107 -0.707107 0.707107 0.707107 4040.14 18119)">10/5</text></g><g><text font-family="Inter,Inter_MSFontService,sans-serif" font-weight="400" font-size="32" transform="matrix(0.707107 -0.707107 0.707107 0.707107 4138.64 18133)">10/26</text></g><g><text font-family="Inter,Inter_MSFontService,sans-serif" font-weight="400" font-size="32" transform="matrix(0.707107 -0.707107 0.707107 0.707107 4258.06 18126)">11/16</text></g><g><text font-family="Inter,Inter_MSFontService,sans-serif" font-weight="400" font-size="32" transform="matrix(0.707107 -0.707107 0.707107 0.707107 4379.18 18118)">12/7</text></g><g><text font-family="Inter Medium,Inter Medium_MSFontService,sans-serif" font-weight="700" font-size="46" transform="matrix(1 0 0 1 2529.01 17216)">U.S. Hotel Occupancy and ADR Recovery Levels</text></g><g><path d="M2521.5 17312.5 2609.5 17312.5" stroke="#FFB226" stroke-width="9.16667" stroke-linecap="round" stroke-linejoin="round" stroke-miterlimit="10" fill="none" fill-rule="evenodd"/></g><g><text font-family="Inter Medium,Inter Medium_MSFontService,sans-serif" font-weight="500" font-size="37" transform="matrix(1 0 0 1 2618.39 17324)">Occ Index</text></g><g><path d="M2846.5 17312.5 2934.5 17312.5" stroke="#000000" stroke-width="9.16667" stroke-linecap="round" stroke-linejoin="round" stroke-miterlimit="10" fill="none" fill-rule="evenodd"/></g><g><text font-family="Inter Medium,Inter Medium_MSFontService,sans-serif" font-weight="500" font-size="37" transform="matrix(1 0 0 1 2943.74 17324)">ADR Index</text></g><rect x="2445.5" y="17127.5" width="2103" height="1056" stroke="#D9D9D9" stroke-width="3.4375" stroke-linejoin="round" stroke-miterlimit="10" fill="none"/><g><text fill="#7F7F7F" font-family="Inter,Inter_MSFontService,sans-serif" font-weight="400" font-size="32" transform="matrix(1 0 0 1 2526.75 17270)">Indexed to 2023, Source: STR, str.com</text></g></g></svg>