<svg width="2106" height="1059" xmlns="http://www.w3.org/2000/svg" xmlns:xlink="http://www.w3.org/1999/xlink" xml:space="preserve" overflow="hidden"><defs><filter id="fx0" x="-10%" y="-10%" width="120%" height="120%" filterUnits="userSpaceOnUse" primitiveUnits="userSpaceOnUse"><feComponentTransfer color-interpolation-filters="sRGB"><feFuncR type="discrete" tableValues="0 0"/><feFuncG type="discrete" tableValues="0 0"/><feFuncB type="discrete" tableValues="0 0"/><feFuncA type="linear" slope="0.501961" intercept="0"/></feComponentTransfer><feGaussianBlur stdDeviation="4.58333 4.58333"/></filter><filter id="fx1" x="-10%" y="-10%" width="120%" height="120%" filterUnits="userSpaceOnUse" primitiveUnits="userSpaceOnUse"><feComponentTransfer color-interpolation-filters="sRGB"><feFuncR type="discrete" tableValues="0 0"/><feFuncG type="discrete" tableValues="0 0"/><feFuncB type="discrete" tableValues="0 0"/><feFuncA type="linear" slope="0.501961" intercept="0"/></feComponentTransfer><feGaussianBlur stdDeviation="4.58333 4.58333"/></filter><clipPath id="clip2"><rect x="2444" y="17126" width="2106" height="1059"/></clipPath><clipPath id="clip3"><rect x="2612" y="17374" width="1885" height="659"/></clipPath><clipPath id="clip4"><rect x="2612" y="17374" width="1885" height="659"/></clipPath></defs><g clip-path="url(#clip2)" transform="translate(-2444 -17126)"><rect x="2445" y="17127" width="2103" height="1056" fill="#FFFFFF"/><g><path d="M2612.5 17702.5 4494.5 17702.5" stroke="#D9D9D9" stroke-width="3.4375" stroke-linejoin="round" stroke-miterlimit="10" fill="none" fill-rule="evenodd"/></g><g clip-path="url(#clip3)"><g filter="url(#fx0)" transform="translate(2601 17608)"><g><path d="M19.9819 114.724C32.5055 125.026 45.0295 137.882 57.5534 145.63 70.077 153.378 82.601 168.189 95.125 161.213 107.649 154.236 120.173 113.334 132.696 103.769 145.22 94.2042 157.744 96.7608 170.268 103.822 182.791 110.883 195.315 139.456 207.839 146.136 220.363 152.816 232.887 142.107 245.411 143.902 257.934 145.697 270.458 162.778 282.982 156.908 295.506 151.037 308.029 111.698 320.553 108.677 333.077 105.656 345.601 135.647 358.125 138.78 370.648 141.913 383.172 135.476 395.696 127.477 408.22 119.477 420.744 79.1622 433.268 90.7847 445.791 102.407 458.315 207.982 470.839 197.212 483.363 186.441 495.887 49.0137 508.41 26.1627 520.566 3.98242 533.826 46.4462 545.982 60.106 558.506 74.1785 571.03 100.123 583.554 110.599 596.077 121.075 608.601 121.243 621.125 122.965 633.648 124.687 646.172 128.801 658.696 120.931 671.22 113.06 683.744 78.683 696.268 75.7427 708.791 72.802 721.315 102.773 733.839 103.287 746.363 103.802 758.886 81.0041 771.41 78.8304 783.934 76.6563 802.72 88.3423 808.982 90.2447" stroke="#FFB226" stroke-width="9" stroke-linecap="round" stroke-linejoin="round" stroke-miterlimit="10" fill="none"/></g></g></g><g clip-path="url(#clip4)"><g filter="url(#fx1)" transform="translate(2601 17580)"><g><path d="M19.9819 21.6563C32.5055 23.3548 45.0295 12.9824 57.5534 26.7521 70.077 40.5214 82.601 100.835 95.125 104.274 107.649 107.712 120.173 48.2321 132.696 47.3831 145.22 46.5337 157.744 103.659 170.268 99.1792 182.791 94.6986 195.315 26.2831 207.839 20.5008 220.363 14.7181 232.887 46.6015 245.411 64.484 257.934 82.366 270.458 124.16 282.982 127.794 295.506 131.427 308.029 83.9497 320.553 86.2828 333.077 88.6155 345.601 128.417 358.125 141.791 370.648 155.164 383.172 174.982 395.696 166.521 408.22 158.061 420.744 95.1152 433.268 91.0251 445.791 86.9351 458.315 142.182 470.839 141.981 483.363 141.78 495.887 100.555 508.41 89.8187 520.934 79.0825 533.458 76.0227 545.982 77.5638 558.506 79.1045 571.03 87.5268 583.554 99.0644 596.077 110.602 608.601 145.88 621.125 146.788 633.648 147.696 646.172 120.251 658.696 104.511 671.22 88.7711 683.744 56.1653 696.268 52.3467 708.791 48.5278 721.315 75.8776 733.839 81.5989 746.363 87.3199 758.886 79.8557 771.41 86.6745 783.934 93.4929 802.72 116.538 808.982 122.511" stroke="#000000" stroke-width="9" stroke-linecap="round" stroke-linejoin="round" stroke-miterlimit="10" fill="none"/></g></g></g><g><path d="M2614.5 17716.2C2627.02 17726.5 2639.55 17739.4 2652.07 17747.1 2664.6 17754.9 2677.12 17769.7 2689.64 17762.7 2702.17 17755.8 2714.69 17714.9 2727.21 17705.3 2739.74 17695.7 2752.26 17698.3 2764.79 17705.3 2777.31 17712.4 2789.83 17741 2802.36 17747.7 2814.88 17754.3 2827.4 17743.6 2839.93 17745.4 2852.45 17747.2 2864.98 17764.3 2877.5 17758.4 2890.02 17752.6 2902.55 17713.2 2915.07 17710.2 2927.59 17707.2 2940.12 17737.2 2952.64 17740.3 2965.17 17743.4 2977.69 17737 2990.21 17729 3002.74 17721 3015.26 17680.7 3027.79 17692.3 3040.31 17703.9 3052.83 17809.5 3065.36 17798.7 3077.88 17788 3090.4 17650.5 3102.93 17627.7 3115.08 17605.5 3128.34 17648 3140.5 17661.6 3153.02 17675.7 3165.55 17701.6 3178.07 17712.1 3190.6 17722.6 3203.12 17722.8 3215.64 17724.5 3228.17 17726.2 3240.69 17730.3 3253.21 17722.4 3265.74 17714.6 3278.26 17680.2 3290.79 17677.3 3303.31 17674.3 3315.83 17704.3 3328.36 17704.8 3340.88 17705.3 3353.4 17682.5 3365.93 17680.3 3378.45 17678.2 3397.24 17689.9 3403.5 17691.8" stroke="#FFB226" stroke-width="9.16667" stroke-linecap="round" stroke-linejoin="round" stroke-miterlimit="10" fill="none"/></g><g><path d="M2614.5 17595.2C2627.02 17596.9 2639.55 17586.5 2652.07 17600.3 2664.6 17614 2677.12 17674.4 2689.64 17677.8 2702.17 17681.2 2714.69 17621.8 2727.21 17620.9 2739.74 17620.1 2752.26 17677.2 2764.79 17672.7 2777.31 17668.2 2789.83 17599.8 2802.36 17594 2814.88 17588.2 2827.4 17620.1 2839.93 17638 2852.45 17655.9 2864.98 17697.7 2877.5 17701.3 2890.02 17704.9 2902.55 17657.5 2915.07 17659.8 2927.59 17662.1 2940.12 17701.9 2952.64 17715.3 2965.17 17728.7 2977.69 17748.5 2990.21 17740 3002.74 17731.6 3015.26 17668.6 3027.79 17664.5 3040.31 17660.5 3052.83 17715.7 3065.36 17715.5 3077.88 17715.3 3090.4 17674.1 3102.93 17663.3 3115.45 17652.6 3127.98 17649.5 3140.5 17651.1 3153.02 17652.6 3165.55 17661 3178.07 17672.6 3190.6 17684.1 3203.12 17719.4 3215.64 17720.3 3228.17 17721.2 3240.69 17693.8 3253.21 17678 3265.74 17662.3 3278.26 17629.7 3290.79 17625.9 3303.31 17622 3315.83 17649.4 3328.36 17655.1 3340.88 17660.8 3353.4 17653.4 3365.93 17660.2 3378.45 17667 3397.24 17690.1 3403.5 17696" stroke="#000000" stroke-width="9.16667" stroke-linecap="round" stroke-linejoin="round" stroke-miterlimit="10" fill="none"/></g><g><text font-family="Inter,Inter_MSFontService,sans-serif" font-weight="400" font-size="32" transform="matrix(1 0 0 1 2542.69 18040)">80</text></g><g><text font-family="Inter,Inter_MSFontService,sans-serif" font-weight="400" font-size="32" transform="matrix(1 0 0 1 2542.46 17876)">90</text></g><g><text font-family="Inter,Inter_MSFontService,sans-serif" font-weight="400" font-size="32" transform="matrix(1 0 0 1 2527.52 17712)">100</text></g><g><text font-family="Inter,Inter_MSFontService,sans-serif" font-weight="400" font-size="32" transform="matrix(1 0 0 1 2532.67 17548)">110</text></g><g><text font-family="Inter,Inter_MSFontService,sans-serif" font-weight="400" font-size="32" transform="matrix(1 0 0 1 2528.16 17385)">120</text></g><g><text font-family="Inter,Inter_MSFontService,sans-serif" font-weight="400" font-size="32" transform="matrix(0.707107 -0.707107 0.707107 0.707107 2590.39 18105)">1/6</text></g><g><text font-family="Inter,Inter_MSFontService,sans-serif" font-weight="400" font-size="32" transform="matrix(0.707107 -0.707107 0.707107 0.707107 2690.45 18118)">1/27</text></g><g><text font-family="Inter,Inter_MSFontService,sans-serif" font-weight="400" font-size="32" transform="matrix(0.707107 -0.707107 0.707107 0.707107 2803.03 18118)">2/17</text></g><g><text font-family="Inter,Inter_MSFontService,sans-serif" font-weight="400" font-size="32" transform="matrix(0.707107 -0.707107 0.707107 0.707107 2924.23 18109)">3/9</text></g><g><text font-family="Inter,Inter_MSFontService,sans-serif" font-weight="400" font-size="32" transform="matrix(0.707107 -0.707107 0.707107 0.707107 3022.35 18124)">3/30</text></g><g><text font-family="Inter,Inter_MSFontService,sans-serif" font-weight="400" font-size="32" transform="matrix(0.707107 -0.707107 0.707107 0.707107 3135.51 18123)">4/20</text></g><g><text font-family="Inter,Inter_MSFontService,sans-serif" font-weight="400" font-size="32" transform="matrix(0.707107 -0.707107 0.707107 0.707107 3255.71 18116)">5/11</text></g><g><text font-family="Inter,Inter_MSFontService,sans-serif" font-weight="400" font-size="32" transform="matrix(0.707107 -0.707107 0.707107 0.707107 3378.47 18105)">6/1</text></g><g><text font-family="Inter,Inter_MSFontService,sans-serif" font-weight="400" font-size="32" transform="matrix(0.707107 -0.707107 0.707107 0.707107 3474.13 18122)">6/22</text></g><g><text font-family="Inter,Inter_MSFontService,sans-serif" font-weight="400" font-size="32" transform="matrix(0.707107 -0.707107 0.707107 0.707107 3590.39 18119)">7/13</text></g><g><text font-family="Inter,Inter_MSFontService,sans-serif" font-weight="400" font-size="32" transform="matrix(0.707107 -0.707107 0.707107 0.707107 3712.47 18109)">8/3</text></g><g><text font-family="Inter,Inter_MSFontService,sans-serif" font-weight="400" font-size="32" transform="matrix(0.707107 -0.707107 0.707107 0.707107 3811.2 18123)">8/24</text></g><g><text font-family="Inter,Inter_MSFontService,sans-serif" font-weight="400" font-size="32" transform="matrix(0.707107 -0.707107 0.707107 0.707107 3926.81 18120)">9/14</text></g><g><text font-family="Inter,Inter_MSFontService,sans-serif" font-weight="400" font-size="32" transform="matrix(0.707107 -0.707107 0.707107 0.707107 4040.14 18119)">10/5</text></g><g><text font-family="Inter,Inter_MSFontService,sans-serif" font-weight="400" font-size="32" transform="matrix(0.707107 -0.707107 0.707107 0.707107 4138.64 18133)">10/26</text></g><g><text font-family="Inter,Inter_MSFontService,sans-serif" font-weight="400" font-size="32" transform="matrix(0.707107 -0.707107 0.707107 0.707107 4258.06 18126)">11/16</text></g><g><text font-family="Inter,Inter_MSFontService,sans-serif" font-weight="400" font-size="32" transform="matrix(0.707107 -0.707107 0.707107 0.707107 4379.18 18118)">12/7</text></g><g><text font-family="Inter Medium,Inter Medium_MSFontService,sans-serif" font-weight="700" font-size="46" transform="matrix(1 0 0 1 2529.01 17216)">U.S. Hotel Occupancy and ADR Recovery Levels</text></g><g><path d="M2521.5 17312.5 2609.5 17312.5" stroke="#FFB226" stroke-width="9.16667" stroke-linecap="round" stroke-linejoin="round" stroke-miterlimit="10" fill="none" fill-rule="evenodd"/></g><g><text font-family="Inter Medium,Inter Medium_MSFontService,sans-serif" font-weight="500" font-size="37" transform="matrix(1 0 0 1 2618.39 17324)">Occ Index</text></g><g><path d="M2846.5 17312.5 2934.5 17312.5" stroke="#000000" stroke-width="9.16667" stroke-linecap="round" stroke-linejoin="round" stroke-miterlimit="10" fill="none" fill-rule="evenodd"/></g><g><text font-family="Inter Medium,Inter Medium_MSFontService,sans-serif" font-weight="500" font-size="37" transform="matrix(1 0 0 1 2943.74 17324)">ADR Index</text></g><rect x="2445.5" y="17127.5" width="2103" height="1056" stroke="#D9D9D9" stroke-width="3.4375" stroke-linejoin="round" stroke-miterlimit="10" fill="none"/><g><text fill="#7F7F7F" font-family="Inter,Inter_MSFontService,sans-serif" font-weight="400" font-size="32" transform="matrix(1 0 0 1 2526.75 17270)">Indexed to 2023, Source: STR, str.com</text></g></g></svg>