<svg width="2106" height="1059" xmlns="http://www.w3.org/2000/svg" xmlns:xlink="http://www.w3.org/1999/xlink" xml:space="preserve" overflow="hidden"><defs><filter id="fx0" x="-10%" y="-10%" width="120%" height="120%" filterUnits="userSpaceOnUse" primitiveUnits="userSpaceOnUse"><feComponentTransfer color-interpolation-filters="sRGB"><feFuncR type="discrete" tableValues="0 0"/><feFuncG type="discrete" tableValues="0 0"/><feFuncB type="discrete" tableValues="0 0"/><feFuncA type="linear" slope="0.501961" intercept="0"/></feComponentTransfer><feGaussianBlur stdDeviation="4.58333 4.58333"/></filter><filter id="fx1" x="-10%" y="-10%" width="120%" height="120%" filterUnits="userSpaceOnUse" primitiveUnits="userSpaceOnUse"><feComponentTransfer color-interpolation-filters="sRGB"><feFuncR type="discrete" tableValues="0 0"/><feFuncG type="discrete" tableValues="0 0"/><feFuncB type="discrete" tableValues="0 0"/><feFuncA type="linear" slope="0.501961" intercept="0"/></feComponentTransfer><feGaussianBlur stdDeviation="4.58333 4.58333"/></filter><clipPath id="clip2"><rect x="2444" y="16555" width="2106" height="1059"/></clipPath><clipPath id="clip3"><rect x="2612" y="16804" width="1885" height="658"/></clipPath><clipPath id="clip4"><rect x="2612" y="16804" width="1885" height="658"/></clipPath><clipPath id="clip5"><rect x="2612" y="16804" width="1885" height="658"/></clipPath></defs><g clip-path="url(#clip2)" transform="translate(-2444 -16555)"><rect x="2445" y="16556" width="2103" height="1056" fill="#FFFFFF"/><g><path d="M2612.5 17131.5 4494.5 17131.5" stroke="#D9D9D9" stroke-width="3.4375" stroke-linejoin="round" stroke-miterlimit="10" fill="none" fill-rule="evenodd"/></g><g clip-path="url(#clip3)"><g filter="url(#fx0)" transform="translate(2601 16790)"><g><path d="M19.9819 362.124C32.4919 372.46 45.0023 385.357 57.5126 393.13 70.0226 400.904 82.533 415.763 95.0433 408.764 107.553 401.764 120.064 360.73 132.574 351.134 145.084 341.537 157.594 344.102 170.104 351.186 182.614 358.27 195.125 386.936 207.635 393.638 220.145 400.34 232.655 389.596 245.166 391.397 257.676 393.198 270.186 410.334 282.696 404.445 295.206 398.555 307.716 359.088 320.227 356.057 332.737 353.026 345.247 383.115 357.758 386.258 370.268 389.402 382.778 382.943 395.288 374.918 407.798 366.893 420.309 326.446 432.819 338.107 445.329 349.767 457.839 455.686 470.349 444.88 482.859 434.075 495.37 296.199 507.88 273.274 520.023 251.022 533.268 293.624 545.411 307.328 557.921 321.447 570.431 347.475 582.941 357.986 595.451 368.496 607.961 368.664 620.472 370.392 632.982 372.119 645.492 376.247 658.002 368.351 670.512 360.455 683.023 325.965 695.533 323.015 708.043 320.065 720.553 350.134 733.064 350.65 745.574 351.166 758.084 328.294 770.594 326.113 783.104 323.932 795.614 332.699 808.125 337.565 820.635 342.431 833.145 351.605 845.656 355.312 858.166 359.018 870.676 353.712 883.186 359.807 895.696 365.901 908.206 401.636 920.717 391.881 933.227 382.125 945.737 306.337 958.247 301.273 970.757 296.209 983.268 343.035 995.778 361.494 1008.29 379.953 1020.8 416.49 1033.31 412.027 1045.82 407.563 1058.33 344.592 1070.84 334.715 1083.35 324.838 1095.86 352.498 1108.37 352.764 1120.88 353.03 1133.39 338.671 1145.9 336.312 1158.41 333.953 1170.92 336.217 1183.43 338.61 1195.94 341.003 1208.45 353.694 1220.96 350.668 1233.47 347.642 1245.98 326.094 1258.49 320.453 1270.13 315.204 1284.38 301.965 1296.02 316.817 1308.53 332.782 1321.04 406.567 1333.55 416.244 1346.06 425.921 1358.57 387.813 1371.08 374.879 1383.59 361.944 1396.1 350.051 1408.61 338.638 1421.12 327.225 1433.64 295.93 1446.15 306.401 1458.66 316.871 1471.17 401.675 1483.68 401.459 1496.19 401.243 1508.7 318.337 1521.21 305.104 1533.72 291.871 1546.23 327.306 1558.74 322.062 1571.25 316.818 1583.76 274.318 1596.27 273.639 1608.78 272.96 1621.29 296.273 1633.8 317.987 1646.31 339.701 1658.82 402.829 1671.33 403.924 1679.47 404.636 1700.72 367.7 1708.86 324.554 1721.37 258.253 1733.88-19.0176 1746.39 6.11721 1758.9 31.252 1771.41 419.743 1783.92 475.363 1796.43 530.982 1808.94 385.021 1821.45 339.834 1833.96 294.646 1852.73 226.839 1858.98 204.24" stroke="#FFB226" stroke-width="9" stroke-linecap="round" stroke-linejoin="round" stroke-miterlimit="10" fill="none"/></g></g></g><g clip-path="url(#clip4)"><g filter="url(#fx1)" transform="translate(2601 16974)"><g><path d="M19.9819 56.8211C32.4919 58.5212 45.0023 48.1389 57.5126 61.9218 70.0226 75.7047 82.533 136.076 95.0433 139.519 107.553 142.96 120.064 83.4225 132.574 82.5727 145.084 81.7224 157.594 138.903 170.104 134.419 182.614 129.934 195.125 61.4524 207.635 55.6645 220.145 49.8762 232.655 81.7907 245.166 99.6904 257.676 117.59 270.186 159.424 282.696 163.061 295.206 166.697 307.716 119.174 320.227 121.51 332.737 123.845 345.247 163.685 357.758 177.071 370.268 190.457 382.778 210.295 395.288 201.826 407.798 193.357 420.309 130.351 432.819 126.257 445.329 122.163 457.839 177.464 470.349 177.262 482.859 177.061 495.37 135.796 507.88 125.049 520.39 114.303 532.9 111.24 545.411 112.783 557.921 114.325 570.431 122.755 582.941 134.304 595.451 145.852 607.961 181.165 620.472 182.074 632.982 182.983 645.492 155.511 658.002 139.756 670.512 124.001 683.023 91.3637 695.533 87.5414 708.043 83.7188 720.553 111.095 733.064 116.821 745.574 122.548 758.084 115.077 770.594 121.902 783.104 128.728 795.614 156.287 808.125 157.773 820.635 159.26 833.145 132.964 845.656 130.821 858.166 128.678 870.676 140.865 883.186 144.917 895.696 148.969 908.206 163.36 920.717 155.135 933.227 146.909 945.737 96.6103 958.247 95.5617 970.757 94.5127 983.268 134.375 995.778 148.842 1008.29 163.309 1020.8 187.006 1033.31 182.363 1045.82 177.72 1058.33 128.435 1070.84 120.984 1083.35 113.532 1095.86 133.096 1108.37 137.656 1120.88 142.215 1133.39 149.189 1145.9 148.339 1158.41 147.488 1170.92 133.898 1183.43 132.552 1195.94 131.206 1208.45 143.302 1220.96 140.262 1233.47 137.222 1245.98 116.042 1258.49 114.312 1271 112.583 1283.51 119.771 1296.02 129.884 1308.53 139.997 1321.04 170.798 1333.55 174.993 1346.06 179.187 1358.57 163.196 1371.08 155.052 1383.59 146.908 1396.1 145.988 1408.61 126.13 1421.12 106.271 1433.64 17.9284 1446.15 35.9029 1458.66 53.8769 1471.17 216.968 1483.68 233.975 1496.19 250.982 1508.7 157.066 1521.21 137.947 1532.69 120.397 1547.25 127.413 1558.74 119.264 1571.25 110.387 1583.76 80.9315 1596.27 84.6861 1608.78 88.4404 1621.29 128.711 1633.8 141.791 1646.31 154.87 1658.82 156.786 1671.33 163.162 1680.86 168.021 1699.32 198.294 1708.86 180.044 1721.37 156.1 1733.88 14.9824 1746.39 19.4963 1758.9 24.0098 1771.41 194.433 1783.92 207.126 1796.43 219.818 1808.94 126.936 1821.45 95.6495 1833.96 64.3626 1852.73 32.1117 1858.98 19.4045" stroke="#000000" stroke-width="9" stroke-linecap="round" stroke-linejoin="round" stroke-miterlimit="10" fill="none"/></g></g></g><g clip-path="url(#clip5)"><path d="M2614.5 17145.6C2627.01 17156 2639.52 17168.9 2652.03 17176.6 2664.54 17184.4 2677.05 17199.3 2689.56 17192.3 2702.07 17185.3 2714.58 17144.2 2727.09 17134.7 2739.6 17125.1 2752.11 17127.6 2764.62 17134.7 2777.13 17141.8 2789.64 17170.5 2802.15 17177.2 2814.66 17183.9 2827.17 17173.1 2839.68 17174.9 2852.19 17176.7 2864.7 17193.9 2877.21 17188 2889.72 17182.1 2902.23 17142.6 2914.74 17139.6 2927.25 17136.5 2939.77 17166.6 2952.28 17169.8 2964.79 17172.9 2977.3 17166.5 2989.81 17158.4 3002.32 17150.4 3014.83 17110 3027.34 17121.6 3039.85 17133.3 3052.36 17239.2 3064.87 17228.4 3077.38 17217.6 3089.89 17079.7 3102.4 17056.8 3114.54 17034.5 3127.79 17077.1 3139.93 17090.8 3152.44 17105 3164.95 17131 3177.46 17141.5 3189.97 17152 3202.48 17152.2 3214.99 17153.9 3227.5 17155.6 3240.01 17159.8 3252.52 17151.9 3265.03 17144 3277.54 17109.5 3290.05 17106.5 3302.56 17103.6 3315.07 17133.7 3327.58 17134.2 3340.09 17134.7 3352.6 17111.8 3365.11 17109.6 3377.62 17107.4 3390.13 17116.2 3402.64 17121.1 3415.15 17125.9 3427.66 17135.1 3440.17 17138.8 3452.68 17142.5 3465.19 17137.2 3477.7 17143.3 3490.21 17149.4 3502.72 17185.2 3515.23 17175.4 3527.74 17165.6 3540.25 17089.9 3552.77 17084.8 3565.28 17079.7 3577.79 17126.6 3590.3 17145 3602.81 17163.5 3615.32 17200 3627.83 17195.5 3640.34 17191.1 3652.85 17128.1 3665.36 17118.2 3677.87 17108.4 3690.38 17136 3702.89 17136.3 3715.4 17136.5 3727.91 17122.2 3740.42 17119.8 3752.93 17117.5 3765.44 17119.7 3777.95 17122.1 3790.46 17124.5 3802.97 17137.2 3815.48 17134.2 3827.99 17131.2 3840.5 17109.6 3853.01 17104 3864.65 17098.7 3878.9 17085.5 3890.54 17100.3 3903.05 17116.3 3915.56 17190.1 3928.07 17199.8 3940.58 17209.4 3953.09 17171.3 3965.6 17158.4 3978.11 17145.5 3990.62 17133.6 4003.13 17122.2 4015.64 17110.7 4028.15 17079.4 4040.66 17089.9 4053.17 17100.4 4065.68 17185.2 4078.19 17185 4090.7 17184.8 4103.21 17101.9 4115.72 17088.6 4128.23 17075.4 4140.74 17110.8 4153.25 17105.6 4165.77 17100.3 4178.28 17057.8 4190.79 17057.2 4203.3 17056.5 4215.81 17079.8 4228.32 17101.5 4240.83 17123.2 4253.34 17186.3 4265.85 17187.4 4273.99 17188.2 4295.24 17151.2 4303.38 17108.1 4315.89 17041.8 4328.4 16764.5 4340.91 16789.6 4353.42 16814.8 4365.93 17203.3 4378.44 17258.9 4390.95 17314.5 4403.46 17168.5 4415.97 17123.4 4428.48 17078.2 4447.25 17010.4 4453.5 16987.8" stroke="#FFB226" stroke-width="9.16667" stroke-linecap="round" stroke-linejoin="round" stroke-miterlimit="10" fill="none"/></g><g><path d="M2614.5 17024.3C2627.01 17026 2639.52 17015.7 2652.03 17029.4 2664.54 17043.2 2677.05 17103.6 2689.56 17107 2702.07 17110.5 2714.58 17050.9 2727.09 17050.1 2739.6 17049.2 2752.11 17106.4 2764.62 17101.9 2777.13 17097.5 2789.64 17029 2802.15 17023.2 2814.66 17017.4 2827.17 17049.3 2839.68 17067.2 2852.19 17085.1 2864.7 17126.9 2877.21 17130.6 2889.72 17134.2 2902.23 17086.7 2914.74 17089 2927.25 17091.4 2939.77 17131.2 2952.28 17144.6 2964.79 17158 2977.3 17177.8 2989.81 17169.3 3002.32 17160.9 3014.83 17097.9 3027.34 17093.8 3039.85 17089.7 3052.36 17145 3064.87 17144.8 3077.38 17144.6 3089.89 17103.3 3102.4 17092.6 3114.91 17081.8 3127.42 17078.8 3139.93 17080.3 3152.44 17081.8 3164.95 17090.3 3177.46 17101.8 3189.97 17113.4 3202.48 17148.7 3214.99 17149.6 3227.5 17150.5 3240.01 17123 3252.52 17107.3 3265.03 17091.5 3277.54 17058.9 3290.05 17055.1 3302.56 17051.2 3315.07 17078.6 3327.58 17084.3 3340.09 17090.1 3352.6 17082.6 3365.11 17089.4 3377.62 17096.2 3390.13 17123.8 3402.64 17125.3 3415.15 17126.8 3427.66 17100.5 3440.17 17098.3 3452.68 17096.2 3465.19 17108.4 3477.7 17112.4 3490.21 17116.5 3502.72 17130.9 3515.23 17122.7 3527.74 17114.4 3540.25 17064.1 3552.77 17063.1 3565.28 17062 3577.79 17101.9 3590.3 17116.4 3602.81 17130.8 3615.32 17154.5 3627.83 17149.9 3640.34 17145.2 3652.85 17096 3665.36 17088.5 3677.87 17081 3690.38 17100.6 3702.89 17105.2 3715.4 17109.7 3727.91 17116.7 3740.42 17115.9 3752.93 17115 3765.44 17101.4 3777.95 17100.1 3790.46 17098.7 3802.97 17110.8 3815.48 17107.8 3827.99 17104.7 3840.5 17083.6 3853.01 17081.8 3865.52 17080.1 3878.03 17087.3 3890.54 17097.4 3903.05 17107.5 3915.56 17138.3 3928.07 17142.5 3940.58 17146.7 3953.09 17130.7 3965.6 17122.6 3978.11 17114.4 3990.62 17113.5 4003.13 17093.6 4015.64 17073.8 4028.15 16985.4 4040.66 17003.4 4053.17 17021.4 4065.68 17184.5 4078.19 17201.5 4090.7 17218.5 4103.21 17124.6 4115.72 17105.5 4127.21 17087.9 4141.77 17094.9 4153.25 17086.8 4165.77 17077.9 4178.28 17048.4 4190.79 17052.2 4203.3 17056 4215.81 17096.2 4228.32 17109.3 4240.83 17122.4 4253.34 17124.3 4265.85 17130.7 4275.38 17135.5 4293.84 17165.8 4303.38 17147.6 4315.89 17123.6 4328.4 16982.5 4340.91 16987 4353.42 16991.5 4365.93 17162 4378.44 17174.6 4390.95 17187.3 4403.46 17094.5 4415.97 17063.2 4428.48 17031.9 4447.25 16999.6 4453.5 16986.9" stroke="#000000" stroke-width="9.16667" stroke-linecap="round" stroke-linejoin="round" stroke-miterlimit="10" fill="none"/></g><g><text font-family="Inter,Inter_MSFontService,sans-serif" font-weight="400" font-size="32" transform="matrix(1 0 0 1 2542.69 17469)">80</text></g><g><text font-family="Inter,Inter_MSFontService,sans-serif" font-weight="400" font-size="32" transform="matrix(1 0 0 1 2542.46 17305)">90</text></g><g><text font-family="Inter,Inter_MSFontService,sans-serif" font-weight="400" font-size="32" transform="matrix(1 0 0 1 2527.52 17142)">100</text></g><g><text font-family="Inter,Inter_MSFontService,sans-serif" font-weight="400" font-size="32" transform="matrix(1 0 0 1 2532.67 16978)">110</text></g><g><text font-family="Inter,Inter_MSFontService,sans-serif" font-weight="400" font-size="32" transform="matrix(1 0 0 1 2528.16 16814)">120</text></g><g><text font-family="Inter,Inter_MSFontService,sans-serif" font-weight="400" font-size="32" transform="matrix(0.707107 -0.707107 0.707107 0.707107 2590.39 17535)">1/6</text></g><g><text font-family="Inter,Inter_MSFontService,sans-serif" font-weight="400" font-size="32" transform="matrix(0.707107 -0.707107 0.707107 0.707107 2690.45 17547)">1/27</text></g><g><text font-family="Inter,Inter_MSFontService,sans-serif" font-weight="400" font-size="32" transform="matrix(0.707107 -0.707107 0.707107 0.707107 2803.03 17547)">2/17</text></g><g><text font-family="Inter,Inter_MSFontService,sans-serif" font-weight="400" font-size="32" transform="matrix(0.707107 -0.707107 0.707107 0.707107 2924.23 17539)">3/9</text></g><g><text font-family="Inter,Inter_MSFontService,sans-serif" font-weight="400" font-size="32" transform="matrix(0.707107 -0.707107 0.707107 0.707107 3022.35 17553)">3/30</text></g><g><text font-family="Inter,Inter_MSFontService,sans-serif" font-weight="400" font-size="32" transform="matrix(0.707107 -0.707107 0.707107 0.707107 3135.51 17553)">4/20</text></g><g><text font-family="Inter,Inter_MSFontService,sans-serif" font-weight="400" font-size="32" transform="matrix(0.707107 -0.707107 0.707107 0.707107 3255.71 17545)">5/11</text></g><g><text font-family="Inter,Inter_MSFontService,sans-serif" font-weight="400" font-size="32" transform="matrix(0.707107 -0.707107 0.707107 0.707107 3378.47 17535)">6/1</text></g><g><text font-family="Inter,Inter_MSFontService,sans-serif" font-weight="400" font-size="32" transform="matrix(0.707107 -0.707107 0.707107 0.707107 3474.13 17552)">6/22</text></g><g><text font-family="Inter,Inter_MSFontService,sans-serif" font-weight="400" font-size="32" transform="matrix(0.707107 -0.707107 0.707107 0.707107 3590.39 17548)">7/13</text></g><g><text font-family="Inter,Inter_MSFontService,sans-serif" font-weight="400" font-size="32" transform="matrix(0.707107 -0.707107 0.707107 0.707107 3712.47 17538)">8/3</text></g><g><text font-family="Inter,Inter_MSFontService,sans-serif" font-weight="400" font-size="32" transform="matrix(0.707107 -0.707107 0.707107 0.707107 3811.2 17552)">8/24</text></g><g><text font-family="Inter,Inter_MSFontService,sans-serif" font-weight="400" font-size="32" transform="matrix(0.707107 -0.707107 0.707107 0.707107 3926.81 17549)">9/14</text></g><g><text font-family="Inter,Inter_MSFontService,sans-serif" font-weight="400" font-size="32" transform="matrix(0.707107 -0.707107 0.707107 0.707107 4040.14 17549)">10/5</text></g><g><text font-family="Inter,Inter_MSFontService,sans-serif" font-weight="400" font-size="32" transform="matrix(0.707107 -0.707107 0.707107 0.707107 4138.64 17563)">10/26</text></g><g><text font-family="Inter,Inter_MSFontService,sans-serif" font-weight="400" font-size="32" transform="matrix(0.707107 -0.707107 0.707107 0.707107 4258.06 17556)">11/16</text></g><g><text font-family="Inter,Inter_MSFontService,sans-serif" font-weight="400" font-size="32" transform="matrix(0.707107 -0.707107 0.707107 0.707107 4379.18 17547)">12/7</text></g><g><text font-family="Inter Medium,Inter Medium_MSFontService,sans-serif" font-weight="700" font-size="46" transform="matrix(1 0 0 1 2529.01 16646)">U.S. Hotel Occupancy and ADR Recovery Levels</text></g><g><path d="M2521.5 16741.5 2609.5 16741.5" stroke="#FFB226" stroke-width="9.16667" stroke-linecap="round" stroke-linejoin="round" stroke-miterlimit="10" fill="none" fill-rule="evenodd"/></g><g><text font-family="Inter Medium,Inter Medium_MSFontService,sans-serif" font-weight="500" font-size="37" transform="matrix(1 0 0 1 2618.39 16754)">Occ Index</text></g><g><path d="M2846.5 16741.5 2934.5 16741.5" stroke="#000000" stroke-width="9.16667" stroke-linecap="round" stroke-linejoin="round" stroke-miterlimit="10" fill="none" fill-rule="evenodd"/></g><g><text font-family="Inter Medium,Inter Medium_MSFontService,sans-serif" font-weight="500" font-size="37" transform="matrix(1 0 0 1 2943.74 16754)">ADR Index</text></g><rect x="2445.5" y="16556.5" width="2103" height="1056" stroke="#D9D9D9" stroke-width="3.4375" stroke-linejoin="round" stroke-miterlimit="10" fill="none"/><g><text fill="#7F7F7F" font-family="Inter,Inter_MSFontService,sans-serif" font-weight="400" font-size="32" transform="matrix(1 0 0 1 2526.75 16700)">Indexed to 2023, Source: STR, str.com</text></g></g></svg>