<svg width="2106" height="1059" xmlns="http://www.w3.org/2000/svg" xmlns:xlink="http://www.w3.org/1999/xlink" xml:space="preserve" overflow="hidden"><defs><filter id="fx0" x="-10%" y="-10%" width="120%" height="120%" filterUnits="userSpaceOnUse" primitiveUnits="userSpaceOnUse"><feComponentTransfer color-interpolation-filters="sRGB"><feFuncR type="discrete" tableValues="0 0"/><feFuncG type="discrete" tableValues="0 0"/><feFuncB type="discrete" tableValues="0 0"/><feFuncA type="linear" slope="0.501961" intercept="0"/></feComponentTransfer><feGaussianBlur stdDeviation="4.58333 4.58333"/></filter><filter id="fx1" x="-10%" y="-10%" width="120%" height="120%" filterUnits="userSpaceOnUse" primitiveUnits="userSpaceOnUse"><feComponentTransfer color-interpolation-filters="sRGB"><feFuncR type="discrete" tableValues="0 0"/><feFuncG type="discrete" tableValues="0 0"/><feFuncB type="discrete" tableValues="0 0"/><feFuncA type="linear" slope="0.501961" intercept="0"/></feComponentTransfer><feGaussianBlur stdDeviation="4.58333 4.58333"/></filter><clipPath id="clip2"><rect x="2444" y="16555" width="2106" height="1059"/></clipPath><clipPath id="clip3"><rect x="2612" y="16804" width="1885" height="658"/></clipPath><clipPath id="clip4"><rect x="2612" y="16804" width="1885" height="658"/></clipPath></defs><g clip-path="url(#clip2)" transform="translate(-2444 -16555)"><rect x="2445" y="16556" width="2103" height="1056" fill="#FFFFFF"/><g><path d="M2612.5 17131.5 4494.5 17131.5" stroke="#D9D9D9" stroke-width="3.4375" stroke-linejoin="round" stroke-miterlimit="10" fill="none" fill-rule="evenodd"/></g><g clip-path="url(#clip3)"><g filter="url(#fx0)" transform="translate(2601 17037)"><g><path d="M19.9819 114.724C32.5002 125.026 45.0189 137.882 57.5376 145.63 70.0559 153.378 82.5746 168.189 95.0932 161.213 107.612 154.236 120.13 113.334 132.649 103.77 145.167 94.2043 157.686 96.7606 170.204 103.822 182.722 110.883 195.241 139.456 207.76 146.136 220.278 152.816 232.797 142.107 245.315 143.902 257.834 145.697 270.352 162.778 282.871 156.907 295.389 151.037 307.908 111.698 320.426 108.677 332.945 105.656 345.463 135.647 357.982 138.78 370.5 141.913 383.019 135.476 395.538 127.477 408.056 119.477 420.575 79.1623 433.093 90.7849 445.612 102.407 458.13 207.982 470.649 197.212 483.167 186.441 495.686 49.0134 508.204 26.1627 520.355 3.98242 533.609 46.4463 545.76 60.1061 558.278 74.1787 570.797 100.123 583.316 110.599 595.834 121.076 608.352 121.243 620.871 122.965 633.389 124.687 645.908 128.802 658.427 120.931 670.945 113.061 683.464 78.6828 695.982 75.7425 708.5 72.8018 721.019 102.773 733.538 103.288 746.056 103.802 758.575 81.0039 771.093 78.8301 783.611 76.6561 796.13 85.3942 808.649 90.2449 821.167 95.0952 833.686 104.239 846.204 107.934 858.723 111.629 871.241 106.339 883.76 112.414 896.278 118.489 908.797 154.108 921.315 144.385 933.834 134.661 946.352 59.1186 958.871 54.0709 971.389 49.0228 983.908 95.6972 996.427 114.096 1008.95 132.495 1027.72 156.07 1033.98 164.465" stroke="#FFB226" stroke-width="9" stroke-linecap="round" stroke-linejoin="round" stroke-miterlimit="10" fill="none"/></g></g></g><g clip-path="url(#clip4)"><g filter="url(#fx1)" transform="translate(2601 17009)"><g><path d="M19.9819 21.6563C32.5002 23.3548 45.0189 12.9824 57.5376 26.7521 70.0559 40.5217 82.5746 100.835 95.0932 104.274 107.612 107.713 120.13 48.2321 132.649 47.3831 145.167 46.5337 157.686 103.659 170.204 99.1792 182.722 94.6986 195.241 26.2831 207.76 20.5008 220.278 14.7181 232.797 46.6019 245.315 64.4843 257.834 82.3664 270.352 124.16 282.871 127.794 295.389 131.427 307.908 83.9497 320.426 86.2828 332.945 88.6155 345.463 128.418 357.982 141.791 370.5 155.164 383.019 174.982 395.538 166.521 408.056 158.061 420.575 95.1152 433.093 91.0255 445.612 86.9355 458.13 142.183 470.649 141.982 483.167 141.781 495.686 100.555 508.204 89.8191 520.723 79.0828 533.241 76.0231 545.76 77.5641 558.278 79.1048 570.797 87.5268 583.316 99.0644 595.834 110.602 608.352 145.881 620.871 146.789 633.389 147.696 645.908 120.252 658.427 104.512 670.945 88.7715 683.464 56.1656 695.982 52.3471 708.5 48.5282 721.019 75.8776 733.538 81.5989 746.056 87.3199 758.575 79.8561 771.093 86.6748 783.611 93.4936 796.13 121.026 808.649 122.512 821.167 123.996 833.686 97.7255 846.204 95.5848 858.723 93.4441 871.241 105.619 883.76 109.667 896.278 113.716 908.797 128.093 921.315 119.875 933.834 111.657 946.352 61.4072 958.871 60.3596 971.389 59.3117 983.908 99.1359 996.427 113.589 1008.95 128.042 1027.72 141.496 1033.98 147.077" stroke="#000000" stroke-width="9" stroke-linecap="round" stroke-linejoin="round" stroke-miterlimit="10" fill="none"/></g></g></g><g><path d="M2614.5 17145.2C2627.02 17155.5 2639.54 17168.4 2652.06 17176.1 2664.57 17183.9 2677.09 17198.7 2689.61 17191.7 2702.13 17184.8 2714.65 17143.9 2727.17 17134.3 2739.69 17124.7 2752.2 17127.3 2764.72 17134.3 2777.24 17141.4 2789.76 17170 2802.28 17176.7 2814.8 17183.3 2827.31 17172.6 2839.83 17174.4 2852.35 17176.2 2864.87 17193.3 2877.39 17187.4 2889.91 17181.6 2902.43 17142.2 2914.94 17139.2 2927.46 17136.2 2939.98 17166.2 2952.5 17169.3 2965.02 17172.4 2977.54 17166 2990.06 17158 3002.57 17150 3015.09 17109.7 3027.61 17121.3 3040.13 17132.9 3052.65 17238.5 3065.17 17227.7 3077.69 17217 3090.2 17079.5 3102.72 17056.7 3114.87 17034.5 3128.13 17077 3140.28 17090.6 3152.8 17104.7 3165.31 17130.6 3177.83 17141.1 3190.35 17151.6 3202.87 17151.8 3215.39 17153.5 3227.91 17155.2 3240.43 17159.3 3252.94 17151.4 3265.46 17143.6 3277.98 17109.2 3290.5 17106.3 3303.02 17103.3 3315.54 17133.3 3328.06 17133.8 3340.57 17134.3 3353.09 17111.5 3365.61 17109.3 3378.13 17107.2 3390.65 17115.9 3403.17 17120.8 3415.69 17125.6 3428.2 17134.8 3440.72 17138.5 3453.24 17142.1 3465.76 17136.9 3478.28 17142.9 3490.8 17149 3503.31 17184.6 3515.83 17174.9 3528.35 17165.2 3540.87 17089.6 3553.39 17084.6 3565.91 17079.5 3578.43 17126.2 3590.94 17144.6 3603.46 17163 3622.24 17186.6 3628.5 17195" stroke="#FFB226" stroke-width="9.16667" stroke-linecap="round" stroke-linejoin="round" stroke-miterlimit="10" fill="none"/></g><g><path d="M2614.5 17024.2C2627.02 17025.9 2639.54 17015.5 2652.06 17029.3 2664.57 17043 2677.09 17103.4 2689.61 17106.8 2702.13 17110.2 2714.65 17050.8 2727.17 17049.9 2739.69 17049.1 2752.2 17106.2 2764.72 17101.7 2777.24 17097.2 2789.76 17028.8 2802.28 17023 2814.8 17017.2 2827.31 17049.1 2839.83 17067 2852.35 17084.9 2864.87 17126.7 2877.39 17130.3 2889.91 17133.9 2902.43 17086.5 2914.94 17088.8 2927.46 17091.1 2939.98 17130.9 2952.5 17144.3 2965.02 17157.7 2977.54 17177.5 2990.06 17169 3002.57 17160.6 3015.09 17097.6 3027.61 17093.5 3040.13 17089.5 3052.65 17144.7 3065.17 17144.5 3077.69 17144.3 3090.2 17103.1 3102.72 17092.3 3115.24 17081.6 3127.76 17078.5 3140.28 17080.1 3152.8 17081.6 3165.31 17090 3177.83 17101.6 3190.35 17113.1 3202.87 17148.4 3215.39 17149.3 3227.91 17150.2 3240.43 17122.8 3252.94 17107 3265.46 17091.3 3277.98 17058.7 3290.5 17054.9 3303.02 17051 3315.54 17078.4 3328.06 17084.1 3340.57 17089.8 3353.09 17082.4 3365.61 17089.2 3378.13 17096 3390.65 17123.5 3403.17 17125 3415.69 17126.5 3428.2 17100.2 3440.72 17098.1 3453.24 17096 3465.76 17108.1 3478.28 17112.2 3490.8 17116.2 3503.31 17130.6 3515.83 17122.4 3528.35 17114.2 3540.87 17063.9 3553.39 17062.9 3565.91 17061.8 3578.43 17101.7 3590.94 17116.1 3603.46 17130.6 3622.24 17144 3628.5 17149.6" stroke="#000000" stroke-width="9.16667" stroke-linecap="round" stroke-linejoin="round" stroke-miterlimit="10" fill="none"/></g><g><text font-family="Inter,Inter_MSFontService,sans-serif" font-weight="400" font-size="32" transform="matrix(1 0 0 1 2542.69 17469)">80</text></g><g><text font-family="Inter,Inter_MSFontService,sans-serif" font-weight="400" font-size="32" transform="matrix(1 0 0 1 2542.46 17305)">90</text></g><g><text font-family="Inter,Inter_MSFontService,sans-serif" font-weight="400" font-size="32" transform="matrix(1 0 0 1 2527.52 17142)">100</text></g><g><text font-family="Inter,Inter_MSFontService,sans-serif" font-weight="400" font-size="32" transform="matrix(1 0 0 1 2532.67 16978)">110</text></g><g><text font-family="Inter,Inter_MSFontService,sans-serif" font-weight="400" font-size="32" transform="matrix(1 0 0 1 2528.16 16814)">120</text></g><g><text font-family="Inter,Inter_MSFontService,sans-serif" font-weight="400" font-size="32" transform="matrix(0.707107 -0.707107 0.707107 0.707107 2590.39 17535)">1/6</text></g><g><text font-family="Inter,Inter_MSFontService,sans-serif" font-weight="400" font-size="32" transform="matrix(0.707107 -0.707107 0.707107 0.707107 2690.45 17547)">1/27</text></g><g><text font-family="Inter,Inter_MSFontService,sans-serif" font-weight="400" font-size="32" transform="matrix(0.707107 -0.707107 0.707107 0.707107 2803.03 17547)">2/17</text></g><g><text font-family="Inter,Inter_MSFontService,sans-serif" font-weight="400" font-size="32" transform="matrix(0.707107 -0.707107 0.707107 0.707107 2924.23 17539)">3/9</text></g><g><text font-family="Inter,Inter_MSFontService,sans-serif" font-weight="400" font-size="32" transform="matrix(0.707107 -0.707107 0.707107 0.707107 3022.35 17553)">3/30</text></g><g><text font-family="Inter,Inter_MSFontService,sans-serif" font-weight="400" font-size="32" transform="matrix(0.707107 -0.707107 0.707107 0.707107 3135.51 17553)">4/20</text></g><g><text font-family="Inter,Inter_MSFontService,sans-serif" font-weight="400" font-size="32" transform="matrix(0.707107 -0.707107 0.707107 0.707107 3255.71 17545)">5/11</text></g><g><text font-family="Inter,Inter_MSFontService,sans-serif" font-weight="400" font-size="32" transform="matrix(0.707107 -0.707107 0.707107 0.707107 3378.47 17535)">6/1</text></g><g><text font-family="Inter,Inter_MSFontService,sans-serif" font-weight="400" font-size="32" transform="matrix(0.707107 -0.707107 0.707107 0.707107 3474.13 17552)">6/22</text></g><g><text font-family="Inter,Inter_MSFontService,sans-serif" font-weight="400" font-size="32" transform="matrix(0.707107 -0.707107 0.707107 0.707107 3590.39 17548)">7/13</text></g><g><text font-family="Inter,Inter_MSFontService,sans-serif" font-weight="400" font-size="32" transform="matrix(0.707107 -0.707107 0.707107 0.707107 3712.47 17538)">8/3</text></g><g><text font-family="Inter,Inter_MSFontService,sans-serif" font-weight="400" font-size="32" transform="matrix(0.707107 -0.707107 0.707107 0.707107 3811.2 17552)">8/24</text></g><g><text font-family="Inter,Inter_MSFontService,sans-serif" font-weight="400" font-size="32" transform="matrix(0.707107 -0.707107 0.707107 0.707107 3926.81 17549)">9/14</text></g><g><text font-family="Inter,Inter_MSFontService,sans-serif" font-weight="400" font-size="32" transform="matrix(0.707107 -0.707107 0.707107 0.707107 4040.14 17549)">10/5</text></g><g><text font-family="Inter,Inter_MSFontService,sans-serif" font-weight="400" font-size="32" transform="matrix(0.707107 -0.707107 0.707107 0.707107 4138.64 17563)">10/26</text></g><g><text font-family="Inter,Inter_MSFontService,sans-serif" font-weight="400" font-size="32" transform="matrix(0.707107 -0.707107 0.707107 0.707107 4258.06 17556)">11/16</text></g><g><text font-family="Inter,Inter_MSFontService,sans-serif" font-weight="400" font-size="32" transform="matrix(0.707107 -0.707107 0.707107 0.707107 4379.18 17547)">12/7</text></g><g><text font-family="Inter Medium,Inter Medium_MSFontService,sans-serif" font-weight="700" font-size="46" transform="matrix(1 0 0 1 2529.01 16646)">U.S. Hotel Occupancy and ADR Recovery Levels</text></g><g><path d="M2521.5 16741.5 2609.5 16741.5" stroke="#FFB226" stroke-width="9.16667" stroke-linecap="round" stroke-linejoin="round" stroke-miterlimit="10" fill="none" fill-rule="evenodd"/></g><g><text font-family="Inter Medium,Inter Medium_MSFontService,sans-serif" font-weight="500" font-size="37" transform="matrix(1 0 0 1 2618.39 16754)">Occ Index</text></g><g><path d="M2846.5 16741.5 2934.5 16741.5" stroke="#000000" stroke-width="9.16667" stroke-linecap="round" stroke-linejoin="round" stroke-miterlimit="10" fill="none" fill-rule="evenodd"/></g><g><text font-family="Inter Medium,Inter Medium_MSFontService,sans-serif" font-weight="500" font-size="37" transform="matrix(1 0 0 1 2943.74 16754)">ADR Index</text></g><rect x="2445.5" y="16556.5" width="2103" height="1056" stroke="#D9D9D9" stroke-width="3.4375" stroke-linejoin="round" stroke-miterlimit="10" fill="none"/><g><text fill="#7F7F7F" font-family="Inter,Inter_MSFontService,sans-serif" font-weight="400" font-size="32" transform="matrix(1 0 0 1 2526.75 16700)">Indexed to 2023, Source: STR, str.com</text></g></g></svg>