<svg width="2106" height="1059" xmlns="http://www.w3.org/2000/svg" xmlns:xlink="http://www.w3.org/1999/xlink" xml:space="preserve" overflow="hidden"><defs><filter id="fx0" x="-10%" y="-10%" width="120%" height="120%" filterUnits="userSpaceOnUse" primitiveUnits="userSpaceOnUse"><feComponentTransfer color-interpolation-filters="sRGB"><feFuncR type="discrete" tableValues="0 0"/><feFuncG type="discrete" tableValues="0 0"/><feFuncB type="discrete" tableValues="0 0"/><feFuncA type="linear" slope="0.501961" intercept="0"/></feComponentTransfer><feGaussianBlur stdDeviation="4.58333 4.58333"/></filter><filter id="fx1" x="-10%" y="-10%" width="120%" height="120%" filterUnits="userSpaceOnUse" primitiveUnits="userSpaceOnUse"><feComponentTransfer color-interpolation-filters="sRGB"><feFuncR type="discrete" tableValues="0 0"/><feFuncG type="discrete" tableValues="0 0"/><feFuncB type="discrete" tableValues="0 0"/><feFuncA type="linear" slope="0.501961" intercept="0"/></feComponentTransfer><feGaussianBlur stdDeviation="4.58333 4.58333"/></filter><clipPath id="clip2"><rect x="2444" y="16555" width="2106" height="1059"/></clipPath><clipPath id="clip3"><rect x="2612" y="16804" width="1885" height="658"/></clipPath><clipPath id="clip4"><rect x="2612" y="16804" width="1885" height="658"/></clipPath></defs><g clip-path="url(#clip2)" transform="translate(-2444 -16555)"><rect x="2445" y="16556" width="2103" height="1056" fill="#FFFFFF"/><g><path d="M2612.5 17131.5 4494.5 17131.5" stroke="#D9D9D9" stroke-width="3.4375" stroke-linejoin="round" stroke-miterlimit="10" fill="none" fill-rule="evenodd"/></g><g clip-path="url(#clip3)"><g filter="url(#fx0)" transform="translate(2601 17037)"><g><path d="M19.9819 114.724C32.4993 125.026 45.017 137.882 57.5346 145.63 70.052 153.378 82.5697 168.189 95.0874 161.213 107.605 154.236 120.122 113.334 132.64 103.77 145.157 94.2043 157.675 96.7606 170.192 103.822 182.71 110.883 195.227 139.456 207.745 146.136 220.262 152.816 232.78 142.107 245.298 143.902 257.815 145.697 270.333 162.778 282.851 156.907 295.368 151.037 307.885 111.698 320.403 108.677 332.92 105.656 345.438 135.647 357.956 138.78 370.473 141.913 382.991 135.476 395.508 127.477 408.026 119.477 420.543 79.1623 433.061 90.7849 445.578 102.407 458.096 207.982 470.613 197.212 483.131 186.441 495.648 49.0134 508.166 26.1627 520.316 3.98242 533.569 46.4463 545.719 60.1061 558.236 74.1787 570.754 100.123 583.272 110.599 595.789 121.076 608.306 121.243 620.824 122.965 633.341 124.687 645.859 128.802 658.377 120.931 670.894 113.061 683.412 78.6828 695.929 75.7425 708.447 72.8018 720.964 102.773 733.482 103.288 745.999 103.802 758.517 81.0039 771.034 78.8301 783.552 76.6561 796.069 85.3942 808.587 90.2449 821.104 95.0952 833.622 104.239 846.14 107.934 858.657 111.629 871.175 106.339 883.693 112.414 896.21 118.489 908.727 154.108 921.245 144.385 933.762 134.661 946.28 59.1186 958.798 54.0709 971.315 49.0228 983.833 95.6972 996.35 114.096 1008.87 132.495 1021.39 168.914 1033.9 164.465 1046.42 160.016 1058.94 97.2487 1071.46 87.404 1083.97 77.5588 1096.49 105.129 1109.01 105.395 1121.53 105.66 1134.04 91.3476 1146.56 88.9963 1159.08 86.6446 1171.6 88.9015 1184.11 91.2867 1196.63 93.6715 1209.15 106.322 1221.67 103.306 1234.18 100.289 1246.7 78.8114 1259.22 73.188 1270.86 67.9561 1285.13 54.76 1296.77 69.5643 1309.29 85.4777 1321.81 159.023 1334.32 168.669 1346.84 178.314 1359.36 140.329 1371.88 127.437 1384.39 114.545 1396.91 102.69 1409.43 91.3144 1421.95 79.9383 1440.72 64.5371 1446.98 59.1817" stroke="#FFB226" stroke-width="9" stroke-linecap="round" stroke-linejoin="round" stroke-miterlimit="10" fill="none"/></g></g></g><g clip-path="url(#clip4)"><g filter="url(#fx1)" transform="translate(2601 16990)"><g><path d="M19.9819 40.8537C32.4993 42.55 45.017 32.1909 57.5346 45.9429 70.052 59.6948 82.5697 119.931 95.0874 123.365 107.605 126.799 120.122 67.3953 132.64 66.5473 145.157 65.699 157.675 122.751 170.192 118.277 182.71 113.802 195.227 45.4745 207.745 39.6996 220.262 33.9244 232.78 65.7672 245.298 83.6266 257.815 101.486 270.333 143.226 282.851 146.854 295.368 150.483 307.885 103.067 320.403 105.397 332.92 107.727 345.438 147.478 357.956 160.834 370.473 174.189 382.991 193.982 395.508 185.532 408.026 177.082 420.543 114.218 433.061 110.134 445.578 106.049 458.096 161.225 470.613 161.024 483.131 160.823 495.648 119.651 508.166 108.929 520.683 98.2063 533.201 95.1504 545.719 96.6895 558.236 98.2283 570.754 106.639 583.272 118.162 595.789 129.685 608.306 164.918 620.824 165.825 633.341 166.732 645.859 139.322 658.377 123.602 670.894 107.882 683.412 75.3186 695.929 71.5049 708.447 67.6909 720.964 95.0051 733.482 100.719 745.999 106.433 758.517 98.9785 771.034 105.789 783.552 112.598 796.069 140.096 808.587 141.579 821.104 143.062 833.622 116.825 846.14 114.687 858.657 112.549 871.175 124.708 883.693 128.752 896.21 132.794 908.727 147.154 921.245 138.946 933.762 130.739 946.28 80.5534 958.798 79.5072 971.315 78.4606 983.833 118.234 996.35 132.668 1008.87 147.102 1021.39 170.746 1033.9 166.113 1046.42 161.481 1058.94 112.306 1071.46 104.872 1083.97 97.4373 1096.49 116.957 1109.01 121.506 1121.53 126.055 1134.04 133.014 1146.56 132.165 1159.08 131.317 1171.6 117.758 1184.11 116.415 1196.63 115.071 1209.15 127.14 1221.67 124.107 1234.18 121.074 1246.7 99.9411 1259.22 98.2156 1271.74 96.4898 1284.25 103.662 1296.77 113.753 1309.29 123.843 1321.81 154.574 1334.32 158.76 1346.84 162.945 1359.36 146.99 1371.88 138.864 1384.39 130.738 1396.91 129.82 1409.43 110.006 1421.95 90.1925 1440.72 34.9861 1446.98 19.9824" stroke="#000000" stroke-width="9" stroke-linecap="round" stroke-linejoin="round" stroke-miterlimit="10" fill="none"/></g></g></g><g><path d="M2614.5 17145.2C2627.02 17155.5 2639.53 17168.4 2652.05 17176.1 2664.57 17183.9 2677.09 17198.7 2689.61 17191.7 2702.12 17184.8 2714.64 17143.9 2727.16 17134.3 2739.68 17124.7 2752.19 17127.3 2764.71 17134.3 2777.23 17141.4 2789.75 17170 2802.26 17176.7 2814.78 17183.3 2827.3 17172.6 2839.82 17174.4 2852.33 17176.2 2864.85 17193.3 2877.37 17187.4 2889.89 17181.6 2902.4 17142.2 2914.92 17139.2 2927.44 17136.2 2939.96 17166.2 2952.47 17169.3 2964.99 17172.4 2977.51 17166 2990.03 17158 3002.54 17150 3015.06 17109.7 3027.58 17121.3 3040.1 17132.9 3052.61 17238.5 3065.13 17227.7 3077.65 17217 3090.17 17079.5 3102.68 17056.7 3114.83 17034.5 3128.09 17077 3140.24 17090.6 3152.75 17104.7 3165.27 17130.6 3177.79 17141.1 3190.31 17151.6 3202.82 17151.8 3215.34 17153.5 3227.86 17155.2 3240.38 17159.3 3252.89 17151.4 3265.41 17143.6 3277.93 17109.2 3290.45 17106.3 3302.96 17103.3 3315.48 17133.3 3328 17133.8 3340.52 17134.3 3353.03 17111.5 3365.55 17109.3 3378.07 17107.2 3390.59 17115.9 3403.11 17120.8 3415.62 17125.6 3428.14 17134.8 3440.66 17138.5 3453.18 17142.1 3465.69 17136.9 3478.21 17142.9 3490.73 17149 3503.25 17184.6 3515.76 17174.9 3528.28 17165.2 3540.8 17089.6 3553.32 17084.6 3565.83 17079.5 3578.35 17126.2 3590.87 17144.6 3603.39 17163 3615.9 17199.4 3628.42 17195 3640.94 17190.5 3653.46 17127.8 3665.97 17117.9 3678.49 17108.1 3691.01 17135.6 3703.53 17135.9 3716.04 17136.2 3728.56 17121.9 3741.08 17119.5 3753.6 17117.2 3766.11 17119.4 3778.63 17121.8 3791.15 17124.2 3803.67 17136.8 3816.18 17133.8 3828.7 17130.8 3841.22 17109.3 3853.74 17103.7 3865.38 17098.5 3879.64 17085.3 3891.29 17100.1 3903.81 17116 3916.32 17189.5 3928.84 17199.2 3941.36 17208.8 3953.88 17170.8 3966.39 17158 3978.91 17145.1 3991.43 17133.2 4003.95 17121.8 4016.46 17110.5 4035.24 17095.1 4041.5 17089.7" stroke="#FFB226" stroke-width="9.16667" stroke-linecap="round" stroke-linejoin="round" stroke-miterlimit="10" fill="none"/></g><g><path d="M2614.5 17024.4C2627.02 17026.1 2639.53 17015.7 2652.05 17029.5 2664.57 17043.2 2677.09 17103.4 2689.61 17106.9 2702.12 17110.3 2714.64 17050.9 2727.16 17050.1 2739.68 17049.2 2752.19 17106.3 2764.71 17101.8 2777.23 17097.3 2789.75 17029 2802.26 17023.2 2814.78 17017.4 2827.3 17049.3 2839.82 17067.1 2852.33 17085 2864.85 17126.7 2877.37 17130.4 2889.89 17134 2902.4 17086.6 2914.92 17088.9 2927.44 17091.2 2939.96 17131 2952.47 17144.4 2964.99 17157.7 2977.51 17177.5 2990.03 17169.1 3002.54 17160.6 3015.06 17097.7 3027.58 17093.7 3040.1 17089.6 3052.61 17144.7 3065.13 17144.5 3077.65 17144.3 3090.17 17103.2 3102.68 17092.4 3115.2 17081.7 3127.72 17078.7 3140.24 17080.2 3152.75 17081.7 3165.27 17090.2 3177.79 17101.7 3190.31 17113.2 3202.82 17148.4 3215.34 17149.3 3227.86 17150.2 3240.38 17122.8 3252.89 17107.1 3265.41 17091.4 3277.93 17058.8 3290.45 17055 3302.96 17051.2 3315.48 17078.5 3328 17084.2 3340.52 17090 3353.03 17082.5 3365.55 17089.3 3378.07 17096.1 3390.59 17123.6 3403.11 17125.1 3415.62 17126.6 3428.14 17100.3 3440.66 17098.2 3453.18 17096.1 3465.69 17108.2 3478.21 17112.3 3490.73 17116.3 3503.25 17130.7 3515.76 17122.5 3528.28 17114.3 3540.8 17064.1 3553.32 17063 3565.83 17062 3578.35 17101.8 3590.87 17116.2 3603.39 17130.6 3615.9 17154.3 3628.42 17149.6 3640.94 17145 3653.46 17095.8 3665.97 17088.4 3678.49 17081 3691.01 17100.5 3703.53 17105 3716.04 17109.6 3728.56 17116.5 3741.08 17115.7 3753.6 17114.8 3766.11 17101.3 3778.63 17099.9 3791.15 17098.6 3803.67 17110.7 3816.18 17107.6 3828.7 17104.6 3841.22 17083.5 3853.74 17081.7 3866.25 17080 3878.77 17087.2 3891.29 17097.3 3903.81 17107.4 3916.32 17138.1 3928.84 17142.3 3941.36 17146.5 3953.88 17130.5 3966.39 17122.4 3978.91 17114.3 3991.43 17113.3 4003.95 17093.5 4016.46 17073.7 4035.24 17018.5 4041.5 17003.5" stroke="#000000" stroke-width="9.16667" stroke-linecap="round" stroke-linejoin="round" stroke-miterlimit="10" fill="none"/></g><g><text font-family="Inter,Inter_MSFontService,sans-serif" font-weight="400" font-size="32" transform="matrix(1 0 0 1 2542.69 17469)">80</text></g><g><text font-family="Inter,Inter_MSFontService,sans-serif" font-weight="400" font-size="32" transform="matrix(1 0 0 1 2542.46 17305)">90</text></g><g><text font-family="Inter,Inter_MSFontService,sans-serif" font-weight="400" font-size="32" transform="matrix(1 0 0 1 2527.52 17142)">100</text></g><g><text font-family="Inter,Inter_MSFontService,sans-serif" font-weight="400" font-size="32" transform="matrix(1 0 0 1 2532.67 16978)">110</text></g><g><text font-family="Inter,Inter_MSFontService,sans-serif" font-weight="400" font-size="32" transform="matrix(1 0 0 1 2528.16 16814)">120</text></g><g><text font-family="Inter,Inter_MSFontService,sans-serif" font-weight="400" font-size="32" transform="matrix(0.707107 -0.707107 0.707107 0.707107 2590.39 17535)">1/6</text></g><g><text font-family="Inter,Inter_MSFontService,sans-serif" font-weight="400" font-size="32" transform="matrix(0.707107 -0.707107 0.707107 0.707107 2690.45 17547)">1/27</text></g><g><text font-family="Inter,Inter_MSFontService,sans-serif" font-weight="400" font-size="32" transform="matrix(0.707107 -0.707107 0.707107 0.707107 2803.03 17547)">2/17</text></g><g><text font-family="Inter,Inter_MSFontService,sans-serif" font-weight="400" font-size="32" transform="matrix(0.707107 -0.707107 0.707107 0.707107 2924.23 17539)">3/9</text></g><g><text font-family="Inter,Inter_MSFontService,sans-serif" font-weight="400" font-size="32" transform="matrix(0.707107 -0.707107 0.707107 0.707107 3022.35 17553)">3/30</text></g><g><text font-family="Inter,Inter_MSFontService,sans-serif" font-weight="400" font-size="32" transform="matrix(0.707107 -0.707107 0.707107 0.707107 3135.51 17553)">4/20</text></g><g><text font-family="Inter,Inter_MSFontService,sans-serif" font-weight="400" font-size="32" transform="matrix(0.707107 -0.707107 0.707107 0.707107 3255.71 17545)">5/11</text></g><g><text font-family="Inter,Inter_MSFontService,sans-serif" font-weight="400" font-size="32" transform="matrix(0.707107 -0.707107 0.707107 0.707107 3378.47 17535)">6/1</text></g><g><text font-family="Inter,Inter_MSFontService,sans-serif" font-weight="400" font-size="32" transform="matrix(0.707107 -0.707107 0.707107 0.707107 3474.13 17552)">6/22</text></g><g><text font-family="Inter,Inter_MSFontService,sans-serif" font-weight="400" font-size="32" transform="matrix(0.707107 -0.707107 0.707107 0.707107 3590.39 17548)">7/13</text></g><g><text font-family="Inter,Inter_MSFontService,sans-serif" font-weight="400" font-size="32" transform="matrix(0.707107 -0.707107 0.707107 0.707107 3712.47 17538)">8/3</text></g><g><text font-family="Inter,Inter_MSFontService,sans-serif" font-weight="400" font-size="32" transform="matrix(0.707107 -0.707107 0.707107 0.707107 3811.2 17552)">8/24</text></g><g><text font-family="Inter,Inter_MSFontService,sans-serif" font-weight="400" font-size="32" transform="matrix(0.707107 -0.707107 0.707107 0.707107 3926.81 17549)">9/14</text></g><g><text font-family="Inter,Inter_MSFontService,sans-serif" font-weight="400" font-size="32" transform="matrix(0.707107 -0.707107 0.707107 0.707107 4040.14 17549)">10/5</text></g><g><text font-family="Inter,Inter_MSFontService,sans-serif" font-weight="400" font-size="32" transform="matrix(0.707107 -0.707107 0.707107 0.707107 4138.64 17563)">10/26</text></g><g><text font-family="Inter,Inter_MSFontService,sans-serif" font-weight="400" font-size="32" transform="matrix(0.707107 -0.707107 0.707107 0.707107 4258.06 17556)">11/16</text></g><g><text font-family="Inter,Inter_MSFontService,sans-serif" font-weight="400" font-size="32" transform="matrix(0.707107 -0.707107 0.707107 0.707107 4379.18 17547)">12/7</text></g><g><text font-family="Inter Medium,Inter Medium_MSFontService,sans-serif" font-weight="700" font-size="46" transform="matrix(1 0 0 1 2529.01 16646)">U.S. Hotel Occupancy and ADR Recovery Levels</text></g><g><path d="M2521.5 16741.5 2609.5 16741.5" stroke="#FFB226" stroke-width="9.16667" stroke-linecap="round" stroke-linejoin="round" stroke-miterlimit="10" fill="none" fill-rule="evenodd"/></g><g><text font-family="Inter Medium,Inter Medium_MSFontService,sans-serif" font-weight="500" font-size="37" transform="matrix(1 0 0 1 2618.39 16754)">Occ Index</text></g><g><path d="M2846.5 16741.5 2934.5 16741.5" stroke="#000000" stroke-width="9.16667" stroke-linecap="round" stroke-linejoin="round" stroke-miterlimit="10" fill="none" fill-rule="evenodd"/></g><g><text font-family="Inter Medium,Inter Medium_MSFontService,sans-serif" font-weight="500" font-size="37" transform="matrix(1 0 0 1 2943.74 16754)">ADR Index</text></g><rect x="2445.5" y="16556.5" width="2103" height="1056" stroke="#D9D9D9" stroke-width="3.4375" stroke-linejoin="round" stroke-miterlimit="10" fill="none"/><g><text fill="#7F7F7F" font-family="Inter,Inter_MSFontService,sans-serif" font-weight="400" font-size="32" transform="matrix(1 0 0 1 2526.75 16700)">Indexed to 2023, Source: STR, str.com</text></g></g></svg>