<svg width="2106" height="1059" xmlns="http://www.w3.org/2000/svg" xmlns:xlink="http://www.w3.org/1999/xlink" xml:space="preserve" overflow="hidden"><defs><filter id="fx0" x="-10%" y="-10%" width="120%" height="120%" filterUnits="userSpaceOnUse" primitiveUnits="userSpaceOnUse"><feComponentTransfer color-interpolation-filters="sRGB"><feFuncR type="discrete" tableValues="0 0"/><feFuncG type="discrete" tableValues="0 0"/><feFuncB type="discrete" tableValues="0 0"/><feFuncA type="linear" slope="0.501961" intercept="0"/></feComponentTransfer><feGaussianBlur stdDeviation="4.58333 4.58333"/></filter><filter id="fx1" x="-10%" y="-10%" width="120%" height="120%" filterUnits="userSpaceOnUse" primitiveUnits="userSpaceOnUse"><feComponentTransfer color-interpolation-filters="sRGB"><feFuncR type="discrete" tableValues="0 0"/><feFuncG type="discrete" tableValues="0 0"/><feFuncB type="discrete" tableValues="0 0"/><feFuncA type="linear" slope="0.501961" intercept="0"/></feComponentTransfer><feGaussianBlur stdDeviation="4.58333 4.58333"/></filter><clipPath id="clip2"><rect x="2444" y="17126" width="2106" height="1059"/></clipPath><clipPath id="clip3"><rect x="2612" y="17374" width="1885" height="659"/></clipPath><clipPath id="clip4"><rect x="2612" y="17374" width="1885" height="659"/></clipPath></defs><g clip-path="url(#clip2)" transform="translate(-2444 -17126)"><rect x="2445" y="17127" width="2103" height="1056" fill="#FFFFFF"/><g><path d="M2612.5 17702.5 4494.5 17702.5" stroke="#D9D9D9" stroke-width="3.4375" stroke-linejoin="round" stroke-miterlimit="10" fill="none" fill-rule="evenodd"/></g><g clip-path="url(#clip3)"><g filter="url(#fx0)" transform="translate(2601 17608)"><g><path d="M19.9819 114.724C32.5035 125.026 45.0253 137.882 57.5472 145.63 70.0687 153.378 82.5906 168.189 95.1125 161.213 107.634 154.236 120.156 113.334 132.678 103.769 145.199 94.2042 157.721 96.7608 170.243 103.822 182.764 110.883 195.286 139.456 207.808 146.136 220.33 152.816 232.851 142.107 245.373 143.902 257.895 145.697 270.417 162.778 282.939 156.908 295.46 151.037 307.982 111.698 320.504 108.677 333.025 105.656 345.547 135.647 358.069 138.78 370.59 141.913 383.112 135.476 395.634 127.477 408.156 119.477 420.677 79.1622 433.199 90.7847 445.721 102.407 458.242 207.982 470.764 197.212 483.286 186.441 495.808 49.0137 508.33 26.1627 520.483 3.98242 533.741 46.4462 545.895 60.106 558.416 74.1785 570.938 100.123 583.46 110.599 595.982 121.075 608.503 121.243 621.025 122.965 633.547 124.687 646.069 128.801 658.59 120.931 671.112 113.06 683.634 78.683 696.156 75.7427 708.677 72.802 721.199 102.773 733.721 103.287 746.242 103.802 758.764 81.0041 771.286 78.8304 783.807 76.6563 796.329 85.394 808.851 90.2447 821.373 95.095 833.895 104.239 846.417 107.934 858.938 111.629 877.721 111.667 883.982 112.414" stroke="#FFB226" stroke-width="9" stroke-linecap="round" stroke-linejoin="round" stroke-miterlimit="10" fill="none"/></g></g></g><g clip-path="url(#clip4)"><g filter="url(#fx1)" transform="translate(2601 17580)"><g><path d="M19.9819 21.6563C32.5035 23.3548 45.0253 12.9824 57.5472 26.7521 70.0687 40.5214 82.5906 100.835 95.1125 104.274 107.634 107.712 120.156 48.2321 132.678 47.3831 145.199 46.5337 157.721 103.659 170.243 99.1792 182.764 94.6986 195.286 26.2831 207.808 20.5008 220.33 14.7181 232.851 46.6015 245.373 64.484 257.895 82.366 270.417 124.16 282.939 127.794 295.46 131.427 307.982 83.9497 320.504 86.2828 333.025 88.6155 345.547 128.417 358.069 141.791 370.59 155.164 383.112 174.982 395.634 166.521 408.156 158.061 420.677 95.1152 433.199 91.0251 445.721 86.9351 458.242 142.182 470.764 141.981 483.286 141.78 495.808 100.555 508.33 89.8187 520.851 79.0825 533.373 76.0227 545.895 77.5638 558.416 79.1045 570.938 87.5268 583.46 99.0644 595.982 110.602 608.503 145.88 621.025 146.788 633.547 147.696 646.069 120.251 658.59 104.511 671.112 88.7711 683.634 56.1653 696.156 52.3467 708.677 48.5278 721.199 75.8776 733.721 81.5989 746.242 87.3199 758.764 79.8557 771.286 86.6745 783.807 93.4929 796.329 121.026 808.851 122.511 821.373 123.996 833.895 97.7251 846.417 95.5848 858.938 93.4441 877.721 107.32 883.982 109.667" stroke="#000000" stroke-width="9" stroke-linecap="round" stroke-linejoin="round" stroke-miterlimit="10" fill="none"/></g></g></g><g><path d="M2614.5 17716.2C2627.02 17726.5 2639.54 17739.4 2652.07 17747.1 2664.59 17754.9 2677.11 17769.7 2689.63 17762.7 2702.15 17755.8 2714.67 17714.9 2727.2 17705.3 2739.72 17695.7 2752.24 17698.3 2764.76 17705.3 2777.28 17712.4 2789.8 17741 2802.33 17747.7 2814.85 17754.3 2827.37 17743.6 2839.89 17745.4 2852.41 17747.2 2864.93 17764.3 2877.46 17758.4 2889.98 17752.6 2902.5 17713.2 2915.02 17710.2 2927.54 17707.2 2940.06 17737.2 2952.59 17740.3 2965.11 17743.4 2977.63 17737 2990.15 17729 3002.67 17721 3015.2 17680.7 3027.72 17692.3 3040.24 17703.9 3052.76 17809.5 3065.28 17798.7 3077.8 17788 3090.33 17650.5 3102.85 17627.7 3115 17605.5 3128.26 17648 3140.41 17661.6 3152.93 17675.7 3165.46 17701.6 3177.98 17712.1 3190.5 17722.6 3203.02 17722.8 3215.54 17724.5 3228.06 17726.2 3240.59 17730.3 3253.11 17722.4 3265.63 17714.6 3278.15 17680.2 3290.67 17677.3 3303.2 17674.3 3315.72 17704.3 3328.24 17704.8 3340.76 17705.3 3353.28 17682.5 3365.8 17680.3 3378.33 17678.2 3390.85 17686.9 3403.37 17691.8 3415.89 17696.6 3428.41 17705.8 3440.93 17709.5 3453.46 17713.1 3472.24 17713.2 3478.5 17713.9" stroke="#FFB226" stroke-width="9.16667" stroke-linecap="round" stroke-linejoin="round" stroke-miterlimit="10" fill="none"/></g><g><path d="M2614.5 17595.2C2627.02 17596.9 2639.54 17586.5 2652.07 17600.3 2664.59 17614 2677.11 17674.4 2689.63 17677.8 2702.15 17681.2 2714.67 17621.8 2727.2 17620.9 2739.72 17620.1 2752.24 17677.2 2764.76 17672.7 2777.28 17668.2 2789.8 17599.8 2802.33 17594 2814.85 17588.2 2827.37 17620.1 2839.89 17638 2852.41 17655.9 2864.93 17697.7 2877.46 17701.3 2889.98 17704.9 2902.5 17657.5 2915.02 17659.8 2927.54 17662.1 2940.06 17701.9 2952.59 17715.3 2965.11 17728.7 2977.63 17748.5 2990.15 17740 3002.67 17731.6 3015.2 17668.6 3027.72 17664.5 3040.24 17660.5 3052.76 17715.7 3065.28 17715.5 3077.8 17715.3 3090.33 17674.1 3102.85 17663.3 3115.37 17652.6 3127.89 17649.5 3140.41 17651.1 3152.93 17652.6 3165.46 17661 3177.98 17672.6 3190.5 17684.1 3203.02 17719.4 3215.54 17720.3 3228.06 17721.2 3240.59 17693.8 3253.11 17678 3265.63 17662.3 3278.15 17629.7 3290.67 17625.9 3303.2 17622 3315.72 17649.4 3328.24 17655.1 3340.76 17660.8 3353.28 17653.4 3365.8 17660.2 3378.33 17667 3390.85 17694.5 3403.37 17696 3415.89 17697.5 3428.41 17671.2 3440.93 17669.1 3453.46 17667 3472.24 17680.8 3478.5 17683.2" stroke="#000000" stroke-width="9.16667" stroke-linecap="round" stroke-linejoin="round" stroke-miterlimit="10" fill="none"/></g><g><text font-family="Inter,Inter_MSFontService,sans-serif" font-weight="400" font-size="32" transform="matrix(1 0 0 1 2542.69 18040)">80</text></g><g><text font-family="Inter,Inter_MSFontService,sans-serif" font-weight="400" font-size="32" transform="matrix(1 0 0 1 2542.46 17876)">90</text></g><g><text font-family="Inter,Inter_MSFontService,sans-serif" font-weight="400" font-size="32" transform="matrix(1 0 0 1 2527.52 17712)">100</text></g><g><text font-family="Inter,Inter_MSFontService,sans-serif" font-weight="400" font-size="32" transform="matrix(1 0 0 1 2532.67 17548)">110</text></g><g><text font-family="Inter,Inter_MSFontService,sans-serif" font-weight="400" font-size="32" transform="matrix(1 0 0 1 2528.16 17385)">120</text></g><g><text font-family="Inter,Inter_MSFontService,sans-serif" font-weight="400" font-size="32" transform="matrix(0.707107 -0.707107 0.707107 0.707107 2590.39 18105)">1/6</text></g><g><text font-family="Inter,Inter_MSFontService,sans-serif" font-weight="400" font-size="32" transform="matrix(0.707107 -0.707107 0.707107 0.707107 2690.45 18118)">1/27</text></g><g><text font-family="Inter,Inter_MSFontService,sans-serif" font-weight="400" font-size="32" transform="matrix(0.707107 -0.707107 0.707107 0.707107 2803.03 18118)">2/17</text></g><g><text font-family="Inter,Inter_MSFontService,sans-serif" font-weight="400" font-size="32" transform="matrix(0.707107 -0.707107 0.707107 0.707107 2924.23 18109)">3/9</text></g><g><text font-family="Inter,Inter_MSFontService,sans-serif" font-weight="400" font-size="32" transform="matrix(0.707107 -0.707107 0.707107 0.707107 3022.35 18124)">3/30</text></g><g><text font-family="Inter,Inter_MSFontService,sans-serif" font-weight="400" font-size="32" transform="matrix(0.707107 -0.707107 0.707107 0.707107 3135.51 18123)">4/20</text></g><g><text font-family="Inter,Inter_MSFontService,sans-serif" font-weight="400" font-size="32" transform="matrix(0.707107 -0.707107 0.707107 0.707107 3255.71 18116)">5/11</text></g><g><text font-family="Inter,Inter_MSFontService,sans-serif" font-weight="400" font-size="32" transform="matrix(0.707107 -0.707107 0.707107 0.707107 3378.47 18105)">6/1</text></g><g><text font-family="Inter,Inter_MSFontService,sans-serif" font-weight="400" font-size="32" transform="matrix(0.707107 -0.707107 0.707107 0.707107 3474.13 18122)">6/22</text></g><g><text font-family="Inter,Inter_MSFontService,sans-serif" font-weight="400" font-size="32" transform="matrix(0.707107 -0.707107 0.707107 0.707107 3590.39 18119)">7/13</text></g><g><text font-family="Inter,Inter_MSFontService,sans-serif" font-weight="400" font-size="32" transform="matrix(0.707107 -0.707107 0.707107 0.707107 3712.47 18109)">8/3</text></g><g><text font-family="Inter,Inter_MSFontService,sans-serif" font-weight="400" font-size="32" transform="matrix(0.707107 -0.707107 0.707107 0.707107 3811.2 18123)">8/24</text></g><g><text font-family="Inter,Inter_MSFontService,sans-serif" font-weight="400" font-size="32" transform="matrix(0.707107 -0.707107 0.707107 0.707107 3926.81 18120)">9/14</text></g><g><text font-family="Inter,Inter_MSFontService,sans-serif" font-weight="400" font-size="32" transform="matrix(0.707107 -0.707107 0.707107 0.707107 4040.14 18119)">10/5</text></g><g><text font-family="Inter,Inter_MSFontService,sans-serif" font-weight="400" font-size="32" transform="matrix(0.707107 -0.707107 0.707107 0.707107 4138.64 18133)">10/26</text></g><g><text font-family="Inter,Inter_MSFontService,sans-serif" font-weight="400" font-size="32" transform="matrix(0.707107 -0.707107 0.707107 0.707107 4258.06 18126)">11/16</text></g><g><text font-family="Inter,Inter_MSFontService,sans-serif" font-weight="400" font-size="32" transform="matrix(0.707107 -0.707107 0.707107 0.707107 4379.18 18118)">12/7</text></g><g><text font-family="Inter Medium,Inter Medium_MSFontService,sans-serif" font-weight="700" font-size="46" transform="matrix(1 0 0 1 2529.01 17216)">U.S. Hotel Occupancy and ADR Recovery Levels</text></g><g><path d="M2521.5 17312.5 2609.5 17312.5" stroke="#FFB226" stroke-width="9.16667" stroke-linecap="round" stroke-linejoin="round" stroke-miterlimit="10" fill="none" fill-rule="evenodd"/></g><g><text font-family="Inter Medium,Inter Medium_MSFontService,sans-serif" font-weight="500" font-size="37" transform="matrix(1 0 0 1 2618.39 17324)">Occ Index</text></g><g><path d="M2846.5 17312.5 2934.5 17312.5" stroke="#000000" stroke-width="9.16667" stroke-linecap="round" stroke-linejoin="round" stroke-miterlimit="10" fill="none" fill-rule="evenodd"/></g><g><text font-family="Inter Medium,Inter Medium_MSFontService,sans-serif" font-weight="500" font-size="37" transform="matrix(1 0 0 1 2943.74 17324)">ADR Index</text></g><rect x="2445.5" y="17127.5" width="2103" height="1056" stroke="#D9D9D9" stroke-width="3.4375" stroke-linejoin="round" stroke-miterlimit="10" fill="none"/><g><text fill="#7F7F7F" font-family="Inter,Inter_MSFontService,sans-serif" font-weight="400" font-size="32" transform="matrix(1 0 0 1 2526.75 17270)">Indexed to 2023, Source: STR, str.com</text></g></g></svg>