<svg width="2106" height="1059" xmlns="http://www.w3.org/2000/svg" xmlns:xlink="http://www.w3.org/1999/xlink" xml:space="preserve" overflow="hidden"><defs><filter id="fx0" x="-10%" y="-10%" width="120%" height="120%" filterUnits="userSpaceOnUse" primitiveUnits="userSpaceOnUse"><feComponentTransfer color-interpolation-filters="sRGB"><feFuncR type="discrete" tableValues="0 0"/><feFuncG type="discrete" tableValues="0 0"/><feFuncB type="discrete" tableValues="0 0"/><feFuncA type="linear" slope="0.501961" intercept="0"/></feComponentTransfer><feGaussianBlur stdDeviation="4.58333 4.58333"/></filter><filter id="fx1" x="-10%" y="-10%" width="120%" height="120%" filterUnits="userSpaceOnUse" primitiveUnits="userSpaceOnUse"><feComponentTransfer color-interpolation-filters="sRGB"><feFuncR type="discrete" tableValues="0 0"/><feFuncG type="discrete" tableValues="0 0"/><feFuncB type="discrete" tableValues="0 0"/><feFuncA type="linear" slope="0.501961" intercept="0"/></feComponentTransfer><feGaussianBlur stdDeviation="4.58333 4.58333"/></filter><clipPath id="clip2"><rect x="2444" y="16555" width="2106" height="1059"/></clipPath><clipPath id="clip3"><rect x="2612" y="16804" width="1885" height="658"/></clipPath><clipPath id="clip4"><rect x="2612" y="16804" width="1885" height="658"/></clipPath></defs><g clip-path="url(#clip2)" transform="translate(-2444 -16555)"><rect x="2445" y="16556" width="2103" height="1056" fill="#FFFFFF"/><g><path d="M2612.5 17131.5 4494.5 17131.5" stroke="#D9D9D9" stroke-width="3.4375" stroke-linejoin="round" stroke-miterlimit="10" fill="none" fill-rule="evenodd"/></g><g clip-path="url(#clip3)"><g filter="url(#fx0)" transform="translate(2601 17037)"><g><path d="M19.9819 114.724C32.4952 125.026 45.0089 137.882 57.5226 145.63 70.0359 153.378 82.5495 168.189 95.0632 161.213 107.576 154.236 120.09 113.334 132.604 103.77 145.117 94.2043 157.63 96.7606 170.144 103.822 182.657 110.883 195.171 139.456 207.685 146.136 220.198 152.816 232.712 142.107 245.225 143.902 257.739 145.697 270.252 162.778 282.766 156.907 295.279 151.037 307.793 111.698 320.306 108.677 332.82 105.656 345.333 135.647 357.847 138.78 370.36 141.913 382.874 135.476 395.388 127.477 407.901 119.477 420.414 79.1623 432.928 90.7849 445.441 102.407 457.955 207.982 470.468 197.212 482.982 186.441 495.495 49.0134 508.009 26.1627 520.155 3.98242 533.404 46.4463 545.55 60.1061 558.063 74.1787 570.577 100.123 583.09 110.599 595.604 121.076 608.117 121.243 620.631 122.965 633.144 124.687 645.658 128.802 658.171 120.931 670.685 113.061 683.198 78.6828 695.712 75.7425 708.225 72.8018 720.739 102.773 733.253 103.288 745.766 103.802 758.279 81.0039 770.793 78.8301 783.306 76.6561 795.82 85.3942 808.333 90.2449 820.847 95.0952 833.36 104.239 845.874 107.934 858.387 111.629 870.901 106.339 883.415 112.414 895.928 118.489 908.441 154.108 920.955 144.385 933.468 134.661 945.982 59.1186 958.496 54.0709 971.009 49.0228 983.522 95.6972 996.036 114.096 1008.55 132.495 1021.06 168.914 1033.58 164.465 1046.09 160.016 1058.6 97.2487 1071.12 87.404 1083.63 77.5588 1096.14 105.129 1108.66 105.395 1121.17 105.66 1133.68 91.3476 1146.2 88.9963 1158.71 86.6446 1171.22 88.9015 1183.74 91.2867 1196.25 93.6715 1208.77 106.322 1221.28 103.306 1233.79 100.289 1246.31 78.8114 1258.82 73.188 1270.46 67.9561 1284.72 54.76 1296.36 69.5643 1308.87 85.4777 1321.39 159.023 1333.9 168.669 1346.41 178.314 1358.93 140.329 1371.44 127.437 1383.95 114.545 1402.73 97.3348 1408.98 91.3144" stroke="#FFB226" stroke-width="9" stroke-linecap="round" stroke-linejoin="round" stroke-miterlimit="10" fill="none"/></g></g></g><g clip-path="url(#clip4)"><g filter="url(#fx1)" transform="translate(2601 17009)"><g><path d="M19.9819 21.6563C32.4952 23.3548 45.0089 12.9824 57.5226 26.7521 70.0359 40.5217 82.5495 100.835 95.0632 104.274 107.576 107.713 120.09 48.2321 132.604 47.3831 145.117 46.5337 157.63 103.659 170.144 99.1792 182.657 94.6986 195.171 26.2831 207.685 20.5008 220.198 14.7181 232.712 46.6019 245.225 64.4843 257.739 82.3664 270.252 124.16 282.766 127.794 295.279 131.427 307.793 83.9497 320.306 86.2828 332.82 88.6155 345.333 128.418 357.847 141.791 370.36 155.164 382.874 174.982 395.388 166.521 407.901 158.061 420.414 95.1152 432.928 91.0255 445.441 86.9355 457.955 142.183 470.468 141.982 482.982 141.781 495.495 100.555 508.009 89.8191 520.522 79.0828 533.036 76.0231 545.55 77.5641 558.063 79.1048 570.577 87.5268 583.09 99.0644 595.604 110.602 608.117 145.881 620.631 146.789 633.144 147.696 645.658 120.252 658.171 104.512 670.685 88.7715 683.198 56.1656 695.712 52.3471 708.225 48.5282 720.739 75.8776 733.253 81.5989 745.766 87.3199 758.279 79.8561 770.793 86.6748 783.306 93.4936 795.82 121.026 808.333 122.512 820.847 123.996 833.36 97.7255 845.874 95.5848 858.387 93.4441 870.901 105.619 883.415 109.667 895.928 113.716 908.441 128.093 920.955 119.875 933.468 111.657 945.982 61.4072 958.496 60.3596 971.009 59.3117 983.522 99.1359 996.036 113.589 1008.55 128.042 1021.06 151.716 1033.58 147.077 1046.09 142.439 1058.6 93.2012 1071.12 85.7572 1083.63 78.3128 1096.14 97.858 1108.66 102.413 1121.17 106.968 1133.68 113.935 1146.2 113.086 1158.71 112.236 1171.22 98.6594 1183.74 97.3147 1196.25 95.9696 1208.77 108.054 1221.28 105.017 1233.79 101.98 1246.31 80.8199 1258.82 79.0922 1271.33 77.3641 1283.85 84.5453 1296.36 94.6491 1308.87 104.753 1321.39 135.523 1333.9 139.714 1346.41 143.905 1358.93 127.929 1371.44 119.793 1383.95 111.657 1402.73 95.7137 1408.98 90.8981" stroke="#000000" stroke-width="9" stroke-linecap="round" stroke-linejoin="round" stroke-miterlimit="10" fill="none"/></g></g></g><g><path d="M2614.5 17145.2C2627.01 17155.5 2639.53 17168.4 2652.04 17176.1 2664.55 17183.9 2677.07 17198.7 2689.58 17191.7 2702.09 17184.8 2714.61 17143.9 2727.12 17134.3 2739.64 17124.7 2752.15 17127.3 2764.66 17134.3 2777.18 17141.4 2789.69 17170 2802.2 17176.7 2814.72 17183.3 2827.23 17172.6 2839.74 17174.4 2852.26 17176.2 2864.77 17193.3 2877.28 17187.4 2889.8 17181.6 2902.31 17142.2 2914.82 17139.2 2927.34 17136.2 2939.85 17166.2 2952.36 17169.3 2964.88 17172.4 2977.39 17166 2989.91 17158 3002.42 17150 3014.93 17109.7 3027.45 17121.3 3039.96 17132.9 3052.47 17238.5 3064.99 17227.7 3077.5 17217 3090.01 17079.5 3102.53 17056.7 3114.67 17034.5 3127.92 17077 3140.07 17090.6 3152.58 17104.7 3165.09 17130.6 3177.61 17141.1 3190.12 17151.6 3202.64 17151.8 3215.15 17153.5 3227.66 17155.2 3240.18 17159.3 3252.69 17151.4 3265.2 17143.6 3277.72 17109.2 3290.23 17106.3 3302.74 17103.3 3315.26 17133.3 3327.77 17133.8 3340.28 17134.3 3352.8 17111.5 3365.31 17109.3 3377.82 17107.2 3390.34 17115.9 3402.85 17120.8 3415.36 17125.6 3427.88 17134.8 3440.39 17138.5 3452.91 17142.1 3465.42 17136.9 3477.93 17142.9 3490.45 17149 3502.96 17184.6 3515.47 17174.9 3527.99 17165.2 3540.5 17089.6 3553.01 17084.6 3565.53 17079.5 3578.04 17126.2 3590.55 17144.6 3603.07 17163 3615.58 17199.4 3628.09 17195 3640.61 17190.5 3653.12 17127.8 3665.64 17117.9 3678.15 17108.1 3690.66 17135.6 3703.18 17135.9 3715.69 17136.2 3728.2 17121.9 3740.72 17119.5 3753.23 17117.2 3765.74 17119.4 3778.26 17121.8 3790.77 17124.2 3803.28 17136.8 3815.8 17133.8 3828.31 17130.8 3840.82 17109.3 3853.34 17103.7 3864.98 17098.5 3879.24 17085.3 3890.88 17100.1 3903.39 17116 3915.91 17189.5 3928.42 17199.2 3940.93 17208.8 3953.45 17170.8 3965.96 17158 3978.47 17145.1 3997.24 17127.9 4003.5 17121.8" stroke="#FFB226" stroke-width="9.16667" stroke-linecap="round" stroke-linejoin="round" stroke-miterlimit="10" fill="none"/></g><g><path d="M2614.5 17024.2C2627.01 17025.9 2639.53 17015.5 2652.04 17029.3 2664.55 17043 2677.07 17103.4 2689.58 17106.8 2702.09 17110.2 2714.61 17050.8 2727.12 17049.9 2739.64 17049.1 2752.15 17106.2 2764.66 17101.7 2777.18 17097.2 2789.69 17028.8 2802.2 17023 2814.72 17017.2 2827.23 17049.1 2839.74 17067 2852.26 17084.9 2864.77 17126.7 2877.28 17130.3 2889.8 17133.9 2902.31 17086.5 2914.82 17088.8 2927.34 17091.1 2939.85 17130.9 2952.36 17144.3 2964.88 17157.7 2977.39 17177.5 2989.91 17169 3002.42 17160.6 3014.93 17097.6 3027.45 17093.5 3039.96 17089.5 3052.47 17144.7 3064.99 17144.5 3077.5 17144.3 3090.01 17103.1 3102.53 17092.3 3115.04 17081.6 3127.55 17078.5 3140.07 17080.1 3152.58 17081.6 3165.09 17090 3177.61 17101.6 3190.12 17113.1 3202.64 17148.4 3215.15 17149.3 3227.66 17150.2 3240.18 17122.8 3252.69 17107 3265.2 17091.3 3277.72 17058.7 3290.23 17054.9 3302.74 17051 3315.26 17078.4 3327.77 17084.1 3340.28 17089.8 3352.8 17082.4 3365.31 17089.2 3377.82 17096 3390.34 17123.5 3402.85 17125 3415.36 17126.5 3427.88 17100.2 3440.39 17098.1 3452.91 17096 3465.42 17108.1 3477.93 17112.2 3490.45 17116.2 3502.96 17130.6 3515.47 17122.4 3527.99 17114.2 3540.5 17063.9 3553.01 17062.9 3565.53 17061.8 3578.04 17101.7 3590.55 17116.1 3603.07 17130.6 3615.58 17154.2 3628.09 17149.6 3640.61 17145 3653.12 17095.7 3665.64 17088.3 3678.15 17080.8 3690.66 17100.4 3703.18 17104.9 3715.69 17109.5 3728.2 17116.5 3740.72 17115.6 3753.23 17114.8 3765.74 17101.2 3778.26 17099.8 3790.77 17098.5 3803.28 17110.6 3815.8 17107.5 3828.31 17104.5 3840.82 17083.3 3853.34 17081.6 3865.85 17079.9 3878.36 17087.1 3890.88 17097.2 3903.39 17107.3 3915.91 17138 3928.42 17142.2 3940.93 17146.4 3953.45 17130.4 3965.96 17122.3 3978.47 17114.2 3997.24 17098.2 4003.5 17093.4" stroke="#000000" stroke-width="9.16667" stroke-linecap="round" stroke-linejoin="round" stroke-miterlimit="10" fill="none"/></g><g><text font-family="Inter,Inter_MSFontService,sans-serif" font-weight="400" font-size="32" transform="matrix(1 0 0 1 2542.69 17469)">80</text></g><g><text font-family="Inter,Inter_MSFontService,sans-serif" font-weight="400" font-size="32" transform="matrix(1 0 0 1 2542.46 17305)">90</text></g><g><text font-family="Inter,Inter_MSFontService,sans-serif" font-weight="400" font-size="32" transform="matrix(1 0 0 1 2527.52 17142)">100</text></g><g><text font-family="Inter,Inter_MSFontService,sans-serif" font-weight="400" font-size="32" transform="matrix(1 0 0 1 2532.67 16978)">110</text></g><g><text font-family="Inter,Inter_MSFontService,sans-serif" font-weight="400" font-size="32" transform="matrix(1 0 0 1 2528.16 16814)">120</text></g><g><text font-family="Inter,Inter_MSFontService,sans-serif" font-weight="400" font-size="32" transform="matrix(0.707107 -0.707107 0.707107 0.707107 2590.39 17535)">1/6</text></g><g><text font-family="Inter,Inter_MSFontService,sans-serif" font-weight="400" font-size="32" transform="matrix(0.707107 -0.707107 0.707107 0.707107 2690.45 17547)">1/27</text></g><g><text font-family="Inter,Inter_MSFontService,sans-serif" font-weight="400" font-size="32" transform="matrix(0.707107 -0.707107 0.707107 0.707107 2803.03 17547)">2/17</text></g><g><text font-family="Inter,Inter_MSFontService,sans-serif" font-weight="400" font-size="32" transform="matrix(0.707107 -0.707107 0.707107 0.707107 2924.23 17539)">3/9</text></g><g><text font-family="Inter,Inter_MSFontService,sans-serif" font-weight="400" font-size="32" transform="matrix(0.707107 -0.707107 0.707107 0.707107 3022.35 17553)">3/30</text></g><g><text font-family="Inter,Inter_MSFontService,sans-serif" font-weight="400" font-size="32" transform="matrix(0.707107 -0.707107 0.707107 0.707107 3135.51 17553)">4/20</text></g><g><text font-family="Inter,Inter_MSFontService,sans-serif" font-weight="400" font-size="32" transform="matrix(0.707107 -0.707107 0.707107 0.707107 3255.71 17545)">5/11</text></g><g><text font-family="Inter,Inter_MSFontService,sans-serif" font-weight="400" font-size="32" transform="matrix(0.707107 -0.707107 0.707107 0.707107 3378.47 17535)">6/1</text></g><g><text font-family="Inter,Inter_MSFontService,sans-serif" font-weight="400" font-size="32" transform="matrix(0.707107 -0.707107 0.707107 0.707107 3474.13 17552)">6/22</text></g><g><text font-family="Inter,Inter_MSFontService,sans-serif" font-weight="400" font-size="32" transform="matrix(0.707107 -0.707107 0.707107 0.707107 3590.39 17548)">7/13</text></g><g><text font-family="Inter,Inter_MSFontService,sans-serif" font-weight="400" font-size="32" transform="matrix(0.707107 -0.707107 0.707107 0.707107 3712.47 17538)">8/3</text></g><g><text font-family="Inter,Inter_MSFontService,sans-serif" font-weight="400" font-size="32" transform="matrix(0.707107 -0.707107 0.707107 0.707107 3811.2 17552)">8/24</text></g><g><text font-family="Inter,Inter_MSFontService,sans-serif" font-weight="400" font-size="32" transform="matrix(0.707107 -0.707107 0.707107 0.707107 3926.81 17549)">9/14</text></g><g><text font-family="Inter,Inter_MSFontService,sans-serif" font-weight="400" font-size="32" transform="matrix(0.707107 -0.707107 0.707107 0.707107 4040.14 17549)">10/5</text></g><g><text font-family="Inter,Inter_MSFontService,sans-serif" font-weight="400" font-size="32" transform="matrix(0.707107 -0.707107 0.707107 0.707107 4138.64 17563)">10/26</text></g><g><text font-family="Inter,Inter_MSFontService,sans-serif" font-weight="400" font-size="32" transform="matrix(0.707107 -0.707107 0.707107 0.707107 4258.06 17556)">11/16</text></g><g><text font-family="Inter,Inter_MSFontService,sans-serif" font-weight="400" font-size="32" transform="matrix(0.707107 -0.707107 0.707107 0.707107 4379.18 17547)">12/7</text></g><g><text font-family="Inter Medium,Inter Medium_MSFontService,sans-serif" font-weight="700" font-size="46" transform="matrix(1 0 0 1 2529.01 16646)">U.S. Hotel Occupancy and ADR Recovery Levels</text></g><g><path d="M2521.5 16741.5 2609.5 16741.5" stroke="#FFB226" stroke-width="9.16667" stroke-linecap="round" stroke-linejoin="round" stroke-miterlimit="10" fill="none" fill-rule="evenodd"/></g><g><text font-family="Inter Medium,Inter Medium_MSFontService,sans-serif" font-weight="500" font-size="37" transform="matrix(1 0 0 1 2618.39 16754)">Occ Index</text></g><g><path d="M2846.5 16741.5 2934.5 16741.5" stroke="#000000" stroke-width="9.16667" stroke-linecap="round" stroke-linejoin="round" stroke-miterlimit="10" fill="none" fill-rule="evenodd"/></g><g><text font-family="Inter Medium,Inter Medium_MSFontService,sans-serif" font-weight="500" font-size="37" transform="matrix(1 0 0 1 2943.74 16754)">ADR Index</text></g><rect x="2445.5" y="16556.5" width="2103" height="1056" stroke="#D9D9D9" stroke-width="3.4375" stroke-linejoin="round" stroke-miterlimit="10" fill="none"/><g><text fill="#7F7F7F" font-family="Inter,Inter_MSFontService,sans-serif" font-weight="400" font-size="32" transform="matrix(1 0 0 1 2526.75 16700)">Indexed to 2023, Source: STR, str.com</text></g></g></svg>