<svg width="2106" height="1059" xmlns="http://www.w3.org/2000/svg" xmlns:xlink="http://www.w3.org/1999/xlink" xml:space="preserve" overflow="hidden"><defs><filter id="fx0" x="-10%" y="-10%" width="120%" height="120%" filterUnits="userSpaceOnUse" primitiveUnits="userSpaceOnUse"><feComponentTransfer color-interpolation-filters="sRGB"><feFuncR type="discrete" tableValues="0 0"/><feFuncG type="discrete" tableValues="0 0"/><feFuncB type="discrete" tableValues="0 0"/><feFuncA type="linear" slope="0.501961" intercept="0"/></feComponentTransfer><feGaussianBlur stdDeviation="4.58333 4.58333"/></filter><filter id="fx1" x="-10%" y="-10%" width="120%" height="120%" filterUnits="userSpaceOnUse" primitiveUnits="userSpaceOnUse"><feComponentTransfer color-interpolation-filters="sRGB"><feFuncR type="discrete" tableValues="0 0"/><feFuncG type="discrete" tableValues="0 0"/><feFuncB type="discrete" tableValues="0 0"/><feFuncA type="linear" slope="0.501961" intercept="0"/></feComponentTransfer><feGaussianBlur stdDeviation="4.58333 4.58333"/></filter><clipPath id="clip2"><rect x="2444" y="17126" width="2106" height="1059"/></clipPath><clipPath id="clip3"><rect x="2612" y="17374" width="1885" height="659"/></clipPath><clipPath id="clip4"><rect x="2612" y="17374" width="1885" height="659"/></clipPath></defs><g clip-path="url(#clip2)" transform="translate(-2444 -17126)"><rect x="2445" y="17127" width="2103" height="1056" fill="#FFFFFF"/><g><path d="M2612.5 17702.5 4494.5 17702.5" stroke="#D9D9D9" stroke-width="3.4375" stroke-linejoin="round" stroke-miterlimit="10" fill="none" fill-rule="evenodd"/></g><g clip-path="url(#clip3)"><g filter="url(#fx0)" transform="translate(2601 17608)"><g><path d="M19.9819 114.724C32.4905 125.026 44.9994 137.882 57.5083 145.63 70.0169 153.378 82.5258 168.189 95.0347 161.213 107.543 154.236 120.052 113.334 132.561 103.769 145.07 94.2042 157.578 96.7608 170.087 103.822 182.596 110.883 195.105 139.456 207.614 146.136 220.122 152.816 232.631 142.107 245.14 143.902 257.648 145.697 270.157 162.778 282.666 156.908 295.175 151.037 307.683 111.698 320.192 108.677 332.701 105.656 345.21 135.647 357.719 138.78 370.227 141.913 382.736 135.476 395.245 127.477 407.754 119.477 420.263 79.1622 432.772 90.7847 445.28 102.407 457.789 207.982 470.297 197.212 482.806 186.441 495.315 49.0137 507.824 26.1627 519.965 3.98242 533.209 46.4462 545.35 60.106 557.859 74.1785 570.368 100.123 582.877 110.599 595.385 121.075 607.894 121.243 620.403 122.965 632.911 124.687 645.42 128.801 657.929 120.931 670.438 113.06 682.947 78.683 695.455 75.7427 707.964 72.802 726.727 98.6964 732.982 103.287" stroke="#FFB226" stroke-width="9" stroke-linecap="round" stroke-linejoin="round" stroke-miterlimit="10" fill="none"/></g></g></g><g clip-path="url(#clip4)"><g filter="url(#fx1)" transform="translate(2601 17580)"><g><path d="M19.9819 21.6563C32.4905 23.3548 44.9994 12.9824 57.5083 26.7521 70.0169 40.5214 82.5258 100.835 95.0347 104.274 107.543 107.712 120.052 48.2321 132.561 47.3831 145.07 46.5337 157.578 103.659 170.087 99.1792 182.596 94.6986 195.105 26.2831 207.614 20.5008 220.122 14.7181 232.631 46.6015 245.14 64.484 257.648 82.366 270.157 124.16 282.666 127.794 295.175 131.427 307.683 83.9497 320.192 86.2828 332.701 88.6155 345.21 128.417 357.719 141.791 370.227 155.164 382.736 174.982 395.245 166.521 407.754 158.061 420.263 95.1152 432.772 91.0251 445.28 86.9351 457.789 142.182 470.297 141.981 482.806 141.78 495.315 100.555 507.824 89.8187 520.332 79.0825 532.841 76.0227 545.35 77.5638 557.859 79.1045 570.368 87.5268 582.877 99.0644 595.385 110.602 607.894 145.88 620.403 146.788 632.911 147.696 645.42 120.251 657.929 104.511 670.438 88.7711 682.947 56.1653 695.455 52.3467 707.964 48.5278 726.727 76.7234 732.982 81.5989" stroke="#000000" stroke-width="9" stroke-linecap="round" stroke-linejoin="round" stroke-miterlimit="10" fill="none"/></g></g></g><g><path d="M2614.5 17716.2C2627.01 17726.5 2639.52 17739.4 2652.03 17747.1 2664.53 17754.9 2677.04 17769.7 2689.55 17762.7 2702.06 17755.8 2714.57 17714.9 2727.08 17705.3 2739.59 17695.7 2752.1 17698.3 2764.61 17705.3 2777.11 17712.4 2789.62 17741 2802.13 17747.7 2814.64 17754.3 2827.15 17743.6 2839.66 17745.4 2852.17 17747.2 2864.68 17764.3 2877.18 17758.4 2889.69 17752.6 2902.2 17713.2 2914.71 17710.2 2927.22 17707.2 2939.73 17737.2 2952.24 17740.3 2964.75 17743.4 2977.25 17737 2989.76 17729 3002.27 17721 3014.78 17680.7 3027.29 17692.3 3039.8 17703.9 3052.31 17809.5 3064.82 17798.7 3077.32 17788 3089.83 17650.5 3102.34 17627.7 3114.48 17605.5 3127.73 17648 3139.87 17661.6 3152.38 17675.7 3164.89 17701.6 3177.39 17712.1 3189.9 17722.6 3202.41 17722.8 3214.92 17724.5 3227.43 17726.2 3239.94 17730.3 3252.45 17722.4 3264.96 17714.6 3277.46 17680.2 3289.97 17677.3 3302.48 17674.3 3321.25 17700.2 3327.5 17704.8" stroke="#FFB226" stroke-width="9.16667" stroke-linecap="round" stroke-linejoin="round" stroke-miterlimit="10" fill="none"/></g><g><path d="M2614.5 17595.2C2627.01 17596.9 2639.52 17586.5 2652.03 17600.3 2664.53 17614 2677.04 17674.4 2689.55 17677.8 2702.06 17681.2 2714.57 17621.8 2727.08 17620.9 2739.59 17620.1 2752.1 17677.2 2764.61 17672.7 2777.11 17668.2 2789.62 17599.8 2802.13 17594 2814.64 17588.2 2827.15 17620.1 2839.66 17638 2852.17 17655.9 2864.68 17697.7 2877.18 17701.3 2889.69 17704.9 2902.2 17657.5 2914.71 17659.8 2927.22 17662.1 2939.73 17701.9 2952.24 17715.3 2964.75 17728.7 2977.25 17748.5 2989.76 17740 3002.27 17731.6 3014.78 17668.6 3027.29 17664.5 3039.8 17660.5 3052.31 17715.7 3064.82 17715.5 3077.32 17715.3 3089.83 17674.1 3102.34 17663.3 3114.85 17652.6 3127.36 17649.5 3139.87 17651.1 3152.38 17652.6 3164.89 17661 3177.39 17672.6 3189.9 17684.1 3202.41 17719.4 3214.92 17720.3 3227.43 17721.2 3239.94 17693.8 3252.45 17678 3264.96 17662.3 3277.46 17629.7 3289.97 17625.9 3302.48 17622 3321.25 17650.2 3327.5 17655.1" stroke="#000000" stroke-width="9.16667" stroke-linecap="round" stroke-linejoin="round" stroke-miterlimit="10" fill="none"/></g><g><text font-family="Inter,Inter_MSFontService,sans-serif" font-weight="400" font-size="32" transform="matrix(1 0 0 1 2542.69 18040)">80</text></g><g><text font-family="Inter,Inter_MSFontService,sans-serif" font-weight="400" font-size="32" transform="matrix(1 0 0 1 2542.46 17876)">90</text></g><g><text font-family="Inter,Inter_MSFontService,sans-serif" font-weight="400" font-size="32" transform="matrix(1 0 0 1 2527.52 17712)">100</text></g><g><text font-family="Inter,Inter_MSFontService,sans-serif" font-weight="400" font-size="32" transform="matrix(1 0 0 1 2532.67 17548)">110</text></g><g><text font-family="Inter,Inter_MSFontService,sans-serif" font-weight="400" font-size="32" transform="matrix(1 0 0 1 2528.16 17385)">120</text></g><g><text font-family="Inter,Inter_MSFontService,sans-serif" font-weight="400" font-size="32" transform="matrix(0.707107 -0.707107 0.707107 0.707107 2590.39 18105)">1/6</text></g><g><text font-family="Inter,Inter_MSFontService,sans-serif" font-weight="400" font-size="32" transform="matrix(0.707107 -0.707107 0.707107 0.707107 2690.45 18118)">1/27</text></g><g><text font-family="Inter,Inter_MSFontService,sans-serif" font-weight="400" font-size="32" transform="matrix(0.707107 -0.707107 0.707107 0.707107 2803.03 18118)">2/17</text></g><g><text font-family="Inter,Inter_MSFontService,sans-serif" font-weight="400" font-size="32" transform="matrix(0.707107 -0.707107 0.707107 0.707107 2924.23 18109)">3/9</text></g><g><text font-family="Inter,Inter_MSFontService,sans-serif" font-weight="400" font-size="32" transform="matrix(0.707107 -0.707107 0.707107 0.707107 3022.35 18124)">3/30</text></g><g><text font-family="Inter,Inter_MSFontService,sans-serif" font-weight="400" font-size="32" transform="matrix(0.707107 -0.707107 0.707107 0.707107 3135.51 18123)">4/20</text></g><g><text font-family="Inter,Inter_MSFontService,sans-serif" font-weight="400" font-size="32" transform="matrix(0.707107 -0.707107 0.707107 0.707107 3255.71 18116)">5/11</text></g><g><text font-family="Inter,Inter_MSFontService,sans-serif" font-weight="400" font-size="32" transform="matrix(0.707107 -0.707107 0.707107 0.707107 3378.47 18105)">6/1</text></g><g><text font-family="Inter,Inter_MSFontService,sans-serif" font-weight="400" font-size="32" transform="matrix(0.707107 -0.707107 0.707107 0.707107 3474.13 18122)">6/22</text></g><g><text font-family="Inter,Inter_MSFontService,sans-serif" font-weight="400" font-size="32" transform="matrix(0.707107 -0.707107 0.707107 0.707107 3590.39 18119)">7/13</text></g><g><text font-family="Inter,Inter_MSFontService,sans-serif" font-weight="400" font-size="32" transform="matrix(0.707107 -0.707107 0.707107 0.707107 3712.47 18109)">8/3</text></g><g><text font-family="Inter,Inter_MSFontService,sans-serif" font-weight="400" font-size="32" transform="matrix(0.707107 -0.707107 0.707107 0.707107 3811.2 18123)">8/24</text></g><g><text font-family="Inter,Inter_MSFontService,sans-serif" font-weight="400" font-size="32" transform="matrix(0.707107 -0.707107 0.707107 0.707107 3926.81 18120)">9/14</text></g><g><text font-family="Inter,Inter_MSFontService,sans-serif" font-weight="400" font-size="32" transform="matrix(0.707107 -0.707107 0.707107 0.707107 4040.14 18119)">10/5</text></g><g><text font-family="Inter,Inter_MSFontService,sans-serif" font-weight="400" font-size="32" transform="matrix(0.707107 -0.707107 0.707107 0.707107 4138.64 18133)">10/26</text></g><g><text font-family="Inter,Inter_MSFontService,sans-serif" font-weight="400" font-size="32" transform="matrix(0.707107 -0.707107 0.707107 0.707107 4258.06 18126)">11/16</text></g><g><text font-family="Inter,Inter_MSFontService,sans-serif" font-weight="400" font-size="32" transform="matrix(0.707107 -0.707107 0.707107 0.707107 4379.18 18118)">12/7</text></g><g><text font-family="Inter Medium,Inter Medium_MSFontService,sans-serif" font-weight="700" font-size="46" transform="matrix(1 0 0 1 2529.01 17216)">U.S. Hotel Occupancy and ADR Recovery Levels</text></g><g><path d="M2521.5 17312.5 2609.5 17312.5" stroke="#FFB226" stroke-width="9.16667" stroke-linecap="round" stroke-linejoin="round" stroke-miterlimit="10" fill="none" fill-rule="evenodd"/></g><g><text font-family="Inter Medium,Inter Medium_MSFontService,sans-serif" font-weight="500" font-size="37" transform="matrix(1 0 0 1 2618.39 17324)">Occ Index</text></g><g><path d="M2846.5 17312.5 2934.5 17312.5" stroke="#000000" stroke-width="9.16667" stroke-linecap="round" stroke-linejoin="round" stroke-miterlimit="10" fill="none" fill-rule="evenodd"/></g><g><text font-family="Inter Medium,Inter Medium_MSFontService,sans-serif" font-weight="500" font-size="37" transform="matrix(1 0 0 1 2943.74 17324)">ADR Index</text></g><rect x="2445.5" y="17127.5" width="2103" height="1056" stroke="#D9D9D9" stroke-width="3.4375" stroke-linejoin="round" stroke-miterlimit="10" fill="none"/><g><text fill="#7F7F7F" font-family="Inter,Inter_MSFontService,sans-serif" font-weight="400" font-size="32" transform="matrix(1 0 0 1 2526.75 17270)">Indexed to 2023, Source: STR, str.com</text></g></g></svg>