<svg width="2106" height="1025" xmlns="http://www.w3.org/2000/svg" xmlns:xlink="http://www.w3.org/1999/xlink" xml:space="preserve" overflow="hidden"><defs><filter id="fx0" x="-10%" y="-10%" width="120%" height="120%" filterUnits="userSpaceOnUse" primitiveUnits="userSpaceOnUse"><feComponentTransfer color-interpolation-filters="sRGB"><feFuncR type="discrete" tableValues="0 0"/><feFuncG type="discrete" tableValues="0 0"/><feFuncB type="discrete" tableValues="0 0"/><feFuncA type="linear" slope="0.501961" intercept="0"/></feComponentTransfer><feGaussianBlur stdDeviation="4.58333 4.58333"/></filter><filter id="fx1" x="-10%" y="-10%" width="120%" height="120%" filterUnits="userSpaceOnUse" primitiveUnits="userSpaceOnUse"><feComponentTransfer color-interpolation-filters="sRGB"><feFuncR type="discrete" tableValues="0 0"/><feFuncG type="discrete" tableValues="0 0"/><feFuncB type="discrete" tableValues="0 0"/><feFuncA type="linear" slope="0.501961" intercept="0"/></feComponentTransfer><feGaussianBlur stdDeviation="4.58333 4.58333"/></filter><clipPath id="clip2"><rect x="2444" y="16555" width="2106" height="1025"/></clipPath><clipPath id="clip3"><rect x="2612" y="16795" width="1885" height="638"/></clipPath><clipPath id="clip4"><rect x="2612" y="16795" width="1885" height="638"/></clipPath></defs><g clip-path="url(#clip2)" transform="translate(-2444 -16555)"><rect x="2445" y="16556" width="2103" height="1022" fill="#FFFFFF"/><g><path d="M2612.5 17112.5 4494.5 17112.5" stroke="#D9D9D9" stroke-width="3.4375" stroke-linejoin="round" stroke-miterlimit="10" fill="none" fill-rule="evenodd"/></g><g clip-path="url(#clip3)"><g filter="url(#fx0)" transform="translate(2601 17021)"><g><path d="M19.9819 111.572C32.5002 121.559 45.0189 134.023 57.5376 141.534 70.0559 149.046 82.5746 163.405 95.0932 156.641 107.612 149.877 120.13 110.225 132.649 100.952 145.167 91.6787 157.686 94.1573 170.204 101.003 182.722 107.848 195.241 135.549 207.76 142.025 220.278 148.501 232.797 138.119 245.315 139.859 257.834 141.6 270.352 158.159 282.871 152.468 295.389 146.776 307.908 108.638 320.426 105.71 332.945 102.78 345.463 131.856 357.982 134.894 370.5 137.931 383.019 131.69 395.538 123.935 408.056 116.18 420.575 77.096 433.093 88.3637 445.612 99.6311 458.13 201.982 470.649 191.541 483.167 181.1 495.686 47.8683 508.204 25.7151 520.485 3.98242 533.479 45.2374 545.76 58.6216 558.278 72.2644 570.797 97.4164 583.316 107.573 595.834 117.73 608.352 117.892 620.871 119.561 633.389 121.231 645.908 125.22 658.427 117.59 670.945 109.959 683.464 76.6317 695.982 73.7809 708.5 70.9298 721.019 99.9856 733.538 100.485 746.056 100.983 758.575 78.8814 771.093 76.7743 783.611 74.6668 796.13 83.1376 808.649 87.8403 821.167 92.5426 833.686 101.407 846.204 104.989 858.723 108.571 871.241 103.443 883.76 109.333 896.278 115.222 908.797 149.754 921.315 140.327 933.834 130.9 946.352 57.6646 958.871 52.771 971.389 47.877 983.908 93.1263 996.427 110.964 1008.95 128.801 1027.72 151.655 1033.98 159.794" stroke="#FFB226" stroke-width="9" stroke-linecap="round" stroke-linejoin="round" stroke-miterlimit="10" fill="none"/></g></g></g><g clip-path="url(#clip4)"><g filter="url(#fx1)" transform="translate(2601 16994)"><g><path d="M19.9819 21.389C32.5002 23.0351 45.0189 12.9824 57.5376 26.3273 70.0559 39.6719 82.5746 98.124 95.0932 101.457 107.612 104.789 120.13 47.1444 132.649 46.3217 145.167 45.4987 157.686 100.861 170.204 96.5191 182.722 92.1768 195.241 25.8731 207.76 20.2691 220.278 14.665 232.797 45.5645 245.315 62.8949 257.834 80.2248 270.352 120.729 282.871 124.25 295.389 127.771 307.908 81.7599 320.426 84.0208 332.945 86.2816 345.463 124.855 357.982 137.816 370.5 150.776 383.019 169.983 395.538 161.783 408.056 153.583 420.575 92.5807 433.093 88.617 445.612 84.6533 458.13 138.195 470.649 138 483.167 137.805 495.686 97.8524 508.204 87.4475 520.723 77.0426 533.241 74.0773 545.76 75.5708 558.278 77.0639 570.797 85.2264 583.316 96.4078 595.834 107.589 608.352 141.779 620.871 142.659 633.389 143.539 645.908 116.941 658.427 101.687 670.945 86.4324 683.464 54.8332 695.982 51.1324 708.5 47.4312 721.019 73.9366 733.538 79.4813 746.056 85.0257 758.575 77.7922 771.093 84.4005 783.611 91.0088 796.13 117.692 808.649 119.131 821.167 120.57 833.686 95.1099 846.204 93.0356 858.723 90.961 871.241 102.76 883.76 106.684 896.278 110.607 908.797 124.541 921.315 116.576 933.834 108.612 946.352 59.9126 958.871 58.8975 971.389 57.8821 983.908 96.4772 996.427 110.484 1008.95 124.491 1027.72 137.53 1033.98 142.939" stroke="#000000" stroke-width="9" stroke-linecap="round" stroke-linejoin="round" stroke-miterlimit="10" fill="none"/></g></g></g><g><path d="M2614.5 17126.1C2627.02 17136.1 2639.54 17148.5 2652.06 17156.1 2664.57 17163.6 2677.09 17177.9 2689.61 17171.2 2702.13 17164.4 2714.65 17124.7 2727.17 17115.5 2739.69 17106.2 2752.2 17108.7 2764.72 17115.5 2777.24 17122.4 2789.76 17150.1 2802.28 17156.5 2814.8 17163 2827.31 17152.6 2839.83 17154.4 2852.35 17156.1 2864.87 17172.7 2877.39 17167 2889.91 17161.3 2902.43 17123.2 2914.94 17120.2 2927.46 17117.3 2939.98 17146.4 2952.5 17149.4 2965.02 17152.4 2977.54 17146.2 2990.06 17138.5 3002.57 17130.7 3015.09 17091.6 3027.61 17102.9 3040.13 17114.1 3052.65 17216.5 3065.17 17206.1 3077.69 17195.6 3090.2 17062.4 3102.72 17040.2 3115 17018.5 3128 17059.8 3140.28 17073.1 3152.8 17086.8 3165.31 17111.9 3177.83 17122.1 3190.35 17132.2 3202.87 17132.4 3215.39 17134.1 3227.91 17135.7 3240.43 17139.7 3252.94 17132.1 3265.46 17124.5 3277.98 17091.1 3290.5 17088.3 3303.02 17085.4 3315.54 17114.5 3328.06 17115 3340.57 17115.5 3353.09 17093.4 3365.61 17091.3 3378.13 17089.2 3390.65 17097.7 3403.17 17102.4 3415.69 17107.1 3428.2 17115.9 3440.72 17119.5 3453.24 17123.1 3465.76 17118 3478.28 17123.8 3490.8 17129.7 3503.31 17164.3 3515.83 17154.8 3528.35 17145.4 3540.87 17072.2 3553.39 17067.3 3565.91 17062.4 3578.43 17107.6 3590.94 17125.5 3603.46 17143.3 3622.24 17166.2 3628.5 17174.3" stroke="#FFB226" stroke-width="9.16667" stroke-linecap="round" stroke-linejoin="round" stroke-miterlimit="10" fill="none"/></g><g><path d="M2614.5 17008.9C2627.02 17010.6 2639.54 17000.5 2652.06 17013.8 2664.57 17027.2 2677.09 17085.6 2689.61 17089 2702.13 17092.3 2714.65 17034.7 2727.17 17033.8 2739.69 17033 2752.2 17088.4 2764.72 17084 2777.24 17079.7 2789.76 17013.4 2802.28 17007.8 2814.8 17002.2 2827.31 17033.1 2839.83 17050.4 2852.35 17067.7 2864.87 17108.2 2877.39 17111.8 2889.91 17115.3 2902.43 17069.3 2914.94 17071.5 2927.46 17073.8 2939.98 17112.4 2952.5 17125.3 2965.02 17138.3 2977.54 17157.5 2990.06 17149.3 3002.57 17141.1 3015.09 17080.1 3027.61 17076.1 3040.13 17072.2 3052.65 17125.7 3065.17 17125.5 3077.69 17125.3 3090.2 17085.4 3102.72 17075 3115.24 17064.6 3127.76 17061.6 3140.28 17063.1 3152.8 17064.6 3165.31 17072.7 3177.83 17083.9 3190.35 17095.1 3202.87 17129.3 3215.39 17130.2 3227.91 17131.1 3240.43 17104.5 3252.94 17089.2 3265.46 17073.9 3277.98 17042.4 3290.5 17038.7 3303.02 17034.9 3315.54 17061.5 3328.06 17067 3340.57 17072.5 3353.09 17065.3 3365.61 17071.9 3378.13 17078.5 3390.65 17105.2 3403.17 17106.6 3415.69 17108.1 3428.2 17082.6 3440.72 17080.6 3453.24 17078.5 3465.76 17090.3 3478.28 17094.2 3490.8 17098.1 3503.31 17112.1 3515.83 17104.1 3528.35 17096.1 3540.87 17047.4 3553.39 17046.4 3565.91 17045.4 3578.43 17084 3590.94 17098 3603.46 17112 3622.24 17125 3628.5 17130.5" stroke="#000000" stroke-width="9.16667" stroke-linecap="round" stroke-linejoin="round" stroke-miterlimit="10" fill="none"/></g><g><text font-family="Inter,Inter_MSFontService,sans-serif" font-weight="400" font-size="32" transform="matrix(1 0 0 1 2542.69 17440)">80</text></g><g><text font-family="Inter,Inter_MSFontService,sans-serif" font-weight="400" font-size="32" transform="matrix(1 0 0 1 2542.46 17281)">90</text></g><g><text font-family="Inter,Inter_MSFontService,sans-serif" font-weight="400" font-size="32" transform="matrix(1 0 0 1 2527.52 17123)">100</text></g><g><text font-family="Inter,Inter_MSFontService,sans-serif" font-weight="400" font-size="32" transform="matrix(1 0 0 1 2532.67 16964)">110</text></g><g><text font-family="Inter,Inter_MSFontService,sans-serif" font-weight="400" font-size="32" transform="matrix(1 0 0 1 2528.16 16806)">120</text></g><g><text font-family="Inter,Inter_MSFontService,sans-serif" font-weight="400" font-size="32" transform="matrix(0.707107 -0.707107 0.707107 0.707107 2590.39 17505)">1/6</text></g><g><text font-family="Inter,Inter_MSFontService,sans-serif" font-weight="400" font-size="32" transform="matrix(0.707107 -0.707107 0.707107 0.707107 2690.45 17518)">1/27</text></g><g><text font-family="Inter,Inter_MSFontService,sans-serif" font-weight="400" font-size="32" transform="matrix(0.707107 -0.707107 0.707107 0.707107 2803.03 17518)">2/17</text></g><g><text font-family="Inter,Inter_MSFontService,sans-serif" font-weight="400" font-size="32" transform="matrix(0.707107 -0.707107 0.707107 0.707107 2924.23 17509)">3/9</text></g><g><text font-family="Inter,Inter_MSFontService,sans-serif" font-weight="400" font-size="32" transform="matrix(0.707107 -0.707107 0.707107 0.707107 3022.35 17524)">3/30</text></g><g><text font-family="Inter,Inter_MSFontService,sans-serif" font-weight="400" font-size="32" transform="matrix(0.707107 -0.707107 0.707107 0.707107 3135.51 17523)">4/20</text></g><g><text font-family="Inter,Inter_MSFontService,sans-serif" font-weight="400" font-size="32" transform="matrix(0.707107 -0.707107 0.707107 0.707107 3255.71 17516)">5/11</text></g><g><text font-family="Inter,Inter_MSFontService,sans-serif" font-weight="400" font-size="32" transform="matrix(0.707107 -0.707107 0.707107 0.707107 3378.47 17505)">6/1</text></g><g><text font-family="Inter,Inter_MSFontService,sans-serif" font-weight="400" font-size="32" transform="matrix(0.707107 -0.707107 0.707107 0.707107 3474.13 17522)">6/22</text></g><g><text font-family="Inter,Inter_MSFontService,sans-serif" font-weight="400" font-size="32" transform="matrix(0.707107 -0.707107 0.707107 0.707107 3590.39 17519)">7/13</text></g><g><text font-family="Inter,Inter_MSFontService,sans-serif" font-weight="400" font-size="32" transform="matrix(0.707107 -0.707107 0.707107 0.707107 3712.47 17509)">8/3</text></g><g><text font-family="Inter,Inter_MSFontService,sans-serif" font-weight="400" font-size="32" transform="matrix(0.707107 -0.707107 0.707107 0.707107 3811.2 17523)">8/24</text></g><g><text font-family="Inter,Inter_MSFontService,sans-serif" font-weight="400" font-size="32" transform="matrix(0.707107 -0.707107 0.707107 0.707107 3926.81 17520)">9/14</text></g><g><text font-family="Inter,Inter_MSFontService,sans-serif" font-weight="400" font-size="32" transform="matrix(0.707107 -0.707107 0.707107 0.707107 4040.14 17519)">10/5</text></g><g><text font-family="Inter,Inter_MSFontService,sans-serif" font-weight="400" font-size="32" transform="matrix(0.707107 -0.707107 0.707107 0.707107 4138.64 17533)">10/26</text></g><g><text font-family="Inter,Inter_MSFontService,sans-serif" font-weight="400" font-size="32" transform="matrix(0.707107 -0.707107 0.707107 0.707107 4258.06 17526)">11/16</text></g><g><text font-family="Inter,Inter_MSFontService,sans-serif" font-weight="400" font-size="32" transform="matrix(0.707107 -0.707107 0.707107 0.707107 4379.18 17518)">12/7</text></g><g><text font-family="Inter Medium,Inter Medium_MSFontService,sans-serif" font-weight="700" font-size="46" transform="matrix(1 0 0 1 2529.01 16644)">U.S. Hotel Occupancy and ADR Recovery Levels</text></g><g><path d="M2521.5 16735.5 2609.5 16735.5" stroke="#FFB226" stroke-width="9.16667" stroke-linecap="round" stroke-linejoin="round" stroke-miterlimit="10" fill="none" fill-rule="evenodd"/></g><g><text font-family="Inter Medium,Inter Medium_MSFontService,sans-serif" font-weight="500" font-size="37" transform="matrix(1 0 0 1 2618.39 16748)">Occ Index</text></g><g><path d="M2846.5 16735.5 2934.5 16735.5" stroke="#000000" stroke-width="9.16667" stroke-linecap="round" stroke-linejoin="round" stroke-miterlimit="10" fill="none" fill-rule="evenodd"/></g><g><text font-family="Inter Medium,Inter Medium_MSFontService,sans-serif" font-weight="500" font-size="37" transform="matrix(1 0 0 1 2943.74 16748)">ADR Index</text></g><rect x="2445.5" y="16556.5" width="2103" height="1022" stroke="#D9D9D9" stroke-width="3.4375" stroke-linejoin="round" stroke-miterlimit="10" fill="none"/><g><text fill="#7F7F7F" font-family="Inter,Inter_MSFontService,sans-serif" font-weight="400" font-size="32" transform="matrix(1 0 0 1 2526.75 16697)">Indexed to 2023, Source: STR, str.com</text></g></g></svg>