<svg width="2106" height="1059" xmlns="http://www.w3.org/2000/svg" xmlns:xlink="http://www.w3.org/1999/xlink" xml:space="preserve" overflow="hidden"><defs><filter id="fx0" x="-10%" y="-10%" width="120%" height="120%" filterUnits="userSpaceOnUse" primitiveUnits="userSpaceOnUse"><feComponentTransfer color-interpolation-filters="sRGB"><feFuncR type="discrete" tableValues="0 0"/><feFuncG type="discrete" tableValues="0 0"/><feFuncB type="discrete" tableValues="0 0"/><feFuncA type="linear" slope="0.501961" intercept="0"/></feComponentTransfer><feGaussianBlur stdDeviation="4.58333 4.58333"/></filter><filter id="fx1" x="-10%" y="-10%" width="120%" height="120%" filterUnits="userSpaceOnUse" primitiveUnits="userSpaceOnUse"><feComponentTransfer color-interpolation-filters="sRGB"><feFuncR type="discrete" tableValues="0 0"/><feFuncG type="discrete" tableValues="0 0"/><feFuncB type="discrete" tableValues="0 0"/><feFuncA type="linear" slope="0.501961" intercept="0"/></feComponentTransfer><feGaussianBlur stdDeviation="4.58333 4.58333"/></filter><clipPath id="clip2"><rect x="2444" y="17126" width="2106" height="1059"/></clipPath><clipPath id="clip3"><rect x="2612" y="17374" width="1885" height="659"/></clipPath><clipPath id="clip4"><rect x="2612" y="17374" width="1885" height="659"/></clipPath></defs><g clip-path="url(#clip2)" transform="translate(-2444 -17126)"><rect x="2445" y="17127" width="2103" height="1056" fill="#FFFFFF"/><g><path d="M2612.5 17702.5 4494.5 17702.5" stroke="#D9D9D9" stroke-width="3.4375" stroke-linejoin="round" stroke-miterlimit="10" fill="none" fill-rule="evenodd"/></g><g clip-path="url(#clip3)"><g filter="url(#fx0)" transform="translate(2601 17608)"><g><path d="M19.9819 114.724C32.4945 125.026 45.0075 137.882 57.5205 145.63 70.0331 153.378 82.5461 168.189 95.059 161.213 107.572 154.236 120.085 113.334 132.598 103.769 145.11 94.2042 157.623 96.7608 170.136 103.822 182.648 110.883 195.161 139.456 207.674 146.136 220.187 152.816 232.7 142.107 245.213 143.902 257.725 145.697 270.238 162.778 282.751 156.908 295.264 151.037 307.777 111.698 320.29 108.677 332.802 105.656 345.315 135.647 357.828 138.78 370.341 141.913 382.854 135.476 395.367 127.477 407.879 119.477 420.392 79.1622 432.905 90.7847 445.418 102.407 457.93 207.982 470.443 197.212 482.956 186.441 495.469 49.0137 507.982 26.1627 520.127 3.98242 533.375 46.4462 545.52 60.106 558.033 74.1785 570.546 100.123 583.059 110.599 595.572 121.075 608.084 121.243 620.597 122.965 633.11 124.687 645.623 128.801 658.136 120.931 670.648 113.06 683.161 78.683 695.674 75.7427 708.187 72.802 720.7 102.773 733.213 103.287 745.725 103.802 758.238 81.0041 770.751 78.8304 783.264 76.6563 795.776 85.394 808.289 90.2447 820.802 95.095 833.315 104.239 845.828 107.934 858.341 111.629 870.854 106.339 883.367 112.414 895.879 118.489 908.392 154.108 920.905 144.384 933.417 134.66 945.93 59.1189 958.443 54.0711 970.956 49.023 989.725 104.092 995.982 114.096" stroke="#FFB226" stroke-width="9" stroke-linecap="round" stroke-linejoin="round" stroke-miterlimit="10" fill="none"/></g></g></g><g clip-path="url(#clip4)"><g filter="url(#fx1)" transform="translate(2601 17580)"><g><path d="M19.9819 21.6563C32.4945 23.3548 45.0075 12.9824 57.5205 26.7521 70.0331 40.5214 82.5461 100.835 95.059 104.274 107.572 107.712 120.085 48.2321 132.598 47.3831 145.11 46.5337 157.623 103.659 170.136 99.1792 182.648 94.6986 195.161 26.2831 207.674 20.5008 220.187 14.7181 232.7 46.6015 245.213 64.484 257.725 82.366 270.238 124.16 282.751 127.794 295.264 131.427 307.777 83.9497 320.29 86.2828 332.802 88.6155 345.315 128.417 357.828 141.791 370.341 155.164 382.854 174.982 395.367 166.521 407.879 158.061 420.392 95.1152 432.905 91.0251 445.418 86.9351 457.93 142.182 470.443 141.981 482.956 141.78 495.469 100.555 507.982 89.8187 520.495 79.0825 533.007 76.0227 545.52 77.5638 558.033 79.1045 570.546 87.5268 583.059 99.0644 595.572 110.602 608.084 145.88 620.597 146.788 633.11 147.696 645.623 120.251 658.136 104.511 670.648 88.7711 683.161 56.1653 695.674 52.3467 708.187 48.5278 720.7 75.8776 733.213 81.5989 745.725 87.3199 758.238 79.8557 770.751 86.6745 783.264 93.4929 795.776 121.026 808.289 122.511 820.802 123.996 833.315 97.7251 845.828 95.5848 858.341 93.4441 870.854 105.619 883.367 109.667 895.879 113.716 908.392 128.093 920.905 119.875 933.417 111.657 945.93 61.4069 958.443 60.3593 970.956 59.3113 989.725 104.717 995.982 113.589" stroke="#000000" stroke-width="9" stroke-linecap="round" stroke-linejoin="round" stroke-miterlimit="10" fill="none"/></g></g></g><g><path d="M2614.5 17716.2C2627.01 17726.5 2639.53 17739.4 2652.04 17747.1 2664.55 17754.9 2677.06 17769.7 2689.58 17762.7 2702.09 17755.8 2714.6 17714.9 2727.12 17705.3 2739.63 17695.7 2752.14 17698.3 2764.65 17705.3 2777.17 17712.4 2789.68 17741 2802.19 17747.7 2814.7 17754.3 2827.22 17743.6 2839.73 17745.4 2852.24 17747.2 2864.76 17764.3 2877.27 17758.4 2889.78 17752.6 2902.29 17713.2 2914.81 17710.2 2927.32 17707.2 2939.83 17737.2 2952.35 17740.3 2964.86 17743.4 2977.37 17737 2989.88 17729 3002.4 17721 3014.91 17680.7 3027.42 17692.3 3039.94 17703.9 3052.45 17809.5 3064.96 17798.7 3077.47 17788 3089.99 17650.5 3102.5 17627.7 3114.65 17605.5 3127.89 17648 3140.04 17661.6 3152.55 17675.7 3165.06 17701.6 3177.58 17712.1 3190.09 17722.6 3202.6 17722.8 3215.12 17724.5 3227.63 17726.2 3240.14 17730.3 3252.65 17722.4 3265.17 17714.6 3277.68 17680.2 3290.19 17677.3 3302.7 17674.3 3315.22 17704.3 3327.73 17704.8 3340.24 17705.3 3352.76 17682.5 3365.27 17680.3 3377.78 17678.2 3390.29 17686.9 3402.81 17691.8 3415.32 17696.6 3427.83 17705.8 3440.35 17709.5 3452.86 17713.1 3465.37 17707.9 3477.88 17713.9 3490.4 17720 3502.91 17755.6 3515.42 17745.9 3527.94 17736.2 3540.45 17660.6 3552.96 17655.6 3565.47 17650.5 3584.24 17705.6 3590.5 17715.6" stroke="#FFB226" stroke-width="9.16667" stroke-linecap="round" stroke-linejoin="round" stroke-miterlimit="10" fill="none"/></g><g><path d="M2614.5 17595.2C2627.01 17596.9 2639.53 17586.5 2652.04 17600.3 2664.55 17614 2677.06 17674.4 2689.58 17677.8 2702.09 17681.2 2714.6 17621.8 2727.12 17620.9 2739.63 17620.1 2752.14 17677.2 2764.65 17672.7 2777.17 17668.2 2789.68 17599.8 2802.19 17594 2814.7 17588.2 2827.22 17620.1 2839.73 17638 2852.24 17655.9 2864.76 17697.7 2877.27 17701.3 2889.78 17704.9 2902.29 17657.5 2914.81 17659.8 2927.32 17662.1 2939.83 17701.9 2952.35 17715.3 2964.86 17728.7 2977.37 17748.5 2989.88 17740 3002.4 17731.6 3014.91 17668.6 3027.42 17664.5 3039.94 17660.5 3052.45 17715.7 3064.96 17715.5 3077.47 17715.3 3089.99 17674.1 3102.5 17663.3 3115.01 17652.6 3127.53 17649.5 3140.04 17651.1 3152.55 17652.6 3165.06 17661 3177.58 17672.6 3190.09 17684.1 3202.6 17719.4 3215.12 17720.3 3227.63 17721.2 3240.14 17693.8 3252.65 17678 3265.17 17662.3 3277.68 17629.7 3290.19 17625.9 3302.7 17622 3315.22 17649.4 3327.73 17655.1 3340.24 17660.8 3352.76 17653.4 3365.27 17660.2 3377.78 17667 3390.29 17694.5 3402.81 17696 3415.32 17697.5 3427.83 17671.2 3440.35 17669.1 3452.86 17667 3465.37 17679.1 3477.88 17683.2 3490.4 17687.2 3502.91 17701.6 3515.42 17693.4 3527.94 17685.2 3540.45 17634.9 3552.96 17633.9 3565.47 17632.8 3584.24 17678.2 3590.5 17687.1" stroke="#000000" stroke-width="9.16667" stroke-linecap="round" stroke-linejoin="round" stroke-miterlimit="10" fill="none"/></g><g><text font-family="Inter,Inter_MSFontService,sans-serif" font-weight="400" font-size="32" transform="matrix(1 0 0 1 2542.69 18040)">80</text></g><g><text font-family="Inter,Inter_MSFontService,sans-serif" font-weight="400" font-size="32" transform="matrix(1 0 0 1 2542.46 17876)">90</text></g><g><text font-family="Inter,Inter_MSFontService,sans-serif" font-weight="400" font-size="32" transform="matrix(1 0 0 1 2527.52 17712)">100</text></g><g><text font-family="Inter,Inter_MSFontService,sans-serif" font-weight="400" font-size="32" transform="matrix(1 0 0 1 2532.67 17548)">110</text></g><g><text font-family="Inter,Inter_MSFontService,sans-serif" font-weight="400" font-size="32" transform="matrix(1 0 0 1 2528.16 17385)">120</text></g><g><text font-family="Inter,Inter_MSFontService,sans-serif" font-weight="400" font-size="32" transform="matrix(0.707107 -0.707107 0.707107 0.707107 2590.39 18105)">1/6</text></g><g><text font-family="Inter,Inter_MSFontService,sans-serif" font-weight="400" font-size="32" transform="matrix(0.707107 -0.707107 0.707107 0.707107 2690.45 18118)">1/27</text></g><g><text font-family="Inter,Inter_MSFontService,sans-serif" font-weight="400" font-size="32" transform="matrix(0.707107 -0.707107 0.707107 0.707107 2803.03 18118)">2/17</text></g><g><text font-family="Inter,Inter_MSFontService,sans-serif" font-weight="400" font-size="32" transform="matrix(0.707107 -0.707107 0.707107 0.707107 2924.23 18109)">3/9</text></g><g><text font-family="Inter,Inter_MSFontService,sans-serif" font-weight="400" font-size="32" transform="matrix(0.707107 -0.707107 0.707107 0.707107 3022.35 18124)">3/30</text></g><g><text font-family="Inter,Inter_MSFontService,sans-serif" font-weight="400" font-size="32" transform="matrix(0.707107 -0.707107 0.707107 0.707107 3135.51 18123)">4/20</text></g><g><text font-family="Inter,Inter_MSFontService,sans-serif" font-weight="400" font-size="32" transform="matrix(0.707107 -0.707107 0.707107 0.707107 3255.71 18116)">5/11</text></g><g><text font-family="Inter,Inter_MSFontService,sans-serif" font-weight="400" font-size="32" transform="matrix(0.707107 -0.707107 0.707107 0.707107 3378.47 18105)">6/1</text></g><g><text font-family="Inter,Inter_MSFontService,sans-serif" font-weight="400" font-size="32" transform="matrix(0.707107 -0.707107 0.707107 0.707107 3474.13 18122)">6/22</text></g><g><text font-family="Inter,Inter_MSFontService,sans-serif" font-weight="400" font-size="32" transform="matrix(0.707107 -0.707107 0.707107 0.707107 3590.39 18119)">7/13</text></g><g><text font-family="Inter,Inter_MSFontService,sans-serif" font-weight="400" font-size="32" transform="matrix(0.707107 -0.707107 0.707107 0.707107 3712.47 18109)">8/3</text></g><g><text font-family="Inter,Inter_MSFontService,sans-serif" font-weight="400" font-size="32" transform="matrix(0.707107 -0.707107 0.707107 0.707107 3811.2 18123)">8/24</text></g><g><text font-family="Inter,Inter_MSFontService,sans-serif" font-weight="400" font-size="32" transform="matrix(0.707107 -0.707107 0.707107 0.707107 3926.81 18120)">9/14</text></g><g><text font-family="Inter,Inter_MSFontService,sans-serif" font-weight="400" font-size="32" transform="matrix(0.707107 -0.707107 0.707107 0.707107 4040.14 18119)">10/5</text></g><g><text font-family="Inter,Inter_MSFontService,sans-serif" font-weight="400" font-size="32" transform="matrix(0.707107 -0.707107 0.707107 0.707107 4138.64 18133)">10/26</text></g><g><text font-family="Inter,Inter_MSFontService,sans-serif" font-weight="400" font-size="32" transform="matrix(0.707107 -0.707107 0.707107 0.707107 4258.06 18126)">11/16</text></g><g><text font-family="Inter,Inter_MSFontService,sans-serif" font-weight="400" font-size="32" transform="matrix(0.707107 -0.707107 0.707107 0.707107 4379.18 18118)">12/7</text></g><g><text font-family="Inter Medium,Inter Medium_MSFontService,sans-serif" font-weight="700" font-size="46" transform="matrix(1 0 0 1 2529.01 17216)">U.S. Hotel Occupancy and ADR Recovery Levels</text></g><g><path d="M2521.5 17312.5 2609.5 17312.5" stroke="#FFB226" stroke-width="9.16667" stroke-linecap="round" stroke-linejoin="round" stroke-miterlimit="10" fill="none" fill-rule="evenodd"/></g><g><text font-family="Inter Medium,Inter Medium_MSFontService,sans-serif" font-weight="500" font-size="37" transform="matrix(1 0 0 1 2618.39 17324)">Occ Index</text></g><g><path d="M2846.5 17312.5 2934.5 17312.5" stroke="#000000" stroke-width="9.16667" stroke-linecap="round" stroke-linejoin="round" stroke-miterlimit="10" fill="none" fill-rule="evenodd"/></g><g><text font-family="Inter Medium,Inter Medium_MSFontService,sans-serif" font-weight="500" font-size="37" transform="matrix(1 0 0 1 2943.74 17324)">ADR Index</text></g><rect x="2445.5" y="17127.5" width="2103" height="1056" stroke="#D9D9D9" stroke-width="3.4375" stroke-linejoin="round" stroke-miterlimit="10" fill="none"/><g><text fill="#7F7F7F" font-family="Inter,Inter_MSFontService,sans-serif" font-weight="400" font-size="32" transform="matrix(1 0 0 1 2526.75 17270)">Indexed to 2023, Source: STR, str.com</text></g></g></svg>