<svg width="2103" height="1030" xmlns="http://www.w3.org/2000/svg" xmlns:xlink="http://www.w3.org/1999/xlink" xml:space="preserve" overflow="hidden"><defs><filter id="fx0" x="-10%" y="-10%" width="120%" height="120%" filterUnits="userSpaceOnUse" primitiveUnits="userSpaceOnUse"><feComponentTransfer color-interpolation-filters="sRGB"><feFuncR type="discrete" tableValues="0 0"/><feFuncG type="discrete" tableValues="0 0"/><feFuncB type="discrete" tableValues="0 0"/><feFuncA type="linear" slope="0.501961" intercept="0"/></feComponentTransfer><feGaussianBlur stdDeviation="4.58333 4.58333"/></filter><filter id="fx1" x="-10%" y="-10%" width="120%" height="120%" filterUnits="userSpaceOnUse" primitiveUnits="userSpaceOnUse"><feComponentTransfer color-interpolation-filters="sRGB"><feFuncR type="discrete" tableValues="0 0"/><feFuncG type="discrete" tableValues="0 0"/><feFuncB type="discrete" tableValues="0 0"/><feFuncA type="linear" slope="0.501961" intercept="0"/></feComponentTransfer><feGaussianBlur stdDeviation="4.58333 4.58333"/></filter><clipPath id="clip2"><rect x="2440" y="16650" width="2103" height="1030"/></clipPath><clipPath id="clip3"><rect x="2607" y="16892" width="1882" height="641"/></clipPath><clipPath id="clip4"><rect x="2607" y="16892" width="1882" height="641"/></clipPath></defs><g clip-path="url(#clip2)" transform="translate(-2440 -16650)"><rect x="2441" y="16651" width="2100" height="1027" fill="#FFFFFF"/><g><path d="M2607.5 17211.5 4486.5 17211.5" stroke="#D9D9D9" stroke-width="3.4375" stroke-linejoin="round" stroke-miterlimit="10" fill="none" fill-rule="evenodd"/></g><g clip-path="url(#clip3)"><g filter="url(#fx0)" transform="translate(2597 17119)"><g><path d="M19.9817 112.092C32.4719 122.133 44.9621 134.662 57.4523 142.214 69.9426 149.765 82.4328 164.2 94.923 157.401 107.413 150.601 119.903 110.738 132.394 101.416 144.883 92.0932 157.374 94.5847 169.864 101.467 182.354 108.349 194.844 136.196 207.335 142.707 219.825 149.217 232.315 138.78 244.805 140.53 257.295 142.279 269.786 158.926 282.276 153.205 294.766 147.483 307.256 109.143 319.747 106.199 332.236 103.254 344.727 132.484 357.217 135.538 369.707 138.591 382.197 132.317 394.687 124.521 407.178 116.725 419.668 77.4332 432.158 88.7607 444.648 100.088 457.139 202.982 469.629 192.486 482.119 181.989 494.609 48.0504 507.099 25.7797 519.324 3.98242 532.345 45.4372 544.57 58.8608 557.06 72.576 569.55 97.8616 582.04 108.072 594.531 118.282 607.021 118.446 619.511 120.124 632.001 121.802 650.736 118.472 656.982 118.142" stroke="#FFB226" stroke-width="9" stroke-linecap="round" stroke-linejoin="round" stroke-miterlimit="10" fill="none"/></g></g></g><g clip-path="url(#clip4)"><g filter="url(#fx1)" transform="translate(2597 17092)"><g><path d="M19.9817 21.3889C32.4719 23.0348 44.9621 12.9824 57.4523 26.3273 69.9426 39.6719 82.4328 98.1242 94.923 101.457 107.413 104.789 119.903 47.1445 132.394 46.3217 144.883 45.4986 157.374 100.861 169.864 96.5193 182.354 92.177 194.844 25.8732 207.335 20.2691 219.825 14.665 232.315 45.5644 244.805 62.8948 257.295 80.2249 269.786 120.729 282.276 124.25 294.766 127.771 307.256 81.7597 319.747 84.0209 332.236 86.2817 344.727 124.855 357.217 137.816 369.707 150.776 382.197 169.983 394.687 161.783 407.178 153.583 419.668 92.5805 432.158 88.617 444.648 84.653 457.139 138.195 469.629 138 482.119 137.805 494.609 97.8523 507.099 87.4475 519.589 77.0424 532.08 74.0774 544.57 75.5709 557.06 77.0639 569.55 85.2262 582.04 96.4078 594.531 107.589 607.021 141.779 619.511 142.659 632.001 143.538 650.736 108.516 656.982 101.687" stroke="#000000" stroke-width="9" stroke-linecap="round" stroke-linejoin="round" stroke-miterlimit="10" fill="none"/></g></g></g><g><path d="M2610.5 17224.6C2622.99 17234.7 2635.48 17247.2 2647.97 17254.7 2660.46 17262.3 2672.95 17276.7 2685.44 17269.9 2697.93 17263.1 2710.42 17223.3 2722.91 17213.9 2735.4 17204.6 2747.89 17207.1 2760.38 17214 2772.87 17220.9 2785.36 17248.7 2797.85 17255.2 2810.34 17261.7 2822.83 17251.3 2835.32 17253 2847.81 17254.8 2860.3 17271.4 2872.79 17265.7 2885.28 17260 2897.77 17221.7 2910.26 17218.7 2922.75 17215.8 2935.24 17245 2947.74 17248.1 2960.23 17251.1 2972.72 17244.8 2985.21 17237 2997.7 17229.2 3010.19 17190 3022.68 17201.3 3035.17 17212.6 3047.66 17315.5 3060.15 17305 3072.64 17294.5 3085.13 17160.6 3097.62 17138.3 3109.84 17116.5 3122.86 17158 3135.09 17171.4 3147.58 17185.1 3160.07 17210.4 3172.56 17220.6 3185.05 17230.8 3197.54 17231 3210.03 17232.6 3222.52 17234.3 3241.25 17231 3247.5 17230.7" stroke="#FFB226" stroke-width="9.16667" stroke-linecap="round" stroke-linejoin="round" stroke-miterlimit="10" fill="none"/></g><g><path d="M2610.5 17106.9C2622.99 17108.6 2635.48 17098.5 2647.97 17111.8 2660.46 17125.2 2672.95 17183.6 2685.44 17187 2697.93 17190.3 2710.42 17132.7 2722.91 17131.8 2735.4 17131 2747.89 17186.4 2760.38 17182 2772.87 17177.7 2785.36 17111.4 2797.85 17105.8 2810.34 17100.2 2822.83 17131.1 2835.32 17148.4 2847.81 17165.7 2860.3 17206.2 2872.79 17209.8 2885.28 17213.3 2897.77 17167.3 2910.26 17169.5 2922.75 17171.8 2935.24 17210.4 2947.74 17223.3 2960.23 17236.3 2972.72 17255.5 2985.21 17247.3 2997.7 17239.1 3010.19 17178.1 3022.68 17174.1 3035.17 17170.2 3047.66 17223.7 3060.15 17223.5 3072.64 17223.3 3085.13 17183.4 3097.62 17173 3110.11 17162.6 3122.6 17159.6 3135.09 17161.1 3147.58 17162.6 3160.07 17170.7 3172.56 17181.9 3185.05 17193.1 3197.54 17227.3 3210.03 17228.2 3222.52 17229.1 3241.25 17194 3247.5 17187.2" stroke="#000000" stroke-width="9.16667" stroke-linecap="round" stroke-linejoin="round" stroke-miterlimit="10" fill="none"/></g><g><text font-family="Inter,Inter_MSFontService,sans-serif" font-weight="400" font-size="32" transform="matrix(1 0 0 1 2538.21 17540)">80</text></g><g><text font-family="Inter,Inter_MSFontService,sans-serif" font-weight="400" font-size="32" transform="matrix(1 0 0 1 2537.98 17380)">90</text></g><g><text font-family="Inter,Inter_MSFontService,sans-serif" font-weight="400" font-size="32" transform="matrix(1 0 0 1 2523.04 17221)">100</text></g><g><text font-family="Inter,Inter_MSFontService,sans-serif" font-weight="400" font-size="32" transform="matrix(1 0 0 1 2528.2 17062)">110</text></g><g><text font-family="Inter,Inter_MSFontService,sans-serif" font-weight="400" font-size="32" transform="matrix(1 0 0 1 2523.68 16902)">120</text></g><g><text font-family="Inter,Inter_MSFontService,sans-serif" font-weight="400" font-size="32" transform="matrix(0.707107 -0.707107 0.707107 0.707107 2585.92 17605)">1/6</text></g><g><text font-family="Inter,Inter_MSFontService,sans-serif" font-weight="400" font-size="32" transform="matrix(0.707107 -0.707107 0.707107 0.707107 2685.79 17618)">1/27</text></g><g><text font-family="Inter,Inter_MSFontService,sans-serif" font-weight="400" font-size="32" transform="matrix(0.707107 -0.707107 0.707107 0.707107 2798.18 17618)">2/17</text></g><g><text font-family="Inter,Inter_MSFontService,sans-serif" font-weight="400" font-size="32" transform="matrix(0.707107 -0.707107 0.707107 0.707107 2919.2 17609)">3/9</text></g><g><text font-family="Inter,Inter_MSFontService,sans-serif" font-weight="400" font-size="32" transform="matrix(0.707107 -0.707107 0.707107 0.707107 3017.13 17624)">3/30</text></g><g><text font-family="Inter,Inter_MSFontService,sans-serif" font-weight="400" font-size="32" transform="matrix(0.707107 -0.707107 0.707107 0.707107 3130.11 17623)">4/20</text></g><g><text font-family="Inter,Inter_MSFontService,sans-serif" font-weight="400" font-size="32" transform="matrix(0.707107 -0.707107 0.707107 0.707107 3250.13 17616)">5/11</text></g><g><text font-family="Inter,Inter_MSFontService,sans-serif" font-weight="400" font-size="32" transform="matrix(0.707107 -0.707107 0.707107 0.707107 3372.7 17605)">6/1</text></g><g><text font-family="Inter,Inter_MSFontService,sans-serif" font-weight="400" font-size="32" transform="matrix(0.707107 -0.707107 0.707107 0.707107 3468.18 17622)">6/22</text></g><g><text font-family="Inter,Inter_MSFontService,sans-serif" font-weight="400" font-size="32" transform="matrix(0.707107 -0.707107 0.707107 0.707107 3584.26 17619)">7/13</text></g><g><text font-family="Inter,Inter_MSFontService,sans-serif" font-weight="400" font-size="32" transform="matrix(0.707107 -0.707107 0.707107 0.707107 3706.15 17609)">8/3</text></g><g><text font-family="Inter,Inter_MSFontService,sans-serif" font-weight="400" font-size="32" transform="matrix(0.707107 -0.707107 0.707107 0.707107 3804.69 17623)">8/24</text></g><g><text font-family="Inter,Inter_MSFontService,sans-serif" font-weight="400" font-size="32" transform="matrix(0.707107 -0.707107 0.707107 0.707107 3920.12 17620)">9/14</text></g><g><text font-family="Inter,Inter_MSFontService,sans-serif" font-weight="400" font-size="32" transform="matrix(0.707107 -0.707107 0.707107 0.707107 4033.27 17619)">10/5</text></g><g><text font-family="Inter,Inter_MSFontService,sans-serif" font-weight="400" font-size="32" transform="matrix(0.707107 -0.707107 0.707107 0.707107 4131.58 17633)">10/26</text></g><g><text font-family="Inter,Inter_MSFontService,sans-serif" font-weight="400" font-size="32" transform="matrix(0.707107 -0.707107 0.707107 0.707107 4250.82 17626)">11/16</text></g><g><text font-family="Inter,Inter_MSFontService,sans-serif" font-weight="400" font-size="32" transform="matrix(0.707107 -0.707107 0.707107 0.707107 4371.76 17618)">12/7</text></g><g><text font-family="Inter Medium,Inter Medium_MSFontService,sans-serif" font-weight="700" font-size="46" transform="matrix(1 0 0 1 2524.69 16740)">U.S. Hotel Occupancy and ADR Recovery Levels</text></g><g><path d="M2516.5 16831.5 2604.5 16831.5" stroke="#FFB226" stroke-width="9.16667" stroke-linecap="round" stroke-linejoin="round" stroke-miterlimit="10" fill="none" fill-rule="evenodd"/></g><g><text font-family="Inter Medium,Inter Medium_MSFontService,sans-serif" font-weight="500" font-size="37" transform="matrix(1 0 0 1 2613.78 16844)">Occ Index</text></g><g><path d="M2841.5 16831.5 2929.5 16831.5" stroke="#000000" stroke-width="9.16667" stroke-linecap="round" stroke-linejoin="round" stroke-miterlimit="10" fill="none" fill-rule="evenodd"/></g><g><text font-family="Inter Medium,Inter Medium_MSFontService,sans-serif" font-weight="500" font-size="37" transform="matrix(1 0 0 1 2938.74 16844)">ADR Index</text></g><rect x="2441.5" y="16651.5" width="2100" height="1027" stroke="#D9D9D9" stroke-width="3.4375" stroke-linejoin="round" stroke-miterlimit="10" fill="none"/><g><text fill="#7F7F7F" font-family="Inter,Inter_MSFontService,sans-serif" font-weight="400" font-size="32" transform="matrix(1 0 0 1 2522.47 16792)">Indexed to 2023, Source: STR, str.com</text></g></g></svg>