<svg width="2106" height="1059" xmlns="http://www.w3.org/2000/svg" xmlns:xlink="http://www.w3.org/1999/xlink" xml:space="preserve" overflow="hidden"><defs><filter id="fx0" x="-10%" y="-10%" width="120%" height="120%" filterUnits="userSpaceOnUse" primitiveUnits="userSpaceOnUse"><feComponentTransfer color-interpolation-filters="sRGB"><feFuncR type="discrete" tableValues="0 0"/><feFuncG type="discrete" tableValues="0 0"/><feFuncB type="discrete" tableValues="0 0"/><feFuncA type="linear" slope="0.501961" intercept="0"/></feComponentTransfer><feGaussianBlur stdDeviation="4.58333 4.58333"/></filter><filter id="fx1" x="-10%" y="-10%" width="120%" height="120%" filterUnits="userSpaceOnUse" primitiveUnits="userSpaceOnUse"><feComponentTransfer color-interpolation-filters="sRGB"><feFuncR type="discrete" tableValues="0 0"/><feFuncG type="discrete" tableValues="0 0"/><feFuncB type="discrete" tableValues="0 0"/><feFuncA type="linear" slope="0.501961" intercept="0"/></feComponentTransfer><feGaussianBlur stdDeviation="4.58333 4.58333"/></filter><clipPath id="clip2"><rect x="2444" y="16555" width="2106" height="1059"/></clipPath><clipPath id="clip3"><rect x="2612" y="16804" width="1885" height="658"/></clipPath><clipPath id="clip4"><rect x="2612" y="16804" width="1885" height="658"/></clipPath></defs><g clip-path="url(#clip2)" transform="translate(-2444 -16555)"><rect x="2445" y="16556" width="2103" height="1056" fill="#FFFFFF"/><g><path d="M2612.5 17131.5 4494.5 17131.5" stroke="#D9D9D9" stroke-width="3.4375" stroke-linejoin="round" stroke-miterlimit="10" fill="none" fill-rule="evenodd"/></g><g clip-path="url(#clip3)"><g filter="url(#fx0)" transform="translate(2601 17037)"><g><path d="M19.9819 114.724C32.4936 125.026 45.0057 137.882 57.5177 145.63 70.0294 153.378 82.5415 168.189 95.0535 161.213 107.565 154.236 120.077 113.334 132.589 103.77 145.101 94.2043 157.613 96.7606 170.125 103.822 182.636 110.883 195.149 139.456 207.661 146.136 220.172 152.816 232.684 142.107 245.196 143.902 257.708 145.697 270.22 162.778 282.732 156.907 295.244 151.037 307.756 111.698 320.268 108.677 332.779 105.656 345.291 135.647 357.803 138.78 370.315 141.913 382.827 135.476 395.339 127.477 407.851 119.477 420.363 79.1623 432.875 90.7849 445.387 102.407 457.898 207.982 470.41 197.212 482.922 186.441 495.434 49.0134 507.946 26.1627 520.09 3.98242 533.337 46.4463 545.482 60.1061 557.994 74.1787 570.506 100.123 583.018 110.599 595.529 121.076 608.041 121.243 620.553 122.965 633.065 124.687 645.577 128.802 658.089 120.931 670.601 113.061 683.113 78.6828 695.625 75.7425 708.137 72.8018 720.649 102.773 733.161 103.288 745.672 103.802 758.184 81.0039 770.696 78.8301 783.208 76.6561 795.72 85.3942 808.232 90.2449 820.744 95.0952 833.256 104.239 845.768 107.934 858.279 111.629 870.791 106.339 883.303 112.414 895.815 118.489 908.327 154.108 920.839 144.385 933.351 134.661 945.863 59.1186 958.375 54.0709 970.886 49.0228 983.398 95.6972 995.911 114.096 1008.42 132.495 1020.93 168.914 1033.45 164.465 1045.96 160.016 1064.73 100.247 1070.98 87.404" stroke="#FFB226" stroke-width="9" stroke-linecap="round" stroke-linejoin="round" stroke-miterlimit="10" fill="none"/></g></g></g><g clip-path="url(#clip4)"><g filter="url(#fx1)" transform="translate(2601 17009)"><g><path d="M19.9819 21.6563C32.4936 23.3548 45.0057 12.9824 57.5177 26.7521 70.0294 40.5217 82.5415 100.835 95.0535 104.274 107.565 107.713 120.077 48.2321 132.589 47.3831 145.101 46.5337 157.613 103.659 170.125 99.1792 182.636 94.6986 195.149 26.2831 207.661 20.5008 220.172 14.7181 232.684 46.6019 245.196 64.4843 257.708 82.3664 270.22 124.16 282.732 127.794 295.244 131.427 307.756 83.9497 320.268 86.2828 332.779 88.6155 345.291 128.418 357.803 141.791 370.315 155.164 382.827 174.982 395.339 166.521 407.851 158.061 420.363 95.1152 432.875 91.0255 445.387 86.9355 457.898 142.183 470.41 141.982 482.922 141.781 495.434 100.555 507.946 89.8191 520.458 79.0828 532.97 76.0231 545.482 77.5641 557.994 79.1048 570.506 87.5268 583.018 99.0644 595.529 110.602 608.041 145.881 620.553 146.789 633.065 147.696 645.577 120.252 658.089 104.512 670.601 88.7715 683.113 56.1656 695.625 52.3471 708.137 48.5282 720.649 75.8776 733.161 81.5989 745.672 87.3199 758.184 79.8561 770.696 86.6748 783.208 93.4936 795.72 121.026 808.232 122.512 820.744 123.996 833.256 97.7255 845.768 95.5848 858.279 93.4441 870.791 105.619 883.303 109.667 895.815 113.716 908.327 128.093 920.839 119.875 933.351 111.657 945.863 61.4072 958.375 60.3596 970.886 59.3117 983.398 99.1359 995.911 113.589 1008.42 128.042 1020.93 151.716 1033.45 147.077 1045.96 142.439 1064.73 95.9772 1070.98 85.7572" stroke="#000000" stroke-width="9" stroke-linecap="round" stroke-linejoin="round" stroke-miterlimit="10" fill="none"/></g></g></g><g><path d="M2614.5 17145.2C2627.01 17155.5 2639.52 17168.4 2652.04 17176.1 2664.55 17183.9 2677.06 17198.7 2689.57 17191.7 2702.08 17184.8 2714.6 17143.9 2727.11 17134.3 2739.62 17124.7 2752.13 17127.3 2764.64 17134.3 2777.15 17141.4 2789.67 17170 2802.18 17176.7 2814.69 17183.3 2827.2 17172.6 2839.71 17174.4 2852.23 17176.2 2864.74 17193.3 2877.25 17187.4 2889.76 17181.6 2902.27 17142.2 2914.79 17139.2 2927.3 17136.2 2939.81 17166.2 2952.32 17169.3 2964.83 17172.4 2977.35 17166 2989.86 17158 3002.37 17150 3014.88 17109.7 3027.39 17121.3 3039.9 17132.9 3052.42 17238.5 3064.93 17227.7 3077.44 17217 3089.95 17079.5 3102.46 17056.7 3114.61 17034.5 3127.86 17077 3140 17090.6 3152.51 17104.7 3165.02 17130.6 3177.54 17141.1 3190.05 17151.6 3202.56 17151.8 3215.07 17153.5 3227.58 17155.2 3240.1 17159.3 3252.61 17151.4 3265.12 17143.6 3277.63 17109.2 3290.14 17106.3 3302.65 17103.3 3315.17 17133.3 3327.68 17133.8 3340.19 17134.3 3352.7 17111.5 3365.21 17109.3 3377.73 17107.2 3390.24 17115.9 3402.75 17120.8 3415.26 17125.6 3427.77 17134.8 3440.29 17138.5 3452.8 17142.1 3465.31 17136.9 3477.82 17142.9 3490.33 17149 3502.84 17184.6 3515.36 17174.9 3527.87 17165.2 3540.38 17089.6 3552.89 17084.6 3565.4 17079.5 3577.92 17126.2 3590.43 17144.6 3602.94 17163 3615.45 17199.4 3627.96 17195 3640.48 17190.5 3659.24 17130.8 3665.5 17117.9" stroke="#FFB226" stroke-width="9.16667" stroke-linecap="round" stroke-linejoin="round" stroke-miterlimit="10" fill="none"/></g><g><path d="M2614.5 17024.2C2627.01 17025.9 2639.52 17015.5 2652.04 17029.3 2664.55 17043 2677.06 17103.4 2689.57 17106.8 2702.08 17110.2 2714.6 17050.8 2727.11 17049.9 2739.62 17049.1 2752.13 17106.2 2764.64 17101.7 2777.15 17097.2 2789.67 17028.8 2802.18 17023 2814.69 17017.2 2827.2 17049.1 2839.71 17067 2852.23 17084.9 2864.74 17126.7 2877.25 17130.3 2889.76 17133.9 2902.27 17086.5 2914.79 17088.8 2927.3 17091.1 2939.81 17130.9 2952.32 17144.3 2964.83 17157.7 2977.35 17177.5 2989.86 17169 3002.37 17160.6 3014.88 17097.6 3027.39 17093.5 3039.9 17089.5 3052.42 17144.7 3064.93 17144.5 3077.44 17144.3 3089.95 17103.1 3102.46 17092.3 3114.98 17081.6 3127.49 17078.5 3140 17080.1 3152.51 17081.6 3165.02 17090 3177.54 17101.6 3190.05 17113.1 3202.56 17148.4 3215.07 17149.3 3227.58 17150.2 3240.1 17122.8 3252.61 17107 3265.12 17091.3 3277.63 17058.7 3290.14 17054.9 3302.65 17051 3315.17 17078.4 3327.68 17084.1 3340.19 17089.8 3352.7 17082.4 3365.21 17089.2 3377.73 17096 3390.24 17123.5 3402.75 17125 3415.26 17126.5 3427.77 17100.2 3440.29 17098.1 3452.8 17096 3465.31 17108.1 3477.82 17112.2 3490.33 17116.2 3502.84 17130.6 3515.36 17122.4 3527.87 17114.2 3540.38 17063.9 3552.89 17062.9 3565.4 17061.8 3577.92 17101.7 3590.43 17116.1 3602.94 17130.6 3615.45 17154.2 3627.96 17149.6 3640.48 17145 3659.24 17098.5 3665.5 17088.3" stroke="#000000" stroke-width="9.16667" stroke-linecap="round" stroke-linejoin="round" stroke-miterlimit="10" fill="none"/></g><g><text font-family="Inter,Inter_MSFontService,sans-serif" font-weight="400" font-size="32" transform="matrix(1 0 0 1 2542.69 17469)">80</text></g><g><text font-family="Inter,Inter_MSFontService,sans-serif" font-weight="400" font-size="32" transform="matrix(1 0 0 1 2542.46 17305)">90</text></g><g><text font-family="Inter,Inter_MSFontService,sans-serif" font-weight="400" font-size="32" transform="matrix(1 0 0 1 2527.52 17142)">100</text></g><g><text font-family="Inter,Inter_MSFontService,sans-serif" font-weight="400" font-size="32" transform="matrix(1 0 0 1 2532.67 16978)">110</text></g><g><text font-family="Inter,Inter_MSFontService,sans-serif" font-weight="400" font-size="32" transform="matrix(1 0 0 1 2528.16 16814)">120</text></g><g><text font-family="Inter,Inter_MSFontService,sans-serif" font-weight="400" font-size="32" transform="matrix(0.707107 -0.707107 0.707107 0.707107 2590.39 17535)">1/6</text></g><g><text font-family="Inter,Inter_MSFontService,sans-serif" font-weight="400" font-size="32" transform="matrix(0.707107 -0.707107 0.707107 0.707107 2690.45 17547)">1/27</text></g><g><text font-family="Inter,Inter_MSFontService,sans-serif" font-weight="400" font-size="32" transform="matrix(0.707107 -0.707107 0.707107 0.707107 2803.03 17547)">2/17</text></g><g><text font-family="Inter,Inter_MSFontService,sans-serif" font-weight="400" font-size="32" transform="matrix(0.707107 -0.707107 0.707107 0.707107 2924.23 17539)">3/9</text></g><g><text font-family="Inter,Inter_MSFontService,sans-serif" font-weight="400" font-size="32" transform="matrix(0.707107 -0.707107 0.707107 0.707107 3022.35 17553)">3/30</text></g><g><text font-family="Inter,Inter_MSFontService,sans-serif" font-weight="400" font-size="32" transform="matrix(0.707107 -0.707107 0.707107 0.707107 3135.51 17553)">4/20</text></g><g><text font-family="Inter,Inter_MSFontService,sans-serif" font-weight="400" font-size="32" transform="matrix(0.707107 -0.707107 0.707107 0.707107 3255.71 17545)">5/11</text></g><g><text font-family="Inter,Inter_MSFontService,sans-serif" font-weight="400" font-size="32" transform="matrix(0.707107 -0.707107 0.707107 0.707107 3378.47 17535)">6/1</text></g><g><text font-family="Inter,Inter_MSFontService,sans-serif" font-weight="400" font-size="32" transform="matrix(0.707107 -0.707107 0.707107 0.707107 3474.13 17552)">6/22</text></g><g><text font-family="Inter,Inter_MSFontService,sans-serif" font-weight="400" font-size="32" transform="matrix(0.707107 -0.707107 0.707107 0.707107 3590.39 17548)">7/13</text></g><g><text font-family="Inter,Inter_MSFontService,sans-serif" font-weight="400" font-size="32" transform="matrix(0.707107 -0.707107 0.707107 0.707107 3712.47 17538)">8/3</text></g><g><text font-family="Inter,Inter_MSFontService,sans-serif" font-weight="400" font-size="32" transform="matrix(0.707107 -0.707107 0.707107 0.707107 3811.2 17552)">8/24</text></g><g><text font-family="Inter,Inter_MSFontService,sans-serif" font-weight="400" font-size="32" transform="matrix(0.707107 -0.707107 0.707107 0.707107 3926.81 17549)">9/14</text></g><g><text font-family="Inter,Inter_MSFontService,sans-serif" font-weight="400" font-size="32" transform="matrix(0.707107 -0.707107 0.707107 0.707107 4040.14 17549)">10/5</text></g><g><text font-family="Inter,Inter_MSFontService,sans-serif" font-weight="400" font-size="32" transform="matrix(0.707107 -0.707107 0.707107 0.707107 4138.64 17563)">10/26</text></g><g><text font-family="Inter,Inter_MSFontService,sans-serif" font-weight="400" font-size="32" transform="matrix(0.707107 -0.707107 0.707107 0.707107 4258.06 17556)">11/16</text></g><g><text font-family="Inter,Inter_MSFontService,sans-serif" font-weight="400" font-size="32" transform="matrix(0.707107 -0.707107 0.707107 0.707107 4379.18 17547)">12/7</text></g><g><text font-family="Inter Medium,Inter Medium_MSFontService,sans-serif" font-weight="700" font-size="46" transform="matrix(1 0 0 1 2529.01 16646)">U.S. Hotel Occupancy and ADR Recovery Levels</text></g><g><path d="M2521.5 16741.5 2609.5 16741.5" stroke="#FFB226" stroke-width="9.16667" stroke-linecap="round" stroke-linejoin="round" stroke-miterlimit="10" fill="none" fill-rule="evenodd"/></g><g><text font-family="Inter Medium,Inter Medium_MSFontService,sans-serif" font-weight="500" font-size="37" transform="matrix(1 0 0 1 2618.39 16754)">Occ Index</text></g><g><path d="M2846.5 16741.5 2934.5 16741.5" stroke="#000000" stroke-width="9.16667" stroke-linecap="round" stroke-linejoin="round" stroke-miterlimit="10" fill="none" fill-rule="evenodd"/></g><g><text font-family="Inter Medium,Inter Medium_MSFontService,sans-serif" font-weight="500" font-size="37" transform="matrix(1 0 0 1 2943.74 16754)">ADR Index</text></g><rect x="2445.5" y="16556.5" width="2103" height="1056" stroke="#D9D9D9" stroke-width="3.4375" stroke-linejoin="round" stroke-miterlimit="10" fill="none"/><g><text fill="#7F7F7F" font-family="Inter,Inter_MSFontService,sans-serif" font-weight="400" font-size="32" transform="matrix(1 0 0 1 2526.75 16700)">Indexed to 2023, Source: STR, str.com</text></g></g></svg>