<svg width="2106" height="1059" xmlns="http://www.w3.org/2000/svg" xmlns:xlink="http://www.w3.org/1999/xlink" xml:space="preserve" overflow="hidden"><defs><filter id="fx0" x="-10%" y="-10%" width="120%" height="120%" filterUnits="userSpaceOnUse" primitiveUnits="userSpaceOnUse"><feComponentTransfer color-interpolation-filters="sRGB"><feFuncR type="discrete" tableValues="0 0"/><feFuncG type="discrete" tableValues="0 0"/><feFuncB type="discrete" tableValues="0 0"/><feFuncA type="linear" slope="0.501961" intercept="0"/></feComponentTransfer><feGaussianBlur stdDeviation="4.58333 4.58333"/></filter><filter id="fx1" x="-10%" y="-10%" width="120%" height="120%" filterUnits="userSpaceOnUse" primitiveUnits="userSpaceOnUse"><feComponentTransfer color-interpolation-filters="sRGB"><feFuncR type="discrete" tableValues="0 0"/><feFuncG type="discrete" tableValues="0 0"/><feFuncB type="discrete" tableValues="0 0"/><feFuncA type="linear" slope="0.501961" intercept="0"/></feComponentTransfer><feGaussianBlur stdDeviation="4.58333 4.58333"/></filter><clipPath id="clip2"><rect x="2444" y="17126" width="2106" height="1059"/></clipPath><clipPath id="clip3"><rect x="2612" y="17374" width="1885" height="659"/></clipPath><clipPath id="clip4"><rect x="2612" y="17374" width="1885" height="659"/></clipPath></defs><g clip-path="url(#clip2)" transform="translate(-2444 -17126)"><rect x="2445" y="17127" width="2103" height="1056" fill="#FFFFFF"/><g><path d="M2612.5 17702.5 4494.5 17702.5" stroke="#D9D9D9" stroke-width="3.4375" stroke-linejoin="round" stroke-miterlimit="10" fill="none" fill-rule="evenodd"/></g><g clip-path="url(#clip3)"><g filter="url(#fx0)" transform="translate(2601 17608)"><g><path d="M19.9819 114.724C32.4984 125.026 45.0152 137.882 57.532 145.63 70.0485 153.378 82.5653 168.189 95.0821 161.213 107.599 154.236 120.115 113.334 132.632 103.769 145.149 94.2042 157.665 96.7608 170.182 103.822 182.698 110.883 195.215 139.456 207.732 146.136 220.248 152.816 232.765 142.107 245.282 143.902 257.799 145.697 270.315 162.778 282.832 156.908 295.349 151.037 307.865 111.698 320.382 108.677 332.898 105.656 345.415 135.647 357.932 138.78 370.449 141.913 382.965 135.476 395.482 127.477 407.999 119.477 420.515 79.1622 433.032 90.7847 445.549 102.407 458.065 207.982 470.582 197.212 483.098 186.441 495.615 49.0137 508.132 26.1627 520.281 3.98242 533.533 46.4462 545.682 60.106 558.199 74.1785 570.715 100.123 583.232 110.599 595.749 121.075 608.265 121.243 620.782 122.965 633.298 124.687 645.815 128.801 658.332 120.931 670.849 113.06 683.365 78.683 695.882 75.7427 708.399 72.802 720.915 102.773 733.432 103.287 745.949 103.802 764.724 82.9065 770.982 78.8304" stroke="#FFB226" stroke-width="9" stroke-linecap="round" stroke-linejoin="round" stroke-miterlimit="10" fill="none"/></g></g></g><g clip-path="url(#clip4)"><g filter="url(#fx1)" transform="translate(2601 17580)"><g><path d="M19.9819 21.6563C32.4984 23.3548 45.0152 12.9824 57.532 26.7521 70.0485 40.5214 82.5653 100.835 95.0821 104.274 107.599 107.712 120.115 48.2321 132.632 47.3831 145.149 46.5337 157.665 103.659 170.182 99.1792 182.698 94.6986 195.215 26.2831 207.732 20.5008 220.248 14.7181 232.765 46.6015 245.282 64.484 257.799 82.366 270.315 124.16 282.832 127.794 295.349 131.427 307.865 83.9497 320.382 86.2828 332.898 88.6155 345.415 128.417 357.932 141.791 370.449 155.164 382.965 174.982 395.482 166.521 407.999 158.061 420.515 95.1152 433.032 91.0251 445.549 86.9351 458.065 142.182 470.582 141.981 483.098 141.78 495.615 100.555 508.132 89.8187 520.649 79.0825 533.165 76.0227 545.682 77.5638 558.199 79.1045 570.715 87.5268 583.232 99.0644 595.749 110.602 608.265 145.88 620.782 146.788 633.298 147.696 645.815 120.251 658.332 104.511 670.849 88.7711 683.365 56.1653 695.882 52.3467 708.399 48.5278 720.915 75.8776 733.432 81.5989 745.949 87.3199 764.724 85.8283 770.982 86.6745" stroke="#000000" stroke-width="9" stroke-linecap="round" stroke-linejoin="round" stroke-miterlimit="10" fill="none"/></g></g></g><g><path d="M2614.5 17716.2C2627.02 17726.5 2639.53 17739.4 2652.05 17747.1 2664.57 17754.9 2677.08 17769.7 2689.6 17762.7 2702.12 17755.8 2714.63 17714.9 2727.15 17705.3 2739.67 17695.7 2752.18 17698.3 2764.7 17705.3 2777.22 17712.4 2789.73 17741 2802.25 17747.7 2814.77 17754.3 2827.28 17743.6 2839.8 17745.4 2852.32 17747.2 2864.83 17764.3 2877.35 17758.4 2889.87 17752.6 2902.38 17713.2 2914.9 17710.2 2927.42 17707.2 2939.93 17737.2 2952.45 17740.3 2964.97 17743.4 2977.48 17737 2990 17729 3002.52 17721 3015.03 17680.7 3027.55 17692.3 3040.07 17703.9 3052.58 17809.5 3065.1 17798.7 3077.62 17788 3090.13 17650.5 3102.65 17627.7 3114.8 17605.5 3128.05 17648 3140.2 17661.6 3152.72 17675.7 3165.23 17701.6 3177.75 17712.1 3190.27 17722.6 3202.78 17722.8 3215.3 17724.5 3227.82 17726.2 3240.33 17730.3 3252.85 17722.4 3265.37 17714.6 3277.88 17680.2 3290.4 17677.3 3302.92 17674.3 3315.43 17704.3 3327.95 17704.8 3340.47 17705.3 3359.24 17684.4 3365.5 17680.3" stroke="#FFB226" stroke-width="9.16667" stroke-linecap="round" stroke-linejoin="round" stroke-miterlimit="10" fill="none"/></g><g><path d="M2614.5 17595.2C2627.02 17596.9 2639.53 17586.5 2652.05 17600.3 2664.57 17614 2677.08 17674.4 2689.6 17677.8 2702.12 17681.2 2714.63 17621.8 2727.15 17620.9 2739.67 17620.1 2752.18 17677.2 2764.7 17672.7 2777.22 17668.2 2789.73 17599.8 2802.25 17594 2814.77 17588.2 2827.28 17620.1 2839.8 17638 2852.32 17655.9 2864.83 17697.7 2877.35 17701.3 2889.87 17704.9 2902.38 17657.5 2914.9 17659.8 2927.42 17662.1 2939.93 17701.9 2952.45 17715.3 2964.97 17728.7 2977.48 17748.5 2990 17740 3002.52 17731.6 3015.03 17668.6 3027.55 17664.5 3040.07 17660.5 3052.58 17715.7 3065.1 17715.5 3077.62 17715.3 3090.13 17674.1 3102.65 17663.3 3115.17 17652.6 3127.68 17649.5 3140.2 17651.1 3152.72 17652.6 3165.23 17661 3177.75 17672.6 3190.27 17684.1 3202.78 17719.4 3215.3 17720.3 3227.82 17721.2 3240.33 17693.8 3252.85 17678 3265.37 17662.3 3277.88 17629.7 3290.4 17625.9 3302.92 17622 3315.43 17649.4 3327.95 17655.1 3340.47 17660.8 3359.24 17659.3 3365.5 17660.2" stroke="#000000" stroke-width="9.16667" stroke-linecap="round" stroke-linejoin="round" stroke-miterlimit="10" fill="none"/></g><g><text font-family="Inter,Inter_MSFontService,sans-serif" font-weight="400" font-size="32" transform="matrix(1 0 0 1 2542.69 18040)">80</text></g><g><text font-family="Inter,Inter_MSFontService,sans-serif" font-weight="400" font-size="32" transform="matrix(1 0 0 1 2542.46 17876)">90</text></g><g><text font-family="Inter,Inter_MSFontService,sans-serif" font-weight="400" font-size="32" transform="matrix(1 0 0 1 2527.52 17712)">100</text></g><g><text font-family="Inter,Inter_MSFontService,sans-serif" font-weight="400" font-size="32" transform="matrix(1 0 0 1 2532.67 17548)">110</text></g><g><text font-family="Inter,Inter_MSFontService,sans-serif" font-weight="400" font-size="32" transform="matrix(1 0 0 1 2528.16 17385)">120</text></g><g><text font-family="Inter,Inter_MSFontService,sans-serif" font-weight="400" font-size="32" transform="matrix(0.707107 -0.707107 0.707107 0.707107 2590.39 18105)">1/6</text></g><g><text font-family="Inter,Inter_MSFontService,sans-serif" font-weight="400" font-size="32" transform="matrix(0.707107 -0.707107 0.707107 0.707107 2690.45 18118)">1/27</text></g><g><text font-family="Inter,Inter_MSFontService,sans-serif" font-weight="400" font-size="32" transform="matrix(0.707107 -0.707107 0.707107 0.707107 2803.03 18118)">2/17</text></g><g><text font-family="Inter,Inter_MSFontService,sans-serif" font-weight="400" font-size="32" transform="matrix(0.707107 -0.707107 0.707107 0.707107 2924.23 18109)">3/9</text></g><g><text font-family="Inter,Inter_MSFontService,sans-serif" font-weight="400" font-size="32" transform="matrix(0.707107 -0.707107 0.707107 0.707107 3022.35 18124)">3/30</text></g><g><text font-family="Inter,Inter_MSFontService,sans-serif" font-weight="400" font-size="32" transform="matrix(0.707107 -0.707107 0.707107 0.707107 3135.51 18123)">4/20</text></g><g><text font-family="Inter,Inter_MSFontService,sans-serif" font-weight="400" font-size="32" transform="matrix(0.707107 -0.707107 0.707107 0.707107 3255.71 18116)">5/11</text></g><g><text font-family="Inter,Inter_MSFontService,sans-serif" font-weight="400" font-size="32" transform="matrix(0.707107 -0.707107 0.707107 0.707107 3378.47 18105)">6/1</text></g><g><text font-family="Inter,Inter_MSFontService,sans-serif" font-weight="400" font-size="32" transform="matrix(0.707107 -0.707107 0.707107 0.707107 3474.13 18122)">6/22</text></g><g><text font-family="Inter,Inter_MSFontService,sans-serif" font-weight="400" font-size="32" transform="matrix(0.707107 -0.707107 0.707107 0.707107 3590.39 18119)">7/13</text></g><g><text font-family="Inter,Inter_MSFontService,sans-serif" font-weight="400" font-size="32" transform="matrix(0.707107 -0.707107 0.707107 0.707107 3712.47 18109)">8/3</text></g><g><text font-family="Inter,Inter_MSFontService,sans-serif" font-weight="400" font-size="32" transform="matrix(0.707107 -0.707107 0.707107 0.707107 3811.2 18123)">8/24</text></g><g><text font-family="Inter,Inter_MSFontService,sans-serif" font-weight="400" font-size="32" transform="matrix(0.707107 -0.707107 0.707107 0.707107 3926.81 18120)">9/14</text></g><g><text font-family="Inter,Inter_MSFontService,sans-serif" font-weight="400" font-size="32" transform="matrix(0.707107 -0.707107 0.707107 0.707107 4040.14 18119)">10/5</text></g><g><text font-family="Inter,Inter_MSFontService,sans-serif" font-weight="400" font-size="32" transform="matrix(0.707107 -0.707107 0.707107 0.707107 4138.64 18133)">10/26</text></g><g><text font-family="Inter,Inter_MSFontService,sans-serif" font-weight="400" font-size="32" transform="matrix(0.707107 -0.707107 0.707107 0.707107 4258.06 18126)">11/16</text></g><g><text font-family="Inter,Inter_MSFontService,sans-serif" font-weight="400" font-size="32" transform="matrix(0.707107 -0.707107 0.707107 0.707107 4379.18 18118)">12/7</text></g><g><text font-family="Inter Medium,Inter Medium_MSFontService,sans-serif" font-weight="700" font-size="46" transform="matrix(1 0 0 1 2529.01 17216)">U.S. Hotel Occupancy and ADR Recovery Levels</text></g><g><path d="M2521.5 17312.5 2609.5 17312.5" stroke="#FFB226" stroke-width="9.16667" stroke-linecap="round" stroke-linejoin="round" stroke-miterlimit="10" fill="none" fill-rule="evenodd"/></g><g><text font-family="Inter Medium,Inter Medium_MSFontService,sans-serif" font-weight="500" font-size="37" transform="matrix(1 0 0 1 2618.39 17324)">Occ Index</text></g><g><path d="M2846.5 17312.5 2934.5 17312.5" stroke="#000000" stroke-width="9.16667" stroke-linecap="round" stroke-linejoin="round" stroke-miterlimit="10" fill="none" fill-rule="evenodd"/></g><g><text font-family="Inter Medium,Inter Medium_MSFontService,sans-serif" font-weight="500" font-size="37" transform="matrix(1 0 0 1 2943.74 17324)">ADR Index</text></g><rect x="2445.5" y="17127.5" width="2103" height="1056" stroke="#D9D9D9" stroke-width="3.4375" stroke-linejoin="round" stroke-miterlimit="10" fill="none"/><g><text fill="#7F7F7F" font-family="Inter,Inter_MSFontService,sans-serif" font-weight="400" font-size="32" transform="matrix(1 0 0 1 2526.75 17270)">Indexed to 2023, Source: STR, str.com</text></g></g></svg>