<svg width="2106" height="1059" xmlns="http://www.w3.org/2000/svg" xmlns:xlink="http://www.w3.org/1999/xlink" xml:space="preserve" overflow="hidden"><defs><filter id="fx0" x="-10%" y="-10%" width="120%" height="120%" filterUnits="userSpaceOnUse" primitiveUnits="userSpaceOnUse"><feComponentTransfer color-interpolation-filters="sRGB"><feFuncR type="discrete" tableValues="0 0"/><feFuncG type="discrete" tableValues="0 0"/><feFuncB type="discrete" tableValues="0 0"/><feFuncA type="linear" slope="0.501961" intercept="0"/></feComponentTransfer><feGaussianBlur stdDeviation="4.58333 4.58333"/></filter><filter id="fx1" x="-10%" y="-10%" width="120%" height="120%" filterUnits="userSpaceOnUse" primitiveUnits="userSpaceOnUse"><feComponentTransfer color-interpolation-filters="sRGB"><feFuncR type="discrete" tableValues="0 0"/><feFuncG type="discrete" tableValues="0 0"/><feFuncB type="discrete" tableValues="0 0"/><feFuncA type="linear" slope="0.501961" intercept="0"/></feComponentTransfer><feGaussianBlur stdDeviation="4.58333 4.58333"/></filter><clipPath id="clip2"><rect x="2444" y="16555" width="2106" height="1059"/></clipPath><clipPath id="clip3"><rect x="2612" y="16804" width="1885" height="658"/></clipPath><clipPath id="clip4"><rect x="2612" y="16804" width="1885" height="658"/></clipPath></defs><g clip-path="url(#clip2)" transform="translate(-2444 -16555)"><rect x="2445" y="16556" width="2103" height="1056" fill="#FFFFFF"/><g><path d="M2612.5 17131.5 4494.5 17131.5" stroke="#D9D9D9" stroke-width="3.4375" stroke-linejoin="round" stroke-miterlimit="10" fill="none" fill-rule="evenodd"/></g><g clip-path="url(#clip3)"><g filter="url(#fx0)" transform="translate(2601 17037)"><g><path d="M19.9819 114.724C32.4939 125.026 45.0063 137.882 57.5186 145.63 70.0306 153.378 82.5429 168.189 95.0553 161.213 107.567 154.236 120.08 113.334 132.592 103.77 145.104 94.2043 157.616 96.7606 170.128 103.822 182.64 110.883 195.153 139.456 207.665 146.136 220.177 152.816 232.689 142.107 245.202 143.902 257.714 145.697 270.226 162.778 282.738 156.907 295.25 151.037 307.762 111.698 320.275 108.677 332.787 105.656 345.299 135.647 357.811 138.78 370.323 141.913 382.836 135.476 395.348 127.477 407.86 119.477 420.372 79.1623 432.885 90.7849 445.397 102.407 457.909 207.982 470.421 197.212 482.933 186.441 495.445 49.0134 507.958 26.1627 520.102 3.98242 533.349 46.4463 545.494 60.1061 558.006 74.1787 570.519 100.123 583.031 110.599 595.543 121.076 608.055 121.243 620.567 122.965 633.079 124.687 645.592 128.802 658.104 120.931 670.616 113.061 683.128 78.6828 695.641 75.7425 708.153 72.8018 720.665 102.773 733.177 103.288 745.689 103.802 758.201 81.0039 770.714 78.8301 783.226 76.6561 795.738 85.3942 808.25 90.2449 820.762 95.0952 833.275 104.239 845.787 107.934 858.299 111.629 870.811 106.339 883.324 112.414 895.836 118.489 908.348 154.108 920.86 144.385 933.372 134.661 945.884 59.1186 958.397 54.0709 970.909 49.0228 983.421 95.6972 995.933 114.096 1008.45 132.495 1020.96 168.914 1033.47 164.465 1045.98 160.016 1058.49 97.2487 1071.01 87.404 1083.52 77.5588 1096.03 105.129 1108.54 105.395 1121.05 105.66 1133.57 91.3476 1146.08 88.9963 1158.59 86.6446 1171.1 88.9015 1183.62 91.2867 1196.13 93.6715 1208.64 106.322 1221.15 103.306 1233.66 100.289 1246.18 78.8114 1258.69 73.188 1270.33 67.9561 1284.59 54.76 1296.23 69.5643 1308.74 85.4777 1321.25 159.023 1333.76 168.669 1346.27 178.314 1358.79 140.329 1371.3 127.437 1383.81 114.545 1396.32 102.69 1408.84 91.3144 1421.35 79.9383 1433.86 48.7454 1446.37 59.1817 1458.88 69.6176 1471.4 154.147 1483.91 153.932 1496.42 153.716 1508.93 71.0791 1521.45 57.8895 1533.96 44.6995 1552.73 71.975 1558.98 74.7922" stroke="#FFB226" stroke-width="9" stroke-linecap="round" stroke-linejoin="round" stroke-miterlimit="10" fill="none"/></g></g></g><g clip-path="url(#clip4)"><g filter="url(#fx1)" transform="translate(2601 16988)"><g><path d="M19.9819 42.8662C32.4939 44.5659 45.0063 34.1859 57.5186 47.9656 70.0306 61.7454 82.5429 122.103 95.0553 125.545 107.567 128.986 120.08 69.4614 132.592 68.6118 145.104 67.7617 157.616 124.929 170.128 120.446 182.64 115.962 195.153 47.4964 207.665 41.7098 220.177 35.9228 232.689 67.83 245.202 85.7255 257.714 103.621 270.226 145.445 282.738 149.081 295.25 152.717 307.762 105.205 320.275 107.54 332.787 109.874 345.299 149.706 357.811 163.089 370.323 176.471 382.836 196.304 395.348 187.837 407.86 179.37 420.372 116.379 432.885 112.286 445.397 108.193 457.909 163.481 470.421 163.279 482.933 163.078 495.445 121.823 507.958 111.079 520.47 100.335 532.982 97.2727 545.494 98.8149 558.006 100.357 570.519 108.785 583.031 120.331 595.543 131.877 608.055 167.181 620.567 168.09 633.079 168.999 645.592 141.534 658.104 125.782 670.616 110.03 683.128 77.4007 695.641 73.5794 708.153 69.7577 720.665 97.1271 733.177 102.853 745.689 108.578 758.201 101.108 770.714 107.932 783.226 114.756 795.738 142.309 808.25 143.795 820.762 145.281 833.275 118.991 845.787 116.849 858.299 114.707 870.811 126.89 883.324 130.942 895.836 134.993 908.348 149.381 920.86 141.157 933.372 132.933 945.884 82.6462 958.397 81.5978 970.909 80.5491 983.421 120.402 995.933 134.866 1008.45 149.329 1020.96 173.021 1033.47 168.379 1045.98 163.737 1058.49 114.463 1071.01 107.014 1083.52 99.5641 1096.03 119.124 1108.54 123.682 1121.05 128.24 1133.57 135.212 1146.08 134.362 1158.59 133.512 1171.1 119.926 1183.62 118.58 1196.13 117.234 1208.64 129.327 1221.15 126.288 1233.66 123.248 1246.18 102.073 1258.69 100.344 1271.2 98.6148 1283.71 105.801 1296.23 115.912 1308.74 126.023 1321.25 156.817 1333.76 161.01 1346.27 165.204 1358.79 149.217 1371.3 141.075 1383.81 132.933 1396.32 132.012 1408.84 112.159 1421.35 92.3047 1433.86 3.98242 1446.37 21.9527 1458.88 39.9227 1471.4 202.976 1483.91 219.979 1496.42 236.982 1508.93 143.087 1521.45 123.973 1532.93 106.427 1553.24 108.152 1558.98 105.295" stroke="#000000" stroke-width="9" stroke-linecap="round" stroke-linejoin="round" stroke-miterlimit="10" fill="none"/></g></g></g><g><path d="M2614.5 17145.2C2627.01 17155.5 2639.52 17168.4 2652.04 17176.1 2664.55 17183.9 2677.06 17198.7 2689.57 17191.7 2702.09 17184.8 2714.6 17143.9 2727.11 17134.3 2739.62 17124.7 2752.13 17127.3 2764.65 17134.3 2777.16 17141.4 2789.67 17170 2802.18 17176.7 2814.7 17183.3 2827.21 17172.6 2839.72 17174.4 2852.23 17176.2 2864.74 17193.3 2877.26 17187.4 2889.77 17181.6 2902.28 17142.2 2914.79 17139.2 2927.3 17136.2 2939.82 17166.2 2952.33 17169.3 2964.84 17172.4 2977.35 17166 2989.87 17158 3002.38 17150 3014.89 17109.7 3027.4 17121.3 3039.91 17132.9 3052.43 17238.5 3064.94 17227.7 3077.45 17217 3089.96 17079.5 3102.48 17056.7 3114.62 17034.5 3127.87 17077 3140.01 17090.6 3152.52 17104.7 3165.04 17130.6 3177.55 17141.1 3190.06 17151.6 3202.57 17151.8 3215.09 17153.5 3227.6 17155.2 3240.11 17159.3 3252.62 17151.4 3265.13 17143.6 3277.65 17109.2 3290.16 17106.3 3302.67 17103.3 3315.18 17133.3 3327.7 17133.8 3340.21 17134.3 3352.72 17111.5 3365.23 17109.3 3377.74 17107.2 3390.26 17115.9 3402.77 17120.8 3415.28 17125.6 3427.79 17134.8 3440.3 17138.5 3452.82 17142.1 3465.33 17136.9 3477.84 17142.9 3490.35 17149 3502.87 17184.6 3515.38 17174.9 3527.89 17165.2 3540.4 17089.6 3552.91 17084.6 3565.43 17079.5 3577.94 17126.2 3590.45 17144.6 3602.96 17163 3615.48 17199.4 3627.99 17195 3640.5 17190.5 3653.01 17127.8 3665.52 17117.9 3678.04 17108.1 3690.55 17135.6 3703.06 17135.9 3715.57 17136.2 3728.09 17121.9 3740.6 17119.5 3753.11 17117.2 3765.62 17119.4 3778.13 17121.8 3790.65 17124.2 3803.16 17136.8 3815.67 17133.8 3828.18 17130.8 3840.69 17109.3 3853.21 17103.7 3864.85 17098.5 3879.1 17085.3 3890.74 17100.1 3903.26 17116 3915.77 17189.5 3928.28 17199.2 3940.79 17208.8 3953.3 17170.8 3965.82 17158 3978.33 17145.1 3990.84 17133.2 4003.35 17121.8 4015.87 17110.5 4028.38 17079.3 4040.89 17089.7 4053.4 17100.1 4065.91 17184.7 4078.43 17184.4 4090.94 17184.2 4103.45 17101.6 4115.96 17088.4 4128.48 17075.2 4147.24 17102.5 4153.5 17105.3" stroke="#FFB226" stroke-width="9.16667" stroke-linecap="round" stroke-linejoin="round" stroke-miterlimit="10" fill="none"/></g><g><path d="M2614.5 17024.4C2627.01 17026.1 2639.52 17015.7 2652.04 17029.5 2664.55 17043.3 2677.06 17103.6 2689.57 17107.1 2702.09 17110.5 2714.6 17051 2727.11 17050.1 2739.62 17049.3 2752.13 17106.4 2764.65 17102 2777.16 17097.5 2789.67 17029 2802.18 17023.2 2814.7 17017.4 2827.21 17049.3 2839.72 17067.2 2852.23 17085.1 2864.74 17127 2877.26 17130.6 2889.77 17134.2 2902.28 17086.7 2914.79 17089.1 2927.3 17091.4 2939.82 17131.2 2952.33 17144.6 2964.84 17158 2977.35 17177.8 2989.87 17169.4 3002.38 17160.9 3014.89 17097.9 3027.4 17093.8 3039.91 17089.7 3052.43 17145 3064.94 17144.8 3077.45 17144.6 3089.96 17103.3 3102.48 17092.6 3114.99 17081.9 3127.5 17078.8 3140.01 17080.3 3152.52 17081.9 3165.04 17090.3 3177.55 17101.8 3190.06 17113.4 3202.57 17148.7 3215.09 17149.6 3227.6 17150.5 3240.11 17123.1 3252.62 17107.3 3265.13 17091.5 3277.65 17058.9 3290.16 17055.1 3302.67 17051.3 3315.18 17078.6 3327.7 17084.4 3340.21 17090.1 3352.72 17082.6 3365.23 17089.4 3377.74 17096.3 3390.26 17123.8 3402.77 17125.3 3415.28 17126.8 3427.79 17100.5 3440.3 17098.4 3452.82 17096.2 3465.33 17108.4 3477.84 17112.5 3490.35 17116.5 3502.87 17130.9 3515.38 17122.7 3527.89 17114.5 3540.4 17064.2 3552.91 17063.1 3565.43 17062.1 3577.94 17101.9 3590.45 17116.4 3602.96 17130.8 3615.48 17154.5 3627.99 17149.9 3640.5 17145.3 3653.01 17096 3665.52 17088.5 3678.04 17081.1 3690.55 17100.6 3703.06 17105.2 3715.57 17109.8 3728.09 17116.7 3740.6 17115.9 3753.11 17115 3765.62 17101.4 3778.13 17100.1 3790.65 17098.8 3803.16 17110.8 3815.67 17107.8 3828.18 17104.8 3840.69 17083.6 3853.21 17081.9 3865.72 17080.1 3878.23 17087.3 3890.74 17097.4 3903.26 17107.5 3915.77 17138.3 3928.28 17142.5 3940.79 17146.7 3953.3 17130.7 3965.82 17122.6 3978.33 17114.4 3990.84 17113.5 4003.35 17093.7 4015.87 17073.8 4028.38 16985.5 4040.89 17003.5 4053.4 17021.4 4065.91 17184.5 4078.43 17201.5 4090.94 17218.5 4103.45 17124.6 4115.96 17105.5 4127.45 17087.9 4147.76 17089.7 4153.5 17086.8" stroke="#000000" stroke-width="9.16667" stroke-linecap="round" stroke-linejoin="round" stroke-miterlimit="10" fill="none"/></g><g><text font-family="Inter,Inter_MSFontService,sans-serif" font-weight="400" font-size="32" transform="matrix(1 0 0 1 2542.69 17469)">80</text></g><g><text font-family="Inter,Inter_MSFontService,sans-serif" font-weight="400" font-size="32" transform="matrix(1 0 0 1 2542.46 17305)">90</text></g><g><text font-family="Inter,Inter_MSFontService,sans-serif" font-weight="400" font-size="32" transform="matrix(1 0 0 1 2527.52 17142)">100</text></g><g><text font-family="Inter,Inter_MSFontService,sans-serif" font-weight="400" font-size="32" transform="matrix(1 0 0 1 2532.67 16978)">110</text></g><g><text font-family="Inter,Inter_MSFontService,sans-serif" font-weight="400" font-size="32" transform="matrix(1 0 0 1 2528.16 16814)">120</text></g><g><text font-family="Inter,Inter_MSFontService,sans-serif" font-weight="400" font-size="32" transform="matrix(0.707107 -0.707107 0.707107 0.707107 2590.39 17535)">1/6</text></g><g><text font-family="Inter,Inter_MSFontService,sans-serif" font-weight="400" font-size="32" transform="matrix(0.707107 -0.707107 0.707107 0.707107 2690.45 17547)">1/27</text></g><g><text font-family="Inter,Inter_MSFontService,sans-serif" font-weight="400" font-size="32" transform="matrix(0.707107 -0.707107 0.707107 0.707107 2803.03 17547)">2/17</text></g><g><text font-family="Inter,Inter_MSFontService,sans-serif" font-weight="400" font-size="32" transform="matrix(0.707107 -0.707107 0.707107 0.707107 2924.23 17539)">3/9</text></g><g><text font-family="Inter,Inter_MSFontService,sans-serif" font-weight="400" font-size="32" transform="matrix(0.707107 -0.707107 0.707107 0.707107 3022.35 17553)">3/30</text></g><g><text font-family="Inter,Inter_MSFontService,sans-serif" font-weight="400" font-size="32" transform="matrix(0.707107 -0.707107 0.707107 0.707107 3135.51 17553)">4/20</text></g><g><text font-family="Inter,Inter_MSFontService,sans-serif" font-weight="400" font-size="32" transform="matrix(0.707107 -0.707107 0.707107 0.707107 3255.71 17545)">5/11</text></g><g><text font-family="Inter,Inter_MSFontService,sans-serif" font-weight="400" font-size="32" transform="matrix(0.707107 -0.707107 0.707107 0.707107 3378.47 17535)">6/1</text></g><g><text font-family="Inter,Inter_MSFontService,sans-serif" font-weight="400" font-size="32" transform="matrix(0.707107 -0.707107 0.707107 0.707107 3474.13 17552)">6/22</text></g><g><text font-family="Inter,Inter_MSFontService,sans-serif" font-weight="400" font-size="32" transform="matrix(0.707107 -0.707107 0.707107 0.707107 3590.39 17548)">7/13</text></g><g><text font-family="Inter,Inter_MSFontService,sans-serif" font-weight="400" font-size="32" transform="matrix(0.707107 -0.707107 0.707107 0.707107 3712.47 17538)">8/3</text></g><g><text font-family="Inter,Inter_MSFontService,sans-serif" font-weight="400" font-size="32" transform="matrix(0.707107 -0.707107 0.707107 0.707107 3811.2 17552)">8/24</text></g><g><text font-family="Inter,Inter_MSFontService,sans-serif" font-weight="400" font-size="32" transform="matrix(0.707107 -0.707107 0.707107 0.707107 3926.81 17549)">9/14</text></g><g><text font-family="Inter,Inter_MSFontService,sans-serif" font-weight="400" font-size="32" transform="matrix(0.707107 -0.707107 0.707107 0.707107 4040.14 17549)">10/5</text></g><g><text font-family="Inter,Inter_MSFontService,sans-serif" font-weight="400" font-size="32" transform="matrix(0.707107 -0.707107 0.707107 0.707107 4138.64 17563)">10/26</text></g><g><text font-family="Inter,Inter_MSFontService,sans-serif" font-weight="400" font-size="32" transform="matrix(0.707107 -0.707107 0.707107 0.707107 4258.06 17556)">11/16</text></g><g><text font-family="Inter,Inter_MSFontService,sans-serif" font-weight="400" font-size="32" transform="matrix(0.707107 -0.707107 0.707107 0.707107 4379.18 17547)">12/7</text></g><g><text font-family="Inter Medium,Inter Medium_MSFontService,sans-serif" font-weight="700" font-size="46" transform="matrix(1 0 0 1 2529.01 16646)">U.S. Hotel Occupancy and ADR Recovery Levels</text></g><g><path d="M2521.5 16741.5 2609.5 16741.5" stroke="#FFB226" stroke-width="9.16667" stroke-linecap="round" stroke-linejoin="round" stroke-miterlimit="10" fill="none" fill-rule="evenodd"/></g><g><text font-family="Inter Medium,Inter Medium_MSFontService,sans-serif" font-weight="500" font-size="37" transform="matrix(1 0 0 1 2618.39 16754)">Occ Index</text></g><g><path d="M2846.5 16741.5 2934.5 16741.5" stroke="#000000" stroke-width="9.16667" stroke-linecap="round" stroke-linejoin="round" stroke-miterlimit="10" fill="none" fill-rule="evenodd"/></g><g><text font-family="Inter Medium,Inter Medium_MSFontService,sans-serif" font-weight="500" font-size="37" transform="matrix(1 0 0 1 2943.74 16754)">ADR Index</text></g><rect x="2445.5" y="16556.5" width="2103" height="1056" stroke="#D9D9D9" stroke-width="3.4375" stroke-linejoin="round" stroke-miterlimit="10" fill="none"/><g><text fill="#7F7F7F" font-family="Inter,Inter_MSFontService,sans-serif" font-weight="400" font-size="32" transform="matrix(1 0 0 1 2526.75 16700)">Indexed to 2023, Source: STR, str.com</text></g></g></svg>