<svg width="2106" height="1059" xmlns="http://www.w3.org/2000/svg" xmlns:xlink="http://www.w3.org/1999/xlink" xml:space="preserve" overflow="hidden"><defs><filter id="fx0" x="-10%" y="-10%" width="120%" height="120%" filterUnits="userSpaceOnUse" primitiveUnits="userSpaceOnUse"><feComponentTransfer color-interpolation-filters="sRGB"><feFuncR type="discrete" tableValues="0 0"/><feFuncG type="discrete" tableValues="0 0"/><feFuncB type="discrete" tableValues="0 0"/><feFuncA type="linear" slope="0.501961" intercept="0"/></feComponentTransfer><feGaussianBlur stdDeviation="4.58333 4.58333"/></filter><filter id="fx1" x="-10%" y="-10%" width="120%" height="120%" filterUnits="userSpaceOnUse" primitiveUnits="userSpaceOnUse"><feComponentTransfer color-interpolation-filters="sRGB"><feFuncR type="discrete" tableValues="0 0"/><feFuncG type="discrete" tableValues="0 0"/><feFuncB type="discrete" tableValues="0 0"/><feFuncA type="linear" slope="0.501961" intercept="0"/></feComponentTransfer><feGaussianBlur stdDeviation="4.58333 4.58333"/></filter><clipPath id="clip2"><rect x="2444" y="16555" width="2106" height="1059"/></clipPath><clipPath id="clip3"><rect x="2612" y="16804" width="1885" height="658"/></clipPath><clipPath id="clip4"><rect x="2612" y="16804" width="1885" height="658"/></clipPath></defs><g clip-path="url(#clip2)" transform="translate(-2444 -16555)"><rect x="2445" y="16556" width="2103" height="1056" fill="#FFFFFF"/><g><path d="M2612.5 17131.5 4494.5 17131.5" stroke="#D9D9D9" stroke-width="3.4375" stroke-linejoin="round" stroke-miterlimit="10" fill="none" fill-rule="evenodd"/></g><g clip-path="url(#clip3)"><g filter="url(#fx0)" transform="translate(2601 17037)"><g><path d="M19.9819 114.724C32.4915 125.026 45.0015 137.882 57.5114 145.63 70.021 153.378 82.531 168.189 95.0409 161.213 107.551 154.236 120.06 113.334 132.57 103.77 145.08 94.2043 157.59 96.7606 170.1 103.822 182.609 110.883 195.119 139.456 207.629 146.136 220.139 152.816 232.649 142.107 245.159 143.902 257.668 145.697 270.178 162.778 282.688 156.907 295.198 151.037 307.707 111.698 320.217 108.677 332.727 105.656 345.237 135.647 357.747 138.78 370.256 141.913 382.766 135.476 395.276 127.477 407.786 119.477 420.296 79.1623 432.806 90.7849 445.315 102.407 457.825 207.982 470.335 197.212 482.844 186.441 495.354 49.0134 507.864 26.1627 520.006 3.98242 533.251 46.4463 545.394 60.1061 557.903 74.1787 570.413 100.123 582.923 110.599 595.433 121.076 607.943 121.243 620.452 122.965 632.962 124.687 645.472 128.802 657.982 120.931 670.492 113.061 683.001 78.6828 695.511 75.7425 708.021 72.8018 720.531 102.773 733.041 103.288 745.551 103.802 758.06 81.0039 770.57 78.8301 783.08 76.6561 795.59 85.3942 808.1 90.2449 820.609 95.0952 833.119 104.239 845.629 107.934 858.139 111.629 870.649 106.339 883.159 112.414 895.668 118.489 908.178 154.108 920.688 144.385 933.197 134.661 945.707 59.1186 958.217 54.0709 970.727 49.0228 983.237 95.6972 995.747 114.096 1008.26 132.495 1020.77 168.914 1033.28 164.465 1045.79 160.016 1058.3 97.2487 1070.81 87.404 1083.31 77.5588 1095.82 105.129 1108.33 105.395 1120.84 105.66 1133.35 91.3476 1145.86 88.9963 1158.37 86.6446 1170.88 88.9015 1183.39 91.2867 1195.9 93.6715 1208.41 106.322 1220.92 103.306 1233.43 100.289 1245.94 78.8114 1258.45 73.188 1270.96 67.5642 1289.73 70.1681 1295.98 69.5643" stroke="#FFB226" stroke-width="9" stroke-linecap="round" stroke-linejoin="round" stroke-miterlimit="10" fill="none"/></g></g></g><g clip-path="url(#clip4)"><g filter="url(#fx1)" transform="translate(2601 17009)"><g><path d="M19.9819 21.6563C32.4915 23.3548 45.0015 12.9824 57.5114 26.7521 70.021 40.5217 82.531 100.835 95.0409 104.274 107.551 107.713 120.06 48.2321 132.57 47.3831 145.08 46.5337 157.59 103.659 170.1 99.1792 182.609 94.6986 195.119 26.2831 207.629 20.5008 220.139 14.7181 232.649 46.6019 245.159 64.4843 257.668 82.3664 270.178 124.16 282.688 127.794 295.198 131.427 307.707 83.9497 320.217 86.2828 332.727 88.6155 345.237 128.418 357.747 141.791 370.256 155.164 382.766 174.982 395.276 166.521 407.786 158.061 420.296 95.1152 432.806 91.0255 445.315 86.9355 457.825 142.183 470.335 141.982 482.844 141.781 495.354 100.555 507.864 89.8191 520.374 79.0828 532.884 76.0231 545.394 77.5641 557.903 79.1048 570.413 87.5268 582.923 99.0644 595.433 110.602 607.943 145.881 620.452 146.789 632.962 147.696 645.472 120.252 657.982 104.512 670.492 88.7715 683.001 56.1656 695.511 52.3471 708.021 48.5282 720.531 75.8776 733.041 81.5989 745.551 87.3199 758.06 79.8561 770.57 86.6748 783.08 93.4936 795.59 121.026 808.1 122.512 820.609 123.996 833.119 97.7255 845.629 95.5848 858.139 93.4441 870.649 105.619 883.159 109.667 895.668 113.716 908.178 128.093 920.688 119.875 933.197 111.657 945.707 61.4072 958.217 60.3596 970.727 59.3117 983.237 99.1359 995.747 113.589 1008.26 128.042 1020.77 151.716 1033.28 147.077 1045.79 142.439 1058.3 93.2012 1070.81 85.7572 1083.31 78.3128 1095.82 97.858 1108.33 102.413 1120.84 106.968 1133.35 113.935 1145.86 113.086 1158.37 112.236 1170.88 98.6594 1183.39 97.3147 1195.9 95.9696 1208.41 108.054 1220.92 105.017 1233.43 101.98 1245.94 80.8199 1258.45 79.0922 1270.96 77.3641 1289.73 92.0561 1295.98 94.6491" stroke="#000000" stroke-width="9" stroke-linecap="round" stroke-linejoin="round" stroke-miterlimit="10" fill="none"/></g></g></g><g><path d="M2614.5 17145.2C2627.01 17155.5 2639.52 17168.4 2652.03 17176.1 2664.54 17183.9 2677.05 17198.7 2689.56 17191.7 2702.07 17184.8 2714.58 17143.9 2727.09 17134.3 2739.6 17124.7 2752.11 17127.3 2764.62 17134.3 2777.13 17141.4 2789.64 17170 2802.15 17176.7 2814.66 17183.3 2827.17 17172.6 2839.68 17174.4 2852.19 17176.2 2864.7 17193.3 2877.21 17187.4 2889.72 17181.6 2902.23 17142.2 2914.74 17139.2 2927.24 17136.2 2939.75 17166.2 2952.26 17169.3 2964.77 17172.4 2977.28 17166 2989.79 17158 3002.3 17150 3014.81 17109.7 3027.32 17121.3 3039.83 17132.9 3052.34 17238.5 3064.85 17227.7 3077.36 17217 3089.87 17079.5 3102.38 17056.7 3114.52 17034.5 3127.77 17077 3139.91 17090.6 3152.42 17104.7 3164.93 17130.6 3177.44 17141.1 3189.95 17151.6 3202.46 17151.8 3214.97 17153.5 3227.48 17155.2 3239.99 17159.3 3252.5 17151.4 3265.01 17143.6 3277.52 17109.2 3290.03 17106.3 3302.54 17103.3 3315.05 17133.3 3327.56 17133.8 3340.07 17134.3 3352.58 17111.5 3365.09 17109.3 3377.6 17107.2 3390.11 17115.9 3402.62 17120.8 3415.13 17125.6 3427.64 17134.8 3440.15 17138.5 3452.66 17142.1 3465.17 17136.9 3477.68 17142.9 3490.19 17149 3502.7 17184.6 3515.21 17174.9 3527.72 17165.2 3540.23 17089.6 3552.74 17084.6 3565.24 17079.5 3577.75 17126.2 3590.26 17144.6 3602.77 17163 3615.28 17199.4 3627.79 17195 3640.3 17190.5 3652.81 17127.8 3665.32 17117.9 3677.83 17108.1 3690.34 17135.6 3702.85 17135.9 3715.36 17136.2 3727.87 17121.9 3740.38 17119.5 3752.89 17117.2 3765.4 17119.4 3777.91 17121.8 3790.42 17124.2 3802.93 17136.8 3815.44 17133.8 3827.95 17130.8 3840.46 17109.3 3852.97 17103.7 3865.48 17098.1 3884.25 17100.7 3890.5 17100.1" stroke="#FFB226" stroke-width="9.16667" stroke-linecap="round" stroke-linejoin="round" stroke-miterlimit="10" fill="none"/></g><g><path d="M2614.5 17024.2C2627.01 17025.9 2639.52 17015.5 2652.03 17029.3 2664.54 17043 2677.05 17103.4 2689.56 17106.8 2702.07 17110.2 2714.58 17050.8 2727.09 17049.9 2739.6 17049.1 2752.11 17106.2 2764.62 17101.7 2777.13 17097.2 2789.64 17028.8 2802.15 17023 2814.66 17017.2 2827.17 17049.1 2839.68 17067 2852.19 17084.9 2864.7 17126.7 2877.21 17130.3 2889.72 17133.9 2902.23 17086.5 2914.74 17088.8 2927.24 17091.1 2939.75 17130.9 2952.26 17144.3 2964.77 17157.7 2977.28 17177.5 2989.79 17169 3002.3 17160.6 3014.81 17097.6 3027.32 17093.5 3039.83 17089.5 3052.34 17144.7 3064.85 17144.5 3077.36 17144.3 3089.87 17103.1 3102.38 17092.3 3114.89 17081.6 3127.4 17078.5 3139.91 17080.1 3152.42 17081.6 3164.93 17090 3177.44 17101.6 3189.95 17113.1 3202.46 17148.4 3214.97 17149.3 3227.48 17150.2 3239.99 17122.8 3252.5 17107 3265.01 17091.3 3277.52 17058.7 3290.03 17054.9 3302.54 17051 3315.05 17078.4 3327.56 17084.1 3340.07 17089.8 3352.58 17082.4 3365.09 17089.2 3377.6 17096 3390.11 17123.5 3402.62 17125 3415.13 17126.5 3427.64 17100.2 3440.15 17098.1 3452.66 17096 3465.17 17108.1 3477.68 17112.2 3490.19 17116.2 3502.7 17130.6 3515.21 17122.4 3527.72 17114.2 3540.23 17063.9 3552.74 17062.9 3565.24 17061.8 3577.75 17101.7 3590.26 17116.1 3602.77 17130.6 3615.28 17154.2 3627.79 17149.6 3640.3 17145 3652.81 17095.7 3665.32 17088.3 3677.83 17080.8 3690.34 17100.4 3702.85 17104.9 3715.36 17109.5 3727.87 17116.5 3740.38 17115.6 3752.89 17114.8 3765.4 17101.2 3777.91 17099.8 3790.42 17098.5 3802.93 17110.6 3815.44 17107.5 3827.95 17104.5 3840.46 17083.3 3852.97 17081.6 3865.48 17079.9 3884.25 17094.6 3890.5 17097.2" stroke="#000000" stroke-width="9.16667" stroke-linecap="round" stroke-linejoin="round" stroke-miterlimit="10" fill="none"/></g><g><text font-family="Inter,Inter_MSFontService,sans-serif" font-weight="400" font-size="32" transform="matrix(1 0 0 1 2542.69 17469)">80</text></g><g><text font-family="Inter,Inter_MSFontService,sans-serif" font-weight="400" font-size="32" transform="matrix(1 0 0 1 2542.46 17305)">90</text></g><g><text font-family="Inter,Inter_MSFontService,sans-serif" font-weight="400" font-size="32" transform="matrix(1 0 0 1 2527.52 17142)">100</text></g><g><text font-family="Inter,Inter_MSFontService,sans-serif" font-weight="400" font-size="32" transform="matrix(1 0 0 1 2532.67 16978)">110</text></g><g><text font-family="Inter,Inter_MSFontService,sans-serif" font-weight="400" font-size="32" transform="matrix(1 0 0 1 2528.16 16814)">120</text></g><g><text font-family="Inter,Inter_MSFontService,sans-serif" font-weight="400" font-size="32" transform="matrix(0.707107 -0.707107 0.707107 0.707107 2590.39 17535)">1/6</text></g><g><text font-family="Inter,Inter_MSFontService,sans-serif" font-weight="400" font-size="32" transform="matrix(0.707107 -0.707107 0.707107 0.707107 2690.45 17547)">1/27</text></g><g><text font-family="Inter,Inter_MSFontService,sans-serif" font-weight="400" font-size="32" transform="matrix(0.707107 -0.707107 0.707107 0.707107 2803.03 17547)">2/17</text></g><g><text font-family="Inter,Inter_MSFontService,sans-serif" font-weight="400" font-size="32" transform="matrix(0.707107 -0.707107 0.707107 0.707107 2924.23 17539)">3/9</text></g><g><text font-family="Inter,Inter_MSFontService,sans-serif" font-weight="400" font-size="32" transform="matrix(0.707107 -0.707107 0.707107 0.707107 3022.35 17553)">3/30</text></g><g><text font-family="Inter,Inter_MSFontService,sans-serif" font-weight="400" font-size="32" transform="matrix(0.707107 -0.707107 0.707107 0.707107 3135.51 17553)">4/20</text></g><g><text font-family="Inter,Inter_MSFontService,sans-serif" font-weight="400" font-size="32" transform="matrix(0.707107 -0.707107 0.707107 0.707107 3255.71 17545)">5/11</text></g><g><text font-family="Inter,Inter_MSFontService,sans-serif" font-weight="400" font-size="32" transform="matrix(0.707107 -0.707107 0.707107 0.707107 3378.47 17535)">6/1</text></g><g><text font-family="Inter,Inter_MSFontService,sans-serif" font-weight="400" font-size="32" transform="matrix(0.707107 -0.707107 0.707107 0.707107 3474.13 17552)">6/22</text></g><g><text font-family="Inter,Inter_MSFontService,sans-serif" font-weight="400" font-size="32" transform="matrix(0.707107 -0.707107 0.707107 0.707107 3590.39 17548)">7/13</text></g><g><text font-family="Inter,Inter_MSFontService,sans-serif" font-weight="400" font-size="32" transform="matrix(0.707107 -0.707107 0.707107 0.707107 3712.47 17538)">8/3</text></g><g><text font-family="Inter,Inter_MSFontService,sans-serif" font-weight="400" font-size="32" transform="matrix(0.707107 -0.707107 0.707107 0.707107 3811.2 17552)">8/24</text></g><g><text font-family="Inter,Inter_MSFontService,sans-serif" font-weight="400" font-size="32" transform="matrix(0.707107 -0.707107 0.707107 0.707107 3926.81 17549)">9/14</text></g><g><text font-family="Inter,Inter_MSFontService,sans-serif" font-weight="400" font-size="32" transform="matrix(0.707107 -0.707107 0.707107 0.707107 4040.14 17549)">10/5</text></g><g><text font-family="Inter,Inter_MSFontService,sans-serif" font-weight="400" font-size="32" transform="matrix(0.707107 -0.707107 0.707107 0.707107 4138.64 17563)">10/26</text></g><g><text font-family="Inter,Inter_MSFontService,sans-serif" font-weight="400" font-size="32" transform="matrix(0.707107 -0.707107 0.707107 0.707107 4258.06 17556)">11/16</text></g><g><text font-family="Inter,Inter_MSFontService,sans-serif" font-weight="400" font-size="32" transform="matrix(0.707107 -0.707107 0.707107 0.707107 4379.18 17547)">12/7</text></g><g><text font-family="Inter Medium,Inter Medium_MSFontService,sans-serif" font-weight="700" font-size="46" transform="matrix(1 0 0 1 2529.01 16646)">U.S. Hotel Occupancy and ADR Recovery Levels</text></g><g><path d="M2521.5 16741.5 2609.5 16741.5" stroke="#FFB226" stroke-width="9.16667" stroke-linecap="round" stroke-linejoin="round" stroke-miterlimit="10" fill="none" fill-rule="evenodd"/></g><g><text font-family="Inter Medium,Inter Medium_MSFontService,sans-serif" font-weight="500" font-size="37" transform="matrix(1 0 0 1 2618.39 16754)">Occ Index</text></g><g><path d="M2846.5 16741.5 2934.5 16741.5" stroke="#000000" stroke-width="9.16667" stroke-linecap="round" stroke-linejoin="round" stroke-miterlimit="10" fill="none" fill-rule="evenodd"/></g><g><text font-family="Inter Medium,Inter Medium_MSFontService,sans-serif" font-weight="500" font-size="37" transform="matrix(1 0 0 1 2943.74 16754)">ADR Index</text></g><rect x="2445.5" y="16556.5" width="2103" height="1056" stroke="#D9D9D9" stroke-width="3.4375" stroke-linejoin="round" stroke-miterlimit="10" fill="none"/><g><text fill="#7F7F7F" font-family="Inter,Inter_MSFontService,sans-serif" font-weight="400" font-size="32" transform="matrix(1 0 0 1 2526.75 16700)">Indexed to 2023, Source: STR, str.com</text></g></g></svg>