<svg width="2106" height="1095" xmlns="http://www.w3.org/2000/svg" xmlns:xlink="http://www.w3.org/1999/xlink" xml:space="preserve" overflow="hidden"><defs><filter id="fx0" x="-10%" y="-10%" width="120%" height="120%" filterUnits="userSpaceOnUse" primitiveUnits="userSpaceOnUse"><feComponentTransfer color-interpolation-filters="sRGB"><feFuncR type="discrete" tableValues="0 0"/><feFuncG type="discrete" tableValues="0 0"/><feFuncB type="discrete" tableValues="0 0"/><feFuncA type="linear" slope="0.501961" intercept="0"/></feComponentTransfer><feGaussianBlur stdDeviation="4.58333 4.58333"/></filter><filter id="fx1" x="-10%" y="-10%" width="120%" height="120%" filterUnits="userSpaceOnUse" primitiveUnits="userSpaceOnUse"><feComponentTransfer color-interpolation-filters="sRGB"><feFuncR type="discrete" tableValues="0 0"/><feFuncG type="discrete" tableValues="0 0"/><feFuncB type="discrete" tableValues="0 0"/><feFuncA type="linear" slope="0.501961" intercept="0"/></feComponentTransfer><feGaussianBlur stdDeviation="4.58333 4.58333"/></filter><clipPath id="clip2"><rect x="2444" y="17126" width="2106" height="1095"/></clipPath><clipPath id="clip3"><rect x="2612" y="17383" width="1885" height="681"/></clipPath><clipPath id="clip4"><rect x="2612" y="17383" width="1885" height="681"/></clipPath></defs><g clip-path="url(#clip2)" transform="translate(-2444 -17126)"><rect x="2445" y="17127" width="2103" height="1092" fill="#FFFFFF"/><g><path d="M2612.5 17722.5 4494.5 17722.5" stroke="#D9D9D9" stroke-width="3.4375" stroke-linejoin="round" stroke-miterlimit="10" fill="none" fill-rule="evenodd"/></g><g clip-path="url(#clip3)"><g filter="url(#fx0)" transform="translate(2601 17626)"><g><path d="M19.9819 117.411C32.4969 128.079 45.0122 141.392 57.5275 149.415 70.0424 157.439 82.5577 172.776 95.073 165.551 107.588 158.327 120.103 115.972 132.619 106.067 145.134 96.1624 157.648 98.8098 170.164 106.122 182.679 113.434 195.194 143.022 207.709 149.939 220.224 156.857 232.74 145.767 245.255 147.626 257.77 149.485 270.285 167.173 282.8 161.094 295.315 155.014 307.83 114.278 320.346 111.149 332.861 108.021 345.376 139.077 357.891 142.322 370.406 145.567 382.921 138.9 395.437 130.617 407.952 122.334 420.467 80.586 432.982 92.6217 445.497 104.657 458.012 213.982 470.527 202.83 483.042 191.676 495.558 49.3664 508.073 25.7037 520.09 2.98242 533.601 46.86 545.618 60.8531 558.133 75.4254 570.649 102.291 583.164 113.14 595.679 123.988 608.194 124.161 620.709 125.945 633.224 127.728 645.739 131.989 658.255 123.839 670.77 115.689 683.285 80.0899 695.8 77.0449 708.315 73.9996 720.831 105.035 733.346 105.569 745.861 106.101 758.376 82.4932 770.891 80.2424 783.406 77.9913 795.921 87.0394 808.437 92.0626 820.952 97.0854 833.467 106.554 845.982 110.38 858.497 114.206 871.012 108.728 883.528 115.019 896.043 121.31 908.558 158.195 921.073 148.126 933.588 138.056 946.103 59.8306 958.618 54.6034 971.133 49.3758 983.649 97.7087 996.164 116.761 1008.68 135.814 1021.19 173.526 1033.71 168.919 1046.22 164.312 1058.74 99.3156 1071.25 89.121 1083.77 78.9261 1096.28 107.476 1108.8 107.751 1121.32 108.025 1133.83 93.2043 1146.35 90.7697 1158.86 88.3347 1171.38 90.6717 1183.89 93.1412 1196.41 95.6108 1208.92 108.711 1221.44 105.587 1233.95 102.464 1246.47 80.2229 1258.98 74.3998 1270.38 69.095 1285.13 55.637 1296.53 70.6474 1309.04 87.1259 1321.56 163.284 1334.07 173.272 1346.59 183.26 1359.1 143.926 1371.62 130.576 1384.13 117.226 1396.65 104.95 1409.16 93.1701 1421.68 81.39 1434.19 49.0888 1446.71 59.8959 1459.22 70.7026 1471.74 158.235 1484.25 158.012 1496.77 157.789 1509.28 72.2161 1521.8 58.5576 1534.32 44.8991 1546.83 81.4736 1559.35 76.0611 1571.86 70.6481 1584.38 26.7813 1596.89 26.0805 1609.41 25.3793 1621.92 49.4425 1634.44 71.8552 1646.95 94.2675 1665.72 145.772 1671.98 160.556" stroke="#FFB226" stroke-width="9" stroke-linecap="round" stroke-linejoin="round" stroke-miterlimit="10" fill="none"/></g></g></g><g clip-path="url(#clip4)"><g filter="url(#fx1)" transform="translate(2601 17574)"><g><path d="M19.9819 44.0344C32.4911 45.7844 45.018 35.1 57.5275 49.2871 70.0424 63.4806 82.5577 125.652 95.073 129.196 107.588 132.741 120.103 71.4285 132.619 70.5536 145.134 69.6783 157.648 128.563 170.164 123.945 182.679 119.326 195.194 48.8037 207.709 42.8434 220.224 36.8827 232.74 69.748 245.255 88.1811 257.77 106.614 270.285 149.695 282.8 153.44 295.315 157.185 307.83 108.246 320.346 110.651 332.861 113.055 345.376 154.083 357.891 167.868 370.406 181.653 382.921 202.082 395.437 193.36 407.952 184.639 420.467 119.755 432.982 115.54 445.497 111.323 458.012 168.272 470.527 168.065 483.042 167.857 495.558 125.363 508.073 114.296 520.588 103.229 533.103 100.075 545.618 101.664 558.133 103.252 570.649 111.933 583.164 123.826 595.679 135.719 608.194 172.084 620.709 173.02 633.224 173.956 645.739 145.666 658.255 129.441 670.77 113.216 683.285 79.6063 695.8 75.6702 708.315 71.7338 720.831 99.9256 733.346 105.823 745.861 111.72 758.376 104.026 770.891 111.055 783.406 118.083 795.921 146.464 808.437 147.995 820.952 149.526 833.467 122.446 845.982 120.239 858.497 118.033 871.012 130.583 883.528 134.756 896.043 138.929 908.558 153.749 921.073 145.278 933.588 136.806 946.103 85.0092 958.618 83.9293 971.133 82.8494 983.649 123.9 996.164 138.798 1008.68 153.696 1021.19 178.099 1033.71 173.317 1046.22 168.536 1058.74 117.782 1071.25 110.109 1083.77 102.436 1096.28 122.583 1108.8 127.278 1121.32 131.973 1133.83 139.155 1146.35 138.279 1158.86 137.403 1171.38 123.408 1183.89 122.022 1196.41 120.636 1208.92 133.093 1221.44 129.962 1233.95 126.831 1246.47 105.02 1258.98 103.239 1271.5 101.458 1284.01 108.86 1296.53 119.275 1309.04 129.689 1321.56 161.408 1334.07 165.728 1346.59 170.047 1359.1 153.579 1371.62 145.193 1384.11 136.822 1396.67 135.819 1409.16 115.408 1421.68 94.9578 1434.19 3.98242 1446.71 22.4924 1459.22 41.0025 1471.74 208.954 1484.25 226.468 1496.77 243.982 1509.28 147.266 1521.8 127.578 1533.09 109.812 1548.05 116.587 1559.35 108.338 1571.86 99.1966 1584.38 68.8634 1596.89 72.73 1609.41 76.5963 1621.92 118.067 1634.44 131.536 1646.95 145.005 1665.72 149.877 1671.98 153.545" stroke="#000000" stroke-width="9" stroke-linecap="round" stroke-linejoin="round" stroke-miterlimit="10" fill="none"/></g></g></g><g><path d="M2614.5 17736.9C2627.01 17747.6 2639.53 17760.9 2652.05 17768.9 2664.56 17777 2677.08 17792.3 2689.59 17785.1 2702.11 17777.8 2714.62 17735.5 2727.14 17725.6 2739.65 17715.7 2752.17 17718.3 2764.68 17725.6 2777.2 17733 2789.71 17762.5 2802.23 17769.5 2814.74 17776.4 2827.26 17765.3 2839.77 17767.1 2852.29 17769 2864.8 17786.7 2877.32 17780.6 2889.83 17774.5 2902.35 17733.8 2914.86 17730.7 2927.38 17727.5 2939.89 17758.6 2952.41 17761.8 2964.92 17765.1 2977.44 17758.4 2989.95 17750.1 3002.47 17741.9 3014.98 17700.1 3027.5 17712.1 3040.02 17724.2 3052.53 17833.5 3065.05 17822.3 3077.56 17811.2 3090.08 17668.9 3102.59 17645.2 3114.61 17622.5 3128.12 17666.4 3140.14 17680.4 3152.65 17694.9 3165.17 17721.8 3177.68 17732.7 3190.2 17743.5 3202.71 17743.7 3215.23 17745.5 3227.74 17747.2 3240.26 17751.5 3252.77 17743.4 3265.29 17735.2 3277.8 17699.6 3290.32 17696.6 3302.83 17693.5 3315.35 17724.6 3327.86 17725.1 3340.38 17725.6 3352.89 17702 3365.41 17699.8 3377.92 17697.5 3390.44 17706.6 3402.95 17711.6 3415.47 17716.6 3427.98 17726.1 3440.5 17729.9 3453.02 17733.7 3465.53 17728.2 3478.05 17734.5 3490.56 17740.8 3503.08 17777.7 3515.59 17767.6 3528.11 17757.6 3540.62 17679.3 3553.14 17674.1 3565.65 17668.9 3578.17 17717.2 3590.68 17736.3 3603.2 17755.3 3615.71 17793 3628.23 17788.4 3640.74 17783.8 3653.26 17718.8 3665.77 17708.6 3678.29 17698.4 3690.8 17727 3703.32 17727.3 3715.83 17727.5 3728.35 17712.7 3740.86 17710.3 3753.38 17707.9 3765.89 17710.2 3778.41 17712.7 3790.92 17715.1 3803.44 17728.2 3815.95 17725.1 3828.47 17722 3840.98 17699.7 3853.5 17693.9 3864.9 17688.6 3879.65 17675.2 3891.05 17690.2 3903.56 17706.6 3916.08 17782.8 3928.59 17792.8 3941.11 17802.8 3953.62 17763.4 3966.14 17750.1 3978.65 17736.7 3991.17 17724.5 4003.68 17712.7 4016.2 17700.9 4028.71 17668.6 4041.23 17679.4 4053.74 17690.2 4066.26 17777.8 4078.77 17777.5 4091.29 17777.3 4103.8 17691.7 4116.32 17678.1 4128.83 17664.4 4141.35 17701 4153.86 17695.6 4166.38 17690.2 4178.89 17646.3 4191.41 17645.6 4203.92 17644.9 4216.44 17669 4228.95 17691.4 4241.47 17713.8 4260.24 17765.3 4266.5 17780.1" stroke="#FFB226" stroke-width="9.16667" stroke-linecap="round" stroke-linejoin="round" stroke-miterlimit="10" fill="none"/></g><g><path d="M2614.5 17611.6C2627.01 17613.3 2639.54 17602.6 2652.05 17616.8 2664.56 17631 2677.08 17693.2 2689.59 17696.7 2702.11 17700.3 2714.62 17638.9 2727.14 17638.1 2739.65 17637.2 2752.17 17696.1 2764.68 17691.5 2777.2 17686.8 2789.71 17616.3 2802.23 17610.4 2814.74 17604.4 2827.26 17637.3 2839.77 17655.7 2852.29 17674.1 2864.8 17717.2 2877.32 17721 2889.83 17724.7 2902.35 17675.8 2914.86 17678.2 2927.38 17680.6 2939.89 17721.6 2952.41 17735.4 2964.92 17749.2 2977.44 17769.6 2989.95 17760.9 3002.47 17752.2 3014.98 17687.3 3027.5 17683.1 3040.02 17678.8 3052.53 17735.8 3065.05 17735.6 3077.56 17735.4 3090.08 17692.9 3102.59 17681.8 3115.11 17670.7 3127.62 17667.6 3140.14 17669.2 3152.65 17670.8 3165.17 17679.5 3177.68 17691.3 3190.2 17703.2 3202.71 17739.6 3215.23 17740.5 3227.74 17741.5 3240.26 17713.2 3252.77 17697 3265.29 17680.7 3277.8 17647.1 3290.32 17643.2 3302.83 17639.3 3315.35 17667.4 3327.86 17673.3 3340.38 17679.2 3352.89 17671.5 3365.41 17678.6 3377.92 17685.6 3390.44 17714 3402.95 17715.5 3415.47 17717 3427.98 17690 3440.5 17687.8 3453.02 17685.6 3465.53 17698.1 3478.05 17702.3 3490.56 17706.4 3503.08 17721.3 3515.59 17712.8 3528.11 17704.3 3540.62 17652.5 3553.14 17651.4 3565.65 17650.4 3578.17 17691.4 3590.68 17706.3 3603.2 17721.2 3615.71 17745.6 3628.23 17740.8 3640.74 17736.1 3653.26 17685.3 3665.77 17677.6 3678.29 17670 3690.8 17690.1 3703.32 17694.8 3715.83 17699.5 3728.35 17706.7 3740.86 17705.8 3753.38 17704.9 3765.89 17690.9 3778.41 17689.5 3790.92 17688.2 3803.44 17700.6 3815.95 17697.5 3828.47 17694.3 3840.98 17672.5 3853.5 17670.8 3866.02 17669 3878.53 17676.4 3891.05 17686.8 3903.56 17697.2 3916.08 17728.9 3928.59 17733.2 3941.11 17737.6 3953.62 17721.1 3966.14 17712.7 3978.63 17704.3 3991.19 17703.3 4003.68 17682.9 4016.2 17662.5 4028.71 17571.5 4041.23 17590 4053.74 17608.5 4066.26 17776.5 4078.77 17794 4091.29 17811.5 4103.8 17714.8 4116.32 17695.1 4127.61 17677.3 4142.57 17684.1 4153.86 17675.9 4166.38 17666.7 4178.89 17636.4 4191.41 17640.2 4203.92 17644.1 4216.44 17685.6 4228.95 17699.1 4241.47 17712.5 4260.24 17717.4 4266.5 17721.1" stroke="#000000" stroke-width="9.16667" stroke-linecap="round" stroke-linejoin="round" stroke-miterlimit="10" fill="none"/></g><g><text font-family="Inter,Inter_MSFontService,sans-serif" font-weight="400" font-size="32" transform="matrix(1 0 0 1 2542.69 18071)">80</text></g><g><text font-family="Inter,Inter_MSFontService,sans-serif" font-weight="400" font-size="32" transform="matrix(1 0 0 1 2542.46 17902)">90</text></g><g><text font-family="Inter,Inter_MSFontService,sans-serif" font-weight="400" font-size="32" transform="matrix(1 0 0 1 2527.52 17732)">100</text></g><g><text font-family="Inter,Inter_MSFontService,sans-serif" font-weight="400" font-size="32" transform="matrix(1 0 0 1 2532.67 17563)">110</text></g><g><text font-family="Inter,Inter_MSFontService,sans-serif" font-weight="400" font-size="32" transform="matrix(1 0 0 1 2528.16 17393)">120</text></g><g><text font-family="Inter,Inter_MSFontService,sans-serif" font-weight="400" font-size="32" transform="matrix(0.707107 -0.707107 0.707107 0.707107 2590.39 18137)">1/6</text></g><g><text font-family="Inter,Inter_MSFontService,sans-serif" font-weight="400" font-size="32" transform="matrix(0.707107 -0.707107 0.707107 0.707107 2690.45 18149)">1/27</text></g><g><text font-family="Inter,Inter_MSFontService,sans-serif" font-weight="400" font-size="32" transform="matrix(0.707107 -0.707107 0.707107 0.707107 2803.03 18149)">2/17</text></g><g><text font-family="Inter,Inter_MSFontService,sans-serif" font-weight="400" font-size="32" transform="matrix(0.707107 -0.707107 0.707107 0.707107 2924.23 18141)">3/9</text></g><g><text font-family="Inter,Inter_MSFontService,sans-serif" font-weight="400" font-size="32" transform="matrix(0.707107 -0.707107 0.707107 0.707107 3022.35 18155)">3/30</text></g><g><text font-family="Inter,Inter_MSFontService,sans-serif" font-weight="400" font-size="32" transform="matrix(0.707107 -0.707107 0.707107 0.707107 3135.51 18155)">4/20</text></g><g><text font-family="Inter,Inter_MSFontService,sans-serif" font-weight="400" font-size="32" transform="matrix(0.707107 -0.707107 0.707107 0.707107 3255.71 18147)">5/11</text></g><g><text font-family="Inter,Inter_MSFontService,sans-serif" font-weight="400" font-size="32" transform="matrix(0.707107 -0.707107 0.707107 0.707107 3378.47 18137)">6/1</text></g><g><text font-family="Inter,Inter_MSFontService,sans-serif" font-weight="400" font-size="32" transform="matrix(0.707107 -0.707107 0.707107 0.707107 3474.13 18154)">6/22</text></g><g><text font-family="Inter,Inter_MSFontService,sans-serif" font-weight="400" font-size="32" transform="matrix(0.707107 -0.707107 0.707107 0.707107 3590.39 18150)">7/13</text></g><g><text font-family="Inter,Inter_MSFontService,sans-serif" font-weight="400" font-size="32" transform="matrix(0.707107 -0.707107 0.707107 0.707107 3712.47 18140)">8/3</text></g><g><text font-family="Inter,Inter_MSFontService,sans-serif" font-weight="400" font-size="32" transform="matrix(0.707107 -0.707107 0.707107 0.707107 3811.2 18154)">8/24</text></g><g><text font-family="Inter,Inter_MSFontService,sans-serif" font-weight="400" font-size="32" transform="matrix(0.707107 -0.707107 0.707107 0.707107 3926.81 18151)">9/14</text></g><g><text font-family="Inter,Inter_MSFontService,sans-serif" font-weight="400" font-size="32" transform="matrix(0.707107 -0.707107 0.707107 0.707107 4040.14 18151)">10/5</text></g><g><text font-family="Inter,Inter_MSFontService,sans-serif" font-weight="400" font-size="32" transform="matrix(0.707107 -0.707107 0.707107 0.707107 4138.64 18165)">10/26</text></g><g><text font-family="Inter,Inter_MSFontService,sans-serif" font-weight="400" font-size="32" transform="matrix(0.707107 -0.707107 0.707107 0.707107 4258.06 18158)">11/16</text></g><g><text font-family="Inter,Inter_MSFontService,sans-serif" font-weight="400" font-size="32" transform="matrix(0.707107 -0.707107 0.707107 0.707107 4379.18 18149)">12/7</text></g><g><text font-family="Inter Medium,Inter Medium_MSFontService,sans-serif" font-weight="700" font-size="46" transform="matrix(1 0 0 1 2529.01 17217)">U.S. Hotel Occupancy and ADR Recovery Levels</text></g><g><path d="M2521.5 17318.5 2609.5 17318.5" stroke="#FFB226" stroke-width="9.16667" stroke-linecap="round" stroke-linejoin="round" stroke-miterlimit="10" fill="none" fill-rule="evenodd"/></g><g><text font-family="Inter Medium,Inter Medium_MSFontService,sans-serif" font-weight="500" font-size="37" transform="matrix(1 0 0 1 2618.39 17331)">Occ Index</text></g><g><path d="M2846.5 17318.5 2934.5 17318.5" stroke="#000000" stroke-width="9.16667" stroke-linecap="round" stroke-linejoin="round" stroke-miterlimit="10" fill="none" fill-rule="evenodd"/></g><g><text font-family="Inter Medium,Inter Medium_MSFontService,sans-serif" font-weight="500" font-size="37" transform="matrix(1 0 0 1 2943.74 17331)">ADR Index</text></g><rect x="2445.5" y="17127.5" width="2103" height="1092" stroke="#D9D9D9" stroke-width="3.4375" stroke-linejoin="round" stroke-miterlimit="10" fill="none"/><g><text fill="#7F7F7F" font-family="Inter,Inter_MSFontService,sans-serif" font-weight="400" font-size="32" transform="matrix(1 0 0 1 2526.75 17274)">Indexed to 2023, Source: STR, str.com</text></g></g></svg>