<svg width="2106" height="1052" xmlns="http://www.w3.org/2000/svg" xmlns:xlink="http://www.w3.org/1999/xlink" xml:space="preserve" overflow="hidden"><defs><filter id="fx0" x="-10%" y="-10%" width="120%" height="120%" filterUnits="userSpaceOnUse" primitiveUnits="userSpaceOnUse"><feComponentTransfer color-interpolation-filters="sRGB"><feFuncR type="discrete" tableValues="0 0"/><feFuncG type="discrete" tableValues="0 0"/><feFuncB type="discrete" tableValues="0 0"/><feFuncA type="linear" slope="0.501961" intercept="0"/></feComponentTransfer><feGaussianBlur stdDeviation="4.58333 4.58333"/></filter><filter id="fx1" x="-10%" y="-10%" width="120%" height="120%" filterUnits="userSpaceOnUse" primitiveUnits="userSpaceOnUse"><feComponentTransfer color-interpolation-filters="sRGB"><feFuncR type="discrete" tableValues="0 0"/><feFuncG type="discrete" tableValues="0 0"/><feFuncB type="discrete" tableValues="0 0"/><feFuncA type="linear" slope="0.501961" intercept="0"/></feComponentTransfer><feGaussianBlur stdDeviation="4.58333 4.58333"/></filter><clipPath id="clip2"><rect x="2444" y="16441" width="2106" height="1052"/></clipPath><clipPath id="clip3"><rect x="2612" y="16688" width="1885" height="654"/></clipPath><clipPath id="clip4"><rect x="2612" y="16688" width="1885" height="654"/></clipPath><clipPath id="clip5"><rect x="2612" y="16688" width="1885" height="654"/></clipPath></defs><g clip-path="url(#clip2)" transform="translate(-2444 -16441)"><rect x="2445" y="16442" width="2103" height="1049" fill="#FFFFFF"/><g><path d="M2612.5 17013.5 4494.5 17013.5" stroke="#D9D9D9" stroke-width="3.4375" stroke-linejoin="round" stroke-miterlimit="10" fill="none" fill-rule="evenodd"/></g><g clip-path="url(#clip3)"><g filter="url(#fx0)" transform="translate(2601 16674)"><g><path d="M19.9819 359.746C32.4924 369.99 45.0031 382.774 57.5139 390.478 70.0244 398.183 82.5352 412.91 95.0459 405.973 107.556 399.035 120.067 358.365 132.578 348.853 145.088 339.342 157.599 341.884 170.11 348.906 182.62 355.927 195.131 384.339 207.642 390.982 220.152 397.624 232.663 386.975 245.174 388.76 257.684 390.545 270.195 407.53 282.706 401.692 295.216 395.854 307.726 356.738 320.237 353.734 332.748 350.729 345.258 380.551 357.769 383.667 370.28 386.783 382.79 380.381 395.301 372.427 407.812 364.473 420.322 324.385 432.833 335.942 445.344 347.499 457.854 452.479 470.365 441.769 482.875 431.06 495.386 294.406 507.897 271.684 520.067 249.579 533.258 291.823 545.429 305.436 557.939 319.43 570.45 345.227 582.961 355.645 595.471 366.062 607.982 366.229 620.492 367.941 633.003 369.653 645.514 373.745 658.025 365.919 670.535 358.093 683.046 323.909 695.557 320.985 708.067 318.06 720.578 347.862 733.089 348.374 745.599 348.886 758.109 326.216 770.62 324.055 783.131 321.893 795.641 330.582 808.152 335.405 820.663 340.228 833.173 349.321 845.684 352.995 858.195 356.669 870.705 351.409 883.216 357.45 895.727 363.49 908.237 398.909 920.748 389.24 933.258 379.571 945.769 304.455 958.28 299.435 970.79 294.415 983.301 340.827 995.812 359.122 1008.32 377.417 1020.83 413.63 1033.34 409.207 1045.85 404.783 1058.36 342.37 1070.88 332.58 1083.39 322.791 1095.9 350.206 1108.41 350.47 1120.92 350.734 1133.43 336.501 1145.94 334.164 1158.45 331.825 1170.96 334.069 1183.47 336.441 1195.98 338.812 1208.49 351.391 1221 348.392 1233.51 345.392 1246.02 324.036 1258.54 318.444 1270.22 313.22 1284.38 300.058 1296.07 314.841 1308.58 330.665 1321.09 403.796 1333.6 413.387 1346.11 422.978 1358.62 385.208 1371.13 372.388 1383.64 359.568 1396.15 347.781 1408.66 336.469 1421.17 325.157 1433.68 294.14 1446.19 304.517 1458.71 314.894 1471.22 398.947 1483.73 398.733 1496.24 398.519 1508.75 316.348 1521.26 303.232 1533.77 290.116 1546.28 325.238 1558.79 320.04 1571.3 314.842 1583.81 272.719 1596.32 272.046 1608.83 271.373 1621.34 294.479 1633.85 316.001 1646.36 337.523 1658.88 400.091 1671.39 401.176 1679.54 401.883 1700.77 365.317 1708.92 322.51 1721.43 256.796 1733.94-18.0176 1746.45 6.89481 1758.96 31.8068 1777.73 394.468 1783.98 471.982" stroke="#FFB226" stroke-width="9" stroke-linecap="round" stroke-linejoin="round" stroke-miterlimit="10" fill="none"/></g></g></g><g clip-path="url(#clip4)"><g filter="url(#fx1)" transform="translate(2601 16857)"><g><path d="M19.9819 56.4667C32.4924 58.1522 45.0031 47.858 57.5139 61.5241 70.0244 75.1902 82.5352 135.051 95.0459 138.463 107.556 141.876 120.067 82.8424 132.578 82 145.088 81.1572 157.599 137.853 170.11 133.407 182.62 128.96 195.131 61.0587 207.642 55.3197 220.152 49.5804 232.663 81.2243 245.174 98.9723 257.684 116.72 270.195 158.2 282.706 161.806 295.216 165.412 307.726 118.292 320.237 120.607 332.748 122.922 345.258 162.425 357.769 175.698 370.28 188.97 382.79 208.64 395.301 200.243 407.812 191.845 420.322 129.373 432.833 125.314 445.344 121.255 457.854 176.087 470.365 175.887 482.875 175.687 495.386 134.772 507.897 124.117 520.407 113.461 532.918 110.425 545.429 111.954 557.939 113.483 570.45 121.842 582.961 133.292 595.471 144.743 607.982 179.757 620.492 180.658 633.003 181.559 645.514 154.321 658.025 138.699 670.535 123.077 683.046 90.7165 695.557 86.9265 708.067 83.1365 720.578 110.28 733.089 115.959 745.599 121.637 758.109 114.229 770.62 120.996 783.131 127.763 795.641 155.09 808.152 156.563 820.663 158.037 833.173 131.963 845.684 129.839 858.195 127.714 870.705 139.798 883.216 143.816 895.727 147.834 908.237 162.103 920.748 153.947 933.258 145.791 945.769 95.9186 958.28 94.8788 970.79 93.8387 983.301 133.364 995.812 147.708 1008.32 162.052 1020.83 185.548 1033.34 180.944 1045.85 176.34 1058.36 127.473 1070.88 120.085 1083.39 112.697 1095.9 132.095 1108.41 136.616 1120.92 141.136 1133.43 148.052 1145.94 147.209 1158.45 146.365 1170.96 132.891 1183.47 131.556 1195.98 130.221 1208.49 142.215 1221 139.201 1233.51 136.186 1246.02 115.186 1258.54 113.471 1271.05 111.756 1283.56 118.882 1296.07 128.91 1308.58 138.938 1321.09 169.478 1333.6 173.637 1346.11 177.796 1358.62 161.94 1371.13 153.865 1383.64 145.79 1396.15 144.877 1408.66 125.187 1421.17 105.497 1433.68 17.903 1446.19 35.7253 1458.71 53.5472 1471.22 215.256 1483.73 232.12 1496.24 248.983 1508.75 155.861 1521.26 136.905 1532.78 119.442 1547.27 126.488 1558.79 118.381 1571.3 109.579 1583.81 80.3725 1596.32 84.0954 1608.83 87.818 1621.34 127.748 1633.85 140.716 1646.36 153.685 1658.88 155.585 1671.39 161.907 1680.96 166.745 1699.34 196.819 1708.92 178.645 1721.43 154.904 1733.94 14.9824 1746.45 19.4579 1758.96 23.9331 1777.73 174.491 1783.98 205.498" stroke="#000000" stroke-width="9" stroke-linecap="round" stroke-linejoin="round" stroke-miterlimit="10" fill="none"/></g></g></g><g clip-path="url(#clip5)"><path d="M2614.5 17027.3C2627.01 17037.5 2639.52 17050.3 2652.03 17058 2664.54 17065.7 2677.05 17080.4 2689.56 17073.5 2702.07 17066.6 2714.59 17025.9 2727.1 17016.4 2739.61 17006.9 2752.12 17009.4 2764.63 17016.4 2777.14 17023.4 2789.65 17051.9 2802.16 17058.5 2814.67 17065.1 2827.18 17054.5 2839.69 17056.3 2852.2 17058.1 2864.71 17075 2877.22 17069.2 2889.73 17063.4 2902.24 17024.3 2914.76 17021.3 2927.27 17018.2 2939.78 17048.1 2952.29 17051.2 2964.8 17054.3 2977.31 17047.9 2989.82 17039.9 3002.33 17032 3014.84 16991.9 3027.35 17003.5 3039.86 17015 3052.37 17120 3064.88 17109.3 3077.39 17098.6 3089.9 16961.9 3102.42 16939.2 3114.59 16917.1 3127.78 16959.3 3139.95 16973 3152.46 16986.9 3164.97 17012.7 3177.48 17023.2 3189.99 17033.6 3202.5 17033.7 3215.01 17035.5 3227.52 17037.2 3240.03 17041.3 3252.54 17033.4 3265.05 17025.6 3277.56 16991.4 3290.07 16988.5 3302.58 16985.6 3315.1 17015.4 3327.61 17015.9 3340.12 17016.4 3352.63 16993.7 3365.14 16991.6 3377.65 16989.4 3390.16 16998.1 3402.67 17002.9 3415.18 17007.7 3427.69 17016.8 3440.2 17020.5 3452.71 17024.2 3465.22 17018.9 3477.73 17025 3490.24 17031 3502.76 17066.4 3515.27 17056.8 3527.78 17047.1 3540.29 16972 3552.8 16967 3565.31 16961.9 3577.82 17008.3 3590.33 17026.6 3602.84 17044.9 3615.35 17081.1 3627.86 17076.7 3640.37 17072.3 3652.88 17009.9 3665.39 17000.1 3677.9 16990.3 3690.41 17017.7 3702.93 17018 3715.44 17018.3 3727.95 17004 3740.46 17001.7 3752.97 16999.3 3765.48 17001.6 3777.99 17004 3790.5 17006.3 3803.01 17018.9 3815.52 17015.9 3828.03 17012.9 3840.54 16991.6 3853.05 16986 3864.74 16980.7 3878.9 16967.6 3890.59 16982.4 3903.1 16998.2 3915.61 17071.3 3928.12 17080.9 3940.63 17090.5 3953.14 17052.7 3965.65 17039.9 3978.16 17027.1 3990.67 17015.3 4003.18 17004 4015.69 16992.7 4028.2 16961.7 4040.71 16972 4053.22 16982.4 4065.73 17066.5 4078.24 17066.2 4090.75 17066 4103.27 16983.9 4115.78 16970.8 4128.29 16957.6 4140.8 16992.8 4153.31 16987.6 4165.82 16982.4 4178.33 16940.2 4190.84 16939.6 4203.35 16938.9 4215.86 16962 4228.37 16983.5 4240.88 17005 4253.39 17067.6 4265.9 17068.7 4274.05 17069.4 4295.29 17032.8 4303.44 16990 4315.95 16924.3 4328.46 16649.5 4340.97 16674.4 4353.48 16699.3 4372.24 17062 4378.5 17139.5" stroke="#FFB226" stroke-width="9.16667" stroke-linecap="round" stroke-linejoin="round" stroke-miterlimit="10" fill="none"/></g><g><path d="M2614.5 16907C2627.01 16908.7 2639.52 16898.4 2652.03 16912 2664.54 16925.7 2677.05 16985.6 2689.56 16989 2702.07 16992.4 2714.59 16933.4 2727.1 16932.5 2739.61 16931.7 2752.12 16988.4 2764.63 16983.9 2777.14 16979.5 2789.65 16911.6 2802.16 16905.8 2814.67 16900.1 2827.18 16931.7 2839.69 16949.5 2852.2 16967.2 2864.71 17008.7 2877.22 17012.3 2889.73 17015.9 2902.24 16968.8 2914.76 16971.1 2927.27 16973.4 2939.78 17012.9 2952.29 17026.2 2964.8 17039.5 2977.31 17059.2 2989.82 17050.8 3002.33 17042.4 3014.84 16979.9 3027.35 16975.8 3039.86 16971.8 3052.37 17026.6 3064.88 17026.4 3077.39 17026.2 3089.9 16985.3 3102.42 16974.6 3114.93 16964 3127.44 16960.9 3139.95 16962.5 3152.46 16964 3164.97 16972.4 3177.48 16983.8 3189.99 16995.3 3202.5 17030.3 3215.01 17031.2 3227.52 17032.1 3240.03 17004.8 3252.54 16989.2 3265.05 16973.6 3277.56 16941.2 3290.07 16937.4 3302.58 16933.7 3315.1 16960.8 3327.61 16966.5 3340.12 16972.2 3352.63 16964.7 3365.14 16971.5 3377.65 16978.3 3390.16 17005.6 3402.67 17007.1 3415.18 17008.6 3427.69 16982.5 3440.2 16980.4 3452.71 16978.2 3465.22 16990.3 3477.73 16994.3 3490.24 16998.4 3502.76 17012.6 3515.27 17004.5 3527.78 16996.3 3540.29 16946.4 3552.8 16945.4 3565.31 16944.4 3577.82 16983.9 3590.33 16998.2 3602.84 17012.6 3615.35 17036.1 3627.86 17031.5 3640.37 17026.9 3652.88 16978 3665.39 16970.6 3677.9 16963.2 3690.41 16982.6 3702.93 16987.1 3715.44 16991.7 3727.95 16998.6 3740.46 16997.7 3752.97 16996.9 3765.48 16983.4 3777.99 16982.1 3790.5 16980.7 3803.01 16992.7 3815.52 16989.7 3828.03 16986.7 3840.54 16965.7 3853.05 16964 3865.56 16962.3 3878.07 16969.4 3890.59 16979.4 3903.1 16989.5 3915.61 17020 3928.12 17024.2 3940.63 17028.3 3953.14 17012.5 3965.65 17004.4 3978.16 16996.3 3990.67 16995.4 4003.18 16975.7 4015.69 16956 4028.2 16868.4 4040.71 16886.2 4053.22 16904.1 4065.73 17065.8 4078.24 17082.6 4090.75 17099.5 4103.27 17006.4 4115.78 16987.4 4127.3 16970 4141.78 16977 4153.31 16968.9 4165.82 16960.1 4178.33 16930.9 4190.84 16934.6 4203.35 16938.3 4215.86 16978.3 4228.37 16991.2 4240.88 17004.2 4253.39 17006.1 4265.9 17012.4 4275.48 17017.3 4293.86 17047.3 4303.44 17029.2 4315.95 17005.4 4328.46 16865.5 4340.97 16870 4353.48 16874.5 4372.24 17025 4378.5 17056" stroke="#000000" stroke-width="9.16667" stroke-linecap="round" stroke-linejoin="round" stroke-miterlimit="10" fill="none"/></g><g><text font-family="Inter,Inter_MSFontService,sans-serif" font-weight="400" font-size="32" transform="matrix(1 0 0 1 2542.69 17349)">80</text></g><g><text font-family="Inter,Inter_MSFontService,sans-serif" font-weight="400" font-size="32" transform="matrix(1 0 0 1 2542.46 17186)">90</text></g><g><text font-family="Inter,Inter_MSFontService,sans-serif" font-weight="400" font-size="32" transform="matrix(1 0 0 1 2527.52 17023)">100</text></g><g><text font-family="Inter,Inter_MSFontService,sans-serif" font-weight="400" font-size="32" transform="matrix(1 0 0 1 2532.67 16861)">110</text></g><g><text font-family="Inter,Inter_MSFontService,sans-serif" font-weight="400" font-size="32" transform="matrix(1 0 0 1 2528.16 16698)">120</text></g><g><text font-family="Inter,Inter_MSFontService,sans-serif" font-weight="400" font-size="32" transform="matrix(0.707107 -0.707107 0.707107 0.707107 2590.39 17414)">1/6</text></g><g><text font-family="Inter,Inter_MSFontService,sans-serif" font-weight="400" font-size="32" transform="matrix(0.707107 -0.707107 0.707107 0.707107 2690.45 17427)">1/27</text></g><g><text font-family="Inter,Inter_MSFontService,sans-serif" font-weight="400" font-size="32" transform="matrix(0.707107 -0.707107 0.707107 0.707107 2803.03 17427)">2/17</text></g><g><text font-family="Inter,Inter_MSFontService,sans-serif" font-weight="400" font-size="32" transform="matrix(0.707107 -0.707107 0.707107 0.707107 2924.23 17418)">3/9</text></g><g><text font-family="Inter,Inter_MSFontService,sans-serif" font-weight="400" font-size="32" transform="matrix(0.707107 -0.707107 0.707107 0.707107 3022.35 17433)">3/30</text></g><g><text font-family="Inter,Inter_MSFontService,sans-serif" font-weight="400" font-size="32" transform="matrix(0.707107 -0.707107 0.707107 0.707107 3135.51 17432)">4/20</text></g><g><text font-family="Inter,Inter_MSFontService,sans-serif" font-weight="400" font-size="32" transform="matrix(0.707107 -0.707107 0.707107 0.707107 3255.71 17425)">5/11</text></g><g><text font-family="Inter,Inter_MSFontService,sans-serif" font-weight="400" font-size="32" transform="matrix(0.707107 -0.707107 0.707107 0.707107 3378.47 17414)">6/1</text></g><g><text font-family="Inter,Inter_MSFontService,sans-serif" font-weight="400" font-size="32" transform="matrix(0.707107 -0.707107 0.707107 0.707107 3474.13 17431)">6/22</text></g><g><text font-family="Inter,Inter_MSFontService,sans-serif" font-weight="400" font-size="32" transform="matrix(0.707107 -0.707107 0.707107 0.707107 3590.39 17428)">7/13</text></g><g><text font-family="Inter,Inter_MSFontService,sans-serif" font-weight="400" font-size="32" transform="matrix(0.707107 -0.707107 0.707107 0.707107 3712.47 17418)">8/3</text></g><g><text font-family="Inter,Inter_MSFontService,sans-serif" font-weight="400" font-size="32" transform="matrix(0.707107 -0.707107 0.707107 0.707107 3811.2 17432)">8/24</text></g><g><text font-family="Inter,Inter_MSFontService,sans-serif" font-weight="400" font-size="32" transform="matrix(0.707107 -0.707107 0.707107 0.707107 3926.81 17429)">9/14</text></g><g><text font-family="Inter,Inter_MSFontService,sans-serif" font-weight="400" font-size="32" transform="matrix(0.707107 -0.707107 0.707107 0.707107 4040.14 17428)">10/5</text></g><g><text font-family="Inter,Inter_MSFontService,sans-serif" font-weight="400" font-size="32" transform="matrix(0.707107 -0.707107 0.707107 0.707107 4138.64 17442)">10/26</text></g><g><text font-family="Inter,Inter_MSFontService,sans-serif" font-weight="400" font-size="32" transform="matrix(0.707107 -0.707107 0.707107 0.707107 4258.06 17435)">11/16</text></g><g><text font-family="Inter,Inter_MSFontService,sans-serif" font-weight="400" font-size="32" transform="matrix(0.707107 -0.707107 0.707107 0.707107 4379.18 17427)">12/7</text></g><g><text font-family="Inter Medium,Inter Medium_MSFontService,sans-serif" font-weight="700" font-size="46" transform="matrix(1 0 0 1 2529.01 16531)">U.S. Hotel Occupancy and ADR Recovery Levels</text></g><g><path d="M2521.5 16626.5 2609.5 16626.5" stroke="#FFB226" stroke-width="9.16667" stroke-linecap="round" stroke-linejoin="round" stroke-miterlimit="10" fill="none" fill-rule="evenodd"/></g><g><text font-family="Inter Medium,Inter Medium_MSFontService,sans-serif" font-weight="500" font-size="37" transform="matrix(1 0 0 1 2618.39 16638)">Occ Index</text></g><g><path d="M2846.5 16626.5 2934.5 16626.5" stroke="#000000" stroke-width="9.16667" stroke-linecap="round" stroke-linejoin="round" stroke-miterlimit="10" fill="none" fill-rule="evenodd"/></g><g><text font-family="Inter Medium,Inter Medium_MSFontService,sans-serif" font-weight="500" font-size="37" transform="matrix(1 0 0 1 2943.74 16638)">ADR Index</text></g><rect x="2445.5" y="16442.5" width="2103" height="1049" stroke="#D9D9D9" stroke-width="3.4375" stroke-linejoin="round" stroke-miterlimit="10" fill="none"/><g><text fill="#7F7F7F" font-family="Inter,Inter_MSFontService,sans-serif" font-weight="400" font-size="32" transform="matrix(1 0 0 1 2526.75 16585)">Indexed to 2023, Source: STR, str.com</text></g></g></svg>