<svg width="2106" height="1095" xmlns="http://www.w3.org/2000/svg" xmlns:xlink="http://www.w3.org/1999/xlink" xml:space="preserve" overflow="hidden"><defs><filter id="fx0" x="-10%" y="-10%" width="120%" height="120%" filterUnits="userSpaceOnUse" primitiveUnits="userSpaceOnUse"><feComponentTransfer color-interpolation-filters="sRGB"><feFuncR type="discrete" tableValues="0 0"/><feFuncG type="discrete" tableValues="0 0"/><feFuncB type="discrete" tableValues="0 0"/><feFuncA type="linear" slope="0.501961" intercept="0"/></feComponentTransfer><feGaussianBlur stdDeviation="4.58333 4.58333"/></filter><filter id="fx1" x="-10%" y="-10%" width="120%" height="120%" filterUnits="userSpaceOnUse" primitiveUnits="userSpaceOnUse"><feComponentTransfer color-interpolation-filters="sRGB"><feFuncR type="discrete" tableValues="0 0"/><feFuncG type="discrete" tableValues="0 0"/><feFuncB type="discrete" tableValues="0 0"/><feFuncA type="linear" slope="0.501961" intercept="0"/></feComponentTransfer><feGaussianBlur stdDeviation="4.58333 4.58333"/></filter><clipPath id="clip2"><rect x="2444" y="17126" width="2106" height="1095"/></clipPath><clipPath id="clip3"><rect x="2612" y="17383" width="1885" height="681"/></clipPath><clipPath id="clip4"><rect x="2612" y="17383" width="1885" height="681"/></clipPath><clipPath id="clip5"><rect x="2612" y="17383" width="1885" height="681"/></clipPath></defs><g clip-path="url(#clip2)" transform="translate(-2444 -17126)"><rect x="2445" y="17127" width="2103" height="1092" fill="#FFFFFF"/><g><path d="M2612.5 17722.5 4494.5 17722.5" stroke="#D9D9D9" stroke-width="3.4375" stroke-linejoin="round" stroke-miterlimit="10" fill="none" fill-rule="evenodd"/></g><g clip-path="url(#clip3)"><g filter="url(#fx0)" transform="translate(2601 17369)"><g><path d="M19.9819 374.29C32.4956 384.983 45.0097 398.326 57.5237 406.368 70.0374 414.41 82.5514 429.783 95.0654 422.542 107.579 415.3 120.093 372.848 132.607 362.92 145.121 352.993 157.635 355.646 170.149 362.975 182.662 370.304 195.176 399.96 207.69 406.893 220.204 413.827 232.718 402.711 245.232 404.575 257.746 406.438 270.26 424.167 282.774 418.073 295.288 411.98 307.801 371.15 320.315 368.014 332.829 364.878 345.343 396.007 357.857 399.259 370.371 402.511 382.885 395.829 395.399 387.527 407.912 379.224 420.427 337.38 432.941 349.444 445.454 361.507 457.968 471.084 470.482 459.906 482.996 448.727 495.51 306.089 508.024 282.371 520.039 259.598 533.549 303.577 545.565 317.602 558.079 332.208 570.593 359.135 583.107 370.009 595.621 380.883 608.135 381.056 620.649 382.844 633.162 384.631 645.676 388.902 658.19 380.733 670.704 372.564 683.218 336.883 695.732 333.831 708.246 330.779 720.76 361.886 733.274 362.42 745.787 362.954 758.301 339.292 770.815 337.036 783.329 334.78 795.843 343.848 808.357 348.883 820.871 353.918 833.385 363.408 845.899 367.243 858.412 371.078 870.927 365.587 883.44 371.893 895.954 378.198 908.468 415.168 920.982 405.075 933.496 394.983 946.01 316.577 958.524 311.338 971.037 306.098 983.551 354.542 996.065 373.639 1008.58 392.736 1021.09 430.534 1033.61 425.917 1046.12 421.3 1058.63 356.153 1071.15 345.935 1083.66 335.717 1096.18 364.332 1108.69 364.608 1121.2 364.883 1133.72 350.028 1146.23 347.587 1158.75 345.147 1171.26 347.489 1183.77 349.964 1196.29 352.44 1208.8 365.57 1221.32 362.439 1233.83 359.308 1246.34 337.016 1258.86 331.18 1270.26 325.863 1285 312.374 1296.4 327.419 1308.91 343.935 1321.43 420.269 1333.94 430.28 1346.45 440.291 1358.97 400.867 1371.48 387.486 1384 374.104 1396.51 361.8 1409.02 349.993 1421.54 338.186 1434.05 305.81 1446.57 316.642 1459.08 327.474 1471.59 415.208 1484.11 414.984 1496.62 414.761 1509.13 328.991 1521.65 315.301 1534.16 301.611 1546.68 338.27 1559.19 332.845 1571.7 327.419 1584.22 283.452 1596.73 282.749 1609.25 282.046 1621.76 306.165 1634.27 328.629 1646.79 351.093 1659.3 416.402 1671.82 417.535 1679.92 418.268 1701.25 379.839 1709.36 335.423 1721.87 266.831 1734.38-20.0176 1746.9 5.98555 1759.41 31.9883 1771.93 433.901 1784.44 491.442 1796.95 548.982 1815.72 374.599 1821.98 351.23" stroke="#FFB226" stroke-width="9" stroke-linecap="round" stroke-linejoin="round" stroke-miterlimit="10" fill="none"/></g></g></g><g clip-path="url(#clip4)"><g filter="url(#fx1)" transform="translate(2601 17560)"><g><path d="M19.9819 58.0616C32.4898 59.8113 45.0154 49.1284 57.5237 63.3135 70.0374 77.5051 82.5514 139.668 95.0654 143.212 107.579 146.756 120.093 85.452 132.607 84.5772 145.121 83.702 157.635 142.579 170.149 137.961 182.662 133.343 195.176 62.8303 207.69 56.8707 220.204 50.9108 232.718 83.7717 245.232 102.202 257.746 120.633 270.26 163.708 282.774 167.452 295.288 171.197 307.801 122.265 320.315 124.669 332.829 127.073 345.343 168.096 357.857 181.879 370.371 195.661 382.885 216.087 395.399 207.367 407.912 198.647 420.427 133.772 432.941 129.557 445.454 125.341 457.968 182.282 470.482 182.075 482.996 181.868 495.51 139.379 508.024 128.314 520.537 117.248 533.051 114.095 545.565 115.683 558.079 117.271 570.593 125.951 583.107 137.842 595.621 149.733 608.135 186.094 620.649 187.03 633.162 187.965 645.676 159.679 658.19 143.457 670.704 127.234 683.218 93.6287 695.732 89.6932 708.246 85.7573 720.76 113.945 733.274 119.842 745.787 125.738 758.301 118.045 770.815 125.073 783.329 132.1 795.843 160.477 808.357 162.008 820.871 163.538 833.385 136.462 845.899 134.256 858.412 132.05 870.927 144.598 883.44 148.771 895.954 152.943 908.468 167.761 920.982 159.291 933.496 150.821 946.01 99.0309 958.524 97.9511 971.037 96.8713 983.551 137.916 996.065 152.812 1008.58 167.708 1021.09 192.108 1033.61 187.327 1046.12 182.546 1058.63 131.799 1071.15 124.127 1083.66 116.455 1096.18 136.599 1108.69 141.294 1121.2 145.988 1133.72 153.169 1146.23 152.294 1158.75 151.418 1171.26 137.425 1183.77 136.039 1196.29 134.653 1208.8 147.108 1221.32 143.978 1233.83 140.847 1246.34 119.039 1258.86 117.258 1271.37 115.477 1283.88 122.878 1296.4 133.292 1308.91 143.705 1321.43 175.419 1333.94 179.739 1346.45 184.057 1358.97 167.592 1371.48 159.206 1383.97 150.837 1396.53 149.833 1409.02 129.425 1421.54 108.978 1434.05 18.015 1446.57 36.5226 1459.08 55.0301 1471.59 222.959 1484.11 240.471 1496.62 257.982 1509.13 161.279 1521.65 141.594 1532.94 123.83 1547.9 130.604 1559.19 122.357 1571.7 113.216 1584.22 82.8872 1596.73 86.7533 1609.25 90.6191 1621.76 132.084 1634.27 145.552 1646.79 159.019 1659.3 160.992 1671.82 167.557 1681.15 172.456 1700.02 203.339 1709.36 184.94 1721.87 160.285 1734.38 14.9824 1746.9 19.6299 1759.41 24.2774 1771.93 199.756 1784.44 212.825 1796.95 225.893 1815.72 117.172 1821.98 98.0417" stroke="#000000" stroke-width="9" stroke-linecap="round" stroke-linejoin="round" stroke-miterlimit="10" fill="none"/></g></g></g><g clip-path="url(#clip5)"><path d="M2614.5 17736.8C2627.01 17747.5 2639.53 17760.8 2652.04 17768.9 2664.56 17776.9 2677.07 17792.3 2689.58 17785.1 2702.1 17777.8 2714.61 17735.4 2727.13 17725.4 2739.64 17715.5 2752.15 17718.2 2764.67 17725.5 2777.18 17732.8 2789.69 17762.5 2802.21 17769.4 2814.72 17776.3 2827.24 17765.2 2839.75 17767.1 2852.26 17769 2864.78 17786.7 2877.29 17780.6 2889.81 17774.5 2902.32 17733.7 2914.83 17730.5 2927.35 17727.4 2939.86 17758.5 2952.38 17761.8 2964.89 17765 2977.4 17758.3 2989.92 17750 3002.43 17741.7 3014.94 17699.9 3027.46 17712 3039.97 17724 3052.49 17833.6 3065 17822.4 3077.51 17811.2 3090.03 17668.6 3102.54 17644.9 3114.56 17622.1 3128.07 17666.1 3140.08 17680.1 3152.6 17694.7 3165.11 17721.7 3177.63 17732.5 3190.14 17743.4 3202.65 17743.6 3215.17 17745.4 3227.68 17747.1 3240.19 17751.4 3252.71 17743.2 3265.22 17735.1 3277.74 17699.4 3290.25 17696.3 3302.76 17693.3 3315.28 17724.4 3327.79 17724.9 3340.31 17725.5 3352.82 17701.8 3365.33 17699.6 3377.85 17697.3 3390.36 17706.4 3402.88 17711.4 3415.39 17716.4 3427.9 17725.9 3440.42 17729.8 3452.93 17733.6 3465.44 17728.1 3477.96 17734.4 3490.47 17740.7 3502.99 17777.7 3515.5 17767.6 3528.01 17757.5 3540.53 17679.1 3553.04 17673.9 3565.56 17668.6 3578.07 17717.1 3590.58 17736.2 3603.1 17755.3 3615.61 17793.1 3628.12 17788.4 3640.64 17783.8 3653.15 17718.7 3665.67 17708.5 3678.18 17698.2 3690.69 17726.8 3703.21 17727.1 3715.72 17727.4 3728.24 17712.5 3740.75 17710.1 3753.26 17707.7 3765.78 17710 3778.29 17712.5 3790.81 17715 3803.32 17728.1 3815.83 17725 3828.35 17721.8 3840.86 17699.5 3853.38 17693.7 3864.77 17688.4 3879.52 17674.9 3890.92 17689.9 3903.43 17706.5 3915.94 17782.8 3928.46 17792.8 3940.97 17802.8 3953.49 17763.4 3966 17750 3978.51 17736.6 3991.03 17724.3 4003.54 17712.5 4016.06 17700.7 4028.57 17668.3 4041.08 17679.2 4053.6 17690 4066.11 17777.7 4078.62 17777.5 4091.14 17777.3 4103.65 17691.5 4116.17 17677.8 4128.68 17664.1 4141.19 17700.8 4153.71 17695.4 4166.22 17689.9 4178.74 17646 4191.25 17645.3 4203.76 17644.6 4216.28 17668.7 4228.79 17691.1 4241.31 17713.6 4253.82 17778.9 4266.33 17780.1 4274.44 17780.8 4295.77 17742.4 4303.88 17697.9 4316.39 17629.3 4328.9 17342.5 4341.42 17368.5 4353.93 17394.5 4366.44 17796.4 4378.96 17854 4391.47 17911.5 4410.24 17737.1 4416.5 17713.7" stroke="#FFB226" stroke-width="9.16667" stroke-linecap="round" stroke-linejoin="round" stroke-miterlimit="10" fill="none"/></g><g><path d="M2614.5 17611.6C2627.01 17613.3 2639.53 17602.6 2652.04 17616.8 2664.56 17631 2677.07 17693.2 2689.58 17696.7 2702.1 17700.3 2714.61 17639 2727.13 17638.1 2739.64 17637.2 2752.15 17696.1 2764.67 17691.5 2777.18 17686.9 2789.69 17616.3 2802.21 17610.4 2814.72 17604.4 2827.24 17637.3 2839.75 17655.7 2852.26 17674.2 2864.78 17717.2 2877.29 17721 2889.81 17724.7 2902.32 17675.8 2914.83 17678.2 2927.35 17680.6 2939.86 17721.6 2952.38 17735.4 2964.89 17749.2 2977.4 17769.6 2989.92 17760.9 3002.43 17752.2 3014.94 17687.3 3027.46 17683.1 3039.97 17678.9 3052.49 17735.8 3065 17735.6 3077.51 17735.4 3090.03 17692.9 3102.54 17681.8 3115.06 17670.8 3127.57 17667.6 3140.08 17669.2 3152.6 17670.8 3165.11 17679.5 3177.63 17691.4 3190.14 17703.2 3202.65 17739.6 3215.17 17740.5 3227.68 17741.5 3240.19 17713.2 3252.71 17697 3265.22 17680.8 3277.74 17647.1 3290.25 17643.2 3302.76 17639.3 3315.28 17667.5 3327.79 17673.4 3340.31 17679.3 3352.82 17671.6 3365.33 17678.6 3377.85 17685.6 3390.36 17714 3402.88 17715.5 3415.39 17717.1 3427.9 17690 3440.42 17687.8 3452.93 17685.6 3465.44 17698.1 3477.96 17702.3 3490.47 17706.5 3502.99 17721.3 3515.5 17712.8 3528.01 17704.3 3540.53 17652.5 3553.04 17651.5 3565.56 17650.4 3578.07 17691.4 3590.58 17706.3 3603.1 17721.2 3615.61 17745.6 3628.12 17740.8 3640.64 17736.1 3653.15 17685.3 3665.67 17677.6 3678.18 17670 3690.69 17690.1 3703.21 17694.8 3715.72 17699.5 3728.24 17706.7 3740.75 17705.8 3753.26 17704.9 3765.78 17690.9 3778.29 17689.6 3790.81 17688.2 3803.32 17700.6 3815.83 17697.5 3828.35 17694.4 3840.86 17672.6 3853.38 17670.8 3865.89 17669 3878.4 17676.4 3890.92 17686.8 3903.43 17697.2 3915.94 17728.9 3928.46 17733.3 3940.97 17737.6 3953.49 17721.1 3966 17712.7 3978.49 17704.4 3991.05 17703.4 4003.54 17682.9 4016.06 17662.5 4028.57 17571.5 4041.08 17590 4053.6 17608.5 4066.11 17776.5 4078.62 17794 4091.14 17811.5 4103.65 17714.8 4116.17 17695.1 4127.46 17677.3 4142.42 17684.1 4153.71 17675.9 4166.22 17666.7 4178.74 17636.4 4191.25 17640.3 4203.76 17644.1 4216.28 17685.6 4228.79 17699.1 4241.31 17712.5 4253.82 17714.5 4266.33 17721.1 4275.67 17726 4294.54 17756.9 4303.88 17738.5 4316.39 17713.8 4328.9 17568.5 4341.42 17573.1 4353.93 17577.8 4366.44 17753.3 4378.96 17766.3 4391.47 17779.4 4410.24 17670.7 4416.5 17651.6" stroke="#000000" stroke-width="9.16667" stroke-linecap="round" stroke-linejoin="round" stroke-miterlimit="10" fill="none"/></g><g><text font-family="Inter,Inter_MSFontService,sans-serif" font-weight="400" font-size="32" transform="matrix(1 0 0 1 2542.69 18071)">80</text></g><g><text font-family="Inter,Inter_MSFontService,sans-serif" font-weight="400" font-size="32" transform="matrix(1 0 0 1 2542.46 17902)">90</text></g><g><text font-family="Inter,Inter_MSFontService,sans-serif" font-weight="400" font-size="32" transform="matrix(1 0 0 1 2527.52 17732)">100</text></g><g><text font-family="Inter,Inter_MSFontService,sans-serif" font-weight="400" font-size="32" transform="matrix(1 0 0 1 2532.67 17563)">110</text></g><g><text font-family="Inter,Inter_MSFontService,sans-serif" font-weight="400" font-size="32" transform="matrix(1 0 0 1 2528.16 17393)">120</text></g><g><text font-family="Inter,Inter_MSFontService,sans-serif" font-weight="400" font-size="32" transform="matrix(0.707107 -0.707107 0.707107 0.707107 2590.39 18137)">1/6</text></g><g><text font-family="Inter,Inter_MSFontService,sans-serif" font-weight="400" font-size="32" transform="matrix(0.707107 -0.707107 0.707107 0.707107 2690.45 18149)">1/27</text></g><g><text font-family="Inter,Inter_MSFontService,sans-serif" font-weight="400" font-size="32" transform="matrix(0.707107 -0.707107 0.707107 0.707107 2803.03 18149)">2/17</text></g><g><text font-family="Inter,Inter_MSFontService,sans-serif" font-weight="400" font-size="32" transform="matrix(0.707107 -0.707107 0.707107 0.707107 2924.23 18141)">3/9</text></g><g><text font-family="Inter,Inter_MSFontService,sans-serif" font-weight="400" font-size="32" transform="matrix(0.707107 -0.707107 0.707107 0.707107 3022.35 18155)">3/30</text></g><g><text font-family="Inter,Inter_MSFontService,sans-serif" font-weight="400" font-size="32" transform="matrix(0.707107 -0.707107 0.707107 0.707107 3135.51 18155)">4/20</text></g><g><text font-family="Inter,Inter_MSFontService,sans-serif" font-weight="400" font-size="32" transform="matrix(0.707107 -0.707107 0.707107 0.707107 3255.71 18147)">5/11</text></g><g><text font-family="Inter,Inter_MSFontService,sans-serif" font-weight="400" font-size="32" transform="matrix(0.707107 -0.707107 0.707107 0.707107 3378.47 18137)">6/1</text></g><g><text font-family="Inter,Inter_MSFontService,sans-serif" font-weight="400" font-size="32" transform="matrix(0.707107 -0.707107 0.707107 0.707107 3474.13 18154)">6/22</text></g><g><text font-family="Inter,Inter_MSFontService,sans-serif" font-weight="400" font-size="32" transform="matrix(0.707107 -0.707107 0.707107 0.707107 3590.39 18150)">7/13</text></g><g><text font-family="Inter,Inter_MSFontService,sans-serif" font-weight="400" font-size="32" transform="matrix(0.707107 -0.707107 0.707107 0.707107 3712.47 18140)">8/3</text></g><g><text font-family="Inter,Inter_MSFontService,sans-serif" font-weight="400" font-size="32" transform="matrix(0.707107 -0.707107 0.707107 0.707107 3811.2 18154)">8/24</text></g><g><text font-family="Inter,Inter_MSFontService,sans-serif" font-weight="400" font-size="32" transform="matrix(0.707107 -0.707107 0.707107 0.707107 3926.81 18151)">9/14</text></g><g><text font-family="Inter,Inter_MSFontService,sans-serif" font-weight="400" font-size="32" transform="matrix(0.707107 -0.707107 0.707107 0.707107 4040.14 18151)">10/5</text></g><g><text font-family="Inter,Inter_MSFontService,sans-serif" font-weight="400" font-size="32" transform="matrix(0.707107 -0.707107 0.707107 0.707107 4138.64 18165)">10/26</text></g><g><text font-family="Inter,Inter_MSFontService,sans-serif" font-weight="400" font-size="32" transform="matrix(0.707107 -0.707107 0.707107 0.707107 4258.06 18158)">11/16</text></g><g><text font-family="Inter,Inter_MSFontService,sans-serif" font-weight="400" font-size="32" transform="matrix(0.707107 -0.707107 0.707107 0.707107 4379.18 18149)">12/7</text></g><g><text font-family="Inter Medium,Inter Medium_MSFontService,sans-serif" font-weight="700" font-size="46" transform="matrix(1 0 0 1 2529.01 17217)">U.S. Hotel Occupancy and ADR Recovery Levels</text></g><g><path d="M2521.5 17318.5 2609.5 17318.5" stroke="#FFB226" stroke-width="9.16667" stroke-linecap="round" stroke-linejoin="round" stroke-miterlimit="10" fill="none" fill-rule="evenodd"/></g><g><text font-family="Inter Medium,Inter Medium_MSFontService,sans-serif" font-weight="500" font-size="37" transform="matrix(1 0 0 1 2618.39 17331)">Occ Index</text></g><g><path d="M2846.5 17318.5 2934.5 17318.5" stroke="#000000" stroke-width="9.16667" stroke-linecap="round" stroke-linejoin="round" stroke-miterlimit="10" fill="none" fill-rule="evenodd"/></g><g><text font-family="Inter Medium,Inter Medium_MSFontService,sans-serif" font-weight="500" font-size="37" transform="matrix(1 0 0 1 2943.74 17331)">ADR Index</text></g><rect x="2445.5" y="17127.5" width="2103" height="1092" stroke="#D9D9D9" stroke-width="3.4375" stroke-linejoin="round" stroke-miterlimit="10" fill="none"/><g><text fill="#7F7F7F" font-family="Inter,Inter_MSFontService,sans-serif" font-weight="400" font-size="32" transform="matrix(1 0 0 1 2526.75 17274)">Indexed to 2023, Source: STR, str.com</text></g></g></svg>