<svg width="2106" height="1059" xmlns="http://www.w3.org/2000/svg" xmlns:xlink="http://www.w3.org/1999/xlink" xml:space="preserve" overflow="hidden"><defs><filter id="fx0" x="-10%" y="-10%" width="120%" height="120%" filterUnits="userSpaceOnUse" primitiveUnits="userSpaceOnUse"><feComponentTransfer color-interpolation-filters="sRGB"><feFuncR type="discrete" tableValues="0 0"/><feFuncG type="discrete" tableValues="0 0"/><feFuncB type="discrete" tableValues="0 0"/><feFuncA type="linear" slope="0.501961" intercept="0"/></feComponentTransfer><feGaussianBlur stdDeviation="4.58333 4.58333"/></filter><filter id="fx1" x="-10%" y="-10%" width="120%" height="120%" filterUnits="userSpaceOnUse" primitiveUnits="userSpaceOnUse"><feComponentTransfer color-interpolation-filters="sRGB"><feFuncR type="discrete" tableValues="0 0"/><feFuncG type="discrete" tableValues="0 0"/><feFuncB type="discrete" tableValues="0 0"/><feFuncA type="linear" slope="0.501961" intercept="0"/></feComponentTransfer><feGaussianBlur stdDeviation="4.58333 4.58333"/></filter><clipPath id="clip2"><rect x="2444" y="16555" width="2106" height="1059"/></clipPath><clipPath id="clip3"><rect x="2612" y="16804" width="1885" height="658"/></clipPath><clipPath id="clip4"><rect x="2612" y="16804" width="1885" height="658"/></clipPath></defs><g clip-path="url(#clip2)" transform="translate(-2444 -16555)"><rect x="2445" y="16556" width="2103" height="1056" fill="#FFFFFF"/><g><path d="M2612.5 17131.5 4494.5 17131.5" stroke="#D9D9D9" stroke-width="3.4375" stroke-linejoin="round" stroke-miterlimit="10" fill="none" fill-rule="evenodd"/></g><g clip-path="url(#clip3)"><g filter="url(#fx0)" transform="translate(2601 17037)"><g><path d="M19.9819 114.724C32.4979 125.026 45.0141 137.882 57.5304 145.63 70.0463 153.378 82.5626 168.189 95.0789 161.213 107.595 154.236 120.111 113.334 132.627 103.77 145.143 94.2043 157.659 96.7606 170.175 103.822 182.691 110.883 195.208 139.456 207.724 146.136 220.24 152.816 232.756 142.107 245.272 143.902 257.788 145.697 270.305 162.778 282.821 156.907 295.337 151.037 307.853 111.698 320.369 108.677 332.885 105.656 345.401 135.647 357.918 138.78 370.433 141.913 382.95 135.476 395.466 127.477 407.982 119.477 420.498 79.1623 433.014 90.7849 445.53 102.407 458.046 207.982 470.563 197.212 483.078 186.441 495.595 49.0134 508.111 26.1627 520.259 3.98242 533.511 46.4463 545.66 60.1061 558.175 74.1787 570.692 100.123 583.208 110.599 595.724 121.076 608.24 121.243 620.756 122.965 633.272 124.687 645.788 128.802 658.305 120.931 670.821 113.061 683.337 78.6828 695.853 75.7425 708.369 72.8018 720.885 102.773 733.402 103.288 745.918 103.802 758.433 81.0039 770.95 78.8301 783.466 76.6561 795.982 85.3942 808.498 90.2449 821.014 95.0952 833.53 104.239 846.047 107.934 858.563 111.629 871.079 106.339 883.595 112.414 896.111 118.489 908.627 154.108 921.143 144.385 933.659 134.661 946.175 59.1186 958.692 54.0709 971.208 49.0228 983.724 95.6972 996.24 114.096 1008.76 132.495 1021.27 168.914 1033.79 164.465 1046.3 160.016 1058.82 97.2487 1071.34 87.404 1083.85 77.5588 1096.37 105.129 1108.89 105.395 1121.4 105.66 1133.92 91.3476 1146.43 88.9963 1158.95 86.6446 1177.72 90.9048 1183.98 91.2867" stroke="#FFB226" stroke-width="9" stroke-linecap="round" stroke-linejoin="round" stroke-miterlimit="10" fill="none"/></g></g></g><g clip-path="url(#clip4)"><g filter="url(#fx1)" transform="translate(2601 17009)"><g><path d="M19.9819 21.6563C32.4979 23.3548 45.0141 12.9824 57.5304 26.7521 70.0463 40.5217 82.5626 100.835 95.0789 104.274 107.595 107.713 120.111 48.2321 132.627 47.3831 145.143 46.5337 157.659 103.659 170.175 99.1792 182.691 94.6986 195.208 26.2831 207.724 20.5008 220.24 14.7181 232.756 46.6019 245.272 64.4843 257.788 82.3664 270.305 124.16 282.821 127.794 295.337 131.427 307.853 83.9497 320.369 86.2828 332.885 88.6155 345.401 128.418 357.918 141.791 370.433 155.164 382.95 174.982 395.466 166.521 407.982 158.061 420.498 95.1152 433.014 91.0255 445.53 86.9355 458.046 142.183 470.563 141.982 483.078 141.781 495.595 100.555 508.111 89.8191 520.627 79.0828 533.143 76.0231 545.66 77.5641 558.175 79.1048 570.692 87.5268 583.208 99.0644 595.724 110.602 608.24 145.881 620.756 146.789 633.272 147.696 645.788 120.252 658.305 104.512 670.821 88.7715 683.337 56.1656 695.853 52.3471 708.369 48.5282 720.885 75.8776 733.402 81.5989 745.918 87.3199 758.433 79.8561 770.95 86.6748 783.466 93.4936 795.982 121.026 808.498 122.512 821.014 123.996 833.53 97.7255 846.047 95.5848 858.563 93.4441 871.079 105.619 883.595 109.667 896.111 113.716 908.627 128.093 921.143 119.875 933.659 111.657 946.175 61.4072 958.692 60.3596 971.208 59.3117 983.724 99.1359 996.24 113.589 1008.76 128.042 1021.27 151.716 1033.79 147.077 1046.3 142.439 1058.82 93.2012 1071.34 85.7572 1083.85 78.3128 1096.37 97.858 1108.89 102.413 1121.4 106.968 1133.92 113.935 1146.43 113.086 1158.95 112.236 1177.72 99.9431 1183.98 97.3147" stroke="#000000" stroke-width="9" stroke-linecap="round" stroke-linejoin="round" stroke-miterlimit="10" fill="none"/></g></g></g><g><path d="M2614.5 17145.2C2627.02 17155.5 2639.53 17168.4 2652.05 17176.1 2664.56 17183.9 2677.08 17198.7 2689.6 17191.7 2702.11 17184.8 2714.63 17143.9 2727.15 17134.3 2739.66 17124.7 2752.18 17127.3 2764.69 17134.3 2777.21 17141.4 2789.73 17170 2802.24 17176.7 2814.76 17183.3 2827.27 17172.6 2839.79 17174.4 2852.31 17176.2 2864.82 17193.3 2877.34 17187.4 2889.85 17181.6 2902.37 17142.2 2914.89 17139.2 2927.4 17136.2 2939.92 17166.2 2952.44 17169.3 2964.95 17172.4 2977.47 17166 2989.98 17158 3002.5 17150 3015.02 17109.7 3027.53 17121.3 3040.05 17132.9 3052.56 17238.5 3065.08 17227.7 3077.6 17217 3090.11 17079.5 3102.63 17056.7 3114.78 17034.5 3128.03 17077 3140.18 17090.6 3152.69 17104.7 3165.21 17130.6 3177.73 17141.1 3190.24 17151.6 3202.76 17151.8 3215.27 17153.5 3227.79 17155.2 3240.31 17159.3 3252.82 17151.4 3265.34 17143.6 3277.85 17109.2 3290.37 17106.3 3302.89 17103.3 3315.4 17133.3 3327.92 17133.8 3340.44 17134.3 3352.95 17111.5 3365.47 17109.3 3377.98 17107.2 3390.5 17115.9 3403.02 17120.8 3415.53 17125.6 3428.05 17134.8 3440.56 17138.5 3453.08 17142.1 3465.6 17136.9 3478.11 17142.9 3490.63 17149 3503.15 17184.6 3515.66 17174.9 3528.18 17165.2 3540.69 17089.6 3553.21 17084.6 3565.73 17079.5 3578.24 17126.2 3590.76 17144.6 3603.27 17163 3615.79 17199.4 3628.31 17195 3640.82 17190.5 3653.34 17127.8 3665.85 17117.9 3678.37 17108.1 3690.89 17135.6 3703.4 17135.9 3715.92 17136.2 3728.44 17121.9 3740.95 17119.5 3753.47 17117.2 3772.24 17121.4 3778.5 17121.8" stroke="#FFB226" stroke-width="9.16667" stroke-linecap="round" stroke-linejoin="round" stroke-miterlimit="10" fill="none"/></g><g><path d="M2614.5 17024.2C2627.02 17025.9 2639.53 17015.5 2652.05 17029.3 2664.56 17043 2677.08 17103.4 2689.6 17106.8 2702.11 17110.2 2714.63 17050.8 2727.15 17049.9 2739.66 17049.1 2752.18 17106.2 2764.69 17101.7 2777.21 17097.2 2789.73 17028.8 2802.24 17023 2814.76 17017.2 2827.27 17049.1 2839.79 17067 2852.31 17084.9 2864.82 17126.7 2877.34 17130.3 2889.85 17133.9 2902.37 17086.5 2914.89 17088.8 2927.4 17091.1 2939.92 17130.9 2952.44 17144.3 2964.95 17157.7 2977.47 17177.5 2989.98 17169 3002.5 17160.6 3015.02 17097.6 3027.53 17093.5 3040.05 17089.5 3052.56 17144.7 3065.08 17144.5 3077.6 17144.3 3090.11 17103.1 3102.63 17092.3 3115.15 17081.6 3127.66 17078.5 3140.18 17080.1 3152.69 17081.6 3165.21 17090 3177.73 17101.6 3190.24 17113.1 3202.76 17148.4 3215.27 17149.3 3227.79 17150.2 3240.31 17122.8 3252.82 17107 3265.34 17091.3 3277.85 17058.7 3290.37 17054.9 3302.89 17051 3315.4 17078.4 3327.92 17084.1 3340.44 17089.8 3352.95 17082.4 3365.47 17089.2 3377.98 17096 3390.5 17123.5 3403.02 17125 3415.53 17126.5 3428.05 17100.2 3440.56 17098.1 3453.08 17096 3465.6 17108.1 3478.11 17112.2 3490.63 17116.2 3503.15 17130.6 3515.66 17122.4 3528.18 17114.2 3540.69 17063.9 3553.21 17062.9 3565.73 17061.8 3578.24 17101.7 3590.76 17116.1 3603.27 17130.6 3615.79 17154.2 3628.31 17149.6 3640.82 17145 3653.34 17095.7 3665.85 17088.3 3678.37 17080.8 3690.89 17100.4 3703.4 17104.9 3715.92 17109.5 3728.44 17116.5 3740.95 17115.6 3753.47 17114.8 3772.24 17102.5 3778.5 17099.8" stroke="#000000" stroke-width="9.16667" stroke-linecap="round" stroke-linejoin="round" stroke-miterlimit="10" fill="none"/></g><g><text font-family="Inter,Inter_MSFontService,sans-serif" font-weight="400" font-size="32" transform="matrix(1 0 0 1 2542.69 17469)">80</text></g><g><text font-family="Inter,Inter_MSFontService,sans-serif" font-weight="400" font-size="32" transform="matrix(1 0 0 1 2542.46 17305)">90</text></g><g><text font-family="Inter,Inter_MSFontService,sans-serif" font-weight="400" font-size="32" transform="matrix(1 0 0 1 2527.52 17142)">100</text></g><g><text font-family="Inter,Inter_MSFontService,sans-serif" font-weight="400" font-size="32" transform="matrix(1 0 0 1 2532.67 16978)">110</text></g><g><text font-family="Inter,Inter_MSFontService,sans-serif" font-weight="400" font-size="32" transform="matrix(1 0 0 1 2528.16 16814)">120</text></g><g><text font-family="Inter,Inter_MSFontService,sans-serif" font-weight="400" font-size="32" transform="matrix(0.707107 -0.707107 0.707107 0.707107 2590.39 17535)">1/6</text></g><g><text font-family="Inter,Inter_MSFontService,sans-serif" font-weight="400" font-size="32" transform="matrix(0.707107 -0.707107 0.707107 0.707107 2690.45 17547)">1/27</text></g><g><text font-family="Inter,Inter_MSFontService,sans-serif" font-weight="400" font-size="32" transform="matrix(0.707107 -0.707107 0.707107 0.707107 2803.03 17547)">2/17</text></g><g><text font-family="Inter,Inter_MSFontService,sans-serif" font-weight="400" font-size="32" transform="matrix(0.707107 -0.707107 0.707107 0.707107 2924.23 17539)">3/9</text></g><g><text font-family="Inter,Inter_MSFontService,sans-serif" font-weight="400" font-size="32" transform="matrix(0.707107 -0.707107 0.707107 0.707107 3022.35 17553)">3/30</text></g><g><text font-family="Inter,Inter_MSFontService,sans-serif" font-weight="400" font-size="32" transform="matrix(0.707107 -0.707107 0.707107 0.707107 3135.51 17553)">4/20</text></g><g><text font-family="Inter,Inter_MSFontService,sans-serif" font-weight="400" font-size="32" transform="matrix(0.707107 -0.707107 0.707107 0.707107 3255.71 17545)">5/11</text></g><g><text font-family="Inter,Inter_MSFontService,sans-serif" font-weight="400" font-size="32" transform="matrix(0.707107 -0.707107 0.707107 0.707107 3378.47 17535)">6/1</text></g><g><text font-family="Inter,Inter_MSFontService,sans-serif" font-weight="400" font-size="32" transform="matrix(0.707107 -0.707107 0.707107 0.707107 3474.13 17552)">6/22</text></g><g><text font-family="Inter,Inter_MSFontService,sans-serif" font-weight="400" font-size="32" transform="matrix(0.707107 -0.707107 0.707107 0.707107 3590.39 17548)">7/13</text></g><g><text font-family="Inter,Inter_MSFontService,sans-serif" font-weight="400" font-size="32" transform="matrix(0.707107 -0.707107 0.707107 0.707107 3712.47 17538)">8/3</text></g><g><text font-family="Inter,Inter_MSFontService,sans-serif" font-weight="400" font-size="32" transform="matrix(0.707107 -0.707107 0.707107 0.707107 3811.2 17552)">8/24</text></g><g><text font-family="Inter,Inter_MSFontService,sans-serif" font-weight="400" font-size="32" transform="matrix(0.707107 -0.707107 0.707107 0.707107 3926.81 17549)">9/14</text></g><g><text font-family="Inter,Inter_MSFontService,sans-serif" font-weight="400" font-size="32" transform="matrix(0.707107 -0.707107 0.707107 0.707107 4040.14 17549)">10/5</text></g><g><text font-family="Inter,Inter_MSFontService,sans-serif" font-weight="400" font-size="32" transform="matrix(0.707107 -0.707107 0.707107 0.707107 4138.64 17563)">10/26</text></g><g><text font-family="Inter,Inter_MSFontService,sans-serif" font-weight="400" font-size="32" transform="matrix(0.707107 -0.707107 0.707107 0.707107 4258.06 17556)">11/16</text></g><g><text font-family="Inter,Inter_MSFontService,sans-serif" font-weight="400" font-size="32" transform="matrix(0.707107 -0.707107 0.707107 0.707107 4379.18 17547)">12/7</text></g><g><text font-family="Inter Medium,Inter Medium_MSFontService,sans-serif" font-weight="700" font-size="46" transform="matrix(1 0 0 1 2529.01 16646)">U.S. Hotel Occupancy and ADR Recovery Levels</text></g><g><path d="M2521.5 16741.5 2609.5 16741.5" stroke="#FFB226" stroke-width="9.16667" stroke-linecap="round" stroke-linejoin="round" stroke-miterlimit="10" fill="none" fill-rule="evenodd"/></g><g><text font-family="Inter Medium,Inter Medium_MSFontService,sans-serif" font-weight="500" font-size="37" transform="matrix(1 0 0 1 2618.39 16754)">Occ Index</text></g><g><path d="M2846.5 16741.5 2934.5 16741.5" stroke="#000000" stroke-width="9.16667" stroke-linecap="round" stroke-linejoin="round" stroke-miterlimit="10" fill="none" fill-rule="evenodd"/></g><g><text font-family="Inter Medium,Inter Medium_MSFontService,sans-serif" font-weight="500" font-size="37" transform="matrix(1 0 0 1 2943.74 16754)">ADR Index</text></g><rect x="2445.5" y="16556.5" width="2103" height="1056" stroke="#D9D9D9" stroke-width="3.4375" stroke-linejoin="round" stroke-miterlimit="10" fill="none"/><g><text fill="#7F7F7F" font-family="Inter,Inter_MSFontService,sans-serif" font-weight="400" font-size="32" transform="matrix(1 0 0 1 2526.75 16700)">Indexed to 2023, Source: STR, str.com</text></g></g></svg>