<svg width="2106" height="1059" xmlns="http://www.w3.org/2000/svg" xmlns:xlink="http://www.w3.org/1999/xlink" xml:space="preserve" overflow="hidden"><defs><filter id="fx0" x="-10%" y="-10%" width="120%" height="120%" filterUnits="userSpaceOnUse" primitiveUnits="userSpaceOnUse"><feComponentTransfer color-interpolation-filters="sRGB"><feFuncR type="discrete" tableValues="0 0"/><feFuncG type="discrete" tableValues="0 0"/><feFuncB type="discrete" tableValues="0 0"/><feFuncA type="linear" slope="0.501961" intercept="0"/></feComponentTransfer><feGaussianBlur stdDeviation="4.58333 4.58333"/></filter><filter id="fx1" x="-10%" y="-10%" width="120%" height="120%" filterUnits="userSpaceOnUse" primitiveUnits="userSpaceOnUse"><feComponentTransfer color-interpolation-filters="sRGB"><feFuncR type="discrete" tableValues="0 0"/><feFuncG type="discrete" tableValues="0 0"/><feFuncB type="discrete" tableValues="0 0"/><feFuncA type="linear" slope="0.501961" intercept="0"/></feComponentTransfer><feGaussianBlur stdDeviation="4.58333 4.58333"/></filter><clipPath id="clip2"><rect x="2444" y="16555" width="2106" height="1059"/></clipPath><clipPath id="clip3"><rect x="2612" y="16804" width="1885" height="658"/></clipPath><clipPath id="clip4"><rect x="2612" y="16804" width="1885" height="658"/></clipPath></defs><g clip-path="url(#clip2)" transform="translate(-2444 -16555)"><rect x="2445" y="16556" width="2103" height="1056" fill="#FFFFFF"/><g><path d="M2612.5 17131.5 4494.5 17131.5" stroke="#D9D9D9" stroke-width="3.4375" stroke-linejoin="round" stroke-miterlimit="10" fill="none" fill-rule="evenodd"/></g><g clip-path="url(#clip3)"><g filter="url(#fx0)" transform="translate(2601 17037)"><g><path d="M19.9819 114.724C32.499 125.026 45.0164 137.882 57.5337 145.63 70.0508 153.378 82.5682 168.189 95.0856 161.213 107.603 154.236 120.12 113.334 132.637 103.77 145.154 94.2043 157.671 96.7606 170.189 103.822 182.706 110.883 195.223 139.456 207.741 146.136 220.258 152.816 232.775 142.107 245.292 143.902 257.809 145.697 270.327 162.778 282.844 156.907 295.361 151.037 307.878 111.698 320.396 108.677 332.913 105.656 345.43 135.647 357.948 138.78 370.465 141.913 382.982 135.476 395.499 127.477 408.016 119.477 420.534 79.1623 433.051 90.7849 445.568 102.407 458.085 207.982 470.603 197.212 483.12 186.441 495.637 49.0134 508.154 26.1627 520.304 3.98242 533.556 46.4463 545.706 60.1061 558.223 74.1787 570.741 100.123 583.258 110.599 595.775 121.076 608.292 121.243 620.809 122.965 633.326 124.687 645.844 128.802 658.361 120.931 670.878 113.061 683.396 78.6828 695.913 75.7425 708.43 72.8018 720.948 102.773 733.465 103.288 745.982 103.802 758.499 81.0039 771.016 78.8301 783.533 76.6561 796.051 85.3942 808.568 90.2449 821.085 95.0952 833.603 104.239 846.12 107.934 858.637 111.629 871.154 106.339 883.672 112.414 896.189 118.489 908.706 154.108 921.223 144.385 933.74 134.661 946.258 59.1186 958.775 54.0709 971.292 49.0228 983.809 95.6972 996.327 114.096 1008.84 132.495 1021.36 168.914 1033.88 164.465 1046.4 160.016 1058.91 97.2487 1071.43 87.404 1083.95 77.5588 1102.72 102.396 1108.98 105.395" stroke="#FFB226" stroke-width="9" stroke-linecap="round" stroke-linejoin="round" stroke-miterlimit="10" fill="none"/></g></g></g><g clip-path="url(#clip4)"><g filter="url(#fx1)" transform="translate(2601 17009)"><g><path d="M19.9819 21.6563C32.499 23.3548 45.0164 12.9824 57.5337 26.7521 70.0508 40.5217 82.5682 100.835 95.0856 104.274 107.603 107.713 120.12 48.2321 132.637 47.3831 145.154 46.5337 157.671 103.659 170.189 99.1792 182.706 94.6986 195.223 26.2831 207.741 20.5008 220.258 14.7181 232.775 46.6019 245.292 64.4843 257.809 82.3664 270.327 124.16 282.844 127.794 295.361 131.427 307.878 83.9497 320.396 86.2828 332.913 88.6155 345.43 128.418 357.948 141.791 370.465 155.164 382.982 174.982 395.499 166.521 408.016 158.061 420.534 95.1152 433.051 91.0255 445.568 86.9355 458.085 142.183 470.603 141.982 483.12 141.781 495.637 100.555 508.154 89.8191 520.671 79.0828 533.189 76.0231 545.706 77.5641 558.223 79.1048 570.741 87.5268 583.258 99.0644 595.775 110.602 608.292 145.881 620.809 146.789 633.326 147.696 645.844 120.252 658.361 104.512 670.878 88.7715 683.396 56.1656 695.913 52.3471 708.43 48.5282 720.948 75.8776 733.465 81.5989 745.982 87.3199 758.499 79.8561 771.016 86.6748 783.533 93.4936 796.051 121.026 808.568 122.512 821.085 123.996 833.603 97.7255 846.12 95.5848 858.637 93.4441 871.154 105.619 883.672 109.667 896.189 113.716 908.706 128.093 921.223 119.875 933.74 111.657 946.258 61.4072 958.775 60.3596 971.292 59.3117 983.809 99.1359 996.327 113.589 1008.84 128.042 1021.36 151.716 1033.88 147.077 1046.4 142.439 1058.91 93.2012 1071.43 85.7572 1083.95 78.3128 1102.72 99.6369 1108.98 102.413" stroke="#000000" stroke-width="9" stroke-linecap="round" stroke-linejoin="round" stroke-miterlimit="10" fill="none"/></g></g></g><g><path d="M2614.5 17145.2C2627.02 17155.5 2639.53 17168.4 2652.05 17176.1 2664.57 17183.9 2677.09 17198.7 2689.6 17191.7 2702.12 17184.8 2714.64 17143.9 2727.16 17134.3 2739.67 17124.7 2752.19 17127.3 2764.71 17134.3 2777.22 17141.4 2789.74 17170 2802.26 17176.7 2814.78 17183.3 2827.29 17172.6 2839.81 17174.4 2852.33 17176.2 2864.84 17193.3 2877.36 17187.4 2889.88 17181.6 2902.4 17142.2 2914.91 17139.2 2927.43 17136.2 2939.95 17166.2 2952.47 17169.3 2964.98 17172.4 2977.5 17166 2990.02 17158 3002.53 17150 3015.05 17109.7 3027.57 17121.3 3040.09 17132.9 3052.6 17238.5 3065.12 17227.7 3077.64 17217 3090.16 17079.5 3102.67 17056.7 3114.82 17034.5 3128.07 17077 3140.22 17090.6 3152.74 17104.7 3165.26 17130.6 3177.78 17141.1 3190.29 17151.6 3202.81 17151.8 3215.33 17153.5 3227.84 17155.2 3240.36 17159.3 3252.88 17151.4 3265.4 17143.6 3277.91 17109.2 3290.43 17106.3 3302.95 17103.3 3315.47 17133.3 3327.98 17133.8 3340.5 17134.3 3353.02 17111.5 3365.53 17109.3 3378.05 17107.2 3390.57 17115.9 3403.09 17120.8 3415.6 17125.6 3428.12 17134.8 3440.64 17138.5 3453.16 17142.1 3465.67 17136.9 3478.19 17142.9 3490.71 17149 3503.22 17184.6 3515.74 17174.9 3528.26 17165.2 3540.78 17089.6 3553.29 17084.6 3565.81 17079.5 3578.33 17126.2 3590.84 17144.6 3603.36 17163 3615.88 17199.4 3628.4 17195 3640.91 17190.5 3653.43 17127.8 3665.95 17117.9 3678.47 17108.1 3697.24 17132.9 3703.5 17135.9" stroke="#FFB226" stroke-width="9.16667" stroke-linecap="round" stroke-linejoin="round" stroke-miterlimit="10" fill="none"/></g><g><path d="M2614.5 17024.2C2627.02 17025.9 2639.53 17015.5 2652.05 17029.3 2664.57 17043 2677.09 17103.4 2689.6 17106.8 2702.12 17110.2 2714.64 17050.8 2727.16 17049.9 2739.67 17049.1 2752.19 17106.2 2764.71 17101.7 2777.22 17097.2 2789.74 17028.8 2802.26 17023 2814.78 17017.2 2827.29 17049.1 2839.81 17067 2852.33 17084.9 2864.84 17126.7 2877.36 17130.3 2889.88 17133.9 2902.4 17086.5 2914.91 17088.8 2927.43 17091.1 2939.95 17130.9 2952.47 17144.3 2964.98 17157.7 2977.5 17177.5 2990.02 17169 3002.53 17160.6 3015.05 17097.6 3027.57 17093.5 3040.09 17089.5 3052.6 17144.7 3065.12 17144.5 3077.64 17144.3 3090.16 17103.1 3102.67 17092.3 3115.19 17081.6 3127.71 17078.5 3140.22 17080.1 3152.74 17081.6 3165.26 17090 3177.78 17101.6 3190.29 17113.1 3202.81 17148.4 3215.33 17149.3 3227.84 17150.2 3240.36 17122.8 3252.88 17107 3265.4 17091.3 3277.91 17058.7 3290.43 17054.9 3302.95 17051 3315.47 17078.4 3327.98 17084.1 3340.5 17089.8 3353.02 17082.4 3365.53 17089.2 3378.05 17096 3390.57 17123.5 3403.09 17125 3415.6 17126.5 3428.12 17100.2 3440.64 17098.1 3453.16 17096 3465.67 17108.1 3478.19 17112.2 3490.71 17116.2 3503.22 17130.6 3515.74 17122.4 3528.26 17114.2 3540.78 17063.9 3553.29 17062.9 3565.81 17061.8 3578.33 17101.7 3590.84 17116.1 3603.36 17130.6 3615.88 17154.2 3628.4 17149.6 3640.91 17145 3653.43 17095.7 3665.95 17088.3 3678.47 17080.8 3697.24 17102.2 3703.5 17104.9" stroke="#000000" stroke-width="9.16667" stroke-linecap="round" stroke-linejoin="round" stroke-miterlimit="10" fill="none"/></g><g><text font-family="Inter,Inter_MSFontService,sans-serif" font-weight="400" font-size="32" transform="matrix(1 0 0 1 2542.69 17469)">80</text></g><g><text font-family="Inter,Inter_MSFontService,sans-serif" font-weight="400" font-size="32" transform="matrix(1 0 0 1 2542.46 17305)">90</text></g><g><text font-family="Inter,Inter_MSFontService,sans-serif" font-weight="400" font-size="32" transform="matrix(1 0 0 1 2527.52 17142)">100</text></g><g><text font-family="Inter,Inter_MSFontService,sans-serif" font-weight="400" font-size="32" transform="matrix(1 0 0 1 2532.67 16978)">110</text></g><g><text font-family="Inter,Inter_MSFontService,sans-serif" font-weight="400" font-size="32" transform="matrix(1 0 0 1 2528.16 16814)">120</text></g><g><text font-family="Inter,Inter_MSFontService,sans-serif" font-weight="400" font-size="32" transform="matrix(0.707107 -0.707107 0.707107 0.707107 2590.39 17535)">1/6</text></g><g><text font-family="Inter,Inter_MSFontService,sans-serif" font-weight="400" font-size="32" transform="matrix(0.707107 -0.707107 0.707107 0.707107 2690.45 17547)">1/27</text></g><g><text font-family="Inter,Inter_MSFontService,sans-serif" font-weight="400" font-size="32" transform="matrix(0.707107 -0.707107 0.707107 0.707107 2803.03 17547)">2/17</text></g><g><text font-family="Inter,Inter_MSFontService,sans-serif" font-weight="400" font-size="32" transform="matrix(0.707107 -0.707107 0.707107 0.707107 2924.23 17539)">3/9</text></g><g><text font-family="Inter,Inter_MSFontService,sans-serif" font-weight="400" font-size="32" transform="matrix(0.707107 -0.707107 0.707107 0.707107 3022.35 17553)">3/30</text></g><g><text font-family="Inter,Inter_MSFontService,sans-serif" font-weight="400" font-size="32" transform="matrix(0.707107 -0.707107 0.707107 0.707107 3135.51 17553)">4/20</text></g><g><text font-family="Inter,Inter_MSFontService,sans-serif" font-weight="400" font-size="32" transform="matrix(0.707107 -0.707107 0.707107 0.707107 3255.71 17545)">5/11</text></g><g><text font-family="Inter,Inter_MSFontService,sans-serif" font-weight="400" font-size="32" transform="matrix(0.707107 -0.707107 0.707107 0.707107 3378.47 17535)">6/1</text></g><g><text font-family="Inter,Inter_MSFontService,sans-serif" font-weight="400" font-size="32" transform="matrix(0.707107 -0.707107 0.707107 0.707107 3474.13 17552)">6/22</text></g><g><text font-family="Inter,Inter_MSFontService,sans-serif" font-weight="400" font-size="32" transform="matrix(0.707107 -0.707107 0.707107 0.707107 3590.39 17548)">7/13</text></g><g><text font-family="Inter,Inter_MSFontService,sans-serif" font-weight="400" font-size="32" transform="matrix(0.707107 -0.707107 0.707107 0.707107 3712.47 17538)">8/3</text></g><g><text font-family="Inter,Inter_MSFontService,sans-serif" font-weight="400" font-size="32" transform="matrix(0.707107 -0.707107 0.707107 0.707107 3811.2 17552)">8/24</text></g><g><text font-family="Inter,Inter_MSFontService,sans-serif" font-weight="400" font-size="32" transform="matrix(0.707107 -0.707107 0.707107 0.707107 3926.81 17549)">9/14</text></g><g><text font-family="Inter,Inter_MSFontService,sans-serif" font-weight="400" font-size="32" transform="matrix(0.707107 -0.707107 0.707107 0.707107 4040.14 17549)">10/5</text></g><g><text font-family="Inter,Inter_MSFontService,sans-serif" font-weight="400" font-size="32" transform="matrix(0.707107 -0.707107 0.707107 0.707107 4138.64 17563)">10/26</text></g><g><text font-family="Inter,Inter_MSFontService,sans-serif" font-weight="400" font-size="32" transform="matrix(0.707107 -0.707107 0.707107 0.707107 4258.06 17556)">11/16</text></g><g><text font-family="Inter,Inter_MSFontService,sans-serif" font-weight="400" font-size="32" transform="matrix(0.707107 -0.707107 0.707107 0.707107 4379.18 17547)">12/7</text></g><g><text font-family="Inter Medium,Inter Medium_MSFontService,sans-serif" font-weight="700" font-size="46" transform="matrix(1 0 0 1 2529.01 16646)">U.S. Hotel Occupancy and ADR Recovery Levels</text></g><g><path d="M2521.5 16741.5 2609.5 16741.5" stroke="#FFB226" stroke-width="9.16667" stroke-linecap="round" stroke-linejoin="round" stroke-miterlimit="10" fill="none" fill-rule="evenodd"/></g><g><text font-family="Inter Medium,Inter Medium_MSFontService,sans-serif" font-weight="500" font-size="37" transform="matrix(1 0 0 1 2618.39 16754)">Occ Index</text></g><g><path d="M2846.5 16741.5 2934.5 16741.5" stroke="#000000" stroke-width="9.16667" stroke-linecap="round" stroke-linejoin="round" stroke-miterlimit="10" fill="none" fill-rule="evenodd"/></g><g><text font-family="Inter Medium,Inter Medium_MSFontService,sans-serif" font-weight="500" font-size="37" transform="matrix(1 0 0 1 2943.74 16754)">ADR Index</text></g><rect x="2445.5" y="16556.5" width="2103" height="1056" stroke="#D9D9D9" stroke-width="3.4375" stroke-linejoin="round" stroke-miterlimit="10" fill="none"/><g><text fill="#7F7F7F" font-family="Inter,Inter_MSFontService,sans-serif" font-weight="400" font-size="32" transform="matrix(1 0 0 1 2526.75 16700)">Indexed to 2023, Source: STR, str.com</text></g></g></svg>