<svg width="2106" height="1059" xmlns="http://www.w3.org/2000/svg" xmlns:xlink="http://www.w3.org/1999/xlink" xml:space="preserve" overflow="hidden"><defs><filter id="fx0" x="-10%" y="-10%" width="120%" height="120%" filterUnits="userSpaceOnUse" primitiveUnits="userSpaceOnUse"><feComponentTransfer color-interpolation-filters="sRGB"><feFuncR type="discrete" tableValues="0 0"/><feFuncG type="discrete" tableValues="0 0"/><feFuncB type="discrete" tableValues="0 0"/><feFuncA type="linear" slope="0.501961" intercept="0"/></feComponentTransfer><feGaussianBlur stdDeviation="4.58333 4.58333"/></filter><filter id="fx1" x="-10%" y="-10%" width="120%" height="120%" filterUnits="userSpaceOnUse" primitiveUnits="userSpaceOnUse"><feComponentTransfer color-interpolation-filters="sRGB"><feFuncR type="discrete" tableValues="0 0"/><feFuncG type="discrete" tableValues="0 0"/><feFuncB type="discrete" tableValues="0 0"/><feFuncA type="linear" slope="0.501961" intercept="0"/></feComponentTransfer><feGaussianBlur stdDeviation="4.58333 4.58333"/></filter><clipPath id="clip2"><rect x="2444" y="16555" width="2106" height="1059"/></clipPath><clipPath id="clip3"><rect x="2612" y="16804" width="1885" height="658"/></clipPath><clipPath id="clip4"><rect x="2612" y="16804" width="1885" height="658"/></clipPath></defs><g clip-path="url(#clip2)" transform="translate(-2444 -16555)"><rect x="2445" y="16556" width="2103" height="1056" fill="#FFFFFF"/><g><path d="M2612.5 17131.5 4494.5 17131.5" stroke="#D9D9D9" stroke-width="3.4375" stroke-linejoin="round" stroke-miterlimit="10" fill="none" fill-rule="evenodd"/></g><g clip-path="url(#clip3)"><g filter="url(#fx0)" transform="translate(2601 17037)"><g><path d="M19.9819 114.724C32.4969 125.026 45.0122 137.882 57.5275 145.63 70.0424 153.378 82.5577 168.189 95.073 161.213 107.588 154.236 120.103 113.334 132.619 103.77 145.133 94.2043 157.648 96.7606 170.164 103.822 182.679 110.883 195.194 139.456 207.709 146.136 220.224 152.816 232.74 142.107 245.255 143.902 257.77 145.697 270.285 162.778 282.8 156.907 295.315 151.037 307.83 111.698 320.346 108.677 332.86 105.656 345.376 135.647 357.891 138.78 370.406 141.913 382.921 135.476 395.437 127.477 407.952 119.477 420.467 79.1623 432.982 90.7849 445.497 102.407 458.012 207.982 470.527 197.212 483.042 186.441 495.558 49.0134 508.073 26.1627 520.22 3.98242 533.471 46.4463 545.618 60.1061 558.133 74.1787 570.649 100.123 583.164 110.599 595.679 121.076 608.194 121.243 620.709 122.965 633.224 124.687 645.739 128.802 658.255 120.931 670.77 113.061 683.285 78.6828 695.8 75.7425 708.315 72.8018 720.83 102.773 733.346 103.288 745.861 103.802 758.376 81.0039 770.891 78.8301 783.406 76.6561 795.921 85.3942 808.436 90.2449 820.951 95.0952 833.467 104.239 845.982 107.934 858.497 111.629 871.012 106.339 883.527 112.414 896.042 118.489 908.557 154.108 921.073 144.385 933.588 134.661 946.103 59.1186 958.618 54.0709 971.133 49.0228 983.648 95.6972 996.164 114.096 1008.68 132.495 1021.19 168.914 1033.71 164.465 1046.22 160.016 1058.74 97.2487 1071.25 87.404 1083.77 77.5588 1096.28 105.129 1108.8 105.395 1121.31 105.66 1133.83 91.3476 1146.35 88.9963 1158.86 86.6446 1171.38 88.9015 1183.89 91.2867 1196.41 93.6715 1208.92 106.322 1221.44 103.306 1233.95 100.289 1252.72 78.2073 1258.98 73.188" stroke="#FFB226" stroke-width="9" stroke-linecap="round" stroke-linejoin="round" stroke-miterlimit="10" fill="none"/></g></g></g><g clip-path="url(#clip4)"><g filter="url(#fx1)" transform="translate(2601 17009)"><g><path d="M19.9819 21.6563C32.4969 23.3548 45.0122 12.9824 57.5275 26.7521 70.0424 40.5217 82.5577 100.835 95.073 104.274 107.588 107.713 120.103 48.2321 132.619 47.3831 145.133 46.5337 157.648 103.659 170.164 99.1792 182.679 94.6986 195.194 26.2831 207.709 20.5008 220.224 14.7181 232.74 46.6019 245.255 64.4843 257.77 82.3664 270.285 124.16 282.8 127.794 295.315 131.427 307.83 83.9497 320.346 86.2828 332.86 88.6155 345.376 128.418 357.891 141.791 370.406 155.164 382.921 174.982 395.437 166.521 407.952 158.061 420.467 95.1152 432.982 91.0255 445.497 86.9355 458.012 142.183 470.527 141.982 483.042 141.781 495.558 100.555 508.073 89.8191 520.588 79.0828 533.103 76.0231 545.618 77.5641 558.133 79.1048 570.649 87.5268 583.164 99.0644 595.679 110.602 608.194 145.881 620.709 146.789 633.224 147.696 645.739 120.252 658.255 104.512 670.77 88.7715 683.285 56.1656 695.8 52.3471 708.315 48.5282 720.83 75.8776 733.346 81.5989 745.861 87.3199 758.376 79.8561 770.891 86.6748 783.406 93.4936 795.921 121.026 808.436 122.512 820.951 123.996 833.467 97.7255 845.982 95.5848 858.497 93.4441 871.012 105.619 883.527 109.667 896.042 113.716 908.557 128.093 921.073 119.875 933.588 111.657 946.103 61.4072 958.618 60.3596 971.133 59.3117 983.648 99.1359 996.164 113.589 1008.68 128.042 1021.19 151.716 1033.71 147.077 1046.22 142.439 1058.74 93.2012 1071.25 85.7572 1083.77 78.3128 1096.28 97.858 1108.8 102.413 1121.31 106.968 1133.83 113.935 1146.35 113.086 1158.86 112.236 1171.38 98.6594 1183.89 97.3147 1196.41 95.9696 1208.92 108.054 1221.44 105.017 1233.95 101.98 1252.72 83.4129 1258.98 79.0922" stroke="#000000" stroke-width="9" stroke-linecap="round" stroke-linejoin="round" stroke-miterlimit="10" fill="none"/></g></g></g><g><path d="M2614.5 17145.2C2627.01 17155.5 2639.53 17168.4 2652.05 17176.1 2664.56 17183.9 2677.08 17198.7 2689.59 17191.7 2702.11 17184.8 2714.62 17143.9 2727.14 17134.3 2739.65 17124.7 2752.17 17127.3 2764.68 17134.3 2777.2 17141.4 2789.71 17170 2802.23 17176.7 2814.74 17183.3 2827.26 17172.6 2839.77 17174.4 2852.29 17176.2 2864.8 17193.3 2877.32 17187.4 2889.83 17181.6 2902.35 17142.2 2914.86 17139.2 2927.38 17136.2 2939.89 17166.2 2952.41 17169.3 2964.92 17172.4 2977.44 17166 2989.95 17158 3002.47 17150 3014.98 17109.7 3027.5 17121.3 3040.02 17132.9 3052.53 17238.5 3065.05 17227.7 3077.56 17217 3090.08 17079.5 3102.59 17056.7 3114.74 17034.5 3127.99 17077 3140.14 17090.6 3152.65 17104.7 3165.17 17130.6 3177.68 17141.1 3190.2 17151.6 3202.71 17151.8 3215.23 17153.5 3227.74 17155.2 3240.26 17159.3 3252.77 17151.4 3265.29 17143.6 3277.8 17109.2 3290.32 17106.3 3302.83 17103.3 3315.35 17133.3 3327.86 17133.8 3340.38 17134.3 3352.89 17111.5 3365.41 17109.3 3377.92 17107.2 3390.44 17115.9 3402.95 17120.8 3415.47 17125.6 3427.98 17134.8 3440.5 17138.5 3453.01 17142.1 3465.53 17136.9 3478.05 17142.9 3490.56 17149 3503.08 17184.6 3515.59 17174.9 3528.11 17165.2 3540.62 17089.6 3553.14 17084.6 3565.65 17079.5 3578.17 17126.2 3590.68 17144.6 3603.2 17163 3615.71 17199.4 3628.23 17195 3640.74 17190.5 3653.26 17127.8 3665.77 17117.9 3678.29 17108.1 3690.8 17135.6 3703.32 17135.9 3715.83 17136.2 3728.35 17121.9 3740.86 17119.5 3753.38 17117.2 3765.89 17119.4 3778.41 17121.8 3790.92 17124.2 3803.44 17136.8 3815.95 17133.8 3828.47 17130.8 3847.24 17108.7 3853.5 17103.7" stroke="#FFB226" stroke-width="9.16667" stroke-linecap="round" stroke-linejoin="round" stroke-miterlimit="10" fill="none"/></g><g><path d="M2614.5 17024.2C2627.01 17025.9 2639.53 17015.5 2652.05 17029.3 2664.56 17043 2677.08 17103.4 2689.59 17106.8 2702.11 17110.2 2714.62 17050.8 2727.14 17049.9 2739.65 17049.1 2752.17 17106.2 2764.68 17101.7 2777.2 17097.2 2789.71 17028.8 2802.23 17023 2814.74 17017.2 2827.26 17049.1 2839.77 17067 2852.29 17084.9 2864.8 17126.7 2877.32 17130.3 2889.83 17133.9 2902.35 17086.5 2914.86 17088.8 2927.38 17091.1 2939.89 17130.9 2952.41 17144.3 2964.92 17157.7 2977.44 17177.5 2989.95 17169 3002.47 17160.6 3014.98 17097.6 3027.5 17093.5 3040.02 17089.5 3052.53 17144.7 3065.05 17144.5 3077.56 17144.3 3090.08 17103.1 3102.59 17092.3 3115.11 17081.6 3127.62 17078.5 3140.14 17080.1 3152.65 17081.6 3165.17 17090 3177.68 17101.6 3190.2 17113.1 3202.71 17148.4 3215.23 17149.3 3227.74 17150.2 3240.26 17122.8 3252.77 17107 3265.29 17091.3 3277.8 17058.7 3290.32 17054.9 3302.83 17051 3315.35 17078.4 3327.86 17084.1 3340.38 17089.8 3352.89 17082.4 3365.41 17089.2 3377.92 17096 3390.44 17123.5 3402.95 17125 3415.47 17126.5 3427.98 17100.2 3440.5 17098.1 3453.01 17096 3465.53 17108.1 3478.05 17112.2 3490.56 17116.2 3503.08 17130.6 3515.59 17122.4 3528.11 17114.2 3540.62 17063.9 3553.14 17062.9 3565.65 17061.8 3578.17 17101.7 3590.68 17116.1 3603.2 17130.6 3615.71 17154.2 3628.23 17149.6 3640.74 17145 3653.26 17095.7 3665.77 17088.3 3678.29 17080.8 3690.8 17100.4 3703.32 17104.9 3715.83 17109.5 3728.35 17116.5 3740.86 17115.6 3753.38 17114.8 3765.89 17101.2 3778.41 17099.8 3790.92 17098.5 3803.44 17110.6 3815.95 17107.5 3828.47 17104.5 3847.24 17085.9 3853.5 17081.6" stroke="#000000" stroke-width="9.16667" stroke-linecap="round" stroke-linejoin="round" stroke-miterlimit="10" fill="none"/></g><g><text font-family="Inter,Inter_MSFontService,sans-serif" font-weight="400" font-size="32" transform="matrix(1 0 0 1 2542.69 17469)">80</text></g><g><text font-family="Inter,Inter_MSFontService,sans-serif" font-weight="400" font-size="32" transform="matrix(1 0 0 1 2542.46 17305)">90</text></g><g><text font-family="Inter,Inter_MSFontService,sans-serif" font-weight="400" font-size="32" transform="matrix(1 0 0 1 2527.52 17142)">100</text></g><g><text font-family="Inter,Inter_MSFontService,sans-serif" font-weight="400" font-size="32" transform="matrix(1 0 0 1 2532.67 16978)">110</text></g><g><text font-family="Inter,Inter_MSFontService,sans-serif" font-weight="400" font-size="32" transform="matrix(1 0 0 1 2528.16 16814)">120</text></g><g><text font-family="Inter,Inter_MSFontService,sans-serif" font-weight="400" font-size="32" transform="matrix(0.707107 -0.707107 0.707107 0.707107 2590.39 17535)">1/6</text></g><g><text font-family="Inter,Inter_MSFontService,sans-serif" font-weight="400" font-size="32" transform="matrix(0.707107 -0.707107 0.707107 0.707107 2690.45 17547)">1/27</text></g><g><text font-family="Inter,Inter_MSFontService,sans-serif" font-weight="400" font-size="32" transform="matrix(0.707107 -0.707107 0.707107 0.707107 2803.03 17547)">2/17</text></g><g><text font-family="Inter,Inter_MSFontService,sans-serif" font-weight="400" font-size="32" transform="matrix(0.707107 -0.707107 0.707107 0.707107 2924.23 17539)">3/9</text></g><g><text font-family="Inter,Inter_MSFontService,sans-serif" font-weight="400" font-size="32" transform="matrix(0.707107 -0.707107 0.707107 0.707107 3022.35 17553)">3/30</text></g><g><text font-family="Inter,Inter_MSFontService,sans-serif" font-weight="400" font-size="32" transform="matrix(0.707107 -0.707107 0.707107 0.707107 3135.51 17553)">4/20</text></g><g><text font-family="Inter,Inter_MSFontService,sans-serif" font-weight="400" font-size="32" transform="matrix(0.707107 -0.707107 0.707107 0.707107 3255.71 17545)">5/11</text></g><g><text font-family="Inter,Inter_MSFontService,sans-serif" font-weight="400" font-size="32" transform="matrix(0.707107 -0.707107 0.707107 0.707107 3378.47 17535)">6/1</text></g><g><text font-family="Inter,Inter_MSFontService,sans-serif" font-weight="400" font-size="32" transform="matrix(0.707107 -0.707107 0.707107 0.707107 3474.13 17552)">6/22</text></g><g><text font-family="Inter,Inter_MSFontService,sans-serif" font-weight="400" font-size="32" transform="matrix(0.707107 -0.707107 0.707107 0.707107 3590.39 17548)">7/13</text></g><g><text font-family="Inter,Inter_MSFontService,sans-serif" font-weight="400" font-size="32" transform="matrix(0.707107 -0.707107 0.707107 0.707107 3712.47 17538)">8/3</text></g><g><text font-family="Inter,Inter_MSFontService,sans-serif" font-weight="400" font-size="32" transform="matrix(0.707107 -0.707107 0.707107 0.707107 3811.2 17552)">8/24</text></g><g><text font-family="Inter,Inter_MSFontService,sans-serif" font-weight="400" font-size="32" transform="matrix(0.707107 -0.707107 0.707107 0.707107 3926.81 17549)">9/14</text></g><g><text font-family="Inter,Inter_MSFontService,sans-serif" font-weight="400" font-size="32" transform="matrix(0.707107 -0.707107 0.707107 0.707107 4040.14 17549)">10/5</text></g><g><text font-family="Inter,Inter_MSFontService,sans-serif" font-weight="400" font-size="32" transform="matrix(0.707107 -0.707107 0.707107 0.707107 4138.64 17563)">10/26</text></g><g><text font-family="Inter,Inter_MSFontService,sans-serif" font-weight="400" font-size="32" transform="matrix(0.707107 -0.707107 0.707107 0.707107 4258.06 17556)">11/16</text></g><g><text font-family="Inter,Inter_MSFontService,sans-serif" font-weight="400" font-size="32" transform="matrix(0.707107 -0.707107 0.707107 0.707107 4379.18 17547)">12/7</text></g><g><text font-family="Inter Medium,Inter Medium_MSFontService,sans-serif" font-weight="700" font-size="46" transform="matrix(1 0 0 1 2529.01 16646)">U.S. Hotel Occupancy and ADR Recovery Levels</text></g><g><path d="M2521.5 16741.5 2609.5 16741.5" stroke="#FFB226" stroke-width="9.16667" stroke-linecap="round" stroke-linejoin="round" stroke-miterlimit="10" fill="none" fill-rule="evenodd"/></g><g><text font-family="Inter Medium,Inter Medium_MSFontService,sans-serif" font-weight="500" font-size="37" transform="matrix(1 0 0 1 2618.39 16754)">Occ Index</text></g><g><path d="M2846.5 16741.5 2934.5 16741.5" stroke="#000000" stroke-width="9.16667" stroke-linecap="round" stroke-linejoin="round" stroke-miterlimit="10" fill="none" fill-rule="evenodd"/></g><g><text font-family="Inter Medium,Inter Medium_MSFontService,sans-serif" font-weight="500" font-size="37" transform="matrix(1 0 0 1 2943.74 16754)">ADR Index</text></g><rect x="2445.5" y="16556.5" width="2103" height="1056" stroke="#D9D9D9" stroke-width="3.4375" stroke-linejoin="round" stroke-miterlimit="10" fill="none"/><g><text fill="#7F7F7F" font-family="Inter,Inter_MSFontService,sans-serif" font-weight="400" font-size="32" transform="matrix(1 0 0 1 2526.75 16700)">Indexed to 2023, Source: STR, str.com</text></g></g></svg>