<svg width="2106" height="1059" xmlns="http://www.w3.org/2000/svg" xmlns:xlink="http://www.w3.org/1999/xlink" xml:space="preserve" overflow="hidden"><defs><filter id="fx0" x="-10%" y="-10%" width="120%" height="120%" filterUnits="userSpaceOnUse" primitiveUnits="userSpaceOnUse"><feComponentTransfer color-interpolation-filters="sRGB"><feFuncR type="discrete" tableValues="0 0"/><feFuncG type="discrete" tableValues="0 0"/><feFuncB type="discrete" tableValues="0 0"/><feFuncA type="linear" slope="0.501961" intercept="0"/></feComponentTransfer><feGaussianBlur stdDeviation="4.58333 4.58333"/></filter><filter id="fx1" x="-10%" y="-10%" width="120%" height="120%" filterUnits="userSpaceOnUse" primitiveUnits="userSpaceOnUse"><feComponentTransfer color-interpolation-filters="sRGB"><feFuncR type="discrete" tableValues="0 0"/><feFuncG type="discrete" tableValues="0 0"/><feFuncB type="discrete" tableValues="0 0"/><feFuncA type="linear" slope="0.501961" intercept="0"/></feComponentTransfer><feGaussianBlur stdDeviation="4.58333 4.58333"/></filter><clipPath id="clip2"><rect x="2444" y="17126" width="2106" height="1059"/></clipPath><clipPath id="clip3"><rect x="2612" y="17374" width="1885" height="659"/></clipPath><clipPath id="clip4"><rect x="2612" y="17374" width="1885" height="659"/></clipPath></defs><g clip-path="url(#clip2)" transform="translate(-2444 -17126)"><rect x="2445" y="17127" width="2103" height="1056" fill="#FFFFFF"/><g><path d="M2612.5 17702.5 4494.5 17702.5" stroke="#D9D9D9" stroke-width="3.4375" stroke-linejoin="round" stroke-miterlimit="10" fill="none" fill-rule="evenodd"/></g><g clip-path="url(#clip3)"><g filter="url(#fx0)" transform="translate(2601 17608)"><g><path d="M19.9819 114.724C32.4956 125.026 45.0097 137.882 57.5237 145.63 70.0374 153.378 82.5514 168.189 95.0654 161.213 107.579 154.236 120.093 113.334 132.607 103.769 145.121 94.2042 157.635 96.7608 170.149 103.822 182.662 110.883 195.176 139.456 207.69 146.136 220.204 152.816 232.718 142.107 245.232 143.902 257.746 145.697 270.26 162.778 282.774 156.908 295.288 151.037 307.801 111.698 320.315 108.677 332.829 105.656 345.343 135.647 357.857 138.78 370.371 141.913 382.885 135.476 395.399 127.477 407.912 119.477 420.427 79.1622 432.941 90.7847 445.454 102.407 457.968 207.982 470.482 197.212 482.996 186.441 495.51 49.0137 508.024 26.1627 520.17 3.98242 533.419 46.4462 545.565 60.106 558.079 74.1785 570.593 100.123 583.107 110.599 595.621 121.075 608.135 121.243 620.649 122.965 633.162 124.687 645.676 128.801 658.19 120.931 670.704 113.06 683.218 78.683 695.732 75.7427 708.246 72.802 720.76 102.773 733.274 103.287 745.787 103.802 758.301 81.0041 770.815 78.8304 783.329 76.6563 795.843 85.394 808.357 90.2447 820.871 95.095 833.385 104.239 845.899 107.934 858.412 111.629 870.927 106.339 883.44 112.414 895.954 118.489 914.725 139.056 920.982 144.384" stroke="#FFB226" stroke-width="9" stroke-linecap="round" stroke-linejoin="round" stroke-miterlimit="10" fill="none"/></g></g></g><g clip-path="url(#clip4)"><g filter="url(#fx1)" transform="translate(2601 17580)"><g><path d="M19.9819 21.6563C32.4956 23.3548 45.0097 12.9824 57.5237 26.7521 70.0374 40.5214 82.5514 100.835 95.0654 104.274 107.579 107.712 120.093 48.2321 132.607 47.3831 145.121 46.5337 157.635 103.659 170.149 99.1792 182.662 94.6986 195.176 26.2831 207.69 20.5008 220.204 14.7181 232.718 46.6015 245.232 64.484 257.746 82.366 270.26 124.16 282.774 127.794 295.288 131.427 307.801 83.9497 320.315 86.2828 332.829 88.6155 345.343 128.417 357.857 141.791 370.371 155.164 382.885 174.982 395.399 166.521 407.912 158.061 420.427 95.1152 432.941 91.0251 445.454 86.9351 457.968 142.182 470.482 141.981 482.996 141.78 495.51 100.555 508.024 89.8187 520.537 79.0825 533.051 76.0227 545.565 77.5638 558.079 79.1045 570.593 87.5268 583.107 99.0644 595.621 110.602 608.135 145.88 620.649 146.788 633.162 147.696 645.676 120.251 658.19 104.511 670.704 88.7711 683.218 56.1653 695.732 52.3467 708.246 48.5278 720.76 75.8776 733.274 81.5989 745.787 87.3199 758.301 79.8557 770.815 86.6745 783.329 93.4929 795.843 121.026 808.357 122.511 820.871 123.996 833.385 97.7251 845.899 95.5848 858.412 93.4441 870.927 105.619 883.44 109.667 895.954 113.716 914.725 118.174 920.982 119.875" stroke="#000000" stroke-width="9" stroke-linecap="round" stroke-linejoin="round" stroke-miterlimit="10" fill="none"/></g></g></g><g><path d="M2614.5 17716.2C2627.01 17726.5 2639.53 17739.4 2652.04 17747.1 2664.56 17754.9 2677.07 17769.7 2689.58 17762.7 2702.1 17755.8 2714.61 17714.9 2727.13 17705.3 2739.64 17695.7 2752.15 17698.3 2764.67 17705.3 2777.18 17712.4 2789.69 17741 2802.21 17747.7 2814.72 17754.3 2827.24 17743.6 2839.75 17745.4 2852.26 17747.2 2864.78 17764.3 2877.29 17758.4 2889.81 17752.6 2902.32 17713.2 2914.83 17710.2 2927.35 17707.2 2939.86 17737.2 2952.38 17740.3 2964.89 17743.4 2977.4 17737 2989.92 17729 3002.43 17721 3014.94 17680.7 3027.46 17692.3 3039.97 17703.9 3052.49 17809.5 3065 17798.7 3077.51 17788 3090.03 17650.5 3102.54 17627.7 3114.69 17605.5 3127.94 17648 3140.08 17661.6 3152.6 17675.7 3165.11 17701.6 3177.63 17712.1 3190.14 17722.6 3202.65 17722.8 3215.17 17724.5 3227.68 17726.2 3240.19 17730.3 3252.71 17722.4 3265.22 17714.6 3277.74 17680.2 3290.25 17677.3 3302.76 17674.3 3315.28 17704.3 3327.79 17704.8 3340.31 17705.3 3352.82 17682.5 3365.33 17680.3 3377.85 17678.2 3390.36 17686.9 3402.88 17691.8 3415.39 17696.6 3427.9 17705.8 3440.42 17709.5 3452.93 17713.1 3465.44 17707.9 3477.96 17713.9 3490.47 17720 3509.24 17740.6 3515.5 17745.9" stroke="#FFB226" stroke-width="9.16667" stroke-linecap="round" stroke-linejoin="round" stroke-miterlimit="10" fill="none"/></g><g><path d="M2614.5 17595.2C2627.01 17596.9 2639.53 17586.5 2652.04 17600.3 2664.56 17614 2677.07 17674.4 2689.58 17677.8 2702.1 17681.2 2714.61 17621.8 2727.13 17620.9 2739.64 17620.1 2752.15 17677.2 2764.67 17672.7 2777.18 17668.2 2789.69 17599.8 2802.21 17594 2814.72 17588.2 2827.24 17620.1 2839.75 17638 2852.26 17655.9 2864.78 17697.7 2877.29 17701.3 2889.81 17704.9 2902.32 17657.5 2914.83 17659.8 2927.35 17662.1 2939.86 17701.9 2952.38 17715.3 2964.89 17728.7 2977.4 17748.5 2989.92 17740 3002.43 17731.6 3014.94 17668.6 3027.46 17664.5 3039.97 17660.5 3052.49 17715.7 3065 17715.5 3077.51 17715.3 3090.03 17674.1 3102.54 17663.3 3115.06 17652.6 3127.57 17649.5 3140.08 17651.1 3152.6 17652.6 3165.11 17661 3177.63 17672.6 3190.14 17684.1 3202.65 17719.4 3215.17 17720.3 3227.68 17721.2 3240.19 17693.8 3252.71 17678 3265.22 17662.3 3277.74 17629.7 3290.25 17625.9 3302.76 17622 3315.28 17649.4 3327.79 17655.1 3340.31 17660.8 3352.82 17653.4 3365.33 17660.2 3377.85 17667 3390.36 17694.5 3402.88 17696 3415.39 17697.5 3427.9 17671.2 3440.42 17669.1 3452.93 17667 3465.44 17679.1 3477.96 17683.2 3490.47 17687.2 3509.24 17691.7 3515.5 17693.4" stroke="#000000" stroke-width="9.16667" stroke-linecap="round" stroke-linejoin="round" stroke-miterlimit="10" fill="none"/></g><g><text font-family="Inter,Inter_MSFontService,sans-serif" font-weight="400" font-size="32" transform="matrix(1 0 0 1 2542.69 18040)">80</text></g><g><text font-family="Inter,Inter_MSFontService,sans-serif" font-weight="400" font-size="32" transform="matrix(1 0 0 1 2542.46 17876)">90</text></g><g><text font-family="Inter,Inter_MSFontService,sans-serif" font-weight="400" font-size="32" transform="matrix(1 0 0 1 2527.52 17712)">100</text></g><g><text font-family="Inter,Inter_MSFontService,sans-serif" font-weight="400" font-size="32" transform="matrix(1 0 0 1 2532.67 17548)">110</text></g><g><text font-family="Inter,Inter_MSFontService,sans-serif" font-weight="400" font-size="32" transform="matrix(1 0 0 1 2528.16 17385)">120</text></g><g><text font-family="Inter,Inter_MSFontService,sans-serif" font-weight="400" font-size="32" transform="matrix(0.707107 -0.707107 0.707107 0.707107 2590.39 18105)">1/6</text></g><g><text font-family="Inter,Inter_MSFontService,sans-serif" font-weight="400" font-size="32" transform="matrix(0.707107 -0.707107 0.707107 0.707107 2690.45 18118)">1/27</text></g><g><text font-family="Inter,Inter_MSFontService,sans-serif" font-weight="400" font-size="32" transform="matrix(0.707107 -0.707107 0.707107 0.707107 2803.03 18118)">2/17</text></g><g><text font-family="Inter,Inter_MSFontService,sans-serif" font-weight="400" font-size="32" transform="matrix(0.707107 -0.707107 0.707107 0.707107 2924.23 18109)">3/9</text></g><g><text font-family="Inter,Inter_MSFontService,sans-serif" font-weight="400" font-size="32" transform="matrix(0.707107 -0.707107 0.707107 0.707107 3022.35 18124)">3/30</text></g><g><text font-family="Inter,Inter_MSFontService,sans-serif" font-weight="400" font-size="32" transform="matrix(0.707107 -0.707107 0.707107 0.707107 3135.51 18123)">4/20</text></g><g><text font-family="Inter,Inter_MSFontService,sans-serif" font-weight="400" font-size="32" transform="matrix(0.707107 -0.707107 0.707107 0.707107 3255.71 18116)">5/11</text></g><g><text font-family="Inter,Inter_MSFontService,sans-serif" font-weight="400" font-size="32" transform="matrix(0.707107 -0.707107 0.707107 0.707107 3378.47 18105)">6/1</text></g><g><text font-family="Inter,Inter_MSFontService,sans-serif" font-weight="400" font-size="32" transform="matrix(0.707107 -0.707107 0.707107 0.707107 3474.13 18122)">6/22</text></g><g><text font-family="Inter,Inter_MSFontService,sans-serif" font-weight="400" font-size="32" transform="matrix(0.707107 -0.707107 0.707107 0.707107 3590.39 18119)">7/13</text></g><g><text font-family="Inter,Inter_MSFontService,sans-serif" font-weight="400" font-size="32" transform="matrix(0.707107 -0.707107 0.707107 0.707107 3712.47 18109)">8/3</text></g><g><text font-family="Inter,Inter_MSFontService,sans-serif" font-weight="400" font-size="32" transform="matrix(0.707107 -0.707107 0.707107 0.707107 3811.2 18123)">8/24</text></g><g><text font-family="Inter,Inter_MSFontService,sans-serif" font-weight="400" font-size="32" transform="matrix(0.707107 -0.707107 0.707107 0.707107 3926.81 18120)">9/14</text></g><g><text font-family="Inter,Inter_MSFontService,sans-serif" font-weight="400" font-size="32" transform="matrix(0.707107 -0.707107 0.707107 0.707107 4040.14 18119)">10/5</text></g><g><text font-family="Inter,Inter_MSFontService,sans-serif" font-weight="400" font-size="32" transform="matrix(0.707107 -0.707107 0.707107 0.707107 4138.64 18133)">10/26</text></g><g><text font-family="Inter,Inter_MSFontService,sans-serif" font-weight="400" font-size="32" transform="matrix(0.707107 -0.707107 0.707107 0.707107 4258.06 18126)">11/16</text></g><g><text font-family="Inter,Inter_MSFontService,sans-serif" font-weight="400" font-size="32" transform="matrix(0.707107 -0.707107 0.707107 0.707107 4379.18 18118)">12/7</text></g><g><text font-family="Inter Medium,Inter Medium_MSFontService,sans-serif" font-weight="700" font-size="46" transform="matrix(1 0 0 1 2529.01 17216)">U.S. Hotel Occupancy and ADR Recovery Levels</text></g><g><path d="M2521.5 17312.5 2609.5 17312.5" stroke="#FFB226" stroke-width="9.16667" stroke-linecap="round" stroke-linejoin="round" stroke-miterlimit="10" fill="none" fill-rule="evenodd"/></g><g><text font-family="Inter Medium,Inter Medium_MSFontService,sans-serif" font-weight="500" font-size="37" transform="matrix(1 0 0 1 2618.39 17324)">Occ Index</text></g><g><path d="M2846.5 17312.5 2934.5 17312.5" stroke="#000000" stroke-width="9.16667" stroke-linecap="round" stroke-linejoin="round" stroke-miterlimit="10" fill="none" fill-rule="evenodd"/></g><g><text font-family="Inter Medium,Inter Medium_MSFontService,sans-serif" font-weight="500" font-size="37" transform="matrix(1 0 0 1 2943.74 17324)">ADR Index</text></g><rect x="2445.5" y="17127.5" width="2103" height="1056" stroke="#D9D9D9" stroke-width="3.4375" stroke-linejoin="round" stroke-miterlimit="10" fill="none"/><g><text fill="#7F7F7F" font-family="Inter,Inter_MSFontService,sans-serif" font-weight="400" font-size="32" transform="matrix(1 0 0 1 2526.75 17270)">Indexed to 2023, Source: STR, str.com</text></g></g></svg>