<svg width="2106" height="1059" xmlns="http://www.w3.org/2000/svg" xmlns:xlink="http://www.w3.org/1999/xlink" xml:space="preserve" overflow="hidden"><defs><filter id="fx0" x="-10%" y="-10%" width="120%" height="120%" filterUnits="userSpaceOnUse" primitiveUnits="userSpaceOnUse"><feComponentTransfer color-interpolation-filters="sRGB"><feFuncR type="discrete" tableValues="0 0"/><feFuncG type="discrete" tableValues="0 0"/><feFuncB type="discrete" tableValues="0 0"/><feFuncA type="linear" slope="0.501961" intercept="0"/></feComponentTransfer><feGaussianBlur stdDeviation="4.58333 4.58333"/></filter><filter id="fx1" x="-10%" y="-10%" width="120%" height="120%" filterUnits="userSpaceOnUse" primitiveUnits="userSpaceOnUse"><feComponentTransfer color-interpolation-filters="sRGB"><feFuncR type="discrete" tableValues="0 0"/><feFuncG type="discrete" tableValues="0 0"/><feFuncB type="discrete" tableValues="0 0"/><feFuncA type="linear" slope="0.501961" intercept="0"/></feComponentTransfer><feGaussianBlur stdDeviation="4.58333 4.58333"/></filter><clipPath id="clip2"><rect x="2444" y="16555" width="2106" height="1059"/></clipPath><clipPath id="clip3"><rect x="2612" y="16804" width="1885" height="658"/></clipPath><clipPath id="clip4"><rect x="2612" y="16804" width="1885" height="658"/></clipPath></defs><g clip-path="url(#clip2)" transform="translate(-2444 -16555)"><rect x="2445" y="16556" width="2103" height="1056" fill="#FFFFFF"/><g><path d="M2612.5 17131.5 4494.5 17131.5" stroke="#D9D9D9" stroke-width="3.4375" stroke-linejoin="round" stroke-miterlimit="10" fill="none" fill-rule="evenodd"/></g><g clip-path="url(#clip3)"><g filter="url(#fx0)" transform="translate(2601 17037)"><g><path d="M19.9819 114.724C32.4976 125.026 45.0136 137.882 57.5296 145.63 70.0453 153.378 82.5613 168.189 95.0773 161.213 107.593 154.236 120.109 113.334 132.625 103.77 145.141 94.2043 157.656 96.7606 170.172 103.822 182.688 110.883 195.204 139.456 207.72 146.136 220.236 152.816 232.752 142.107 245.268 143.902 257.783 145.697 270.299 162.778 282.815 156.907 295.331 151.037 307.847 111.698 320.363 108.677 332.878 105.656 345.395 135.647 357.911 138.78 370.426 141.913 382.942 135.476 395.458 127.477 407.974 119.477 420.49 79.1623 433.006 90.7849 445.522 102.407 458.037 207.982 470.553 197.212 483.069 186.441 495.585 49.0134 508.101 26.1627 520.249 3.98242 533.5 46.4463 545.649 60.1061 558.164 74.1787 570.68 100.123 583.196 110.599 595.712 121.076 608.228 121.243 620.744 122.965 633.259 124.687 645.775 128.802 658.291 120.931 670.807 113.061 683.323 78.6828 695.839 75.7425 708.355 72.8018 720.871 102.773 733.387 103.288 745.902 103.802 758.418 81.0039 770.934 78.8301 783.45 76.6561 795.966 85.3942 808.482 90.2449 820.997 95.0952 833.513 104.239 846.03 107.934 858.545 111.629 871.061 106.339 883.577 112.414 896.093 118.489 908.609 154.108 921.125 144.385 933.64 134.661 946.156 59.1186 958.672 54.0709 971.188 49.0228 983.704 95.6972 996.22 114.096 1008.74 132.495 1021.25 168.914 1033.77 164.465 1046.28 160.016 1058.8 97.2487 1071.31 87.404 1083.83 77.5588 1096.35 105.129 1108.86 105.395 1121.38 105.66 1133.89 91.3476 1146.41 88.9963 1158.93 86.6446 1171.44 88.9015 1183.96 91.2867 1196.47 93.6715 1208.99 106.322 1221.51 103.306 1234.02 100.289 1246.54 78.8114 1259.05 73.188 1270.7 67.9561 1284.96 54.76 1296.6 69.5643 1309.12 85.4777 1321.63 159.023 1334.15 168.669 1346.66 178.314 1359.18 140.329 1371.7 127.437 1384.21 114.545 1396.73 102.69 1409.24 91.3144 1421.76 79.9383 1434.28 48.7454 1446.79 59.1817 1459.31 69.6176 1471.82 154.147 1484.34 153.932 1496.85 153.716 1509.37 71.0791 1521.89 57.8895 1534.4 44.6995 1546.92 80.0193 1559.43 74.7922 1571.95 69.565 1590.72 34.5708 1596.98 26.5265" stroke="#FFB226" stroke-width="9" stroke-linecap="round" stroke-linejoin="round" stroke-miterlimit="10" fill="none"/></g></g></g><g clip-path="url(#clip4)"><g filter="url(#fx1)" transform="translate(2601 16988)"><g><path d="M19.9819 42.8662C32.4976 44.5659 45.0136 34.1859 57.5296 47.9656 70.0453 61.7454 82.5613 122.103 95.0773 125.545 107.593 128.986 120.109 69.4614 132.625 68.6118 145.141 67.7617 157.656 124.929 170.172 120.446 182.688 115.962 195.204 47.4964 207.72 41.7098 220.236 35.9228 232.752 67.83 245.268 85.7255 257.783 103.621 270.299 145.445 282.815 149.081 295.331 152.717 307.847 105.205 320.363 107.54 332.878 109.874 345.395 149.706 357.911 163.089 370.426 176.471 382.942 196.304 395.458 187.837 407.974 179.37 420.49 116.379 433.006 112.286 445.522 108.193 458.037 163.481 470.553 163.279 483.069 163.078 495.585 121.823 508.101 111.079 520.617 100.335 533.133 97.2727 545.649 98.8149 558.164 100.357 570.68 108.785 583.196 120.331 595.712 131.877 608.228 167.181 620.744 168.09 633.259 168.999 645.775 141.534 658.291 125.782 670.807 110.03 683.323 77.4007 695.839 73.5794 708.355 69.7577 720.871 97.1271 733.387 102.853 745.902 108.578 758.418 101.108 770.934 107.932 783.45 114.756 795.966 142.309 808.482 143.795 820.997 145.281 833.513 118.991 846.03 116.849 858.545 114.707 871.061 126.89 883.577 130.942 896.093 134.993 908.609 149.381 921.125 141.157 933.64 132.933 946.156 82.6462 958.672 81.5978 971.188 80.5491 983.704 120.402 996.22 134.866 1008.74 149.329 1021.25 173.021 1033.77 168.379 1046.28 163.737 1058.8 114.463 1071.31 107.014 1083.83 99.5641 1096.35 119.124 1108.86 123.682 1121.38 128.24 1133.89 135.212 1146.41 134.362 1158.93 133.512 1171.44 119.926 1183.96 118.58 1196.47 117.234 1208.99 129.327 1221.51 126.288 1234.02 123.248 1246.54 102.073 1259.05 100.344 1271.57 98.6148 1284.08 105.801 1296.6 115.912 1309.12 126.023 1321.63 156.817 1334.15 161.01 1346.66 165.204 1359.18 149.217 1371.7 141.075 1384.21 132.933 1396.73 132.012 1409.24 112.159 1421.76 92.3047 1434.28 3.98242 1446.79 21.9527 1459.31 39.9227 1471.82 202.976 1484.34 219.979 1496.85 236.982 1509.37 143.087 1521.89 123.973 1533.38 106.427 1547.94 113.441 1559.43 105.295 1571.95 96.4198 1590.72 76.4864 1596.98 70.7247" stroke="#000000" stroke-width="9" stroke-linecap="round" stroke-linejoin="round" stroke-miterlimit="10" fill="none"/></g></g></g><g><path d="M2614.5 17145.2C2627.02 17155.5 2639.53 17168.4 2652.05 17176.1 2664.56 17183.9 2677.08 17198.7 2689.6 17191.7 2702.11 17184.8 2714.63 17143.9 2727.14 17134.3 2739.66 17124.7 2752.17 17127.3 2764.69 17134.3 2777.21 17141.4 2789.72 17170 2802.24 17176.7 2814.75 17183.3 2827.27 17172.6 2839.79 17174.4 2852.3 17176.2 2864.82 17193.3 2877.33 17187.4 2889.85 17181.6 2902.36 17142.2 2914.88 17139.2 2927.4 17136.2 2939.91 17166.2 2952.43 17169.3 2964.94 17172.4 2977.46 17166 2989.98 17158 3002.49 17150 3015.01 17109.7 3027.52 17121.3 3040.04 17132.9 3052.56 17238.5 3065.07 17227.7 3077.59 17217 3090.1 17079.5 3102.62 17056.7 3114.77 17034.5 3128.02 17077 3140.17 17090.6 3152.68 17104.7 3165.2 17130.6 3177.71 17141.1 3190.23 17151.6 3202.75 17151.8 3215.26 17153.5 3227.78 17155.2 3240.29 17159.3 3252.81 17151.4 3265.33 17143.6 3277.84 17109.2 3290.36 17106.3 3302.87 17103.3 3315.39 17133.3 3327.9 17133.8 3340.42 17134.3 3352.94 17111.5 3365.45 17109.3 3377.97 17107.2 3390.48 17115.9 3403 17120.8 3415.52 17125.6 3428.03 17134.8 3440.55 17138.5 3453.06 17142.1 3465.58 17136.9 3478.1 17142.9 3490.61 17149 3503.13 17184.6 3515.64 17174.9 3528.16 17165.2 3540.67 17089.6 3553.19 17084.6 3565.71 17079.5 3578.22 17126.2 3590.74 17144.6 3603.25 17163 3615.77 17199.4 3628.29 17195 3640.8 17190.5 3653.32 17127.8 3665.83 17117.9 3678.35 17108.1 3690.86 17135.6 3703.38 17135.9 3715.9 17136.2 3728.41 17121.9 3740.93 17119.5 3753.44 17117.2 3765.96 17119.4 3778.48 17121.8 3790.99 17124.2 3803.51 17136.8 3816.02 17133.8 3828.54 17130.8 3841.06 17109.3 3853.57 17103.7 3865.21 17098.5 3879.48 17085.3 3891.12 17100.1 3903.63 17116 3916.15 17189.5 3928.67 17199.2 3941.18 17208.8 3953.7 17170.8 3966.21 17158 3978.73 17145.1 3991.25 17133.2 4003.76 17121.8 4016.28 17110.5 4028.79 17079.3 4041.31 17089.7 4053.82 17100.1 4066.34 17184.7 4078.86 17184.4 4091.37 17184.2 4103.89 17101.6 4116.4 17088.4 4128.92 17075.2 4141.44 17110.5 4153.95 17105.3 4166.47 17100.1 4185.24 17065.1 4191.5 17057" stroke="#FFB226" stroke-width="9.16667" stroke-linecap="round" stroke-linejoin="round" stroke-miterlimit="10" fill="none"/></g><g><path d="M2614.5 17024.4C2627.02 17026.1 2639.53 17015.7 2652.05 17029.5 2664.56 17043.3 2677.08 17103.6 2689.6 17107.1 2702.11 17110.5 2714.63 17051 2727.14 17050.1 2739.66 17049.3 2752.17 17106.4 2764.69 17102 2777.21 17097.5 2789.72 17029 2802.24 17023.2 2814.75 17017.4 2827.27 17049.3 2839.79 17067.2 2852.3 17085.1 2864.82 17127 2877.33 17130.6 2889.85 17134.2 2902.36 17086.7 2914.88 17089.1 2927.4 17091.4 2939.91 17131.2 2952.43 17144.6 2964.94 17158 2977.46 17177.8 2989.98 17169.4 3002.49 17160.9 3015.01 17097.9 3027.52 17093.8 3040.04 17089.7 3052.56 17145 3065.07 17144.8 3077.59 17144.6 3090.1 17103.3 3102.62 17092.6 3115.13 17081.9 3127.65 17078.8 3140.17 17080.3 3152.68 17081.9 3165.2 17090.3 3177.71 17101.8 3190.23 17113.4 3202.75 17148.7 3215.26 17149.6 3227.78 17150.5 3240.29 17123.1 3252.81 17107.3 3265.33 17091.5 3277.84 17058.9 3290.36 17055.1 3302.87 17051.3 3315.39 17078.6 3327.9 17084.4 3340.42 17090.1 3352.94 17082.6 3365.45 17089.4 3377.97 17096.3 3390.48 17123.8 3403 17125.3 3415.52 17126.8 3428.03 17100.5 3440.55 17098.4 3453.06 17096.2 3465.58 17108.4 3478.1 17112.5 3490.61 17116.5 3503.13 17130.9 3515.64 17122.7 3528.16 17114.5 3540.67 17064.2 3553.19 17063.1 3565.71 17062.1 3578.22 17101.9 3590.74 17116.4 3603.25 17130.8 3615.77 17154.5 3628.29 17149.9 3640.8 17145.3 3653.32 17096 3665.83 17088.5 3678.35 17081.1 3690.86 17100.6 3703.38 17105.2 3715.9 17109.8 3728.41 17116.7 3740.93 17115.9 3753.44 17115 3765.96 17101.4 3778.48 17100.1 3790.99 17098.8 3803.51 17110.8 3816.02 17107.8 3828.54 17104.8 3841.06 17083.6 3853.57 17081.9 3866.09 17080.1 3878.6 17087.3 3891.12 17097.4 3903.63 17107.5 3916.15 17138.3 3928.67 17142.5 3941.18 17146.7 3953.7 17130.7 3966.21 17122.6 3978.73 17114.4 3991.25 17113.5 4003.76 17093.7 4016.28 17073.8 4028.79 16985.5 4041.31 17003.5 4053.82 17021.4 4066.34 17184.5 4078.86 17201.5 4091.37 17218.5 4103.89 17124.6 4116.4 17105.5 4127.89 17087.9 4142.46 17095 4153.95 17086.8 4166.47 17077.9 4185.24 17058 4191.5 17052.2" stroke="#000000" stroke-width="9.16667" stroke-linecap="round" stroke-linejoin="round" stroke-miterlimit="10" fill="none"/></g><g><text font-family="Inter,Inter_MSFontService,sans-serif" font-weight="400" font-size="32" transform="matrix(1 0 0 1 2542.69 17469)">80</text></g><g><text font-family="Inter,Inter_MSFontService,sans-serif" font-weight="400" font-size="32" transform="matrix(1 0 0 1 2542.46 17305)">90</text></g><g><text font-family="Inter,Inter_MSFontService,sans-serif" font-weight="400" font-size="32" transform="matrix(1 0 0 1 2527.52 17142)">100</text></g><g><text font-family="Inter,Inter_MSFontService,sans-serif" font-weight="400" font-size="32" transform="matrix(1 0 0 1 2532.67 16978)">110</text></g><g><text font-family="Inter,Inter_MSFontService,sans-serif" font-weight="400" font-size="32" transform="matrix(1 0 0 1 2528.16 16814)">120</text></g><g><text font-family="Inter,Inter_MSFontService,sans-serif" font-weight="400" font-size="32" transform="matrix(0.707107 -0.707107 0.707107 0.707107 2590.39 17535)">1/6</text></g><g><text font-family="Inter,Inter_MSFontService,sans-serif" font-weight="400" font-size="32" transform="matrix(0.707107 -0.707107 0.707107 0.707107 2690.45 17547)">1/27</text></g><g><text font-family="Inter,Inter_MSFontService,sans-serif" font-weight="400" font-size="32" transform="matrix(0.707107 -0.707107 0.707107 0.707107 2803.03 17547)">2/17</text></g><g><text font-family="Inter,Inter_MSFontService,sans-serif" font-weight="400" font-size="32" transform="matrix(0.707107 -0.707107 0.707107 0.707107 2924.23 17539)">3/9</text></g><g><text font-family="Inter,Inter_MSFontService,sans-serif" font-weight="400" font-size="32" transform="matrix(0.707107 -0.707107 0.707107 0.707107 3022.35 17553)">3/30</text></g><g><text font-family="Inter,Inter_MSFontService,sans-serif" font-weight="400" font-size="32" transform="matrix(0.707107 -0.707107 0.707107 0.707107 3135.51 17553)">4/20</text></g><g><text font-family="Inter,Inter_MSFontService,sans-serif" font-weight="400" font-size="32" transform="matrix(0.707107 -0.707107 0.707107 0.707107 3255.71 17545)">5/11</text></g><g><text font-family="Inter,Inter_MSFontService,sans-serif" font-weight="400" font-size="32" transform="matrix(0.707107 -0.707107 0.707107 0.707107 3378.47 17535)">6/1</text></g><g><text font-family="Inter,Inter_MSFontService,sans-serif" font-weight="400" font-size="32" transform="matrix(0.707107 -0.707107 0.707107 0.707107 3474.13 17552)">6/22</text></g><g><text font-family="Inter,Inter_MSFontService,sans-serif" font-weight="400" font-size="32" transform="matrix(0.707107 -0.707107 0.707107 0.707107 3590.39 17548)">7/13</text></g><g><text font-family="Inter,Inter_MSFontService,sans-serif" font-weight="400" font-size="32" transform="matrix(0.707107 -0.707107 0.707107 0.707107 3712.47 17538)">8/3</text></g><g><text font-family="Inter,Inter_MSFontService,sans-serif" font-weight="400" font-size="32" transform="matrix(0.707107 -0.707107 0.707107 0.707107 3811.2 17552)">8/24</text></g><g><text font-family="Inter,Inter_MSFontService,sans-serif" font-weight="400" font-size="32" transform="matrix(0.707107 -0.707107 0.707107 0.707107 3926.81 17549)">9/14</text></g><g><text font-family="Inter,Inter_MSFontService,sans-serif" font-weight="400" font-size="32" transform="matrix(0.707107 -0.707107 0.707107 0.707107 4040.14 17549)">10/5</text></g><g><text font-family="Inter,Inter_MSFontService,sans-serif" font-weight="400" font-size="32" transform="matrix(0.707107 -0.707107 0.707107 0.707107 4138.64 17563)">10/26</text></g><g><text font-family="Inter,Inter_MSFontService,sans-serif" font-weight="400" font-size="32" transform="matrix(0.707107 -0.707107 0.707107 0.707107 4258.06 17556)">11/16</text></g><g><text font-family="Inter,Inter_MSFontService,sans-serif" font-weight="400" font-size="32" transform="matrix(0.707107 -0.707107 0.707107 0.707107 4379.18 17547)">12/7</text></g><g><text font-family="Inter Medium,Inter Medium_MSFontService,sans-serif" font-weight="700" font-size="46" transform="matrix(1 0 0 1 2529.01 16646)">U.S. Hotel Occupancy and ADR Recovery Levels</text></g><g><path d="M2521.5 16741.5 2609.5 16741.5" stroke="#FFB226" stroke-width="9.16667" stroke-linecap="round" stroke-linejoin="round" stroke-miterlimit="10" fill="none" fill-rule="evenodd"/></g><g><text font-family="Inter Medium,Inter Medium_MSFontService,sans-serif" font-weight="500" font-size="37" transform="matrix(1 0 0 1 2618.39 16754)">Occ Index</text></g><g><path d="M2846.5 16741.5 2934.5 16741.5" stroke="#000000" stroke-width="9.16667" stroke-linecap="round" stroke-linejoin="round" stroke-miterlimit="10" fill="none" fill-rule="evenodd"/></g><g><text font-family="Inter Medium,Inter Medium_MSFontService,sans-serif" font-weight="500" font-size="37" transform="matrix(1 0 0 1 2943.74 16754)">ADR Index</text></g><rect x="2445.5" y="16556.5" width="2103" height="1056" stroke="#D9D9D9" stroke-width="3.4375" stroke-linejoin="round" stroke-miterlimit="10" fill="none"/><g><text fill="#7F7F7F" font-family="Inter,Inter_MSFontService,sans-serif" font-weight="400" font-size="32" transform="matrix(1 0 0 1 2526.75 16700)">Indexed to 2023, Source: STR, str.com</text></g></g></svg>