<svg width="2106" height="1059" xmlns="http://www.w3.org/2000/svg" xmlns:xlink="http://www.w3.org/1999/xlink" xml:space="preserve" overflow="hidden"><defs><filter id="fx0" x="-10%" y="-10%" width="120%" height="120%" filterUnits="userSpaceOnUse" primitiveUnits="userSpaceOnUse"><feComponentTransfer color-interpolation-filters="sRGB"><feFuncR type="discrete" tableValues="0 0"/><feFuncG type="discrete" tableValues="0 0"/><feFuncB type="discrete" tableValues="0 0"/><feFuncA type="linear" slope="0.501961" intercept="0"/></feComponentTransfer><feGaussianBlur stdDeviation="4.58333 4.58333"/></filter><filter id="fx1" x="-10%" y="-10%" width="120%" height="120%" filterUnits="userSpaceOnUse" primitiveUnits="userSpaceOnUse"><feComponentTransfer color-interpolation-filters="sRGB"><feFuncR type="discrete" tableValues="0 0"/><feFuncG type="discrete" tableValues="0 0"/><feFuncB type="discrete" tableValues="0 0"/><feFuncA type="linear" slope="0.501961" intercept="0"/></feComponentTransfer><feGaussianBlur stdDeviation="4.58333 4.58333"/></filter><clipPath id="clip2"><rect x="1657" y="20055" width="2106" height="1059"/></clipPath><clipPath id="clip3"><rect x="1825" y="20303" width="1885" height="659"/></clipPath><clipPath id="clip4"><rect x="1825" y="20303" width="1885" height="659"/></clipPath></defs><g clip-path="url(#clip2)" transform="translate(-1657 -20055)"><rect x="1658" y="20056" width="2103" height="1056" fill="#FFFFFF"/><g><rect x="1825" y="20304" width="1882" height="655" fill="#F2F2F2"/></g><g><path d="M1825.5 20522.5 3707.5 20522.5" stroke="#D9D9D9" stroke-width="3.4375" stroke-linejoin="round" stroke-miterlimit="10" fill="none" fill-rule="evenodd"/></g><g clip-path="url(#clip3)"><g filter="url(#fx0)" transform="translate(1815 20411)"><g><path d="M19.9817 107.417C34.1869 120.147 48.392 131.249 62.5972 145.609 76.802 159.969 91.0072 202.103 105.212 193.58 119.417 185.056 133.623 123.464 147.828 94.4669 162.033 65.4697 176.238 13.9824 190.443 19.5973 204.648 25.2121 218.853 110.661 233.059 128.156 242.81 140.166 265.922 105.504 275.674 124.567 289.879 152.334 304.084 292.54 318.289 294.761 332.494 296.983 346.7 175.296 360.905 137.896 375.086 100.559 389.339 65.4245 403.52 70.3606 417.725 75.3047 431.93 158.553 446.136 167.561 460.34 176.569 474.546 131.606 488.751 124.409 502.956 117.212 517.161 119.582 531.366 124.38 545.571 129.179 559.777 143.198 573.982 153.202 588.187 163.205 602.392 181.465 616.597 184.401 630.802 187.337 645.007 187.146 659.213 170.819 673.417 154.492 687.623 95.258 701.828 86.4411 716.033 77.6242 730.238 111.482 744.443 117.918 758.648 124.353 772.854 114.517 787.059 125.055 801.264 135.593 815.469 172.908 829.674 181.144 843.879 189.379 858.084 182.474 872.289 174.469 886.494 166.463 900.7 143.06 914.905 133.109 929.11 123.159 943.315 113.582 957.521 114.765 971.725 115.948 985.931 136.412 1000.14 140.208 1014.34 144.003 1028.55 137.391 1042.75 137.538 1056.96 137.684 1071.16 141.502 1085.37 141.085 1099.57 140.668 1120.88 136.043 1127.98 135.035" stroke="#FFB226" stroke-width="9" stroke-linecap="round" stroke-linejoin="round" stroke-miterlimit="10" fill="none"/></g></g></g><g clip-path="url(#clip4)"><g filter="url(#fx1)" transform="translate(1815 20401)"><g><path d="M19.9817 71.9686C34.1869 74.0182 48.392 67.2247 62.5972 78.118 76.802 89.011 91.0072 136.228 105.212 137.328 119.417 138.427 133.623 96.7475 147.828 84.7152 162.033 72.6825 176.238 65.4212 190.443 65.1323 204.648 64.843 218.853 78.2668 233.059 82.9801 247.264 87.693 261.469 84.5819 275.674 93.4116 289.879 102.241 304.084 147.982 318.289 135.958 332.494 123.932 346.7 32.5402 360.905 21.2615 375.11 9.98242 389.315 51.5061 403.52 68.2837 417.725 85.061 431.93 119.152 446.136 121.927 460.34 124.702 474.546 92.7906 488.751 84.9338 502.956 77.0767 517.161 69.1248 531.366 74.7851 545.571 80.445 559.777 111.586 573.982 118.894 588.187 126.201 602.392 121.049 616.597 118.63 630.802 116.211 645.007 111.71 659.213 104.382 673.417 97.0536 687.623 71.8656 701.828 74.6601 716.033 77.4542 730.238 111.012 744.443 121.147 758.648 131.282 772.854 134.861 787.059 135.473 801.264 136.084 815.469 125.189 829.674 124.815 843.879 124.441 858.084 133.696 872.289 133.229 886.494 132.761 900.7 126.047 914.905 122.008 929.11 117.97 943.315 108.32 957.521 108.997 971.725 109.673 985.931 125.646 1000.14 126.069 1014.34 126.491 1028.55 111.94 1042.75 111.533 1056.96 111.125 1071.16 126.131 1085.37 123.624 1099.57 121.118 1120.88 101.016 1127.98 96.4946" stroke="#000000" stroke-width="9" stroke-linecap="round" stroke-linejoin="round" stroke-miterlimit="10" fill="none"/></g></g></g><g><path d="M1828.5 20511.9C1842.71 20524.7 1856.91 20535.8 1871.12 20550.1 1885.32 20564.5 1899.53 20606.6 1913.73 20598.1 1927.94 20589.6 1942.14 20528 1956.35 20499 1970.55 20470 1984.76 20418.5 1998.96 20424.1 2013.17 20429.7 2027.37 20515.2 2041.58 20532.7 2051.33 20544.7 2074.44 20510 2084.19 20529.1 2098.4 20556.9 2112.6 20697.1 2126.81 20699.3 2141.01 20701.5 2155.22 20579.8 2169.42 20542.4 2183.6 20505.1 2197.86 20469.9 2212.04 20474.9 2226.24 20479.8 2240.45 20563.1 2254.65 20572.1 2268.86 20581.1 2283.06 20536.1 2297.27 20528.9 2311.47 20521.7 2325.68 20524.1 2339.88 20528.9 2354.09 20533.7 2368.29 20547.7 2382.5 20557.7 2396.71 20567.7 2410.91 20586 2425.12 20588.9 2439.32 20591.9 2453.53 20591.7 2467.73 20575.3 2481.94 20559 2496.14 20499.8 2510.35 20491 2524.55 20482.1 2538.76 20516 2552.96 20522.4 2567.17 20528.9 2581.37 20519 2595.58 20529.6 2609.78 20540.1 2623.99 20577.4 2638.19 20585.7 2652.4 20593.9 2666.6 20587 2680.81 20579 2695.01 20571 2709.22 20547.6 2723.42 20537.6 2737.63 20527.7 2751.83 20518.1 2766.04 20519.3 2780.24 20520.5 2794.45 20540.9 2808.65 20544.7 2822.86 20548.5 2837.06 20541.9 2851.27 20542.1 2865.47 20542.2 2879.68 20546 2893.88 20545.6 2908.09 20545.2 2929.4 20540.6 2936.5 20539.6" stroke="#FFB226" stroke-width="9.16667" stroke-linecap="round" stroke-linejoin="round" stroke-miterlimit="10" fill="none"/></g><g><path d="M1828.5 20466.5C1842.71 20468.5 1856.91 20461.7 1871.12 20472.6 1885.32 20483.5 1899.53 20530.7 1913.73 20531.8 1927.94 20532.9 1942.14 20491.3 1956.35 20479.2 1970.55 20467.2 1984.76 20459.9 1998.96 20459.7 2013.17 20459.4 2027.37 20472.8 2041.58 20477.5 2055.78 20482.2 2069.99 20479.1 2084.19 20487.9 2098.4 20496.8 2112.6 20542.5 2126.81 20530.5 2141.01 20518.4 2155.22 20427.1 2169.42 20415.8 2183.63 20404.5 2197.83 20446 2212.04 20462.8 2226.24 20479.6 2240.45 20513.7 2254.65 20516.4 2268.86 20519.2 2283.06 20487.3 2297.27 20479.5 2311.47 20471.6 2325.68 20463.6 2339.88 20469.3 2354.09 20475 2368.29 20506.1 2382.5 20513.4 2396.71 20520.7 2410.91 20515.6 2425.12 20513.1 2439.32 20510.7 2453.53 20506.2 2467.73 20498.9 2481.94 20491.6 2496.14 20466.4 2510.35 20469.2 2524.55 20472 2538.76 20505.5 2552.96 20515.7 2567.17 20525.8 2581.37 20529.4 2595.58 20530 2609.78 20530.6 2623.99 20519.7 2638.19 20519.3 2652.4 20519 2666.6 20528.2 2680.81 20527.7 2695.01 20527.3 2709.22 20520.6 2723.42 20516.5 2737.63 20512.5 2751.83 20502.8 2766.04 20503.5 2780.24 20504.2 2794.45 20520.2 2808.65 20520.6 2822.86 20521 2837.06 20506.5 2851.27 20506.1 2865.47 20505.6 2879.68 20520.6 2893.88 20518.1 2908.09 20515.6 2929.4 20495.5 2936.5 20491" stroke="#000000" stroke-width="9.16667" stroke-linecap="round" stroke-linejoin="round" stroke-miterlimit="10" fill="none"/></g><g><text font-family="Inter,Inter_MSFontService,sans-serif" font-weight="400" font-size="32" transform="matrix(1 0 0 1 1755.7 20969)">80</text></g><g><text font-family="Inter,Inter_MSFontService,sans-serif" font-weight="400" font-size="32" transform="matrix(1 0 0 1 1755.47 20751)">90</text></g><g><text font-family="Inter,Inter_MSFontService,sans-serif" font-weight="400" font-size="32" transform="matrix(1 0 0 1 1740.53 20532)">100</text></g><g><text font-family="Inter,Inter_MSFontService,sans-serif" font-weight="400" font-size="32" transform="matrix(1 0 0 1 1745.68 20314)">110</text></g><g><text font-family="Inter,Inter_MSFontService,sans-serif" font-weight="400" font-size="32" transform="matrix(0.707107 -0.707107 0.707107 0.707107 1803.48 21035)">3/1</text></g><g><text font-family="Inter,Inter_MSFontService,sans-serif" font-weight="400" font-size="32" transform="matrix(0.707107 -0.707107 0.707107 0.707107 1914.44 21052)">3/22</text></g><g><text font-family="Inter,Inter_MSFontService,sans-serif" font-weight="400" font-size="32" transform="matrix(0.707107 -0.707107 0.707107 0.707107 2045.39 21049)">4/12</text></g><g><text font-family="Inter,Inter_MSFontService,sans-serif" font-weight="400" font-size="32" transform="matrix(0.707107 -0.707107 0.707107 0.707107 2183.87 21038)">5/3</text></g><g><text font-family="Inter,Inter_MSFontService,sans-serif" font-weight="400" font-size="32" transform="matrix(0.707107 -0.707107 0.707107 0.707107 2297.9 21052)">5/24</text></g><g><text font-family="Inter,Inter_MSFontService,sans-serif" font-weight="400" font-size="32" transform="matrix(0.707107 -0.707107 0.707107 0.707107 2428.62 21049)">6/14</text></g><g><text font-family="Inter,Inter_MSFontService,sans-serif" font-weight="400" font-size="32" transform="matrix(0.707107 -0.707107 0.707107 0.707107 2569.02 21037)">7/5</text></g><g><text font-family="Inter,Inter_MSFontService,sans-serif" font-weight="400" font-size="32" transform="matrix(0.707107 -0.707107 0.707107 0.707107 2682.82 21051)">7/26</text></g><g><text font-family="Inter,Inter_MSFontService,sans-serif" font-weight="400" font-size="32" transform="matrix(0.707107 -0.707107 0.707107 0.707107 2812.86 21049)">8/16</text></g><g><text font-family="Inter,Inter_MSFontService,sans-serif" font-weight="400" font-size="32" transform="matrix(0.707107 -0.707107 0.707107 0.707107 2951.11 21038)">9/6</text></g><g><text font-family="Inter,Inter_MSFontService,sans-serif" font-weight="400" font-size="32" transform="matrix(0.707107 -0.707107 0.707107 0.707107 3066.47 21051)">9/27</text></g><g><text font-family="Inter,Inter_MSFontService,sans-serif" font-weight="400" font-size="32" transform="matrix(0.707107 -0.707107 0.707107 0.707107 3185.95 21059)">10/18</text></g><g><text font-family="Inter,Inter_MSFontService,sans-serif" font-weight="400" font-size="32" transform="matrix(0.707107 -0.707107 0.707107 0.707107 3328.01 21045)">11/8</text></g><g><text font-family="Inter,Inter_MSFontService,sans-serif" font-weight="400" font-size="32" transform="matrix(0.707107 -0.707107 0.707107 0.707107 3442.01 21059)">11/29</text></g><g><text font-family="Inter,Inter_MSFontService,sans-serif" font-weight="400" font-size="32" transform="matrix(0.707107 -0.707107 0.707107 0.707107 3566.67 21062)">12/20</text></g><g><text font-family="Inter Medium,Inter Medium_MSFontService,sans-serif" font-weight="700" font-size="46" transform="matrix(1 0 0 1 1742.02 20145)">U.S. Hotel Occupancy and ADR Recovery Levels</text></g><g><path d="M1733.5 20240.5 1821.5 20240.5" stroke="#FFB226" stroke-width="9.16667" stroke-linecap="round" stroke-linejoin="round" stroke-miterlimit="10" fill="none" fill-rule="evenodd"/></g><g><text font-family="Inter Medium,Inter Medium_MSFontService,sans-serif" font-weight="500" font-size="37" transform="matrix(1 0 0 1 1830.61 20252)">Occ Index</text></g><g><path d="M2057.5 20240.5 2145.5 20240.5" stroke="#000000" stroke-width="9.16667" stroke-linecap="round" stroke-linejoin="round" stroke-miterlimit="10" fill="none" fill-rule="evenodd"/></g><g><text font-family="Inter Medium,Inter Medium_MSFontService,sans-serif" font-weight="500" font-size="37" transform="matrix(1 0 0 1 2155.16 20252)">ADR Index</text></g><rect x="1658.5" y="20056.5" width="2103" height="1056" stroke="#D9D9D9" stroke-width="3.4375" stroke-linejoin="round" stroke-miterlimit="10" fill="none"/><g><text fill="#7F7F7F" font-family="Inter,Inter_MSFontService,sans-serif" font-weight="400" font-size="32" transform="matrix(1 0 0 1 1739.76 20199)">YOY, Source: STR, str.com</text></g></g></svg>