<svg width="2103" height="1058" xmlns="http://www.w3.org/2000/svg" xmlns:xlink="http://www.w3.org/1999/xlink" xml:space="preserve" overflow="hidden"><defs><filter id="fx0" x="-10%" y="-10%" width="120%" height="120%" filterUnits="userSpaceOnUse" primitiveUnits="userSpaceOnUse"><feComponentTransfer color-interpolation-filters="sRGB"><feFuncR type="discrete" tableValues="0 0"/><feFuncG type="discrete" tableValues="0 0"/><feFuncB type="discrete" tableValues="0 0"/><feFuncA type="linear" slope="0.501961" intercept="0"/></feComponentTransfer><feGaussianBlur stdDeviation="4.58333 4.58333"/></filter><filter id="fx1" x="-10%" y="-10%" width="120%" height="120%" filterUnits="userSpaceOnUse" primitiveUnits="userSpaceOnUse"><feComponentTransfer color-interpolation-filters="sRGB"><feFuncR type="discrete" tableValues="0 0"/><feFuncG type="discrete" tableValues="0 0"/><feFuncB type="discrete" tableValues="0 0"/><feFuncA type="linear" slope="0.501961" intercept="0"/></feComponentTransfer><feGaussianBlur stdDeviation="4.58333 4.58333"/></filter><clipPath id="clip2"><rect x="1655" y="20031" width="2103" height="1058"/></clipPath><clipPath id="clip3"><rect x="1822" y="20279" width="1883" height="658"/></clipPath><clipPath id="clip4"><rect x="1822" y="20279" width="1883" height="658"/></clipPath></defs><g clip-path="url(#clip2)" transform="translate(-1655 -20031)"><rect x="1656" y="20032" width="2100" height="1055" fill="#FFFFFF"/><g><path d="M1991.5 20279.5 2046.57 20279.5 2101.57 20279.5 2156.57 20279.5 2211.57 20279.5 2266.57 20279.5 2321.58 20279.5 2376.58 20279.5 2432.58 20279.5 2487.58 20279.5 2542.58 20279.5 2597.59 20279.5 2652.59 20279.5 2707.59 20279.5 2762.59 20279.5 2817.59 20279.5 2872.59 20279.5 2927.6 20279.5 2982.6 20279.5 3037.6 20279.5 3092.6 20279.5 3147.6 20279.5 3202.61 20279.5 3257.61 20279.5 3312.61 20279.5 3367.61 20279.5 3422.61 20279.5 3477.61 20279.5 3532.62 20279.5 3587.62 20279.5 3642.62 20279.5 3697.5 20279.5 3697.5 20934.5 3642.62 20934.5 3587.62 20934.5 3532.62 20934.5 3477.61 20934.5 3422.61 20934.5 3367.61 20934.5 3312.61 20934.5 3257.61 20934.5 3202.61 20934.5 3147.6 20934.5 3092.6 20934.5 3037.6 20934.5 2982.6 20934.5 2927.6 20934.5 2872.59 20934.5 2817.59 20934.5 2762.59 20934.5 2707.59 20934.5 2652.59 20934.5 2597.59 20934.5 2542.58 20934.5 2487.58 20934.5 2432.58 20934.5 2376.58 20934.5 2321.58 20934.5 2266.57 20934.5 2211.57 20934.5 2156.57 20934.5 2101.57 20934.5 2046.57 20934.5 1991.5 20934.5Z" stroke="#BFBFBF" stroke-width="3.4375" stroke-linejoin="round" stroke-miterlimit="10" stroke-opacity="0.501961" fill="#D9D9D9" fill-opacity="0.501961"/></g><g><path d="M1822.5 20606.5 3701.5 20606.5" stroke="#D9D9D9" stroke-width="3.4375" stroke-linejoin="round" stroke-miterlimit="10" fill="none" fill-rule="evenodd"/></g><g clip-path="url(#clip3)"><g filter="url(#fx0)" transform="translate(1813 20398)"><g><path d="M19.9817 206.898C38.3301 161.89 56.6782 101.498 75.027 71.8745 90.5124 46.8734 114.587-2.01758 130.073 29.1589 148.421 66.0992 166.769 271.23 185.118 293.517 203.466 315.804 221.815 154.979 240.164 162.881 258.512 170.783 276.86 350.982 295.209 340.93 313.557 330.878 331.906 114.309 350.255 102.568 368.603 90.8272 386.951 258.119 405.3 270.486 423.648 282.853 441.997 184.522 460.345 176.77 478.694 169.017 497.042 221.237 515.391 223.97 533.739 226.703 552.088 187.156 570.436 193.169 588.785 199.182 607.133 257.675 625.482 260.048 643.83 262.421 662.179 211.425 680.527 207.406 698.876 203.386 717.224 225.205 735.573 235.93 753.921 246.655 772.269 278.124 790.618 271.758 808.967 265.392 827.315 219.391 845.664 197.734 864.012 176.077 882.36 137.622 900.709 141.816 919.058 146.01 937.406 209.829 955.755 222.895 973.995 235.884 992.559 199.598 1010.8 220.214 1029.15 240.953 1047.5 345.668 1065.85 347.327 1084.19 348.986 1102.54 258.102 1120.89 230.17 1139.24 202.236 1157.59 176.037 1175.94 179.73 1194.28 183.422 1221.81 240.226 1230.98 252.326" stroke="#FFB226" stroke-width="9" stroke-linecap="round" stroke-linejoin="round" stroke-miterlimit="10" fill="none"/></g></g></g><g clip-path="url(#clip4)"><g filter="url(#fx1)" transform="translate(1813 20414)"><g><path d="M19.9817 131.391C38.3301 106.064 56.6782 51.9088 75.027 55.4101 93.3754 58.9114 111.724 123.983 130.073 152.398 148.421 180.813 166.769 247.966 185.118 225.899 203.466 203.831 221.815 6.98242 240.164 19.9923 258.512 33.0019 276.86 299.933 295.209 303.958 313.557 307.982 331.906 69.6086 350.255 44.1397 368.603 18.6703 386.951 129.373 405.3 151.142 423.648 172.911 441.997 158.312 460.345 174.752 478.694 191.192 497.042 249.907 515.391 249.786 533.739 249.664 552.088 188.073 570.436 174.023 588.785 159.972 607.133 168.165 625.482 165.482 643.83 162.799 662.179 158.416 680.527 157.925 698.876 157.434 717.224 154.369 735.573 162.536 753.921 170.703 772.269 206.103 790.618 206.928 808.967 207.752 827.315 176.503 845.664 167.482 864.012 158.46 882.36 153.016 900.709 152.8 919.058 152.583 937.406 162.647 955.755 166.181 974.103 169.714 992.451 167.382 1010.8 174.002 1029.15 180.622 1047.5 214.916 1065.85 205.901 1084.19 196.885 1102.54 128.364 1120.89 119.908 1139.24 111.451 1157.59 142.583 1175.94 155.163 1194.28 167.741 1221.81 188.678 1230.98 195.381" stroke="#000000" stroke-width="9" stroke-linecap="round" stroke-linejoin="round" stroke-miterlimit="10" fill="none"/></g></g></g><g><path d="M1826.5 20598.4C1844.85 20553.4 1863.2 20493 1881.55 20463.4 1897.03 20438.4 1921.11 20389.5 1936.59 20420.7 1954.94 20457.6 1973.29 20662.7 1991.64 20685 2009.98 20707.3 2028.33 20546.5 2046.68 20554.4 2065.03 20562.3 2083.38 20742.5 2101.73 20732.4 2120.08 20722.4 2138.42 20505.8 2156.77 20494.1 2175.12 20482.3 2193.47 20649.6 2211.82 20662 2230.17 20674.4 2248.51 20576 2266.86 20568.3 2285.21 20560.5 2303.56 20612.8 2321.91 20615.5 2340.26 20618.2 2358.61 20578.7 2376.95 20584.7 2395.3 20590.7 2413.65 20649.2 2432 20651.6 2450.35 20653.9 2468.7 20602.9 2487.05 20598.9 2505.39 20594.9 2523.74 20616.7 2542.09 20627.4 2560.44 20638.2 2578.79 20669.6 2597.14 20663.3 2615.48 20656.9 2633.83 20610.9 2652.18 20589.3 2670.53 20567.6 2688.88 20529.1 2707.23 20533.3 2725.58 20537.5 2743.92 20601.3 2762.27 20614.4 2780.51 20627.4 2799.08 20591.1 2817.32 20611.7 2835.67 20632.5 2854.01 20737.2 2872.36 20738.8 2890.71 20740.5 2909.06 20649.6 2927.41 20621.7 2945.76 20593.8 2964.11 20567.6 2982.45 20571.2 3000.8 20574.9 3028.33 20631.7 3037.5 20643.8" stroke="#FFB226" stroke-width="9.16667" stroke-linecap="round" stroke-linejoin="round" stroke-miterlimit="10" fill="none"/></g><g><path d="M1826.5 20538.9C1844.85 20513.6 1863.2 20459.4 1881.55 20462.9 1899.89 20466.4 1918.24 20531.5 1936.59 20559.9 1954.94 20588.3 1973.29 20655.5 1991.64 20633.4 2009.98 20611.3 2028.33 20414.5 2046.68 20427.5 2065.03 20440.5 2083.38 20707.5 2101.73 20711.5 2120.08 20715.5 2138.42 20477.1 2156.77 20451.7 2175.12 20426.2 2193.47 20536.9 2211.82 20558.7 2230.17 20580.4 2248.51 20565.8 2266.86 20582.3 2285.21 20598.7 2303.56 20657.4 2321.91 20657.3 2340.26 20657.2 2358.61 20595.6 2376.95 20581.5 2395.3 20567.5 2413.65 20575.7 2432 20573 2450.35 20570.3 2468.7 20565.9 2487.05 20565.4 2505.39 20565 2523.74 20561.9 2542.09 20570.1 2560.44 20578.2 2578.79 20613.6 2597.14 20614.4 2615.48 20615.3 2633.83 20584 2652.18 20575 2670.53 20566 2688.88 20560.5 2707.23 20560.3 2725.58 20560.1 2743.92 20570.2 2762.27 20573.7 2780.62 20577.2 2798.97 20574.9 2817.32 20581.5 2835.67 20588.1 2854.01 20622.4 2872.36 20613.4 2890.71 20604.4 2909.06 20535.9 2927.41 20527.4 2945.76 20519 2964.11 20550.1 2982.45 20562.7 3000.8 20575.3 3028.33 20596.2 3037.5 20602.9" stroke="#000000" stroke-width="9.16667" stroke-linecap="round" stroke-linejoin="round" stroke-miterlimit="10" fill="none"/></g><g><text font-family="Inter,Inter_MSFontService,sans-serif" font-weight="400" font-size="32" transform="matrix(1 0 0 1 1753.23 20944)">80</text></g><g><text font-family="Inter,Inter_MSFontService,sans-serif" font-weight="400" font-size="32" transform="matrix(1 0 0 1 1753 20781)">90</text></g><g><text font-family="Inter,Inter_MSFontService,sans-serif" font-weight="400" font-size="32" transform="matrix(1 0 0 1 1738.06 20617)">100</text></g><g><text font-family="Inter,Inter_MSFontService,sans-serif" font-weight="400" font-size="32" transform="matrix(1 0 0 1 1743.22 20453)">110</text></g><g><text font-family="Inter,Inter_MSFontService,sans-serif" font-weight="400" font-size="32" transform="matrix(1 0 0 1 1738.7 20290)">120</text></g><g><text font-family="Inter,Inter_MSFontService,sans-serif" font-weight="400" font-size="32" transform="matrix(0.707107 -0.707107 0.707107 0.707107 1789.66 21022)">12/7</text></g><g><text font-family="Inter,Inter_MSFontService,sans-serif" font-weight="400" font-size="32" transform="matrix(0.707107 -0.707107 0.707107 0.707107 1939.99 21037)">12/28</text></g><g><text font-family="Inter,Inter_MSFontService,sans-serif" font-weight="400" font-size="32" transform="matrix(0.707107 -0.707107 0.707107 0.707107 2122 21020)">1/18</text></g><g><text font-family="Inter,Inter_MSFontService,sans-serif" font-weight="400" font-size="32" transform="matrix(0.707107 -0.707107 0.707107 0.707107 2294.43 21013)">2/8</text></g><g><text font-family="Inter,Inter_MSFontService,sans-serif" font-weight="400" font-size="32" transform="matrix(0.707107 -0.707107 0.707107 0.707107 2462.26 21010)">3/1</text></g><g><text font-family="Inter,Inter_MSFontService,sans-serif" font-weight="400" font-size="32" transform="matrix(0.707107 -0.707107 0.707107 0.707107 2610.44 21027)">3/22</text></g><g><text font-family="Inter,Inter_MSFontService,sans-serif" font-weight="400" font-size="32" transform="matrix(0.707107 -0.707107 0.707107 0.707107 2778.59 21024)">4/12</text></g><g><text font-family="Inter,Inter_MSFontService,sans-serif" font-weight="400" font-size="32" transform="matrix(0.707107 -0.707107 0.707107 0.707107 2954.28 21013)">5/3</text></g><g><text font-family="Inter,Inter_MSFontService,sans-serif" font-weight="400" font-size="32" transform="matrix(0.707107 -0.707107 0.707107 0.707107 3105.52 21027)">5/24</text></g><g><text font-family="Inter,Inter_MSFontService,sans-serif" font-weight="400" font-size="32" transform="matrix(0.707107 -0.707107 0.707107 0.707107 3273.45 21024)">6/14</text></g><g><text font-family="Inter,Inter_MSFontService,sans-serif" font-weight="400" font-size="32" transform="matrix(0.707107 -0.707107 0.707107 0.707107 3451.05 21012)">7/5</text></g><g><text font-family="Inter,Inter_MSFontService,sans-serif" font-weight="400" font-size="32" transform="matrix(0.707107 -0.707107 0.707107 0.707107 3602.06 21026)">7/26</text></g><g><text font-family="Inter Medium,Inter Medium_MSFontService,sans-serif" font-weight="700" font-size="46" transform="matrix(1 0 0 1 1739.7 20121)">U.S. Hotel Occupancy and ADR Recovery Levels</text></g><g><path d="M1730.5 20215.5 1818.5 20215.5" stroke="#FFB226" stroke-width="9.16667" stroke-linecap="round" stroke-linejoin="round" stroke-miterlimit="10" fill="none" fill-rule="evenodd"/></g><g><text font-family="Inter Medium,Inter Medium_MSFontService,sans-serif" font-weight="500" font-size="37" transform="matrix(1 0 0 1 1828.02 20228)">Occ Index</text></g><g><path d="M2054.5 20215.5 2142.5 20215.5" stroke="#000000" stroke-width="9.16667" stroke-linecap="round" stroke-linejoin="round" stroke-miterlimit="10" fill="none" fill-rule="evenodd"/></g><g><text font-family="Inter Medium,Inter Medium_MSFontService,sans-serif" font-weight="500" font-size="37" transform="matrix(1 0 0 1 2152.23 20228)">ADR Index</text></g><rect x="1656.5" y="20032.5" width="2100" height="1055" stroke="#D9D9D9" stroke-width="3.4375" stroke-linejoin="round" stroke-miterlimit="10" fill="none"/><g><text fill="#7F7F7F" font-family="Inter,Inter_MSFontService,sans-serif" font-weight="400" font-size="32" transform="matrix(1 0 0 1 1737.48 20176)">YOY, Source: STR, str.com</text></g><g><g><text font-family="Inter Medium,Inter Medium_MSFontService,sans-serif" font-weight="700" font-size="37" transform="matrix(1 0 0 1 2050.78 21060)">2025</text></g></g></g></svg>