<svg width="2106" height="1065" xmlns="http://www.w3.org/2000/svg" xmlns:xlink="http://www.w3.org/1999/xlink" xml:space="preserve" overflow="hidden"><defs><filter id="fx0" x="-10%" y="-10%" width="120%" height="120%" filterUnits="userSpaceOnUse" primitiveUnits="userSpaceOnUse"><feComponentTransfer color-interpolation-filters="sRGB"><feFuncR type="discrete" tableValues="0 0"/><feFuncG type="discrete" tableValues="0 0"/><feFuncB type="discrete" tableValues="0 0"/><feFuncA type="linear" slope="0.501961" intercept="0"/></feComponentTransfer><feGaussianBlur stdDeviation="4.58333 4.58333"/></filter><filter id="fx1" x="-10%" y="-10%" width="120%" height="120%" filterUnits="userSpaceOnUse" primitiveUnits="userSpaceOnUse"><feComponentTransfer color-interpolation-filters="sRGB"><feFuncR type="discrete" tableValues="0 0"/><feFuncG type="discrete" tableValues="0 0"/><feFuncB type="discrete" tableValues="0 0"/><feFuncA type="linear" slope="0.501961" intercept="0"/></feComponentTransfer><feGaussianBlur stdDeviation="4.58333 4.58333"/></filter><clipPath id="clip2"><rect x="1657" y="20153" width="2106" height="1065"/></clipPath><clipPath id="clip3"><rect x="1825" y="20403" width="1885" height="662"/></clipPath><clipPath id="clip4"><rect x="1825" y="20403" width="1885" height="662"/></clipPath></defs><g clip-path="url(#clip2)" transform="translate(-1657 -20153)"><rect x="1658" y="20154" width="2103" height="1062" fill="#FFFFFF"/><g><path d="M2910.5 20403.5 2946.6 20403.5 2982.6 20403.5 3018.6 20403.5 3054.6 20403.5 3090.6 20403.5 3126.6 20403.5 3163.6 20403.5 3199.6 20403.5 3235.61 20403.5 3271.61 20403.5 3307.61 20403.5 3343.61 20403.5 3379.61 20403.5 3415.61 20403.5 3451.61 20403.5 3487.61 20403.5 3523.62 20403.5 3559.62 20403.5 3596.62 20403.5 3632.62 20403.5 3668.62 20403.5 3704.5 20403.5 3704.5 21062.5 3668.62 21062.5 3632.62 21062.5 3596.62 21062.5 3559.62 21062.5 3523.62 21062.5 3487.61 21062.5 3451.61 21062.5 3415.61 21062.5 3379.61 21062.5 3343.61 21062.5 3307.61 21062.5 3271.61 21062.5 3235.61 21062.5 3199.6 21062.5 3163.6 21062.5 3126.6 21062.5 3090.6 21062.5 3054.6 21062.5 3018.6 21062.5 2982.6 21062.5 2946.6 21062.5 2910.5 21062.5Z" stroke="#BFBFBF" stroke-width="3.4375" stroke-linejoin="round" stroke-miterlimit="10" stroke-opacity="0.501961" fill="#D9D9D9" fill-opacity="0.501961"/></g><g><path d="M1825.5 20798.5 3707.5 20798.5" stroke="#D9D9D9" stroke-width="3.4375" stroke-linejoin="round" stroke-miterlimit="10" fill="none" fill-rule="evenodd"/></g><g clip-path="url(#clip3)"><g filter="url(#fx0)" transform="translate(1814 20509)"><g><path d="M19.9817 287.545C32.015 292.299 44.0483 298.828 56.0816 301.807 68.1149 304.786 80.1478 300.521 92.1815 305.419 104.215 310.317 116.248 339.035 128.282 331.195 140.315 323.355 152.348 262.449 164.382 258.38 176.415 254.309 188.448 291.941 200.482 306.775 212.515 321.609 224.548 350.972 236.581 347.385 248.615 343.798 260.648 293.192 272.682 285.255 284.715 277.317 296.748 299.545 308.782 299.76 320.815 299.973 332.848 288.434 344.881 286.538 356.915 284.642 368.948 286.462 380.982 288.385 393.015 290.308 405.048 300.507 417.082 298.075 429.115 295.643 441.148 278.327 453.181 273.793 465.215 269.258 477.248 258.041 489.282 270.871 501.315 283.701 513.348 342.997 525.382 350.774 537.415 358.551 549.448 327.926 561.482 317.531 573.515 307.137 585.548 297.579 597.581 288.407 609.615 279.236 621.648 254.086 633.682 262.5 645.715 270.914 657.748 339.066 669.782 338.893 681.815 338.719 693.848 272.093 705.881 261.459 717.915 250.824 729.948 279.301 741.982 275.086 754.015 270.872 766.048 236.718 778.082 236.172 790.115 235.626 802.148 254.361 814.182 271.812 826.215 289.262 838.248 339.994 850.282 340.874 858.355 341.464 878.308 312.84 886.382 277.089 898.415 223.807 910.448 0.982422 922.482 21.1816 934.515 41.3809 946.548 353.587 958.582 398.285 970.615 442.982 982.648 325.682 994.682 289.368 1006.71 253.054 1018.75 204.307 1030.78 180.4 1040.13 161.836 1057.54 122.778 1066.88 145.928 1078.91 175.74 1090.95 341.286 1102.98 359.272 1115.02 377.258 1127.05 247.468 1139.08 253.845 1151.11 260.222 1163.15 405.648 1175.18 397.536 1187.21 389.423 1199.25 214.646 1211.28 205.171 1223.32 195.696 1235.35 330.705 1247.38 340.685 1259.42 350.666 1271.45 271.31 1283.48 265.054 1295.51 258.797 1307.55 300.94 1319.58 303.146 1331.62 305.351 1343.65 273.436 1355.68 278.289 1367.71 283.141 1379.75 330.347 1391.78 332.262 1403.81 334.176 1415.85 293.022 1427.88 289.778 1439.91 286.534 1457.96 308.961 1463.98 312.798" stroke="#FFB226" stroke-width="9" stroke-linecap="round" stroke-linejoin="round" stroke-miterlimit="10" fill="none"/></g></g></g><g clip-path="url(#clip4)"><g filter="url(#fx1)" transform="translate(1814 20640)"><g><path d="M19.9817 159.779C32.015 152.58 44.0483 139.901 56.0816 138.184 68.1149 136.467 80.1478 146.231 92.1815 149.478 104.215 152.725 116.248 164.255 128.282 157.665 140.315 151.074 152.348 110.775 164.382 109.935 176.415 109.094 188.448 141.032 200.482 152.623 212.515 164.214 224.548 183.199 236.581 179.48 248.615 175.76 260.648 136.273 272.682 130.303 284.715 124.333 296.748 140.008 308.782 143.661 320.815 147.313 332.848 152.901 344.881 152.22 356.915 151.538 368.948 140.65 380.982 139.572 393.015 138.493 405.048 148.184 417.082 145.749 429.115 143.313 441.148 126.343 453.181 124.958 465.215 123.572 477.248 129.331 489.282 137.434 501.315 145.537 513.348 170.214 525.382 173.574 537.415 176.935 549.448 164.123 561.482 157.598 573.515 151.073 585.548 150.336 597.581 134.426 609.615 118.515 621.648 47.7352 633.682 62.1364 645.715 76.5372 657.748 207.205 669.782 220.831 681.815 234.457 693.848 159.211 705.881 143.894 717.915 128.576 729.948 136.037 741.982 128.925 754.015 121.813 766.048 98.2133 778.082 101.222 790.115 104.229 802.148 136.494 814.182 146.973 826.215 157.452 838.248 158.988 850.282 164.096 860.509 168.437 876.154 193.926 886.382 177.622 898.415 158.438 910.448 45.3755 922.482 48.9919 934.515 52.608 946.548 189.151 958.582 199.32 970.615 209.488 982.648 135.072 994.682 110.005 1006.71 84.9381 1018.75 46.1029 1030.78 48.9181 1042.81 51.733 1054.85 104.05 1066.88 126.895 1078.91 149.74 1090.95 203.731 1102.98 185.989 1115.02 168.246 1127.05 9.98242 1139.08 20.4424 1151.11 30.902 1163.15 245.511 1175.18 248.747 1187.21 251.982 1199.25 60.3334 1211.28 39.8568 1223.32 19.3797 1235.35 108.384 1247.38 125.886 1258.92 142.67 1271.94 132.191 1283.48 144.868 1295.51 158.085 1307.55 205.291 1319.58 205.193 1331.62 205.095 1343.65 155.578 1355.68 144.281 1367.71 132.985 1379.75 139.571 1391.78 137.414 1403.81 135.257 1415.85 131.733 1427.88 131.339 1439.91 130.944 1457.96 134.427 1463.98 135.045" stroke="#000000" stroke-width="9" stroke-linecap="round" stroke-linejoin="round" stroke-miterlimit="10" fill="none"/></g></g></g><g><path d="M1827.5 20790.1C1839.53 20794.8 1851.57 20801.3 1863.6 20804.3 1875.63 20807.3 1887.67 20803 1899.7 20807.9 1911.73 20812.8 1923.77 20841.6 1935.8 20833.7 1947.83 20825.9 1959.87 20765 1971.9 20760.9 1983.93 20756.8 1995.97 20794.5 2008 20809.3 2020.03 20824.1 2032.07 20853.5 2044.1 20849.9 2056.13 20846.3 2068.17 20795.7 2080.2 20787.8 2092.23 20779.8 2104.27 20802.1 2116.3 20802.3 2128.33 20802.5 2140.37 20791 2152.4 20789.1 2164.43 20787.2 2176.47 20789 2188.5 20790.9 2200.53 20792.8 2212.57 20803 2224.6 20800.6 2236.63 20798.2 2248.67 20780.8 2260.7 20776.3 2272.73 20771.8 2284.77 20760.6 2296.8 20773.4 2308.83 20786.2 2320.87 20845.5 2332.9 20853.3 2344.93 20861.1 2356.97 20830.4 2369 20820 2381.03 20809.7 2393.07 20800.1 2405.1 20790.9 2417.13 20781.8 2429.17 20756.6 2441.2 20765 2453.23 20773.4 2465.27 20841.6 2477.3 20841.4 2489.33 20841.2 2501.37 20774.6 2513.4 20764 2525.43 20753.3 2537.47 20781.8 2549.5 20777.6 2561.53 20773.4 2573.57 20739.2 2585.6 20738.7 2597.63 20738.1 2609.67 20756.9 2621.7 20774.3 2633.73 20791.8 2645.77 20842.5 2657.8 20843.4 2665.87 20844 2685.83 20815.4 2693.9 20779.6 2705.93 20726.3 2717.97 20503.5 2730 20523.7 2742.03 20543.9 2754.07 20856.1 2766.1 20900.8 2778.13 20945.5 2790.17 20828.2 2802.2 20791.9 2814.23 20755.6 2826.27 20706.8 2838.3 20682.9 2847.64 20664.4 2865.06 20625.3 2874.4 20648.4 2886.43 20678.3 2898.47 20843.8 2910.5 20861.8 2922.53 20879.8 2934.57 20750 2946.6 20756.4 2958.63 20762.7 2970.67 20908.2 2982.7 20900.1 2994.73 20891.9 3006.77 20717.2 3018.8 20707.7 3030.83 20698.2 3042.87 20833.2 3054.9 20843.2 3066.93 20853.2 3078.97 20773.8 3091 20767.6 3103.03 20761.3 3115.07 20803.5 3127.1 20805.7 3139.13 20807.9 3151.17 20776 3163.2 20780.8 3175.23 20785.7 3187.27 20832.9 3199.3 20834.8 3211.33 20836.7 3223.37 20795.5 3235.4 20792.3 3247.43 20789.1 3265.48 20811.5 3271.5 20815.3" stroke="#FFB226" stroke-width="9.16667" stroke-linecap="round" stroke-linejoin="round" stroke-miterlimit="10" fill="none"/></g><g><path d="M1827.5 20793.3C1839.53 20786.1 1851.57 20773.4 1863.6 20771.7 1875.63 20770 1887.67 20779.7 1899.7 20783 1911.73 20786.2 1923.77 20797.8 1935.8 20791.2 1947.83 20784.6 1959.87 20744.3 1971.9 20743.5 1983.93 20742.6 1995.97 20774.5 2008 20786.1 2020.03 20797.7 2032.07 20816.7 2044.1 20813 2056.13 20809.3 2068.17 20769.8 2080.2 20763.8 2092.23 20757.8 2104.27 20773.5 2116.3 20777.2 2128.33 20780.8 2140.37 20786.4 2152.4 20785.7 2164.43 20785.1 2176.47 20774.2 2188.5 20773.1 2200.53 20772 2212.57 20781.7 2224.6 20779.3 2236.63 20776.8 2248.67 20759.9 2260.7 20758.5 2272.73 20757.1 2284.77 20762.8 2296.8 20771 2308.83 20779.1 2320.87 20803.7 2332.9 20807.1 2344.93 20810.5 2356.97 20797.6 2369 20791.1 2381.03 20784.6 2393.07 20783.9 2405.1 20767.9 2417.13 20752 2429.17 20681.3 2441.2 20695.7 2453.23 20710.1 2465.27 20840.7 2477.3 20854.3 2489.33 20868 2501.37 20792.7 2513.4 20777.4 2525.43 20762.1 2537.47 20769.6 2549.5 20762.4 2561.53 20755.3 2573.57 20731.7 2585.6 20734.7 2597.63 20737.7 2609.67 20770 2621.7 20780.5 2633.73 20791 2645.77 20792.5 2657.8 20797.6 2668.03 20802 2683.67 20827.4 2693.9 20811.1 2705.93 20792 2717.97 20678.9 2730 20682.5 2742.03 20686.1 2754.07 20822.7 2766.1 20832.8 2778.13 20843 2790.17 20768.6 2802.2 20743.5 2814.23 20718.5 2826.27 20679.6 2838.3 20682.4 2850.33 20685.2 2862.37 20737.6 2874.4 20760.4 2886.43 20783.3 2898.47 20837.2 2910.5 20819.5 2922.53 20801.8 2934.57 20643.5 2946.6 20654 2958.63 20664.4 2970.67 20879 2982.7 20882.3 2994.73 20885.5 3006.77 20693.9 3018.8 20673.4 3030.83 20652.9 3042.87 20741.9 3054.9 20759.4 3066.44 20776.2 3079.46 20765.7 3091 20778.4 3103.03 20791.6 3115.07 20838.8 3127.1 20838.7 3139.13 20838.6 3151.17 20789.1 3163.2 20777.8 3175.23 20766.5 3187.27 20773.1 3199.3 20770.9 3211.33 20768.8 3223.37 20765.2 3235.4 20764.9 3247.43 20764.5 3265.48 20767.9 3271.5 20768.6" stroke="#000000" stroke-width="9.16667" stroke-linecap="round" stroke-linejoin="round" stroke-miterlimit="10" fill="none"/></g><g><text font-family="Inter,Inter_MSFontService,sans-serif" font-weight="400" font-size="32" transform="matrix(1 0 0 1 1755.7 21072)">80</text></g><g><text font-family="Inter,Inter_MSFontService,sans-serif" font-weight="400" font-size="32" transform="matrix(1 0 0 1 1755.47 20940)">90</text></g><g><text font-family="Inter,Inter_MSFontService,sans-serif" font-weight="400" font-size="32" transform="matrix(1 0 0 1 1740.53 20809)">100</text></g><g><text font-family="Inter,Inter_MSFontService,sans-serif" font-weight="400" font-size="32" transform="matrix(1 0 0 1 1745.68 20677)">110</text></g><g><text font-family="Inter,Inter_MSFontService,sans-serif" font-weight="400" font-size="32" transform="matrix(1 0 0 1 1741.17 20545)">120</text></g><g><text font-family="Inter,Inter_MSFontService,sans-serif" font-weight="400" font-size="32" transform="matrix(1 0 0 1 1740.16 20413)">130</text></g><g><text font-family="Inter,Inter_MSFontService,sans-serif" font-weight="400" font-size="32" transform="matrix(0.707107 -0.707107 0.707107 0.707107 1803.3 21138)">6/1</text></g><g><text font-family="Inter,Inter_MSFontService,sans-serif" font-weight="400" font-size="32" transform="matrix(0.707107 -0.707107 0.707107 0.707107 1894.65 21154)">6/22</text></g><g><text font-family="Inter,Inter_MSFontService,sans-serif" font-weight="400" font-size="32" transform="matrix(0.707107 -0.707107 0.707107 0.707107 2006.59 21151)">7/13</text></g><g><text font-family="Inter,Inter_MSFontService,sans-serif" font-weight="400" font-size="32" transform="matrix(0.707107 -0.707107 0.707107 0.707107 2124.35 21141)">8/3</text></g><g><text font-family="Inter,Inter_MSFontService,sans-serif" font-weight="400" font-size="32" transform="matrix(0.707107 -0.707107 0.707107 0.707107 2218.76 21155)">8/24</text></g><g><text font-family="Inter,Inter_MSFontService,sans-serif" font-weight="400" font-size="32" transform="matrix(0.707107 -0.707107 0.707107 0.707107 2330.05 21152)">9/14</text></g><g><text font-family="Inter,Inter_MSFontService,sans-serif" font-weight="400" font-size="32" transform="matrix(0.707107 -0.707107 0.707107 0.707107 2439.06 21151)">10/5</text></g><g><text font-family="Inter,Inter_MSFontService,sans-serif" font-weight="400" font-size="32" transform="matrix(0.707107 -0.707107 0.707107 0.707107 2533.24 21165)">10/26</text></g><g><text font-family="Inter,Inter_MSFontService,sans-serif" font-weight="400" font-size="32" transform="matrix(0.707107 -0.707107 0.707107 0.707107 2648.35 21159)">11/16</text></g><g><text font-family="Inter,Inter_MSFontService,sans-serif" font-weight="400" font-size="32" transform="matrix(0.707107 -0.707107 0.707107 0.707107 2765.15 21150)">12/7</text></g><g><text font-family="Inter,Inter_MSFontService,sans-serif" font-weight="400" font-size="32" transform="matrix(0.707107 -0.707107 0.707107 0.707107 2858.65 21165)">12/28</text></g><g><text font-family="Inter,Inter_MSFontService,sans-serif" font-weight="400" font-size="32" transform="matrix(0.707107 -0.707107 0.707107 0.707107 2983.83 21148)">1/18</text></g><g><text font-family="Inter,Inter_MSFontService,sans-serif" font-weight="400" font-size="32" transform="matrix(0.707107 -0.707107 0.707107 0.707107 3099.44 21141)">2/8</text></g><g><text font-family="Inter,Inter_MSFontService,sans-serif" font-weight="400" font-size="32" transform="matrix(0.707107 -0.707107 0.707107 0.707107 3210.44 21138)">3/1</text></g><g><text font-family="Inter,Inter_MSFontService,sans-serif" font-weight="400" font-size="32" transform="matrix(0.707107 -0.707107 0.707107 0.707107 3301.78 21155)">3/22</text></g><g><text font-family="Inter,Inter_MSFontService,sans-serif" font-weight="400" font-size="32" transform="matrix(0.707107 -0.707107 0.707107 0.707107 3413.11 21152)">4/12</text></g><g><text font-family="Inter,Inter_MSFontService,sans-serif" font-weight="400" font-size="32" transform="matrix(0.707107 -0.707107 0.707107 0.707107 3531.97 21141)">5/3</text></g><g><text font-family="Inter,Inter_MSFontService,sans-serif" font-weight="400" font-size="32" transform="matrix(0.707107 -0.707107 0.707107 0.707107 3626.38 21155)">5/24</text></g><g><text font-family="Inter Medium,Inter Medium_MSFontService,sans-serif" font-weight="700" font-size="46" transform="matrix(1 0 0 1 1742.02 20244)">U.S. Hotel Occupancy and ADR Recovery Levels</text></g><g><path d="M1733.5 20339.5 1821.5 20339.5" stroke="#FFB226" stroke-width="9.16667" stroke-linecap="round" stroke-linejoin="round" stroke-miterlimit="10" fill="none" fill-rule="evenodd"/></g><g><text font-family="Inter Medium,Inter Medium_MSFontService,sans-serif" font-weight="500" font-size="37" transform="matrix(1 0 0 1 1830.61 20351)">Occ Index</text></g><g><path d="M2057.5 20339.5 2145.5 20339.5" stroke="#000000" stroke-width="9.16667" stroke-linecap="round" stroke-linejoin="round" stroke-miterlimit="10" fill="none" fill-rule="evenodd"/></g><g><text font-family="Inter Medium,Inter Medium_MSFontService,sans-serif" font-weight="500" font-size="37" transform="matrix(1 0 0 1 2155.16 20351)">ADR Index</text></g><rect x="1658.5" y="20154.5" width="2103" height="1062" stroke="#D9D9D9" stroke-width="3.4375" stroke-linejoin="round" stroke-miterlimit="10" fill="none"/><g><text fill="#7F7F7F" font-family="Inter,Inter_MSFontService,sans-serif" font-weight="400" font-size="32" transform="matrix(1 0 0 1 1739.76 20299)">Indexed to 2023, Source: STR, str.com</text></g><g><g><text font-family="Inter Medium,Inter Medium_MSFontService,sans-serif" font-weight="700" font-size="37" transform="matrix(1 0 0 1 2904.79 21188)">2025</text></g></g></g></svg>