<svg width="2111" height="1095" xmlns="http://www.w3.org/2000/svg" xmlns:xlink="http://www.w3.org/1999/xlink" xml:space="preserve" overflow="hidden"><defs><filter id="fx0" x="-10%" y="-10%" width="120%" height="120%" filterUnits="userSpaceOnUse" primitiveUnits="userSpaceOnUse"><feComponentTransfer color-interpolation-filters="sRGB"><feFuncR type="discrete" tableValues="0 0"/><feFuncG type="discrete" tableValues="0 0"/><feFuncB type="discrete" tableValues="0 0"/><feFuncA type="linear" slope="0.501961" intercept="0"/></feComponentTransfer><feGaussianBlur stdDeviation="4.58333 4.58333"/></filter><filter id="fx1" x="-10%" y="-10%" width="120%" height="120%" filterUnits="userSpaceOnUse" primitiveUnits="userSpaceOnUse"><feComponentTransfer color-interpolation-filters="sRGB"><feFuncR type="discrete" tableValues="0 0"/><feFuncG type="discrete" tableValues="0 0"/><feFuncB type="discrete" tableValues="0 0"/><feFuncA type="linear" slope="0.501961" intercept="0"/></feComponentTransfer><feGaussianBlur stdDeviation="4.58333 4.58333"/></filter><clipPath id="clip2"><rect x="1660" y="20745" width="2111" height="1095"/></clipPath><clipPath id="clip3"><rect x="1828" y="21002" width="1890" height="681"/></clipPath><clipPath id="clip4"><rect x="1828" y="21002" width="1890" height="681"/></clipPath></defs><g clip-path="url(#clip2)" transform="translate(-1660 -20745)"><rect x="1661" y="20746" width="2108" height="1092" fill="#FFFFFF"/><g><rect x="1829" y="21002" width="1886" height="678" fill="#F2F2F2"/></g><g><path d="M1828.5 21228.5 3714.5 21228.5" stroke="#D9D9D9" stroke-width="3.4375" stroke-linejoin="round" stroke-miterlimit="10" fill="none" fill-rule="evenodd"/></g><g clip-path="url(#clip3)"><g filter="url(#fx0)" transform="translate(1822 21113)"><g><path d="M19.9819 110.718C48.3567 123.899 76.7318 135.392 105.107 150.26 133.482 165.128 161.857 208.751 190.232 199.926 218.607 191.101 246.982 127.332 275.357 97.3106 303.732 67.2888 332.107 13.9824 360.482 19.7959 388.857 25.6089 417.232 114.077 445.607 132.19 473.982 150.303 502.357 99.7255 530.732 128.474 559.107 157.223 587.482 302.382 615.857 304.683 644.232 306.983 672.607 180.996 700.982 142.274 729.357 103.553 757.732 67.2334 786.107 72.3525 814.482 77.4713 842.857 163.661 871.232 172.988 899.607 182.314 927.982 135.762 956.357 128.311 984.732 120.86 1013.11 123.313 1041.48 128.281 1069.86 133.25 1098.23 147.764 1126.61 158.121 1154.98 168.478 1183.36 187.383 1211.73 190.423 1240.11 193.463 1268.48 193.264 1296.86 176.361 1325.23 159.457 1367.79 103.561 1381.98 89.0013" stroke="#FFB226" stroke-width="9" stroke-linecap="round" stroke-linejoin="round" stroke-miterlimit="10" fill="none"/></g></g></g><g clip-path="url(#clip4)"><g filter="url(#fx1)" transform="translate(1822 21103)"><g><path d="M19.9819 74.2144C48.3567 76.3384 76.7318 69.2988 105.107 80.5867 133.482 91.8743 161.857 140.802 190.232 141.942 218.607 143.081 246.982 99.8909 275.357 87.4226 303.732 74.9539 332.107 67.4298 360.482 67.1304 388.857 66.8306 417.232 80.7404 445.607 85.6247 473.982 90.5086 502.357 87.2848 530.732 96.4343 559.107 105.584 587.482 152.982 615.857 140.522 644.232 128.061 672.607 33.3577 700.982 21.6701 729.357 9.98242 757.732 53.0103 786.107 70.3957 814.482 87.7811 842.857 123.107 871.232 125.982 899.607 128.858 927.982 95.7904 956.357 87.6491 984.732 79.5074 1013.11 71.2676 1041.48 77.1327 1069.86 82.9975 1098.23 115.267 1126.61 122.839 1154.98 130.412 1183.36 125.072 1211.73 122.566 1240.11 120.06 1268.48 115.396 1296.86 107.802 1325.23 100.208 1367.79 82.1361 1381.98 77.0029" stroke="#000000" stroke-width="9" stroke-linecap="round" stroke-linejoin="round" stroke-miterlimit="10" fill="none"/></g></g></g><g><path d="M1835.5 21217.2C1863.87 21230.4 1892.25 21241.9 1920.63 21256.8 1949 21271.6 1977.38 21315.3 2005.75 21306.4 2034.12 21297.6 2062.5 21233.8 2090.88 21203.8 2119.25 21173.8 2147.62 21120.5 2176 21126.3 2204.38 21132.1 2232.75 21220.6 2261.13 21238.7 2289.5 21256.8 2317.88 21206.2 2346.25 21235 2374.62 21263.7 2403 21408.9 2431.38 21411.2 2459.75 21413.5 2488.12 21287.5 2516.5 21248.8 2544.88 21210.1 2573.25 21173.8 2601.63 21178.9 2630 21184 2658.38 21270.2 2686.75 21279.5 2715.12 21288.8 2743.5 21242.3 2771.88 21234.8 2800.25 21227.4 2828.62 21229.8 2857 21234.8 2885.37 21239.8 2913.75 21254.3 2942.12 21264.6 2970.5 21275 2998.88 21293.9 3027.25 21296.9 3055.62 21300 3084 21299.8 3112.38 21282.9 3140.75 21266 3183.31 21210.1 3197.5 21195.5" stroke="#FFB226" stroke-width="9.16667" stroke-linecap="round" stroke-linejoin="round" stroke-miterlimit="10" fill="none"/></g><g><path d="M1835.5 21170.7C1863.87 21172.9 1892.25 21165.8 1920.63 21177.1 1949 21188.4 1977.38 21237.3 2005.75 21238.5 2034.12 21239.6 2062.5 21196.4 2090.88 21183.9 2119.25 21171.5 2147.62 21163.9 2176 21163.6 2204.38 21163.3 2232.75 21177.3 2261.13 21182.1 2289.5 21187 2317.88 21183.8 2346.25 21193 2374.62 21202.1 2403 21249.5 2431.38 21237 2459.75 21224.6 2488.12 21129.9 2516.5 21118.2 2544.88 21106.5 2573.25 21149.5 2601.63 21166.9 2630 21184.3 2658.38 21219.6 2686.75 21222.5 2715.12 21225.4 2743.5 21192.3 2771.88 21184.2 2800.25 21176 2828.62 21167.8 2857 21173.7 2885.37 21179.5 2913.75 21211.8 2942.12 21219.4 2970.5 21226.9 2998.88 21221.6 3027.25 21219.1 3055.62 21216.6 3084 21211.9 3112.38 21204.3 3140.75 21196.7 3183.31 21178.7 3197.5 21173.5" stroke="#000000" stroke-width="9.16667" stroke-linecap="round" stroke-linejoin="round" stroke-miterlimit="10" fill="none"/></g><g><text font-family="Inter,Inter_MSFontService,sans-serif" font-weight="400" font-size="32" transform="matrix(1 0 0 1 1759.39 21690)">80</text></g><g><text font-family="Inter,Inter_MSFontService,sans-serif" font-weight="400" font-size="32" transform="matrix(1 0 0 1 1759.16 21464)">90</text></g><g><text font-family="Inter,Inter_MSFontService,sans-serif" font-weight="400" font-size="32" transform="matrix(1 0 0 1 1744.22 21238)">100</text></g><g><text font-family="Inter,Inter_MSFontService,sans-serif" font-weight="400" font-size="32" transform="matrix(1 0 0 1 1749.38 21012)">110</text></g><g><text font-family="Inter,Inter_MSFontService,sans-serif" font-weight="400" font-size="32" transform="matrix(0.707107 -0.707107 0.707107 0.707107 1810.21 21756)">3/1</text></g><g><text font-family="Inter,Inter_MSFontService,sans-serif" font-weight="400" font-size="32" transform="matrix(0.707107 -0.707107 0.707107 0.707107 2048.81 21773)">3/22</text></g><g><text font-family="Inter,Inter_MSFontService,sans-serif" font-weight="400" font-size="32" transform="matrix(0.707107 -0.707107 0.707107 0.707107 2307.39 21770)">4/12</text></g><g><text font-family="Inter,Inter_MSFontService,sans-serif" font-weight="400" font-size="32" transform="matrix(0.707107 -0.707107 0.707107 0.707107 2573.51 21759)">5/3</text></g><g><text font-family="Inter,Inter_MSFontService,sans-serif" font-weight="400" font-size="32" transform="matrix(0.707107 -0.707107 0.707107 0.707107 2815.17 21773)">5/24</text></g><g><text font-family="Inter,Inter_MSFontService,sans-serif" font-weight="400" font-size="32" transform="matrix(0.707107 -0.707107 0.707107 0.707107 3073.53 21770)">6/14</text></g><g><text font-family="Inter,Inter_MSFontService,sans-serif" font-weight="400" font-size="32" transform="matrix(0.707107 -0.707107 0.707107 0.707107 3341.55 21758)">7/5</text></g><g><text font-family="Inter,Inter_MSFontService,sans-serif" font-weight="400" font-size="32" transform="matrix(0.707107 -0.707107 0.707107 0.707107 3582.99 21772)">7/26</text></g><g><text font-family="Inter Medium,Inter Medium_MSFontService,sans-serif" font-weight="700" font-size="46" transform="matrix(1 0 0 1 1745.5 20836)">U.S. Hotel Occupancy and ADR Recovery Levels</text></g><g><path d="M1737.5 20936.5 1825.5 20936.5" stroke="#FFB226" stroke-width="9.16667" stroke-linecap="round" stroke-linejoin="round" stroke-miterlimit="10" fill="none" fill-rule="evenodd"/></g><g><text font-family="Inter Medium,Inter Medium_MSFontService,sans-serif" font-weight="500" font-size="37" transform="matrix(1 0 0 1 1834.49 20948)">Occ Index</text></g><g><path d="M2062.5 20936.5 2150.5 20936.5" stroke="#000000" stroke-width="9.16667" stroke-linecap="round" stroke-linejoin="round" stroke-miterlimit="10" fill="none" fill-rule="evenodd"/></g><g><text font-family="Inter Medium,Inter Medium_MSFontService,sans-serif" font-weight="500" font-size="37" transform="matrix(1 0 0 1 2159.57 20948)">ADR Index</text></g><rect x="1661.5" y="20746.5" width="2108" height="1092" stroke="#D9D9D9" stroke-width="3.4375" stroke-linejoin="round" stroke-miterlimit="10" fill="none"/><g><text fill="#7F7F7F" font-family="Inter,Inter_MSFontService,sans-serif" font-weight="400" font-size="32" transform="matrix(1 0 0 1 1743.19 20893)">YOY, Source: STR, str.com</text></g></g></svg>