<svg width="2106" height="1059" xmlns="http://www.w3.org/2000/svg" xmlns:xlink="http://www.w3.org/1999/xlink" xml:space="preserve" overflow="hidden"><defs><filter id="fx0" x="-10%" y="-10%" width="120%" height="120%" filterUnits="userSpaceOnUse" primitiveUnits="userSpaceOnUse"><feComponentTransfer color-interpolation-filters="sRGB"><feFuncR type="discrete" tableValues="0 0"/><feFuncG type="discrete" tableValues="0 0"/><feFuncB type="discrete" tableValues="0 0"/><feFuncA type="linear" slope="0.501961" intercept="0"/></feComponentTransfer><feGaussianBlur stdDeviation="4.58333 4.58333"/></filter><filter id="fx1" x="-10%" y="-10%" width="120%" height="120%" filterUnits="userSpaceOnUse" primitiveUnits="userSpaceOnUse"><feComponentTransfer color-interpolation-filters="sRGB"><feFuncR type="discrete" tableValues="0 0"/><feFuncG type="discrete" tableValues="0 0"/><feFuncB type="discrete" tableValues="0 0"/><feFuncA type="linear" slope="0.501961" intercept="0"/></feComponentTransfer><feGaussianBlur stdDeviation="4.58333 4.58333"/></filter><clipPath id="clip2"><rect x="1811" y="23263" width="2106" height="1059"/></clipPath><clipPath id="clip3"><rect x="1978" y="23512" width="1885" height="658"/></clipPath><clipPath id="clip4"><rect x="1978" y="23512" width="1885" height="658"/></clipPath></defs><g clip-path="url(#clip2)" transform="translate(-1811 -23263)"><rect x="1812" y="23264" width="2103" height="1056" fill="#FFFFFF"/><g><rect x="1979" y="23512" width="1882" height="655" fill="#F2F2F2"/></g><g><path d="M1978.5 23730.5 3860.5 23730.5" stroke="#D9D9D9" stroke-width="3.4375" stroke-linejoin="round" stroke-miterlimit="10" fill="none" fill-rule="evenodd"/></g><g clip-path="url(#clip3)"><g filter="url(#fx0)" transform="translate(1968 23619)"><g><path d="M19.9817 107.417C34.1928 120.147 48.404 131.248 62.6152 145.609 76.826 159.969 91.0371 202.103 105.248 193.58 119.459 185.056 133.671 123.464 147.882 94.4668 162.093 65.4696 176.304 13.9824 190.515 19.5973 204.726 25.2121 218.937 110.661 233.148 128.156 242.904 140.166 266.026 105.504 275.782 124.567 289.993 152.334 304.204 292.54 318.415 294.761 332.626 296.982 346.837 175.296 361.048 137.896 375.235 100.559 389.495 65.4245 403.682 70.3606 417.893 75.3046 432.104 158.553 446.315 167.561 460.526 176.569 474.737 131.606 488.949 124.409 503.159 117.212 517.37 119.581 531.582 124.38 545.792 129.179 560.004 143.198 574.215 153.202 588.426 163.205 602.637 181.465 616.849 184.401 631.059 187.337 645.271 187.145 659.482 170.819 673.693 154.492 687.904 95.2579 702.115 86.441 716.326 77.6241 730.537 111.482 744.748 117.917 758.959 124.353 773.171 114.517 787.382 125.055 801.593 135.592 815.804 172.908 830.015 181.144 844.226 189.379 858.437 182.474 872.648 174.468 886.859 166.462 901.071 143.06 915.282 133.109 929.493 123.159 943.704 113.582 957.915 114.765 972.126 115.948 986.337 136.412 1000.55 140.208 1014.76 144.003 1028.97 137.391 1043.18 137.538 1057.39 137.684 1071.6 141.501 1085.82 141.084 1100.03 140.667 1114.24 138.265 1128.45 135.035 1142.66 131.805 1156.87 117.985 1171.08 121.702 1185.29 125.418 1199.5 153.731 1213.72 157.334 1227.93 160.937 1242.14 134.962 1256.35 143.318 1270.56 151.674 1291.88 196.777 1298.98 207.469" stroke="#FFB226" stroke-width="9" stroke-linecap="round" stroke-linejoin="round" stroke-miterlimit="10" fill="none"/></g></g></g><g clip-path="url(#clip4)"><g filter="url(#fx1)" transform="translate(1968 23609)"><g><path d="M19.9817 72.0124C34.1928 74.0634 48.404 67.2651 62.6152 78.1661 76.826 89.0668 91.0371 136.317 105.248 137.418 119.459 138.518 133.671 96.8087 147.882 84.7679 162.093 72.7268 176.304 65.4603 190.515 65.1712 204.726 64.8818 218.937 78.315 233.148 83.0316 247.36 87.7478 261.571 84.6346 275.782 93.4705 289.993 102.306 304.204 148.08 318.415 136.046 332.626 124.013 346.837 32.5562 361.048 21.2695 375.26 9.98242 389.471 51.5354 403.682 68.3249 417.893 85.114 432.104 119.229 446.315 122.006 460.526 124.783 474.737 92.8491 488.949 84.9867 503.159 77.124 517.37 69.1665 531.582 74.8308 545.792 80.4947 560.004 111.657 574.215 118.97 588.426 126.283 602.637 121.127 616.849 118.707 631.059 116.286 645.271 111.782 659.482 104.449 673.693 97.1151 687.904 71.9093 702.115 74.7057 716.326 77.5018 730.537 111.083 744.748 121.225 758.959 131.368 773.171 134.949 787.382 135.561 801.593 136.173 815.804 125.27 830.015 124.896 844.226 124.522 858.437 133.784 872.648 133.316 886.859 132.847 901.071 126.129 915.282 122.087 929.493 118.046 943.704 108.39 957.915 109.067 972.126 109.744 986.337 125.728 1000.55 126.151 1014.76 126.574 1028.97 112.012 1043.18 111.604 1057.39 111.197 1071.6 126.213 1085.82 123.705 1100.03 121.196 1114.24 95.51 1128.45 96.5557 1142.66 97.6014 1156.87 126.254 1171.08 129.979 1185.29 133.704 1199.5 119.658 1213.72 118.906 1227.93 118.154 1242.14 115.953 1256.35 125.466 1270.56 134.978 1291.88 167.563 1298.98 175.982" stroke="#000000" stroke-width="9" stroke-linecap="round" stroke-linejoin="round" stroke-miterlimit="10" fill="none"/></g></g></g><g><path d="M1981.5 23719.9C1995.71 23732.7 2009.92 23743.8 2024.13 23758.1 2038.34 23772.5 2052.56 23814.6 2066.77 23806.1 2080.98 23797.6 2095.19 23736 2109.4 23707 2123.61 23678 2137.82 23626.5 2152.03 23632.1 2166.24 23637.7 2180.46 23723.2 2194.67 23740.7 2204.42 23752.7 2227.54 23718 2237.3 23737.1 2251.51 23764.9 2265.72 23905.1 2279.93 23907.3 2294.14 23909.5 2308.36 23787.8 2322.57 23750.4 2336.75 23713.1 2351.01 23677.9 2365.2 23682.9 2379.41 23687.8 2393.62 23771.1 2407.83 23780.1 2422.04 23789.1 2436.26 23744.1 2450.47 23736.9 2464.68 23729.7 2478.89 23732.1 2493.1 23736.9 2507.31 23741.7 2521.52 23755.7 2535.73 23765.7 2549.94 23775.7 2564.16 23794 2578.37 23796.9 2592.58 23799.9 2606.79 23799.7 2621 23783.3 2635.21 23767 2649.42 23707.8 2663.63 23699 2677.84 23690.1 2692.06 23724 2706.27 23730.4 2720.48 23736.9 2734.69 23727 2748.9 23737.6 2763.11 23748.1 2777.32 23785.4 2791.53 23793.7 2805.74 23801.9 2819.96 23795 2834.17 23787 2848.38 23779 2862.59 23755.6 2876.8 23745.6 2891.01 23735.7 2905.22 23726.1 2919.43 23727.3 2933.64 23728.5 2947.86 23748.9 2962.07 23752.7 2976.28 23756.5 2990.49 23749.9 3004.7 23750.1 3018.91 23750.2 3033.12 23754 3047.33 23753.6 3061.54 23753.2 3075.76 23750.8 3089.97 23747.6 3104.18 23744.3 3118.39 23730.5 3132.6 23734.2 3146.81 23737.9 3161.02 23766.2 3175.23 23769.9 3189.44 23773.5 3203.66 23747.5 3217.87 23755.8 3232.08 23764.2 3253.39 23809.3 3260.5 23820" stroke="#FFB226" stroke-width="9.16667" stroke-linecap="round" stroke-linejoin="round" stroke-miterlimit="10" fill="none"/></g><g><path d="M1981.5 23674.5C1995.71 23676.6 2009.92 23669.8 2024.13 23680.7 2038.34 23691.6 2052.56 23738.8 2066.77 23739.9 2080.98 23741 2095.19 23699.3 2109.4 23687.3 2123.61 23675.2 2137.82 23668 2152.03 23667.7 2166.24 23667.4 2180.46 23680.8 2194.67 23685.5 2208.88 23690.3 2223.09 23687.2 2237.3 23696 2251.51 23704.8 2265.72 23750.6 2279.93 23738.6 2294.14 23726.5 2308.36 23635.1 2322.57 23623.8 2336.78 23612.5 2350.99 23654.1 2365.2 23670.8 2379.41 23687.6 2393.62 23721.7 2407.83 23724.5 2422.04 23727.3 2436.26 23695.4 2450.47 23687.5 2464.68 23679.6 2478.89 23671.7 2493.1 23677.3 2507.31 23683 2521.52 23714.2 2535.73 23721.5 2549.94 23728.8 2564.16 23723.6 2578.37 23721.2 2592.58 23718.8 2606.79 23714.3 2621 23707 2635.21 23699.6 2649.42 23674.4 2663.63 23677.2 2677.84 23680 2692.06 23713.6 2706.27 23723.7 2720.48 23733.9 2734.69 23737.5 2748.9 23738.1 2763.11 23738.7 2777.32 23727.8 2791.53 23727.4 2805.74 23727 2819.96 23736.3 2834.17 23735.8 2848.38 23735.4 2862.59 23728.6 2876.8 23724.6 2891.01 23720.6 2905.22 23710.9 2919.43 23711.6 2933.64 23712.3 2947.86 23728.2 2962.07 23728.7 2976.28 23729.1 2990.49 23714.5 3004.7 23714.1 3018.91 23713.7 3033.12 23728.7 3047.33 23726.2 3061.54 23723.7 3075.76 23698 3089.97 23699.1 3104.18 23700.1 3118.39 23728.8 3132.6 23732.5 3146.81 23736.2 3161.02 23722.2 3175.23 23721.4 3189.44 23720.7 3203.66 23718.5 3217.87 23728 3232.08 23737.5 3253.39 23770.1 3260.5 23778.5" stroke="#000000" stroke-width="9.16667" stroke-linecap="round" stroke-linejoin="round" stroke-miterlimit="10" fill="none"/></g><g><text font-family="Inter,Inter_MSFontService,sans-serif" font-weight="400" font-size="32" transform="matrix(1 0 0 1 1909.24 24177)">80</text></g><g><text font-family="Inter,Inter_MSFontService,sans-serif" font-weight="400" font-size="32" transform="matrix(1 0 0 1 1909.01 23959)">90</text></g><g><text font-family="Inter,Inter_MSFontService,sans-serif" font-weight="400" font-size="32" transform="matrix(1 0 0 1 1894.07 23740)">100</text></g><g><text font-family="Inter,Inter_MSFontService,sans-serif" font-weight="400" font-size="32" transform="matrix(1 0 0 1 1899.22 23522)">110</text></g><g><text font-family="Inter,Inter_MSFontService,sans-serif" font-weight="400" font-size="32" transform="matrix(0.707107 -0.707107 0.707107 0.707107 1957.02 24243)">3/1</text></g><g><text font-family="Inter,Inter_MSFontService,sans-serif" font-weight="400" font-size="32" transform="matrix(0.707107 -0.707107 0.707107 0.707107 2067.99 24260)">3/22</text></g><g><text font-family="Inter,Inter_MSFontService,sans-serif" font-weight="400" font-size="32" transform="matrix(0.707107 -0.707107 0.707107 0.707107 2198.93 24257)">4/12</text></g><g><text font-family="Inter,Inter_MSFontService,sans-serif" font-weight="400" font-size="32" transform="matrix(0.707107 -0.707107 0.707107 0.707107 2337.41 24246)">5/3</text></g><g><text font-family="Inter,Inter_MSFontService,sans-serif" font-weight="400" font-size="32" transform="matrix(0.707107 -0.707107 0.707107 0.707107 2451.44 24260)">5/24</text></g><g><text font-family="Inter,Inter_MSFontService,sans-serif" font-weight="400" font-size="32" transform="matrix(0.707107 -0.707107 0.707107 0.707107 2582.16 24257)">6/14</text></g><g><text font-family="Inter,Inter_MSFontService,sans-serif" font-weight="400" font-size="32" transform="matrix(0.707107 -0.707107 0.707107 0.707107 2722.56 24245)">7/5</text></g><g><text font-family="Inter,Inter_MSFontService,sans-serif" font-weight="400" font-size="32" transform="matrix(0.707107 -0.707107 0.707107 0.707107 2836.36 24259)">7/26</text></g><g><text font-family="Inter,Inter_MSFontService,sans-serif" font-weight="400" font-size="32" transform="matrix(0.707107 -0.707107 0.707107 0.707107 2966.4 24257)">8/16</text></g><g><text font-family="Inter,Inter_MSFontService,sans-serif" font-weight="400" font-size="32" transform="matrix(0.707107 -0.707107 0.707107 0.707107 3104.66 24246)">9/6</text></g><g><text font-family="Inter,Inter_MSFontService,sans-serif" font-weight="400" font-size="32" transform="matrix(0.707107 -0.707107 0.707107 0.707107 3220.01 24259)">9/27</text></g><g><text font-family="Inter,Inter_MSFontService,sans-serif" font-weight="400" font-size="32" transform="matrix(0.707107 -0.707107 0.707107 0.707107 3339.49 24267)">10/18</text></g><g><text font-family="Inter,Inter_MSFontService,sans-serif" font-weight="400" font-size="32" transform="matrix(0.707107 -0.707107 0.707107 0.707107 3481.55 24253)">11/8</text></g><g><text font-family="Inter,Inter_MSFontService,sans-serif" font-weight="400" font-size="32" transform="matrix(0.707107 -0.707107 0.707107 0.707107 3595.55 24267)">11/29</text></g><g><text font-family="Inter,Inter_MSFontService,sans-serif" font-weight="400" font-size="32" transform="matrix(0.707107 -0.707107 0.707107 0.707107 3720.21 24270)">12/20</text></g><g><text font-family="Inter Medium,Inter Medium_MSFontService,sans-serif" font-weight="700" font-size="46" transform="matrix(1 0 0 1 1895.56 23354)">U.S. Hotel Occupancy and ADR Recovery Levels</text></g><g><path d="M1886.5 23448.5 1974.5 23448.5" stroke="#FFB226" stroke-width="9.16667" stroke-linecap="round" stroke-linejoin="round" stroke-miterlimit="10" fill="none" fill-rule="evenodd"/></g><g><text font-family="Inter Medium,Inter Medium_MSFontService,sans-serif" font-weight="500" font-size="37" transform="matrix(1 0 0 1 1984.15 23460)">Occ Index</text></g><g><path d="M2211.5 23448.5 2299.5 23448.5" stroke="#000000" stroke-width="9.16667" stroke-linecap="round" stroke-linejoin="round" stroke-miterlimit="10" fill="none" fill-rule="evenodd"/></g><g><text font-family="Inter Medium,Inter Medium_MSFontService,sans-serif" font-weight="500" font-size="37" transform="matrix(1 0 0 1 2308.7 23460)">ADR Index</text></g><rect x="1812.5" y="23264.5" width="2103" height="1056" stroke="#D9D9D9" stroke-width="3.4375" stroke-linejoin="round" stroke-miterlimit="10" fill="none"/><g><text fill="#7F7F7F" font-family="Inter,Inter_MSFontService,sans-serif" font-weight="400" font-size="32" transform="matrix(1 0 0 1 1893.3 23408)">YOY, Source: STR, str.com</text></g></g></svg>