<svg width="2106" height="1065" xmlns="http://www.w3.org/2000/svg" xmlns:xlink="http://www.w3.org/1999/xlink" xml:space="preserve" overflow="hidden"><defs><filter id="fx0" x="-10%" y="-10%" width="120%" height="120%" filterUnits="userSpaceOnUse" primitiveUnits="userSpaceOnUse"><feComponentTransfer color-interpolation-filters="sRGB"><feFuncR type="discrete" tableValues="0 0"/><feFuncG type="discrete" tableValues="0 0"/><feFuncB type="discrete" tableValues="0 0"/><feFuncA type="linear" slope="0.501961" intercept="0"/></feComponentTransfer><feGaussianBlur stdDeviation="4.58333 4.58333"/></filter><filter id="fx1" x="-10%" y="-10%" width="120%" height="120%" filterUnits="userSpaceOnUse" primitiveUnits="userSpaceOnUse"><feComponentTransfer color-interpolation-filters="sRGB"><feFuncR type="discrete" tableValues="0 0"/><feFuncG type="discrete" tableValues="0 0"/><feFuncB type="discrete" tableValues="0 0"/><feFuncA type="linear" slope="0.501961" intercept="0"/></feComponentTransfer><feGaussianBlur stdDeviation="4.58333 4.58333"/></filter><clipPath id="clip2"><rect x="1657" y="20153" width="2106" height="1065"/></clipPath><clipPath id="clip3"><rect x="1825" y="20403" width="1885" height="662"/></clipPath><clipPath id="clip4"><rect x="1825" y="20403" width="1885" height="662"/></clipPath></defs><g clip-path="url(#clip2)" transform="translate(-1657 -20153)"><rect x="1658" y="20154" width="2103" height="1062" fill="#FFFFFF"/><g><path d="M2910.5 20403.5 2946.6 20403.5 2982.6 20403.5 3018.6 20403.5 3054.6 20403.5 3090.6 20403.5 3126.6 20403.5 3163.6 20403.5 3199.6 20403.5 3235.61 20403.5 3271.61 20403.5 3307.61 20403.5 3343.61 20403.5 3379.61 20403.5 3415.61 20403.5 3451.61 20403.5 3487.61 20403.5 3523.62 20403.5 3559.62 20403.5 3596.62 20403.5 3632.62 20403.5 3668.62 20403.5 3704.5 20403.5 3704.5 21062.5 3668.62 21062.5 3632.62 21062.5 3596.62 21062.5 3559.62 21062.5 3523.62 21062.5 3487.61 21062.5 3451.61 21062.5 3415.61 21062.5 3379.61 21062.5 3343.61 21062.5 3307.61 21062.5 3271.61 21062.5 3235.61 21062.5 3199.6 21062.5 3163.6 21062.5 3126.6 21062.5 3090.6 21062.5 3054.6 21062.5 3018.6 21062.5 2982.6 21062.5 2946.6 21062.5 2910.5 21062.5Z" stroke="#BFBFBF" stroke-width="3.4375" stroke-linejoin="round" stroke-miterlimit="10" stroke-opacity="0.501961" fill="#D9D9D9" fill-opacity="0.501961"/></g><g><path d="M1825.5 20798.5 3707.5 20798.5" stroke="#D9D9D9" stroke-width="3.4375" stroke-linejoin="round" stroke-miterlimit="10" fill="none" fill-rule="evenodd"/></g><g clip-path="url(#clip3)"><g filter="url(#fx0)" transform="translate(1814 20509)"><g><path d="M19.9817 287.545C32.0158 292.299 44.05 298.828 56.0842 301.807 68.1183 304.786 80.1521 300.521 92.1866 305.419 104.221 310.317 116.255 339.035 128.289 331.195 140.324 323.355 152.358 262.449 164.392 258.38 176.426 254.309 188.46 291.941 200.494 306.775 212.529 321.609 224.562 350.972 236.597 347.385 248.631 343.798 260.665 293.192 272.7 285.255 284.734 277.317 296.768 299.545 308.802 299.76 320.836 299.973 332.87 288.434 344.905 286.538 356.939 284.642 368.973 286.462 381.007 288.385 393.042 290.308 405.076 300.507 417.11 298.075 429.144 295.643 441.178 278.327 453.212 273.793 465.246 269.258 477.281 258.041 489.315 270.871 501.349 283.701 513.383 342.997 525.418 350.774 537.452 358.551 549.486 327.926 561.52 317.531 573.554 307.137 585.588 297.579 597.622 288.407 609.657 279.236 621.691 254.086 633.725 262.5 645.76 270.914 657.794 339.066 669.828 338.893 681.862 338.719 693.896 272.093 705.93 261.459 717.964 250.824 729.999 279.301 742.033 275.086 754.067 270.872 766.101 236.718 778.136 236.172 790.17 235.626 802.203 254.361 814.238 271.812 826.272 289.262 838.306 339.994 850.341 340.874 858.415 341.464 878.369 312.84 886.443 277.089 898.477 223.807 910.511 0.982422 922.546 21.1816 934.58 41.3809 946.614 353.587 958.649 398.285 970.683 442.982 982.717 325.682 994.751 289.368 1006.79 253.054 1018.82 204.307 1030.85 180.4 1040.2 161.836 1057.61 122.778 1066.96 145.928 1078.99 175.74 1091.02 341.286 1103.06 359.272 1115.09 377.258 1127.13 247.468 1139.16 253.845 1151.2 260.222 1163.23 405.648 1175.26 397.536 1187.3 389.423 1199.33 214.646 1211.37 205.171 1223.4 195.696 1235.43 330.705 1247.47 340.685 1259.5 350.666 1271.54 271.31 1283.57 265.054 1295.61 258.797 1307.64 300.94 1319.67 303.146 1331.71 305.351 1343.74 273.436 1355.78 278.289 1367.81 283.141 1379.85 330.347 1391.88 332.262 1403.91 334.176 1421.96 296.859 1427.98 289.778" stroke="#FFB226" stroke-width="9" stroke-linecap="round" stroke-linejoin="round" stroke-miterlimit="10" fill="none"/></g></g></g><g clip-path="url(#clip4)"><g filter="url(#fx1)" transform="translate(1814 20640)"><g><path d="M19.9817 159.779C32.0158 152.58 44.05 139.901 56.0842 138.184 68.1183 136.467 80.1521 146.231 92.1866 149.478 104.221 152.725 116.255 164.255 128.289 157.665 140.324 151.074 152.358 110.775 164.392 109.935 176.426 109.094 188.46 141.032 200.494 152.623 212.529 164.214 224.562 183.199 236.597 179.48 248.631 175.76 260.665 136.273 272.7 130.303 284.734 124.333 296.768 140.008 308.802 143.661 320.836 147.313 332.87 152.901 344.905 152.22 356.939 151.538 368.973 140.65 381.007 139.572 393.042 138.493 405.076 148.184 417.11 145.749 429.144 143.313 441.178 126.343 453.212 124.958 465.246 123.572 477.281 129.331 489.315 137.434 501.349 145.537 513.383 170.214 525.418 173.574 537.452 176.935 549.486 164.123 561.52 157.598 573.554 151.073 585.588 150.336 597.622 134.426 609.657 118.515 621.691 47.7352 633.725 62.1364 645.76 76.5372 657.794 207.205 669.828 220.831 681.862 234.457 693.896 159.211 705.93 143.894 717.964 128.576 729.999 136.037 742.033 128.925 754.067 121.813 766.101 98.2133 778.136 101.222 790.17 104.229 802.203 136.494 814.238 146.973 826.272 157.452 838.306 158.988 850.341 164.096 860.568 168.437 876.215 193.926 886.443 177.622 898.477 158.438 910.511 45.3755 922.546 48.9919 934.58 52.608 946.614 189.151 958.649 199.32 970.683 209.488 982.717 135.072 994.751 110.005 1006.79 84.9381 1018.82 46.1029 1030.85 48.9181 1042.89 51.733 1054.92 104.05 1066.96 126.895 1078.99 149.74 1091.02 203.731 1103.06 185.989 1115.09 168.246 1127.13 9.98242 1139.16 20.4424 1151.2 30.902 1163.23 245.511 1175.26 248.747 1187.3 251.982 1199.33 60.3334 1211.37 39.8568 1223.4 19.3797 1235.43 108.384 1247.47 125.886 1259.01 142.67 1272.03 132.191 1283.57 144.868 1295.61 158.085 1307.64 205.291 1319.67 205.193 1331.71 205.095 1343.74 155.578 1355.78 144.281 1367.81 132.985 1379.85 139.571 1391.88 137.414 1403.91 135.257 1421.96 132.351 1427.98 131.339" stroke="#000000" stroke-width="9" stroke-linecap="round" stroke-linejoin="round" stroke-miterlimit="10" fill="none"/></g></g></g><g><path d="M1827.5 20790.1C1839.53 20794.8 1851.57 20801.3 1863.6 20804.3 1875.64 20807.3 1887.67 20803 1899.7 20807.9 1911.74 20812.8 1923.77 20841.6 1935.81 20833.7 1947.84 20825.9 1959.88 20765 1971.91 20760.9 1983.94 20756.8 1995.98 20794.5 2008.01 20809.3 2020.05 20824.1 2032.08 20853.5 2044.11 20849.9 2056.15 20846.3 2068.18 20795.7 2080.22 20787.8 2092.25 20779.8 2104.29 20802.1 2116.32 20802.3 2128.35 20802.5 2140.39 20791 2152.42 20789.1 2164.46 20787.2 2176.49 20789 2188.53 20790.9 2200.56 20792.8 2212.59 20803 2224.63 20800.6 2236.66 20798.2 2248.7 20780.8 2260.73 20776.3 2272.76 20771.8 2284.8 20760.6 2296.83 20773.4 2308.87 20786.2 2320.9 20845.5 2332.94 20853.3 2344.97 20861.1 2357 20830.4 2369.04 20820 2381.07 20809.7 2393.11 20800.1 2405.14 20790.9 2417.17 20781.8 2429.21 20756.6 2441.24 20765 2453.28 20773.4 2465.31 20841.6 2477.35 20841.4 2489.38 20841.2 2501.41 20774.6 2513.45 20764 2525.48 20753.3 2537.52 20781.8 2549.55 20777.6 2561.59 20773.4 2573.62 20739.2 2585.65 20738.7 2597.69 20738.1 2609.72 20756.9 2621.76 20774.3 2633.79 20791.8 2645.82 20842.5 2657.86 20843.4 2665.93 20844 2685.89 20815.4 2693.96 20779.6 2706 20726.3 2718.03 20503.5 2730.06 20523.7 2742.1 20543.9 2754.13 20856.1 2766.17 20900.8 2778.2 20945.5 2790.24 20828.2 2802.27 20791.9 2814.3 20755.6 2826.34 20706.8 2838.37 20682.9 2847.72 20664.4 2865.13 20625.3 2874.47 20648.4 2886.51 20678.3 2898.54 20843.8 2910.58 20861.8 2922.61 20879.8 2934.65 20750 2946.68 20756.4 2958.71 20762.7 2970.75 20908.2 2982.78 20900.1 2994.82 20891.9 3006.85 20717.2 3018.88 20707.7 3030.92 20698.2 3042.95 20833.2 3054.99 20843.2 3067.02 20853.2 3079.06 20773.8 3091.09 20767.6 3103.12 20761.3 3115.16 20803.5 3127.19 20805.7 3139.23 20807.9 3151.26 20776 3163.29 20780.8 3175.33 20785.7 3187.36 20832.9 3199.4 20834.8 3211.43 20836.7 3229.48 20799.4 3235.5 20792.3" stroke="#FFB226" stroke-width="9.16667" stroke-linecap="round" stroke-linejoin="round" stroke-miterlimit="10" fill="none"/></g><g><path d="M1827.5 20793.3C1839.53 20786.1 1851.57 20773.4 1863.6 20771.7 1875.64 20770 1887.67 20779.7 1899.7 20783 1911.74 20786.2 1923.77 20797.8 1935.81 20791.2 1947.84 20784.6 1959.88 20744.3 1971.91 20743.5 1983.94 20742.6 1995.98 20774.5 2008.01 20786.1 2020.05 20797.7 2032.08 20816.7 2044.11 20813 2056.15 20809.3 2068.18 20769.8 2080.22 20763.8 2092.25 20757.8 2104.29 20773.5 2116.32 20777.2 2128.35 20780.8 2140.39 20786.4 2152.42 20785.7 2164.46 20785.1 2176.49 20774.2 2188.53 20773.1 2200.56 20772 2212.59 20781.7 2224.63 20779.3 2236.66 20776.8 2248.7 20759.9 2260.73 20758.5 2272.76 20757.1 2284.8 20762.8 2296.83 20771 2308.87 20779.1 2320.9 20803.7 2332.94 20807.1 2344.97 20810.5 2357 20797.6 2369.04 20791.1 2381.07 20784.6 2393.11 20783.9 2405.14 20767.9 2417.17 20752 2429.21 20681.3 2441.24 20695.7 2453.28 20710.1 2465.31 20840.7 2477.35 20854.3 2489.38 20868 2501.41 20792.7 2513.45 20777.4 2525.48 20762.1 2537.52 20769.6 2549.55 20762.4 2561.59 20755.3 2573.62 20731.7 2585.65 20734.7 2597.69 20737.7 2609.72 20770 2621.76 20780.5 2633.79 20791 2645.82 20792.5 2657.86 20797.6 2668.09 20802 2683.73 20827.4 2693.96 20811.1 2706 20792 2718.03 20678.9 2730.06 20682.5 2742.1 20686.1 2754.13 20822.7 2766.17 20832.8 2778.2 20843 2790.24 20768.6 2802.27 20743.5 2814.3 20718.5 2826.34 20679.6 2838.37 20682.4 2850.41 20685.2 2862.44 20737.6 2874.47 20760.4 2886.51 20783.3 2898.54 20837.2 2910.58 20819.5 2922.61 20801.8 2934.65 20643.5 2946.68 20654 2958.71 20664.4 2970.75 20879 2982.78 20882.3 2994.82 20885.5 3006.85 20693.9 3018.88 20673.4 3030.92 20652.9 3042.95 20741.9 3054.99 20759.4 3066.53 20776.2 3079.55 20765.7 3091.09 20778.4 3103.12 20791.6 3115.16 20838.8 3127.19 20838.7 3139.23 20838.6 3151.26 20789.1 3163.29 20777.8 3175.33 20766.5 3187.36 20773.1 3199.4 20770.9 3211.43 20768.8 3229.48 20765.9 3235.5 20764.9" stroke="#000000" stroke-width="9.16667" stroke-linecap="round" stroke-linejoin="round" stroke-miterlimit="10" fill="none"/></g><g><text font-family="Inter,Inter_MSFontService,sans-serif" font-weight="400" font-size="32" transform="matrix(1 0 0 1 1755.7 21072)">80</text></g><g><text font-family="Inter,Inter_MSFontService,sans-serif" font-weight="400" font-size="32" transform="matrix(1 0 0 1 1755.47 20940)">90</text></g><g><text font-family="Inter,Inter_MSFontService,sans-serif" font-weight="400" font-size="32" transform="matrix(1 0 0 1 1740.53 20809)">100</text></g><g><text font-family="Inter,Inter_MSFontService,sans-serif" font-weight="400" font-size="32" transform="matrix(1 0 0 1 1745.68 20677)">110</text></g><g><text font-family="Inter,Inter_MSFontService,sans-serif" font-weight="400" font-size="32" transform="matrix(1 0 0 1 1741.17 20545)">120</text></g><g><text font-family="Inter,Inter_MSFontService,sans-serif" font-weight="400" font-size="32" transform="matrix(1 0 0 1 1740.16 20413)">130</text></g><g><text font-family="Inter,Inter_MSFontService,sans-serif" font-weight="400" font-size="32" transform="matrix(0.707107 -0.707107 0.707107 0.707107 1803.3 21138)">6/1</text></g><g><text font-family="Inter,Inter_MSFontService,sans-serif" font-weight="400" font-size="32" transform="matrix(0.707107 -0.707107 0.707107 0.707107 1894.65 21154)">6/22</text></g><g><text font-family="Inter,Inter_MSFontService,sans-serif" font-weight="400" font-size="32" transform="matrix(0.707107 -0.707107 0.707107 0.707107 2006.59 21151)">7/13</text></g><g><text font-family="Inter,Inter_MSFontService,sans-serif" font-weight="400" font-size="32" transform="matrix(0.707107 -0.707107 0.707107 0.707107 2124.35 21141)">8/3</text></g><g><text font-family="Inter,Inter_MSFontService,sans-serif" font-weight="400" font-size="32" transform="matrix(0.707107 -0.707107 0.707107 0.707107 2218.76 21155)">8/24</text></g><g><text font-family="Inter,Inter_MSFontService,sans-serif" font-weight="400" font-size="32" transform="matrix(0.707107 -0.707107 0.707107 0.707107 2330.05 21152)">9/14</text></g><g><text font-family="Inter,Inter_MSFontService,sans-serif" font-weight="400" font-size="32" transform="matrix(0.707107 -0.707107 0.707107 0.707107 2439.06 21151)">10/5</text></g><g><text font-family="Inter,Inter_MSFontService,sans-serif" font-weight="400" font-size="32" transform="matrix(0.707107 -0.707107 0.707107 0.707107 2533.24 21165)">10/26</text></g><g><text font-family="Inter,Inter_MSFontService,sans-serif" font-weight="400" font-size="32" transform="matrix(0.707107 -0.707107 0.707107 0.707107 2648.35 21159)">11/16</text></g><g><text font-family="Inter,Inter_MSFontService,sans-serif" font-weight="400" font-size="32" transform="matrix(0.707107 -0.707107 0.707107 0.707107 2765.15 21150)">12/7</text></g><g><text font-family="Inter,Inter_MSFontService,sans-serif" font-weight="400" font-size="32" transform="matrix(0.707107 -0.707107 0.707107 0.707107 2858.65 21165)">12/28</text></g><g><text font-family="Inter,Inter_MSFontService,sans-serif" font-weight="400" font-size="32" transform="matrix(0.707107 -0.707107 0.707107 0.707107 2983.83 21148)">1/18</text></g><g><text font-family="Inter,Inter_MSFontService,sans-serif" font-weight="400" font-size="32" transform="matrix(0.707107 -0.707107 0.707107 0.707107 3099.44 21141)">2/8</text></g><g><text font-family="Inter,Inter_MSFontService,sans-serif" font-weight="400" font-size="32" transform="matrix(0.707107 -0.707107 0.707107 0.707107 3210.44 21138)">3/1</text></g><g><text font-family="Inter,Inter_MSFontService,sans-serif" font-weight="400" font-size="32" transform="matrix(0.707107 -0.707107 0.707107 0.707107 3301.78 21155)">3/22</text></g><g><text font-family="Inter,Inter_MSFontService,sans-serif" font-weight="400" font-size="32" transform="matrix(0.707107 -0.707107 0.707107 0.707107 3413.11 21152)">4/12</text></g><g><text font-family="Inter,Inter_MSFontService,sans-serif" font-weight="400" font-size="32" transform="matrix(0.707107 -0.707107 0.707107 0.707107 3531.97 21141)">5/3</text></g><g><text font-family="Inter,Inter_MSFontService,sans-serif" font-weight="400" font-size="32" transform="matrix(0.707107 -0.707107 0.707107 0.707107 3626.38 21155)">5/24</text></g><g><text font-family="Inter Medium,Inter Medium_MSFontService,sans-serif" font-weight="700" font-size="46" transform="matrix(1 0 0 1 1742.02 20244)">U.S. Hotel Occupancy and ADR Recovery Levels</text></g><g><path d="M1733.5 20339.5 1821.5 20339.5" stroke="#FFB226" stroke-width="9.16667" stroke-linecap="round" stroke-linejoin="round" stroke-miterlimit="10" fill="none" fill-rule="evenodd"/></g><g><text font-family="Inter Medium,Inter Medium_MSFontService,sans-serif" font-weight="500" font-size="37" transform="matrix(1 0 0 1 1830.61 20351)">Occ Index</text></g><g><path d="M2057.5 20339.5 2145.5 20339.5" stroke="#000000" stroke-width="9.16667" stroke-linecap="round" stroke-linejoin="round" stroke-miterlimit="10" fill="none" fill-rule="evenodd"/></g><g><text font-family="Inter Medium,Inter Medium_MSFontService,sans-serif" font-weight="500" font-size="37" transform="matrix(1 0 0 1 2155.16 20351)">ADR Index</text></g><rect x="1658.5" y="20154.5" width="2103" height="1062" stroke="#D9D9D9" stroke-width="3.4375" stroke-linejoin="round" stroke-miterlimit="10" fill="none"/><g><text fill="#7F7F7F" font-family="Inter,Inter_MSFontService,sans-serif" font-weight="400" font-size="32" transform="matrix(1 0 0 1 1739.76 20299)">Indexed to 2023, Source: STR, str.com</text></g><g><g><text font-family="Inter Medium,Inter Medium_MSFontService,sans-serif" font-weight="700" font-size="37" transform="matrix(1 0 0 1 2904.79 21188)">2025</text></g></g></g></svg>