<svg width="2106" height="1095" xmlns="http://www.w3.org/2000/svg" xmlns:xlink="http://www.w3.org/1999/xlink" xml:space="preserve" overflow="hidden"><defs><filter id="fx0" x="-10%" y="-10%" width="120%" height="120%" filterUnits="userSpaceOnUse" primitiveUnits="userSpaceOnUse"><feComponentTransfer color-interpolation-filters="sRGB"><feFuncR type="discrete" tableValues="0 0"/><feFuncG type="discrete" tableValues="0 0"/><feFuncB type="discrete" tableValues="0 0"/><feFuncA type="linear" slope="0.501961" intercept="0"/></feComponentTransfer><feGaussianBlur stdDeviation="4.58333 4.58333"/></filter><filter id="fx1" x="-10%" y="-10%" width="120%" height="120%" filterUnits="userSpaceOnUse" primitiveUnits="userSpaceOnUse"><feComponentTransfer color-interpolation-filters="sRGB"><feFuncR type="discrete" tableValues="0 0"/><feFuncG type="discrete" tableValues="0 0"/><feFuncB type="discrete" tableValues="0 0"/><feFuncA type="linear" slope="0.501961" intercept="0"/></feComponentTransfer><feGaussianBlur stdDeviation="4.58333 4.58333"/></filter><clipPath id="clip2"><rect x="1657" y="20745" width="2106" height="1095"/></clipPath><clipPath id="clip3"><rect x="1825" y="21002" width="1885" height="681"/></clipPath><clipPath id="clip4"><rect x="1825" y="21002" width="1885" height="681"/></clipPath></defs><g clip-path="url(#clip2)" transform="translate(-1657 -20745)"><rect x="1658" y="20746" width="2103" height="1092" fill="#FFFFFF"/><g><rect x="1825" y="21002" width="1882" height="678" fill="#F2F2F2"/></g><g><path d="M1825.5 21228.5 3707.5 21228.5" stroke="#D9D9D9" stroke-width="3.4375" stroke-linejoin="round" stroke-miterlimit="10" fill="none" fill-rule="evenodd"/></g><g clip-path="url(#clip3)"><g filter="url(#fx0)" transform="translate(1816 21113)"><g><path d="M19.9817 110.718C38.3481 123.899 56.7149 135.392 75.0817 150.26 93.4481 165.128 111.815 208.751 130.182 199.926 148.548 191.101 166.915 127.332 185.282 97.3106 203.648 67.2888 222.015 13.9824 240.382 19.7959 258.748 25.6089 277.115 114.077 295.482 132.19 310.371 146.875 335.692 105.168 350.582 128.474 368.948 157.223 387.315 302.382 405.682 304.683 424.048 306.983 442.415 180.996 460.782 142.274 479.148 103.553 497.515 67.2334 515.882 72.3525 534.248 77.4713 552.615 163.661 570.982 172.988 589.348 182.314 607.715 135.762 626.081 128.311 644.448 120.86 662.815 123.313 681.182 128.281 699.548 133.25 717.915 147.764 736.281 158.121 754.648 168.478 773.015 187.383 791.381 190.423 809.748 193.463 828.115 193.264 846.481 176.361 864.848 159.457 883.215 98.1297 901.581 89.0013 919.948 79.8728 938.315 114.927 956.682 121.59 975.048 128.253 993.415 118.07 1011.78 128.98 1030.15 139.889 1048.52 178.524 1066.88 187.05 1085.25 195.577 1112.8 181.291 1121.98 180.139" stroke="#FFB226" stroke-width="9" stroke-linecap="round" stroke-linejoin="round" stroke-miterlimit="10" fill="none"/></g></g></g><g clip-path="url(#clip4)"><g filter="url(#fx1)" transform="translate(1816 21103)"><g><path d="M19.9817 74.2144C38.3481 76.3384 56.7149 69.2988 75.0817 80.5867 93.4481 91.8743 111.815 140.802 130.182 141.942 148.548 143.081 166.915 99.8909 185.282 87.4226 203.648 74.9539 222.015 67.4298 240.382 67.1304 258.748 66.8306 277.115 80.7404 295.482 85.6247 313.848 90.5086 332.215 87.2848 350.582 96.4343 368.948 105.584 387.315 152.982 405.682 140.522 424.048 128.061 442.415 33.3577 460.782 21.6701 479.148 9.98242 497.515 53.0103 515.882 70.3957 534.248 87.7811 552.615 123.107 570.982 125.982 589.348 128.858 607.715 95.7904 626.081 87.6491 644.448 79.5074 662.815 71.2676 681.182 77.1327 699.548 82.9975 717.915 115.267 736.281 122.839 754.648 130.412 773.015 125.072 791.381 122.566 809.748 120.06 828.115 115.396 846.481 107.802 864.848 100.208 883.215 74.1073 901.581 77.0029 919.948 79.8981 938.315 114.672 956.682 125.175 975.048 135.677 993.415 139.386 1011.78 140.02 1030.15 140.653 1048.52 129.363 1066.88 128.975 1085.25 128.588 1112.8 136.241 1121.98 137.694" stroke="#000000" stroke-width="9" stroke-linecap="round" stroke-linejoin="round" stroke-miterlimit="10" fill="none"/></g></g></g><g><path d="M1829.5 21217.2C1847.87 21230.4 1866.23 21241.9 1884.6 21256.8 1902.97 21271.6 1921.33 21315.3 1939.7 21306.4 1958.07 21297.6 1976.43 21233.8 1994.8 21203.8 2013.17 21173.8 2031.53 21120.5 2049.9 21126.3 2068.27 21132.1 2086.63 21220.6 2105 21238.7 2119.89 21253.4 2145.21 21211.7 2160.1 21235 2178.47 21263.7 2196.83 21408.9 2215.2 21411.2 2233.57 21413.5 2251.93 21287.5 2270.3 21248.8 2288.67 21210.1 2307.03 21173.8 2325.4 21178.9 2343.77 21184 2362.13 21270.2 2380.5 21279.5 2398.87 21288.8 2417.23 21242.3 2435.6 21234.8 2453.97 21227.4 2472.33 21229.8 2490.7 21234.8 2509.07 21239.8 2527.43 21254.3 2545.8 21264.6 2564.17 21275 2582.53 21293.9 2600.9 21296.9 2619.27 21300 2637.63 21299.8 2656 21282.9 2674.37 21266 2692.73 21204.6 2711.1 21195.5 2729.47 21186.4 2747.83 21221.4 2766.2 21228.1 2784.57 21234.8 2802.93 21224.6 2821.3 21235.5 2839.67 21246.4 2858.03 21285 2876.4 21293.6 2894.77 21302.1 2922.32 21287.8 2931.5 21286.7" stroke="#FFB226" stroke-width="9.16667" stroke-linecap="round" stroke-linejoin="round" stroke-miterlimit="10" fill="none"/></g><g><path d="M1829.5 21170.7C1847.87 21172.9 1866.23 21165.8 1884.6 21177.1 1902.97 21188.4 1921.33 21237.3 1939.7 21238.5 1958.07 21239.6 1976.43 21196.4 1994.8 21183.9 2013.17 21171.5 2031.53 21163.9 2049.9 21163.6 2068.27 21163.3 2086.63 21177.3 2105 21182.1 2123.37 21187 2141.73 21183.8 2160.1 21193 2178.47 21202.1 2196.83 21249.5 2215.2 21237 2233.57 21224.6 2251.93 21129.9 2270.3 21118.2 2288.67 21106.5 2307.03 21149.5 2325.4 21166.9 2343.77 21184.3 2362.13 21219.6 2380.5 21222.5 2398.87 21225.4 2417.23 21192.3 2435.6 21184.2 2453.97 21176 2472.33 21167.8 2490.7 21173.7 2509.07 21179.5 2527.43 21211.8 2545.8 21219.4 2564.17 21226.9 2582.53 21221.6 2600.9 21219.1 2619.27 21216.6 2637.63 21211.9 2656 21204.3 2674.37 21196.7 2692.73 21170.6 2711.1 21173.5 2729.47 21176.4 2747.83 21211.2 2766.2 21221.7 2784.57 21232.2 2802.93 21235.9 2821.3 21236.5 2839.67 21237.2 2858.03 21225.9 2876.4 21225.5 2894.77 21225.1 2922.32 21232.8 2931.5 21234.2" stroke="#000000" stroke-width="9.16667" stroke-linecap="round" stroke-linejoin="round" stroke-miterlimit="10" fill="none"/></g><g><text font-family="Inter,Inter_MSFontService,sans-serif" font-weight="400" font-size="32" transform="matrix(1 0 0 1 1755.7 21690)">80</text></g><g><text font-family="Inter,Inter_MSFontService,sans-serif" font-weight="400" font-size="32" transform="matrix(1 0 0 1 1755.47 21464)">90</text></g><g><text font-family="Inter,Inter_MSFontService,sans-serif" font-weight="400" font-size="32" transform="matrix(1 0 0 1 1740.53 21238)">100</text></g><g><text font-family="Inter,Inter_MSFontService,sans-serif" font-weight="400" font-size="32" transform="matrix(1 0 0 1 1745.68 21012)">110</text></g><g><text font-family="Inter,Inter_MSFontService,sans-serif" font-weight="400" font-size="32" transform="matrix(0.707107 -0.707107 0.707107 0.707107 1804.37 21756)">3/1</text></g><g><text font-family="Inter,Inter_MSFontService,sans-serif" font-weight="400" font-size="32" transform="matrix(0.707107 -0.707107 0.707107 0.707107 1952.79 21773)">3/22</text></g><g><text font-family="Inter,Inter_MSFontService,sans-serif" font-weight="400" font-size="32" transform="matrix(0.707107 -0.707107 0.707107 0.707107 2121.19 21770)">4/12</text></g><g><text font-family="Inter,Inter_MSFontService,sans-serif" font-weight="400" font-size="32" transform="matrix(0.707107 -0.707107 0.707107 0.707107 2297.13 21759)">5/3</text></g><g><text font-family="Inter,Inter_MSFontService,sans-serif" font-weight="400" font-size="32" transform="matrix(0.707107 -0.707107 0.707107 0.707107 2448.62 21773)">5/24</text></g><g><text font-family="Inter,Inter_MSFontService,sans-serif" font-weight="400" font-size="32" transform="matrix(0.707107 -0.707107 0.707107 0.707107 2616.79 21770)">6/14</text></g><g><text font-family="Inter,Inter_MSFontService,sans-serif" font-weight="400" font-size="32" transform="matrix(0.707107 -0.707107 0.707107 0.707107 2794.64 21758)">7/5</text></g><g><text font-family="Inter,Inter_MSFontService,sans-serif" font-weight="400" font-size="32" transform="matrix(0.707107 -0.707107 0.707107 0.707107 2945.9 21772)">7/26</text></g><g><text font-family="Inter,Inter_MSFontService,sans-serif" font-weight="400" font-size="32" transform="matrix(0.707107 -0.707107 0.707107 0.707107 3113.4 21770)">8/16</text></g><g><text font-family="Inter,Inter_MSFontService,sans-serif" font-weight="400" font-size="32" transform="matrix(0.707107 -0.707107 0.707107 0.707107 3289.11 21759)">9/6</text></g><g><text font-family="Inter,Inter_MSFontService,sans-serif" font-weight="400" font-size="32" transform="matrix(0.707107 -0.707107 0.707107 0.707107 3441.92 21772)">9/27</text></g><g><text font-family="Inter,Inter_MSFontService,sans-serif" font-weight="400" font-size="32" transform="matrix(0.707107 -0.707107 0.707107 0.707107 3598.85 21780)">10/18</text></g><g><text font-family="Inter Medium,Inter Medium_MSFontService,sans-serif" font-weight="700" font-size="46" transform="matrix(1 0 0 1 1742.02 20836)">U.S. Hotel Occupancy and ADR Recovery Levels</text></g><g><path d="M1733.5 20936.5 1821.5 20936.5" stroke="#FFB226" stroke-width="9.16667" stroke-linecap="round" stroke-linejoin="round" stroke-miterlimit="10" fill="none" fill-rule="evenodd"/></g><g><text font-family="Inter Medium,Inter Medium_MSFontService,sans-serif" font-weight="500" font-size="37" transform="matrix(1 0 0 1 1830.61 20948)">Occ Index</text></g><g><path d="M2057.5 20936.5 2145.5 20936.5" stroke="#000000" stroke-width="9.16667" stroke-linecap="round" stroke-linejoin="round" stroke-miterlimit="10" fill="none" fill-rule="evenodd"/></g><g><text font-family="Inter Medium,Inter Medium_MSFontService,sans-serif" font-weight="500" font-size="37" transform="matrix(1 0 0 1 2155.16 20948)">ADR Index</text></g><rect x="1658.5" y="20746.5" width="2103" height="1092" stroke="#D9D9D9" stroke-width="3.4375" stroke-linejoin="round" stroke-miterlimit="10" fill="none"/><g><text fill="#7F7F7F" font-family="Inter,Inter_MSFontService,sans-serif" font-weight="400" font-size="32" transform="matrix(1 0 0 1 1739.76 20893)">YOY, Source: STR, str.com</text></g></g></svg>