<svg width="2103" height="1058" xmlns="http://www.w3.org/2000/svg" xmlns:xlink="http://www.w3.org/1999/xlink" xml:space="preserve" overflow="hidden"><defs><filter id="fx0" x="-10%" y="-10%" width="120%" height="120%" filterUnits="userSpaceOnUse" primitiveUnits="userSpaceOnUse"><feComponentTransfer color-interpolation-filters="sRGB"><feFuncR type="discrete" tableValues="0 0"/><feFuncG type="discrete" tableValues="0 0"/><feFuncB type="discrete" tableValues="0 0"/><feFuncA type="linear" slope="0.501961" intercept="0"/></feComponentTransfer><feGaussianBlur stdDeviation="4.58333 4.58333"/></filter><filter id="fx1" x="-10%" y="-10%" width="120%" height="120%" filterUnits="userSpaceOnUse" primitiveUnits="userSpaceOnUse"><feComponentTransfer color-interpolation-filters="sRGB"><feFuncR type="discrete" tableValues="0 0"/><feFuncG type="discrete" tableValues="0 0"/><feFuncB type="discrete" tableValues="0 0"/><feFuncA type="linear" slope="0.501961" intercept="0"/></feComponentTransfer><feGaussianBlur stdDeviation="4.58333 4.58333"/></filter><clipPath id="clip2"><rect x="1655" y="20031" width="2103" height="1058"/></clipPath><clipPath id="clip3"><rect x="1822" y="20279" width="1883" height="658"/></clipPath><clipPath id="clip4"><rect x="1822" y="20279" width="1883" height="658"/></clipPath></defs><g clip-path="url(#clip2)" transform="translate(-1655 -20031)"><rect x="1656" y="20032" width="2100" height="1055" fill="#FFFFFF"/><g><path d="M1991.5 20279.5 2046.57 20279.5 2101.57 20279.5 2156.57 20279.5 2211.57 20279.5 2266.57 20279.5 2321.58 20279.5 2376.58 20279.5 2432.58 20279.5 2487.58 20279.5 2542.58 20279.5 2597.59 20279.5 2652.59 20279.5 2707.59 20279.5 2762.59 20279.5 2817.59 20279.5 2872.59 20279.5 2927.6 20279.5 2982.6 20279.5 3037.6 20279.5 3092.6 20279.5 3147.6 20279.5 3202.61 20279.5 3257.61 20279.5 3312.61 20279.5 3367.61 20279.5 3422.61 20279.5 3477.61 20279.5 3532.62 20279.5 3587.62 20279.5 3642.62 20279.5 3697.5 20279.5 3697.5 20934.5 3642.62 20934.5 3587.62 20934.5 3532.62 20934.5 3477.61 20934.5 3422.61 20934.5 3367.61 20934.5 3312.61 20934.5 3257.61 20934.5 3202.61 20934.5 3147.6 20934.5 3092.6 20934.5 3037.6 20934.5 2982.6 20934.5 2927.6 20934.5 2872.59 20934.5 2817.59 20934.5 2762.59 20934.5 2707.59 20934.5 2652.59 20934.5 2597.59 20934.5 2542.58 20934.5 2487.58 20934.5 2432.58 20934.5 2376.58 20934.5 2321.58 20934.5 2266.57 20934.5 2211.57 20934.5 2156.57 20934.5 2101.57 20934.5 2046.57 20934.5 1991.5 20934.5Z" stroke="#BFBFBF" stroke-width="3.4375" stroke-linejoin="round" stroke-miterlimit="10" stroke-opacity="0.501961" fill="#D9D9D9" fill-opacity="0.501961"/></g><g><path d="M1822.5 20606.5 3701.5 20606.5" stroke="#D9D9D9" stroke-width="3.4375" stroke-linejoin="round" stroke-miterlimit="10" fill="none" fill-rule="evenodd"/></g><g clip-path="url(#clip3)"><g filter="url(#fx0)" transform="translate(1813 20398)"><g><path d="M19.9817 206.898C38.3295 161.89 56.6769 101.498 75.025 71.8745 90.5098 46.8734 114.583-2.01758 130.069 29.1589 148.416 66.0992 166.764 271.23 185.112 293.517 203.46 315.804 221.808 154.979 240.156 162.881 258.503 170.783 276.851 350.982 295.199 340.93 313.547 330.878 331.894 114.309 350.243 102.568 368.59 90.8272 386.938 258.119 405.286 270.486 423.634 282.853 441.981 184.522 460.33 176.77 478.677 169.017 497.025 221.237 515.373 223.97 533.721 226.703 552.068 187.156 570.417 193.169 588.764 199.182 607.112 257.675 625.46 260.048 643.808 262.421 662.155 211.425 680.504 207.406 698.851 203.386 717.199 225.205 735.547 235.93 753.895 246.655 772.242 278.124 790.591 271.758 808.938 265.392 827.286 219.391 845.634 197.734 863.982 176.077 882.329 137.622 900.677 141.816 919.025 146.01 937.373 209.829 955.721 222.895 973.96 235.884 992.524 199.598 1010.76 220.214 1029.11 240.953 1047.46 345.668 1065.81 347.327 1084.16 348.986 1102.5 258.102 1120.85 230.17 1139.2 202.236 1157.55 176.037 1175.89 179.73 1194.24 183.422 1212.59 245.598 1230.94 252.326 1249.29 259.053 1276.81 225.468 1285.98 220.097" stroke="#FFB226" stroke-width="9" stroke-linecap="round" stroke-linejoin="round" stroke-miterlimit="10" fill="none"/></g></g></g><g clip-path="url(#clip4)"><g filter="url(#fx1)" transform="translate(1813 20414)"><g><path d="M19.9817 131.391C38.3295 106.064 56.6769 51.9088 75.025 55.4101 93.3728 58.9114 111.721 123.983 130.069 152.398 148.416 180.813 166.764 247.966 185.112 225.899 203.46 203.831 221.808 6.98242 240.156 19.9923 258.503 33.0019 276.851 299.933 295.199 303.958 313.547 307.982 331.894 69.6086 350.243 44.1397 368.59 18.6703 386.938 129.373 405.286 151.142 423.634 172.911 441.981 158.312 460.33 174.752 478.677 191.192 497.025 249.907 515.373 249.786 533.721 249.664 552.068 188.073 570.417 174.023 588.764 159.972 607.112 168.165 625.46 165.482 643.808 162.799 662.155 158.416 680.504 157.925 698.851 157.434 717.199 154.369 735.547 162.536 753.895 170.703 772.242 206.103 790.591 206.928 808.938 207.752 827.286 176.503 845.634 167.482 863.982 158.46 882.329 153.016 900.677 152.8 919.025 152.583 937.373 162.647 955.721 166.181 974.069 169.714 992.416 167.382 1010.76 174.002 1029.11 180.622 1047.46 214.916 1065.81 205.901 1084.16 196.885 1102.5 128.364 1120.85 119.908 1139.2 111.451 1157.55 142.583 1175.89 155.163 1194.24 167.741 1212.59 193.301 1230.94 195.381 1249.29 197.462 1276.81 172.268 1285.98 167.646" stroke="#000000" stroke-width="9" stroke-linecap="round" stroke-linejoin="round" stroke-miterlimit="10" fill="none"/></g></g></g><g><path d="M1826.5 20598.4C1844.85 20553.4 1863.2 20493 1881.54 20463.4 1897.03 20438.4 1921.1 20389.5 1936.59 20420.7 1954.93 20457.6 1973.28 20662.7 1991.63 20685 2009.98 20707.3 2028.33 20546.5 2046.67 20554.4 2065.02 20562.3 2083.37 20742.5 2101.72 20732.4 2120.06 20722.4 2138.41 20505.8 2156.76 20494.1 2175.11 20482.3 2193.46 20649.6 2211.8 20662 2230.15 20674.4 2248.5 20576 2266.85 20568.3 2285.2 20560.5 2303.54 20612.8 2321.89 20615.5 2340.24 20618.2 2358.59 20578.7 2376.93 20584.7 2395.28 20590.7 2413.63 20649.2 2431.98 20651.6 2450.33 20653.9 2468.67 20602.9 2487.02 20598.9 2505.37 20594.9 2523.72 20616.7 2542.06 20627.4 2560.41 20638.2 2578.76 20669.6 2597.11 20663.3 2615.46 20656.9 2633.8 20610.9 2652.15 20589.3 2670.5 20567.6 2688.85 20529.1 2707.2 20533.3 2725.54 20537.5 2743.89 20601.3 2762.24 20614.4 2780.48 20627.4 2799.04 20591.1 2817.28 20611.7 2835.63 20632.5 2853.98 20737.2 2872.33 20738.8 2890.67 20740.5 2909.02 20649.6 2927.37 20621.7 2945.72 20593.8 2964.06 20567.6 2982.41 20571.2 3000.76 20574.9 3019.11 20637.1 3037.46 20643.8 3055.8 20650.6 3083.33 20617 3092.5 20611.6" stroke="#FFB226" stroke-width="9.16667" stroke-linecap="round" stroke-linejoin="round" stroke-miterlimit="10" fill="none"/></g><g><path d="M1826.5 20538.9C1844.85 20513.6 1863.2 20459.4 1881.54 20462.9 1899.89 20466.4 1918.24 20531.5 1936.59 20559.9 1954.93 20588.3 1973.28 20655.5 1991.63 20633.4 2009.98 20611.3 2028.33 20414.5 2046.67 20427.5 2065.02 20440.5 2083.37 20707.5 2101.72 20711.5 2120.06 20715.5 2138.41 20477.1 2156.76 20451.7 2175.11 20426.2 2193.46 20536.9 2211.8 20558.7 2230.15 20580.4 2248.5 20565.8 2266.85 20582.3 2285.2 20598.7 2303.54 20657.4 2321.89 20657.3 2340.24 20657.2 2358.59 20595.6 2376.93 20581.5 2395.28 20567.5 2413.63 20575.7 2431.98 20573 2450.33 20570.3 2468.67 20565.9 2487.02 20565.4 2505.37 20565 2523.72 20561.9 2542.06 20570.1 2560.41 20578.2 2578.76 20613.6 2597.11 20614.4 2615.46 20615.3 2633.8 20584 2652.15 20575 2670.5 20566 2688.85 20560.5 2707.2 20560.3 2725.54 20560.1 2743.89 20570.2 2762.24 20573.7 2780.59 20577.2 2798.93 20574.9 2817.28 20581.5 2835.63 20588.1 2853.98 20622.4 2872.33 20613.4 2890.67 20604.4 2909.02 20535.9 2927.37 20527.4 2945.72 20519 2964.06 20550.1 2982.41 20562.7 3000.76 20575.3 3019.11 20600.8 3037.46 20602.9 3055.8 20605 3083.33 20579.8 3092.5 20575.2" stroke="#000000" stroke-width="9.16667" stroke-linecap="round" stroke-linejoin="round" stroke-miterlimit="10" fill="none"/></g><g><text font-family="Inter,Inter_MSFontService,sans-serif" font-weight="400" font-size="32" transform="matrix(1 0 0 1 1753.23 20944)">80</text></g><g><text font-family="Inter,Inter_MSFontService,sans-serif" font-weight="400" font-size="32" transform="matrix(1 0 0 1 1753 20781)">90</text></g><g><text font-family="Inter,Inter_MSFontService,sans-serif" font-weight="400" font-size="32" transform="matrix(1 0 0 1 1738.06 20617)">100</text></g><g><text font-family="Inter,Inter_MSFontService,sans-serif" font-weight="400" font-size="32" transform="matrix(1 0 0 1 1743.22 20453)">110</text></g><g><text font-family="Inter,Inter_MSFontService,sans-serif" font-weight="400" font-size="32" transform="matrix(1 0 0 1 1738.7 20290)">120</text></g><g><text font-family="Inter,Inter_MSFontService,sans-serif" font-weight="400" font-size="32" transform="matrix(0.707107 -0.707107 0.707107 0.707107 1789.66 21022)">12/7</text></g><g><text font-family="Inter,Inter_MSFontService,sans-serif" font-weight="400" font-size="32" transform="matrix(0.707107 -0.707107 0.707107 0.707107 1939.99 21037)">12/28</text></g><g><text font-family="Inter,Inter_MSFontService,sans-serif" font-weight="400" font-size="32" transform="matrix(0.707107 -0.707107 0.707107 0.707107 2122 21020)">1/18</text></g><g><text font-family="Inter,Inter_MSFontService,sans-serif" font-weight="400" font-size="32" transform="matrix(0.707107 -0.707107 0.707107 0.707107 2294.43 21013)">2/8</text></g><g><text font-family="Inter,Inter_MSFontService,sans-serif" font-weight="400" font-size="32" transform="matrix(0.707107 -0.707107 0.707107 0.707107 2462.26 21010)">3/1</text></g><g><text font-family="Inter,Inter_MSFontService,sans-serif" font-weight="400" font-size="32" transform="matrix(0.707107 -0.707107 0.707107 0.707107 2610.44 21027)">3/22</text></g><g><text font-family="Inter,Inter_MSFontService,sans-serif" font-weight="400" font-size="32" transform="matrix(0.707107 -0.707107 0.707107 0.707107 2778.59 21024)">4/12</text></g><g><text font-family="Inter,Inter_MSFontService,sans-serif" font-weight="400" font-size="32" transform="matrix(0.707107 -0.707107 0.707107 0.707107 2954.28 21013)">5/3</text></g><g><text font-family="Inter,Inter_MSFontService,sans-serif" font-weight="400" font-size="32" transform="matrix(0.707107 -0.707107 0.707107 0.707107 3105.52 21027)">5/24</text></g><g><text font-family="Inter,Inter_MSFontService,sans-serif" font-weight="400" font-size="32" transform="matrix(0.707107 -0.707107 0.707107 0.707107 3273.45 21024)">6/14</text></g><g><text font-family="Inter,Inter_MSFontService,sans-serif" font-weight="400" font-size="32" transform="matrix(0.707107 -0.707107 0.707107 0.707107 3451.05 21012)">7/5</text></g><g><text font-family="Inter,Inter_MSFontService,sans-serif" font-weight="400" font-size="32" transform="matrix(0.707107 -0.707107 0.707107 0.707107 3602.06 21026)">7/26</text></g><g><text font-family="Inter Medium,Inter Medium_MSFontService,sans-serif" font-weight="700" font-size="46" transform="matrix(1 0 0 1 1739.7 20121)">U.S. Hotel Occupancy and ADR Recovery Levels</text></g><g><path d="M1730.5 20215.5 1818.5 20215.5" stroke="#FFB226" stroke-width="9.16667" stroke-linecap="round" stroke-linejoin="round" stroke-miterlimit="10" fill="none" fill-rule="evenodd"/></g><g><text font-family="Inter Medium,Inter Medium_MSFontService,sans-serif" font-weight="500" font-size="37" transform="matrix(1 0 0 1 1828.02 20228)">Occ Index</text></g><g><path d="M2054.5 20215.5 2142.5 20215.5" stroke="#000000" stroke-width="9.16667" stroke-linecap="round" stroke-linejoin="round" stroke-miterlimit="10" fill="none" fill-rule="evenodd"/></g><g><text font-family="Inter Medium,Inter Medium_MSFontService,sans-serif" font-weight="500" font-size="37" transform="matrix(1 0 0 1 2152.23 20228)">ADR Index</text></g><rect x="1656.5" y="20032.5" width="2100" height="1055" stroke="#D9D9D9" stroke-width="3.4375" stroke-linejoin="round" stroke-miterlimit="10" fill="none"/><g><text fill="#7F7F7F" font-family="Inter,Inter_MSFontService,sans-serif" font-weight="400" font-size="32" transform="matrix(1 0 0 1 1737.48 20176)">YOY, Source: STR, str.com</text></g><g><g><text font-family="Inter Medium,Inter Medium_MSFontService,sans-serif" font-weight="700" font-size="37" transform="matrix(1 0 0 1 2050.78 21060)">2025</text></g></g></g></svg>