<svg width="2106" height="1095" xmlns="http://www.w3.org/2000/svg" xmlns:xlink="http://www.w3.org/1999/xlink" xml:space="preserve" overflow="hidden"><defs><filter id="fx0" x="-10%" y="-10%" width="120%" height="120%" filterUnits="userSpaceOnUse" primitiveUnits="userSpaceOnUse"><feComponentTransfer color-interpolation-filters="sRGB"><feFuncR type="discrete" tableValues="0 0"/><feFuncG type="discrete" tableValues="0 0"/><feFuncB type="discrete" tableValues="0 0"/><feFuncA type="linear" slope="0.501961" intercept="0"/></feComponentTransfer><feGaussianBlur stdDeviation="4.58333 4.58333"/></filter><filter id="fx1" x="-10%" y="-10%" width="120%" height="120%" filterUnits="userSpaceOnUse" primitiveUnits="userSpaceOnUse"><feComponentTransfer color-interpolation-filters="sRGB"><feFuncR type="discrete" tableValues="0 0"/><feFuncG type="discrete" tableValues="0 0"/><feFuncB type="discrete" tableValues="0 0"/><feFuncA type="linear" slope="0.501961" intercept="0"/></feComponentTransfer><feGaussianBlur stdDeviation="4.58333 4.58333"/></filter><clipPath id="clip2"><rect x="1657" y="20745" width="2106" height="1095"/></clipPath><clipPath id="clip3"><rect x="1825" y="21002" width="1885" height="681"/></clipPath><clipPath id="clip4"><rect x="1825" y="21002" width="1885" height="681"/></clipPath></defs><g clip-path="url(#clip2)" transform="translate(-1657 -20745)"><rect x="1658" y="20746" width="2103" height="1092" fill="#FFFFFF"/><g><rect x="1825" y="21002" width="1882" height="678" fill="#F2F2F2"/></g><g><path d="M1825.5 21228.5 3707.5 21228.5" stroke="#D9D9D9" stroke-width="3.4375" stroke-linejoin="round" stroke-miterlimit="10" fill="none" fill-rule="evenodd"/></g><g clip-path="url(#clip3)"><g filter="url(#fx0)" transform="translate(1815 21113)"><g><path d="M19.9817 110.718C34.1939 123.899 48.406 135.392 62.6182 150.26 76.83 165.128 91.0422 208.751 105.254 199.926 119.466 191.101 133.679 127.332 147.891 97.3106 162.103 67.2888 176.315 13.9824 190.527 19.7959 204.739 25.6089 218.951 114.077 233.163 132.19 242.66 144.294 266.303 109.263 275.8 128.474 290.012 157.223 304.224 302.382 318.436 304.683 332.648 306.983 346.86 180.996 361.073 142.274 375.185 103.823 389.596 67.2692 403.709 72.3525 417.921 77.4713 432.133 163.661 446.345 172.988 460.557 182.314 474.77 135.762 488.982 128.311 503.194 120.86 517.406 123.313 531.618 128.281 545.83 133.25 560.042 147.764 574.254 158.121 588.467 168.478 602.679 187.383 616.891 190.423 631.103 193.463 645.315 193.264 659.527 176.361 673.739 159.457 687.951 98.1297 702.164 89.0013 716.375 79.8728 730.587 114.927 744.8 121.59 759.011 128.253 773.224 118.07 787.436 128.98 801.648 139.889 815.86 178.524 830.073 187.05 844.284 195.577 858.497 188.427 872.709 180.139 886.921 171.85 901.133 147.621 915.345 137.319 929.557 127.016 950.876 121.492 957.982 118.327" stroke="#FFB226" stroke-width="9" stroke-linecap="round" stroke-linejoin="round" stroke-miterlimit="10" fill="none"/></g></g></g><g clip-path="url(#clip4)"><g filter="url(#fx1)" transform="translate(1815 21103)"><g><path d="M19.9817 74.2144C34.1939 76.3384 48.406 69.2988 62.6182 80.5867 76.83 91.8743 91.0422 140.802 105.254 141.942 119.466 143.081 133.679 99.8909 147.891 87.4226 162.103 74.9539 176.315 67.4298 190.527 67.1304 204.739 66.8306 218.951 80.7404 233.163 85.6247 247.376 90.5086 261.588 87.2848 275.8 96.4343 290.012 105.584 304.224 152.982 318.436 140.522 332.648 128.061 346.86 33.3577 361.073 21.6701 375.285 9.98242 389.497 53.0103 403.709 70.3957 417.921 87.7811 432.133 123.107 446.345 125.982 460.557 128.858 474.77 95.7904 488.982 87.6491 503.194 79.5074 517.406 71.2676 531.618 77.1327 545.83 82.9975 560.042 115.267 574.254 122.839 588.467 130.412 602.679 125.072 616.891 122.566 631.103 120.06 645.315 115.396 659.527 107.802 673.739 100.208 687.951 74.1073 702.164 77.0029 716.375 79.8981 730.587 114.672 744.8 125.175 759.011 135.677 773.224 139.386 787.436 140.02 801.648 140.653 815.86 129.363 830.073 128.975 844.284 128.588 858.497 138.178 872.709 137.694 886.921 137.209 901.133 130.252 915.345 126.067 929.557 121.882 950.876 114.831 957.982 112.584" stroke="#000000" stroke-width="9" stroke-linecap="round" stroke-linejoin="round" stroke-miterlimit="10" fill="none"/></g></g></g><g><path d="M1828.5 21217.2C1842.71 21230.4 1856.92 21241.9 1871.14 21256.8 1885.35 21271.6 1899.56 21315.3 1913.77 21306.4 1927.98 21297.6 1942.2 21233.8 1956.41 21203.8 1970.62 21173.8 1984.83 21120.5 1999.05 21126.3 2013.26 21132.1 2027.47 21220.6 2041.68 21238.7 2051.18 21250.8 2074.82 21215.8 2084.32 21235 2098.53 21263.7 2112.74 21408.9 2126.95 21411.2 2141.17 21413.5 2155.38 21287.5 2169.59 21248.8 2183.7 21210.3 2198.11 21173.8 2212.23 21178.9 2226.44 21184 2240.65 21270.2 2254.86 21279.5 2269.08 21288.8 2283.29 21242.3 2297.5 21234.8 2311.71 21227.4 2325.92 21229.8 2340.14 21234.8 2354.35 21239.8 2368.56 21254.3 2382.77 21264.6 2396.98 21275 2411.2 21293.9 2425.41 21296.9 2439.62 21300 2453.83 21299.8 2468.05 21282.9 2482.26 21266 2496.47 21204.6 2510.68 21195.5 2524.89 21186.4 2539.11 21221.4 2553.32 21228.1 2567.53 21234.8 2581.74 21224.6 2595.95 21235.5 2610.17 21246.4 2624.38 21285 2638.59 21293.6 2652.8 21302.1 2667.01 21294.9 2681.23 21286.7 2695.44 21278.4 2709.65 21254.1 2723.86 21243.8 2738.08 21233.5 2759.39 21228 2766.5 21224.8" stroke="#FFB226" stroke-width="9.16667" stroke-linecap="round" stroke-linejoin="round" stroke-miterlimit="10" fill="none"/></g><g><path d="M1828.5 21170.7C1842.71 21172.9 1856.92 21165.8 1871.14 21177.1 1885.35 21188.4 1899.56 21237.3 1913.77 21238.5 1927.98 21239.6 1942.2 21196.4 1956.41 21183.9 1970.62 21171.5 1984.83 21163.9 1999.05 21163.6 2013.26 21163.3 2027.47 21177.3 2041.68 21182.1 2055.89 21187 2070.11 21183.8 2084.32 21193 2098.53 21202.1 2112.74 21249.5 2126.95 21237 2141.17 21224.6 2155.38 21129.9 2169.59 21118.2 2183.8 21106.5 2198.02 21149.5 2212.23 21166.9 2226.44 21184.3 2240.65 21219.6 2254.86 21222.5 2269.08 21225.4 2283.29 21192.3 2297.5 21184.2 2311.71 21176 2325.92 21167.8 2340.14 21173.7 2354.35 21179.5 2368.56 21211.8 2382.77 21219.4 2396.98 21226.9 2411.2 21221.6 2425.41 21219.1 2439.62 21216.6 2453.83 21211.9 2468.05 21204.3 2482.26 21196.7 2496.47 21170.6 2510.68 21173.5 2524.89 21176.4 2539.11 21211.2 2553.32 21221.7 2567.53 21232.2 2581.74 21235.9 2595.95 21236.5 2610.17 21237.2 2624.38 21225.9 2638.59 21225.5 2652.8 21225.1 2667.01 21234.7 2681.23 21234.2 2695.44 21233.7 2709.65 21226.8 2723.86 21222.6 2738.08 21218.4 2759.39 21211.3 2766.5 21209.1" stroke="#000000" stroke-width="9.16667" stroke-linecap="round" stroke-linejoin="round" stroke-miterlimit="10" fill="none"/></g><g><text font-family="Inter,Inter_MSFontService,sans-serif" font-weight="400" font-size="32" transform="matrix(1 0 0 1 1755.7 21690)">80</text></g><g><text font-family="Inter,Inter_MSFontService,sans-serif" font-weight="400" font-size="32" transform="matrix(1 0 0 1 1755.47 21464)">90</text></g><g><text font-family="Inter,Inter_MSFontService,sans-serif" font-weight="400" font-size="32" transform="matrix(1 0 0 1 1740.53 21238)">100</text></g><g><text font-family="Inter,Inter_MSFontService,sans-serif" font-weight="400" font-size="32" transform="matrix(1 0 0 1 1745.68 21012)">110</text></g><g><text font-family="Inter,Inter_MSFontService,sans-serif" font-weight="400" font-size="32" transform="matrix(0.707107 -0.707107 0.707107 0.707107 1803.48 21756)">3/1</text></g><g><text font-family="Inter,Inter_MSFontService,sans-serif" font-weight="400" font-size="32" transform="matrix(0.707107 -0.707107 0.707107 0.707107 1914.44 21773)">3/22</text></g><g><text font-family="Inter,Inter_MSFontService,sans-serif" font-weight="400" font-size="32" transform="matrix(0.707107 -0.707107 0.707107 0.707107 2045.39 21770)">4/12</text></g><g><text font-family="Inter,Inter_MSFontService,sans-serif" font-weight="400" font-size="32" transform="matrix(0.707107 -0.707107 0.707107 0.707107 2183.87 21759)">5/3</text></g><g><text font-family="Inter,Inter_MSFontService,sans-serif" font-weight="400" font-size="32" transform="matrix(0.707107 -0.707107 0.707107 0.707107 2297.9 21773)">5/24</text></g><g><text font-family="Inter,Inter_MSFontService,sans-serif" font-weight="400" font-size="32" transform="matrix(0.707107 -0.707107 0.707107 0.707107 2428.62 21770)">6/14</text></g><g><text font-family="Inter,Inter_MSFontService,sans-serif" font-weight="400" font-size="32" transform="matrix(0.707107 -0.707107 0.707107 0.707107 2569.02 21758)">7/5</text></g><g><text font-family="Inter,Inter_MSFontService,sans-serif" font-weight="400" font-size="32" transform="matrix(0.707107 -0.707107 0.707107 0.707107 2682.82 21772)">7/26</text></g><g><text font-family="Inter,Inter_MSFontService,sans-serif" font-weight="400" font-size="32" transform="matrix(0.707107 -0.707107 0.707107 0.707107 2812.86 21770)">8/16</text></g><g><text font-family="Inter,Inter_MSFontService,sans-serif" font-weight="400" font-size="32" transform="matrix(0.707107 -0.707107 0.707107 0.707107 2951.11 21759)">9/6</text></g><g><text font-family="Inter,Inter_MSFontService,sans-serif" font-weight="400" font-size="32" transform="matrix(0.707107 -0.707107 0.707107 0.707107 3066.47 21772)">9/27</text></g><g><text font-family="Inter,Inter_MSFontService,sans-serif" font-weight="400" font-size="32" transform="matrix(0.707107 -0.707107 0.707107 0.707107 3185.95 21780)">10/18</text></g><g><text font-family="Inter,Inter_MSFontService,sans-serif" font-weight="400" font-size="32" transform="matrix(0.707107 -0.707107 0.707107 0.707107 3328.01 21766)">11/8</text></g><g><text font-family="Inter,Inter_MSFontService,sans-serif" font-weight="400" font-size="32" transform="matrix(0.707107 -0.707107 0.707107 0.707107 3442.01 21780)">11/29</text></g><g><text font-family="Inter,Inter_MSFontService,sans-serif" font-weight="400" font-size="32" transform="matrix(0.707107 -0.707107 0.707107 0.707107 3566.67 21783)">12/20</text></g><g><text font-family="Inter Medium,Inter Medium_MSFontService,sans-serif" font-weight="700" font-size="46" transform="matrix(1 0 0 1 1742.02 20836)">U.S. Hotel Occupancy and ADR Recovery Levels</text></g><g><path d="M1733.5 20936.5 1821.5 20936.5" stroke="#FFB226" stroke-width="9.16667" stroke-linecap="round" stroke-linejoin="round" stroke-miterlimit="10" fill="none" fill-rule="evenodd"/></g><g><text font-family="Inter Medium,Inter Medium_MSFontService,sans-serif" font-weight="500" font-size="37" transform="matrix(1 0 0 1 1830.61 20948)">Occ Index</text></g><g><path d="M2057.5 20936.5 2145.5 20936.5" stroke="#000000" stroke-width="9.16667" stroke-linecap="round" stroke-linejoin="round" stroke-miterlimit="10" fill="none" fill-rule="evenodd"/></g><g><text font-family="Inter Medium,Inter Medium_MSFontService,sans-serif" font-weight="500" font-size="37" transform="matrix(1 0 0 1 2155.16 20948)">ADR Index</text></g><rect x="1658.5" y="20746.5" width="2103" height="1092" stroke="#D9D9D9" stroke-width="3.4375" stroke-linejoin="round" stroke-miterlimit="10" fill="none"/><g><text fill="#7F7F7F" font-family="Inter,Inter_MSFontService,sans-serif" font-weight="400" font-size="32" transform="matrix(1 0 0 1 1739.76 20893)">YOY, Source: STR, str.com</text></g></g></svg>