<svg width="2106" height="1094" xmlns="http://www.w3.org/2000/svg" xmlns:xlink="http://www.w3.org/1999/xlink" xml:space="preserve" overflow="hidden"><defs><filter id="fx0" x="-10%" y="-10%" width="120%" height="120%" filterUnits="userSpaceOnUse" primitiveUnits="userSpaceOnUse"><feComponentTransfer color-interpolation-filters="sRGB"><feFuncR type="discrete" tableValues="0 0"/><feFuncG type="discrete" tableValues="0 0"/><feFuncB type="discrete" tableValues="0 0"/><feFuncA type="linear" slope="0.501961" intercept="0"/></feComponentTransfer><feGaussianBlur stdDeviation="4.58333 4.58333"/></filter><filter id="fx1" x="-10%" y="-10%" width="120%" height="120%" filterUnits="userSpaceOnUse" primitiveUnits="userSpaceOnUse"><feComponentTransfer color-interpolation-filters="sRGB"><feFuncR type="discrete" tableValues="0 0"/><feFuncG type="discrete" tableValues="0 0"/><feFuncB type="discrete" tableValues="0 0"/><feFuncA type="linear" slope="0.501961" intercept="0"/></feComponentTransfer><feGaussianBlur stdDeviation="4.58333 4.58333"/></filter><clipPath id="clip2"><rect x="1811" y="24065" width="2106" height="1094"/></clipPath><clipPath id="clip3"><rect x="1978" y="24322" width="1885" height="680"/></clipPath><clipPath id="clip4"><rect x="1978" y="24322" width="1885" height="680"/></clipPath></defs><g clip-path="url(#clip2)" transform="translate(-1811 -24065)"><rect x="1812" y="24066" width="2103" height="1091" fill="#FFFFFF"/><g><rect x="1979" y="24322" width="1882" height="677" fill="#F2F2F2"/></g><g><path d="M1978.5 24547.5 3860.5 24547.5" stroke="#D9D9D9" stroke-width="3.4375" stroke-linejoin="round" stroke-miterlimit="10" fill="none" fill-rule="evenodd"/></g><g clip-path="url(#clip3)"><g filter="url(#fx0)" transform="translate(1971 24477)"><g><path d="M19.9818 74.2066C48.3149 82.9225 76.6483 96.4537 104.982 100.354 133.315 104.255 161.648 97.4598 189.982 97.6101 218.315 97.7601 246.648 101.684 274.982 101.256 303.315 100.827 331.648 98.358 359.982 95.0382 388.315 91.718 416.648 77.516 444.982 81.3358 473.315 85.1553 501.648 114.253 529.982 117.955 558.315 121.658 586.648 94.9633 614.982 103.551 643.315 112.138 671.648 162.978 699.982 169.481 728.315 175.982 756.648 151.506 784.982 142.564 813.315 133.621 841.648 118.123 869.982 115.823 898.315 113.523 926.649 122.125 954.982 128.762 983.315 135.399 1011.65 154.955 1039.98 155.647 1068.32 156.339 1096.65 155.524 1124.98 132.914 1153.31 110.303 1195.82 38.8043 1209.98 19.9824" stroke="#FFB226" stroke-width="9" stroke-linecap="round" stroke-linejoin="round" stroke-miterlimit="10" fill="none"/></g></g></g><g clip-path="url(#clip4)"><g filter="url(#fx1)" transform="translate(1971 24439)"><g><path d="M19.9818 95.7684C48.3149 101.65 76.6483 112.976 104.982 113.413 133.315 113.849 161.648 98.8103 189.982 98.3896 218.315 97.9684 246.648 113.477 274.982 110.887 303.315 108.296 331.648 81.7671 359.982 82.8473 388.315 83.9271 416.648 113.519 444.982 117.367 473.315 121.214 501.648 106.707 529.982 105.93 558.315 105.153 586.648 102.88 614.982 112.705 643.315 122.53 671.648 174.982 699.982 164.879 728.315 154.775 756.648 71.6319 784.982 52.0844 813.315 32.5365 841.648 44.3627 869.982 47.592 898.315 50.821 926.649 55.0188 954.982 71.4592 983.315 87.8992 1011.65 141.624 1039.98 146.233 1068.32 150.842 1096.65 120.157 1124.98 99.1153 1153.31 78.0734 1195.82 33.1711 1209.98 19.9824" stroke="#000000" stroke-width="9" stroke-linecap="round" stroke-linejoin="round" stroke-miterlimit="10" fill="none"/></g></g></g><g><path d="M1984.5 24544.7C2012.83 24553.4 2041.17 24567 2069.5 24570.9 2097.83 24574.8 2126.17 24568 2154.5 24568.1 2182.83 24568.3 2211.17 24572.2 2239.5 24571.8 2267.83 24571.3 2296.17 24568.9 2324.5 24565.6 2352.83 24562.2 2381.17 24548 2409.5 24551.9 2437.83 24555.7 2466.17 24584.8 2494.5 24588.5 2522.83 24592.2 2551.17 24565.5 2579.5 24574.1 2607.83 24582.7 2636.17 24633.5 2664.5 24640 2692.83 24646.5 2721.17 24622 2749.5 24613.1 2777.83 24604.1 2806.17 24588.6 2834.5 24586.3 2862.83 24584 2891.17 24592.6 2919.5 24599.3 2947.83 24605.9 2976.17 24625.5 3004.5 24626.2 3032.83 24626.9 3061.17 24626 3089.5 24603.4 3117.83 24580.8 3160.33 24509.3 3174.5 24490.5" stroke="#FFB226" stroke-width="9.16667" stroke-linecap="round" stroke-linejoin="round" stroke-miterlimit="10" fill="none"/></g><g><path d="M1984.5 24528.3C2012.83 24534.2 2041.17 24545.5 2069.5 24545.9 2097.83 24546.4 2126.17 24531.3 2154.5 24530.9 2182.83 24530.5 2211.17 24546 2239.5 24543.4 2267.83 24540.8 2296.17 24514.3 2324.5 24515.4 2352.83 24516.4 2381.17 24546 2409.5 24549.9 2437.83 24553.7 2466.17 24539.2 2494.5 24538.4 2522.83 24537.7 2551.17 24535.4 2579.5 24545.2 2607.83 24555 2636.17 24607.5 2664.5 24597.4 2692.83 24587.3 2721.17 24504.2 2749.5 24484.6 2777.83 24465.1 2806.17 24476.9 2834.5 24480.1 2862.83 24483.3 2891.17 24487.5 2919.5 24504 2947.83 24520.4 2976.17 24574.1 3004.5 24578.8 3032.83 24583.4 3061.17 24552.7 3089.5 24531.6 3117.83 24510.6 3160.33 24465.7 3174.5 24452.5" stroke="#000000" stroke-width="9.16667" stroke-linecap="round" stroke-linejoin="round" stroke-miterlimit="10" fill="none"/></g><g><text font-family="Inter,Inter_MSFontService,sans-serif" font-weight="400" font-size="32" transform="matrix(1 0 0 1 1909.24 25009)">80</text></g><g><text font-family="Inter,Inter_MSFontService,sans-serif" font-weight="400" font-size="32" transform="matrix(1 0 0 1 1909.01 24783)">90</text></g><g><text font-family="Inter,Inter_MSFontService,sans-serif" font-weight="400" font-size="32" transform="matrix(1 0 0 1 1894.07 24558)">100</text></g><g><text font-family="Inter,Inter_MSFontService,sans-serif" font-weight="400" font-size="32" transform="matrix(1 0 0 1 1899.22 24332)">110</text></g><g><text font-family="Inter,Inter_MSFontService,sans-serif" font-weight="400" font-size="32" transform="matrix(0.707107 -0.707107 0.707107 0.707107 1957.31 25077)">8/2</text></g><g><text font-family="Inter,Inter_MSFontService,sans-serif" font-weight="400" font-size="32" transform="matrix(0.707107 -0.707107 0.707107 0.707107 2197.81 25092)">8/23</text></g><g><text font-family="Inter,Inter_MSFontService,sans-serif" font-weight="400" font-size="32" transform="matrix(0.707107 -0.707107 0.707107 0.707107 2455.78 25089)">9/13</text></g><g><text font-family="Inter,Inter_MSFontService,sans-serif" font-weight="400" font-size="32" transform="matrix(0.707107 -0.707107 0.707107 0.707107 2710.57 25089)">10/4</text></g><g><text font-family="Inter,Inter_MSFontService,sans-serif" font-weight="400" font-size="32" transform="matrix(0.707107 -0.707107 0.707107 0.707107 2952.56 25102)">10/25</text></g><g><text font-family="Inter,Inter_MSFontService,sans-serif" font-weight="400" font-size="32" transform="matrix(0.707107 -0.707107 0.707107 0.707107 3214.34 25095)">11/15</text></g><g><text font-family="Inter,Inter_MSFontService,sans-serif" font-weight="400" font-size="32" transform="matrix(0.707107 -0.707107 0.707107 0.707107 3476.27 25088)">12/6</text></g><g><text font-family="Inter,Inter_MSFontService,sans-serif" font-weight="400" font-size="32" transform="matrix(0.707107 -0.707107 0.707107 0.707107 3718.69 25101)">12/27</text></g><g><text font-family="Inter Medium,Inter Medium_MSFontService,sans-serif" font-weight="700" font-size="46" transform="matrix(1 0 0 1 1895.56 24157)">U.S. Hotel Occupancy and ADR Recovery Levels</text></g><g><path d="M1886.5 24256.5 1974.5 24256.5" stroke="#FFB226" stroke-width="9.16667" stroke-linecap="round" stroke-linejoin="round" stroke-miterlimit="10" fill="none" fill-rule="evenodd"/></g><g><text font-family="Inter Medium,Inter Medium_MSFontService,sans-serif" font-weight="500" font-size="37" transform="matrix(1 0 0 1 1984.15 24268)">Occ Index</text></g><g><path d="M2211.5 24256.5 2299.5 24256.5" stroke="#000000" stroke-width="9.16667" stroke-linecap="round" stroke-linejoin="round" stroke-miterlimit="10" fill="none" fill-rule="evenodd"/></g><g><text font-family="Inter Medium,Inter Medium_MSFontService,sans-serif" font-weight="500" font-size="37" transform="matrix(1 0 0 1 2308.7 24268)">ADR Index</text></g><rect x="1812.5" y="24066.5" width="2103" height="1091" stroke="#D9D9D9" stroke-width="3.4375" stroke-linejoin="round" stroke-miterlimit="10" fill="none"/><g><text fill="#7F7F7F" font-family="Inter,Inter_MSFontService,sans-serif" font-weight="400" font-size="32" transform="matrix(1 0 0 1 1893.3 24213)">YOY, Source: STR, str.com</text></g></g></svg>