<svg width="2111" height="1095" xmlns="http://www.w3.org/2000/svg" xmlns:xlink="http://www.w3.org/1999/xlink" xml:space="preserve" overflow="hidden"><defs><filter id="fx0" x="-10%" y="-10%" width="120%" height="120%" filterUnits="userSpaceOnUse" primitiveUnits="userSpaceOnUse"><feComponentTransfer color-interpolation-filters="sRGB"><feFuncR type="discrete" tableValues="0 0"/><feFuncG type="discrete" tableValues="0 0"/><feFuncB type="discrete" tableValues="0 0"/><feFuncA type="linear" slope="0.501961" intercept="0"/></feComponentTransfer><feGaussianBlur stdDeviation="4.58333 4.58333"/></filter><filter id="fx1" x="-10%" y="-10%" width="120%" height="120%" filterUnits="userSpaceOnUse" primitiveUnits="userSpaceOnUse"><feComponentTransfer color-interpolation-filters="sRGB"><feFuncR type="discrete" tableValues="0 0"/><feFuncG type="discrete" tableValues="0 0"/><feFuncB type="discrete" tableValues="0 0"/><feFuncA type="linear" slope="0.501961" intercept="0"/></feComponentTransfer><feGaussianBlur stdDeviation="4.58333 4.58333"/></filter><clipPath id="clip2"><rect x="1660" y="20745" width="2111" height="1095"/></clipPath><clipPath id="clip3"><rect x="1828" y="21002" width="1890" height="681"/></clipPath><clipPath id="clip4"><rect x="1828" y="21002" width="1890" height="681"/></clipPath></defs><g clip-path="url(#clip2)" transform="translate(-1660 -20745)"><rect x="1661" y="20746" width="2108" height="1092" fill="#FFFFFF"/><g><path d="M3315.5 21002.5 3365.61 21002.5 3414.61 21002.5 3464.61 21002.5 3513.62 21002.5 3562.62 21002.5 3612.62 21002.5 3661.5 21002.5 3661.5 21680.5 3612.62 21680.5 3562.62 21680.5 3513.62 21680.5 3464.61 21680.5 3414.61 21680.5 3365.61 21680.5 3315.5 21680.5Z" stroke="#BFBFBF" stroke-width="3.4375" stroke-linejoin="round" stroke-miterlimit="10" stroke-opacity="0.501961" fill="#D9D9D9" fill-opacity="0.501961"/></g><g><path d="M1828.5 21409.5 3714.5 21409.5" stroke="#D9D9D9" stroke-width="3.4375" stroke-linejoin="round" stroke-miterlimit="10" fill="none" fill-rule="evenodd"/></g><g clip-path="url(#clip3)"><g filter="url(#fx0)" transform="translate(1819 21112)"><g><path d="M19.9818 294.973C36.4633 299.867 52.9444 306.588 69.4262 309.655 85.9076 312.722 102.389 308.331 118.871 313.374 135.352 318.415 151.834 347.978 168.315 339.908 184.797 331.837 201.278 269.14 217.76 264.95 234.241 260.76 250.722 299.499 267.204 314.77 283.685 330.04 300.167 360.266 316.649 356.574 333.13 352.881 349.612 300.787 366.093 292.616 382.575 284.444 399.056 307.327 415.537 307.547 432.019 307.767 448.5 295.889 464.982 293.937 481.463 291.986 497.944 293.859 514.426 295.838 530.908 297.817 547.389 308.317 563.871 305.813 580.352 303.309 596.834 285.484 613.315 280.817 629.797 276.15 646.278 264.601 662.76 277.809 679.241 291.017 695.722 352.057 712.204 360.063 728.685 368.068 745.167 336.542 761.649 325.842 778.13 315.142 794.612 305.303 811.093 295.861 827.575 286.42 844.056 260.53 860.537 269.192 877.019 277.854 893.5 348.01 909.982 347.832 926.463 347.653 942.945 279.067 959.426 268.12 975.908 257.172 992.389 286.487 1008.87 282.148 1025.35 277.81 1041.83 242.651 1058.32 242.089 1074.8 241.527 1091.28 260.814 1107.76 278.778 1124.24 296.741 1140.72 348.965 1157.2 349.871 1169.03 350.52 1194.82 323.579 1206.65 284.21 1223.13 229.361 1239.61-0.0175781 1256.09 20.7758 1272.57 41.5688 1289.06 362.958 1305.54 408.97 1322.02 454.982 1338.5 334.233 1354.98 296.851 1371.46 259.468 1387.94 209.287 1404.43 184.678 1418.83 163.171 1439.47 122.372 1453.87 149.191 1470.35 179.88 1486.83 350.295 1503.32 368.811 1519.8 387.326 1536.28 253.717 1552.76 260.283 1569.24 266.847 1585.72 416.55 1602.2 408.2 1618.69 399.848 1635.17 219.93 1651.65 210.177 1668.13 200.423 1684.61 339.402 1701.09 349.677 1717.57 359.951 1734.06 278.261 1750.54 271.821 1767.02 265.38 1791.74 304.498 1799.98 311.033" stroke="#FFB226" stroke-width="9" stroke-linecap="round" stroke-linejoin="round" stroke-miterlimit="10" fill="none"/></g></g></g><g clip-path="url(#clip4)"><g filter="url(#fx1)" transform="translate(1819 21247)"><g><path d="M19.9818 163.111C36.4633 155.705 52.9444 142.659 69.4262 140.892 85.9076 139.126 102.389 149.172 118.871 152.513 135.352 155.854 151.834 167.717 168.315 160.936 184.797 154.155 201.278 112.69 217.76 111.826 234.241 110.961 250.722 143.823 267.204 155.749 283.685 167.675 300.167 187.21 316.649 183.382 333.13 179.554 349.612 138.925 366.093 132.783 382.575 126.641 399.056 142.768 415.537 146.527 432.019 150.285 448.5 156.035 464.982 155.334 481.463 154.632 497.944 143.429 514.426 142.32 530.908 141.21 547.389 151.182 563.871 148.676 580.352 146.169 596.834 128.709 613.315 127.284 629.797 125.857 646.278 131.783 662.76 140.12 679.241 148.457 695.722 173.848 712.204 177.306 728.685 180.764 745.167 167.582 761.649 160.868 778.13 154.154 794.612 153.395 811.093 137.025 827.575 120.654 844.056 47.8273 860.537 62.6449 877.019 77.4621 893.5 211.909 909.982 225.93 926.463 239.95 942.945 162.528 959.426 146.767 975.908 131.007 992.389 138.683 1008.87 131.366 1025.35 124.048 1041.83 99.7654 1058.32 102.86 1074.8 105.955 1091.28 139.154 1107.76 149.936 1124.24 160.718 1140.72 162.298 1157.2 167.554 1173.64 172.795 1190.21 201.156 1206.65 181.471 1223.13 161.731 1239.61 45.3987 1256.09 49.1199 1272.57 52.8407 1289.06 193.333 1305.54 203.796 1322.02 214.259 1338.5 137.69 1354.98 111.898 1371.46 86.1061 1387.94 46.1475 1404.43 49.044 1420.91 51.94 1437.39 105.771 1453.87 129.277 1470.35 152.783 1486.83 208.335 1503.32 190.08 1519.8 171.824 1536.28 8.98242 1552.76 19.7449 1569.24 30.5069 1585.72 251.324 1602.2 254.653 1618.69 257.982 1635.17 60.7895 1651.65 39.7206 1668.13 18.6513 1684.61 110.229 1701.09 128.238 1717.57 146.246 1734.06 134.169 1750.54 147.769 1767.02 161.369 1791.74 199.495 1799.98 209.84" stroke="#000000" stroke-width="9" stroke-linecap="round" stroke-linejoin="round" stroke-miterlimit="10" fill="none"/></g></g></g><g><path d="M1832.5 21400.5C1848.98 21405.4 1865.46 21412.1 1881.94 21415.2 1898.43 21418.2 1914.91 21413.8 1931.39 21418.9 1947.87 21423.9 1964.35 21453.5 1980.83 21445.4 1997.31 21437.4 2013.8 21374.7 2030.28 21370.5 2046.76 21366.3 2063.24 21405 2079.72 21420.3 2096.2 21435.6 2112.69 21465.8 2129.17 21462.1 2145.65 21458.4 2162.13 21406.3 2178.61 21398.1 2195.09 21390 2211.57 21412.8 2228.06 21413.1 2244.54 21413.3 2261.02 21401.4 2277.5 21399.5 2293.98 21397.5 2310.46 21399.4 2326.94 21401.4 2343.43 21403.3 2359.91 21413.8 2376.39 21411.3 2392.87 21408.8 2409.35 21391 2425.83 21386.3 2442.31 21381.7 2458.8 21370.1 2475.28 21383.3 2491.76 21396.5 2508.24 21457.6 2524.72 21465.6 2541.2 21473.6 2557.69 21442.1 2574.17 21431.4 2590.65 21420.7 2607.13 21410.8 2623.61 21401.4 2640.09 21391.9 2656.57 21366 2673.06 21374.7 2689.54 21383.4 2706.02 21453.5 2722.5 21453.3 2738.98 21453.2 2755.46 21384.6 2771.94 21373.6 2788.43 21362.7 2804.91 21392 2821.39 21387.7 2837.87 21383.3 2854.35 21348.2 2870.83 21347.6 2887.31 21347 2903.8 21366.3 2920.28 21384.3 2936.76 21402.3 2953.24 21454.5 2969.72 21455.4 2981.55 21456 3007.34 21429.1 3019.17 21389.7 3035.65 21334.9 3052.13 21105.5 3068.61 21126.3 3085.09 21147.1 3101.57 21468.5 3118.06 21514.5 3134.54 21560.5 3151.02 21439.8 3167.5 21402.4 3183.98 21365 3200.46 21314.8 3216.94 21290.2 3231.35 21268.7 3251.99 21227.9 3266.39 21254.7 3282.87 21285.4 3299.35 21455.8 3315.83 21474.3 3332.31 21492.8 3348.8 21359.2 3365.28 21365.8 3381.76 21372.4 3398.24 21522.1 3414.72 21513.7 3431.2 21505.4 3447.69 21325.4 3464.17 21315.7 3480.65 21305.9 3497.13 21444.9 3513.61 21455.2 3530.09 21465.5 3546.57 21383.8 3563.06 21377.3 3579.54 21370.9 3604.26 21410 3612.5 21416.6" stroke="#FFB226" stroke-width="9.16667" stroke-linecap="round" stroke-linejoin="round" stroke-miterlimit="10" fill="none"/></g><g><path d="M1832.5 21403.6C1848.98 21396.2 1865.46 21383.2 1881.94 21381.4 1898.43 21379.6 1914.91 21389.7 1931.39 21393 1947.87 21396.4 1964.35 21408.2 1980.83 21401.5 1997.31 21394.7 2013.8 21353.2 2030.28 21352.3 2046.76 21351.5 2063.24 21384.3 2079.72 21396.3 2096.2 21408.2 2112.69 21427.7 2129.17 21423.9 2145.65 21420.1 2162.13 21379.4 2178.61 21373.3 2195.09 21367.2 2211.57 21383.3 2228.06 21387 2244.54 21390.8 2261.02 21396.6 2277.5 21395.9 2293.98 21395.2 2310.46 21383.9 2326.94 21382.8 2343.43 21381.7 2359.91 21391.7 2376.39 21389.2 2392.87 21386.7 2409.35 21369.2 2425.83 21367.8 2442.31 21366.4 2458.8 21372.3 2475.28 21380.6 2491.76 21389 2508.24 21414.4 2524.72 21417.8 2541.2 21421.3 2557.69 21408.1 2574.17 21401.4 2590.65 21394.7 2607.13 21393.9 2623.61 21377.5 2640.09 21361.2 2656.57 21288.3 2673.06 21303.2 2689.54 21318 2706.02 21452.4 2722.5 21466.4 2738.98 21480.5 2755.46 21403 2771.94 21387.3 2788.43 21371.5 2804.91 21379.2 2821.39 21371.9 2837.87 21364.6 2854.35 21340.3 2870.83 21343.4 2887.31 21346.5 2903.8 21379.7 2920.28 21390.5 2936.76 21401.2 2953.24 21402.8 2969.72 21408.1 2986.16 21413.3 3002.73 21441.7 3019.17 21422 3035.65 21402.2 3052.13 21285.9 3068.61 21289.6 3085.09 21293.4 3101.57 21433.8 3118.06 21444.3 3134.54 21454.8 3151.02 21378.2 3167.5 21352.4 3183.98 21326.6 3200.46 21286.7 3216.94 21289.6 3233.43 21292.5 3249.91 21346.3 3266.39 21369.8 3282.87 21393.3 3299.35 21448.9 3315.83 21430.6 3332.31 21412.3 3348.8 21249.5 3365.28 21260.3 3381.76 21271 3398.24 21491.8 3414.72 21495.2 3431.2 21498.5 3447.69 21301.3 3464.17 21280.2 3480.65 21259.2 3497.13 21350.7 3513.61 21368.8 3530.09 21386.8 3546.57 21374.7 3563.06 21388.3 3579.54 21401.9 3604.26 21440 3612.5 21450.4" stroke="#000000" stroke-width="9.16667" stroke-linecap="round" stroke-linejoin="round" stroke-miterlimit="10" fill="none"/></g><g><text font-family="Inter,Inter_MSFontService,sans-serif" font-weight="400" font-size="32" transform="matrix(1 0 0 1 1759.39 21690)">80</text></g><g><text font-family="Inter,Inter_MSFontService,sans-serif" font-weight="400" font-size="32" transform="matrix(1 0 0 1 1759.16 21555)">90</text></g><g><text font-family="Inter,Inter_MSFontService,sans-serif" font-weight="400" font-size="32" transform="matrix(1 0 0 1 1744.22 21419)">100</text></g><g><text font-family="Inter,Inter_MSFontService,sans-serif" font-weight="400" font-size="32" transform="matrix(1 0 0 1 1749.38 21283)">110</text></g><g><text font-family="Inter,Inter_MSFontService,sans-serif" font-weight="400" font-size="32" transform="matrix(1 0 0 1 1744.86 21148)">120</text></g><g><text font-family="Inter,Inter_MSFontService,sans-serif" font-weight="400" font-size="32" transform="matrix(1 0 0 1 1743.85 21012)">130</text></g><g><text font-family="Inter,Inter_MSFontService,sans-serif" font-weight="400" font-size="32" transform="matrix(0.707107 -0.707107 0.707107 0.707107 1807.95 21756)">6/1</text></g><g><text font-family="Inter,Inter_MSFontService,sans-serif" font-weight="400" font-size="32" transform="matrix(0.707107 -0.707107 0.707107 0.707107 1939.37 21773)">6/22</text></g><g><text font-family="Inter,Inter_MSFontService,sans-serif" font-weight="400" font-size="32" transform="matrix(0.707107 -0.707107 0.707107 0.707107 2091.38 21769)">7/13</text></g><g><text font-family="Inter,Inter_MSFontService,sans-serif" font-weight="400" font-size="32" transform="matrix(0.707107 -0.707107 0.707107 0.707107 2249.21 21759)">8/3</text></g><g><text font-family="Inter,Inter_MSFontService,sans-serif" font-weight="400" font-size="32" transform="matrix(0.707107 -0.707107 0.707107 0.707107 2383.69 21773)">8/24</text></g><g><text font-family="Inter,Inter_MSFontService,sans-serif" font-weight="400" font-size="32" transform="matrix(0.707107 -0.707107 0.707107 0.707107 2535.06 21770)">9/14</text></g><g><text font-family="Inter,Inter_MSFontService,sans-serif" font-weight="400" font-size="32" transform="matrix(0.707107 -0.707107 0.707107 0.707107 2684.14 21770)">10/5</text></g><g><text font-family="Inter,Inter_MSFontService,sans-serif" font-weight="400" font-size="32" transform="matrix(0.707107 -0.707107 0.707107 0.707107 2818.39 21784)">10/26</text></g><g><text font-family="Inter,Inter_MSFontService,sans-serif" font-weight="400" font-size="32" transform="matrix(0.707107 -0.707107 0.707107 0.707107 2973.56 21777)">11/16</text></g><g><text font-family="Inter,Inter_MSFontService,sans-serif" font-weight="400" font-size="32" transform="matrix(0.707107 -0.707107 0.707107 0.707107 3130.44 21768)">12/7</text></g><g><text font-family="Inter,Inter_MSFontService,sans-serif" font-weight="400" font-size="32" transform="matrix(0.707107 -0.707107 0.707107 0.707107 3264.01 21783)">12/28</text></g><g><text font-family="Inter,Inter_MSFontService,sans-serif" font-weight="400" font-size="32" transform="matrix(0.707107 -0.707107 0.707107 0.707107 3429.26 21766)">1/18</text></g><g><text font-family="Inter,Inter_MSFontService,sans-serif" font-weight="400" font-size="32" transform="matrix(0.707107 -0.707107 0.707107 0.707107 3584.94 21759)">2/8</text></g><g><text font-family="Inter Medium,Inter Medium_MSFontService,sans-serif" font-weight="700" font-size="46" transform="matrix(1 0 0 1 1745.5 20836)">U.S. Hotel Occupancy and ADR Recovery Levels</text></g><g><path d="M1737.5 20936.5 1825.5 20936.5" stroke="#FFB226" stroke-width="9.16667" stroke-linecap="round" stroke-linejoin="round" stroke-miterlimit="10" fill="none" fill-rule="evenodd"/></g><g><text font-family="Inter Medium,Inter Medium_MSFontService,sans-serif" font-weight="500" font-size="37" transform="matrix(1 0 0 1 1834.49 20948)">Occ Index</text></g><g><path d="M2062.5 20936.5 2150.5 20936.5" stroke="#000000" stroke-width="9.16667" stroke-linecap="round" stroke-linejoin="round" stroke-miterlimit="10" fill="none" fill-rule="evenodd"/></g><g><text font-family="Inter Medium,Inter Medium_MSFontService,sans-serif" font-weight="500" font-size="37" transform="matrix(1 0 0 1 2159.57 20948)">ADR Index</text></g><rect x="1661.5" y="20746.5" width="2108" height="1092" stroke="#D9D9D9" stroke-width="3.4375" stroke-linejoin="round" stroke-miterlimit="10" fill="none"/><g><text fill="#7F7F7F" font-family="Inter,Inter_MSFontService,sans-serif" font-weight="400" font-size="32" transform="matrix(1 0 0 1 1743.19 20893)">Indexed to 2023, Source: STR, str.com</text></g><g><g><text font-family="Inter Medium,Inter Medium_MSFontService,sans-serif" font-weight="700" font-size="37" transform="matrix(1 0 0 1 3317.37 21800)">2025</text></g></g></g></svg>