<svg width="2108" height="1051" xmlns="http://www.w3.org/2000/svg" xmlns:xlink="http://www.w3.org/1999/xlink" xml:space="preserve" overflow="hidden"><defs><filter id="fx0" x="-10%" y="-10%" width="120%" height="120%" filterUnits="userSpaceOnUse" primitiveUnits="userSpaceOnUse"><feComponentTransfer color-interpolation-filters="sRGB"><feFuncR type="discrete" tableValues="0 0"/><feFuncG type="discrete" tableValues="0 0"/><feFuncB type="discrete" tableValues="0 0"/><feFuncA type="linear" slope="0.501961" intercept="0"/></feComponentTransfer><feGaussianBlur stdDeviation="4.58333 4.58333"/></filter><filter id="fx1" x="-10%" y="-10%" width="120%" height="120%" filterUnits="userSpaceOnUse" primitiveUnits="userSpaceOnUse"><feComponentTransfer color-interpolation-filters="sRGB"><feFuncR type="discrete" tableValues="0 0"/><feFuncG type="discrete" tableValues="0 0"/><feFuncB type="discrete" tableValues="0 0"/><feFuncA type="linear" slope="0.501961" intercept="0"/></feComponentTransfer><feGaussianBlur stdDeviation="4.58333 4.58333"/></filter><clipPath id="clip2"><rect x="1659" y="19903" width="2108" height="1051"/></clipPath><clipPath id="clip3"><rect x="1827" y="20150" width="1887" height="654"/></clipPath><clipPath id="clip4"><rect x="1827" y="20150" width="1887" height="654"/></clipPath></defs><g clip-path="url(#clip2)" transform="translate(-1659 -19903)"><rect x="1660" y="19904" width="2105" height="1048" fill="#FFFFFF"/><g><path d="M2493.5 20150.5 2548.58 20150.5 2603.59 20150.5 2658.59 20150.5 2713.59 20150.5 2768.59 20150.5 2823.59 20150.5 2879.59 20150.5 2934.6 20150.5 2989.6 20150.5 3044.6 20150.5 3099.6 20150.5 3155.6 20150.5 3210.61 20150.5 3265.61 20150.5 3320.61 20150.5 3375.61 20150.5 3430.61 20150.5 3486.61 20150.5 3541.62 20150.5 3596.62 20150.5 3651.62 20150.5 3706.5 20150.5 3706.5 20800.5 3651.62 20800.5 3596.62 20800.5 3541.62 20800.5 3486.61 20800.5 3430.61 20800.5 3375.61 20800.5 3320.61 20800.5 3265.61 20800.5 3210.61 20800.5 3155.6 20800.5 3099.6 20800.5 3044.6 20800.5 2989.6 20800.5 2934.6 20800.5 2879.59 20800.5 2823.59 20800.5 2768.59 20800.5 2713.59 20800.5 2658.59 20800.5 2603.59 20800.5 2548.58 20800.5 2493.5 20800.5Z" stroke="#BFBFBF" stroke-width="3.4375" stroke-linejoin="round" stroke-miterlimit="10" stroke-opacity="0.501961" fill="#D9D9D9" fill-opacity="0.501961"/></g><g><path d="M1827.5 20540.5 3710.5 20540.5" stroke="#D9D9D9" stroke-width="3.4375" stroke-linejoin="round" stroke-miterlimit="10" fill="none" fill-rule="evenodd"/></g><g clip-path="url(#clip3)"><g filter="url(#fx0)" transform="translate(1817 20255)"><g><path d="M19.9818 334.306C38.3744 308.845 56.7673 268.413 75.1603 257.923 93.5528 247.433 111.946 275.523 130.339 271.366 148.731 267.208 167.125 233.517 185.518 232.979 203.91 232.441 222.303 250.922 240.696 268.135 259.089 285.349 277.482 335.392 295.875 336.26 309.695 336.911 337.233 312.834 351.053 273.341 369.446 220.782 387.839 0.982422 406.232 20.9075 424.624 40.8325 443.018 348.8 461.41 392.891 479.803 436.982 498.196 321.274 516.589 285.453 534.982 249.632 553.374 201.547 571.767 177.965 588.951 155.933 609.762 116.486 626.946 143.96 645.339 173.367 663.732 336.667 682.125 354.409 700.517 372.151 718.911 244.122 737.303 250.413 755.696 256.703 774.089 400.155 792.482 392.153 810.875 384.151 829.267 211.746 847.66 202.399 866.053 193.053 884.446 326.229 902.839 336.074 921.232 345.919 939.625 267.641 958.018 261.469 976.41 255.297 994.803 296.868 1013.2 299.044 1031.59 301.22 1049.98 269.737 1068.37 274.524 1086.77 279.311 1105.16 325.876 1123.55 327.765 1141.95 329.654 1160.34 289.058 1178.73 285.858 1197.12 282.658 1215.52 300.027 1233.91 308.565 1252.3 317.103 1270.7 342.154 1289.09 337.087 1307.48 332.019 1325.87 295.399 1344.27 278.158 1362.66 260.917 1381.05 230.305 1399.45 233.644 1417.84 236.982 1436.23 287.786 1454.62 298.188 1473.02 308.59 1491.41 279.545 1509.8 296.054 1528.2 312.564 1555.79 380.38 1564.98 397.246" stroke="#FFB226" stroke-width="9" stroke-linecap="round" stroke-linejoin="round" stroke-miterlimit="10" fill="none"/></g></g></g><g clip-path="url(#clip4)"><g filter="url(#fx1)" transform="translate(1817 20384)"><g><path d="M19.9818 218.217C38.3744 192.889 56.7673 157.361 75.1603 142.234 93.5528 127.106 111.946 134.474 130.339 127.45 148.731 120.426 167.125 97.1197 185.518 100.091 203.91 103.061 222.303 134.926 240.696 145.275 259.089 155.624 277.482 157.141 295.875 162.185 314.267 167.23 332.66 194.49 351.053 175.544 369.446 156.597 387.839 44.9366 406.232 48.5081 424.624 52.0792 443.018 186.929 461.41 196.972 479.803 207.015 498.196 133.521 516.589 108.765 534.982 84.0089 553.374 45.6551 571.767 48.4353 590.16 51.2152 608.553 102.883 626.946 125.446 645.339 148.007 663.732 201.329 682.125 183.807 700.517 166.284 718.911 9.98242 737.303 20.3126 755.696 30.6424 774.089 242.591 792.482 245.787 810.875 248.982 829.267 59.7091 847.66 39.4863 866.053 19.2632 884.446 107.164 902.839 124.449 921.232 141.734 939.625 130.141 958.018 143.195 976.41 156.249 994.803 202.87 1013.2 202.773 1031.59 202.677 1049.98 153.773 1068.37 142.616 1086.77 131.46 1105.16 137.965 1123.55 135.834 1141.95 133.704 1160.34 130.224 1178.73 129.834 1197.12 129.444 1215.52 127.01 1233.91 133.495 1252.3 139.98 1270.7 168.089 1289.09 168.743 1307.48 169.398 1325.87 144.585 1344.27 137.422 1362.66 130.259 1381.05 125.936 1399.45 125.764 1417.84 125.592 1436.23 133.583 1454.62 136.389 1473.02 139.195 1491.41 137.343 1509.8 142.6 1528.2 147.856 1555.79 163.706 1564.98 167.928" stroke="#000000" stroke-width="9" stroke-linecap="round" stroke-linejoin="round" stroke-miterlimit="10" fill="none"/></g></g></g><g><path d="M1830.5 20582.8C1848.89 20557.4 1867.29 20516.9 1885.68 20506.4 1904.07 20496 1922.46 20524 1940.86 20519.9 1959.25 20515.7 1977.64 20482 1996.04 20481.5 2014.43 20481 2032.82 20499.4 2051.21 20516.7 2069.61 20533.9 2088 20583.9 2106.39 20584.8 2120.21 20585.4 2147.75 20561.4 2161.57 20521.9 2179.96 20469.3 2198.36 20249.5 2216.75 20269.4 2235.14 20289.3 2253.54 20597.3 2271.93 20641.4 2290.32 20685.5 2308.71 20569.8 2327.11 20534 2345.5 20498.2 2363.89 20450.1 2382.29 20426.5 2399.47 20404.5 2420.28 20365 2437.46 20392.5 2455.86 20421.9 2474.25 20585.2 2492.64 20602.9 2511.04 20620.7 2529.43 20492.6 2547.82 20498.9 2566.21 20505.2 2584.61 20648.7 2603 20640.7 2621.39 20632.7 2639.79 20460.3 2658.18 20450.9 2676.57 20441.6 2694.96 20574.7 2713.36 20584.6 2731.75 20594.4 2750.14 20516.2 2768.54 20510 2786.93 20503.8 2805.32 20545.4 2823.71 20547.6 2842.11 20549.7 2860.5 20518.3 2878.89 20523 2897.29 20527.8 2915.68 20574.4 2934.07 20576.3 2952.46 20578.2 2970.86 20537.6 2989.25 20534.4 3007.64 20531.2 3026.04 20548.5 3044.43 20557.1 3062.82 20565.6 3081.21 20590.7 3099.61 20585.6 3118 20580.5 3136.39 20543.9 3154.79 20526.7 3173.18 20509.4 3191.57 20478.8 3209.96 20482.2 3228.36 20485.5 3246.75 20536.3 3265.14 20546.7 3283.54 20557.1 3301.93 20528.1 3320.32 20544.6 3338.71 20561.1 3366.3 20628.9 3375.5 20645.8" stroke="#FFB226" stroke-width="9.16667" stroke-linecap="round" stroke-linejoin="round" stroke-miterlimit="10" fill="none"/></g><g><path d="M1830.5 20595.7C1848.89 20570.4 1867.29 20534.9 1885.68 20519.8 1904.07 20504.6 1922.46 20512 1940.86 20505 1959.25 20497.9 1977.64 20474.6 1996.04 20477.6 2014.43 20480.6 2032.82 20512.4 2051.21 20522.8 2069.61 20533.1 2088 20534.7 2106.39 20539.7 2124.79 20544.7 2143.18 20572 2161.57 20553.1 2179.96 20534.1 2198.36 20422.5 2216.75 20426 2235.14 20429.6 2253.54 20564.4 2271.93 20574.5 2290.32 20584.5 2308.71 20511 2327.11 20486.3 2345.5 20461.5 2363.89 20423.2 2382.29 20426 2400.68 20428.7 2419.07 20480.4 2437.46 20503 2455.86 20525.5 2474.25 20578.8 2492.64 20561.3 2511.04 20543.8 2529.43 20387.5 2547.82 20397.8 2566.21 20408.2 2584.61 20620.1 2603 20623.3 2621.39 20626.5 2639.79 20437.2 2658.18 20417 2676.57 20396.8 2694.96 20484.7 2713.36 20502 2731.75 20519.3 2750.14 20507.7 2768.54 20520.7 2786.93 20533.8 2805.32 20580.4 2823.71 20580.3 2842.11 20580.2 2860.5 20531.3 2878.89 20520.1 2897.29 20509 2915.68 20515.5 2934.07 20513.4 2952.46 20511.2 2970.86 20507.7 2989.25 20507.4 3007.64 20507 3026.04 20504.5 3044.43 20511 3062.82 20517.5 3081.21 20545.6 3099.61 20546.3 3118 20546.9 3136.39 20522.1 3154.79 20514.9 3173.18 20507.8 3191.57 20503.5 3209.96 20503.3 3228.36 20503.1 3246.75 20511.1 3265.14 20513.9 3283.54 20516.7 3301.93 20514.9 3320.32 20520.1 3338.71 20525.4 3366.3 20541.2 3375.5 20545.4" stroke="#000000" stroke-width="9.16667" stroke-linecap="round" stroke-linejoin="round" stroke-miterlimit="10" fill="none"/></g><g><text font-family="Inter,Inter_MSFontService,sans-serif" font-weight="400" font-size="32" transform="matrix(1 0 0 1 1757.44 20811)">80</text></g><g><text font-family="Inter,Inter_MSFontService,sans-serif" font-weight="400" font-size="32" transform="matrix(1 0 0 1 1757.21 20681)">90</text></g><g><text font-family="Inter,Inter_MSFontService,sans-serif" font-weight="400" font-size="32" transform="matrix(1 0 0 1 1742.27 20551)">100</text></g><g><text font-family="Inter,Inter_MSFontService,sans-serif" font-weight="400" font-size="32" transform="matrix(1 0 0 1 1747.42 20421)">110</text></g><g><text font-family="Inter,Inter_MSFontService,sans-serif" font-weight="400" font-size="32" transform="matrix(1 0 0 1 1742.91 20290)">120</text></g><g><text font-family="Inter,Inter_MSFontService,sans-serif" font-weight="400" font-size="32" transform="matrix(1 0 0 1 1741.9 20160)">130</text></g><g><text font-family="Inter,Inter_MSFontService,sans-serif" font-weight="400" font-size="32" transform="matrix(0.707107 -0.707107 0.707107 0.707107 1792.58 20890)">10/5</text></g><g><text font-family="Inter,Inter_MSFontService,sans-serif" font-weight="400" font-size="32" transform="matrix(0.707107 -0.707107 0.707107 0.707107 1944.02 20904)">10/26</text></g><g><text font-family="Inter,Inter_MSFontService,sans-serif" font-weight="400" font-size="32" transform="matrix(0.707107 -0.707107 0.707107 0.707107 2116.37 20897)">11/16</text></g><g><text font-family="Inter,Inter_MSFontService,sans-serif" font-weight="400" font-size="32" transform="matrix(0.707107 -0.707107 0.707107 0.707107 2290.43 20889)">12/7</text></g><g><text font-family="Inter,Inter_MSFontService,sans-serif" font-weight="400" font-size="32" transform="matrix(0.707107 -0.707107 0.707107 0.707107 2441.18 20904)">12/28</text></g><g><text font-family="Inter,Inter_MSFontService,sans-serif" font-weight="400" font-size="32" transform="matrix(0.707107 -0.707107 0.707107 0.707107 2623.61 20887)">1/18</text></g><g><text font-family="Inter,Inter_MSFontService,sans-serif" font-weight="400" font-size="32" transform="matrix(0.707107 -0.707107 0.707107 0.707107 2796.47 20879)">2/8</text></g><g><text font-family="Inter,Inter_MSFontService,sans-serif" font-weight="400" font-size="32" transform="matrix(0.707107 -0.707107 0.707107 0.707107 2964.73 20877)">3/1</text></g><g><text font-family="Inter,Inter_MSFontService,sans-serif" font-weight="400" font-size="32" transform="matrix(0.707107 -0.707107 0.707107 0.707107 3113.32 20893)">3/22</text></g><g><text font-family="Inter,Inter_MSFontService,sans-serif" font-weight="400" font-size="32" transform="matrix(0.707107 -0.707107 0.707107 0.707107 3281.9 20890)">4/12</text></g><g><text font-family="Inter,Inter_MSFontService,sans-serif" font-weight="400" font-size="32" transform="matrix(0.707107 -0.707107 0.707107 0.707107 3458.02 20880)">5/3</text></g><g><text font-family="Inter,Inter_MSFontService,sans-serif" font-weight="400" font-size="32" transform="matrix(0.707107 -0.707107 0.707107 0.707107 3609.68 20894)">5/24</text></g><g><text font-family="Inter Medium,Inter Medium_MSFontService,sans-serif" font-weight="700" font-size="46" transform="matrix(1 0 0 1 1743.66 19994)">U.S. Hotel Occupancy and ADR Recovery Levels</text></g><g><path d="M1735.5 20087.5 1823.5 20087.5" stroke="#FFB226" stroke-width="9.16667" stroke-linecap="round" stroke-linejoin="round" stroke-miterlimit="10" fill="none" fill-rule="evenodd"/></g><g><text font-family="Inter Medium,Inter Medium_MSFontService,sans-serif" font-weight="500" font-size="37" transform="matrix(1 0 0 1 1832.44 20099)">Occ Index</text></g><g><path d="M2059.5 20087.5 2147.5 20087.5" stroke="#000000" stroke-width="9.16667" stroke-linecap="round" stroke-linejoin="round" stroke-miterlimit="10" fill="none" fill-rule="evenodd"/></g><g><text font-family="Inter Medium,Inter Medium_MSFontService,sans-serif" font-weight="500" font-size="37" transform="matrix(1 0 0 1 2157.24 20099)">ADR Index</text></g><rect x="1660.5" y="19904.5" width="2105" height="1048" stroke="#D9D9D9" stroke-width="3.4375" stroke-linejoin="round" stroke-miterlimit="10" fill="none"/><g><text fill="#7F7F7F" font-family="Inter,Inter_MSFontService,sans-serif" font-weight="400" font-size="32" transform="matrix(1 0 0 1 1741.38 20047)">Indexed to 2023, Source: STR, str.com</text></g><g><g><text font-family="Inter Medium,Inter Medium_MSFontService,sans-serif" font-weight="700" font-size="37" transform="matrix(1 0 0 1 2499.15 20926)">2025</text></g></g></g></svg>