<svg width="2106" height="1065" xmlns="http://www.w3.org/2000/svg" xmlns:xlink="http://www.w3.org/1999/xlink" xml:space="preserve" overflow="hidden"><defs><filter id="fx0" x="-10%" y="-10%" width="120%" height="120%" filterUnits="userSpaceOnUse" primitiveUnits="userSpaceOnUse"><feComponentTransfer color-interpolation-filters="sRGB"><feFuncR type="discrete" tableValues="0 0"/><feFuncG type="discrete" tableValues="0 0"/><feFuncB type="discrete" tableValues="0 0"/><feFuncA type="linear" slope="0.501961" intercept="0"/></feComponentTransfer><feGaussianBlur stdDeviation="4.58333 4.58333"/></filter><filter id="fx1" x="-10%" y="-10%" width="120%" height="120%" filterUnits="userSpaceOnUse" primitiveUnits="userSpaceOnUse"><feComponentTransfer color-interpolation-filters="sRGB"><feFuncR type="discrete" tableValues="0 0"/><feFuncG type="discrete" tableValues="0 0"/><feFuncB type="discrete" tableValues="0 0"/><feFuncA type="linear" slope="0.501961" intercept="0"/></feComponentTransfer><feGaussianBlur stdDeviation="4.58333 4.58333"/></filter><clipPath id="clip2"><rect x="1657" y="20153" width="2106" height="1065"/></clipPath><clipPath id="clip3"><rect x="1825" y="20403" width="1885" height="662"/></clipPath><clipPath id="clip4"><rect x="1825" y="20403" width="1885" height="662"/></clipPath></defs><g clip-path="url(#clip2)" transform="translate(-1657 -20153)"><rect x="1658" y="20154" width="2103" height="1062" fill="#FFFFFF"/><g><path d="M2910.5 20403.5 2946.6 20403.5 2982.6 20403.5 3018.6 20403.5 3054.6 20403.5 3090.6 20403.5 3126.6 20403.5 3163.6 20403.5 3199.6 20403.5 3235.61 20403.5 3271.61 20403.5 3307.61 20403.5 3343.61 20403.5 3379.61 20403.5 3415.61 20403.5 3451.61 20403.5 3487.61 20403.5 3523.62 20403.5 3559.62 20403.5 3596.62 20403.5 3632.62 20403.5 3668.62 20403.5 3704.5 20403.5 3704.5 21062.5 3668.62 21062.5 3632.62 21062.5 3596.62 21062.5 3559.62 21062.5 3523.62 21062.5 3487.61 21062.5 3451.61 21062.5 3415.61 21062.5 3379.61 21062.5 3343.61 21062.5 3307.61 21062.5 3271.61 21062.5 3235.61 21062.5 3199.6 21062.5 3163.6 21062.5 3126.6 21062.5 3090.6 21062.5 3054.6 21062.5 3018.6 21062.5 2982.6 21062.5 2946.6 21062.5 2910.5 21062.5Z" stroke="#BFBFBF" stroke-width="3.4375" stroke-linejoin="round" stroke-miterlimit="10" stroke-opacity="0.501961" fill="#D9D9D9" fill-opacity="0.501961"/></g><g><path d="M1825.5 20798.5 3707.5 20798.5" stroke="#D9D9D9" stroke-width="3.4375" stroke-linejoin="round" stroke-miterlimit="10" fill="none" fill-rule="evenodd"/></g><g clip-path="url(#clip3)"><g filter="url(#fx0)" transform="translate(1814 20509)"><g><path d="M19.9817 287.545C32.0134 292.299 44.0451 298.828 56.0768 301.807 68.1085 304.786 80.1399 300.521 92.172 305.419 104.204 310.317 116.235 339.035 128.267 331.195 140.299 323.355 152.331 262.449 164.363 258.38 176.394 254.309 188.426 291.941 200.458 306.775 212.489 321.609 224.521 350.972 236.553 347.385 248.585 343.798 260.616 293.192 272.648 285.255 284.68 277.317 296.712 299.545 308.744 299.76 320.775 299.973 332.807 288.434 344.839 286.538 356.87 284.642 368.902 286.462 380.934 288.385 392.966 290.308 404.998 300.507 417.029 298.075 429.061 295.643 441.092 278.327 453.124 273.793 465.156 269.258 477.188 258.041 489.22 270.871 501.252 283.701 513.283 342.997 525.315 350.774 537.347 358.551 549.379 327.926 561.41 317.531 573.442 307.137 585.473 297.579 597.505 288.407 609.537 279.236 621.569 254.086 633.601 262.5 645.633 270.914 657.664 339.066 669.696 338.893 681.728 338.719 693.759 272.093 705.791 261.459 717.823 250.824 729.855 279.301 741.887 275.086 753.918 270.872 765.95 236.718 777.982 236.172 790.014 235.626 802.045 254.361 814.077 271.812 826.109 289.262 838.14 339.994 850.172 340.874 858.245 341.464 878.195 312.84 886.268 277.089 898.299 223.807 910.331 0.982422 922.363 21.1816 934.394 41.3809 946.426 353.587 958.458 398.285 970.49 442.982 982.522 325.682 994.553 289.368 1006.59 253.054 1018.62 204.307 1030.65 180.4 1039.99 161.836 1057.4 122.778 1066.74 145.928 1078.78 175.74 1090.81 341.286 1102.84 359.272 1114.87 377.258 1126.9 247.468 1138.93 253.845 1150.97 260.222 1163 405.648 1175.03 397.536 1187.06 389.423 1199.09 214.646 1211.12 205.171 1223.16 195.696 1235.19 330.705 1247.22 340.685 1259.25 350.666 1271.28 271.31 1283.32 265.054 1295.35 258.797 1307.38 300.94 1319.41 303.146 1331.44 305.351 1343.47 273.436 1355.51 278.289 1367.54 283.141 1379.57 330.347 1391.6 332.262 1403.63 334.176 1415.66 293.022 1427.7 289.778 1439.73 286.534 1451.76 304.142 1463.79 312.798 1475.82 321.454 1487.86 346.849 1499.89 341.712 1511.92 336.574 1529.97 291.929 1535.98 281.973" stroke="#FFB226" stroke-width="9" stroke-linecap="round" stroke-linejoin="round" stroke-miterlimit="10" fill="none"/></g></g></g><g clip-path="url(#clip4)"><g filter="url(#fx1)" transform="translate(1814 20640)"><g><path d="M19.9817 159.779C32.0134 152.58 44.0451 139.901 56.0768 138.184 68.1085 136.467 80.1399 146.231 92.172 149.478 104.204 152.725 116.235 164.255 128.267 157.665 140.299 151.074 152.331 110.775 164.363 109.935 176.394 109.094 188.426 141.032 200.458 152.623 212.489 164.214 224.521 183.199 236.553 179.48 248.585 175.76 260.616 136.273 272.648 130.303 284.68 124.333 296.712 140.008 308.744 143.661 320.775 147.313 332.807 152.901 344.839 152.22 356.87 151.538 368.902 140.65 380.934 139.572 392.966 138.493 404.998 148.184 417.029 145.749 429.061 143.313 441.092 126.343 453.124 124.958 465.156 123.572 477.188 129.331 489.22 137.434 501.252 145.537 513.283 170.214 525.315 173.574 537.347 176.935 549.379 164.123 561.41 157.598 573.442 151.073 585.473 150.336 597.505 134.426 609.537 118.515 621.569 47.7352 633.601 62.1364 645.633 76.5372 657.664 207.205 669.696 220.831 681.728 234.457 693.759 159.211 705.791 143.894 717.823 128.576 729.855 136.037 741.887 128.925 753.918 121.813 765.95 98.2133 777.982 101.222 790.014 104.229 802.045 136.494 814.077 146.973 826.109 157.452 838.14 158.988 850.172 164.096 860.398 168.437 876.042 193.926 886.268 177.622 898.299 158.438 910.331 45.3755 922.363 48.9919 934.394 52.608 946.426 189.151 958.458 199.32 970.49 209.488 982.522 135.072 994.553 110.005 1006.59 84.9381 1018.62 46.1029 1030.65 48.9181 1042.68 51.733 1054.71 104.05 1066.74 126.895 1078.78 149.74 1090.81 203.731 1102.84 185.989 1114.87 168.246 1126.9 9.98242 1138.93 20.4424 1150.97 30.902 1163 245.511 1175.03 248.747 1187.06 251.982 1199.09 60.3334 1211.12 39.8568 1223.16 19.3797 1235.19 108.384 1247.22 125.886 1258.76 142.67 1271.78 132.191 1283.32 144.868 1295.35 158.085 1307.38 205.291 1319.41 205.193 1331.44 205.095 1343.47 155.578 1355.51 144.281 1367.54 132.985 1379.57 139.571 1391.6 137.414 1403.63 135.257 1415.66 131.733 1427.7 131.339 1439.73 130.944 1451.76 128.479 1463.79 135.045 1475.82 141.612 1487.86 170.073 1499.89 170.736 1511.92 171.399 1529.97 144.308 1535.98 139.022" stroke="#000000" stroke-width="9" stroke-linecap="round" stroke-linejoin="round" stroke-miterlimit="10" fill="none"/></g></g></g><g><path d="M1827.5 20790.1C1839.53 20794.8 1851.56 20801.3 1863.59 20804.3 1875.63 20807.3 1887.66 20803 1899.69 20807.9 1911.72 20812.8 1923.75 20841.6 1935.79 20833.7 1947.82 20825.9 1959.85 20765 1971.88 20760.9 1983.91 20756.8 1995.94 20794.5 2007.98 20809.3 2020.01 20824.1 2032.04 20853.5 2044.07 20849.9 2056.1 20846.3 2068.13 20795.7 2080.17 20787.8 2092.2 20779.8 2104.23 20802.1 2116.26 20802.3 2128.29 20802.5 2140.32 20791 2152.36 20789.1 2164.39 20787.2 2176.42 20789 2188.45 20790.9 2200.48 20792.8 2212.52 20803 2224.55 20800.6 2236.58 20798.2 2248.61 20780.8 2260.64 20776.3 2272.67 20771.8 2284.71 20760.6 2296.74 20773.4 2308.77 20786.2 2320.8 20845.5 2332.83 20853.3 2344.86 20861.1 2356.9 20830.4 2368.93 20820 2380.96 20809.7 2392.99 20800.1 2405.02 20790.9 2417.06 20781.8 2429.09 20756.6 2441.12 20765 2453.15 20773.4 2465.18 20841.6 2477.21 20841.4 2489.25 20841.2 2501.28 20774.6 2513.31 20764 2525.34 20753.3 2537.37 20781.8 2549.4 20777.6 2561.44 20773.4 2573.47 20739.2 2585.5 20738.7 2597.53 20738.1 2609.56 20756.9 2621.6 20774.3 2633.63 20791.8 2645.66 20842.5 2657.69 20843.4 2665.76 20844 2685.71 20815.4 2693.79 20779.6 2705.82 20726.3 2717.85 20503.5 2729.88 20523.7 2741.91 20543.9 2753.94 20856.1 2765.98 20900.8 2778.01 20945.5 2790.04 20828.2 2802.07 20791.9 2814.1 20755.6 2826.14 20706.8 2838.17 20682.9 2847.51 20664.4 2864.92 20625.3 2874.26 20648.4 2886.29 20678.3 2898.33 20843.8 2910.36 20861.8 2922.39 20879.8 2934.42 20750 2946.45 20756.4 2958.48 20762.7 2970.52 20908.2 2982.55 20900.1 2994.58 20891.9 3006.61 20717.2 3018.64 20707.7 3030.67 20698.2 3042.71 20833.2 3054.74 20843.2 3066.77 20853.2 3078.8 20773.8 3090.83 20767.6 3102.87 20761.3 3114.9 20803.5 3126.93 20805.7 3138.96 20807.9 3150.99 20776 3163.02 20780.8 3175.06 20785.7 3187.09 20832.9 3199.12 20834.8 3211.15 20836.7 3223.18 20795.5 3235.21 20792.3 3247.25 20789.1 3259.28 20806.7 3271.31 20815.3 3283.34 20824 3295.37 20849.4 3307.41 20844.2 3319.44 20839.1 3337.48 20794.4 3343.5 20784.5" stroke="#FFB226" stroke-width="9.16667" stroke-linecap="round" stroke-linejoin="round" stroke-miterlimit="10" fill="none"/></g><g><path d="M1827.5 20793.3C1839.53 20786.1 1851.56 20773.4 1863.59 20771.7 1875.63 20770 1887.66 20779.7 1899.69 20783 1911.72 20786.2 1923.75 20797.8 1935.79 20791.2 1947.82 20784.6 1959.85 20744.3 1971.88 20743.5 1983.91 20742.6 1995.94 20774.5 2007.98 20786.1 2020.01 20797.7 2032.04 20816.7 2044.07 20813 2056.1 20809.3 2068.13 20769.8 2080.17 20763.8 2092.2 20757.8 2104.23 20773.5 2116.26 20777.2 2128.29 20780.8 2140.32 20786.4 2152.36 20785.7 2164.39 20785.1 2176.42 20774.2 2188.45 20773.1 2200.48 20772 2212.52 20781.7 2224.55 20779.3 2236.58 20776.8 2248.61 20759.9 2260.64 20758.5 2272.67 20757.1 2284.71 20762.8 2296.74 20771 2308.77 20779.1 2320.8 20803.7 2332.83 20807.1 2344.86 20810.5 2356.9 20797.6 2368.93 20791.1 2380.96 20784.6 2392.99 20783.9 2405.02 20767.9 2417.06 20752 2429.09 20681.3 2441.12 20695.7 2453.15 20710.1 2465.18 20840.7 2477.21 20854.3 2489.25 20868 2501.28 20792.7 2513.31 20777.4 2525.34 20762.1 2537.37 20769.6 2549.4 20762.4 2561.44 20755.3 2573.47 20731.7 2585.5 20734.7 2597.53 20737.7 2609.56 20770 2621.6 20780.5 2633.63 20791 2645.66 20792.5 2657.69 20797.6 2667.92 20802 2683.56 20827.4 2693.79 20811.1 2705.82 20792 2717.85 20678.9 2729.88 20682.5 2741.91 20686.1 2753.94 20822.7 2765.98 20832.8 2778.01 20843 2790.04 20768.6 2802.07 20743.5 2814.1 20718.5 2826.14 20679.6 2838.17 20682.4 2850.2 20685.2 2862.23 20737.6 2874.26 20760.4 2886.29 20783.3 2898.33 20837.2 2910.36 20819.5 2922.39 20801.8 2934.42 20643.5 2946.45 20654 2958.48 20664.4 2970.52 20879 2982.55 20882.3 2994.58 20885.5 3006.61 20693.9 3018.64 20673.4 3030.67 20652.9 3042.71 20741.9 3054.74 20759.4 3066.28 20776.2 3079.29 20765.7 3090.83 20778.4 3102.87 20791.6 3114.9 20838.8 3126.93 20838.7 3138.96 20838.6 3150.99 20789.1 3163.02 20777.8 3175.06 20766.5 3187.09 20773.1 3199.12 20770.9 3211.15 20768.8 3223.18 20765.2 3235.21 20764.9 3247.25 20764.5 3259.28 20762 3271.31 20768.6 3283.34 20775.1 3295.37 20803.6 3307.41 20804.3 3319.44 20804.9 3337.48 20777.8 3343.5 20772.5" stroke="#000000" stroke-width="9.16667" stroke-linecap="round" stroke-linejoin="round" stroke-miterlimit="10" fill="none"/></g><g><text font-family="Inter,Inter_MSFontService,sans-serif" font-weight="400" font-size="32" transform="matrix(1 0 0 1 1755.7 21072)">80</text></g><g><text font-family="Inter,Inter_MSFontService,sans-serif" font-weight="400" font-size="32" transform="matrix(1 0 0 1 1755.47 20940)">90</text></g><g><text font-family="Inter,Inter_MSFontService,sans-serif" font-weight="400" font-size="32" transform="matrix(1 0 0 1 1740.53 20809)">100</text></g><g><text font-family="Inter,Inter_MSFontService,sans-serif" font-weight="400" font-size="32" transform="matrix(1 0 0 1 1745.68 20677)">110</text></g><g><text font-family="Inter,Inter_MSFontService,sans-serif" font-weight="400" font-size="32" transform="matrix(1 0 0 1 1741.17 20545)">120</text></g><g><text font-family="Inter,Inter_MSFontService,sans-serif" font-weight="400" font-size="32" transform="matrix(1 0 0 1 1740.16 20413)">130</text></g><g><text font-family="Inter,Inter_MSFontService,sans-serif" font-weight="400" font-size="32" transform="matrix(0.707107 -0.707107 0.707107 0.707107 1803.3 21138)">6/1</text></g><g><text font-family="Inter,Inter_MSFontService,sans-serif" font-weight="400" font-size="32" transform="matrix(0.707107 -0.707107 0.707107 0.707107 1894.65 21154)">6/22</text></g><g><text font-family="Inter,Inter_MSFontService,sans-serif" font-weight="400" font-size="32" transform="matrix(0.707107 -0.707107 0.707107 0.707107 2006.59 21151)">7/13</text></g><g><text font-family="Inter,Inter_MSFontService,sans-serif" font-weight="400" font-size="32" transform="matrix(0.707107 -0.707107 0.707107 0.707107 2124.35 21141)">8/3</text></g><g><text font-family="Inter,Inter_MSFontService,sans-serif" font-weight="400" font-size="32" transform="matrix(0.707107 -0.707107 0.707107 0.707107 2218.76 21155)">8/24</text></g><g><text font-family="Inter,Inter_MSFontService,sans-serif" font-weight="400" font-size="32" transform="matrix(0.707107 -0.707107 0.707107 0.707107 2330.05 21152)">9/14</text></g><g><text font-family="Inter,Inter_MSFontService,sans-serif" font-weight="400" font-size="32" transform="matrix(0.707107 -0.707107 0.707107 0.707107 2439.06 21151)">10/5</text></g><g><text font-family="Inter,Inter_MSFontService,sans-serif" font-weight="400" font-size="32" transform="matrix(0.707107 -0.707107 0.707107 0.707107 2533.24 21165)">10/26</text></g><g><text font-family="Inter,Inter_MSFontService,sans-serif" font-weight="400" font-size="32" transform="matrix(0.707107 -0.707107 0.707107 0.707107 2648.35 21159)">11/16</text></g><g><text font-family="Inter,Inter_MSFontService,sans-serif" font-weight="400" font-size="32" transform="matrix(0.707107 -0.707107 0.707107 0.707107 2765.15 21150)">12/7</text></g><g><text font-family="Inter,Inter_MSFontService,sans-serif" font-weight="400" font-size="32" transform="matrix(0.707107 -0.707107 0.707107 0.707107 2858.65 21165)">12/28</text></g><g><text font-family="Inter,Inter_MSFontService,sans-serif" font-weight="400" font-size="32" transform="matrix(0.707107 -0.707107 0.707107 0.707107 2983.83 21148)">1/18</text></g><g><text font-family="Inter,Inter_MSFontService,sans-serif" font-weight="400" font-size="32" transform="matrix(0.707107 -0.707107 0.707107 0.707107 3099.44 21141)">2/8</text></g><g><text font-family="Inter,Inter_MSFontService,sans-serif" font-weight="400" font-size="32" transform="matrix(0.707107 -0.707107 0.707107 0.707107 3210.44 21138)">3/1</text></g><g><text font-family="Inter,Inter_MSFontService,sans-serif" font-weight="400" font-size="32" transform="matrix(0.707107 -0.707107 0.707107 0.707107 3301.78 21155)">3/22</text></g><g><text font-family="Inter,Inter_MSFontService,sans-serif" font-weight="400" font-size="32" transform="matrix(0.707107 -0.707107 0.707107 0.707107 3413.11 21152)">4/12</text></g><g><text font-family="Inter,Inter_MSFontService,sans-serif" font-weight="400" font-size="32" transform="matrix(0.707107 -0.707107 0.707107 0.707107 3531.97 21141)">5/3</text></g><g><text font-family="Inter,Inter_MSFontService,sans-serif" font-weight="400" font-size="32" transform="matrix(0.707107 -0.707107 0.707107 0.707107 3626.38 21155)">5/24</text></g><g><text font-family="Inter Medium,Inter Medium_MSFontService,sans-serif" font-weight="700" font-size="46" transform="matrix(1 0 0 1 1742.02 20244)">U.S. Hotel Occupancy and ADR Recovery Levels</text></g><g><path d="M1733.5 20339.5 1821.5 20339.5" stroke="#FFB226" stroke-width="9.16667" stroke-linecap="round" stroke-linejoin="round" stroke-miterlimit="10" fill="none" fill-rule="evenodd"/></g><g><text font-family="Inter Medium,Inter Medium_MSFontService,sans-serif" font-weight="500" font-size="37" transform="matrix(1 0 0 1 1830.61 20351)">Occ Index</text></g><g><path d="M2057.5 20339.5 2145.5 20339.5" stroke="#000000" stroke-width="9.16667" stroke-linecap="round" stroke-linejoin="round" stroke-miterlimit="10" fill="none" fill-rule="evenodd"/></g><g><text font-family="Inter Medium,Inter Medium_MSFontService,sans-serif" font-weight="500" font-size="37" transform="matrix(1 0 0 1 2155.16 20351)">ADR Index</text></g><rect x="1658.5" y="20154.5" width="2103" height="1062" stroke="#D9D9D9" stroke-width="3.4375" stroke-linejoin="round" stroke-miterlimit="10" fill="none"/><g><text fill="#7F7F7F" font-family="Inter,Inter_MSFontService,sans-serif" font-weight="400" font-size="32" transform="matrix(1 0 0 1 1739.76 20299)">Indexed to 2023, Source: STR, str.com</text></g><g><g><text font-family="Inter Medium,Inter Medium_MSFontService,sans-serif" font-weight="700" font-size="37" transform="matrix(1 0 0 1 2904.79 21188)">2025</text></g></g></g></svg>