<svg width="2103" height="1058" xmlns="http://www.w3.org/2000/svg" xmlns:xlink="http://www.w3.org/1999/xlink" xml:space="preserve" overflow="hidden"><defs><filter id="fx0" x="-10%" y="-10%" width="120%" height="120%" filterUnits="userSpaceOnUse" primitiveUnits="userSpaceOnUse"><feComponentTransfer color-interpolation-filters="sRGB"><feFuncR type="discrete" tableValues="0 0"/><feFuncG type="discrete" tableValues="0 0"/><feFuncB type="discrete" tableValues="0 0"/><feFuncA type="linear" slope="0.501961" intercept="0"/></feComponentTransfer><feGaussianBlur stdDeviation="4.58333 4.58333"/></filter><filter id="fx1" x="-10%" y="-10%" width="120%" height="120%" filterUnits="userSpaceOnUse" primitiveUnits="userSpaceOnUse"><feComponentTransfer color-interpolation-filters="sRGB"><feFuncR type="discrete" tableValues="0 0"/><feFuncG type="discrete" tableValues="0 0"/><feFuncB type="discrete" tableValues="0 0"/><feFuncA type="linear" slope="0.501961" intercept="0"/></feComponentTransfer><feGaussianBlur stdDeviation="4.58333 4.58333"/></filter><clipPath id="clip2"><rect x="1655" y="20031" width="2103" height="1058"/></clipPath><clipPath id="clip3"><rect x="1822" y="20279" width="1883" height="658"/></clipPath><clipPath id="clip4"><rect x="1822" y="20279" width="1883" height="658"/></clipPath></defs><g clip-path="url(#clip2)" transform="translate(-1655 -20031)"><rect x="1656" y="20032" width="2100" height="1055" fill="#FFFFFF"/><g><path d="M3304.5 20279.5 3353.61 20279.5 3402.61 20279.5 3451.61 20279.5 3501.61 20279.5 3550.62 20279.5 3599.62 20279.5 3648.5 20279.5 3648.5 20934.5 3599.62 20934.5 3550.62 20934.5 3501.61 20934.5 3451.61 20934.5 3402.61 20934.5 3353.61 20934.5 3304.5 20934.5Z" stroke="#BFBFBF" stroke-width="3.4375" stroke-linejoin="round" stroke-miterlimit="10" stroke-opacity="0.501961" fill="#D9D9D9" fill-opacity="0.501961"/></g><g><path d="M1822.5 20672.5 3701.5 20672.5" stroke="#D9D9D9" stroke-width="3.4375" stroke-linejoin="round" stroke-miterlimit="10" fill="none" fill-rule="evenodd"/></g><g clip-path="url(#clip3)"><g filter="url(#fx0)" transform="translate(1813 20385)"><g><path d="M19.9817 285.6C36.4004 290.322 52.8195 296.806 69.2386 299.765 85.6574 302.724 102.077 298.488 118.496 303.353 134.915 308.218 151.334 336.741 167.753 328.954 184.172 321.168 200.591 260.675 217.01 256.633 233.429 252.591 249.848 289.966 266.267 304.7 282.686 319.433 299.105 348.596 315.524 345.034 331.943 341.471 348.363 291.209 364.782 283.326 381.2 275.442 397.62 297.52 414.039 297.732 430.457 297.944 446.877 286.483 463.296 284.6 479.715 282.717 496.134 284.525 512.553 286.435 528.972 288.344 545.391 298.474 561.81 296.059 578.229 293.644 594.648 276.444 611.067 271.941 627.486 267.438 643.905 256.297 660.324 269.04 676.743 281.783 693.163 340.676 709.582 348.401 726.001 356.125 742.42 325.707 758.839 315.383 775.258 305.059 791.677 295.566 808.096 286.457 824.515 277.347 840.934 252.368 857.353 260.726 873.772 269.083 890.191 336.772 906.61 336.6 923.029 336.427 939.448 270.253 955.867 259.691 972.286 249.129 988.706 277.412 1005.12 273.226 1021.54 269.04 1037.96 235.118 1054.38 234.576 1070.8 234.034 1087.22 252.642 1103.64 269.974 1120.06 287.305 1136.48 337.693 1152.9 338.567 1164.79 339.2 1190.26 313.542 1202.15 275.216 1218.57 222.295 1234.99 0.982422 1251.41 21.0448 1267.83 41.1067 1284.25 351.194 1300.67 395.588 1317.09 439.982 1333.51 323.479 1349.92 287.411 1366.34 251.343 1382.76 202.927 1399.18 179.183 1413.73 158.143 1433.89 118.708 1448.44 144.944 1464.86 174.554 1481.28 338.976 1497.7 356.841 1514.11 374.705 1530.53 245.795 1546.95 252.129 1563.37 258.463 1579.79 402.902 1596.21 394.845 1612.63 386.787 1629.05 213.196 1645.47 203.785 1661.89 194.374 1678.31 328.467 1694.72 338.38 1711.14 348.292 1735.77 275.781 1743.98 263.262" stroke="#FFB226" stroke-width="9" stroke-linecap="round" stroke-linejoin="round" stroke-miterlimit="10" fill="none"/></g></g></g><g clip-path="url(#clip4)"><g filter="url(#fx1)" transform="translate(1813 20515)"><g><path d="M19.9817 159.16C36.4004 151.991 52.8195 139.364 69.2386 137.655 85.6574 135.945 102.077 145.668 118.496 148.902 134.915 152.135 151.334 163.618 167.753 157.054 184.172 150.491 200.591 110.359 217.01 109.522 233.429 108.685 249.848 140.49 266.267 152.034 282.686 163.576 299.105 182.484 315.524 178.779 331.943 175.074 348.363 135.751 364.782 129.806 381.2 123.86 397.62 139.47 414.039 143.108 430.457 146.746 446.877 152.31 463.296 151.632 479.715 150.953 496.134 140.11 512.553 139.036 528.972 137.962 545.391 147.613 561.81 145.188 578.229 142.762 594.648 125.863 611.067 124.483 627.486 123.103 643.905 128.837 660.324 136.907 676.743 144.976 693.163 169.552 709.582 172.899 726.001 176.245 742.42 163.486 758.839 156.988 775.258 150.49 791.677 149.756 808.096 133.911 824.515 118.066 840.934 47.5794 857.353 61.921 873.772 76.2624 890.191 206.39 906.61 219.96 923.029 233.53 939.448 158.595 955.867 143.34 972.286 128.086 988.706 135.516 1005.12 128.434 1021.54 121.351 1037.96 97.8488 1054.38 100.845 1070.8 103.84 1087.22 135.971 1103.64 146.407 1120.06 156.843 1136.48 158.372 1152.9 163.459 1169.31 168.546 1185.73 196.033 1202.15 176.929 1218.57 157.824 1234.99 45.229 1251.41 48.8307 1267.83 52.432 1284.25 188.41 1300.67 198.537 1317.09 208.664 1333.51 134.555 1349.92 109.592 1366.34 84.6286 1382.76 45.9535 1399.18 48.7571 1415.6 51.5602 1432.02 103.661 1448.44 126.412 1464.86 149.163 1481.28 202.93 1497.7 185.262 1514.11 167.593 1530.53 9.98242 1546.95 20.3992 1563.37 30.8155 1579.79 244.538 1596.21 247.76 1612.63 250.982 1629.05 60.1253 1645.47 39.7331 1661.89 19.3405 1678.31 107.977 1694.72 125.406 1711.14 142.836 1735.77 141.16 1743.98 144.31" stroke="#000000" stroke-width="9" stroke-linecap="round" stroke-linejoin="round" stroke-miterlimit="10" fill="none"/></g></g></g><g><path d="M1826.5 20664.1C1842.92 20668.8 1859.34 20675.3 1875.76 20678.3 1892.18 20681.2 1908.59 20677 1925.01 20681.9 1941.43 20686.7 1957.85 20715.3 1974.27 20707.5 1990.69 20699.7 2007.11 20639.2 2023.53 20635.2 2039.95 20631.1 2056.37 20668.5 2072.79 20683.2 2089.2 20698 2105.62 20727.1 2122.04 20723.6 2138.46 20720 2154.88 20669.7 2171.3 20661.8 2187.72 20654 2204.14 20676 2220.56 20676.2 2236.98 20676.5 2253.4 20665 2269.81 20663.1 2286.23 20661.2 2302.65 20663 2319.07 20665 2335.49 20666.9 2351.91 20677 2368.33 20674.6 2384.75 20672.2 2401.17 20655 2417.59 20650.5 2434 20646 2450.42 20634.8 2466.84 20647.6 2483.26 20660.3 2499.68 20719.2 2516.1 20726.9 2532.52 20734.6 2548.94 20704.2 2565.36 20693.9 2581.78 20683.6 2598.2 20674.1 2614.61 20665 2631.03 20655.9 2647.45 20630.9 2663.87 20639.2 2680.29 20647.6 2696.71 20715.3 2713.13 20715.1 2729.55 20714.9 2745.97 20648.8 2762.39 20638.2 2778.8 20627.6 2795.22 20655.9 2811.64 20651.7 2828.06 20647.6 2844.48 20613.6 2860.9 20613.1 2877.32 20612.6 2893.74 20631.2 2910.16 20648.5 2926.58 20665.8 2942.99 20716.2 2959.41 20717.1 2971.3 20717.7 2996.78 20692.1 3008.67 20653.7 3025.09 20600.8 3041.51 20379.5 3057.93 20399.6 3074.35 20419.6 3090.77 20729.7 3107.19 20774.1 3123.6 20818.5 3140.02 20702 3156.44 20665.9 3172.86 20629.9 3189.28 20581.4 3205.7 20557.7 3220.25 20536.7 3240.41 20497.2 3254.96 20523.5 3271.38 20553.1 3287.8 20717.5 3304.21 20735.4 3320.63 20753.2 3337.05 20624.3 3353.47 20630.6 3369.89 20637 3386.31 20781.4 3402.73 20773.4 3419.15 20765.3 3435.57 20591.7 3451.99 20582.3 3468.4 20572.9 3484.82 20707 3501.24 20716.9 3517.66 20726.8 3542.29 20654.3 3550.5 20641.8" stroke="#FFB226" stroke-width="9.16667" stroke-linecap="round" stroke-linejoin="round" stroke-miterlimit="10" fill="none"/></g><g><path d="M1826.5 20667.7C1842.92 20660.5 1859.34 20647.9 1875.76 20646.2 1892.18 20644.5 1908.59 20654.2 1925.01 20657.4 1941.43 20660.7 1957.85 20672.1 1974.27 20665.6 1990.69 20659 2007.11 20618.9 2023.53 20618 2039.95 20617.2 2056.37 20649 2072.79 20660.6 2089.2 20672.1 2105.62 20691 2122.04 20687.3 2138.46 20683.6 2154.88 20644.3 2171.3 20638.3 2187.72 20632.4 2204.14 20648 2220.56 20651.6 2236.98 20655.3 2253.4 20660.8 2269.81 20660.2 2286.23 20659.5 2302.65 20648.6 2319.07 20647.6 2335.49 20646.5 2351.91 20656.1 2368.33 20653.7 2384.75 20651.3 2401.17 20634.4 2417.59 20633 2434 20631.6 2450.42 20637.4 2466.84 20645.4 2483.26 20653.5 2499.68 20678.1 2516.1 20681.4 2532.52 20684.8 2548.94 20672 2565.36 20665.5 2581.78 20659 2598.2 20658.3 2614.61 20642.4 2631.03 20626.6 2647.45 20556.1 2663.87 20570.4 2680.29 20584.8 2696.71 20714.9 2713.13 20728.5 2729.55 20742 2745.97 20667.1 2762.39 20651.9 2778.8 20636.6 2795.22 20644 2811.64 20637 2828.06 20629.9 2844.48 20606.4 2860.9 20609.4 2877.32 20612.4 2893.74 20644.5 2910.16 20654.9 2926.58 20665.4 2942.99 20666.9 2959.41 20672 2975.83 20677.1 2992.25 20704.6 3008.67 20685.4 3025.09 20666.3 3041.51 20553.7 3057.93 20557.3 3074.35 20560.9 3090.77 20696.9 3107.19 20707.1 3123.6 20717.2 3140.02 20643.1 3156.44 20618.1 3172.86 20593.1 3189.28 20554.5 3205.7 20557.3 3222.12 20560.1 3238.54 20612.2 3254.96 20634.9 3271.38 20657.7 3287.8 20711.4 3304.21 20693.8 3320.63 20676.1 3337.05 20518.5 3353.47 20528.9 3369.89 20539.3 3386.31 20753.1 3402.73 20756.3 3419.15 20759.5 3435.57 20568.6 3451.99 20548.2 3468.4 20527.9 3484.82 20616.5 3501.24 20633.9 3517.66 20651.4 3542.29 20649.7 3550.5 20652.8" stroke="#000000" stroke-width="9.16667" stroke-linecap="round" stroke-linejoin="round" stroke-miterlimit="10" fill="none"/></g><g><text font-family="Inter,Inter_MSFontService,sans-serif" font-weight="400" font-size="32" transform="matrix(1 0 0 1 1753.23 20944)">80</text></g><g><text font-family="Inter,Inter_MSFontService,sans-serif" font-weight="400" font-size="32" transform="matrix(1 0 0 1 1753 20813)">90</text></g><g><text font-family="Inter,Inter_MSFontService,sans-serif" font-weight="400" font-size="32" transform="matrix(1 0 0 1 1738.06 20682)">100</text></g><g><text font-family="Inter,Inter_MSFontService,sans-serif" font-weight="400" font-size="32" transform="matrix(1 0 0 1 1743.22 20551)">110</text></g><g><text font-family="Inter,Inter_MSFontService,sans-serif" font-weight="400" font-size="32" transform="matrix(1 0 0 1 1738.7 20421)">120</text></g><g><text font-family="Inter,Inter_MSFontService,sans-serif" font-weight="400" font-size="32" transform="matrix(1 0 0 1 1737.69 20290)">130</text></g><g><text font-family="Inter,Inter_MSFontService,sans-serif" font-weight="400" font-size="32" transform="matrix(0.707107 -0.707107 0.707107 0.707107 1801.78 21010)">6/1</text></g><g><text font-family="Inter,Inter_MSFontService,sans-serif" font-weight="400" font-size="32" transform="matrix(0.707107 -0.707107 0.707107 0.707107 1932.64 21027)">6/22</text></g><g><text font-family="Inter,Inter_MSFontService,sans-serif" font-weight="400" font-size="32" transform="matrix(0.707107 -0.707107 0.707107 0.707107 2084.1 21023)">7/13</text></g><g><text font-family="Inter,Inter_MSFontService,sans-serif" font-weight="400" font-size="32" transform="matrix(0.707107 -0.707107 0.707107 0.707107 2241.37 21013)">8/3</text></g><g><text font-family="Inter,Inter_MSFontService,sans-serif" font-weight="400" font-size="32" transform="matrix(0.707107 -0.707107 0.707107 0.707107 2375.29 21027)">8/24</text></g><g><text font-family="Inter,Inter_MSFontService,sans-serif" font-weight="400" font-size="32" transform="matrix(0.707107 -0.707107 0.707107 0.707107 2526.1 21024)">9/14</text></g><g><text font-family="Inter,Inter_MSFontService,sans-serif" font-weight="400" font-size="32" transform="matrix(0.707107 -0.707107 0.707107 0.707107 2674.63 21023)">10/5</text></g><g><text font-family="Inter,Inter_MSFontService,sans-serif" font-weight="400" font-size="32" transform="matrix(0.707107 -0.707107 0.707107 0.707107 2808.32 21038)">10/26</text></g><g><text font-family="Inter,Inter_MSFontService,sans-serif" font-weight="400" font-size="32" transform="matrix(0.707107 -0.707107 0.707107 0.707107 2962.94 21031)">11/16</text></g><g><text font-family="Inter,Inter_MSFontService,sans-serif" font-weight="400" font-size="32" transform="matrix(0.707107 -0.707107 0.707107 0.707107 3119.26 21022)">12/7</text></g><g><text font-family="Inter,Inter_MSFontService,sans-serif" font-weight="400" font-size="32" transform="matrix(0.707107 -0.707107 0.707107 0.707107 3252.27 21037)">12/28</text></g><g><text font-family="Inter,Inter_MSFontService,sans-serif" font-weight="400" font-size="32" transform="matrix(0.707107 -0.707107 0.707107 0.707107 3416.97 21020)">1/18</text></g><g><text font-family="Inter,Inter_MSFontService,sans-serif" font-weight="400" font-size="32" transform="matrix(0.707107 -0.707107 0.707107 0.707107 3572.09 21013)">2/8</text></g><g><text font-family="Inter Medium,Inter Medium_MSFontService,sans-serif" font-weight="700" font-size="46" transform="matrix(1 0 0 1 1739.7 20121)">U.S. Hotel Occupancy and ADR Recovery Levels</text></g><g><path d="M1730.5 20215.5 1818.5 20215.5" stroke="#FFB226" stroke-width="9.16667" stroke-linecap="round" stroke-linejoin="round" stroke-miterlimit="10" fill="none" fill-rule="evenodd"/></g><g><text font-family="Inter Medium,Inter Medium_MSFontService,sans-serif" font-weight="500" font-size="37" transform="matrix(1 0 0 1 1828.02 20228)">Occ Index</text></g><g><path d="M2054.5 20215.5 2142.5 20215.5" stroke="#000000" stroke-width="9.16667" stroke-linecap="round" stroke-linejoin="round" stroke-miterlimit="10" fill="none" fill-rule="evenodd"/></g><g><text font-family="Inter Medium,Inter Medium_MSFontService,sans-serif" font-weight="500" font-size="37" transform="matrix(1 0 0 1 2152.23 20228)">ADR Index</text></g><rect x="1656.5" y="20032.5" width="2100" height="1055" stroke="#D9D9D9" stroke-width="3.4375" stroke-linejoin="round" stroke-miterlimit="10" fill="none"/><g><text fill="#7F7F7F" font-family="Inter,Inter_MSFontService,sans-serif" font-weight="400" font-size="32" transform="matrix(1 0 0 1 1737.48 20176)">Indexed to 2023, Source: STR, str.com</text></g><g><g><text font-family="Inter Medium,Inter Medium_MSFontService,sans-serif" font-weight="700" font-size="37" transform="matrix(1 0 0 1 3305.76 21052)">2025</text></g></g></g></svg>