<svg width="2106" height="1059" xmlns="http://www.w3.org/2000/svg" xmlns:xlink="http://www.w3.org/1999/xlink" xml:space="preserve" overflow="hidden"><defs><filter id="fx0" x="-10%" y="-10%" width="120%" height="120%" filterUnits="userSpaceOnUse" primitiveUnits="userSpaceOnUse"><feComponentTransfer color-interpolation-filters="sRGB"><feFuncR type="discrete" tableValues="0 0"/><feFuncG type="discrete" tableValues="0 0"/><feFuncB type="discrete" tableValues="0 0"/><feFuncA type="linear" slope="0.501961" intercept="0"/></feComponentTransfer><feGaussianBlur stdDeviation="4.58333 4.58333"/></filter><filter id="fx1" x="-10%" y="-10%" width="120%" height="120%" filterUnits="userSpaceOnUse" primitiveUnits="userSpaceOnUse"><feComponentTransfer color-interpolation-filters="sRGB"><feFuncR type="discrete" tableValues="0 0"/><feFuncG type="discrete" tableValues="0 0"/><feFuncB type="discrete" tableValues="0 0"/><feFuncA type="linear" slope="0.501961" intercept="0"/></feComponentTransfer><feGaussianBlur stdDeviation="4.58333 4.58333"/></filter><clipPath id="clip2"><rect x="1657" y="20055" width="2106" height="1059"/></clipPath><clipPath id="clip3"><rect x="1825" y="20303" width="1885" height="659"/></clipPath><clipPath id="clip4"><rect x="1825" y="20303" width="1885" height="659"/></clipPath></defs><g clip-path="url(#clip2)" transform="translate(-1657 -20055)"><rect x="1658" y="20056" width="2103" height="1056" fill="#FFFFFF"/><g><rect x="1825" y="20304" width="1882" height="655" fill="#F2F2F2"/></g><g><path d="M1825.5 20522.5 3707.5 20522.5" stroke="#D9D9D9" stroke-width="3.4375" stroke-linejoin="round" stroke-miterlimit="10" fill="none" fill-rule="evenodd"/></g><g clip-path="url(#clip3)"><g filter="url(#fx0)" transform="translate(1815 20411)"><g><path d="M19.9817 107.417C34.1841 120.147 48.3866 131.249 62.589 145.609 76.791 159.969 90.9935 202.103 105.196 193.58 119.398 185.056 133.601 123.464 147.803 94.4669 162.005 65.4697 176.208 13.9824 190.41 19.5973 204.612 25.2121 218.815 110.661 233.017 128.156 242.767 140.166 265.875 105.504 275.625 124.567 289.827 152.334 304.029 292.54 318.232 294.761 332.434 296.983 346.637 175.296 360.839 137.896 375.017 100.559 389.268 65.4245 403.446 70.3606 417.648 75.3047 431.851 158.553 446.053 167.561 460.255 176.569 474.458 131.606 488.66 124.409 502.863 117.212 517.065 119.582 531.267 124.38 545.469 129.179 559.672 143.198 573.875 153.202 588.077 163.205 602.28 181.465 616.482 184.401 630.684 187.337 644.886 187.146 659.089 170.819 673.291 154.492 687.494 95.258 701.696 86.4411 715.898 77.6242 730.101 111.482 744.303 117.918 758.505 124.353 772.708 114.517 786.91 125.055 801.113 135.593 815.315 172.908 829.518 181.144 843.72 189.379 857.922 182.474 872.125 174.469 886.327 166.463 900.529 143.06 914.732 133.109 928.934 123.159 943.137 113.582 957.339 114.765 971.541 115.948 985.744 136.412 999.946 140.208 1014.15 144.003 1028.35 137.391 1042.55 137.538 1056.76 137.684 1070.96 141.502 1085.16 141.085 1099.36 140.668 1113.57 138.266 1127.77 135.035 1141.97 131.805 1156.17 117.986 1170.37 121.702 1184.58 125.419 1205.88 151.396 1212.98 157.334" stroke="#FFB226" stroke-width="9" stroke-linecap="round" stroke-linejoin="round" stroke-miterlimit="10" fill="none"/></g></g></g><g clip-path="url(#clip4)"><g filter="url(#fx1)" transform="translate(1815 20401)"><g><path d="M19.9817 71.9686C34.1841 74.0182 48.3866 67.2247 62.589 78.118 76.791 89.011 90.9935 136.228 105.196 137.328 119.398 138.427 133.601 96.7475 147.803 84.7152 162.005 72.6825 176.208 65.4212 190.41 65.1323 204.612 64.843 218.815 78.2668 233.017 82.9801 247.22 87.693 261.422 84.5819 275.625 93.4116 289.827 102.241 304.029 147.982 318.232 135.958 332.434 123.932 346.637 32.5402 360.839 21.2615 375.041 9.98242 389.244 51.5061 403.446 68.2837 417.648 85.061 431.851 119.152 446.053 121.927 460.255 124.702 474.458 92.7906 488.66 84.9338 502.863 77.0767 517.065 69.1248 531.267 74.7851 545.469 80.445 559.672 111.586 573.875 118.894 588.077 126.201 602.28 121.049 616.482 118.63 630.684 116.211 644.886 111.71 659.089 104.382 673.291 97.0536 687.494 71.8656 701.696 74.6601 715.898 77.4542 730.101 111.012 744.303 121.147 758.505 131.282 772.708 134.861 786.91 135.473 801.113 136.084 815.315 125.189 829.518 124.815 843.72 124.441 857.922 133.696 872.125 133.229 886.327 132.761 900.529 126.047 914.732 122.008 928.934 117.97 943.137 108.32 957.339 108.997 971.541 109.673 985.744 125.646 999.946 126.069 1014.15 126.491 1028.35 111.94 1042.55 111.533 1056.76 111.125 1070.96 126.131 1085.16 123.624 1099.36 121.118 1113.57 95.4496 1127.77 96.4946 1141.97 97.5395 1156.17 126.172 1170.37 129.894 1184.58 133.617 1205.88 120.673 1212.98 118.829" stroke="#000000" stroke-width="9" stroke-linecap="round" stroke-linejoin="round" stroke-miterlimit="10" fill="none"/></g></g></g><g><path d="M1828.5 20511.9C1842.7 20524.7 1856.9 20535.8 1871.11 20550.1 1885.31 20564.5 1899.51 20606.6 1913.71 20598.1 1927.92 20589.6 1942.12 20528 1956.32 20499 1970.52 20470 1984.73 20418.5 1998.93 20424.1 2013.13 20429.7 2027.33 20515.2 2041.54 20532.7 2051.29 20544.7 2074.39 20510 2084.14 20529.1 2098.34 20556.9 2112.55 20697.1 2126.75 20699.3 2140.95 20701.5 2155.15 20579.8 2169.36 20542.4 2183.54 20505.1 2197.79 20469.9 2211.96 20474.9 2226.17 20479.8 2240.37 20563.1 2254.57 20572.1 2268.77 20581.1 2282.98 20536.1 2297.18 20528.9 2311.38 20521.7 2325.58 20524.1 2339.79 20528.9 2353.99 20533.7 2368.19 20547.7 2382.39 20557.7 2396.6 20567.7 2410.8 20586 2425 20588.9 2439.2 20591.9 2453.4 20591.7 2467.61 20575.3 2481.81 20559 2496.01 20499.8 2510.21 20491 2524.42 20482.1 2538.62 20516 2552.82 20522.4 2567.02 20528.9 2581.23 20519 2595.43 20529.6 2609.63 20540.1 2623.83 20577.4 2638.04 20585.7 2652.24 20593.9 2666.44 20587 2680.64 20579 2694.84 20571 2709.05 20547.6 2723.25 20537.6 2737.45 20527.7 2751.65 20518.1 2765.86 20519.3 2780.06 20520.5 2794.26 20540.9 2808.46 20544.7 2822.67 20548.5 2836.87 20541.9 2851.07 20542.1 2865.27 20542.2 2879.48 20546 2893.68 20545.6 2907.88 20545.2 2922.08 20542.8 2936.29 20539.6 2950.49 20536.3 2964.69 20522.5 2978.89 20526.2 2993.1 20529.9 3014.4 20555.9 3021.5 20561.9" stroke="#FFB226" stroke-width="9.16667" stroke-linecap="round" stroke-linejoin="round" stroke-miterlimit="10" fill="none"/></g><g><path d="M1828.5 20466.5C1842.7 20468.5 1856.9 20461.7 1871.11 20472.6 1885.31 20483.5 1899.51 20530.7 1913.71 20531.8 1927.92 20532.9 1942.12 20491.3 1956.32 20479.2 1970.52 20467.2 1984.73 20459.9 1998.93 20459.7 2013.13 20459.4 2027.33 20472.8 2041.54 20477.5 2055.74 20482.2 2069.94 20479.1 2084.14 20487.9 2098.34 20496.8 2112.55 20542.5 2126.75 20530.5 2140.95 20518.4 2155.15 20427.1 2169.36 20415.8 2183.56 20404.5 2197.76 20446 2211.96 20462.8 2226.17 20479.6 2240.37 20513.7 2254.57 20516.4 2268.77 20519.2 2282.98 20487.3 2297.18 20479.5 2311.38 20471.6 2325.58 20463.6 2339.79 20469.3 2353.99 20475 2368.19 20506.1 2382.39 20513.4 2396.6 20520.7 2410.8 20515.6 2425 20513.1 2439.2 20510.7 2453.4 20506.2 2467.61 20498.9 2481.81 20491.6 2496.01 20466.4 2510.21 20469.2 2524.42 20472 2538.62 20505.5 2552.82 20515.7 2567.02 20525.8 2581.23 20529.4 2595.43 20530 2609.63 20530.6 2623.83 20519.7 2638.04 20519.3 2652.24 20519 2666.44 20528.2 2680.64 20527.7 2694.84 20527.3 2709.05 20520.6 2723.25 20516.5 2737.45 20512.5 2751.65 20502.8 2765.86 20503.5 2780.06 20504.2 2794.26 20520.2 2808.46 20520.6 2822.67 20521 2836.87 20506.5 2851.07 20506.1 2865.27 20505.6 2879.48 20520.6 2893.68 20518.1 2907.88 20515.6 2922.08 20490 2936.29 20491 2950.49 20492.1 2964.69 20520.7 2978.89 20524.4 2993.1 20528.1 3014.4 20515.2 3021.5 20513.3" stroke="#000000" stroke-width="9.16667" stroke-linecap="round" stroke-linejoin="round" stroke-miterlimit="10" fill="none"/></g><g><text font-family="Inter,Inter_MSFontService,sans-serif" font-weight="400" font-size="32" transform="matrix(1 0 0 1 1755.7 20969)">80</text></g><g><text font-family="Inter,Inter_MSFontService,sans-serif" font-weight="400" font-size="32" transform="matrix(1 0 0 1 1755.47 20751)">90</text></g><g><text font-family="Inter,Inter_MSFontService,sans-serif" font-weight="400" font-size="32" transform="matrix(1 0 0 1 1740.53 20532)">100</text></g><g><text font-family="Inter,Inter_MSFontService,sans-serif" font-weight="400" font-size="32" transform="matrix(1 0 0 1 1745.68 20314)">110</text></g><g><text font-family="Inter,Inter_MSFontService,sans-serif" font-weight="400" font-size="32" transform="matrix(0.707107 -0.707107 0.707107 0.707107 1803.48 21035)">3/1</text></g><g><text font-family="Inter,Inter_MSFontService,sans-serif" font-weight="400" font-size="32" transform="matrix(0.707107 -0.707107 0.707107 0.707107 1914.44 21052)">3/22</text></g><g><text font-family="Inter,Inter_MSFontService,sans-serif" font-weight="400" font-size="32" transform="matrix(0.707107 -0.707107 0.707107 0.707107 2045.39 21049)">4/12</text></g><g><text font-family="Inter,Inter_MSFontService,sans-serif" font-weight="400" font-size="32" transform="matrix(0.707107 -0.707107 0.707107 0.707107 2183.87 21038)">5/3</text></g><g><text font-family="Inter,Inter_MSFontService,sans-serif" font-weight="400" font-size="32" transform="matrix(0.707107 -0.707107 0.707107 0.707107 2297.9 21052)">5/24</text></g><g><text font-family="Inter,Inter_MSFontService,sans-serif" font-weight="400" font-size="32" transform="matrix(0.707107 -0.707107 0.707107 0.707107 2428.62 21049)">6/14</text></g><g><text font-family="Inter,Inter_MSFontService,sans-serif" font-weight="400" font-size="32" transform="matrix(0.707107 -0.707107 0.707107 0.707107 2569.02 21037)">7/5</text></g><g><text font-family="Inter,Inter_MSFontService,sans-serif" font-weight="400" font-size="32" transform="matrix(0.707107 -0.707107 0.707107 0.707107 2682.82 21051)">7/26</text></g><g><text font-family="Inter,Inter_MSFontService,sans-serif" font-weight="400" font-size="32" transform="matrix(0.707107 -0.707107 0.707107 0.707107 2812.86 21049)">8/16</text></g><g><text font-family="Inter,Inter_MSFontService,sans-serif" font-weight="400" font-size="32" transform="matrix(0.707107 -0.707107 0.707107 0.707107 2951.11 21038)">9/6</text></g><g><text font-family="Inter,Inter_MSFontService,sans-serif" font-weight="400" font-size="32" transform="matrix(0.707107 -0.707107 0.707107 0.707107 3066.47 21051)">9/27</text></g><g><text font-family="Inter,Inter_MSFontService,sans-serif" font-weight="400" font-size="32" transform="matrix(0.707107 -0.707107 0.707107 0.707107 3185.95 21059)">10/18</text></g><g><text font-family="Inter,Inter_MSFontService,sans-serif" font-weight="400" font-size="32" transform="matrix(0.707107 -0.707107 0.707107 0.707107 3328.01 21045)">11/8</text></g><g><text font-family="Inter,Inter_MSFontService,sans-serif" font-weight="400" font-size="32" transform="matrix(0.707107 -0.707107 0.707107 0.707107 3442.01 21059)">11/29</text></g><g><text font-family="Inter,Inter_MSFontService,sans-serif" font-weight="400" font-size="32" transform="matrix(0.707107 -0.707107 0.707107 0.707107 3566.67 21062)">12/20</text></g><g><text font-family="Inter Medium,Inter Medium_MSFontService,sans-serif" font-weight="700" font-size="46" transform="matrix(1 0 0 1 1742.02 20145)">U.S. Hotel Occupancy and ADR Recovery Levels</text></g><g><path d="M1733.5 20240.5 1821.5 20240.5" stroke="#FFB226" stroke-width="9.16667" stroke-linecap="round" stroke-linejoin="round" stroke-miterlimit="10" fill="none" fill-rule="evenodd"/></g><g><text font-family="Inter Medium,Inter Medium_MSFontService,sans-serif" font-weight="500" font-size="37" transform="matrix(1 0 0 1 1830.61 20252)">Occ Index</text></g><g><path d="M2057.5 20240.5 2145.5 20240.5" stroke="#000000" stroke-width="9.16667" stroke-linecap="round" stroke-linejoin="round" stroke-miterlimit="10" fill="none" fill-rule="evenodd"/></g><g><text font-family="Inter Medium,Inter Medium_MSFontService,sans-serif" font-weight="500" font-size="37" transform="matrix(1 0 0 1 2155.16 20252)">ADR Index</text></g><rect x="1658.5" y="20056.5" width="2103" height="1056" stroke="#D9D9D9" stroke-width="3.4375" stroke-linejoin="round" stroke-miterlimit="10" fill="none"/><g><text fill="#7F7F7F" font-family="Inter,Inter_MSFontService,sans-serif" font-weight="400" font-size="32" transform="matrix(1 0 0 1 1739.76 20199)">YOY, Source: STR, str.com</text></g></g></svg>