<svg width="2106" height="1065" xmlns="http://www.w3.org/2000/svg" xmlns:xlink="http://www.w3.org/1999/xlink" xml:space="preserve" overflow="hidden"><defs><filter id="fx0" x="-10%" y="-10%" width="120%" height="120%" filterUnits="userSpaceOnUse" primitiveUnits="userSpaceOnUse"><feComponentTransfer color-interpolation-filters="sRGB"><feFuncR type="discrete" tableValues="0 0"/><feFuncG type="discrete" tableValues="0 0"/><feFuncB type="discrete" tableValues="0 0"/><feFuncA type="linear" slope="0.501961" intercept="0"/></feComponentTransfer><feGaussianBlur stdDeviation="4.58333 4.58333"/></filter><filter id="fx1" x="-10%" y="-10%" width="120%" height="120%" filterUnits="userSpaceOnUse" primitiveUnits="userSpaceOnUse"><feComponentTransfer color-interpolation-filters="sRGB"><feFuncR type="discrete" tableValues="0 0"/><feFuncG type="discrete" tableValues="0 0"/><feFuncB type="discrete" tableValues="0 0"/><feFuncA type="linear" slope="0.501961" intercept="0"/></feComponentTransfer><feGaussianBlur stdDeviation="4.58333 4.58333"/></filter><clipPath id="clip2"><rect x="1657" y="20153" width="2106" height="1065"/></clipPath><clipPath id="clip3"><rect x="1825" y="20403" width="1885" height="662"/></clipPath><clipPath id="clip4"><rect x="1825" y="20403" width="1885" height="662"/></clipPath></defs><g clip-path="url(#clip2)" transform="translate(-1657 -20153)"><rect x="1658" y="20154" width="2103" height="1062" fill="#FFFFFF"/><g><path d="M2744.5 20403.5 2787.59 20403.5 2831.59 20403.5 2875.59 20403.5 2918.6 20403.5 2962.6 20403.5 3005.6 20403.5 3049.6 20403.5 3093.6 20403.5 3136.6 20403.5 3180.6 20403.5 3224.61 20403.5 3267.61 20403.5 3311.61 20403.5 3354.61 20403.5 3398.61 20403.5 3442.61 20403.5 3485.61 20403.5 3529.62 20403.5 3572.62 20403.5 3616.62 20403.5 3660.62 20403.5 3703.5 20403.5 3703.5 21062.5 3660.62 21062.5 3616.62 21062.5 3572.62 21062.5 3529.62 21062.5 3485.61 21062.5 3442.61 21062.5 3398.61 21062.5 3354.61 21062.5 3311.61 21062.5 3267.61 21062.5 3224.61 21062.5 3180.6 21062.5 3136.6 21062.5 3093.6 21062.5 3049.6 21062.5 3005.6 21062.5 2962.6 21062.5 2918.6 21062.5 2875.59 21062.5 2831.59 21062.5 2787.59 21062.5 2744.5 21062.5Z" stroke="#BFBFBF" stroke-width="3.4375" stroke-linejoin="round" stroke-miterlimit="10" stroke-opacity="0.501961" fill="#D9D9D9" fill-opacity="0.501961"/></g><g><path d="M1825.5 20798.5 3707.5 20798.5" stroke="#D9D9D9" stroke-width="3.4375" stroke-linejoin="round" stroke-miterlimit="10" fill="none" fill-rule="evenodd"/></g><g clip-path="url(#clip3)"><g filter="url(#fx0)" transform="translate(1815 20509)"><g><path d="M19.9817 286.538C34.5207 287.154 49.0598 286.462 63.5992 288.385 78.1382 290.308 92.6776 300.507 107.217 298.075 121.756 295.643 136.295 278.327 150.835 273.793 165.374 269.258 179.913 258.041 194.452 270.871 208.991 283.701 223.53 342.997 238.07 350.774 252.609 358.551 267.148 327.926 281.687 317.531 296.226 307.137 310.766 297.579 325.305 288.407 339.844 279.236 354.383 254.086 368.923 262.5 383.462 270.914 398.001 339.066 412.54 338.893 427.08 338.719 441.619 272.093 456.158 261.459 470.697 250.824 485.236 279.301 499.776 275.086 514.315 270.872 528.854 236.718 543.393 236.172 557.932 235.626 572.472 254.361 587.011 271.812 601.55 289.262 616.089 339.994 630.629 340.874 640.802 341.489 664.073 314.372 674.247 277.089 688.786 223.807 703.325 0.982422 717.864 21.1816 732.403 41.3809 746.942 353.587 761.481 398.285 776.021 442.982 790.56 325.682 805.099 289.368 819.638 253.054 834.177 204.307 848.717 180.4 860.907 160.356 880.144 120.932 892.335 145.928 906.874 175.74 921.413 341.286 935.952 359.272 950.491 377.258 965.031 247.468 979.57 253.845 994.109 260.222 1008.65 405.648 1023.19 397.536 1037.73 389.423 1052.27 214.646 1066.81 205.171 1081.34 195.696 1095.88 330.705 1110.42 340.685 1124.96 350.666 1139.5 271.31 1154.04 265.054 1168.58 258.797 1183.12 300.94 1197.66 303.146 1212.2 305.351 1226.74 273.436 1241.28 278.289 1255.81 283.141 1270.35 330.347 1284.89 332.262 1299.43 334.176 1313.97 293.022 1328.51 289.778 1343.05 286.534 1357.59 304.142 1372.13 312.798 1386.67 321.454 1401.21 346.849 1415.75 341.712 1430.29 336.574 1444.82 299.45 1459.36 281.973 1473.9 264.495 1495.71 244.366 1502.98 236.845" stroke="#FFB226" stroke-width="9" stroke-linecap="round" stroke-linejoin="round" stroke-miterlimit="10" fill="none"/></g></g></g><g clip-path="url(#clip4)"><g filter="url(#fx1)" transform="translate(1815 20640)"><g><path d="M19.9817 152.22C34.5207 148.004 49.0598 140.65 63.5992 139.572 78.1382 138.493 92.6776 148.184 107.217 145.749 121.756 143.313 136.295 126.343 150.835 124.958 165.374 123.572 179.913 129.331 194.452 137.434 208.991 145.537 223.53 170.214 238.07 173.574 252.609 176.935 267.148 164.123 281.687 157.598 296.226 151.073 310.766 150.336 325.305 134.426 339.844 118.515 354.383 47.7352 368.923 62.1364 383.462 76.5372 398.001 207.205 412.54 220.831 427.08 234.457 441.619 159.211 456.158 143.894 470.697 128.576 485.236 136.037 499.776 128.925 514.315 121.813 528.854 98.2133 543.393 101.222 557.932 104.229 572.472 136.494 587.011 146.973 601.55 157.452 616.089 158.988 630.629 164.096 644.403 168.935 660.471 195.797 674.247 177.622 688.786 158.438 703.325 45.3755 717.864 48.9919 732.403 52.608 746.942 189.151 761.481 199.32 776.021 209.488 790.56 135.072 805.099 110.005 819.638 84.9381 834.177 46.1029 848.717 48.9181 863.256 51.733 877.795 104.05 892.335 126.895 906.874 149.74 921.413 203.731 935.952 185.989 950.491 168.246 965.031 9.98242 979.57 20.4424 994.109 30.902 1008.65 245.511 1023.19 248.747 1037.73 251.982 1052.27 60.3334 1066.81 39.8568 1081.34 19.3797 1095.88 108.384 1110.42 125.886 1124.96 143.387 1139.5 131.65 1154.04 144.868 1168.58 158.085 1183.12 205.291 1197.66 205.193 1212.2 205.095 1226.74 155.578 1241.28 144.281 1255.81 132.985 1270.35 139.571 1284.89 137.414 1299.43 135.257 1313.97 131.733 1328.51 131.339 1343.05 130.944 1357.59 128.479 1372.13 135.045 1386.67 141.612 1401.21 170.073 1415.75 170.736 1430.29 171.399 1444.82 146.275 1459.36 139.022 1473.9 131.769 1495.71 129.185 1502.98 127.218" stroke="#000000" stroke-width="9" stroke-linecap="round" stroke-linejoin="round" stroke-miterlimit="10" fill="none"/></g></g></g><g><path d="M1828.5 20789.1C1843.04 20789.7 1857.58 20789 1872.12 20790.9 1886.66 20792.8 1901.2 20803 1915.74 20800.6 1930.27 20798.2 1944.81 20780.8 1959.35 20776.3 1973.89 20771.8 1988.43 20760.6 2002.97 20773.4 2017.51 20786.2 2032.05 20845.5 2046.59 20853.3 2061.13 20861.1 2075.67 20830.4 2090.21 20820 2104.74 20809.7 2119.28 20800.1 2133.82 20790.9 2148.36 20781.8 2162.9 20756.6 2177.44 20765 2191.98 20773.4 2206.52 20841.6 2221.06 20841.4 2235.6 20841.2 2250.14 20774.6 2264.68 20764 2279.22 20753.3 2293.75 20781.8 2308.29 20777.6 2322.83 20773.4 2337.37 20739.2 2351.91 20738.7 2366.45 20738.1 2380.99 20756.9 2395.53 20774.3 2410.07 20791.8 2424.61 20842.5 2439.15 20843.4 2449.32 20844 2472.59 20816.9 2482.76 20779.6 2497.3 20726.3 2511.84 20503.5 2526.38 20523.7 2540.92 20543.9 2555.46 20856.1 2570 20900.8 2584.54 20945.5 2599.08 20828.2 2613.62 20791.9 2628.16 20755.6 2642.7 20706.8 2657.24 20682.9 2669.42 20662.9 2688.66 20623.4 2700.85 20648.4 2715.39 20678.3 2729.93 20843.8 2744.47 20861.8 2759.01 20879.8 2773.55 20750 2788.09 20756.4 2802.63 20762.7 2817.17 20908.2 2831.71 20900.1 2846.24 20891.9 2860.78 20717.2 2875.32 20707.7 2889.86 20698.2 2904.4 20833.2 2918.94 20843.2 2933.48 20853.2 2948.02 20773.8 2962.56 20767.6 2977.1 20761.3 2991.64 20803.5 3006.18 20805.7 3020.72 20807.9 3035.25 20776 3049.79 20780.8 3064.33 20785.7 3078.87 20832.9 3093.41 20834.8 3107.95 20836.7 3122.49 20795.5 3137.03 20792.3 3151.57 20789.1 3166.11 20806.7 3180.65 20815.3 3195.19 20824 3209.73 20849.4 3224.26 20844.2 3238.8 20839.1 3253.34 20802 3267.88 20784.5 3282.42 20767 3304.23 20746.9 3311.5 20739.4" stroke="#FFB226" stroke-width="9.16667" stroke-linecap="round" stroke-linejoin="round" stroke-miterlimit="10" fill="none"/></g><g><path d="M1828.5 20785.7C1843.04 20781.5 1857.58 20774.2 1872.12 20773.1 1886.66 20772 1901.2 20781.7 1915.74 20779.3 1930.27 20776.8 1944.81 20759.9 1959.35 20758.5 1973.89 20757.1 1988.43 20762.8 2002.97 20771 2017.51 20779.1 2032.05 20803.7 2046.59 20807.1 2061.13 20810.5 2075.67 20797.6 2090.21 20791.1 2104.74 20784.6 2119.28 20783.9 2133.82 20767.9 2148.36 20752 2162.9 20681.3 2177.44 20695.7 2191.98 20710.1 2206.52 20840.7 2221.06 20854.3 2235.6 20868 2250.14 20792.7 2264.68 20777.4 2279.22 20762.1 2293.75 20769.6 2308.29 20762.4 2322.83 20755.3 2337.37 20731.7 2351.91 20734.7 2366.45 20737.7 2380.99 20770 2395.53 20780.5 2410.07 20791 2424.61 20792.5 2439.15 20797.6 2452.92 20802.5 2468.99 20829.3 2482.76 20811.1 2497.3 20792 2511.84 20678.9 2526.38 20682.5 2540.92 20686.1 2555.46 20822.7 2570 20832.8 2584.54 20843 2599.08 20768.6 2613.62 20743.5 2628.16 20718.5 2642.7 20679.6 2657.24 20682.4 2671.77 20685.2 2686.31 20737.6 2700.85 20760.4 2715.39 20783.3 2729.93 20837.2 2744.47 20819.5 2759.01 20801.8 2773.55 20643.5 2788.09 20654 2802.63 20664.4 2817.17 20879 2831.71 20882.3 2846.24 20885.5 2860.78 20693.9 2875.32 20673.4 2889.86 20652.9 2904.4 20741.9 2918.94 20759.4 2933.48 20776.9 2948.02 20765.2 2962.56 20778.4 2977.1 20791.6 2991.64 20838.8 3006.18 20838.7 3020.72 20838.6 3035.25 20789.1 3049.79 20777.8 3064.33 20766.5 3078.87 20773.1 3093.41 20770.9 3107.95 20768.8 3122.49 20765.2 3137.03 20764.9 3151.57 20764.5 3166.11 20762 3180.65 20768.6 3195.19 20775.1 3209.73 20803.6 3224.26 20804.3 3238.8 20804.9 3253.34 20779.8 3267.88 20772.5 3282.42 20765.3 3304.23 20762.7 3311.5 20760.7" stroke="#000000" stroke-width="9.16667" stroke-linecap="round" stroke-linejoin="round" stroke-miterlimit="10" fill="none"/></g><g><text font-family="Inter,Inter_MSFontService,sans-serif" font-weight="400" font-size="32" transform="matrix(1 0 0 1 1755.7 21072)">80</text></g><g><text font-family="Inter,Inter_MSFontService,sans-serif" font-weight="400" font-size="32" transform="matrix(1 0 0 1 1755.47 20940)">90</text></g><g><text font-family="Inter,Inter_MSFontService,sans-serif" font-weight="400" font-size="32" transform="matrix(1 0 0 1 1740.53 20809)">100</text></g><g><text font-family="Inter,Inter_MSFontService,sans-serif" font-weight="400" font-size="32" transform="matrix(1 0 0 1 1745.68 20677)">110</text></g><g><text font-family="Inter,Inter_MSFontService,sans-serif" font-weight="400" font-size="32" transform="matrix(1 0 0 1 1741.17 20545)">120</text></g><g><text font-family="Inter,Inter_MSFontService,sans-serif" font-weight="400" font-size="32" transform="matrix(1 0 0 1 1740.16 20413)">130</text></g><g><text font-family="Inter,Inter_MSFontService,sans-serif" font-weight="400" font-size="32" transform="matrix(0.707107 -0.707107 0.707107 0.707107 1800.1 21141)">8/3</text></g><g><text font-family="Inter,Inter_MSFontService,sans-serif" font-weight="400" font-size="32" transform="matrix(0.707107 -0.707107 0.707107 0.707107 1917.09 21155)">8/24</text></g><g><text font-family="Inter,Inter_MSFontService,sans-serif" font-weight="400" font-size="32" transform="matrix(0.707107 -0.707107 0.707107 0.707107 2050.97 21152)">9/14</text></g><g><text font-family="Inter,Inter_MSFontService,sans-serif" font-weight="400" font-size="32" transform="matrix(0.707107 -0.707107 0.707107 0.707107 2182.56 21151)">10/5</text></g><g><text font-family="Inter,Inter_MSFontService,sans-serif" font-weight="400" font-size="32" transform="matrix(0.707107 -0.707107 0.707107 0.707107 2299.33 21165)">10/26</text></g><g><text font-family="Inter,Inter_MSFontService,sans-serif" font-weight="400" font-size="32" transform="matrix(0.707107 -0.707107 0.707107 0.707107 2437.02 21159)">11/16</text></g><g><text font-family="Inter,Inter_MSFontService,sans-serif" font-weight="400" font-size="32" transform="matrix(0.707107 -0.707107 0.707107 0.707107 2576.4 21150)">12/7</text></g><g><text font-family="Inter,Inter_MSFontService,sans-serif" font-weight="400" font-size="32" transform="matrix(0.707107 -0.707107 0.707107 0.707107 2692.49 21165)">12/28</text></g><g><text font-family="Inter,Inter_MSFontService,sans-serif" font-weight="400" font-size="32" transform="matrix(0.707107 -0.707107 0.707107 0.707107 2840.26 21148)">1/18</text></g><g><text font-family="Inter,Inter_MSFontService,sans-serif" font-weight="400" font-size="32" transform="matrix(0.707107 -0.707107 0.707107 0.707107 2978.45 21141)">2/8</text></g><g><text font-family="Inter,Inter_MSFontService,sans-serif" font-weight="400" font-size="32" transform="matrix(0.707107 -0.707107 0.707107 0.707107 3112.03 21138)">3/1</text></g><g><text font-family="Inter,Inter_MSFontService,sans-serif" font-weight="400" font-size="32" transform="matrix(0.707107 -0.707107 0.707107 0.707107 3225.96 21155)">3/22</text></g><g><text font-family="Inter,Inter_MSFontService,sans-serif" font-weight="400" font-size="32" transform="matrix(0.707107 -0.707107 0.707107 0.707107 3359.87 21152)">4/12</text></g><g><text font-family="Inter,Inter_MSFontService,sans-serif" font-weight="400" font-size="32" transform="matrix(0.707107 -0.707107 0.707107 0.707107 3501.32 21141)">5/3</text></g><g><text font-family="Inter,Inter_MSFontService,sans-serif" font-weight="400" font-size="32" transform="matrix(0.707107 -0.707107 0.707107 0.707107 3618.31 21155)">5/24</text></g><g><text font-family="Inter Medium,Inter Medium_MSFontService,sans-serif" font-weight="700" font-size="46" transform="matrix(1 0 0 1 1742.02 20244)">U.S. Hotel Occupancy and ADR Recovery Levels</text></g><g><path d="M1733.5 20339.5 1821.5 20339.5" stroke="#FFB226" stroke-width="9.16667" stroke-linecap="round" stroke-linejoin="round" stroke-miterlimit="10" fill="none" fill-rule="evenodd"/></g><g><text font-family="Inter Medium,Inter Medium_MSFontService,sans-serif" font-weight="500" font-size="37" transform="matrix(1 0 0 1 1830.61 20351)">Occ Index</text></g><g><path d="M2057.5 20339.5 2145.5 20339.5" stroke="#000000" stroke-width="9.16667" stroke-linecap="round" stroke-linejoin="round" stroke-miterlimit="10" fill="none" fill-rule="evenodd"/></g><g><text font-family="Inter Medium,Inter Medium_MSFontService,sans-serif" font-weight="500" font-size="37" transform="matrix(1 0 0 1 2155.16 20351)">ADR Index</text></g><rect x="1658.5" y="20154.5" width="2103" height="1062" stroke="#D9D9D9" stroke-width="3.4375" stroke-linejoin="round" stroke-miterlimit="10" fill="none"/><g><text fill="#7F7F7F" font-family="Inter,Inter_MSFontService,sans-serif" font-weight="400" font-size="32" transform="matrix(1 0 0 1 1739.76 20299)">Indexed to 2023, Source: STR, str.com</text></g><g><g><text font-family="Inter Medium,Inter Medium_MSFontService,sans-serif" font-weight="700" font-size="37" transform="matrix(1 0 0 1 2742.4 21188)">2025</text></g></g></g></svg>