<svg width="2106" height="1059" xmlns="http://www.w3.org/2000/svg" xmlns:xlink="http://www.w3.org/1999/xlink" xml:space="preserve" overflow="hidden"><defs><filter id="fx0" x="-10%" y="-10%" width="120%" height="120%" filterUnits="userSpaceOnUse" primitiveUnits="userSpaceOnUse"><feComponentTransfer color-interpolation-filters="sRGB"><feFuncR type="discrete" tableValues="0 0"/><feFuncG type="discrete" tableValues="0 0"/><feFuncB type="discrete" tableValues="0 0"/><feFuncA type="linear" slope="0.501961" intercept="0"/></feComponentTransfer><feGaussianBlur stdDeviation="4.58333 4.58333"/></filter><filter id="fx1" x="-10%" y="-10%" width="120%" height="120%" filterUnits="userSpaceOnUse" primitiveUnits="userSpaceOnUse"><feComponentTransfer color-interpolation-filters="sRGB"><feFuncR type="discrete" tableValues="0 0"/><feFuncG type="discrete" tableValues="0 0"/><feFuncB type="discrete" tableValues="0 0"/><feFuncA type="linear" slope="0.501961" intercept="0"/></feComponentTransfer><feGaussianBlur stdDeviation="4.58333 4.58333"/></filter><clipPath id="clip2"><rect x="1657" y="20055" width="2106" height="1059"/></clipPath><clipPath id="clip3"><rect x="1825" y="20303" width="1885" height="659"/></clipPath><clipPath id="clip4"><rect x="1825" y="20303" width="1885" height="659"/></clipPath></defs><g clip-path="url(#clip2)" transform="translate(-1657 -20055)"><rect x="1658" y="20056" width="2103" height="1056" fill="#FFFFFF"/><g><rect x="1825" y="20304" width="1882" height="655" fill="#F2F2F2"/></g><g><path d="M1825.5 20522.5 3707.5 20522.5" stroke="#D9D9D9" stroke-width="3.4375" stroke-linejoin="round" stroke-miterlimit="10" fill="none" fill-rule="evenodd"/></g><g clip-path="url(#clip3)"><g filter="url(#fx0)" transform="translate(1815 20411)"><g><path d="M19.9817 107.417C34.1951 120.147 48.4085 131.249 62.6218 145.609 76.8349 159.969 91.0482 202.103 105.262 193.58 119.475 185.056 133.688 123.464 147.902 94.4669 162.115 65.4697 176.328 13.9824 190.542 19.5973 204.755 25.2121 218.968 110.661 233.182 128.156 242.939 140.166 266.064 105.504 275.822 124.567 290.035 152.334 304.248 292.54 318.462 294.761 332.675 296.983 346.888 175.296 361.102 137.896 375.291 100.559 389.552 65.4245 403.742 70.3606 417.955 75.3047 432.168 158.553 446.382 167.561 460.595 176.569 474.808 131.606 489.022 124.409 503.235 117.212 517.448 119.582 531.662 124.38 545.875 129.179 560.088 143.198 574.302 153.202 588.515 163.205 602.729 181.465 616.942 184.401 631.155 187.337 645.368 187.146 659.582 170.819 673.795 154.492 688.008 95.258 702.222 86.4411 716.435 77.6242 730.648 111.482 744.862 117.918 759.075 124.353 773.288 114.517 787.502 125.055 801.715 135.593 815.928 172.908 830.142 181.144 844.355 189.379 858.568 182.474 872.782 174.469 886.995 166.463 901.208 143.06 915.422 133.109 929.635 123.159 943.849 113.582 958.062 114.765 972.275 115.948 986.488 136.412 1000.7 140.208 1014.91 144.003 1029.13 137.391 1043.34 137.538 1057.55 137.684 1078.87 140.493 1085.98 141.085" stroke="#FFB226" stroke-width="9" stroke-linecap="round" stroke-linejoin="round" stroke-miterlimit="10" fill="none"/></g></g></g><g clip-path="url(#clip4)"><g filter="url(#fx1)" transform="translate(1815 20401)"><g><path d="M19.9817 71.9686C34.1951 74.0182 48.4085 67.2247 62.6218 78.118 76.8349 89.011 91.0482 136.228 105.262 137.328 119.475 138.427 133.688 96.7475 147.902 84.7152 162.115 72.6825 176.328 65.4212 190.542 65.1323 204.755 64.843 218.968 78.2668 233.182 82.9801 247.395 87.693 261.608 84.5819 275.822 93.4116 290.035 102.241 304.248 147.982 318.462 135.958 332.675 123.932 346.888 32.5402 361.102 21.2615 375.315 9.98242 389.529 51.5061 403.742 68.2837 417.955 85.061 432.168 119.152 446.382 121.927 460.595 124.702 474.808 92.7906 489.022 84.9338 503.235 77.0767 517.448 69.1248 531.662 74.7851 545.875 80.445 560.088 111.586 574.302 118.894 588.515 126.201 602.729 121.049 616.942 118.63 631.155 116.211 645.368 111.71 659.582 104.382 673.795 97.0536 688.008 71.8656 702.222 74.6601 716.435 77.4542 730.648 111.012 744.862 121.147 759.075 131.282 773.288 134.861 787.502 135.473 801.715 136.084 815.928 125.189 830.142 124.815 844.355 124.441 858.568 133.696 872.782 133.229 886.995 132.761 901.208 126.047 915.422 122.008 929.635 117.97 943.849 108.32 958.062 108.997 972.275 109.673 986.488 125.646 1000.7 126.069 1014.91 126.491 1029.13 111.94 1043.34 111.533 1057.55 111.125 1078.87 121.609 1085.98 123.624" stroke="#000000" stroke-width="9" stroke-linecap="round" stroke-linejoin="round" stroke-miterlimit="10" fill="none"/></g></g></g><g><path d="M1828.5 20511.9C1842.71 20524.7 1856.93 20535.8 1871.14 20550.1 1885.35 20564.5 1899.57 20606.6 1913.78 20598.1 1927.99 20589.6 1942.21 20528 1956.42 20499 1970.63 20470 1984.85 20418.5 1999.06 20424.1 2013.27 20429.7 2027.49 20515.2 2041.7 20532.7 2051.46 20544.7 2074.58 20510 2084.34 20529.1 2098.55 20556.9 2112.77 20697.1 2126.98 20699.3 2141.19 20701.5 2155.41 20579.8 2169.62 20542.4 2183.81 20505.1 2198.07 20469.9 2212.26 20474.9 2226.47 20479.8 2240.69 20563.1 2254.9 20572.1 2269.11 20581.1 2283.33 20536.1 2297.54 20528.9 2311.75 20521.7 2325.97 20524.1 2340.18 20528.9 2354.39 20533.7 2368.61 20547.7 2382.82 20557.7 2397.03 20567.7 2411.25 20586 2425.46 20588.9 2439.67 20591.9 2453.89 20591.7 2468.1 20575.3 2482.31 20559 2496.53 20499.8 2510.74 20491 2524.95 20482.1 2539.17 20516 2553.38 20522.4 2567.59 20528.9 2581.81 20519 2596.02 20529.6 2610.23 20540.1 2624.45 20577.4 2638.66 20585.7 2652.87 20593.9 2667.09 20587 2681.3 20579 2695.51 20571 2709.73 20547.6 2723.94 20537.6 2738.15 20527.7 2752.37 20518.1 2766.58 20519.3 2780.79 20520.5 2795.01 20540.9 2809.22 20544.7 2823.43 20548.5 2837.65 20541.9 2851.86 20542.1 2866.07 20542.2 2887.39 20545 2894.5 20545.6" stroke="#FFB226" stroke-width="9.16667" stroke-linecap="round" stroke-linejoin="round" stroke-miterlimit="10" fill="none"/></g><g><path d="M1828.5 20466.5C1842.71 20468.5 1856.93 20461.7 1871.14 20472.6 1885.35 20483.5 1899.57 20530.7 1913.78 20531.8 1927.99 20532.9 1942.21 20491.3 1956.42 20479.2 1970.63 20467.2 1984.85 20459.9 1999.06 20459.7 2013.27 20459.4 2027.49 20472.8 2041.7 20477.5 2055.91 20482.2 2070.13 20479.1 2084.34 20487.9 2098.55 20496.8 2112.77 20542.5 2126.98 20530.5 2141.19 20518.4 2155.41 20427.1 2169.62 20415.8 2183.83 20404.5 2198.05 20446 2212.26 20462.8 2226.47 20479.6 2240.69 20513.7 2254.9 20516.4 2269.11 20519.2 2283.33 20487.3 2297.54 20479.5 2311.75 20471.6 2325.97 20463.6 2340.18 20469.3 2354.39 20475 2368.61 20506.1 2382.82 20513.4 2397.03 20520.7 2411.25 20515.6 2425.46 20513.1 2439.67 20510.7 2453.89 20506.2 2468.1 20498.9 2482.31 20491.6 2496.53 20466.4 2510.74 20469.2 2524.95 20472 2539.17 20505.5 2553.38 20515.7 2567.59 20525.8 2581.81 20529.4 2596.02 20530 2610.23 20530.6 2624.45 20519.7 2638.66 20519.3 2652.87 20519 2667.09 20528.2 2681.3 20527.7 2695.51 20527.3 2709.73 20520.6 2723.94 20516.5 2738.15 20512.5 2752.37 20502.8 2766.58 20503.5 2780.79 20504.2 2795.01 20520.2 2809.22 20520.6 2823.43 20521 2837.65 20506.5 2851.86 20506.1 2866.07 20505.6 2887.39 20516.1 2894.5 20518.1" stroke="#000000" stroke-width="9.16667" stroke-linecap="round" stroke-linejoin="round" stroke-miterlimit="10" fill="none"/></g><g><text font-family="Inter,Inter_MSFontService,sans-serif" font-weight="400" font-size="32" transform="matrix(1 0 0 1 1755.7 20969)">80</text></g><g><text font-family="Inter,Inter_MSFontService,sans-serif" font-weight="400" font-size="32" transform="matrix(1 0 0 1 1755.47 20751)">90</text></g><g><text font-family="Inter,Inter_MSFontService,sans-serif" font-weight="400" font-size="32" transform="matrix(1 0 0 1 1740.53 20532)">100</text></g><g><text font-family="Inter,Inter_MSFontService,sans-serif" font-weight="400" font-size="32" transform="matrix(1 0 0 1 1745.68 20314)">110</text></g><g><text font-family="Inter,Inter_MSFontService,sans-serif" font-weight="400" font-size="32" transform="matrix(0.707107 -0.707107 0.707107 0.707107 1803.48 21035)">3/1</text></g><g><text font-family="Inter,Inter_MSFontService,sans-serif" font-weight="400" font-size="32" transform="matrix(0.707107 -0.707107 0.707107 0.707107 1914.44 21052)">3/22</text></g><g><text font-family="Inter,Inter_MSFontService,sans-serif" font-weight="400" font-size="32" transform="matrix(0.707107 -0.707107 0.707107 0.707107 2045.39 21049)">4/12</text></g><g><text font-family="Inter,Inter_MSFontService,sans-serif" font-weight="400" font-size="32" transform="matrix(0.707107 -0.707107 0.707107 0.707107 2183.87 21038)">5/3</text></g><g><text font-family="Inter,Inter_MSFontService,sans-serif" font-weight="400" font-size="32" transform="matrix(0.707107 -0.707107 0.707107 0.707107 2297.9 21052)">5/24</text></g><g><text font-family="Inter,Inter_MSFontService,sans-serif" font-weight="400" font-size="32" transform="matrix(0.707107 -0.707107 0.707107 0.707107 2428.62 21049)">6/14</text></g><g><text font-family="Inter,Inter_MSFontService,sans-serif" font-weight="400" font-size="32" transform="matrix(0.707107 -0.707107 0.707107 0.707107 2569.02 21037)">7/5</text></g><g><text font-family="Inter,Inter_MSFontService,sans-serif" font-weight="400" font-size="32" transform="matrix(0.707107 -0.707107 0.707107 0.707107 2682.82 21051)">7/26</text></g><g><text font-family="Inter,Inter_MSFontService,sans-serif" font-weight="400" font-size="32" transform="matrix(0.707107 -0.707107 0.707107 0.707107 2812.86 21049)">8/16</text></g><g><text font-family="Inter,Inter_MSFontService,sans-serif" font-weight="400" font-size="32" transform="matrix(0.707107 -0.707107 0.707107 0.707107 2951.11 21038)">9/6</text></g><g><text font-family="Inter,Inter_MSFontService,sans-serif" font-weight="400" font-size="32" transform="matrix(0.707107 -0.707107 0.707107 0.707107 3066.47 21051)">9/27</text></g><g><text font-family="Inter,Inter_MSFontService,sans-serif" font-weight="400" font-size="32" transform="matrix(0.707107 -0.707107 0.707107 0.707107 3185.95 21059)">10/18</text></g><g><text font-family="Inter,Inter_MSFontService,sans-serif" font-weight="400" font-size="32" transform="matrix(0.707107 -0.707107 0.707107 0.707107 3328.01 21045)">11/8</text></g><g><text font-family="Inter,Inter_MSFontService,sans-serif" font-weight="400" font-size="32" transform="matrix(0.707107 -0.707107 0.707107 0.707107 3442.01 21059)">11/29</text></g><g><text font-family="Inter,Inter_MSFontService,sans-serif" font-weight="400" font-size="32" transform="matrix(0.707107 -0.707107 0.707107 0.707107 3566.67 21062)">12/20</text></g><g><text font-family="Inter Medium,Inter Medium_MSFontService,sans-serif" font-weight="700" font-size="46" transform="matrix(1 0 0 1 1742.02 20145)">U.S. Hotel Occupancy and ADR Recovery Levels</text></g><g><path d="M1733.5 20240.5 1821.5 20240.5" stroke="#FFB226" stroke-width="9.16667" stroke-linecap="round" stroke-linejoin="round" stroke-miterlimit="10" fill="none" fill-rule="evenodd"/></g><g><text font-family="Inter Medium,Inter Medium_MSFontService,sans-serif" font-weight="500" font-size="37" transform="matrix(1 0 0 1 1830.61 20252)">Occ Index</text></g><g><path d="M2057.5 20240.5 2145.5 20240.5" stroke="#000000" stroke-width="9.16667" stroke-linecap="round" stroke-linejoin="round" stroke-miterlimit="10" fill="none" fill-rule="evenodd"/></g><g><text font-family="Inter Medium,Inter Medium_MSFontService,sans-serif" font-weight="500" font-size="37" transform="matrix(1 0 0 1 2155.16 20252)">ADR Index</text></g><rect x="1658.5" y="20056.5" width="2103" height="1056" stroke="#D9D9D9" stroke-width="3.4375" stroke-linejoin="round" stroke-miterlimit="10" fill="none"/><g><text fill="#7F7F7F" font-family="Inter,Inter_MSFontService,sans-serif" font-weight="400" font-size="32" transform="matrix(1 0 0 1 1739.76 20199)">YOY, Source: STR, str.com</text></g></g></svg>