<svg width="2103" height="1058" xmlns="http://www.w3.org/2000/svg" xmlns:xlink="http://www.w3.org/1999/xlink" xml:space="preserve" overflow="hidden"><defs><filter id="fx0" x="-10%" y="-10%" width="120%" height="120%" filterUnits="userSpaceOnUse" primitiveUnits="userSpaceOnUse"><feComponentTransfer color-interpolation-filters="sRGB"><feFuncR type="discrete" tableValues="0 0"/><feFuncG type="discrete" tableValues="0 0"/><feFuncB type="discrete" tableValues="0 0"/><feFuncA type="linear" slope="0.501961" intercept="0"/></feComponentTransfer><feGaussianBlur stdDeviation="4.58333 4.58333"/></filter><filter id="fx1" x="-10%" y="-10%" width="120%" height="120%" filterUnits="userSpaceOnUse" primitiveUnits="userSpaceOnUse"><feComponentTransfer color-interpolation-filters="sRGB"><feFuncR type="discrete" tableValues="0 0"/><feFuncG type="discrete" tableValues="0 0"/><feFuncB type="discrete" tableValues="0 0"/><feFuncA type="linear" slope="0.501961" intercept="0"/></feComponentTransfer><feGaussianBlur stdDeviation="4.58333 4.58333"/></filter><clipPath id="clip2"><rect x="2123" y="19378" width="2103" height="1058"/></clipPath><clipPath id="clip3"><rect x="2290" y="19626" width="1882" height="658"/></clipPath><clipPath id="clip4"><rect x="2290" y="19626" width="1882" height="658"/></clipPath></defs><g clip-path="url(#clip2)" transform="translate(-2123 -19378)"><rect x="2124" y="19379" width="2100" height="1055" fill="#FFFFFF"/><g><path d="M3771.5 19626.5 3821.63 19626.5 3870.63 19626.5 3919.63 19626.5 3968.63 19626.5 4018.63 19626.5 4067.63 19626.5 4116.5 19626.5 4116.5 20281.5 4067.63 20281.5 4018.63 20281.5 3968.63 20281.5 3919.63 20281.5 3870.63 20281.5 3821.63 20281.5 3771.5 20281.5Z" stroke="#BFBFBF" stroke-width="3.4375" stroke-linejoin="round" stroke-miterlimit="10" stroke-opacity="0.501961" fill="#D9D9D9" fill-opacity="0.501961"/></g><g><path d="M2290.5 20019.5 4169.5 20019.5" stroke="#D9D9D9" stroke-width="3.4375" stroke-linejoin="round" stroke-miterlimit="10" fill="none" fill-rule="evenodd"/></g><g clip-path="url(#clip3)"><g filter="url(#fx0)" transform="translate(2281 19732)"><g><path d="M19.9819 285.6C36.3983 290.322 52.815 296.806 69.2317 299.765 85.6481 302.724 102.065 298.488 118.482 303.353 134.898 308.218 151.315 336.741 167.732 328.954 184.148 321.168 200.565 260.675 216.982 256.633 233.399 252.591 249.815 289.966 266.232 304.7 282.648 319.433 299.065 348.596 315.482 345.034 331.898 341.471 348.315 291.209 364.732 283.326 381.148 275.442 397.565 297.52 413.982 297.732 430.398 297.944 446.815 286.483 463.232 284.6 479.649 282.717 496.065 284.525 512.482 286.435 528.898 288.344 545.315 298.474 561.732 296.059 578.148 293.644 594.565 276.444 610.982 271.941 627.398 267.438 643.815 256.297 660.232 269.04 676.648 281.783 693.065 340.676 709.482 348.401 725.899 356.125 742.315 325.707 758.732 315.383 775.148 305.059 791.565 295.566 807.982 286.457 824.398 277.347 840.815 252.368 857.232 260.726 873.648 269.083 890.065 336.772 906.482 336.6 922.898 336.427 939.315 270.253 955.732 259.691 972.149 249.129 988.565 277.412 1004.98 273.226 1021.4 269.04 1037.82 235.118 1054.23 234.576 1070.65 234.034 1087.07 252.642 1103.48 269.974 1119.9 287.305 1136.32 337.693 1152.73 338.567 1164.62 339.2 1190.09 313.542 1201.98 275.216 1218.4 222.295 1234.82 0.982422 1251.23 21.0448 1267.65 41.1067 1284.07 351.194 1300.48 395.588 1316.9 439.982 1333.32 323.479 1349.73 287.411 1366.15 251.343 1382.57 202.927 1398.98 179.183 1413.53 158.143 1433.69 118.708 1448.23 144.944 1464.65 174.554 1481.07 338.976 1497.48 356.841 1513.9 374.705 1530.32 245.795 1546.73 252.129 1563.15 258.463 1587.77 371.059 1595.98 394.845" stroke="#FFB226" stroke-width="9" stroke-linecap="round" stroke-linejoin="round" stroke-miterlimit="10" fill="none"/></g></g></g><g clip-path="url(#clip4)"><g filter="url(#fx1)" transform="translate(2281 19862)"><g><path d="M19.9819 159.299C36.3983 152.124 52.815 139.485 69.2317 137.774 85.6481 136.062 102.065 145.795 118.482 149.031 134.898 152.268 151.315 163.761 167.732 157.192 184.148 150.622 200.565 110.452 216.982 109.615 233.399 108.777 249.815 140.612 266.232 152.166 282.648 163.72 299.065 182.645 315.482 178.937 331.898 175.229 348.315 135.868 364.732 129.917 381.148 123.966 397.565 139.591 413.982 143.232 430.398 146.873 446.815 152.443 463.232 151.764 479.649 151.085 496.065 140.232 512.482 139.157 528.898 138.082 545.315 147.742 561.732 145.314 578.148 142.886 594.565 125.971 610.982 124.59 627.398 123.208 643.815 128.948 660.232 137.026 676.648 145.102 693.065 169.701 709.482 173.051 725.899 176.401 742.315 163.629 758.732 157.125 775.148 150.621 791.565 149.886 807.982 134.027 824.398 118.167 840.815 47.6145 857.232 61.9695 873.648 76.3242 890.065 206.573 906.482 220.156 922.898 233.738 939.315 158.733 955.732 143.465 972.149 128.196 988.565 135.633 1004.98 128.544 1021.4 121.455 1037.82 97.9309 1054.23 100.93 1070.65 103.928 1087.07 136.089 1103.48 146.535 1119.9 156.98 1136.32 158.51 1152.73 163.602 1169.15 168.694 1185.57 196.207 1201.98 177.085 1218.4 157.962 1234.82 45.2619 1251.23 48.8669 1267.65 52.4716 1284.07 188.577 1300.48 198.713 1316.9 208.849 1333.32 134.672 1349.73 109.685 1366.15 84.6983 1382.57 45.9871 1398.98 48.7933 1415.4 51.599 1431.82 103.749 1448.23 126.521 1464.65 149.292 1481.07 203.111 1497.48 185.425 1513.9 167.74 1530.32 9.98242 1546.73 20.4089 1563.15 30.835 1587.77 210.053 1595.98 247.982" stroke="#000000" stroke-width="9" stroke-linecap="round" stroke-linejoin="round" stroke-miterlimit="10" fill="none"/></g></g></g><g><path d="M2294.5 20011.1C2310.92 20015.8 2327.33 20022.3 2343.75 20025.3 2360.17 20028.2 2376.58 20024 2393 20028.9 2409.42 20033.7 2425.83 20062.3 2442.25 20054.5 2458.67 20046.7 2475.08 19986.2 2491.5 19982.2 2507.92 19978.1 2524.33 20015.5 2540.75 20030.2 2557.17 20045 2573.58 20074.1 2590 20070.6 2606.42 20067 2622.83 20016.7 2639.25 20008.8 2655.67 20001 2672.08 20023 2688.5 20023.2 2704.92 20023.5 2721.33 20012 2737.75 20010.1 2754.17 20008.2 2770.58 20010 2787 20012 2803.42 20013.9 2819.83 20024 2836.25 20021.6 2852.67 20019.2 2869.08 20002 2885.5 19997.5 2901.92 19993 2918.33 19981.8 2934.75 19994.6 2951.17 20007.3 2967.58 20066.2 2984 20073.9 3000.42 20081.6 3016.83 20051.2 3033.25 20040.9 3049.67 20030.6 3066.08 20021.1 3082.5 20012 3098.92 20002.9 3115.33 19977.9 3131.75 19986.2 3148.17 19994.6 3164.58 20062.3 3181 20062.1 3197.42 20061.9 3213.83 19995.8 3230.25 19985.2 3246.67 19974.6 3263.08 20002.9 3279.5 19998.7 3295.92 19994.6 3312.33 19960.6 3328.75 19960.1 3345.17 19959.6 3361.58 19978.2 3378 19995.5 3394.42 20012.8 3410.83 20063.2 3427.25 20064.1 3439.14 20064.7 3464.61 20039.1 3476.5 20000.7 3492.92 19947.8 3509.33 19726.5 3525.75 19746.6 3542.17 19766.6 3558.58 20076.7 3575 20121.1 3591.42 20165.5 3607.83 20049 3624.25 20012.9 3640.67 19976.9 3657.08 19928.4 3673.5 19904.7 3688.05 19883.7 3708.2 19844.2 3722.75 19870.5 3739.17 19900.1 3755.58 20064.5 3772 20082.4 3788.42 20100.2 3804.83 19971.3 3821.25 19977.6 3837.67 19984 3862.29 20096.6 3870.5 20120.4" stroke="#FFB226" stroke-width="9.16667" stroke-linecap="round" stroke-linejoin="round" stroke-miterlimit="10" fill="none"/></g><g><path d="M2294.5 20014.8C2310.92 20007.6 2327.33 19995 2343.75 19993.3 2360.17 19991.6 2376.58 20001.3 2393 20004.5 2409.42 20007.8 2425.83 20019.3 2442.25 20012.7 2458.67 20006.1 2475.08 19966 2491.5 19965.1 2507.92 19964.3 2524.33 19996.1 2540.75 20007.7 2557.17 20019.2 2573.58 20038.2 2590 20034.5 2606.42 20030.7 2622.83 19991.4 2639.25 19985.4 2655.67 19979.5 2672.08 19995.1 2688.5 19998.8 2704.92 20002.4 2721.33 20008 2737.75 20007.3 2754.17 20006.6 2770.58 19995.8 2787 19994.7 2803.42 19993.6 2819.83 20003.3 2836.25 20000.8 2852.67 19998.4 2869.08 19981.5 2885.5 19980.1 2901.92 19978.7 2918.33 19984.5 2934.75 19992.5 2951.17 20000.6 2967.58 20025.2 2984 20028.6 3000.42 20031.9 3016.83 20019.1 3033.25 20012.6 3049.67 20006.1 3066.08 20005.4 3082.5 19989.5 3098.92 19973.7 3115.33 19903.1 3131.75 19917.5 3148.17 19931.8 3164.58 20062.1 3181 20075.7 3197.42 20089.3 3213.83 20014.2 3230.25 19999 3246.67 19983.7 3263.08 19991.2 3279.5 19984.1 3295.92 19977 3312.33 19953.4 3328.75 19956.4 3345.17 19959.4 3361.58 19991.6 3378 20002.1 3394.42 20012.5 3410.83 20014 3427.25 20019.1 3443.67 20024.2 3460.08 20051.7 3476.5 20032.6 3492.92 20013.5 3509.33 19900.8 3525.75 19904.4 3542.17 19908 3558.58 20044.1 3575 20054.2 3591.42 20064.4 3607.83 19990.2 3624.25 19965.2 3640.67 19940.2 3657.08 19901.5 3673.5 19904.3 3689.92 19907.1 3706.33 19959.3 3722.75 19982 3739.17 20004.8 3755.58 20058.6 3772 20040.9 3788.42 20023.3 3804.83 19865.5 3821.25 19875.9 3837.67 19886.4 3862.29 20065.6 3870.5 20103.5" stroke="#000000" stroke-width="9.16667" stroke-linecap="round" stroke-linejoin="round" stroke-miterlimit="10" fill="none"/></g><g><text font-family="Inter,Inter_MSFontService,sans-serif" font-weight="400" font-size="32" transform="matrix(1 0 0 1 2221.05 20291)">80</text></g><g><text font-family="Inter,Inter_MSFontService,sans-serif" font-weight="400" font-size="32" transform="matrix(1 0 0 1 2220.82 20161)">90</text></g><g><text font-family="Inter,Inter_MSFontService,sans-serif" font-weight="400" font-size="32" transform="matrix(1 0 0 1 2205.88 20030)">100</text></g><g><text font-family="Inter,Inter_MSFontService,sans-serif" font-weight="400" font-size="32" transform="matrix(1 0 0 1 2211.03 19899)">110</text></g><g><text font-family="Inter,Inter_MSFontService,sans-serif" font-weight="400" font-size="32" transform="matrix(1 0 0 1 2206.52 19768)">120</text></g><g><text font-family="Inter,Inter_MSFontService,sans-serif" font-weight="400" font-size="32" transform="matrix(1 0 0 1 2205.51 19637)">130</text></g><g><text font-family="Inter,Inter_MSFontService,sans-serif" font-weight="400" font-size="32" transform="matrix(0.707107 -0.707107 0.707107 0.707107 2269.59 20357)">6/1</text></g><g><text font-family="Inter,Inter_MSFontService,sans-serif" font-weight="400" font-size="32" transform="matrix(0.707107 -0.707107 0.707107 0.707107 2400.46 20374)">6/22</text></g><g><text font-family="Inter,Inter_MSFontService,sans-serif" font-weight="400" font-size="32" transform="matrix(0.707107 -0.707107 0.707107 0.707107 2551.91 20370)">7/13</text></g><g><text font-family="Inter,Inter_MSFontService,sans-serif" font-weight="400" font-size="32" transform="matrix(0.707107 -0.707107 0.707107 0.707107 2709.19 20361)">8/3</text></g><g><text font-family="Inter,Inter_MSFontService,sans-serif" font-weight="400" font-size="32" transform="matrix(0.707107 -0.707107 0.707107 0.707107 2843.11 20375)">8/24</text></g><g><text font-family="Inter,Inter_MSFontService,sans-serif" font-weight="400" font-size="32" transform="matrix(0.707107 -0.707107 0.707107 0.707107 2993.92 20371)">9/14</text></g><g><text font-family="Inter,Inter_MSFontService,sans-serif" font-weight="400" font-size="32" transform="matrix(0.707107 -0.707107 0.707107 0.707107 3142.44 20371)">10/5</text></g><g><text font-family="Inter,Inter_MSFontService,sans-serif" font-weight="400" font-size="32" transform="matrix(0.707107 -0.707107 0.707107 0.707107 3276.14 20385)">10/26</text></g><g><text font-family="Inter,Inter_MSFontService,sans-serif" font-weight="400" font-size="32" transform="matrix(0.707107 -0.707107 0.707107 0.707107 3430.76 20378)">11/16</text></g><g><text font-family="Inter,Inter_MSFontService,sans-serif" font-weight="400" font-size="32" transform="matrix(0.707107 -0.707107 0.707107 0.707107 3587.07 20369)">12/7</text></g><g><text font-family="Inter,Inter_MSFontService,sans-serif" font-weight="400" font-size="32" transform="matrix(0.707107 -0.707107 0.707107 0.707107 3720.09 20384)">12/28</text></g><g><text font-family="Inter,Inter_MSFontService,sans-serif" font-weight="400" font-size="32" transform="matrix(0.707107 -0.707107 0.707107 0.707107 3884.79 20367)">1/18</text></g><g><text font-family="Inter,Inter_MSFontService,sans-serif" font-weight="400" font-size="32" transform="matrix(0.707107 -0.707107 0.707107 0.707107 4039.91 20360)">2/8</text></g><g><text font-family="Inter Medium,Inter Medium_MSFontService,sans-serif" font-weight="700" font-size="46" transform="matrix(1 0 0 1 2207.52 19469)">U.S. Hotel Occupancy and ADR Recovery Levels</text></g><g><path d="M2198.5 19563.5 2286.5 19563.5" stroke="#FFB226" stroke-width="9.16667" stroke-linecap="round" stroke-linejoin="round" stroke-miterlimit="10" fill="none" fill-rule="evenodd"/></g><g><text font-family="Inter Medium,Inter Medium_MSFontService,sans-serif" font-weight="500" font-size="37" transform="matrix(1 0 0 1 2295.83 19575)">Occ Index</text></g><g><path d="M2522.5 19563.5 2610.5 19563.5" stroke="#000000" stroke-width="9.16667" stroke-linecap="round" stroke-linejoin="round" stroke-miterlimit="10" fill="none" fill-rule="evenodd"/></g><g><text font-family="Inter Medium,Inter Medium_MSFontService,sans-serif" font-weight="500" font-size="37" transform="matrix(1 0 0 1 2620.04 19575)">ADR Index</text></g><rect x="2124.5" y="19379.5" width="2100" height="1055" stroke="#D9D9D9" stroke-width="3.4375" stroke-linejoin="round" stroke-miterlimit="10" fill="none"/><g><text fill="#7F7F7F" font-family="Inter,Inter_MSFontService,sans-serif" font-weight="400" font-size="32" transform="matrix(1 0 0 1 2205.29 19523)">Indexed to 2023, Source: STR, str.com</text></g><g><g><text font-family="Inter Medium,Inter Medium_MSFontService,sans-serif" font-weight="700" font-size="37" transform="matrix(1 0 0 1 3773.57 20399)">2025</text></g></g></g></svg>