<svg width="2105" height="1043" xmlns="http://www.w3.org/2000/svg" xmlns:xlink="http://www.w3.org/1999/xlink" xml:space="preserve" overflow="hidden"><defs><filter id="fx0" x="-10%" y="-10%" width="120%" height="120%" filterUnits="userSpaceOnUse" primitiveUnits="userSpaceOnUse"><feComponentTransfer color-interpolation-filters="sRGB"><feFuncR type="discrete" tableValues="0 0"/><feFuncG type="discrete" tableValues="0 0"/><feFuncB type="discrete" tableValues="0 0"/><feFuncA type="linear" slope="0.501961" intercept="0"/></feComponentTransfer><feGaussianBlur stdDeviation="4.58333 4.58333"/></filter><filter id="fx1" x="-10%" y="-10%" width="120%" height="120%" filterUnits="userSpaceOnUse" primitiveUnits="userSpaceOnUse"><feComponentTransfer color-interpolation-filters="sRGB"><feFuncR type="discrete" tableValues="0 0"/><feFuncG type="discrete" tableValues="0 0"/><feFuncB type="discrete" tableValues="0 0"/><feFuncA type="linear" slope="0.501961" intercept="0"/></feComponentTransfer><feGaussianBlur stdDeviation="4.58333 4.58333"/></filter><clipPath id="clip2"><rect x="1658" y="19709" width="2105" height="1043"/></clipPath><clipPath id="clip3"><rect x="1826" y="19953" width="1884" height="649"/></clipPath><clipPath id="clip4"><rect x="1826" y="19953" width="1884" height="649"/></clipPath></defs><g clip-path="url(#clip2)" transform="translate(-1658 -19709)"><rect x="1659" y="19710" width="2102" height="1040" fill="#FFFFFF"/><g><path d="M2910.5 19953.5 2946.6 19953.5 2983.6 19953.5 3019.6 19953.5 3055.6 19953.5 3091.6 19953.5 3127.6 19953.5 3163.6 19953.5 3199.6 19953.5 3235.61 19953.5 3271.61 19953.5 3307.61 19953.5 3343.61 19953.5 3379.61 19953.5 3415.61 19953.5 3451.61 19953.5 3487.61 19953.5 3524.62 19953.5 3560.62 19953.5 3596.62 19953.5 3632.62 19953.5 3668.62 19953.5 3704.5 19953.5 3704.5 20599.5 3668.62 20599.5 3632.62 20599.5 3596.62 20599.5 3560.62 20599.5 3524.62 20599.5 3487.61 20599.5 3451.61 20599.5 3415.61 20599.5 3379.61 20599.5 3343.61 20599.5 3307.61 20599.5 3271.61 20599.5 3235.61 20599.5 3199.6 20599.5 3163.6 20599.5 3127.6 20599.5 3091.6 20599.5 3055.6 20599.5 3019.6 20599.5 2983.6 20599.5 2946.6 20599.5 2910.5 20599.5Z" stroke="#BFBFBF" stroke-width="3.4375" stroke-linejoin="round" stroke-miterlimit="10" stroke-opacity="0.501961" fill="#D9D9D9" fill-opacity="0.501961"/></g><g><path d="M1826.5 20341.5 3707.5 20341.5" stroke="#D9D9D9" stroke-width="3.4375" stroke-linejoin="round" stroke-miterlimit="10" fill="none" fill-rule="evenodd"/></g><g clip-path="url(#clip3)"><g filter="url(#fx0)" transform="translate(1815 20058)"><g><path d="M19.9817 281.062C32.008 285.708 44.0344 292.089 56.0607 295.001 68.0867 297.912 80.113 293.744 92.1394 298.531 104.165 303.319 116.192 331.387 128.218 323.725 140.245 316.062 152.271 256.534 164.297 252.556 176.324 248.578 188.35 285.358 200.376 299.857 212.403 314.355 224.429 343.054 236.455 339.548 248.482 336.042 260.508 286.581 272.534 278.823 284.56 271.065 296.587 292.791 308.613 293 320.639 293.209 332.666 281.931 344.692 280.078 356.718 278.225 368.745 280.003 380.771 281.882 392.797 283.761 404.824 293.73 416.85 291.354 428.876 288.977 440.903 272.052 452.929 267.621 464.955 263.189 476.982 252.225 489.008 264.765 501.034 277.305 513.06 335.259 525.087 342.86 537.113 350.461 549.139 320.529 561.166 310.37 573.192 300.21 585.218 290.869 597.245 281.905 609.271 272.94 621.297 248.36 633.324 256.584 645.35 264.807 657.376 331.417 669.403 331.248 681.429 331.078 693.455 265.959 705.482 255.565 717.508 245.172 729.534 273.004 741.56 268.885 753.586 264.766 765.613 231.384 777.639 230.851 789.666 230.317 801.692 248.629 813.719 265.685 825.745 282.74 837.771 332.324 849.798 333.184 857.898 333.763 877.776 305.92 885.876 270.843 897.903 218.766 909.929 0.982422 921.956 20.7247 933.982 40.4666 946.008 345.609 958.034 389.296 970.06 432.982 982.087 318.336 994.113 282.844 1006.14 247.351 1018.17 199.707 1030.19 176.341 1039.6 158.058 1056.86 119.849 1066.27 142.648 1078.3 171.786 1090.32 333.586 1102.35 351.166 1114.38 368.745 1126.4 241.891 1138.43 248.124 1150.46 254.357 1162.48 396.493 1174.51 388.564 1186.53 380.635 1198.56 209.812 1210.59 200.551 1222.61 191.29 1234.64 323.245 1246.67 333 1258.69 342.754 1270.72 265.194 1282.74 259.079 1294.77 252.964 1306.8 294.153 1318.82 296.31 1330.85 298.465 1342.88 267.272 1354.9 272.015 1366.93 276.757 1384.97 315.974 1390.98 324.767" stroke="#FFB226" stroke-width="9" stroke-linecap="round" stroke-linejoin="round" stroke-miterlimit="10" fill="none"/></g></g></g><g clip-path="url(#clip4)"><g filter="url(#fx1)" transform="translate(1815 20186)"><g><path d="M19.9817 156.684C32.008 149.634 44.0344 137.216 56.0607 135.535 68.0867 133.854 80.113 143.416 92.1394 146.596 104.165 149.775 116.192 161.067 128.218 154.613 140.245 148.159 152.271 108.692 164.297 107.87 176.324 107.047 188.35 138.324 200.376 149.676 212.403 161.027 224.429 179.62 236.455 175.978 248.482 172.334 260.508 133.663 272.534 127.817 284.56 121.97 296.587 137.321 308.613 140.899 320.639 144.476 332.666 149.948 344.692 149.281 356.718 148.613 368.745 137.95 380.771 136.894 392.797 135.838 404.824 145.329 416.85 142.944 428.876 140.558 440.903 123.939 452.929 122.582 464.955 121.225 476.982 126.865 489.008 134.801 501.034 142.736 513.06 166.903 525.087 170.195 537.113 173.486 549.139 160.938 561.166 154.548 573.192 148.158 585.218 147.436 597.245 131.854 609.271 116.273 621.297 46.955 633.324 61.0587 645.35 75.1619 657.376 203.13 669.403 216.475 681.429 229.819 693.455 156.128 705.482 141.127 717.508 126.126 729.534 133.433 741.56 126.468 753.586 119.503 765.613 96.3903 777.639 99.3362 789.666 102.282 801.692 133.88 813.719 144.143 825.745 154.406 837.771 155.909 849.798 160.912 860.138 165.213 875.535 190.313 885.876 174.158 897.903 155.37 909.929 44.6436 921.956 48.1854 933.982 51.7269 946.008 185.449 958.034 195.408 970.06 205.366 982.087 132.487 994.113 107.938 1006.14 83.3893 1018.17 45.3565 1030.19 48.1135 1042.22 50.8701 1054.24 102.106 1066.27 124.48 1078.3 146.853 1090.32 199.728 1102.35 182.352 1114.38 164.977 1126.4 9.98242 1138.43 20.2261 1150.46 30.4694 1162.48 240.645 1174.51 243.814 1186.53 246.983 1198.56 59.2928 1210.59 39.2391 1222.61 19.185 1234.64 106.35 1246.67 123.491 1258.3 140.079 1271.11 129.553 1282.74 142.081 1294.77 155.026 1306.8 201.256 1318.82 201.16 1330.85 201.064 1342.88 152.569 1354.9 141.506 1366.93 130.443 1384.97 135.902 1390.98 134.781" stroke="#000000" stroke-width="9" stroke-linecap="round" stroke-linejoin="round" stroke-miterlimit="10" fill="none"/></g></g></g><g><path d="M1828.5 20332.6C1840.53 20337.2 1852.55 20343.6 1864.58 20346.5 1876.6 20349.4 1888.63 20345.3 1900.66 20350 1912.68 20354.8 1924.71 20382.9 1936.74 20375.2 1948.76 20367.6 1960.79 20308.1 1972.82 20304.1 1984.84 20300.1 1996.87 20336.9 2008.89 20351.4 2020.92 20365.9 2032.95 20394.6 2044.97 20391.1 2057 20387.6 2069.03 20338.1 2081.05 20330.3 2093.08 20322.6 2105.1 20344.3 2117.13 20344.5 2129.16 20344.7 2141.18 20333.4 2153.21 20331.6 2165.24 20329.7 2177.26 20331.5 2189.29 20333.4 2201.32 20335.3 2213.34 20345.2 2225.37 20342.9 2237.39 20340.5 2249.42 20323.6 2261.45 20319.1 2273.47 20314.7 2285.5 20303.7 2297.53 20316.3 2309.55 20328.8 2321.58 20386.8 2333.6 20394.4 2345.63 20402 2357.66 20372 2369.68 20361.9 2381.71 20351.7 2393.74 20342.4 2405.76 20333.4 2417.79 20324.5 2429.82 20299.9 2441.84 20308.1 2453.87 20316.3 2465.89 20382.9 2477.92 20382.8 2489.95 20382.6 2501.97 20317.5 2514 20307.1 2526.03 20296.7 2538.05 20324.5 2550.08 20320.4 2562.1 20316.3 2574.13 20282.9 2586.16 20282.4 2598.18 20281.8 2610.21 20300.1 2622.24 20317.2 2634.26 20334.3 2646.29 20383.8 2658.32 20384.7 2666.42 20385.3 2686.29 20357.4 2694.39 20322.4 2706.42 20270.3 2718.45 20052.5 2730.47 20072.2 2742.5 20092 2754.53 20397.1 2766.55 20440.8 2778.58 20484.5 2790.6 20369.9 2802.63 20334.4 2814.66 20298.9 2826.68 20251.2 2838.71 20227.9 2848.12 20209.6 2865.38 20171.4 2874.79 20194.2 2886.82 20223.3 2898.84 20385.1 2910.87 20402.7 2922.89 20420.3 2934.92 20293.4 2946.95 20299.6 2958.97 20305.9 2971 20448 2983.03 20440.1 2995.05 20432.2 3007.08 20261.3 3019.1 20252.1 3031.13 20242.8 3043.16 20374.8 3055.18 20384.5 3067.21 20394.3 3079.24 20316.7 3091.26 20310.6 3103.29 20304.5 3115.32 20345.7 3127.34 20347.8 3139.37 20350 3151.39 20318.8 3163.42 20323.5 3175.45 20328.3 3193.49 20367.5 3199.5 20376.3" stroke="#FFB226" stroke-width="9.16667" stroke-linecap="round" stroke-linejoin="round" stroke-miterlimit="10" fill="none"/></g><g><path d="M1828.5 20336.2C1840.53 20329.2 1852.55 20316.7 1864.58 20315.1 1876.6 20313.4 1888.63 20322.9 1900.66 20326.1 1912.68 20329.3 1924.71 20340.6 1936.74 20334.1 1948.76 20327.7 1960.79 20288.2 1972.82 20287.4 1984.84 20286.6 1996.87 20317.8 2008.89 20329.2 2020.92 20340.5 2032.95 20359.1 2044.97 20355.5 2057 20351.9 2069.03 20313.2 2081.05 20307.3 2093.08 20301.5 2105.1 20316.8 2117.13 20320.4 2129.16 20324 2141.18 20329.5 2153.21 20328.8 2165.24 20328.1 2177.26 20317.5 2189.29 20316.4 2201.32 20315.4 2213.34 20324.8 2225.37 20322.5 2237.39 20320.1 2249.42 20303.5 2261.45 20302.1 2273.47 20300.7 2285.5 20306.4 2297.53 20314.3 2309.55 20322.3 2321.58 20346.4 2333.6 20349.7 2345.63 20353 2357.66 20340.5 2369.68 20334.1 2381.71 20327.7 2393.74 20327 2405.76 20311.4 2417.79 20295.8 2429.82 20226.5 2441.84 20240.6 2453.87 20254.7 2465.89 20382.6 2477.92 20396 2489.95 20409.3 2501.97 20335.6 2514 20320.6 2526.03 20305.6 2538.05 20313 2550.08 20306 2562.1 20299 2574.13 20275.9 2586.16 20278.9 2598.18 20281.8 2610.21 20313.4 2622.24 20323.7 2634.26 20333.9 2646.29 20335.4 2658.32 20340.4 2668.66 20344.7 2684.05 20369.8 2694.39 20353.7 2706.42 20334.9 2718.45 20224.2 2730.47 20227.7 2742.5 20231.2 2754.53 20365 2766.55 20374.9 2778.58 20384.9 2790.6 20312 2802.63 20287.5 2814.66 20262.9 2826.68 20224.9 2838.71 20227.6 2850.74 20230.4 2862.76 20281.6 2874.79 20304 2886.82 20326.4 2898.84 20379.2 2910.87 20361.9 2922.89 20344.5 2934.92 20189.5 2946.95 20199.7 2958.97 20210 2971 20420.2 2983.03 20423.3 2995.05 20426.5 3007.08 20238.8 3019.1 20218.8 3031.13 20198.7 3043.16 20285.9 3055.18 20303 3066.82 20319.6 3079.62 20309.1 3091.26 20321.6 3103.29 20334.5 3115.32 20380.8 3127.34 20380.7 3139.37 20380.6 3151.39 20332.1 3163.42 20321 3175.45 20310 3193.49 20315.4 3199.5 20314.3" stroke="#000000" stroke-width="9.16667" stroke-linecap="round" stroke-linejoin="round" stroke-miterlimit="10" fill="none"/></g><g><text font-family="Inter,Inter_MSFontService,sans-serif" font-weight="400" font-size="32" transform="matrix(1 0 0 1 1756.75 20609)">80</text></g><g><text font-family="Inter,Inter_MSFontService,sans-serif" font-weight="400" font-size="32" transform="matrix(1 0 0 1 1756.52 20480)">90</text></g><g><text font-family="Inter,Inter_MSFontService,sans-serif" font-weight="400" font-size="32" transform="matrix(1 0 0 1 1741.58 20351)">100</text></g><g><text font-family="Inter,Inter_MSFontService,sans-serif" font-weight="400" font-size="32" transform="matrix(1 0 0 1 1746.74 20222)">110</text></g><g><text font-family="Inter,Inter_MSFontService,sans-serif" font-weight="400" font-size="32" transform="matrix(1 0 0 1 1742.22 20093)">120</text></g><g><text font-family="Inter,Inter_MSFontService,sans-serif" font-weight="400" font-size="32" transform="matrix(1 0 0 1 1741.21 19964)">130</text></g><g><text font-family="Inter,Inter_MSFontService,sans-serif" font-weight="400" font-size="32" transform="matrix(0.707107 -0.707107 0.707107 0.707107 1804.36 20675)">6/1</text></g><g><text font-family="Inter,Inter_MSFontService,sans-serif" font-weight="400" font-size="32" transform="matrix(0.707107 -0.707107 0.707107 0.707107 1895.64 20692)">6/22</text></g><g><text font-family="Inter,Inter_MSFontService,sans-serif" font-weight="400" font-size="32" transform="matrix(0.707107 -0.707107 0.707107 0.707107 2007.52 20688)">7/13</text></g><g><text font-family="Inter,Inter_MSFontService,sans-serif" font-weight="400" font-size="32" transform="matrix(0.707107 -0.707107 0.707107 0.707107 2125.23 20679)">8/3</text></g><g><text font-family="Inter,Inter_MSFontService,sans-serif" font-weight="400" font-size="32" transform="matrix(0.707107 -0.707107 0.707107 0.707107 2219.58 20692)">8/24</text></g><g><text font-family="Inter,Inter_MSFontService,sans-serif" font-weight="400" font-size="32" transform="matrix(0.707107 -0.707107 0.707107 0.707107 2330.81 20689)">9/14</text></g><g><text font-family="Inter,Inter_MSFontService,sans-serif" font-weight="400" font-size="32" transform="matrix(0.707107 -0.707107 0.707107 0.707107 2439.76 20689)">10/5</text></g><g><text font-family="Inter,Inter_MSFontService,sans-serif" font-weight="400" font-size="32" transform="matrix(0.707107 -0.707107 0.707107 0.707107 2533.88 20703)">10/26</text></g><g><text font-family="Inter,Inter_MSFontService,sans-serif" font-weight="400" font-size="32" transform="matrix(0.707107 -0.707107 0.707107 0.707107 2648.93 20696)">11/16</text></g><g><text font-family="Inter,Inter_MSFontService,sans-serif" font-weight="400" font-size="32" transform="matrix(0.707107 -0.707107 0.707107 0.707107 2765.67 20687)">12/7</text></g><g><text font-family="Inter,Inter_MSFontService,sans-serif" font-weight="400" font-size="32" transform="matrix(0.707107 -0.707107 0.707107 0.707107 2859.11 20702)">12/28</text></g><g><text font-family="Inter,Inter_MSFontService,sans-serif" font-weight="400" font-size="32" transform="matrix(0.707107 -0.707107 0.707107 0.707107 2984.24 20685)">1/18</text></g><g><text font-family="Inter,Inter_MSFontService,sans-serif" font-weight="400" font-size="32" transform="matrix(0.707107 -0.707107 0.707107 0.707107 3099.78 20678)">2/8</text></g><g><text font-family="Inter,Inter_MSFontService,sans-serif" font-weight="400" font-size="32" transform="matrix(0.707107 -0.707107 0.707107 0.707107 3210.72 20675)">3/1</text></g><g><text font-family="Inter,Inter_MSFontService,sans-serif" font-weight="400" font-size="32" transform="matrix(0.707107 -0.707107 0.707107 0.707107 3302.01 20692)">3/22</text></g><g><text font-family="Inter,Inter_MSFontService,sans-serif" font-weight="400" font-size="32" transform="matrix(0.707107 -0.707107 0.707107 0.707107 3413.28 20689)">4/12</text></g><g><text font-family="Inter,Inter_MSFontService,sans-serif" font-weight="400" font-size="32" transform="matrix(0.707107 -0.707107 0.707107 0.707107 3532.08 20678)">5/3</text></g><g><text font-family="Inter,Inter_MSFontService,sans-serif" font-weight="400" font-size="32" transform="matrix(0.707107 -0.707107 0.707107 0.707107 3626.43 20692)">5/24</text></g><g><text font-family="Inter Medium,Inter Medium_MSFontService,sans-serif" font-weight="700" font-size="46" transform="matrix(1 0 0 1 1743.13 19799)">U.S. Hotel Occupancy and ADR Recovery Levels</text></g><g><path d="M1734.5 19891.5 1822.5 19891.5" stroke="#FFB226" stroke-width="9.16667" stroke-linecap="round" stroke-linejoin="round" stroke-miterlimit="10" fill="none" fill-rule="evenodd"/></g><g><text font-family="Inter Medium,Inter Medium_MSFontService,sans-serif" font-weight="500" font-size="37" transform="matrix(1 0 0 1 1831.61 19903)">Occ Index</text></g><g><path d="M2058.5 19891.5 2146.5 19891.5" stroke="#000000" stroke-width="9.16667" stroke-linecap="round" stroke-linejoin="round" stroke-miterlimit="10" fill="none" fill-rule="evenodd"/></g><g><text font-family="Inter Medium,Inter Medium_MSFontService,sans-serif" font-weight="500" font-size="37" transform="matrix(1 0 0 1 2156.05 19903)">ADR Index</text></g><rect x="1659.5" y="19710.5" width="2102" height="1040" stroke="#D9D9D9" stroke-width="3.4375" stroke-linejoin="round" stroke-miterlimit="10" fill="none"/><g><text fill="#7F7F7F" font-family="Inter,Inter_MSFontService,sans-serif" font-weight="400" font-size="32" transform="matrix(1 0 0 1 1740.88 19852)">Indexed to 2023, Source: STR, str.com</text></g><g><g><text font-family="Inter Medium,Inter Medium_MSFontService,sans-serif" font-weight="700" font-size="37" transform="matrix(1 0 0 1 2905.27 20724)">2025</text></g></g></g></svg>