<svg width="2106" height="1095" xmlns="http://www.w3.org/2000/svg" xmlns:xlink="http://www.w3.org/1999/xlink" xml:space="preserve" overflow="hidden"><defs><filter id="fx0" x="-10%" y="-10%" width="120%" height="120%" filterUnits="userSpaceOnUse" primitiveUnits="userSpaceOnUse"><feComponentTransfer color-interpolation-filters="sRGB"><feFuncR type="discrete" tableValues="0 0"/><feFuncG type="discrete" tableValues="0 0"/><feFuncB type="discrete" tableValues="0 0"/><feFuncA type="linear" slope="0.501961" intercept="0"/></feComponentTransfer><feGaussianBlur stdDeviation="4.58333 4.58333"/></filter><filter id="fx1" x="-10%" y="-10%" width="120%" height="120%" filterUnits="userSpaceOnUse" primitiveUnits="userSpaceOnUse"><feComponentTransfer color-interpolation-filters="sRGB"><feFuncR type="discrete" tableValues="0 0"/><feFuncG type="discrete" tableValues="0 0"/><feFuncB type="discrete" tableValues="0 0"/><feFuncA type="linear" slope="0.501961" intercept="0"/></feComponentTransfer><feGaussianBlur stdDeviation="4.58333 4.58333"/></filter><clipPath id="clip2"><rect x="1657" y="20745" width="2106" height="1095"/></clipPath><clipPath id="clip3"><rect x="1825" y="21002" width="1885" height="681"/></clipPath><clipPath id="clip4"><rect x="1825" y="21002" width="1885" height="681"/></clipPath></defs><g clip-path="url(#clip2)" transform="translate(-1657 -20745)"><rect x="1658" y="20746" width="2103" height="1092" fill="#FFFFFF"/><g><path d="M2744.5 21002.5 2787.59 21002.5 2831.59 21002.5 2875.59 21002.5 2918.6 21002.5 2962.6 21002.5 3005.6 21002.5 3049.6 21002.5 3093.6 21002.5 3136.6 21002.5 3180.6 21002.5 3224.61 21002.5 3267.61 21002.5 3311.61 21002.5 3354.61 21002.5 3398.61 21002.5 3442.61 21002.5 3485.61 21002.5 3529.62 21002.5 3572.62 21002.5 3616.62 21002.5 3660.62 21002.5 3703.5 21002.5 3703.5 21680.5 3660.62 21680.5 3616.62 21680.5 3572.62 21680.5 3529.62 21680.5 3485.61 21680.5 3442.61 21680.5 3398.61 21680.5 3354.61 21680.5 3311.61 21680.5 3267.61 21680.5 3224.61 21680.5 3180.6 21680.5 3136.6 21680.5 3093.6 21680.5 3049.6 21680.5 3005.6 21680.5 2962.6 21680.5 2918.6 21680.5 2875.59 21680.5 2831.59 21680.5 2787.59 21680.5 2744.5 21680.5Z" stroke="#BFBFBF" stroke-width="3.4375" stroke-linejoin="round" stroke-miterlimit="10" stroke-opacity="0.501961" fill="#D9D9D9" fill-opacity="0.501961"/></g><g><path d="M1825.5 21409.5 3707.5 21409.5" stroke="#D9D9D9" stroke-width="3.4375" stroke-linejoin="round" stroke-miterlimit="10" fill="none" fill-rule="evenodd"/></g><g clip-path="url(#clip3)"><g filter="url(#fx0)" transform="translate(1815 21112)"><g><path d="M19.9817 293.937C34.5149 294.571 49.048 293.859 63.5815 295.838 78.1147 297.817 92.6482 308.317 107.182 305.813 121.715 303.309 136.248 285.484 150.782 280.817 165.315 276.15 179.848 264.601 194.381 277.809 208.915 291.017 223.448 352.057 237.982 360.063 252.515 368.068 267.048 336.542 281.581 325.842 296.115 315.142 310.648 305.303 325.182 295.861 339.715 286.42 354.248 260.53 368.782 269.192 383.315 277.854 397.848 348.01 412.382 347.832 426.915 347.653 441.448 279.067 455.982 268.12 470.515 257.172 485.048 286.487 499.582 282.148 514.115 277.81 528.648 242.651 543.182 242.089 557.715 241.527 572.248 260.814 586.782 278.778 601.315 296.741 615.848 348.965 630.382 349.871 640.478 350.499 663.885 322.316 673.982 284.21 688.515 229.361 703.048-0.0175781 717.582 20.7758 732.115 41.5688 746.648 362.958 761.182 408.97 775.715 454.982 790.248 334.233 804.782 296.851 819.315 259.468 833.848 209.287 848.382 184.678 860.418 164.296 879.945 123.774 891.982 149.191 906.515 179.88 921.048 350.295 935.582 368.811 950.115 387.326 964.648 253.717 979.182 260.283 993.715 266.847 1008.25 416.55 1022.78 408.2 1037.31 399.848 1051.85 219.93 1066.38 210.177 1080.92 200.423 1095.45 339.402 1109.98 349.677 1124.51 359.951 1139.05 278.261 1153.58 271.821 1168.12 265.38 1182.65 308.762 1197.18 311.033 1211.71 313.304 1226.25 280.45 1240.78 285.445 1255.31 290.44 1269.85 339.034 1284.38 341.005 1298.91 342.976 1313.45 300.611 1327.98 297.272 1342.51 293.932 1357.05 312.059 1371.58 320.969 1386.11 329.879 1400.65 356.023 1415.18 350.734 1429.71 345.445 1444.25 307.228 1458.78 289.237 1473.32 271.245 1487.85 239.299 1502.38 242.783 1516.91 246.266 1538.72 298.914 1545.98 310.14" stroke="#FFB226" stroke-width="9" stroke-linecap="round" stroke-linejoin="round" stroke-miterlimit="10" fill="none"/></g></g></g><g clip-path="url(#clip4)"><g filter="url(#fx1)" transform="translate(1815 21247)"><g><path d="M19.9817 155.334C34.5149 150.996 49.048 143.429 63.5815 142.32 78.1147 141.21 92.6482 151.182 107.182 148.676 121.715 146.169 136.248 128.709 150.782 127.284 165.315 125.857 179.848 131.783 194.381 140.12 208.915 148.457 223.448 173.848 237.982 177.306 252.515 180.764 267.048 167.582 281.581 160.868 296.115 154.154 310.648 153.395 325.182 137.025 339.715 120.654 354.248 47.8273 368.782 62.6449 383.315 77.4621 397.848 211.909 412.382 225.93 426.915 239.95 441.448 162.528 455.982 146.767 470.515 131.007 485.048 138.683 499.582 131.366 514.115 124.048 528.648 99.7654 543.182 102.86 557.715 105.955 572.248 139.154 586.782 149.936 601.315 160.718 615.848 162.298 630.382 167.554 643.93 172.454 660.433 199.872 673.982 181.471 688.515 161.731 703.048 45.3987 717.582 49.1199 732.115 52.8407 746.648 193.333 761.182 203.796 775.715 214.259 790.248 137.69 804.782 111.898 819.315 86.1061 833.848 46.1475 848.382 49.044 862.915 51.94 877.448 105.771 891.982 129.277 906.515 152.783 921.048 208.335 935.582 190.08 950.115 171.824 964.648 8.98242 979.182 19.7449 993.715 30.5069 1008.25 251.324 1022.78 254.653 1037.31 257.982 1051.85 60.7895 1066.38 39.7206 1080.92 18.6513 1095.45 110.229 1109.98 128.238 1124.51 146.246 1139.05 134.169 1153.58 147.769 1168.12 161.369 1182.65 209.94 1197.18 209.84 1211.71 209.739 1226.25 158.789 1240.78 147.166 1255.31 135.542 1269.85 142.319 1284.38 140.1 1298.91 137.88 1313.45 134.255 1327.98 133.849 1342.51 133.443 1357.05 130.907 1371.58 137.663 1386.11 144.419 1400.65 173.704 1415.18 174.386 1429.71 175.068 1444.25 149.217 1458.78 141.755 1473.32 134.292 1487.85 129.788 1502.38 129.609 1516.91 129.429 1538.72 138.833 1545.98 140.678" stroke="#000000" stroke-width="9" stroke-linecap="round" stroke-linejoin="round" stroke-miterlimit="10" fill="none"/></g></g></g><g><path d="M1828.5 21399.5C1843.03 21400.1 1857.57 21399.4 1872.1 21401.4 1886.63 21403.3 1901.17 21413.8 1915.7 21411.3 1930.23 21408.8 1944.77 21391 1959.3 21386.3 1973.83 21381.7 1988.37 21370.1 2002.9 21383.3 2017.43 21396.5 2031.97 21457.6 2046.5 21465.6 2061.03 21473.6 2075.57 21442.1 2090.1 21431.4 2104.63 21420.7 2119.17 21410.8 2133.7 21401.4 2148.23 21391.9 2162.77 21366 2177.3 21374.7 2191.83 21383.4 2206.37 21453.5 2220.9 21453.3 2235.43 21453.2 2249.97 21384.6 2264.5 21373.6 2279.03 21362.7 2293.57 21392 2308.1 21387.7 2322.63 21383.3 2337.17 21348.2 2351.7 21347.6 2366.23 21347 2380.77 21366.3 2395.3 21384.3 2409.83 21402.3 2424.37 21454.5 2438.9 21455.4 2449 21456 2472.4 21427.8 2482.5 21389.7 2497.03 21334.9 2511.57 21105.5 2526.1 21126.3 2540.63 21147.1 2555.17 21468.5 2569.7 21514.5 2584.23 21560.5 2598.77 21439.8 2613.3 21402.4 2627.83 21365 2642.37 21314.8 2656.9 21290.2 2668.94 21269.8 2688.46 21229.3 2700.5 21254.7 2715.03 21285.4 2729.57 21455.8 2744.1 21474.3 2758.63 21492.8 2773.17 21359.2 2787.7 21365.8 2802.23 21372.4 2816.77 21522.1 2831.3 21513.7 2845.83 21505.4 2860.37 21325.4 2874.9 21315.7 2889.43 21305.9 2903.97 21444.9 2918.5 21455.2 2933.03 21465.5 2947.57 21383.8 2962.1 21377.3 2976.63 21370.9 2991.17 21414.3 3005.7 21416.6 3020.23 21418.8 3034.77 21386 3049.3 21391 3063.83 21396 3078.37 21444.6 3092.9 21446.5 3107.43 21448.5 3121.97 21406.1 3136.5 21402.8 3151.03 21399.4 3165.57 21417.6 3180.1 21426.5 3194.63 21435.4 3209.17 21461.5 3223.7 21456.3 3238.23 21451 3252.77 21412.7 3267.3 21394.8 3281.83 21376.8 3296.37 21344.8 3310.9 21348.3 3325.43 21351.8 3347.23 21404.4 3354.5 21415.7" stroke="#FFB226" stroke-width="9.16667" stroke-linecap="round" stroke-linejoin="round" stroke-miterlimit="10" fill="none"/></g><g><path d="M1828.5 21395.9C1843.03 21391.5 1857.57 21383.9 1872.1 21382.8 1886.63 21381.7 1901.17 21391.7 1915.7 21389.2 1930.23 21386.7 1944.77 21369.2 1959.3 21367.8 1973.83 21366.4 1988.37 21372.3 2002.9 21380.6 2017.43 21389 2031.97 21414.4 2046.5 21417.8 2061.03 21421.3 2075.57 21408.1 2090.1 21401.4 2104.63 21394.7 2119.17 21393.9 2133.7 21377.5 2148.23 21361.2 2162.77 21288.3 2177.3 21303.2 2191.83 21318 2206.37 21452.4 2220.9 21466.4 2235.43 21480.5 2249.97 21403 2264.5 21387.3 2279.03 21371.5 2293.57 21379.2 2308.1 21371.9 2322.63 21364.6 2337.17 21340.3 2351.7 21343.4 2366.23 21346.5 2380.77 21379.7 2395.3 21390.5 2409.83 21401.2 2424.37 21402.8 2438.9 21408.1 2452.45 21413 2468.95 21440.4 2482.5 21422 2497.03 21402.2 2511.57 21285.9 2526.1 21289.6 2540.63 21293.4 2555.17 21433.8 2569.7 21444.3 2584.23 21454.8 2598.77 21378.2 2613.3 21352.4 2627.83 21326.6 2642.37 21286.7 2656.9 21289.6 2671.43 21292.5 2685.97 21346.3 2700.5 21369.8 2715.03 21393.3 2729.57 21448.9 2744.1 21430.6 2758.63 21412.3 2773.17 21249.5 2787.7 21260.3 2802.23 21271 2816.77 21491.8 2831.3 21495.2 2845.83 21498.5 2860.37 21301.3 2874.9 21280.2 2889.43 21259.2 2903.97 21350.7 2918.5 21368.8 2933.03 21386.8 2947.57 21374.7 2962.1 21388.3 2976.63 21401.9 2991.17 21450.5 3005.7 21450.4 3020.23 21450.3 3034.77 21399.3 3049.3 21387.7 3063.83 21376.1 3078.37 21382.8 3092.9 21380.6 3107.43 21378.4 3121.97 21374.8 3136.5 21374.4 3151.03 21374 3165.57 21371.4 3180.1 21378.2 3194.63 21384.9 3209.17 21414.2 3223.7 21414.9 3238.23 21415.6 3252.77 21389.7 3267.3 21382.3 3281.83 21374.8 3296.37 21370.3 3310.9 21370.1 3325.43 21369.9 3347.23 21379.4 3354.5 21381.2" stroke="#000000" stroke-width="9.16667" stroke-linecap="round" stroke-linejoin="round" stroke-miterlimit="10" fill="none"/></g><g><text font-family="Inter,Inter_MSFontService,sans-serif" font-weight="400" font-size="32" transform="matrix(1 0 0 1 1755.7 21690)">80</text></g><g><text font-family="Inter,Inter_MSFontService,sans-serif" font-weight="400" font-size="32" transform="matrix(1 0 0 1 1755.47 21555)">90</text></g><g><text font-family="Inter,Inter_MSFontService,sans-serif" font-weight="400" font-size="32" transform="matrix(1 0 0 1 1740.53 21419)">100</text></g><g><text font-family="Inter,Inter_MSFontService,sans-serif" font-weight="400" font-size="32" transform="matrix(1 0 0 1 1745.68 21283)">110</text></g><g><text font-family="Inter,Inter_MSFontService,sans-serif" font-weight="400" font-size="32" transform="matrix(1 0 0 1 1741.17 21148)">120</text></g><g><text font-family="Inter,Inter_MSFontService,sans-serif" font-weight="400" font-size="32" transform="matrix(1 0 0 1 1740.16 21012)">130</text></g><g><text font-family="Inter,Inter_MSFontService,sans-serif" font-weight="400" font-size="32" transform="matrix(0.707107 -0.707107 0.707107 0.707107 1800.1 21759)">8/3</text></g><g><text font-family="Inter,Inter_MSFontService,sans-serif" font-weight="400" font-size="32" transform="matrix(0.707107 -0.707107 0.707107 0.707107 1917.09 21773)">8/24</text></g><g><text font-family="Inter,Inter_MSFontService,sans-serif" font-weight="400" font-size="32" transform="matrix(0.707107 -0.707107 0.707107 0.707107 2050.97 21770)">9/14</text></g><g><text font-family="Inter,Inter_MSFontService,sans-serif" font-weight="400" font-size="32" transform="matrix(0.707107 -0.707107 0.707107 0.707107 2182.56 21770)">10/5</text></g><g><text font-family="Inter,Inter_MSFontService,sans-serif" font-weight="400" font-size="32" transform="matrix(0.707107 -0.707107 0.707107 0.707107 2299.33 21784)">10/26</text></g><g><text font-family="Inter,Inter_MSFontService,sans-serif" font-weight="400" font-size="32" transform="matrix(0.707107 -0.707107 0.707107 0.707107 2437.02 21777)">11/16</text></g><g><text font-family="Inter,Inter_MSFontService,sans-serif" font-weight="400" font-size="32" transform="matrix(0.707107 -0.707107 0.707107 0.707107 2576.4 21768)">12/7</text></g><g><text font-family="Inter,Inter_MSFontService,sans-serif" font-weight="400" font-size="32" transform="matrix(0.707107 -0.707107 0.707107 0.707107 2692.49 21783)">12/28</text></g><g><text font-family="Inter,Inter_MSFontService,sans-serif" font-weight="400" font-size="32" transform="matrix(0.707107 -0.707107 0.707107 0.707107 2840.26 21766)">1/18</text></g><g><text font-family="Inter,Inter_MSFontService,sans-serif" font-weight="400" font-size="32" transform="matrix(0.707107 -0.707107 0.707107 0.707107 2978.45 21759)">2/8</text></g><g><text font-family="Inter,Inter_MSFontService,sans-serif" font-weight="400" font-size="32" transform="matrix(0.707107 -0.707107 0.707107 0.707107 3112.03 21756)">3/1</text></g><g><text font-family="Inter,Inter_MSFontService,sans-serif" font-weight="400" font-size="32" transform="matrix(0.707107 -0.707107 0.707107 0.707107 3225.96 21773)">3/22</text></g><g><text font-family="Inter,Inter_MSFontService,sans-serif" font-weight="400" font-size="32" transform="matrix(0.707107 -0.707107 0.707107 0.707107 3359.87 21770)">4/12</text></g><g><text font-family="Inter,Inter_MSFontService,sans-serif" font-weight="400" font-size="32" transform="matrix(0.707107 -0.707107 0.707107 0.707107 3501.32 21759)">5/3</text></g><g><text font-family="Inter,Inter_MSFontService,sans-serif" font-weight="400" font-size="32" transform="matrix(0.707107 -0.707107 0.707107 0.707107 3618.31 21773)">5/24</text></g><g><text font-family="Inter Medium,Inter Medium_MSFontService,sans-serif" font-weight="700" font-size="46" transform="matrix(1 0 0 1 1742.02 20836)">U.S. Hotel Occupancy and ADR Recovery Levels</text></g><g><path d="M1733.5 20936.5 1821.5 20936.5" stroke="#FFB226" stroke-width="9.16667" stroke-linecap="round" stroke-linejoin="round" stroke-miterlimit="10" fill="none" fill-rule="evenodd"/></g><g><text font-family="Inter Medium,Inter Medium_MSFontService,sans-serif" font-weight="500" font-size="37" transform="matrix(1 0 0 1 1830.61 20948)">Occ Index</text></g><g><path d="M2057.5 20936.5 2145.5 20936.5" stroke="#000000" stroke-width="9.16667" stroke-linecap="round" stroke-linejoin="round" stroke-miterlimit="10" fill="none" fill-rule="evenodd"/></g><g><text font-family="Inter Medium,Inter Medium_MSFontService,sans-serif" font-weight="500" font-size="37" transform="matrix(1 0 0 1 2155.16 20948)">ADR Index</text></g><rect x="1658.5" y="20746.5" width="2103" height="1092" stroke="#D9D9D9" stroke-width="3.4375" stroke-linejoin="round" stroke-miterlimit="10" fill="none"/><g><text fill="#7F7F7F" font-family="Inter,Inter_MSFontService,sans-serif" font-weight="400" font-size="32" transform="matrix(1 0 0 1 1739.76 20893)">Indexed to 2023, Source: STR, str.com</text></g><g><g><text font-family="Inter Medium,Inter Medium_MSFontService,sans-serif" font-weight="700" font-size="37" transform="matrix(1 0 0 1 2742.4 21809)">2025</text></g></g></g></svg>