<svg width="2111" height="1095" xmlns="http://www.w3.org/2000/svg" xmlns:xlink="http://www.w3.org/1999/xlink" xml:space="preserve" overflow="hidden"><defs><filter id="fx0" x="-10%" y="-10%" width="120%" height="120%" filterUnits="userSpaceOnUse" primitiveUnits="userSpaceOnUse"><feComponentTransfer color-interpolation-filters="sRGB"><feFuncR type="discrete" tableValues="0 0"/><feFuncG type="discrete" tableValues="0 0"/><feFuncB type="discrete" tableValues="0 0"/><feFuncA type="linear" slope="0.501961" intercept="0"/></feComponentTransfer><feGaussianBlur stdDeviation="4.58333 4.58333"/></filter><filter id="fx1" x="-10%" y="-10%" width="120%" height="120%" filterUnits="userSpaceOnUse" primitiveUnits="userSpaceOnUse"><feComponentTransfer color-interpolation-filters="sRGB"><feFuncR type="discrete" tableValues="0 0"/><feFuncG type="discrete" tableValues="0 0"/><feFuncB type="discrete" tableValues="0 0"/><feFuncA type="linear" slope="0.501961" intercept="0"/></feComponentTransfer><feGaussianBlur stdDeviation="4.58333 4.58333"/></filter><clipPath id="clip2"><rect x="1660" y="20745" width="2111" height="1095"/></clipPath><clipPath id="clip3"><rect x="1828" y="21002" width="1890" height="681"/></clipPath><clipPath id="clip4"><rect x="1828" y="21002" width="1890" height="681"/></clipPath></defs><g clip-path="url(#clip2)" transform="translate(-1660 -20745)"><rect x="1661" y="20746" width="2108" height="1092" fill="#FFFFFF"/><g><path d="M1998.5 21002.5 2053.57 21002.5 2109.57 21002.5 2164.57 21002.5 2219.57 21002.5 2274.57 21002.5 2329.58 21002.5 2385.58 21002.5 2440.58 21002.5 2495.58 21002.5 2550.58 21002.5 2606.59 21002.5 2661.59 21002.5 2716.59 21002.5 2771.59 21002.5 2827.59 21002.5 2882.59 21002.5 2937.6 21002.5 2992.6 21002.5 3048.6 21002.5 3103.6 21002.5 3158.6 21002.5 3213.61 21002.5 3269.61 21002.5 3324.61 21002.5 3379.61 21002.5 3434.61 21002.5 3489.61 21002.5 3545.62 21002.5 3600.62 21002.5 3655.62 21002.5 3711.5 21002.5 3711.5 21680.5 3655.62 21680.5 3600.62 21680.5 3545.62 21680.5 3489.61 21680.5 3434.61 21680.5 3379.61 21680.5 3324.61 21680.5 3269.61 21680.5 3213.61 21680.5 3158.6 21680.5 3103.6 21680.5 3048.6 21680.5 2992.6 21680.5 2937.6 21680.5 2882.59 21680.5 2827.59 21680.5 2771.59 21680.5 2716.59 21680.5 2661.59 21680.5 2606.59 21680.5 2550.58 21680.5 2495.58 21680.5 2440.58 21680.5 2385.58 21680.5 2329.58 21680.5 2274.57 21680.5 2219.57 21680.5 2164.57 21680.5 2109.57 21680.5 2053.57 21680.5 1998.5 21680.5Z" stroke="#BFBFBF" stroke-width="3.4375" stroke-linejoin="round" stroke-miterlimit="10" stroke-opacity="0.501961" fill="#D9D9D9" fill-opacity="0.501961"/></g><g><path d="M1828.5 21341.5 3714.5 21341.5" stroke="#D9D9D9" stroke-width="3.4375" stroke-linejoin="round" stroke-miterlimit="10" fill="none" fill-rule="evenodd"/></g><g clip-path="url(#clip3)"><g filter="url(#fx0)" transform="translate(1819 21125)"><g><path d="M19.9818 214.416C38.395 167.696 56.8082 105.006 75.2217 74.2559 90.5552 48.6485 115.128-2.01758 130.462 29.9152 148.875 68.2609 167.288 281.196 185.702 304.331 204.115 327.466 222.528 160.522 240.942 168.725 259.355 176.927 277.768 363.983 296.182 353.548 314.595 343.113 333.008 118.305 351.422 106.117 369.835 93.9294 388.248 267.586 406.662 280.423 425.075 293.261 443.488 191.189 461.902 183.142 480.315 175.094 498.728 229.301 517.142 232.138 535.555 234.975 553.968 193.923 572.382 200.165 590.795 206.407 609.208 267.125 627.622 269.588 646.035 272.051 664.448 219.116 682.862 214.944 701.275 210.771 719.688 233.42 738.102 244.553 756.515 255.686 774.928 288.352 793.342 281.744 811.755 275.136 830.168 227.384 848.582 204.903 866.995 182.422 885.408 142.505 903.822 146.859 922.235 151.211 940.648 217.458 959.062 231.022 977.042 244.266 996.322 207.218 1014.3 228.239 1032.71 249.767 1051.13 358.466 1069.54 360.189 1087.95 361.911 1106.37 267.569 1124.78 238.573 1143.19 209.577 1161.61 182.381 1180.02 186.215 1198.43 190.047 1216.85 254.588 1235.26 261.572 1253.67 268.556 1272.09 233.696 1290.5 228.117 1308.91 222.537 1327.33 224.374 1345.74 228.095 1364.15 231.815 1391.77 246.715 1400.98 250.44" stroke="#FFB226" stroke-width="9" stroke-linecap="round" stroke-linejoin="round" stroke-miterlimit="10" fill="none"/></g></g></g><g clip-path="url(#clip4)"><g filter="url(#fx1)" transform="translate(1819 21141)"><g><path d="M19.9818 135.937C38.395 109.685 56.8082 53.5508 75.2217 57.1803 93.6349 60.8095 112.048 128.259 130.462 157.713 148.875 187.166 167.288 256.773 185.702 233.899 204.115 211.025 222.528 6.98242 240.942 20.4679 259.355 33.9529 277.768 310.639 296.182 314.811 314.595 318.982 333.008 71.8976 351.422 45.4977 369.835 19.0975 388.248 133.847 406.662 156.411 425.075 178.975 443.488 163.842 461.902 180.884 480.315 197.925 498.728 258.785 517.142 258.659 535.555 258.533 553.968 194.692 572.382 180.128 590.795 165.563 609.208 174.055 627.622 171.274 646.035 168.493 664.448 163.95 682.862 163.441 701.275 162.932 719.688 159.755 738.102 168.22 756.515 176.686 774.928 213.381 793.342 214.235 811.755 215.089 830.168 182.698 848.582 173.347 866.995 163.996 885.408 158.353 903.822 158.129 922.235 157.904 940.648 168.336 959.062 171.999 977.475 175.662 995.888 173.244 1014.3 180.106 1032.71 186.967 1051.13 222.515 1069.54 213.17 1087.95 203.825 1106.37 132.8 1124.78 124.035 1143.19 115.269 1161.61 147.539 1180.02 160.578 1198.43 173.616 1216.85 200.11 1235.26 202.266 1253.67 204.423 1272.09 179.623 1290.5 173.517 1308.91 167.411 1327.33 161.231 1345.74 165.63 1364.15 170.029 1391.77 194.196 1400.98 199.909" stroke="#000000" stroke-width="9" stroke-linecap="round" stroke-linejoin="round" stroke-miterlimit="10" fill="none"/></g></g></g><g><path d="M1832.5 21332.9C1850.91 21286.2 1869.33 21223.5 1887.74 21192.8 1903.07 21167.2 1927.65 21116.5 1942.98 21148.4 1961.39 21186.8 1979.81 21399.7 1998.22 21422.8 2016.63 21446 2035.05 21279 2053.46 21287.2 2071.87 21295.4 2090.29 21482.5 2108.7 21472.1 2127.11 21461.6 2145.53 21236.8 2163.94 21224.6 2182.35 21212.4 2200.77 21386.1 2219.18 21398.9 2237.59 21411.8 2256.01 21309.7 2274.42 21301.7 2292.83 21293.6 2311.25 21347.8 2329.66 21350.7 2348.07 21353.5 2366.49 21312.4 2384.9 21318.7 2403.31 21324.9 2421.73 21385.6 2440.14 21388.1 2458.55 21390.6 2476.97 21337.6 2495.38 21333.5 2513.79 21329.3 2532.21 21351.9 2550.62 21363.1 2569.03 21374.2 2587.45 21406.9 2605.86 21400.3 2624.27 21393.7 2642.69 21345.9 2661.1 21323.4 2679.51 21300.9 2697.93 21261 2716.34 21265.4 2734.75 21269.7 2753.17 21336 2771.58 21349.5 2789.56 21362.8 2808.84 21325.7 2826.82 21346.8 2845.23 21368.3 2863.65 21477 2882.06 21478.7 2900.47 21480.4 2918.89 21386.1 2937.3 21357.1 2955.71 21328.1 2974.13 21300.9 2992.54 21304.7 3010.95 21308.6 3029.37 21373.1 3047.78 21380.1 3066.19 21387.1 3084.61 21352.2 3103.02 21346.6 3121.43 21341.1 3139.85 21342.9 3158.26 21346.6 3176.67 21350.3 3204.29 21365.2 3213.5 21369" stroke="#FFB226" stroke-width="9.16667" stroke-linecap="round" stroke-linejoin="round" stroke-miterlimit="10" fill="none"/></g><g><path d="M1832.5 21270.5C1850.91 21244.2 1869.33 21188.1 1887.74 21191.7 1906.15 21195.3 1924.57 21262.8 1942.98 21292.2 1961.39 21321.7 1979.81 21391.3 1998.22 21368.4 2016.63 21345.5 2035.05 21141.5 2053.46 21155 2071.87 21168.5 2090.29 21445.2 2108.7 21449.3 2127.11 21453.5 2145.53 21206.4 2163.94 21180 2182.35 21153.6 2200.77 21268.4 2219.18 21290.9 2237.59 21313.5 2256.01 21298.4 2274.42 21315.4 2292.83 21332.4 2311.25 21393.3 2329.66 21393.2 2348.07 21393.1 2366.49 21329.2 2384.9 21314.6 2403.31 21300.1 2421.73 21308.6 2440.14 21305.8 2458.55 21303 2476.97 21298.5 2495.38 21298 2513.79 21297.4 2532.21 21294.3 2550.62 21302.7 2569.03 21311.2 2587.45 21347.9 2605.86 21348.8 2624.27 21349.6 2642.69 21317.2 2661.1 21307.9 2679.51 21298.5 2697.93 21292.9 2716.34 21292.6 2734.75 21292.4 2753.17 21302.9 2771.58 21306.5 2789.99 21310.2 2808.41 21307.8 2826.82 21314.6 2845.23 21321.5 2863.65 21357 2882.06 21347.7 2900.47 21338.3 2918.89 21267.3 2937.3 21258.6 2955.71 21249.8 2974.13 21282.1 2992.54 21295.1 3010.95 21308.1 3029.37 21334.6 3047.78 21336.8 3066.19 21338.9 3084.61 21314.1 3103.02 21308 3121.43 21301.9 3139.85 21295.7 3158.26 21300.1 3176.67 21304.5 3204.29 21328.7 3213.5 21334.4" stroke="#000000" stroke-width="9.16667" stroke-linecap="round" stroke-linejoin="round" stroke-miterlimit="10" fill="none"/></g><g><text font-family="Inter,Inter_MSFontService,sans-serif" font-weight="400" font-size="32" transform="matrix(1 0 0 1 1759.39 21690)">80</text></g><g><text font-family="Inter,Inter_MSFontService,sans-serif" font-weight="400" font-size="32" transform="matrix(1 0 0 1 1759.16 21521)">90</text></g><g><text font-family="Inter,Inter_MSFontService,sans-serif" font-weight="400" font-size="32" transform="matrix(1 0 0 1 1744.22 21351)">100</text></g><g><text font-family="Inter,Inter_MSFontService,sans-serif" font-weight="400" font-size="32" transform="matrix(1 0 0 1 1749.38 21182)">110</text></g><g><text font-family="Inter,Inter_MSFontService,sans-serif" font-weight="400" font-size="32" transform="matrix(1 0 0 1 1744.86 21012)">120</text></g><g><text font-family="Inter,Inter_MSFontService,sans-serif" font-weight="400" font-size="32" transform="matrix(0.707107 -0.707107 0.707107 0.707107 1795.84 21768)">12/7</text></g><g><text font-family="Inter,Inter_MSFontService,sans-serif" font-weight="400" font-size="32" transform="matrix(0.707107 -0.707107 0.707107 0.707107 1946.79 21783)">12/28</text></g><g><text font-family="Inter,Inter_MSFontService,sans-serif" font-weight="400" font-size="32" transform="matrix(0.707107 -0.707107 0.707107 0.707107 2129.42 21766)">1/18</text></g><g><text font-family="Inter,Inter_MSFontService,sans-serif" font-weight="400" font-size="32" transform="matrix(0.707107 -0.707107 0.707107 0.707107 2302.47 21759)">2/8</text></g><g><text font-family="Inter,Inter_MSFontService,sans-serif" font-weight="400" font-size="32" transform="matrix(0.707107 -0.707107 0.707107 0.707107 2470.92 21756)">3/1</text></g><g><text font-family="Inter,Inter_MSFontService,sans-serif" font-weight="400" font-size="32" transform="matrix(0.707107 -0.707107 0.707107 0.707107 2619.72 21773)">3/22</text></g><g><text font-family="Inter,Inter_MSFontService,sans-serif" font-weight="400" font-size="32" transform="matrix(0.707107 -0.707107 0.707107 0.707107 2788.49 21770)">4/12</text></g><g><text font-family="Inter,Inter_MSFontService,sans-serif" font-weight="400" font-size="32" transform="matrix(0.707107 -0.707107 0.707107 0.707107 2964.81 21759)">5/3</text></g><g><text font-family="Inter,Inter_MSFontService,sans-serif" font-weight="400" font-size="32" transform="matrix(0.707107 -0.707107 0.707107 0.707107 3116.66 21773)">5/24</text></g><g><text font-family="Inter,Inter_MSFontService,sans-serif" font-weight="400" font-size="32" transform="matrix(0.707107 -0.707107 0.707107 0.707107 3285.21 21770)">6/14</text></g><g><text font-family="Inter,Inter_MSFontService,sans-serif" font-weight="400" font-size="32" transform="matrix(0.707107 -0.707107 0.707107 0.707107 3463.43 21758)">7/5</text></g><g><text font-family="Inter,Inter_MSFontService,sans-serif" font-weight="400" font-size="32" transform="matrix(0.707107 -0.707107 0.707107 0.707107 3615.06 21772)">7/26</text></g><g><text font-family="Inter Medium,Inter Medium_MSFontService,sans-serif" font-weight="700" font-size="46" transform="matrix(1 0 0 1 1745.5 20836)">U.S. Hotel Occupancy and ADR Recovery Levels</text></g><g><path d="M1737.5 20936.5 1825.5 20936.5" stroke="#FFB226" stroke-width="9.16667" stroke-linecap="round" stroke-linejoin="round" stroke-miterlimit="10" fill="none" fill-rule="evenodd"/></g><g><text font-family="Inter Medium,Inter Medium_MSFontService,sans-serif" font-weight="500" font-size="37" transform="matrix(1 0 0 1 1834.49 20948)">Occ Index</text></g><g><path d="M2062.5 20936.5 2150.5 20936.5" stroke="#000000" stroke-width="9.16667" stroke-linecap="round" stroke-linejoin="round" stroke-miterlimit="10" fill="none" fill-rule="evenodd"/></g><g><text font-family="Inter Medium,Inter Medium_MSFontService,sans-serif" font-weight="500" font-size="37" transform="matrix(1 0 0 1 2159.57 20948)">ADR Index</text></g><rect x="1661.5" y="20746.5" width="2108" height="1092" stroke="#D9D9D9" stroke-width="3.4375" stroke-linejoin="round" stroke-miterlimit="10" fill="none"/><g><text fill="#7F7F7F" font-family="Inter,Inter_MSFontService,sans-serif" font-weight="400" font-size="32" transform="matrix(1 0 0 1 1743.19 20893)">YOY, Source: STR, str.com</text></g><g><g><text font-family="Inter Medium,Inter Medium_MSFontService,sans-serif" font-weight="700" font-size="37" transform="matrix(1 0 0 1 2057.67 21809)">2025</text></g></g></g></svg>