<svg width="2106" height="1095" xmlns="http://www.w3.org/2000/svg" xmlns:xlink="http://www.w3.org/1999/xlink" xml:space="preserve" overflow="hidden"><defs><filter id="fx0" x="-10%" y="-10%" width="120%" height="120%" filterUnits="userSpaceOnUse" primitiveUnits="userSpaceOnUse"><feComponentTransfer color-interpolation-filters="sRGB"><feFuncR type="discrete" tableValues="0 0"/><feFuncG type="discrete" tableValues="0 0"/><feFuncB type="discrete" tableValues="0 0"/><feFuncA type="linear" slope="0.501961" intercept="0"/></feComponentTransfer><feGaussianBlur stdDeviation="4.58333 4.58333"/></filter><filter id="fx1" x="-10%" y="-10%" width="120%" height="120%" filterUnits="userSpaceOnUse" primitiveUnits="userSpaceOnUse"><feComponentTransfer color-interpolation-filters="sRGB"><feFuncR type="discrete" tableValues="0 0"/><feFuncG type="discrete" tableValues="0 0"/><feFuncB type="discrete" tableValues="0 0"/><feFuncA type="linear" slope="0.501961" intercept="0"/></feComponentTransfer><feGaussianBlur stdDeviation="4.58333 4.58333"/></filter><clipPath id="clip2"><rect x="1657" y="20745" width="2106" height="1095"/></clipPath><clipPath id="clip3"><rect x="1825" y="21002" width="1885" height="681"/></clipPath><clipPath id="clip4"><rect x="1825" y="21002" width="1885" height="681"/></clipPath></defs><g clip-path="url(#clip2)" transform="translate(-1657 -20745)"><rect x="1658" y="20746" width="2103" height="1092" fill="#FFFFFF"/><g><rect x="1825" y="21002" width="1882" height="678" fill="#F2F2F2"/></g><g><path d="M1825.5 21228.5 3707.5 21228.5" stroke="#D9D9D9" stroke-width="3.4375" stroke-linejoin="round" stroke-miterlimit="10" fill="none" fill-rule="evenodd"/></g><g clip-path="url(#clip3)"><g filter="url(#fx0)" transform="translate(1815 21113)"><g><path d="M19.9817 110.718C34.1916 123.899 48.4015 135.392 62.6115 150.26 76.821 165.128 91.0309 208.751 105.241 199.926 119.45 191.101 133.661 127.332 147.871 97.3106 162.08 67.2888 176.29 13.9824 190.5 19.7959 204.71 25.6089 218.92 114.077 233.13 132.19 242.625 144.294 266.264 109.263 275.76 128.474 289.969 157.223 304.179 302.382 318.389 304.683 332.599 306.983 346.809 180.996 361.019 142.274 375.129 103.823 389.538 67.2692 403.649 72.3525 417.858 77.4713 432.068 163.661 446.278 172.988 460.488 182.314 474.698 135.762 488.908 128.311 503.117 120.86 517.327 123.313 531.537 128.281 545.747 133.25 559.957 147.764 574.167 158.121 588.377 168.478 602.587 187.383 616.797 190.423 631.006 193.463 645.216 193.264 659.426 176.361 673.636 159.457 687.846 98.1297 702.056 89.0013 716.265 79.8728 730.475 114.927 744.685 121.59 758.895 128.253 773.105 118.07 787.315 128.98 801.525 139.889 815.735 178.524 829.945 187.05 844.154 195.577 858.364 188.427 872.574 180.139 886.784 171.85 900.994 147.621 915.204 137.319 929.414 127.016 943.624 117.101 957.834 118.327 972.043 119.551 986.253 140.738 1000.46 144.668 1014.67 148.597 1028.88 141.752 1043.09 141.903 1057.3 142.054 1071.51 146.007 1085.72 145.576 1099.93 145.144 1114.14 142.657 1128.35 139.313 1142.56 135.968 1163.88 127.809 1170.98 125.509" stroke="#FFB226" stroke-width="9" stroke-linecap="round" stroke-linejoin="round" stroke-miterlimit="10" fill="none"/></g></g></g><g clip-path="url(#clip4)"><g filter="url(#fx1)" transform="translate(1815 21103)"><g><path d="M19.9817 74.2144C34.1916 76.3384 48.4015 69.2988 62.6115 80.5867 76.821 91.8743 91.0309 140.802 105.241 141.942 119.45 143.081 133.661 99.8909 147.871 87.4226 162.08 74.9539 176.29 67.4298 190.5 67.1304 204.71 66.8306 218.92 80.7404 233.13 85.6247 247.34 90.5086 261.55 87.2848 275.76 96.4343 289.969 105.584 304.179 152.982 318.389 140.522 332.599 128.061 346.809 33.3577 361.019 21.6701 375.229 9.98242 389.439 53.0103 403.649 70.3957 417.858 87.7811 432.068 123.107 446.278 125.982 460.488 128.858 474.698 95.7904 488.908 87.6491 503.117 79.5074 517.327 71.2676 531.537 77.1327 545.747 82.9975 559.957 115.267 574.167 122.839 588.377 130.412 602.587 125.072 616.797 122.566 631.006 120.06 645.216 115.396 659.426 107.802 673.636 100.208 687.846 74.1073 702.056 77.0029 716.265 79.8981 730.475 114.672 744.685 125.175 758.895 135.677 773.105 139.386 787.315 140.02 801.525 140.653 815.735 129.363 829.945 128.975 844.154 128.588 858.364 138.178 872.574 137.694 886.784 137.209 900.994 130.252 915.204 126.067 929.414 121.882 943.624 111.883 957.834 112.584 972.043 113.285 986.253 129.836 1000.46 130.274 1014.67 130.712 1028.88 115.634 1043.09 115.212 1057.3 114.789 1071.51 130.339 1085.72 127.742 1099.93 125.145 1114.14 98.5461 1128.35 99.629 1142.56 100.712 1163.88 128.47 1170.98 134.239" stroke="#000000" stroke-width="9" stroke-linecap="round" stroke-linejoin="round" stroke-miterlimit="10" fill="none"/></g></g></g><g><path d="M1828.5 21217.2C1842.71 21230.4 1856.92 21241.9 1871.13 21256.8 1885.34 21271.6 1899.55 21315.3 1913.76 21306.4 1927.97 21297.6 1942.18 21233.8 1956.39 21203.8 1970.6 21173.8 1984.81 21120.5 1999.02 21126.3 2013.23 21132.1 2027.44 21220.6 2041.65 21238.7 2051.14 21250.8 2074.78 21215.8 2084.28 21235 2098.49 21263.7 2112.7 21408.9 2126.91 21411.2 2141.12 21413.5 2155.33 21287.5 2169.54 21248.8 2183.65 21210.3 2198.06 21173.8 2212.17 21178.9 2226.38 21184 2240.59 21270.2 2254.8 21279.5 2269.01 21288.8 2283.22 21242.3 2297.43 21234.8 2311.64 21227.4 2325.85 21229.8 2340.06 21234.8 2354.26 21239.8 2368.48 21254.3 2382.69 21264.6 2396.9 21275 2411.1 21293.9 2425.31 21296.9 2439.52 21300 2453.73 21299.8 2467.94 21282.9 2482.15 21266 2496.36 21204.6 2510.57 21195.5 2524.78 21186.4 2538.99 21221.4 2553.2 21228.1 2567.41 21234.8 2581.62 21224.6 2595.83 21235.5 2610.04 21246.4 2624.25 21285 2638.46 21293.6 2652.67 21302.1 2666.88 21294.9 2681.09 21286.7 2695.3 21278.4 2709.51 21254.1 2723.72 21243.8 2737.93 21233.5 2752.14 21223.6 2766.35 21224.8 2780.56 21226.1 2794.77 21247.3 2808.98 21251.2 2823.19 21255.1 2837.4 21248.3 2851.61 21248.4 2865.82 21248.6 2880.03 21252.5 2894.24 21252.1 2908.45 21251.7 2922.66 21249.2 2936.87 21245.8 2951.08 21242.5 2972.4 21234.3 2979.5 21232" stroke="#FFB226" stroke-width="9.16667" stroke-linecap="round" stroke-linejoin="round" stroke-miterlimit="10" fill="none"/></g><g><path d="M1828.5 21170.7C1842.71 21172.9 1856.92 21165.8 1871.13 21177.1 1885.34 21188.4 1899.55 21237.3 1913.76 21238.5 1927.97 21239.6 1942.18 21196.4 1956.39 21183.9 1970.6 21171.5 1984.81 21163.9 1999.02 21163.6 2013.23 21163.3 2027.44 21177.3 2041.65 21182.1 2055.86 21187 2070.07 21183.8 2084.28 21193 2098.49 21202.1 2112.7 21249.5 2126.91 21237 2141.12 21224.6 2155.33 21129.9 2169.54 21118.2 2183.75 21106.5 2197.96 21149.5 2212.17 21166.9 2226.38 21184.3 2240.59 21219.6 2254.8 21222.5 2269.01 21225.4 2283.22 21192.3 2297.43 21184.2 2311.64 21176 2325.85 21167.8 2340.06 21173.7 2354.26 21179.5 2368.48 21211.8 2382.69 21219.4 2396.9 21226.9 2411.1 21221.6 2425.31 21219.1 2439.52 21216.6 2453.73 21211.9 2467.94 21204.3 2482.15 21196.7 2496.36 21170.6 2510.57 21173.5 2524.78 21176.4 2538.99 21211.2 2553.2 21221.7 2567.41 21232.2 2581.62 21235.9 2595.83 21236.5 2610.04 21237.2 2624.25 21225.9 2638.46 21225.5 2652.67 21225.1 2666.88 21234.7 2681.09 21234.2 2695.3 21233.7 2709.51 21226.8 2723.72 21222.6 2737.93 21218.4 2752.14 21208.4 2766.35 21209.1 2780.56 21209.8 2794.77 21226.4 2808.98 21226.8 2823.19 21227.2 2837.4 21212.2 2851.61 21211.7 2865.82 21211.3 2880.03 21226.9 2894.24 21224.3 2908.45 21221.7 2922.66 21195.1 2936.87 21196.1 2951.08 21197.2 2972.4 21225 2979.5 21230.8" stroke="#000000" stroke-width="9.16667" stroke-linecap="round" stroke-linejoin="round" stroke-miterlimit="10" fill="none"/></g><g><text font-family="Inter,Inter_MSFontService,sans-serif" font-weight="400" font-size="32" transform="matrix(1 0 0 1 1755.7 21690)">80</text></g><g><text font-family="Inter,Inter_MSFontService,sans-serif" font-weight="400" font-size="32" transform="matrix(1 0 0 1 1755.47 21464)">90</text></g><g><text font-family="Inter,Inter_MSFontService,sans-serif" font-weight="400" font-size="32" transform="matrix(1 0 0 1 1740.53 21238)">100</text></g><g><text font-family="Inter,Inter_MSFontService,sans-serif" font-weight="400" font-size="32" transform="matrix(1 0 0 1 1745.68 21012)">110</text></g><g><text font-family="Inter,Inter_MSFontService,sans-serif" font-weight="400" font-size="32" transform="matrix(0.707107 -0.707107 0.707107 0.707107 1803.48 21756)">3/1</text></g><g><text font-family="Inter,Inter_MSFontService,sans-serif" font-weight="400" font-size="32" transform="matrix(0.707107 -0.707107 0.707107 0.707107 1914.44 21773)">3/22</text></g><g><text font-family="Inter,Inter_MSFontService,sans-serif" font-weight="400" font-size="32" transform="matrix(0.707107 -0.707107 0.707107 0.707107 2045.39 21770)">4/12</text></g><g><text font-family="Inter,Inter_MSFontService,sans-serif" font-weight="400" font-size="32" transform="matrix(0.707107 -0.707107 0.707107 0.707107 2183.87 21759)">5/3</text></g><g><text font-family="Inter,Inter_MSFontService,sans-serif" font-weight="400" font-size="32" transform="matrix(0.707107 -0.707107 0.707107 0.707107 2297.9 21773)">5/24</text></g><g><text font-family="Inter,Inter_MSFontService,sans-serif" font-weight="400" font-size="32" transform="matrix(0.707107 -0.707107 0.707107 0.707107 2428.62 21770)">6/14</text></g><g><text font-family="Inter,Inter_MSFontService,sans-serif" font-weight="400" font-size="32" transform="matrix(0.707107 -0.707107 0.707107 0.707107 2569.02 21758)">7/5</text></g><g><text font-family="Inter,Inter_MSFontService,sans-serif" font-weight="400" font-size="32" transform="matrix(0.707107 -0.707107 0.707107 0.707107 2682.82 21772)">7/26</text></g><g><text font-family="Inter,Inter_MSFontService,sans-serif" font-weight="400" font-size="32" transform="matrix(0.707107 -0.707107 0.707107 0.707107 2812.86 21770)">8/16</text></g><g><text font-family="Inter,Inter_MSFontService,sans-serif" font-weight="400" font-size="32" transform="matrix(0.707107 -0.707107 0.707107 0.707107 2951.11 21759)">9/6</text></g><g><text font-family="Inter,Inter_MSFontService,sans-serif" font-weight="400" font-size="32" transform="matrix(0.707107 -0.707107 0.707107 0.707107 3066.47 21772)">9/27</text></g><g><text font-family="Inter,Inter_MSFontService,sans-serif" font-weight="400" font-size="32" transform="matrix(0.707107 -0.707107 0.707107 0.707107 3185.95 21780)">10/18</text></g><g><text font-family="Inter,Inter_MSFontService,sans-serif" font-weight="400" font-size="32" transform="matrix(0.707107 -0.707107 0.707107 0.707107 3328.01 21766)">11/8</text></g><g><text font-family="Inter,Inter_MSFontService,sans-serif" font-weight="400" font-size="32" transform="matrix(0.707107 -0.707107 0.707107 0.707107 3442.01 21780)">11/29</text></g><g><text font-family="Inter,Inter_MSFontService,sans-serif" font-weight="400" font-size="32" transform="matrix(0.707107 -0.707107 0.707107 0.707107 3566.67 21783)">12/20</text></g><g><text font-family="Inter Medium,Inter Medium_MSFontService,sans-serif" font-weight="700" font-size="46" transform="matrix(1 0 0 1 1742.02 20836)">U.S. Hotel Occupancy and ADR Recovery Levels</text></g><g><path d="M1733.5 20936.5 1821.5 20936.5" stroke="#FFB226" stroke-width="9.16667" stroke-linecap="round" stroke-linejoin="round" stroke-miterlimit="10" fill="none" fill-rule="evenodd"/></g><g><text font-family="Inter Medium,Inter Medium_MSFontService,sans-serif" font-weight="500" font-size="37" transform="matrix(1 0 0 1 1830.61 20948)">Occ Index</text></g><g><path d="M2057.5 20936.5 2145.5 20936.5" stroke="#000000" stroke-width="9.16667" stroke-linecap="round" stroke-linejoin="round" stroke-miterlimit="10" fill="none" fill-rule="evenodd"/></g><g><text font-family="Inter Medium,Inter Medium_MSFontService,sans-serif" font-weight="500" font-size="37" transform="matrix(1 0 0 1 2155.16 20948)">ADR Index</text></g><rect x="1658.5" y="20746.5" width="2103" height="1092" stroke="#D9D9D9" stroke-width="3.4375" stroke-linejoin="round" stroke-miterlimit="10" fill="none"/><g><text fill="#7F7F7F" font-family="Inter,Inter_MSFontService,sans-serif" font-weight="400" font-size="32" transform="matrix(1 0 0 1 1739.76 20893)">YOY, Source: STR, str.com</text></g></g></svg>