<svg width="2106" height="1059" xmlns="http://www.w3.org/2000/svg" xmlns:xlink="http://www.w3.org/1999/xlink" xml:space="preserve" overflow="hidden"><defs><filter id="fx0" x="-10%" y="-10%" width="120%" height="120%" filterUnits="userSpaceOnUse" primitiveUnits="userSpaceOnUse"><feComponentTransfer color-interpolation-filters="sRGB"><feFuncR type="discrete" tableValues="0 0"/><feFuncG type="discrete" tableValues="0 0"/><feFuncB type="discrete" tableValues="0 0"/><feFuncA type="linear" slope="0.501961" intercept="0"/></feComponentTransfer><feGaussianBlur stdDeviation="4.58333 4.58333"/></filter><filter id="fx1" x="-10%" y="-10%" width="120%" height="120%" filterUnits="userSpaceOnUse" primitiveUnits="userSpaceOnUse"><feComponentTransfer color-interpolation-filters="sRGB"><feFuncR type="discrete" tableValues="0 0"/><feFuncG type="discrete" tableValues="0 0"/><feFuncB type="discrete" tableValues="0 0"/><feFuncA type="linear" slope="0.501961" intercept="0"/></feComponentTransfer><feGaussianBlur stdDeviation="4.58333 4.58333"/></filter><clipPath id="clip2"><rect x="1811" y="23263" width="2106" height="1059"/></clipPath><clipPath id="clip3"><rect x="1978" y="23512" width="1885" height="658"/></clipPath><clipPath id="clip4"><rect x="1978" y="23512" width="1885" height="658"/></clipPath></defs><g clip-path="url(#clip2)" transform="translate(-1811 -23263)"><rect x="1812" y="23264" width="2103" height="1056" fill="#FFFFFF"/><g><rect x="1979" y="23512" width="1882" height="655" fill="#F2F2F2"/></g><g><path d="M1978.5 23730.5 3860.5 23730.5" stroke="#D9D9D9" stroke-width="3.4375" stroke-linejoin="round" stroke-miterlimit="10" fill="none" fill-rule="evenodd"/></g><g clip-path="url(#clip3)"><g filter="url(#fx0)" transform="translate(1970 23618)"><g><path d="M19.9817 116.216C40.7844 124.674 61.5875 137.805 82.3906 141.591 103.193 145.376 123.996 138.782 144.8 138.928 165.602 139.073 186.406 142.881 207.209 142.465 228.012 142.049 248.815 139.654 269.618 136.432 290.421 133.21 311.224 119.428 332.027 123.134 352.83 126.841 373.633 155.078 394.436 158.671 415.239 162.264 436.042 136.359 456.845 144.693 477.648 153.026 498.451 202.363 519.254 208.673 540.057 214.982 560.86 191.23 581.663 182.552 602.466 173.873 623.27 158.835 644.073 156.602 664.875 154.37 685.679 162.717 706.482 169.158 727.284 175.599 748.087 194.577 768.891 195.248 789.693 195.919 810.497 195.129 831.3 173.187 852.103 151.244 872.906 58.7795 893.709 63.5954 914.512 68.4109 935.315 192.787 956.118 202.082 976.921 211.376 997.724 131.692 1018.53 119.36 1039.33 107.027 1060.13 116.993 1080.94 128.087 1101.74 139.181 1122.54 181.877 1143.35 185.923 1164.15 189.969 1184.95 163.455 1205.75 152.362 1226.56 141.268 1247.36 124.86 1268.16 119.36 1288.97 113.86 1309.77 135.923 1330.57 119.36 1351.38 102.797 1382.58 36.5452 1392.98 19.9824" stroke="#FFB226" stroke-width="9" stroke-linecap="round" stroke-linejoin="round" stroke-miterlimit="10" fill="none"/></g></g></g><g clip-path="url(#clip4)"><g filter="url(#fx1)" transform="translate(1970 23625)"><g><path d="M19.9817 93.2593C40.7844 98.9557 61.5875 109.926 82.3906 110.349 103.193 110.772 123.996 96.2056 144.8 95.7978 165.602 95.39 186.406 110.411 207.209 107.902 228.012 105.393 248.815 79.6981 269.618 80.7441 290.421 81.7901 311.224 110.452 332.027 114.178 352.83 117.904 373.633 103.854 394.436 103.102 415.239 102.349 436.042 100.147 456.845 109.663 477.648 119.179 498.451 169.982 519.254 160.197 540.057 150.411 560.86 69.8814 581.663 50.9482 602.466 32.0147 623.27 43.4692 644.073 46.5968 664.875 49.7244 685.679 53.7903 706.482 69.7141 727.284 85.6375 748.087 137.673 768.891 142.138 789.693 146.602 810.497 116.881 831.3 96.5006 852.103 76.1201 872.906 15.9824 893.709 19.8554 914.512 23.728 935.315 104.381 956.118 119.738 976.921 135.093 997.724 113.849 1018.53 111.991 1039.33 110.133 1060.13 109.362 1080.94 108.588 1101.74 107.814 1122.54 109.708 1143.35 107.346 1164.15 104.984 1184.95 93.639 1205.75 94.4132 1226.56 95.187 1247.36 109.061 1268.16 111.991 1288.97 114.92 1309.77 126.141 1330.57 111.991 1351.38 97.8408 1382.58 41.2404 1392.98 27.0907" stroke="#000000" stroke-width="9" stroke-linecap="round" stroke-linejoin="round" stroke-miterlimit="10" fill="none"/></g></g></g><g><path d="M1983.5 23727.7C2004.3 23736.2 2025.11 23749.3 2045.91 23753.1 2066.71 23756.9 2087.51 23750.3 2108.32 23750.4 2129.12 23750.6 2149.92 23754.4 2170.73 23754 2191.53 23753.6 2212.33 23751.2 2233.14 23747.9 2253.94 23744.7 2274.74 23730.9 2295.55 23734.7 2316.35 23738.4 2337.15 23766.6 2357.95 23770.2 2378.76 23773.8 2399.56 23747.9 2420.36 23756.2 2441.17 23764.5 2461.97 23813.9 2482.77 23820.2 2503.58 23826.5 2524.38 23802.7 2545.18 23794.1 2565.98 23785.4 2586.79 23770.4 2607.59 23768.1 2628.39 23765.9 2649.2 23774.2 2670 23780.7 2690.8 23787.1 2711.61 23806.1 2732.41 23806.8 2753.21 23807.4 2774.01 23806.6 2794.82 23784.7 2815.62 23762.8 2836.42 23670.3 2857.23 23675.1 2878.03 23679.9 2898.83 23804.3 2919.64 23813.6 2940.44 23822.9 2961.24 23743.2 2982.05 23730.9 3002.85 23718.5 3023.65 23728.5 3044.45 23739.6 3065.26 23750.7 3086.06 23793.4 3106.86 23797.4 3127.67 23801.5 3148.47 23775 3169.27 23763.9 3190.08 23752.8 3210.88 23736.4 3231.68 23730.9 3252.48 23725.4 3273.29 23747.4 3294.09 23730.9 3314.89 23714.3 3346.1 23648.1 3356.5 23631.5" stroke="#FFB226" stroke-width="9.16667" stroke-linecap="round" stroke-linejoin="round" stroke-miterlimit="10" fill="none"/></g><g><path d="M1983.5 23711.8C2004.3 23717.5 2025.11 23728.4 2045.91 23728.9 2066.71 23729.3 2087.51 23714.7 2108.32 23714.3 2129.12 23713.9 2149.92 23728.9 2170.73 23726.4 2191.53 23723.9 2212.33 23698.2 2233.14 23699.3 2253.94 23700.3 2274.74 23729 2295.55 23732.7 2316.35 23736.4 2337.15 23722.4 2357.95 23721.6 2378.76 23720.9 2399.56 23718.7 2420.36 23728.2 2441.17 23737.7 2461.97 23788.5 2482.77 23778.7 2503.58 23768.9 2524.38 23688.4 2545.18 23669.5 2565.98 23650.5 2586.79 23662 2607.59 23665.1 2628.39 23668.2 2649.2 23672.3 2670 23688.2 2690.8 23704.2 2711.61 23756.2 2732.41 23760.7 2753.21 23765.1 2774.01 23735.4 2794.82 23715 2815.62 23694.6 2836.42 23634.5 2857.23 23638.4 2878.03 23642.2 2898.83 23722.9 2919.64 23738.3 2940.44 23753.6 2961.24 23732.4 2982.05 23730.5 3002.85 23728.7 3023.65 23727.9 3044.45 23727.1 3065.26 23726.3 3086.06 23728.2 3106.86 23725.9 3127.67 23723.5 3148.47 23712.2 3169.27 23712.9 3190.08 23713.7 3210.88 23727.6 3231.68 23730.5 3252.48 23733.4 3273.29 23744.7 3294.09 23730.5 3314.89 23716.4 3346.1 23659.8 3356.5 23645.6" stroke="#000000" stroke-width="9.16667" stroke-linecap="round" stroke-linejoin="round" stroke-miterlimit="10" fill="none"/></g><g><text font-family="Inter,Inter_MSFontService,sans-serif" font-weight="400" font-size="32" transform="matrix(1 0 0 1 1909.24 24177)">80</text></g><g><text font-family="Inter,Inter_MSFontService,sans-serif" font-weight="400" font-size="32" transform="matrix(1 0 0 1 1909.01 23959)">90</text></g><g><text font-family="Inter,Inter_MSFontService,sans-serif" font-weight="400" font-size="32" transform="matrix(1 0 0 1 1894.07 23740)">100</text></g><g><text font-family="Inter,Inter_MSFontService,sans-serif" font-weight="400" font-size="32" transform="matrix(1 0 0 1 1899.22 23522)">110</text></g><g><text font-family="Inter,Inter_MSFontService,sans-serif" font-weight="400" font-size="32" transform="matrix(0.707107 -0.707107 0.707107 0.707107 1955.69 24246)">8/2</text></g><g><text font-family="Inter,Inter_MSFontService,sans-serif" font-weight="400" font-size="32" transform="matrix(0.707107 -0.707107 0.707107 0.707107 2128.54 24260)">8/23</text></g><g><text font-family="Inter,Inter_MSFontService,sans-serif" font-weight="400" font-size="32" transform="matrix(0.707107 -0.707107 0.707107 0.707107 2318.85 24257)">9/13</text></g><g><text font-family="Inter,Inter_MSFontService,sans-serif" font-weight="400" font-size="32" transform="matrix(0.707107 -0.707107 0.707107 0.707107 2505.97 24257)">10/4</text></g><g><text font-family="Inter,Inter_MSFontService,sans-serif" font-weight="400" font-size="32" transform="matrix(0.707107 -0.707107 0.707107 0.707107 2680.3 24270)">10/25</text></g><g><text font-family="Inter,Inter_MSFontService,sans-serif" font-weight="400" font-size="32" transform="matrix(0.707107 -0.707107 0.707107 0.707107 2874.42 24264)">11/15</text></g><g><text font-family="Inter,Inter_MSFontService,sans-serif" font-weight="400" font-size="32" transform="matrix(0.707107 -0.707107 0.707107 0.707107 3068.68 24257)">12/6</text></g><g><text font-family="Inter,Inter_MSFontService,sans-serif" font-weight="400" font-size="32" transform="matrix(0.707107 -0.707107 0.707107 0.707107 3243.44 24269)">12/27</text></g><g><text font-family="Inter,Inter_MSFontService,sans-serif" font-weight="400" font-size="32" transform="matrix(0.707107 -0.707107 0.707107 0.707107 3447.64 24252)">1/17</text></g><g><text font-family="Inter,Inter_MSFontService,sans-serif" font-weight="400" font-size="32" transform="matrix(0.707107 -0.707107 0.707107 0.707107 3642.26 24245)">2/7</text></g><g><text font-family="Inter,Inter_MSFontService,sans-serif" font-weight="400" font-size="32" transform="matrix(0.707107 -0.707107 0.707107 0.707107 3814.78 24260)">2/28</text></g><g><text font-family="Inter Medium,Inter Medium_MSFontService,sans-serif" font-weight="700" font-size="46" transform="matrix(1 0 0 1 1895.56 23354)">U.S. Hotel Occupancy and ADR Recovery Levels</text></g><g><path d="M1886.5 23448.5 1974.5 23448.5" stroke="#FFB226" stroke-width="9.16667" stroke-linecap="round" stroke-linejoin="round" stroke-miterlimit="10" fill="none" fill-rule="evenodd"/></g><g><text font-family="Inter Medium,Inter Medium_MSFontService,sans-serif" font-weight="500" font-size="37" transform="matrix(1 0 0 1 1984.15 23460)">Occ Index</text></g><g><path d="M2211.5 23448.5 2299.5 23448.5" stroke="#000000" stroke-width="9.16667" stroke-linecap="round" stroke-linejoin="round" stroke-miterlimit="10" fill="none" fill-rule="evenodd"/></g><g><text font-family="Inter Medium,Inter Medium_MSFontService,sans-serif" font-weight="500" font-size="37" transform="matrix(1 0 0 1 2308.7 23460)">ADR Index</text></g><rect x="1812.5" y="23264.5" width="2103" height="1056" stroke="#D9D9D9" stroke-width="3.4375" stroke-linejoin="round" stroke-miterlimit="10" fill="none"/><g><text fill="#7F7F7F" font-family="Inter,Inter_MSFontService,sans-serif" font-weight="400" font-size="32" transform="matrix(1 0 0 1 1893.3 23408)">YOY, Source: STR, str.com</text></g></g></svg>