<svg width="2106" height="1059" xmlns="http://www.w3.org/2000/svg" xmlns:xlink="http://www.w3.org/1999/xlink" xml:space="preserve" overflow="hidden"><defs><filter id="fx0" x="-10%" y="-10%" width="120%" height="120%" filterUnits="userSpaceOnUse" primitiveUnits="userSpaceOnUse"><feComponentTransfer color-interpolation-filters="sRGB"><feFuncR type="discrete" tableValues="0 0"/><feFuncG type="discrete" tableValues="0 0"/><feFuncB type="discrete" tableValues="0 0"/><feFuncA type="linear" slope="0.501961" intercept="0"/></feComponentTransfer><feGaussianBlur stdDeviation="4.58333 4.58333"/></filter><filter id="fx1" x="-10%" y="-10%" width="120%" height="120%" filterUnits="userSpaceOnUse" primitiveUnits="userSpaceOnUse"><feComponentTransfer color-interpolation-filters="sRGB"><feFuncR type="discrete" tableValues="0 0"/><feFuncG type="discrete" tableValues="0 0"/><feFuncB type="discrete" tableValues="0 0"/><feFuncA type="linear" slope="0.501961" intercept="0"/></feComponentTransfer><feGaussianBlur stdDeviation="4.58333 4.58333"/></filter><clipPath id="clip2"><rect x="1811" y="23263" width="2106" height="1059"/></clipPath><clipPath id="clip3"><rect x="1978" y="23512" width="1885" height="658"/></clipPath><clipPath id="clip4"><rect x="1978" y="23512" width="1885" height="658"/></clipPath></defs><g clip-path="url(#clip2)" transform="translate(-1811 -23263)"><rect x="1812" y="23264" width="2103" height="1056" fill="#FFFFFF"/><g><rect x="1979" y="23512" width="1882" height="655" fill="#F2F2F2"/></g><g><path d="M1978.5 23730.5 3860.5 23730.5" stroke="#D9D9D9" stroke-width="3.4375" stroke-linejoin="round" stroke-miterlimit="10" fill="none" fill-rule="evenodd"/></g><g clip-path="url(#clip3)"><g filter="url(#fx0)" transform="translate(1971 23661)"><g><path d="M19.9818 72.8163C48.3149 81.3087 76.6483 94.4928 104.982 98.2935 133.315 102.094 161.648 95.4732 189.982 95.6198 218.315 95.766 246.648 99.5891 274.982 99.1715 303.315 98.7538 331.648 96.3486 359.982 93.1139 388.315 89.8789 416.648 76.0408 444.982 79.7626 473.315 83.4841 501.648 111.836 529.982 115.443 558.315 119.051 586.648 93.0405 614.982 101.408 643.315 109.775 671.648 159.312 699.982 165.647 728.315 171.982 756.648 148.134 784.982 139.421 813.315 130.707 841.648 115.607 869.982 113.366 898.315 111.124 926.649 119.505 954.982 125.973 983.315 132.439 1011.65 151.494 1039.98 152.168 1068.32 152.842 1096.65 152.048 1124.98 130.018 1153.31 107.986 1195.82 38.3215 1209.98 19.9824" stroke="#FFB226" stroke-width="9" stroke-linecap="round" stroke-linejoin="round" stroke-miterlimit="10" fill="none"/></g></g></g><g clip-path="url(#clip4)"><g filter="url(#fx1)" transform="translate(1971 23625)"><g><path d="M19.9818 93.3242C48.3149 99.0158 76.6483 109.976 104.982 110.399 133.315 110.822 161.648 96.268 189.982 95.8605 218.315 95.453 246.648 110.461 274.982 107.954 303.315 105.447 331.648 79.7744 359.982 80.8196 388.315 81.8647 416.648 110.502 444.982 114.225 473.315 117.948 501.648 103.91 529.982 103.158 558.315 102.406 586.648 100.206 614.982 109.714 643.315 119.222 671.648 169.982 699.982 160.205 728.315 150.427 756.648 69.966 784.982 51.0489 813.315 32.1315 841.648 43.5762 869.982 46.7012 898.315 49.8262 926.649 53.8886 954.982 69.7989 983.315 85.7088 1011.65 137.7 1039.98 142.161 1068.32 146.622 1096.65 116.926 1124.98 96.5627 1153.31 76.1994 1195.82 32.7457 1209.98 19.9824" stroke="#000000" stroke-width="9" stroke-linecap="round" stroke-linejoin="round" stroke-miterlimit="10" fill="none"/></g></g></g><g><path d="M1984.5 23727.3C2012.83 23735.8 2041.17 23749 2069.5 23752.8 2097.83 23756.6 2126.17 23750 2154.5 23750.1 2182.83 23750.3 2211.17 23754.1 2239.5 23753.7 2267.83 23753.3 2296.17 23750.9 2324.5 23747.6 2352.83 23744.4 2381.17 23730.6 2409.5 23734.3 2437.83 23738 2466.17 23766.4 2494.5 23770 2522.83 23773.6 2551.17 23747.6 2579.5 23755.9 2607.83 23764.3 2636.17 23813.8 2664.5 23820.2 2692.83 23826.5 2721.17 23802.7 2749.5 23793.9 2777.83 23785.2 2806.17 23770.1 2834.5 23767.9 2862.83 23765.6 2891.17 23774 2919.5 23780.5 2947.83 23787 2976.17 23806 3004.5 23806.7 3032.83 23807.4 3061.17 23806.6 3089.5 23784.5 3117.83 23762.5 3160.33 23692.8 3174.5 23674.5" stroke="#FFB226" stroke-width="9.16667" stroke-linecap="round" stroke-linejoin="round" stroke-miterlimit="10" fill="none"/></g><g><path d="M1984.5 23711.8C2012.83 23717.5 2041.17 23728.5 2069.5 23728.9 2097.83 23729.3 2126.17 23714.8 2154.5 23714.4 2182.83 23714 2211.17 23729 2239.5 23726.5 2267.83 23724 2296.17 23698.3 2324.5 23699.3 2352.83 23700.4 2381.17 23729 2409.5 23732.7 2437.83 23736.5 2466.17 23722.4 2494.5 23721.7 2522.83 23720.9 2551.17 23718.7 2579.5 23728.2 2607.83 23737.7 2636.17 23788.5 2664.5 23778.7 2692.83 23768.9 2721.17 23688.5 2749.5 23669.6 2777.83 23650.6 2806.17 23662.1 2834.5 23665.2 2862.83 23668.3 2891.17 23672.4 2919.5 23688.3 2947.83 23704.2 2976.17 23756.2 3004.5 23760.7 3032.83 23765.1 3061.17 23735.4 3089.5 23715.1 3117.83 23694.7 3160.33 23651.3 3174.5 23638.5" stroke="#000000" stroke-width="9.16667" stroke-linecap="round" stroke-linejoin="round" stroke-miterlimit="10" fill="none"/></g><g><text font-family="Inter,Inter_MSFontService,sans-serif" font-weight="400" font-size="32" transform="matrix(1 0 0 1 1909.24 24177)">80</text></g><g><text font-family="Inter,Inter_MSFontService,sans-serif" font-weight="400" font-size="32" transform="matrix(1 0 0 1 1909.01 23959)">90</text></g><g><text font-family="Inter,Inter_MSFontService,sans-serif" font-weight="400" font-size="32" transform="matrix(1 0 0 1 1894.07 23740)">100</text></g><g><text font-family="Inter,Inter_MSFontService,sans-serif" font-weight="400" font-size="32" transform="matrix(1 0 0 1 1899.22 23522)">110</text></g><g><text font-family="Inter,Inter_MSFontService,sans-serif" font-weight="400" font-size="32" transform="matrix(0.707107 -0.707107 0.707107 0.707107 1957.31 24246)">8/2</text></g><g><text font-family="Inter,Inter_MSFontService,sans-serif" font-weight="400" font-size="32" transform="matrix(0.707107 -0.707107 0.707107 0.707107 2197.81 24260)">8/23</text></g><g><text font-family="Inter,Inter_MSFontService,sans-serif" font-weight="400" font-size="32" transform="matrix(0.707107 -0.707107 0.707107 0.707107 2455.78 24257)">9/13</text></g><g><text font-family="Inter,Inter_MSFontService,sans-serif" font-weight="400" font-size="32" transform="matrix(0.707107 -0.707107 0.707107 0.707107 2710.57 24257)">10/4</text></g><g><text font-family="Inter,Inter_MSFontService,sans-serif" font-weight="400" font-size="32" transform="matrix(0.707107 -0.707107 0.707107 0.707107 2952.56 24270)">10/25</text></g><g><text font-family="Inter,Inter_MSFontService,sans-serif" font-weight="400" font-size="32" transform="matrix(0.707107 -0.707107 0.707107 0.707107 3214.34 24264)">11/15</text></g><g><text font-family="Inter,Inter_MSFontService,sans-serif" font-weight="400" font-size="32" transform="matrix(0.707107 -0.707107 0.707107 0.707107 3476.27 24257)">12/6</text></g><g><text font-family="Inter,Inter_MSFontService,sans-serif" font-weight="400" font-size="32" transform="matrix(0.707107 -0.707107 0.707107 0.707107 3718.69 24269)">12/27</text></g><g><text font-family="Inter Medium,Inter Medium_MSFontService,sans-serif" font-weight="700" font-size="46" transform="matrix(1 0 0 1 1895.56 23354)">U.S. Hotel Occupancy and ADR Recovery Levels</text></g><g><path d="M1886.5 23448.5 1974.5 23448.5" stroke="#FFB226" stroke-width="9.16667" stroke-linecap="round" stroke-linejoin="round" stroke-miterlimit="10" fill="none" fill-rule="evenodd"/></g><g><text font-family="Inter Medium,Inter Medium_MSFontService,sans-serif" font-weight="500" font-size="37" transform="matrix(1 0 0 1 1984.15 23460)">Occ Index</text></g><g><path d="M2211.5 23448.5 2299.5 23448.5" stroke="#000000" stroke-width="9.16667" stroke-linecap="round" stroke-linejoin="round" stroke-miterlimit="10" fill="none" fill-rule="evenodd"/></g><g><text font-family="Inter Medium,Inter Medium_MSFontService,sans-serif" font-weight="500" font-size="37" transform="matrix(1 0 0 1 2308.7 23460)">ADR Index</text></g><rect x="1812.5" y="23264.5" width="2103" height="1056" stroke="#D9D9D9" stroke-width="3.4375" stroke-linejoin="round" stroke-miterlimit="10" fill="none"/><g><text fill="#7F7F7F" font-family="Inter,Inter_MSFontService,sans-serif" font-weight="400" font-size="32" transform="matrix(1 0 0 1 1893.3 23408)">YOY, Source: STR, str.com</text></g></g></svg>