<svg width="2106" height="1059" xmlns="http://www.w3.org/2000/svg" xmlns:xlink="http://www.w3.org/1999/xlink" xml:space="preserve" overflow="hidden"><defs><filter id="fx0" x="-10%" y="-10%" width="120%" height="120%" filterUnits="userSpaceOnUse" primitiveUnits="userSpaceOnUse"><feComponentTransfer color-interpolation-filters="sRGB"><feFuncR type="discrete" tableValues="0 0"/><feFuncG type="discrete" tableValues="0 0"/><feFuncB type="discrete" tableValues="0 0"/><feFuncA type="linear" slope="0.501961" intercept="0"/></feComponentTransfer><feGaussianBlur stdDeviation="4.58333 4.58333"/></filter><filter id="fx1" x="-10%" y="-10%" width="120%" height="120%" filterUnits="userSpaceOnUse" primitiveUnits="userSpaceOnUse"><feComponentTransfer color-interpolation-filters="sRGB"><feFuncR type="discrete" tableValues="0 0"/><feFuncG type="discrete" tableValues="0 0"/><feFuncB type="discrete" tableValues="0 0"/><feFuncA type="linear" slope="0.501961" intercept="0"/></feComponentTransfer><feGaussianBlur stdDeviation="4.58333 4.58333"/></filter><clipPath id="clip2"><rect x="1811" y="23263" width="2106" height="1059"/></clipPath><clipPath id="clip3"><rect x="1978" y="23512" width="1885" height="658"/></clipPath><clipPath id="clip4"><rect x="1978" y="23512" width="1885" height="658"/></clipPath></defs><g clip-path="url(#clip2)" transform="translate(-1811 -23263)"><rect x="1812" y="23264" width="2103" height="1056" fill="#FFFFFF"/><g><rect x="1979" y="23512" width="1882" height="655" fill="#F2F2F2"/></g><g><path d="M1978.5 23730.5 3860.5 23730.5" stroke="#D9D9D9" stroke-width="3.4375" stroke-linejoin="round" stroke-miterlimit="10" fill="none" fill-rule="evenodd"/></g><g clip-path="url(#clip3)"><g filter="url(#fx0)" transform="translate(1971 23661)"><g><path d="M19.9818 72.7121C48.3149 81.2134 76.6483 94.4114 104.982 98.2161 133.315 102.02 161.648 95.3928 189.982 95.5395 218.315 95.6859 246.648 99.513 274.982 99.0949 303.315 98.6769 331.648 96.2691 359.982 93.0311 388.315 89.7926 416.648 75.94 444.982 79.6657 473.315 83.3911 501.648 111.772 529.982 115.384 558.315 118.995 586.648 92.9575 614.982 101.334 643.315 109.71 671.648 159.298 699.982 165.64 728.315 171.982 756.648 148.109 784.982 139.386 813.315 130.663 841.648 115.548 869.982 113.304 898.315 111.06 926.648 119.45 954.982 125.924 983.315 132.398 1011.65 151.472 1039.98 152.147 1068.31 152.822 1096.65 152.027 1124.98 129.973 1153.31 107.919 1181.65 14.9824 1209.98 19.8229 1238.31 24.663 1266.65 149.674 1294.98 159.016 1323.31 168.357 1351.65 88.2671 1379.98 75.8719 1408.31 63.4764 1436.65 73.4928 1464.98 84.6435 1493.31 95.7938 1521.65 138.708 1549.98 142.775 1578.31 146.841 1620.82 114.664 1634.98 109.042" stroke="#FFB226" stroke-width="9" stroke-linecap="round" stroke-linejoin="round" stroke-miterlimit="10" fill="none"/></g></g></g><g clip-path="url(#clip4)"><g filter="url(#fx1)" transform="translate(1971 23625)"><g><path d="M19.9818 93.2593C48.3149 98.9557 76.6483 109.926 104.982 110.349 133.315 110.772 161.648 96.2056 189.982 95.7978 218.315 95.39 246.648 110.411 274.982 107.902 303.315 105.393 331.648 79.6981 359.982 80.7441 388.315 81.7901 416.648 110.452 444.982 114.178 473.315 117.904 501.648 103.854 529.982 103.102 558.315 102.349 586.648 100.147 614.982 109.663 643.315 119.179 671.648 169.982 699.982 160.197 728.315 150.411 756.648 69.8814 784.982 50.9482 813.315 32.0147 841.648 43.4692 869.982 46.5968 898.315 49.7244 926.648 53.7903 954.982 69.7141 983.315 85.6375 1011.65 137.673 1039.98 142.138 1068.31 146.602 1096.65 116.881 1124.98 96.5006 1153.31 76.1201 1181.65 15.9824 1209.98 19.8554 1238.31 23.728 1266.65 104.381 1294.98 119.738 1323.31 135.093 1351.65 113.849 1379.98 111.991 1408.31 110.133 1436.65 109.362 1464.98 108.588 1493.31 107.814 1521.65 109.708 1549.98 107.346 1578.31 104.984 1620.82 96.5687 1634.98 94.4132" stroke="#000000" stroke-width="9" stroke-linecap="round" stroke-linejoin="round" stroke-miterlimit="10" fill="none"/></g></g></g><g><path d="M1984.5 23727.2C2012.83 23735.7 2041.17 23748.9 2069.5 23752.7 2097.83 23756.5 2126.17 23749.9 2154.5 23750.1 2182.83 23750.2 2211.17 23754 2239.5 23753.6 2267.83 23753.2 2296.17 23750.8 2324.5 23747.5 2352.83 23744.3 2381.17 23730.5 2409.5 23734.2 2437.83 23737.9 2466.17 23766.3 2494.5 23769.9 2522.83 23773.5 2551.17 23747.5 2579.5 23755.9 2607.83 23764.2 2636.17 23813.8 2664.5 23820.2 2692.83 23826.5 2721.17 23802.6 2749.5 23793.9 2777.83 23785.2 2806.17 23770.1 2834.5 23767.8 2862.83 23765.6 2891.17 23774 2919.5 23780.4 2947.83 23786.9 2976.17 23806 3004.5 23806.7 3032.83 23807.3 3061.17 23806.5 3089.5 23784.5 3117.83 23762.4 3146.17 23669.5 3174.5 23674.3 3202.83 23679.2 3231.17 23804.2 3259.5 23813.5 3287.83 23822.9 3316.17 23742.8 3344.5 23730.4 3372.83 23718 3401.17 23728 3429.5 23739.2 3457.83 23750.3 3486.17 23793.2 3514.5 23797.3 3542.83 23801.4 3585.33 23769.2 3599.5 23763.6" stroke="#FFB226" stroke-width="9.16667" stroke-linecap="round" stroke-linejoin="round" stroke-miterlimit="10" fill="none"/></g><g><path d="M1984.5 23711.8C2012.83 23717.5 2041.17 23728.4 2069.5 23728.9 2097.83 23729.3 2126.17 23714.7 2154.5 23714.3 2182.83 23713.9 2211.17 23728.9 2239.5 23726.4 2267.83 23723.9 2296.17 23698.2 2324.5 23699.3 2352.83 23700.3 2381.17 23729 2409.5 23732.7 2437.83 23736.4 2466.17 23722.4 2494.5 23721.6 2522.83 23720.9 2551.17 23718.7 2579.5 23728.2 2607.83 23737.7 2636.17 23788.5 2664.5 23778.7 2692.83 23768.9 2721.17 23688.4 2749.5 23669.5 2777.83 23650.5 2806.17 23662 2834.5 23665.1 2862.83 23668.2 2891.17 23672.3 2919.5 23688.2 2947.83 23704.2 2976.17 23756.2 3004.5 23760.7 3032.83 23765.1 3061.17 23735.4 3089.5 23715 3117.83 23694.6 3146.17 23634.5 3174.5 23638.4 3202.83 23642.2 3231.17 23722.9 3259.5 23738.3 3287.83 23753.6 3316.17 23732.4 3344.5 23730.5 3372.83 23728.7 3401.17 23727.9 3429.5 23727.1 3457.83 23726.3 3486.17 23728.2 3514.5 23725.9 3542.83 23723.5 3585.33 23715.1 3599.5 23712.9" stroke="#000000" stroke-width="9.16667" stroke-linecap="round" stroke-linejoin="round" stroke-miterlimit="10" fill="none"/></g><g><text font-family="Inter,Inter_MSFontService,sans-serif" font-weight="400" font-size="32" transform="matrix(1 0 0 1 1909.24 24177)">80</text></g><g><text font-family="Inter,Inter_MSFontService,sans-serif" font-weight="400" font-size="32" transform="matrix(1 0 0 1 1909.01 23959)">90</text></g><g><text font-family="Inter,Inter_MSFontService,sans-serif" font-weight="400" font-size="32" transform="matrix(1 0 0 1 1894.07 23740)">100</text></g><g><text font-family="Inter,Inter_MSFontService,sans-serif" font-weight="400" font-size="32" transform="matrix(1 0 0 1 1899.22 23522)">110</text></g><g><text font-family="Inter,Inter_MSFontService,sans-serif" font-weight="400" font-size="32" transform="matrix(0.707107 -0.707107 0.707107 0.707107 1957.31 24246)">8/2</text></g><g><text font-family="Inter,Inter_MSFontService,sans-serif" font-weight="400" font-size="32" transform="matrix(0.707107 -0.707107 0.707107 0.707107 2197.81 24260)">8/23</text></g><g><text font-family="Inter,Inter_MSFontService,sans-serif" font-weight="400" font-size="32" transform="matrix(0.707107 -0.707107 0.707107 0.707107 2455.78 24257)">9/13</text></g><g><text font-family="Inter,Inter_MSFontService,sans-serif" font-weight="400" font-size="32" transform="matrix(0.707107 -0.707107 0.707107 0.707107 2710.57 24257)">10/4</text></g><g><text font-family="Inter,Inter_MSFontService,sans-serif" font-weight="400" font-size="32" transform="matrix(0.707107 -0.707107 0.707107 0.707107 2952.56 24270)">10/25</text></g><g><text font-family="Inter,Inter_MSFontService,sans-serif" font-weight="400" font-size="32" transform="matrix(0.707107 -0.707107 0.707107 0.707107 3214.34 24264)">11/15</text></g><g><text font-family="Inter,Inter_MSFontService,sans-serif" font-weight="400" font-size="32" transform="matrix(0.707107 -0.707107 0.707107 0.707107 3476.27 24257)">12/6</text></g><g><text font-family="Inter,Inter_MSFontService,sans-serif" font-weight="400" font-size="32" transform="matrix(0.707107 -0.707107 0.707107 0.707107 3718.69 24269)">12/27</text></g><g><text font-family="Inter Medium,Inter Medium_MSFontService,sans-serif" font-weight="700" font-size="46" transform="matrix(1 0 0 1 1895.56 23354)">U.S. Hotel Occupancy and ADR Recovery Levels</text></g><g><path d="M1886.5 23448.5 1974.5 23448.5" stroke="#FFB226" stroke-width="9.16667" stroke-linecap="round" stroke-linejoin="round" stroke-miterlimit="10" fill="none" fill-rule="evenodd"/></g><g><text font-family="Inter Medium,Inter Medium_MSFontService,sans-serif" font-weight="500" font-size="37" transform="matrix(1 0 0 1 1984.15 23460)">Occ Index</text></g><g><path d="M2211.5 23448.5 2299.5 23448.5" stroke="#000000" stroke-width="9.16667" stroke-linecap="round" stroke-linejoin="round" stroke-miterlimit="10" fill="none" fill-rule="evenodd"/></g><g><text font-family="Inter Medium,Inter Medium_MSFontService,sans-serif" font-weight="500" font-size="37" transform="matrix(1 0 0 1 2308.7 23460)">ADR Index</text></g><rect x="1812.5" y="23264.5" width="2103" height="1056" stroke="#D9D9D9" stroke-width="3.4375" stroke-linejoin="round" stroke-miterlimit="10" fill="none"/><g><text fill="#7F7F7F" font-family="Inter,Inter_MSFontService,sans-serif" font-weight="400" font-size="32" transform="matrix(1 0 0 1 1893.3 23408)">YOY, Source: STR, str.com</text></g></g></svg>