<svg width="2106" height="1065" xmlns="http://www.w3.org/2000/svg" xmlns:xlink="http://www.w3.org/1999/xlink" xml:space="preserve" overflow="hidden"><defs><filter id="fx0" x="-10%" y="-10%" width="120%" height="120%" filterUnits="userSpaceOnUse" primitiveUnits="userSpaceOnUse"><feComponentTransfer color-interpolation-filters="sRGB"><feFuncR type="discrete" tableValues="0 0"/><feFuncG type="discrete" tableValues="0 0"/><feFuncB type="discrete" tableValues="0 0"/><feFuncA type="linear" slope="0.501961" intercept="0"/></feComponentTransfer><feGaussianBlur stdDeviation="4.58333 4.58333"/></filter><filter id="fx1" x="-10%" y="-10%" width="120%" height="120%" filterUnits="userSpaceOnUse" primitiveUnits="userSpaceOnUse"><feComponentTransfer color-interpolation-filters="sRGB"><feFuncR type="discrete" tableValues="0 0"/><feFuncG type="discrete" tableValues="0 0"/><feFuncB type="discrete" tableValues="0 0"/><feFuncA type="linear" slope="0.501961" intercept="0"/></feComponentTransfer><feGaussianBlur stdDeviation="4.58333 4.58333"/></filter><clipPath id="clip2"><rect x="1657" y="20153" width="2106" height="1065"/></clipPath><clipPath id="clip3"><rect x="1825" y="20403" width="1885" height="662"/></clipPath><clipPath id="clip4"><rect x="1825" y="20403" width="1885" height="662"/></clipPath></defs><g clip-path="url(#clip2)" transform="translate(-1657 -20153)"><rect x="1658" y="20154" width="2103" height="1062" fill="#FFFFFF"/><g><path d="M2910.5 20403.5 2946.6 20403.5 2982.6 20403.5 3018.6 20403.5 3054.6 20403.5 3090.6 20403.5 3126.6 20403.5 3163.6 20403.5 3199.6 20403.5 3235.61 20403.5 3271.61 20403.5 3307.61 20403.5 3343.61 20403.5 3379.61 20403.5 3415.61 20403.5 3451.61 20403.5 3487.61 20403.5 3523.62 20403.5 3559.62 20403.5 3596.62 20403.5 3632.62 20403.5 3668.62 20403.5 3704.5 20403.5 3704.5 21062.5 3668.62 21062.5 3632.62 21062.5 3596.62 21062.5 3559.62 21062.5 3523.62 21062.5 3487.61 21062.5 3451.61 21062.5 3415.61 21062.5 3379.61 21062.5 3343.61 21062.5 3307.61 21062.5 3271.61 21062.5 3235.61 21062.5 3199.6 21062.5 3163.6 21062.5 3126.6 21062.5 3090.6 21062.5 3054.6 21062.5 3018.6 21062.5 2982.6 21062.5 2946.6 21062.5 2910.5 21062.5Z" stroke="#BFBFBF" stroke-width="3.4375" stroke-linejoin="round" stroke-miterlimit="10" stroke-opacity="0.501961" fill="#D9D9D9" fill-opacity="0.501961"/></g><g><path d="M1825.5 20798.5 3707.5 20798.5" stroke="#D9D9D9" stroke-width="3.4375" stroke-linejoin="round" stroke-miterlimit="10" fill="none" fill-rule="evenodd"/></g><g clip-path="url(#clip3)"><g filter="url(#fx0)" transform="translate(1814 20509)"><g><path d="M19.9817 287.545C32.0142 292.299 44.0467 298.828 56.0792 301.807 68.1116 304.786 80.1438 300.521 92.1766 305.419 104.209 310.317 116.242 339.035 128.274 331.195 140.307 323.355 152.339 262.449 164.372 258.38 176.404 254.309 188.437 291.941 200.469 306.775 212.502 321.609 224.534 350.972 236.567 347.385 248.599 343.798 260.632 293.192 272.665 285.255 284.697 277.317 296.73 299.545 308.762 299.76 320.795 299.973 332.827 288.434 344.86 286.538 356.892 284.642 368.925 286.462 380.957 288.385 392.99 290.308 405.022 300.507 417.055 298.075 429.087 295.643 441.119 278.327 453.152 273.793 465.185 269.258 477.217 258.041 489.25 270.871 501.283 283.701 513.315 342.997 525.348 350.774 537.38 358.551 549.413 327.926 561.445 317.531 573.478 307.137 585.51 297.579 597.542 288.407 609.575 279.236 621.607 254.086 633.64 262.5 645.673 270.914 657.705 339.066 669.738 338.893 681.77 338.719 693.802 272.093 705.835 261.459 717.868 250.824 729.9 279.301 741.933 275.086 753.966 270.872 765.998 236.718 778.031 236.172 790.063 235.626 802.095 254.361 814.128 271.812 826.16 289.262 838.193 339.994 850.226 340.874 858.299 341.464 878.25 312.84 886.323 277.089 898.356 223.807 910.388 0.982422 922.421 21.1816 934.453 41.3809 946.486 353.587 958.518 398.285 970.551 442.982 982.584 325.682 994.616 289.368 1006.65 253.054 1018.68 204.307 1030.71 180.4 1040.06 161.836 1057.47 122.778 1066.81 145.928 1078.84 175.74 1090.88 341.286 1102.91 359.272 1114.94 377.258 1126.97 247.468 1139.01 253.845 1151.04 260.222 1163.07 405.648 1175.1 397.536 1187.14 389.423 1199.17 214.646 1211.2 205.171 1223.23 195.696 1235.27 330.705 1247.3 340.685 1259.33 350.666 1271.36 271.31 1283.4 265.054 1295.43 258.797 1307.46 300.94 1319.49 303.146 1331.53 305.351 1343.56 273.436 1355.59 278.289 1367.62 283.141 1379.66 330.347 1391.69 332.262 1403.72 334.176 1415.75 293.022 1427.79 289.778 1439.82 286.534 1451.85 304.142 1463.88 312.798 1475.92 321.454 1493.97 336.893 1499.98 341.712" stroke="#FFB226" stroke-width="9" stroke-linecap="round" stroke-linejoin="round" stroke-miterlimit="10" fill="none"/></g></g></g><g clip-path="url(#clip4)"><g filter="url(#fx1)" transform="translate(1814 20640)"><g><path d="M19.9817 159.779C32.0142 152.58 44.0467 139.901 56.0792 138.184 68.1116 136.467 80.1438 146.231 92.1766 149.478 104.209 152.725 116.242 164.255 128.274 157.665 140.307 151.074 152.339 110.775 164.372 109.935 176.404 109.094 188.437 141.032 200.469 152.623 212.502 164.214 224.534 183.199 236.567 179.48 248.599 175.76 260.632 136.273 272.665 130.303 284.697 124.333 296.73 140.008 308.762 143.661 320.795 147.313 332.827 152.901 344.86 152.22 356.892 151.538 368.925 140.65 380.957 139.572 392.99 138.493 405.022 148.184 417.055 145.749 429.087 143.313 441.119 126.343 453.152 124.958 465.185 123.572 477.217 129.331 489.25 137.434 501.283 145.537 513.315 170.214 525.348 173.574 537.38 176.935 549.413 164.123 561.445 157.598 573.478 151.073 585.51 150.336 597.542 134.426 609.575 118.515 621.607 47.7352 633.64 62.1364 645.673 76.5372 657.705 207.205 669.738 220.831 681.77 234.457 693.802 159.211 705.835 143.894 717.868 128.576 729.9 136.037 741.933 128.925 753.966 121.813 765.998 98.2133 778.031 101.222 790.063 104.229 802.095 136.494 814.128 146.973 826.16 157.452 838.193 158.988 850.226 164.096 860.452 168.437 876.097 193.926 886.323 177.622 898.356 158.438 910.388 45.3755 922.421 48.9919 934.453 52.608 946.486 189.151 958.518 199.32 970.551 209.488 982.584 135.072 994.616 110.005 1006.65 84.9381 1018.68 46.1029 1030.71 48.9181 1042.75 51.733 1054.78 104.05 1066.81 126.895 1078.84 149.74 1090.88 203.731 1102.91 185.989 1114.94 168.246 1126.97 9.98242 1139.01 20.4424 1151.04 30.902 1163.07 245.511 1175.1 248.747 1187.14 251.982 1199.17 60.3334 1211.2 39.8568 1223.23 19.3797 1235.27 108.384 1247.3 125.886 1258.84 142.67 1271.86 132.191 1283.4 144.868 1295.43 158.085 1307.46 205.291 1319.49 205.193 1331.53 205.095 1343.56 155.578 1355.59 144.281 1367.62 132.985 1379.66 139.571 1391.69 137.414 1403.72 135.257 1415.75 131.733 1427.79 131.339 1439.82 130.944 1451.85 128.479 1463.88 135.045 1475.92 141.612 1493.97 164.788 1499.98 170.736" stroke="#000000" stroke-width="9" stroke-linecap="round" stroke-linejoin="round" stroke-miterlimit="10" fill="none"/></g></g></g><g><path d="M1827.5 20790.1C1839.53 20794.8 1851.56 20801.3 1863.6 20804.3 1875.63 20807.3 1887.66 20803 1899.69 20807.9 1911.73 20812.8 1923.76 20841.6 1935.79 20833.7 1947.83 20825.9 1959.86 20765 1971.89 20760.9 1983.92 20756.8 1995.96 20794.5 2007.99 20809.3 2020.02 20824.1 2032.05 20853.5 2044.08 20849.9 2056.12 20846.3 2068.15 20795.7 2080.18 20787.8 2092.22 20779.8 2104.25 20802.1 2116.28 20802.3 2128.31 20802.5 2140.34 20791 2152.38 20789.1 2164.41 20787.2 2176.44 20789 2188.48 20790.9 2200.51 20792.8 2212.54 20803 2224.57 20800.6 2236.61 20798.2 2248.64 20780.8 2260.67 20776.3 2272.7 20771.8 2284.74 20760.6 2296.77 20773.4 2308.8 20786.2 2320.83 20845.5 2332.87 20853.3 2344.9 20861.1 2356.93 20830.4 2368.96 20820 2381 20809.7 2393.03 20800.1 2405.06 20790.9 2417.09 20781.8 2429.13 20756.6 2441.16 20765 2453.19 20773.4 2465.22 20841.6 2477.26 20841.4 2489.29 20841.2 2501.32 20774.6 2513.35 20764 2525.39 20753.3 2537.42 20781.8 2549.45 20777.6 2561.48 20773.4 2573.52 20739.2 2585.55 20738.7 2597.58 20738.1 2609.61 20756.9 2621.65 20774.3 2633.68 20791.8 2645.71 20842.5 2657.74 20843.4 2665.82 20844 2685.77 20815.4 2693.84 20779.6 2705.87 20726.3 2717.91 20503.5 2729.94 20523.7 2741.97 20543.9 2754 20856.1 2766.04 20900.8 2778.07 20945.5 2790.1 20828.2 2802.13 20791.9 2814.17 20755.6 2826.2 20706.8 2838.23 20682.9 2847.58 20664.4 2864.99 20625.3 2874.33 20648.4 2886.36 20678.3 2898.39 20843.8 2910.43 20861.8 2922.46 20879.8 2934.49 20750 2946.52 20756.4 2958.56 20762.7 2970.59 20908.2 2982.62 20900.1 2994.65 20891.9 3006.69 20717.2 3018.72 20707.7 3030.75 20698.2 3042.78 20833.2 3054.82 20843.2 3066.85 20853.2 3078.88 20773.8 3090.91 20767.6 3102.95 20761.3 3114.98 20803.5 3127.01 20805.7 3139.04 20807.9 3151.08 20776 3163.11 20780.8 3175.14 20785.7 3187.17 20832.9 3199.21 20834.8 3211.24 20836.7 3223.27 20795.5 3235.3 20792.3 3247.34 20789.1 3259.37 20806.7 3271.4 20815.3 3283.44 20824 3301.48 20839.4 3307.5 20844.2" stroke="#FFB226" stroke-width="9.16667" stroke-linecap="round" stroke-linejoin="round" stroke-miterlimit="10" fill="none"/></g><g><path d="M1827.5 20793.3C1839.53 20786.1 1851.56 20773.4 1863.6 20771.7 1875.63 20770 1887.66 20779.7 1899.69 20783 1911.73 20786.2 1923.76 20797.8 1935.79 20791.2 1947.83 20784.6 1959.86 20744.3 1971.89 20743.5 1983.92 20742.6 1995.96 20774.5 2007.99 20786.1 2020.02 20797.7 2032.05 20816.7 2044.08 20813 2056.12 20809.3 2068.15 20769.8 2080.18 20763.8 2092.22 20757.8 2104.25 20773.5 2116.28 20777.2 2128.31 20780.8 2140.34 20786.4 2152.38 20785.7 2164.41 20785.1 2176.44 20774.2 2188.48 20773.1 2200.51 20772 2212.54 20781.7 2224.57 20779.3 2236.61 20776.8 2248.64 20759.9 2260.67 20758.5 2272.7 20757.1 2284.74 20762.8 2296.77 20771 2308.8 20779.1 2320.83 20803.7 2332.87 20807.1 2344.9 20810.5 2356.93 20797.6 2368.96 20791.1 2381 20784.6 2393.03 20783.9 2405.06 20767.9 2417.09 20752 2429.13 20681.3 2441.16 20695.7 2453.19 20710.1 2465.22 20840.7 2477.26 20854.3 2489.29 20868 2501.32 20792.7 2513.35 20777.4 2525.39 20762.1 2537.42 20769.6 2549.45 20762.4 2561.48 20755.3 2573.52 20731.7 2585.55 20734.7 2597.58 20737.7 2609.61 20770 2621.65 20780.5 2633.68 20791 2645.71 20792.5 2657.74 20797.6 2667.97 20802 2683.61 20827.4 2693.84 20811.1 2705.87 20792 2717.91 20678.9 2729.94 20682.5 2741.97 20686.1 2754 20822.7 2766.04 20832.8 2778.07 20843 2790.1 20768.6 2802.13 20743.5 2814.17 20718.5 2826.2 20679.6 2838.23 20682.4 2850.26 20685.2 2862.3 20737.6 2874.33 20760.4 2886.36 20783.3 2898.39 20837.2 2910.43 20819.5 2922.46 20801.8 2934.49 20643.5 2946.52 20654 2958.56 20664.4 2970.59 20879 2982.62 20882.3 2994.65 20885.5 3006.69 20693.9 3018.72 20673.4 3030.75 20652.9 3042.78 20741.9 3054.82 20759.4 3066.36 20776.2 3079.38 20765.7 3090.91 20778.4 3102.95 20791.6 3114.98 20838.8 3127.01 20838.7 3139.04 20838.6 3151.08 20789.1 3163.11 20777.8 3175.14 20766.5 3187.17 20773.1 3199.21 20770.9 3211.24 20768.8 3223.27 20765.2 3235.3 20764.9 3247.34 20764.5 3259.37 20762 3271.4 20768.6 3283.44 20775.1 3301.48 20798.3 3307.5 20804.3" stroke="#000000" stroke-width="9.16667" stroke-linecap="round" stroke-linejoin="round" stroke-miterlimit="10" fill="none"/></g><g><text font-family="Inter,Inter_MSFontService,sans-serif" font-weight="400" font-size="32" transform="matrix(1 0 0 1 1755.7 21072)">80</text></g><g><text font-family="Inter,Inter_MSFontService,sans-serif" font-weight="400" font-size="32" transform="matrix(1 0 0 1 1755.47 20940)">90</text></g><g><text font-family="Inter,Inter_MSFontService,sans-serif" font-weight="400" font-size="32" transform="matrix(1 0 0 1 1740.53 20809)">100</text></g><g><text font-family="Inter,Inter_MSFontService,sans-serif" font-weight="400" font-size="32" transform="matrix(1 0 0 1 1745.68 20677)">110</text></g><g><text font-family="Inter,Inter_MSFontService,sans-serif" font-weight="400" font-size="32" transform="matrix(1 0 0 1 1741.17 20545)">120</text></g><g><text font-family="Inter,Inter_MSFontService,sans-serif" font-weight="400" font-size="32" transform="matrix(1 0 0 1 1740.16 20413)">130</text></g><g><text font-family="Inter,Inter_MSFontService,sans-serif" font-weight="400" font-size="32" transform="matrix(0.707107 -0.707107 0.707107 0.707107 1803.3 21138)">6/1</text></g><g><text font-family="Inter,Inter_MSFontService,sans-serif" font-weight="400" font-size="32" transform="matrix(0.707107 -0.707107 0.707107 0.707107 1894.65 21154)">6/22</text></g><g><text font-family="Inter,Inter_MSFontService,sans-serif" font-weight="400" font-size="32" transform="matrix(0.707107 -0.707107 0.707107 0.707107 2006.59 21151)">7/13</text></g><g><text font-family="Inter,Inter_MSFontService,sans-serif" font-weight="400" font-size="32" transform="matrix(0.707107 -0.707107 0.707107 0.707107 2124.35 21141)">8/3</text></g><g><text font-family="Inter,Inter_MSFontService,sans-serif" font-weight="400" font-size="32" transform="matrix(0.707107 -0.707107 0.707107 0.707107 2218.76 21155)">8/24</text></g><g><text font-family="Inter,Inter_MSFontService,sans-serif" font-weight="400" font-size="32" transform="matrix(0.707107 -0.707107 0.707107 0.707107 2330.05 21152)">9/14</text></g><g><text font-family="Inter,Inter_MSFontService,sans-serif" font-weight="400" font-size="32" transform="matrix(0.707107 -0.707107 0.707107 0.707107 2439.06 21151)">10/5</text></g><g><text font-family="Inter,Inter_MSFontService,sans-serif" font-weight="400" font-size="32" transform="matrix(0.707107 -0.707107 0.707107 0.707107 2533.24 21165)">10/26</text></g><g><text font-family="Inter,Inter_MSFontService,sans-serif" font-weight="400" font-size="32" transform="matrix(0.707107 -0.707107 0.707107 0.707107 2648.35 21159)">11/16</text></g><g><text font-family="Inter,Inter_MSFontService,sans-serif" font-weight="400" font-size="32" transform="matrix(0.707107 -0.707107 0.707107 0.707107 2765.15 21150)">12/7</text></g><g><text font-family="Inter,Inter_MSFontService,sans-serif" font-weight="400" font-size="32" transform="matrix(0.707107 -0.707107 0.707107 0.707107 2858.65 21165)">12/28</text></g><g><text font-family="Inter,Inter_MSFontService,sans-serif" font-weight="400" font-size="32" transform="matrix(0.707107 -0.707107 0.707107 0.707107 2983.83 21148)">1/18</text></g><g><text font-family="Inter,Inter_MSFontService,sans-serif" font-weight="400" font-size="32" transform="matrix(0.707107 -0.707107 0.707107 0.707107 3099.44 21141)">2/8</text></g><g><text font-family="Inter,Inter_MSFontService,sans-serif" font-weight="400" font-size="32" transform="matrix(0.707107 -0.707107 0.707107 0.707107 3210.44 21138)">3/1</text></g><g><text font-family="Inter,Inter_MSFontService,sans-serif" font-weight="400" font-size="32" transform="matrix(0.707107 -0.707107 0.707107 0.707107 3301.78 21155)">3/22</text></g><g><text font-family="Inter,Inter_MSFontService,sans-serif" font-weight="400" font-size="32" transform="matrix(0.707107 -0.707107 0.707107 0.707107 3413.11 21152)">4/12</text></g><g><text font-family="Inter,Inter_MSFontService,sans-serif" font-weight="400" font-size="32" transform="matrix(0.707107 -0.707107 0.707107 0.707107 3531.97 21141)">5/3</text></g><g><text font-family="Inter,Inter_MSFontService,sans-serif" font-weight="400" font-size="32" transform="matrix(0.707107 -0.707107 0.707107 0.707107 3626.38 21155)">5/24</text></g><g><text font-family="Inter Medium,Inter Medium_MSFontService,sans-serif" font-weight="700" font-size="46" transform="matrix(1 0 0 1 1742.02 20244)">U.S. Hotel Occupancy and ADR Recovery Levels</text></g><g><path d="M1733.5 20339.5 1821.5 20339.5" stroke="#FFB226" stroke-width="9.16667" stroke-linecap="round" stroke-linejoin="round" stroke-miterlimit="10" fill="none" fill-rule="evenodd"/></g><g><text font-family="Inter Medium,Inter Medium_MSFontService,sans-serif" font-weight="500" font-size="37" transform="matrix(1 0 0 1 1830.61 20351)">Occ Index</text></g><g><path d="M2057.5 20339.5 2145.5 20339.5" stroke="#000000" stroke-width="9.16667" stroke-linecap="round" stroke-linejoin="round" stroke-miterlimit="10" fill="none" fill-rule="evenodd"/></g><g><text font-family="Inter Medium,Inter Medium_MSFontService,sans-serif" font-weight="500" font-size="37" transform="matrix(1 0 0 1 2155.16 20351)">ADR Index</text></g><rect x="1658.5" y="20154.5" width="2103" height="1062" stroke="#D9D9D9" stroke-width="3.4375" stroke-linejoin="round" stroke-miterlimit="10" fill="none"/><g><text fill="#7F7F7F" font-family="Inter,Inter_MSFontService,sans-serif" font-weight="400" font-size="32" transform="matrix(1 0 0 1 1739.76 20299)">Indexed to 2023, Source: STR, str.com</text></g><g><g><text font-family="Inter Medium,Inter Medium_MSFontService,sans-serif" font-weight="700" font-size="37" transform="matrix(1 0 0 1 2904.79 21188)">2025</text></g></g></g></svg>