<svg width="2106" height="1059" xmlns="http://www.w3.org/2000/svg" xmlns:xlink="http://www.w3.org/1999/xlink" xml:space="preserve" overflow="hidden"><defs><filter id="fx0" x="-10%" y="-10%" width="120%" height="120%" filterUnits="userSpaceOnUse" primitiveUnits="userSpaceOnUse"><feComponentTransfer color-interpolation-filters="sRGB"><feFuncR type="discrete" tableValues="0 0"/><feFuncG type="discrete" tableValues="0 0"/><feFuncB type="discrete" tableValues="0 0"/><feFuncA type="linear" slope="0.501961" intercept="0"/></feComponentTransfer><feGaussianBlur stdDeviation="4.58333 4.58333"/></filter><filter id="fx1" x="-10%" y="-10%" width="120%" height="120%" filterUnits="userSpaceOnUse" primitiveUnits="userSpaceOnUse"><feComponentTransfer color-interpolation-filters="sRGB"><feFuncR type="discrete" tableValues="0 0"/><feFuncG type="discrete" tableValues="0 0"/><feFuncB type="discrete" tableValues="0 0"/><feFuncA type="linear" slope="0.501961" intercept="0"/></feComponentTransfer><feGaussianBlur stdDeviation="4.58333 4.58333"/></filter><clipPath id="clip2"><rect x="1811" y="23263" width="2106" height="1059"/></clipPath><clipPath id="clip3"><rect x="1978" y="23512" width="1885" height="658"/></clipPath><clipPath id="clip4"><rect x="1978" y="23512" width="1885" height="658"/></clipPath></defs><g clip-path="url(#clip2)" transform="translate(-1811 -23263)"><rect x="1812" y="23264" width="2103" height="1056" fill="#FFFFFF"/><g><rect x="1979" y="23512" width="1882" height="655" fill="#F2F2F2"/></g><g><path d="M1978.5 23730.5 3860.5 23730.5" stroke="#D9D9D9" stroke-width="3.4375" stroke-linejoin="round" stroke-miterlimit="10" fill="none" fill-rule="evenodd"/></g><g clip-path="url(#clip3)"><g filter="url(#fx0)" transform="translate(1968 23619)"><g><path d="M19.9817 107.417C34.1968 120.147 48.4119 131.248 62.627 145.609 76.8417 159.969 91.0568 202.103 105.272 193.58 119.487 185.056 133.702 123.464 147.917 94.4668 162.132 65.4696 176.347 13.9824 190.562 19.5973 204.777 25.2121 218.992 110.661 233.207 128.156 242.966 140.166 266.094 105.504 275.853 124.567 290.068 152.334 304.283 292.54 318.498 294.761 332.712 296.982 346.928 175.296 361.143 137.896 375.334 100.559 389.597 65.4245 403.788 70.3606 418.003 75.3046 432.218 158.553 446.433 167.561 460.648 176.569 474.863 131.606 489.079 124.409 503.293 117.212 517.508 119.581 531.724 124.38 545.938 129.179 560.154 143.198 574.369 153.202 588.584 163.205 602.799 181.465 617.014 184.401 631.229 187.337 645.444 187.145 659.659 170.819 673.874 154.492 688.089 95.2579 702.304 86.441 716.519 77.6241 730.734 111.482 744.949 117.917 759.164 124.353 773.38 114.517 787.595 125.055 801.81 135.592 816.025 172.908 830.24 181.144 844.455 189.379 858.67 182.474 872.885 174.468 887.1 166.462 901.315 143.06 915.53 133.109 929.745 123.159 943.96 113.582 958.175 114.765 972.39 115.948 986.605 136.412 1000.82 140.208 1015.04 144.003 1029.25 137.391 1043.47 137.538 1057.68 137.684 1071.9 141.501 1086.11 141.084 1100.33 140.667 1114.54 138.265 1128.76 135.035 1142.97 131.805 1157.19 117.985 1171.4 121.702 1185.62 125.418 1199.83 153.731 1214.05 157.334 1228.26 160.937 1242.48 134.962 1256.69 143.318 1270.91 151.674 1285.12 201.142 1299.34 207.469 1313.55 213.796 1334.87 185.643 1341.98 181.278" stroke="#FFB226" stroke-width="9" stroke-linecap="round" stroke-linejoin="round" stroke-miterlimit="10" fill="none"/></g></g></g><g clip-path="url(#clip4)"><g filter="url(#fx1)" transform="translate(1968 23609)"><g><path d="M19.9817 72.0891C34.1968 74.1427 48.4119 67.336 62.627 78.2505 76.8417 89.1646 91.0568 136.473 105.272 137.575 119.487 138.677 133.702 96.9161 147.917 84.8605 162.132 72.8044 176.347 65.5289 190.562 65.2395 204.777 64.9497 218.992 78.3995 233.207 83.122 247.423 87.8441 261.638 84.7269 275.853 93.5738 290.068 102.42 304.283 148.251 318.498 136.202 332.712 124.154 346.928 32.5841 361.143 21.2834 375.358 9.98242 389.573 51.5868 403.788 68.3971 418.003 85.2069 432.218 119.364 446.433 122.144 460.648 124.925 474.863 92.9516 489.079 85.0795 503.293 77.2071 517.508 69.2398 531.724 74.911 545.938 80.5819 560.154 111.783 574.369 119.105 588.584 126.427 602.799 121.265 617.014 118.841 631.229 116.418 645.444 111.908 659.659 104.566 673.874 97.2229 688.089 71.9859 702.304 74.7858 716.519 77.5853 730.734 111.208 744.949 121.363 759.164 131.518 773.38 135.104 787.595 135.717 801.81 136.329 816.025 125.413 830.24 125.038 844.455 124.663 858.67 133.937 872.885 133.468 887.1 132.999 901.315 126.272 915.53 122.226 929.745 118.18 943.96 108.511 958.175 109.189 972.39 109.867 986.605 125.871 1000.82 126.295 1015.04 126.718 1029.25 112.138 1043.47 111.73 1057.68 111.322 1071.9 126.357 1086.11 123.845 1100.33 121.334 1114.54 95.6158 1128.76 96.6628 1142.97 97.7098 1157.19 126.397 1171.4 130.127 1185.62 133.857 1199.83 119.794 1214.05 119.041 1228.26 118.287 1242.48 116.084 1256.69 125.608 1270.91 135.133 1285.12 185.982 1299.34 176.188 1313.55 166.393 1334.87 85.0644 1341.98 66.8398" stroke="#000000" stroke-width="9" stroke-linecap="round" stroke-linejoin="round" stroke-miterlimit="10" fill="none"/></g></g></g><g><path d="M1981.5 23719.9C1995.71 23732.7 2009.93 23743.8 2024.15 23758.1 2038.36 23772.5 2052.57 23814.6 2066.79 23806.1 2081 23797.6 2095.22 23736 2109.44 23707 2123.65 23678 2137.87 23626.5 2152.08 23632.1 2166.3 23637.7 2180.51 23723.2 2194.73 23740.7 2204.48 23752.7 2227.61 23718 2237.37 23737.1 2251.59 23764.9 2265.8 23905.1 2280.02 23907.3 2294.23 23909.5 2308.45 23787.8 2322.66 23750.4 2336.85 23713.1 2351.12 23677.9 2365.31 23682.9 2379.52 23687.8 2393.74 23771.1 2407.95 23780.1 2422.17 23789.1 2436.38 23744.1 2450.6 23736.9 2464.81 23729.7 2479.03 23732.1 2493.24 23736.9 2507.46 23741.7 2521.67 23755.7 2535.89 23765.7 2550.1 23775.7 2564.32 23794 2578.53 23796.9 2592.75 23799.9 2606.96 23799.7 2621.18 23783.3 2635.39 23767 2649.61 23707.8 2663.82 23699 2678.04 23690.1 2692.25 23724 2706.47 23730.4 2720.68 23736.9 2734.9 23727 2749.11 23737.6 2763.33 23748.1 2777.54 23785.4 2791.76 23793.7 2805.97 23801.9 2820.19 23795 2834.4 23787 2848.62 23779 2862.83 23755.6 2877.05 23745.6 2891.26 23735.7 2905.48 23726.1 2919.69 23727.3 2933.91 23728.5 2948.12 23748.9 2962.34 23752.7 2976.55 23756.5 2990.77 23749.9 3004.98 23750.1 3019.2 23750.2 3033.41 23754 3047.63 23753.6 3061.84 23753.2 3076.06 23750.8 3090.27 23747.6 3104.49 23744.3 3118.7 23730.5 3132.92 23734.2 3147.13 23737.9 3161.35 23766.2 3175.56 23769.9 3189.78 23773.5 3203.99 23747.5 3218.21 23755.8 3232.42 23764.2 3246.64 23813.7 3260.85 23820 3275.07 23826.3 3296.39 23798.2 3303.5 23793.8" stroke="#FFB226" stroke-width="9.16667" stroke-linecap="round" stroke-linejoin="round" stroke-miterlimit="10" fill="none"/></g><g><path d="M1981.5 23674.6C1995.71 23676.7 2009.93 23669.9 2024.15 23680.8 2038.36 23691.7 2052.57 23739 2066.79 23740.1 2081 23741.2 2095.22 23699.4 2109.44 23687.4 2123.65 23675.3 2137.87 23668 2152.08 23667.8 2166.3 23667.5 2180.51 23680.9 2194.73 23685.6 2208.94 23690.4 2223.16 23687.2 2237.37 23696.1 2251.59 23704.9 2265.8 23750.8 2280.02 23738.7 2294.23 23726.7 2308.45 23635.1 2322.66 23623.8 2336.88 23612.5 2351.09 23654.1 2365.31 23670.9 2379.52 23687.7 2393.74 23721.9 2407.95 23724.7 2422.17 23727.4 2436.38 23695.5 2450.6 23687.6 2464.81 23679.7 2479.03 23671.8 2493.24 23677.4 2507.46 23683.1 2521.67 23714.3 2535.89 23721.6 2550.1 23728.9 2564.32 23723.8 2578.53 23721.4 2592.75 23718.9 2606.96 23714.4 2621.18 23707.1 2635.39 23699.7 2649.61 23674.5 2663.82 23677.3 2678.04 23680.1 2692.25 23713.7 2706.47 23723.9 2720.68 23734 2734.9 23737.6 2749.11 23738.2 2763.33 23738.8 2777.54 23727.9 2791.76 23727.6 2805.97 23727.2 2820.19 23736.5 2834.4 23736 2848.62 23735.5 2862.83 23728.8 2877.05 23724.7 2891.26 23720.7 2905.48 23711 2919.69 23711.7 2933.91 23712.4 2948.12 23728.4 2962.34 23728.8 2976.55 23729.2 2990.77 23714.7 3004.98 23714.2 3019.2 23713.8 3033.41 23728.9 3047.63 23726.4 3061.84 23723.9 3076.06 23698.1 3090.27 23699.2 3104.49 23700.2 3118.7 23728.9 3132.92 23732.6 3147.13 23736.4 3161.35 23722.3 3175.56 23721.6 3189.78 23720.8 3203.99 23718.6 3218.21 23728.1 3232.42 23737.7 3246.64 23788.5 3260.85 23778.7 3275.07 23768.9 3296.39 23687.6 3303.5 23669.4" stroke="#000000" stroke-width="9.16667" stroke-linecap="round" stroke-linejoin="round" stroke-miterlimit="10" fill="none"/></g><g><text font-family="Inter,Inter_MSFontService,sans-serif" font-weight="400" font-size="32" transform="matrix(1 0 0 1 1909.24 24177)">80</text></g><g><text font-family="Inter,Inter_MSFontService,sans-serif" font-weight="400" font-size="32" transform="matrix(1 0 0 1 1909.01 23959)">90</text></g><g><text font-family="Inter,Inter_MSFontService,sans-serif" font-weight="400" font-size="32" transform="matrix(1 0 0 1 1894.07 23740)">100</text></g><g><text font-family="Inter,Inter_MSFontService,sans-serif" font-weight="400" font-size="32" transform="matrix(1 0 0 1 1899.22 23522)">110</text></g><g><text font-family="Inter,Inter_MSFontService,sans-serif" font-weight="400" font-size="32" transform="matrix(0.707107 -0.707107 0.707107 0.707107 1957.02 24243)">3/1</text></g><g><text font-family="Inter,Inter_MSFontService,sans-serif" font-weight="400" font-size="32" transform="matrix(0.707107 -0.707107 0.707107 0.707107 2067.99 24260)">3/22</text></g><g><text font-family="Inter,Inter_MSFontService,sans-serif" font-weight="400" font-size="32" transform="matrix(0.707107 -0.707107 0.707107 0.707107 2198.93 24257)">4/12</text></g><g><text font-family="Inter,Inter_MSFontService,sans-serif" font-weight="400" font-size="32" transform="matrix(0.707107 -0.707107 0.707107 0.707107 2337.41 24246)">5/3</text></g><g><text font-family="Inter,Inter_MSFontService,sans-serif" font-weight="400" font-size="32" transform="matrix(0.707107 -0.707107 0.707107 0.707107 2451.44 24260)">5/24</text></g><g><text font-family="Inter,Inter_MSFontService,sans-serif" font-weight="400" font-size="32" transform="matrix(0.707107 -0.707107 0.707107 0.707107 2582.16 24257)">6/14</text></g><g><text font-family="Inter,Inter_MSFontService,sans-serif" font-weight="400" font-size="32" transform="matrix(0.707107 -0.707107 0.707107 0.707107 2722.56 24245)">7/5</text></g><g><text font-family="Inter,Inter_MSFontService,sans-serif" font-weight="400" font-size="32" transform="matrix(0.707107 -0.707107 0.707107 0.707107 2836.36 24259)">7/26</text></g><g><text font-family="Inter,Inter_MSFontService,sans-serif" font-weight="400" font-size="32" transform="matrix(0.707107 -0.707107 0.707107 0.707107 2966.4 24257)">8/16</text></g><g><text font-family="Inter,Inter_MSFontService,sans-serif" font-weight="400" font-size="32" transform="matrix(0.707107 -0.707107 0.707107 0.707107 3104.66 24246)">9/6</text></g><g><text font-family="Inter,Inter_MSFontService,sans-serif" font-weight="400" font-size="32" transform="matrix(0.707107 -0.707107 0.707107 0.707107 3220.01 24259)">9/27</text></g><g><text font-family="Inter,Inter_MSFontService,sans-serif" font-weight="400" font-size="32" transform="matrix(0.707107 -0.707107 0.707107 0.707107 3339.49 24267)">10/18</text></g><g><text font-family="Inter,Inter_MSFontService,sans-serif" font-weight="400" font-size="32" transform="matrix(0.707107 -0.707107 0.707107 0.707107 3481.55 24253)">11/8</text></g><g><text font-family="Inter,Inter_MSFontService,sans-serif" font-weight="400" font-size="32" transform="matrix(0.707107 -0.707107 0.707107 0.707107 3595.55 24267)">11/29</text></g><g><text font-family="Inter,Inter_MSFontService,sans-serif" font-weight="400" font-size="32" transform="matrix(0.707107 -0.707107 0.707107 0.707107 3720.21 24270)">12/20</text></g><g><text font-family="Inter Medium,Inter Medium_MSFontService,sans-serif" font-weight="700" font-size="46" transform="matrix(1 0 0 1 1895.56 23354)">U.S. Hotel Occupancy and ADR Recovery Levels</text></g><g><path d="M1886.5 23448.5 1974.5 23448.5" stroke="#FFB226" stroke-width="9.16667" stroke-linecap="round" stroke-linejoin="round" stroke-miterlimit="10" fill="none" fill-rule="evenodd"/></g><g><text font-family="Inter Medium,Inter Medium_MSFontService,sans-serif" font-weight="500" font-size="37" transform="matrix(1 0 0 1 1984.15 23460)">Occ Index</text></g><g><path d="M2211.5 23448.5 2299.5 23448.5" stroke="#000000" stroke-width="9.16667" stroke-linecap="round" stroke-linejoin="round" stroke-miterlimit="10" fill="none" fill-rule="evenodd"/></g><g><text font-family="Inter Medium,Inter Medium_MSFontService,sans-serif" font-weight="500" font-size="37" transform="matrix(1 0 0 1 2308.7 23460)">ADR Index</text></g><rect x="1812.5" y="23264.5" width="2103" height="1056" stroke="#D9D9D9" stroke-width="3.4375" stroke-linejoin="round" stroke-miterlimit="10" fill="none"/><g><text fill="#7F7F7F" font-family="Inter,Inter_MSFontService,sans-serif" font-weight="400" font-size="32" transform="matrix(1 0 0 1 1893.3 23408)">YOY, Source: STR, str.com</text></g></g></svg>