<svg width="2103" height="1058" xmlns="http://www.w3.org/2000/svg" xmlns:xlink="http://www.w3.org/1999/xlink" xml:space="preserve" overflow="hidden"><defs><filter id="fx0" x="-10%" y="-10%" width="120%" height="120%" filterUnits="userSpaceOnUse" primitiveUnits="userSpaceOnUse"><feComponentTransfer color-interpolation-filters="sRGB"><feFuncR type="discrete" tableValues="0 0"/><feFuncG type="discrete" tableValues="0 0"/><feFuncB type="discrete" tableValues="0 0"/><feFuncA type="linear" slope="0.501961" intercept="0"/></feComponentTransfer><feGaussianBlur stdDeviation="4.58333 4.58333"/></filter><filter id="fx1" x="-10%" y="-10%" width="120%" height="120%" filterUnits="userSpaceOnUse" primitiveUnits="userSpaceOnUse"><feComponentTransfer color-interpolation-filters="sRGB"><feFuncR type="discrete" tableValues="0 0"/><feFuncG type="discrete" tableValues="0 0"/><feFuncB type="discrete" tableValues="0 0"/><feFuncA type="linear" slope="0.501961" intercept="0"/></feComponentTransfer><feGaussianBlur stdDeviation="4.58333 4.58333"/></filter><clipPath id="clip2"><rect x="1655" y="20031" width="2103" height="1058"/></clipPath><clipPath id="clip3"><rect x="1822" y="20279" width="1883" height="658"/></clipPath><clipPath id="clip4"><rect x="1822" y="20279" width="1883" height="658"/></clipPath></defs><g clip-path="url(#clip2)" transform="translate(-1655 -20031)"><rect x="1656" y="20032" width="2100" height="1055" fill="#FFFFFF"/><g><path d="M1991.5 20279.5 2046.57 20279.5 2101.57 20279.5 2156.57 20279.5 2211.57 20279.5 2266.57 20279.5 2321.58 20279.5 2376.58 20279.5 2432.58 20279.5 2487.58 20279.5 2542.58 20279.5 2597.59 20279.5 2652.59 20279.5 2707.59 20279.5 2762.59 20279.5 2817.59 20279.5 2872.59 20279.5 2927.6 20279.5 2982.6 20279.5 3037.6 20279.5 3092.6 20279.5 3147.6 20279.5 3202.61 20279.5 3257.61 20279.5 3312.61 20279.5 3367.61 20279.5 3422.61 20279.5 3477.61 20279.5 3532.62 20279.5 3587.62 20279.5 3642.62 20279.5 3697.5 20279.5 3697.5 20934.5 3642.62 20934.5 3587.62 20934.5 3532.62 20934.5 3477.61 20934.5 3422.61 20934.5 3367.61 20934.5 3312.61 20934.5 3257.61 20934.5 3202.61 20934.5 3147.6 20934.5 3092.6 20934.5 3037.6 20934.5 2982.6 20934.5 2927.6 20934.5 2872.59 20934.5 2817.59 20934.5 2762.59 20934.5 2707.59 20934.5 2652.59 20934.5 2597.59 20934.5 2542.58 20934.5 2487.58 20934.5 2432.58 20934.5 2376.58 20934.5 2321.58 20934.5 2266.57 20934.5 2211.57 20934.5 2156.57 20934.5 2101.57 20934.5 2046.57 20934.5 1991.5 20934.5Z" stroke="#BFBFBF" stroke-width="3.4375" stroke-linejoin="round" stroke-miterlimit="10" stroke-opacity="0.501961" fill="#D9D9D9" fill-opacity="0.501961"/></g><g><path d="M1822.5 20606.5 3701.5 20606.5" stroke="#D9D9D9" stroke-width="3.4375" stroke-linejoin="round" stroke-miterlimit="10" fill="none" fill-rule="evenodd"/></g><g clip-path="url(#clip3)"><g filter="url(#fx0)" transform="translate(1813 20398)"><g><path d="M19.9817 206.898C38.3308 161.89 56.6796 101.498 75.0291 71.8745 90.5152 46.8734 114.591-2.01758 130.077 29.1589 148.426 66.0992 166.775 271.23 185.124 293.517 203.474 315.804 221.823 154.979 240.172 162.881 258.521 170.783 276.87 350.982 295.22 340.93 313.569 330.878 331.918 114.309 350.267 102.568 368.617 90.8272 386.965 258.119 405.315 270.486 423.664 282.853 442.013 184.522 460.363 176.77 478.712 169.017 497.061 221.237 515.41 223.97 533.759 226.703 552.108 187.156 570.458 193.169 588.807 199.182 607.156 257.675 625.505 260.048 643.855 262.421 662.204 211.425 680.553 207.406 698.902 203.386 717.251 225.205 735.601 235.93 753.95 246.655 772.299 278.124 790.648 271.758 808.998 265.392 827.346 219.391 845.696 197.734 864.045 176.077 882.394 137.622 900.744 141.816 919.093 146.01 937.442 209.829 955.791 222.895 974.032 235.884 992.597 199.598 1010.84 220.214 1029.19 240.953 1047.54 345.668 1065.89 347.327 1084.24 348.986 1102.58 258.102 1120.93 230.17 1139.28 202.236 1166.81 188.136 1175.98 179.73" stroke="#FFB226" stroke-width="9" stroke-linecap="round" stroke-linejoin="round" stroke-miterlimit="10" fill="none"/></g></g></g><g clip-path="url(#clip4)"><g filter="url(#fx1)" transform="translate(1813 20414)"><g><path d="M19.9817 131.391C38.3308 106.064 56.6796 51.9088 75.0291 55.4101 93.3783 58.9114 111.727 123.983 130.077 152.398 148.426 180.813 166.775 247.966 185.124 225.899 203.474 203.831 221.823 6.98242 240.172 19.9923 258.521 33.0019 276.87 299.933 295.22 303.958 313.569 307.982 331.918 69.6086 350.267 44.1397 368.617 18.6703 386.965 129.373 405.315 151.142 423.664 172.911 442.013 158.312 460.363 174.752 478.712 191.192 497.061 249.907 515.41 249.786 533.759 249.664 552.108 188.073 570.458 174.023 588.807 159.972 607.156 168.165 625.505 165.482 643.855 162.799 662.204 158.416 680.553 157.925 698.902 157.434 717.251 154.369 735.601 162.536 753.95 170.703 772.299 206.103 790.648 206.928 808.998 207.752 827.346 176.503 845.696 167.482 864.045 158.46 882.394 153.016 900.744 152.8 919.093 152.583 937.442 162.647 955.791 166.181 974.14 169.714 992.489 167.382 1010.84 174.002 1029.19 180.622 1047.54 214.916 1065.89 205.901 1084.24 196.885 1102.58 128.364 1120.93 119.908 1139.28 111.451 1166.81 149.287 1175.98 155.163" stroke="#000000" stroke-width="9" stroke-linecap="round" stroke-linejoin="round" stroke-miterlimit="10" fill="none"/></g></g></g><g><path d="M1826.5 20598.4C1844.85 20553.4 1863.2 20493 1881.55 20463.4 1897.03 20438.4 1921.11 20389.5 1936.6 20420.7 1954.94 20457.6 1973.29 20662.7 1991.64 20685 2009.99 20707.3 2028.34 20546.5 2046.69 20554.4 2065.04 20562.3 2083.39 20742.5 2101.74 20732.4 2120.09 20722.4 2138.44 20505.8 2156.79 20494.1 2175.13 20482.3 2193.48 20649.6 2211.83 20662 2230.18 20674.4 2248.53 20576 2266.88 20568.3 2285.23 20560.5 2303.58 20612.8 2321.93 20615.5 2340.28 20618.2 2358.63 20578.7 2376.98 20584.7 2395.33 20590.7 2413.67 20649.2 2432.02 20651.6 2450.37 20653.9 2468.72 20602.9 2487.07 20598.9 2505.42 20594.9 2523.77 20616.7 2542.12 20627.4 2560.47 20638.2 2578.82 20669.6 2597.17 20663.3 2615.52 20656.9 2633.86 20610.9 2652.21 20589.3 2670.56 20567.6 2688.91 20529.1 2707.26 20533.3 2725.61 20537.5 2743.96 20601.3 2762.31 20614.4 2780.55 20627.4 2799.12 20591.1 2817.36 20611.7 2835.71 20632.5 2854.06 20737.2 2872.4 20738.8 2890.75 20740.5 2909.1 20649.6 2927.45 20621.7 2945.8 20593.8 2973.32 20579.7 2982.5 20571.2" stroke="#FFB226" stroke-width="9.16667" stroke-linecap="round" stroke-linejoin="round" stroke-miterlimit="10" fill="none"/></g><g><path d="M1826.5 20538.9C1844.85 20513.6 1863.2 20459.4 1881.55 20462.9 1899.9 20466.4 1918.25 20531.5 1936.6 20559.9 1954.94 20588.3 1973.29 20655.5 1991.64 20633.4 2009.99 20611.3 2028.34 20414.5 2046.69 20427.5 2065.04 20440.5 2083.39 20707.5 2101.74 20711.5 2120.09 20715.5 2138.44 20477.1 2156.79 20451.7 2175.13 20426.2 2193.48 20536.9 2211.83 20558.7 2230.18 20580.4 2248.53 20565.8 2266.88 20582.3 2285.23 20598.7 2303.58 20657.4 2321.93 20657.3 2340.28 20657.2 2358.63 20595.6 2376.98 20581.5 2395.33 20567.5 2413.67 20575.7 2432.02 20573 2450.37 20570.3 2468.72 20565.9 2487.07 20565.4 2505.42 20565 2523.77 20561.9 2542.12 20570.1 2560.47 20578.2 2578.82 20613.6 2597.17 20614.4 2615.52 20615.3 2633.86 20584 2652.21 20575 2670.56 20566 2688.91 20560.5 2707.26 20560.3 2725.61 20560.1 2743.96 20570.2 2762.31 20573.7 2780.66 20577.2 2799.01 20574.9 2817.36 20581.5 2835.71 20588.1 2854.06 20622.4 2872.4 20613.4 2890.75 20604.4 2909.1 20535.9 2927.45 20527.4 2945.8 20519 2973.32 20556.8 2982.5 20562.7" stroke="#000000" stroke-width="9.16667" stroke-linecap="round" stroke-linejoin="round" stroke-miterlimit="10" fill="none"/></g><g><text font-family="Inter,Inter_MSFontService,sans-serif" font-weight="400" font-size="32" transform="matrix(1 0 0 1 1753.23 20944)">80</text></g><g><text font-family="Inter,Inter_MSFontService,sans-serif" font-weight="400" font-size="32" transform="matrix(1 0 0 1 1753 20781)">90</text></g><g><text font-family="Inter,Inter_MSFontService,sans-serif" font-weight="400" font-size="32" transform="matrix(1 0 0 1 1738.06 20617)">100</text></g><g><text font-family="Inter,Inter_MSFontService,sans-serif" font-weight="400" font-size="32" transform="matrix(1 0 0 1 1743.22 20453)">110</text></g><g><text font-family="Inter,Inter_MSFontService,sans-serif" font-weight="400" font-size="32" transform="matrix(1 0 0 1 1738.7 20290)">120</text></g><g><text font-family="Inter,Inter_MSFontService,sans-serif" font-weight="400" font-size="32" transform="matrix(0.707107 -0.707107 0.707107 0.707107 1789.66 21022)">12/7</text></g><g><text font-family="Inter,Inter_MSFontService,sans-serif" font-weight="400" font-size="32" transform="matrix(0.707107 -0.707107 0.707107 0.707107 1939.99 21037)">12/28</text></g><g><text font-family="Inter,Inter_MSFontService,sans-serif" font-weight="400" font-size="32" transform="matrix(0.707107 -0.707107 0.707107 0.707107 2122 21020)">1/18</text></g><g><text font-family="Inter,Inter_MSFontService,sans-serif" font-weight="400" font-size="32" transform="matrix(0.707107 -0.707107 0.707107 0.707107 2294.43 21013)">2/8</text></g><g><text font-family="Inter,Inter_MSFontService,sans-serif" font-weight="400" font-size="32" transform="matrix(0.707107 -0.707107 0.707107 0.707107 2462.26 21010)">3/1</text></g><g><text font-family="Inter,Inter_MSFontService,sans-serif" font-weight="400" font-size="32" transform="matrix(0.707107 -0.707107 0.707107 0.707107 2610.44 21027)">3/22</text></g><g><text font-family="Inter,Inter_MSFontService,sans-serif" font-weight="400" font-size="32" transform="matrix(0.707107 -0.707107 0.707107 0.707107 2778.59 21024)">4/12</text></g><g><text font-family="Inter,Inter_MSFontService,sans-serif" font-weight="400" font-size="32" transform="matrix(0.707107 -0.707107 0.707107 0.707107 2954.28 21013)">5/3</text></g><g><text font-family="Inter,Inter_MSFontService,sans-serif" font-weight="400" font-size="32" transform="matrix(0.707107 -0.707107 0.707107 0.707107 3105.52 21027)">5/24</text></g><g><text font-family="Inter,Inter_MSFontService,sans-serif" font-weight="400" font-size="32" transform="matrix(0.707107 -0.707107 0.707107 0.707107 3273.45 21024)">6/14</text></g><g><text font-family="Inter,Inter_MSFontService,sans-serif" font-weight="400" font-size="32" transform="matrix(0.707107 -0.707107 0.707107 0.707107 3451.05 21012)">7/5</text></g><g><text font-family="Inter,Inter_MSFontService,sans-serif" font-weight="400" font-size="32" transform="matrix(0.707107 -0.707107 0.707107 0.707107 3602.06 21026)">7/26</text></g><g><text font-family="Inter Medium,Inter Medium_MSFontService,sans-serif" font-weight="700" font-size="46" transform="matrix(1 0 0 1 1739.7 20121)">U.S. Hotel Occupancy and ADR Recovery Levels</text></g><g><path d="M1730.5 20215.5 1818.5 20215.5" stroke="#FFB226" stroke-width="9.16667" stroke-linecap="round" stroke-linejoin="round" stroke-miterlimit="10" fill="none" fill-rule="evenodd"/></g><g><text font-family="Inter Medium,Inter Medium_MSFontService,sans-serif" font-weight="500" font-size="37" transform="matrix(1 0 0 1 1828.02 20228)">Occ Index</text></g><g><path d="M2054.5 20215.5 2142.5 20215.5" stroke="#000000" stroke-width="9.16667" stroke-linecap="round" stroke-linejoin="round" stroke-miterlimit="10" fill="none" fill-rule="evenodd"/></g><g><text font-family="Inter Medium,Inter Medium_MSFontService,sans-serif" font-weight="500" font-size="37" transform="matrix(1 0 0 1 2152.23 20228)">ADR Index</text></g><rect x="1656.5" y="20032.5" width="2100" height="1055" stroke="#D9D9D9" stroke-width="3.4375" stroke-linejoin="round" stroke-miterlimit="10" fill="none"/><g><text fill="#7F7F7F" font-family="Inter,Inter_MSFontService,sans-serif" font-weight="400" font-size="32" transform="matrix(1 0 0 1 1737.48 20176)">YOY, Source: STR, str.com</text></g><g><g><text font-family="Inter Medium,Inter Medium_MSFontService,sans-serif" font-weight="700" font-size="37" transform="matrix(1 0 0 1 2050.78 21060)">2025</text></g></g></g></svg>