<svg width="2106" height="1059" xmlns="http://www.w3.org/2000/svg" xmlns:xlink="http://www.w3.org/1999/xlink" xml:space="preserve" overflow="hidden"><defs><filter id="fx0" x="-10%" y="-10%" width="120%" height="120%" filterUnits="userSpaceOnUse" primitiveUnits="userSpaceOnUse"><feComponentTransfer color-interpolation-filters="sRGB"><feFuncR type="discrete" tableValues="0 0"/><feFuncG type="discrete" tableValues="0 0"/><feFuncB type="discrete" tableValues="0 0"/><feFuncA type="linear" slope="0.501961" intercept="0"/></feComponentTransfer><feGaussianBlur stdDeviation="4.58333 4.58333"/></filter><filter id="fx1" x="-10%" y="-10%" width="120%" height="120%" filterUnits="userSpaceOnUse" primitiveUnits="userSpaceOnUse"><feComponentTransfer color-interpolation-filters="sRGB"><feFuncR type="discrete" tableValues="0 0"/><feFuncG type="discrete" tableValues="0 0"/><feFuncB type="discrete" tableValues="0 0"/><feFuncA type="linear" slope="0.501961" intercept="0"/></feComponentTransfer><feGaussianBlur stdDeviation="4.58333 4.58333"/></filter><clipPath id="clip2"><rect x="1811" y="23263" width="2106" height="1059"/></clipPath><clipPath id="clip3"><rect x="1978" y="23512" width="1885" height="658"/></clipPath><clipPath id="clip4"><rect x="1978" y="23512" width="1885" height="658"/></clipPath></defs><g clip-path="url(#clip2)" transform="translate(-1811 -23263)"><rect x="1812" y="23264" width="2103" height="1056" fill="#FFFFFF"/><g><rect x="1979" y="23512" width="1882" height="655" fill="#F2F2F2"/></g><g><path d="M1978.5 23730.5 3860.5 23730.5" stroke="#D9D9D9" stroke-width="3.4375" stroke-linejoin="round" stroke-miterlimit="10" fill="none" fill-rule="evenodd"/></g><g clip-path="url(#clip3)"><g filter="url(#fx0)" transform="translate(1970 23685)"><g><path d="M19.9817 118.625C40.7884 114.103 61.5955 121.366 82.4026 105.06 103.209 88.7533 124.016 29.594 144.824 20.7882 165.63 11.9824 186.438 45.7971 207.245 52.2249 228.052 58.6524 248.859 48.8287 269.666 59.3534 290.472 69.8776 311.28 107.146 332.087 115.371 352.894 123.596 373.701 116.7 394.508 108.705 415.315 100.709 436.122 77.3353 456.929 67.3975 477.736 57.4595 498.543 47.895 519.35 49.0767 540.157 50.2581 560.964 70.6963 581.771 74.487 602.578 78.2774 623.385 71.6741 644.192 71.8203 664.999 71.9661 685.806 75.7792 706.613 75.3627 727.42 74.9461 748.227 72.5472 769.034 69.3211 789.841 66.0945 810.648 52.2928 831.455 56.0048 852.262 59.7165 873.069 87.9935 893.876 91.5918 914.683 95.1898 935.491 69.2478 956.298 77.5933 977.104 85.9386 997.911 135.345 1018.72 141.664 1039.53 147.982 1060.33 124.197 1081.14 115.506 1101.95 106.815 1122.75 91.7553 1143.56 89.5199 1164.37 87.2842 1195.58 99.9976 1205.98 102.093" stroke="#FFB226" stroke-width="9" stroke-linecap="round" stroke-linejoin="round" stroke-miterlimit="10" fill="none"/></g></g></g><g clip-path="url(#clip4)"><g filter="url(#fx1)" transform="translate(1970 23646)"><g><path d="M19.9817 81.887C40.7884 77.1313 61.5955 74.9583 82.4026 67.6207 103.209 60.283 124.016 35.0631 144.824 37.8611 165.63 40.6587 186.438 74.2586 207.245 84.4069 228.052 94.5552 248.859 98.1384 269.666 98.7508 290.472 99.3628 311.28 88.4539 332.087 88.0795 352.894 87.7048 373.701 96.972 394.508 96.5039 415.315 96.0354 436.122 89.313 456.929 85.2693 477.736 81.2255 498.543 71.5638 519.35 72.2415 540.157 72.9188 560.964 88.9116 581.771 89.335 602.578 89.7581 623.385 75.1884 644.192 74.7805 664.999 74.3726 685.806 89.397 706.613 86.8876 727.42 84.3777 748.227 58.677 769.034 59.7233 789.841 60.7696 810.648 89.4378 831.455 93.1652 852.262 96.8923 873.069 82.8384 893.876 82.0861 914.683 81.3334 935.491 79.1312 956.298 88.6494 977.104 98.1672 997.911 148.983 1018.72 139.195 1039.53 129.406 1060.33 48.858 1081.14 29.9204 1101.95 10.9824 1122.75 22.4395 1143.56 25.5679 1164.37 28.6963 1195.58 44.8366 1205.98 48.6906" stroke="#000000" stroke-width="9" stroke-linecap="round" stroke-linejoin="round" stroke-miterlimit="10" fill="none"/></g></g></g><g><path d="M1983.5 23797.1C2004.31 23792.6 2025.11 23799.9 2045.92 23783.6 2066.73 23767.3 2087.53 23708.1 2108.34 23699.3 2129.15 23690.5 2149.96 23724.3 2170.76 23730.7 2191.57 23737.2 2212.38 23727.3 2233.18 23737.9 2253.99 23748.4 2274.8 23785.7 2295.61 23793.9 2316.41 23802.1 2337.22 23795.2 2358.03 23787.2 2378.83 23779.2 2399.64 23755.9 2420.45 23745.9 2441.25 23736 2462.06 23726.4 2482.87 23727.6 2503.68 23728.8 2524.48 23749.2 2545.29 23753 2566.1 23756.8 2586.9 23750.2 2607.71 23750.3 2628.52 23750.5 2649.32 23754.3 2670.13 23753.9 2690.94 23753.5 2711.75 23751.1 2732.55 23747.8 2753.36 23744.6 2774.17 23730.8 2794.97 23734.5 2815.78 23738.2 2836.59 23766.5 2857.39 23770.1 2878.2 23773.7 2899.01 23747.8 2919.82 23756.1 2940.62 23764.5 2961.43 23813.9 2982.24 23820.2 3003.04 23826.5 3023.85 23802.7 3044.66 23794 3065.46 23785.3 3086.27 23770.3 3107.08 23768 3127.89 23765.8 3159.1 23778.5 3169.5 23780.6" stroke="#FFB226" stroke-width="9.16667" stroke-linecap="round" stroke-linejoin="round" stroke-miterlimit="10" fill="none"/></g><g><path d="M1983.5 23721.4C2004.31 23716.6 2025.11 23714.5 2045.92 23707.1 2066.73 23699.8 2087.53 23674.6 2108.34 23677.4 2129.15 23680.2 2149.96 23713.8 2170.76 23723.9 2191.57 23734.1 2212.38 23737.7 2233.18 23738.3 2253.99 23738.9 2274.8 23728 2295.61 23727.6 2316.41 23727.2 2337.22 23736.5 2358.03 23736 2378.83 23735.6 2399.64 23728.8 2420.45 23724.8 2441.25 23720.7 2462.06 23711.1 2482.87 23711.8 2503.68 23712.4 2524.48 23728.4 2545.29 23728.9 2566.1 23729.3 2586.9 23714.7 2607.71 23714.3 2628.52 23713.9 2649.32 23728.9 2670.13 23726.4 2690.94 23723.9 2711.75 23698.2 2732.55 23699.2 2753.36 23700.3 2774.17 23729 2794.97 23732.7 2815.78 23736.4 2836.59 23722.4 2857.39 23721.6 2878.2 23720.9 2899.01 23718.6 2919.82 23728.2 2940.62 23737.7 2961.43 23788.5 2982.24 23778.7 3003.04 23768.9 3023.85 23688.4 3044.66 23669.4 3065.46 23650.5 3086.27 23662 3107.08 23665.1 3127.89 23668.2 3159.1 23684.4 3169.5 23688.2" stroke="#000000" stroke-width="9.16667" stroke-linecap="round" stroke-linejoin="round" stroke-miterlimit="10" fill="none"/></g><g><text font-family="Inter,Inter_MSFontService,sans-serif" font-weight="400" font-size="32" transform="matrix(1 0 0 1 1909.24 24177)">80</text></g><g><text font-family="Inter,Inter_MSFontService,sans-serif" font-weight="400" font-size="32" transform="matrix(1 0 0 1 1909.01 23959)">90</text></g><g><text font-family="Inter,Inter_MSFontService,sans-serif" font-weight="400" font-size="32" transform="matrix(1 0 0 1 1894.07 23740)">100</text></g><g><text font-family="Inter,Inter_MSFontService,sans-serif" font-weight="400" font-size="32" transform="matrix(1 0 0 1 1899.22 23522)">110</text></g><g><text font-family="Inter,Inter_MSFontService,sans-serif" font-weight="400" font-size="32" transform="matrix(0.707107 -0.707107 0.707107 0.707107 1956.31 24245)">6/7</text></g><g><text font-family="Inter,Inter_MSFontService,sans-serif" font-weight="400" font-size="32" transform="matrix(0.707107 -0.707107 0.707107 0.707107 2128.83 24260)">6/28</text></g><g><text font-family="Inter,Inter_MSFontService,sans-serif" font-weight="400" font-size="32" transform="matrix(0.707107 -0.707107 0.707107 0.707107 2320.34 24256)">7/19</text></g><g><text font-family="Inter,Inter_MSFontService,sans-serif" font-weight="400" font-size="32" transform="matrix(0.707107 -0.707107 0.707107 0.707107 2517.11 24246)">8/9</text></g><g><text font-family="Inter,Inter_MSFontService,sans-serif" font-weight="400" font-size="32" transform="matrix(0.707107 -0.707107 0.707107 0.707107 2689.93 24261)">8/30</text></g><g><text font-family="Inter,Inter_MSFontService,sans-serif" font-weight="400" font-size="32" transform="matrix(0.707107 -0.707107 0.707107 0.707107 2877.76 24260)">9/20</text></g><g><text font-family="Inter,Inter_MSFontService,sans-serif" font-weight="400" font-size="32" transform="matrix(0.707107 -0.707107 0.707107 0.707107 3061.31 24264)">10/11</text></g><g><text font-family="Inter,Inter_MSFontService,sans-serif" font-weight="400" font-size="32" transform="matrix(0.707107 -0.707107 0.707107 0.707107 3262.77 24250)">11/1</text></g><g><text font-family="Inter,Inter_MSFontService,sans-serif" font-weight="400" font-size="32" transform="matrix(0.707107 -0.707107 0.707107 0.707107 3433.13 24267)">11/22</text></g><g><text font-family="Inter,Inter_MSFontService,sans-serif" font-weight="400" font-size="32" transform="matrix(0.707107 -0.707107 0.707107 0.707107 3619.7 24267)">12/13</text></g><g><text font-family="Inter,Inter_MSFontService,sans-serif" font-weight="400" font-size="32" transform="matrix(0.707107 -0.707107 0.707107 0.707107 3831.24 24243)">1/3</text></g><g><text font-family="Inter Medium,Inter Medium_MSFontService,sans-serif" font-weight="700" font-size="46" transform="matrix(1 0 0 1 1895.56 23354)">U.S. Hotel Occupancy and ADR Recovery Levels</text></g><g><path d="M1886.5 23448.5 1974.5 23448.5" stroke="#FFB226" stroke-width="9.16667" stroke-linecap="round" stroke-linejoin="round" stroke-miterlimit="10" fill="none" fill-rule="evenodd"/></g><g><text font-family="Inter Medium,Inter Medium_MSFontService,sans-serif" font-weight="500" font-size="37" transform="matrix(1 0 0 1 1984.15 23460)">Occ Index</text></g><g><path d="M2211.5 23448.5 2299.5 23448.5" stroke="#000000" stroke-width="9.16667" stroke-linecap="round" stroke-linejoin="round" stroke-miterlimit="10" fill="none" fill-rule="evenodd"/></g><g><text font-family="Inter Medium,Inter Medium_MSFontService,sans-serif" font-weight="500" font-size="37" transform="matrix(1 0 0 1 2308.7 23460)">ADR Index</text></g><rect x="1812.5" y="23264.5" width="2103" height="1056" stroke="#D9D9D9" stroke-width="3.4375" stroke-linejoin="round" stroke-miterlimit="10" fill="none"/><g><text fill="#7F7F7F" font-family="Inter,Inter_MSFontService,sans-serif" font-weight="400" font-size="32" transform="matrix(1 0 0 1 1893.3 23408)">YOY, Source: STR, str.com</text></g></g></svg>