<svg width="2111" height="1095" xmlns="http://www.w3.org/2000/svg" xmlns:xlink="http://www.w3.org/1999/xlink" xml:space="preserve" overflow="hidden"><defs><filter id="fx0" x="-10%" y="-10%" width="120%" height="120%" filterUnits="userSpaceOnUse" primitiveUnits="userSpaceOnUse"><feComponentTransfer color-interpolation-filters="sRGB"><feFuncR type="discrete" tableValues="0 0"/><feFuncG type="discrete" tableValues="0 0"/><feFuncB type="discrete" tableValues="0 0"/><feFuncA type="linear" slope="0.501961" intercept="0"/></feComponentTransfer><feGaussianBlur stdDeviation="4.58333 4.58333"/></filter><filter id="fx1" x="-10%" y="-10%" width="120%" height="120%" filterUnits="userSpaceOnUse" primitiveUnits="userSpaceOnUse"><feComponentTransfer color-interpolation-filters="sRGB"><feFuncR type="discrete" tableValues="0 0"/><feFuncG type="discrete" tableValues="0 0"/><feFuncB type="discrete" tableValues="0 0"/><feFuncA type="linear" slope="0.501961" intercept="0"/></feComponentTransfer><feGaussianBlur stdDeviation="4.58333 4.58333"/></filter><clipPath id="clip2"><rect x="1660" y="20745" width="2111" height="1095"/></clipPath><clipPath id="clip3"><rect x="1828" y="21002" width="1890" height="681"/></clipPath><clipPath id="clip4"><rect x="1828" y="21002" width="1890" height="681"/></clipPath></defs><g clip-path="url(#clip2)" transform="translate(-1660 -20745)"><rect x="1661" y="20746" width="2108" height="1092" fill="#FFFFFF"/><g><path d="M1998.5 21002.5 2053.57 21002.5 2109.57 21002.5 2164.57 21002.5 2219.57 21002.5 2274.57 21002.5 2329.58 21002.5 2385.58 21002.5 2440.58 21002.5 2495.58 21002.5 2550.58 21002.5 2606.59 21002.5 2661.59 21002.5 2716.59 21002.5 2771.59 21002.5 2827.59 21002.5 2882.59 21002.5 2937.6 21002.5 2992.6 21002.5 3048.6 21002.5 3103.6 21002.5 3158.6 21002.5 3213.61 21002.5 3269.61 21002.5 3324.61 21002.5 3379.61 21002.5 3434.61 21002.5 3489.61 21002.5 3545.62 21002.5 3600.62 21002.5 3655.62 21002.5 3711.5 21002.5 3711.5 21680.5 3655.62 21680.5 3600.62 21680.5 3545.62 21680.5 3489.61 21680.5 3434.61 21680.5 3379.61 21680.5 3324.61 21680.5 3269.61 21680.5 3213.61 21680.5 3158.6 21680.5 3103.6 21680.5 3048.6 21680.5 2992.6 21680.5 2937.6 21680.5 2882.59 21680.5 2827.59 21680.5 2771.59 21680.5 2716.59 21680.5 2661.59 21680.5 2606.59 21680.5 2550.58 21680.5 2495.58 21680.5 2440.58 21680.5 2385.58 21680.5 2329.58 21680.5 2274.57 21680.5 2219.57 21680.5 2164.57 21680.5 2109.57 21680.5 2053.57 21680.5 1998.5 21680.5Z" stroke="#BFBFBF" stroke-width="3.4375" stroke-linejoin="round" stroke-miterlimit="10" stroke-opacity="0.501961" fill="#D9D9D9" fill-opacity="0.501961"/></g><g><path d="M1828.5 21341.5 3714.5 21341.5" stroke="#D9D9D9" stroke-width="3.4375" stroke-linejoin="round" stroke-miterlimit="10" fill="none" fill-rule="evenodd"/></g><g clip-path="url(#clip3)"><g filter="url(#fx0)" transform="translate(1819 21125)"><g><path d="M19.9818 214.416C38.4047 167.696 56.8277 105.006 75.2509 74.2559 90.5926 48.6485 115.178-2.01758 130.52 29.9152 148.943 68.2609 167.366 281.196 185.79 304.331 204.212 327.466 222.635 160.522 241.059 168.725 259.482 176.927 277.905 363.983 296.328 353.548 314.751 343.113 333.174 118.305 351.597 106.117 370.02 93.9294 388.443 267.586 406.866 280.423 425.289 293.261 443.712 191.189 462.136 183.142 480.559 175.094 498.981 229.301 517.405 232.138 535.828 234.975 554.251 193.923 572.674 200.165 591.097 206.407 609.52 267.125 627.943 269.588 646.366 272.051 664.789 219.116 683.212 214.944 701.635 210.771 720.058 233.42 738.482 244.553 756.904 255.686 775.328 288.352 793.751 281.744 812.174 275.136 830.597 227.384 849.02 204.903 867.443 182.422 885.866 142.505 904.289 146.859 922.712 151.211 941.136 217.458 959.559 231.022 977.548 244.266 996.838 207.218 1014.83 228.239 1033.25 249.767 1051.67 358.466 1070.1 360.189 1088.52 361.911 1106.94 267.569 1125.37 238.573 1143.79 209.577 1162.21 182.381 1180.64 186.215 1199.06 190.047 1217.48 254.588 1235.9 261.572 1254.33 268.556 1272.75 233.696 1291.17 228.117 1309.6 222.537 1328.02 224.374 1346.44 228.095 1364.87 231.815 1383.29 242.684 1401.71 250.44 1420.14 258.195 1447.77 270.597 1456.98 274.628" stroke="#FFB226" stroke-width="9" stroke-linecap="round" stroke-linejoin="round" stroke-miterlimit="10" fill="none"/></g></g></g><g clip-path="url(#clip4)"><g filter="url(#fx1)" transform="translate(1819 21141)"><g><path d="M19.9818 135.937C38.4047 109.685 56.8277 53.5508 75.2509 57.1803 93.6739 60.8095 112.097 128.259 130.52 157.713 148.943 187.166 167.366 256.773 185.79 233.899 204.212 211.025 222.635 6.98242 241.059 20.4679 259.482 33.9529 277.905 310.639 296.328 314.811 314.751 318.982 333.174 71.8976 351.597 45.4977 370.02 19.0975 388.443 133.847 406.866 156.411 425.289 178.975 443.712 163.842 462.136 180.884 480.559 197.925 498.981 258.785 517.405 258.659 535.828 258.533 554.251 194.692 572.674 180.128 591.097 165.563 609.52 174.055 627.943 171.274 646.366 168.493 664.789 163.95 683.212 163.441 701.635 162.932 720.058 159.755 738.482 168.22 756.904 176.686 775.328 213.381 793.751 214.235 812.174 215.089 830.597 182.698 849.02 173.347 867.443 163.996 885.866 158.353 904.289 158.129 922.712 157.904 941.136 168.336 959.559 171.999 977.982 175.662 996.405 173.244 1014.83 180.106 1033.25 186.967 1051.67 222.515 1070.1 213.17 1088.52 203.825 1106.94 132.8 1125.37 124.035 1143.79 115.269 1162.21 147.539 1180.64 160.578 1199.06 173.616 1217.48 200.11 1235.9 202.266 1254.33 204.423 1272.75 179.623 1291.17 173.517 1309.6 167.411 1328.02 161.231 1346.44 165.63 1364.87 170.029 1383.29 194.23 1401.71 199.909 1420.14 205.588 1447.77 199.738 1456.98 199.704" stroke="#000000" stroke-width="9" stroke-linecap="round" stroke-linejoin="round" stroke-miterlimit="10" fill="none"/></g></g></g><g><path d="M1832.5 21332.9C1850.92 21286.2 1869.35 21223.5 1887.77 21192.8 1903.11 21167.2 1927.7 21116.5 1943.04 21148.4 1961.46 21186.8 1979.88 21399.7 1998.31 21422.8 2016.73 21446 2035.15 21279 2053.58 21287.2 2072 21295.4 2090.42 21482.5 2108.85 21472.1 2127.27 21461.6 2145.69 21236.8 2164.12 21224.6 2182.54 21212.4 2200.96 21386.1 2219.38 21398.9 2237.81 21411.8 2256.23 21309.7 2274.65 21301.7 2293.08 21293.6 2311.5 21347.8 2329.92 21350.7 2348.35 21353.5 2366.77 21312.4 2385.19 21318.7 2403.62 21324.9 2422.04 21385.6 2440.46 21388.1 2458.88 21390.6 2477.31 21337.6 2495.73 21333.5 2514.15 21329.3 2532.58 21351.9 2551 21363.1 2569.42 21374.2 2587.85 21406.9 2606.27 21400.3 2624.69 21393.7 2643.12 21345.9 2661.54 21323.4 2679.96 21300.9 2698.38 21261 2716.81 21265.4 2735.23 21269.7 2753.65 21336 2772.08 21349.5 2790.07 21362.8 2809.36 21325.7 2827.35 21346.8 2845.77 21368.3 2864.19 21477 2882.62 21478.7 2901.04 21480.4 2919.46 21386.1 2937.88 21357.1 2956.31 21328.1 2974.73 21300.9 2993.15 21304.7 3011.58 21308.6 3030 21373.1 3048.42 21380.1 3066.85 21387.1 3085.27 21352.2 3103.69 21346.6 3122.11 21341.1 3140.54 21342.9 3158.96 21346.6 3177.38 21350.3 3195.81 21361.2 3214.23 21369 3232.65 21376.7 3260.29 21389.1 3269.5 21393.1" stroke="#FFB226" stroke-width="9.16667" stroke-linecap="round" stroke-linejoin="round" stroke-miterlimit="10" fill="none"/></g><g><path d="M1832.5 21270.5C1850.92 21244.2 1869.35 21188.1 1887.77 21191.7 1906.19 21195.3 1924.61 21262.8 1943.04 21292.2 1961.46 21321.7 1979.88 21391.3 1998.31 21368.4 2016.73 21345.5 2035.15 21141.5 2053.58 21155 2072 21168.5 2090.42 21445.2 2108.85 21449.3 2127.27 21453.5 2145.69 21206.4 2164.12 21180 2182.54 21153.6 2200.96 21268.4 2219.38 21290.9 2237.81 21313.5 2256.23 21298.4 2274.65 21315.4 2293.08 21332.4 2311.5 21393.3 2329.92 21393.2 2348.35 21393.1 2366.77 21329.2 2385.19 21314.6 2403.62 21300.1 2422.04 21308.6 2440.46 21305.8 2458.88 21303 2477.31 21298.5 2495.73 21298 2514.15 21297.4 2532.58 21294.3 2551 21302.7 2569.42 21311.2 2587.85 21347.9 2606.27 21348.8 2624.69 21349.6 2643.12 21317.2 2661.54 21307.9 2679.96 21298.5 2698.38 21292.9 2716.81 21292.6 2735.23 21292.4 2753.65 21302.9 2772.08 21306.5 2790.5 21310.2 2808.92 21307.8 2827.35 21314.6 2845.77 21321.5 2864.19 21357 2882.62 21347.7 2901.04 21338.3 2919.46 21267.3 2937.88 21258.6 2956.31 21249.8 2974.73 21282.1 2993.15 21295.1 3011.58 21308.1 3030 21334.6 3048.42 21336.8 3066.85 21338.9 3085.27 21314.1 3103.69 21308 3122.11 21301.9 3140.54 21295.7 3158.96 21300.1 3177.38 21304.5 3195.81 21328.7 3214.23 21334.4 3232.65 21340.1 3260.29 21334.3 3269.5 21334.2" stroke="#000000" stroke-width="9.16667" stroke-linecap="round" stroke-linejoin="round" stroke-miterlimit="10" fill="none"/></g><g><text font-family="Inter,Inter_MSFontService,sans-serif" font-weight="400" font-size="32" transform="matrix(1 0 0 1 1759.39 21690)">80</text></g><g><text font-family="Inter,Inter_MSFontService,sans-serif" font-weight="400" font-size="32" transform="matrix(1 0 0 1 1759.16 21521)">90</text></g><g><text font-family="Inter,Inter_MSFontService,sans-serif" font-weight="400" font-size="32" transform="matrix(1 0 0 1 1744.22 21351)">100</text></g><g><text font-family="Inter,Inter_MSFontService,sans-serif" font-weight="400" font-size="32" transform="matrix(1 0 0 1 1749.38 21182)">110</text></g><g><text font-family="Inter,Inter_MSFontService,sans-serif" font-weight="400" font-size="32" transform="matrix(1 0 0 1 1744.86 21012)">120</text></g><g><text font-family="Inter,Inter_MSFontService,sans-serif" font-weight="400" font-size="32" transform="matrix(0.707107 -0.707107 0.707107 0.707107 1795.84 21768)">12/7</text></g><g><text font-family="Inter,Inter_MSFontService,sans-serif" font-weight="400" font-size="32" transform="matrix(0.707107 -0.707107 0.707107 0.707107 1946.79 21783)">12/28</text></g><g><text font-family="Inter,Inter_MSFontService,sans-serif" font-weight="400" font-size="32" transform="matrix(0.707107 -0.707107 0.707107 0.707107 2129.42 21766)">1/18</text></g><g><text font-family="Inter,Inter_MSFontService,sans-serif" font-weight="400" font-size="32" transform="matrix(0.707107 -0.707107 0.707107 0.707107 2302.47 21759)">2/8</text></g><g><text font-family="Inter,Inter_MSFontService,sans-serif" font-weight="400" font-size="32" transform="matrix(0.707107 -0.707107 0.707107 0.707107 2470.92 21756)">3/1</text></g><g><text font-family="Inter,Inter_MSFontService,sans-serif" font-weight="400" font-size="32" transform="matrix(0.707107 -0.707107 0.707107 0.707107 2619.72 21773)">3/22</text></g><g><text font-family="Inter,Inter_MSFontService,sans-serif" font-weight="400" font-size="32" transform="matrix(0.707107 -0.707107 0.707107 0.707107 2788.49 21770)">4/12</text></g><g><text font-family="Inter,Inter_MSFontService,sans-serif" font-weight="400" font-size="32" transform="matrix(0.707107 -0.707107 0.707107 0.707107 2964.81 21759)">5/3</text></g><g><text font-family="Inter,Inter_MSFontService,sans-serif" font-weight="400" font-size="32" transform="matrix(0.707107 -0.707107 0.707107 0.707107 3116.66 21773)">5/24</text></g><g><text font-family="Inter,Inter_MSFontService,sans-serif" font-weight="400" font-size="32" transform="matrix(0.707107 -0.707107 0.707107 0.707107 3285.21 21770)">6/14</text></g><g><text font-family="Inter,Inter_MSFontService,sans-serif" font-weight="400" font-size="32" transform="matrix(0.707107 -0.707107 0.707107 0.707107 3463.43 21758)">7/5</text></g><g><text font-family="Inter,Inter_MSFontService,sans-serif" font-weight="400" font-size="32" transform="matrix(0.707107 -0.707107 0.707107 0.707107 3615.06 21772)">7/26</text></g><g><text font-family="Inter Medium,Inter Medium_MSFontService,sans-serif" font-weight="700" font-size="46" transform="matrix(1 0 0 1 1745.5 20836)">U.S. Hotel Occupancy and ADR Recovery Levels</text></g><g><path d="M1737.5 20936.5 1825.5 20936.5" stroke="#FFB226" stroke-width="9.16667" stroke-linecap="round" stroke-linejoin="round" stroke-miterlimit="10" fill="none" fill-rule="evenodd"/></g><g><text font-family="Inter Medium,Inter Medium_MSFontService,sans-serif" font-weight="500" font-size="37" transform="matrix(1 0 0 1 1834.49 20948)">Occ Index</text></g><g><path d="M2062.5 20936.5 2150.5 20936.5" stroke="#000000" stroke-width="9.16667" stroke-linecap="round" stroke-linejoin="round" stroke-miterlimit="10" fill="none" fill-rule="evenodd"/></g><g><text font-family="Inter Medium,Inter Medium_MSFontService,sans-serif" font-weight="500" font-size="37" transform="matrix(1 0 0 1 2159.57 20948)">ADR Index</text></g><rect x="1661.5" y="20746.5" width="2108" height="1092" stroke="#D9D9D9" stroke-width="3.4375" stroke-linejoin="round" stroke-miterlimit="10" fill="none"/><g><text fill="#7F7F7F" font-family="Inter,Inter_MSFontService,sans-serif" font-weight="400" font-size="32" transform="matrix(1 0 0 1 1743.19 20893)">YOY, Source: STR, str.com</text></g><g><g><text font-family="Inter Medium,Inter Medium_MSFontService,sans-serif" font-weight="700" font-size="37" transform="matrix(1 0 0 1 2057.67 21809)">2025</text></g></g></g></svg>