<svg width="2111" height="1095" xmlns="http://www.w3.org/2000/svg" xmlns:xlink="http://www.w3.org/1999/xlink" xml:space="preserve" overflow="hidden"><defs><filter id="fx0" x="-10%" y="-10%" width="120%" height="120%" filterUnits="userSpaceOnUse" primitiveUnits="userSpaceOnUse"><feComponentTransfer color-interpolation-filters="sRGB"><feFuncR type="discrete" tableValues="0 0"/><feFuncG type="discrete" tableValues="0 0"/><feFuncB type="discrete" tableValues="0 0"/><feFuncA type="linear" slope="0.501961" intercept="0"/></feComponentTransfer><feGaussianBlur stdDeviation="4.58333 4.58333"/></filter><filter id="fx1" x="-10%" y="-10%" width="120%" height="120%" filterUnits="userSpaceOnUse" primitiveUnits="userSpaceOnUse"><feComponentTransfer color-interpolation-filters="sRGB"><feFuncR type="discrete" tableValues="0 0"/><feFuncG type="discrete" tableValues="0 0"/><feFuncB type="discrete" tableValues="0 0"/><feFuncA type="linear" slope="0.501961" intercept="0"/></feComponentTransfer><feGaussianBlur stdDeviation="4.58333 4.58333"/></filter><clipPath id="clip2"><rect x="1660" y="20745" width="2111" height="1095"/></clipPath><clipPath id="clip3"><rect x="1828" y="21002" width="1890" height="681"/></clipPath><clipPath id="clip4"><rect x="1828" y="21002" width="1890" height="681"/></clipPath></defs><g clip-path="url(#clip2)" transform="translate(-1660 -20745)"><rect x="1661" y="20746" width="2108" height="1092" fill="#FFFFFF"/><g><path d="M1998.5 21002.5 2053.57 21002.5 2109.57 21002.5 2164.57 21002.5 2219.57 21002.5 2274.57 21002.5 2329.58 21002.5 2385.58 21002.5 2440.58 21002.5 2495.58 21002.5 2550.58 21002.5 2606.59 21002.5 2661.59 21002.5 2716.59 21002.5 2771.59 21002.5 2827.59 21002.5 2882.59 21002.5 2937.6 21002.5 2992.6 21002.5 3048.6 21002.5 3103.6 21002.5 3158.6 21002.5 3213.61 21002.5 3269.61 21002.5 3324.61 21002.5 3379.61 21002.5 3434.61 21002.5 3489.61 21002.5 3545.62 21002.5 3600.62 21002.5 3655.62 21002.5 3711.5 21002.5 3711.5 21680.5 3655.62 21680.5 3600.62 21680.5 3545.62 21680.5 3489.61 21680.5 3434.61 21680.5 3379.61 21680.5 3324.61 21680.5 3269.61 21680.5 3213.61 21680.5 3158.6 21680.5 3103.6 21680.5 3048.6 21680.5 2992.6 21680.5 2937.6 21680.5 2882.59 21680.5 2827.59 21680.5 2771.59 21680.5 2716.59 21680.5 2661.59 21680.5 2606.59 21680.5 2550.58 21680.5 2495.58 21680.5 2440.58 21680.5 2385.58 21680.5 2329.58 21680.5 2274.57 21680.5 2219.57 21680.5 2164.57 21680.5 2109.57 21680.5 2053.57 21680.5 1998.5 21680.5Z" stroke="#BFBFBF" stroke-width="3.4375" stroke-linejoin="round" stroke-miterlimit="10" stroke-opacity="0.501961" fill="#D9D9D9" fill-opacity="0.501961"/></g><g><path d="M1828.5 21341.5 3714.5 21341.5" stroke="#D9D9D9" stroke-width="3.4375" stroke-linejoin="round" stroke-miterlimit="10" fill="none" fill-rule="evenodd"/></g><g clip-path="url(#clip3)"><g filter="url(#fx0)" transform="translate(1819 21125)"><g><path d="M19.9818 214.416C38.3983 167.696 56.8148 105.006 75.2317 74.2559 90.568 48.6485 115.145-2.01758 130.482 29.9152 148.898 68.2609 167.315 281.196 185.732 304.331 204.148 327.466 222.565 160.522 240.982 168.725 259.398 176.927 277.815 363.983 296.232 353.548 314.648 343.113 333.065 118.305 351.482 106.117 369.898 93.9294 388.315 267.586 406.732 280.423 425.148 293.261 443.565 191.189 461.982 183.142 480.398 175.094 498.815 229.301 517.232 232.138 535.648 234.975 554.065 193.923 572.482 200.165 590.898 206.407 609.315 267.125 627.732 269.588 646.148 272.051 664.565 219.116 682.982 214.944 701.398 210.771 719.815 233.42 738.232 244.553 756.648 255.686 775.065 288.352 793.482 281.744 811.898 275.136 830.315 227.384 848.732 204.903 867.148 182.422 885.565 142.505 903.982 146.859 922.398 151.211 940.815 217.458 959.232 231.022 977.215 244.266 996.499 207.218 1014.48 228.239 1032.9 249.767 1051.31 358.466 1069.73 360.189 1088.15 361.911 1106.56 267.569 1124.98 238.573 1143.4 209.577 1161.82 182.381 1180.23 186.215 1198.65 190.047 1217.06 254.588 1235.48 261.572 1253.9 268.556 1272.31 233.696 1290.73 228.117 1309.15 222.537 1336.77 228.099 1345.98 228.095" stroke="#FFB226" stroke-width="9" stroke-linecap="round" stroke-linejoin="round" stroke-miterlimit="10" fill="none"/></g></g></g><g clip-path="url(#clip4)"><g filter="url(#fx1)" transform="translate(1819 21141)"><g><path d="M19.9818 135.937C38.3983 109.685 56.8148 53.5508 75.2317 57.1803 93.6482 60.8095 112.065 128.259 130.482 157.713 148.898 187.166 167.315 256.773 185.732 233.899 204.148 211.025 222.565 6.98242 240.982 20.4679 259.398 33.9529 277.815 310.639 296.232 314.811 314.648 318.982 333.065 71.8976 351.482 45.4977 369.898 19.0975 388.315 133.847 406.732 156.411 425.148 178.975 443.565 163.842 461.982 180.884 480.398 197.925 498.815 258.785 517.232 258.659 535.648 258.533 554.065 194.692 572.482 180.128 590.898 165.563 609.315 174.055 627.732 171.274 646.148 168.493 664.565 163.95 682.982 163.441 701.398 162.932 719.815 159.755 738.232 168.22 756.648 176.686 775.065 213.381 793.482 214.235 811.898 215.089 830.315 182.698 848.732 173.347 867.148 163.996 885.565 158.353 903.982 158.129 922.398 157.904 940.815 168.336 959.232 171.999 977.648 175.662 996.065 173.244 1014.48 180.106 1032.9 186.967 1051.31 222.515 1069.73 213.17 1088.15 203.825 1106.56 132.8 1124.98 124.035 1143.4 115.269 1161.82 147.539 1180.23 160.578 1198.65 173.616 1217.06 200.11 1235.48 202.266 1253.9 204.423 1272.31 179.623 1290.73 173.517 1309.15 167.411 1336.77 166.945 1345.98 165.63" stroke="#000000" stroke-width="9" stroke-linecap="round" stroke-linejoin="round" stroke-miterlimit="10" fill="none"/></g></g></g><g><path d="M1832.5 21332.9C1850.92 21286.2 1869.33 21223.5 1887.75 21192.8 1903.09 21167.2 1927.66 21116.5 1943 21148.4 1961.42 21186.8 1979.83 21399.7 1998.25 21422.8 2016.67 21446 2035.08 21279 2053.5 21287.2 2071.92 21295.4 2090.33 21482.5 2108.75 21472.1 2127.17 21461.6 2145.58 21236.8 2164 21224.6 2182.42 21212.4 2200.83 21386.1 2219.25 21398.9 2237.67 21411.8 2256.08 21309.7 2274.5 21301.7 2292.92 21293.6 2311.33 21347.8 2329.75 21350.7 2348.17 21353.5 2366.58 21312.4 2385 21318.7 2403.42 21324.9 2421.83 21385.6 2440.25 21388.1 2458.67 21390.6 2477.08 21337.6 2495.5 21333.5 2513.92 21329.3 2532.33 21351.9 2550.75 21363.1 2569.17 21374.2 2587.58 21406.9 2606 21400.3 2624.42 21393.7 2642.83 21345.9 2661.25 21323.4 2679.67 21300.9 2698.08 21261 2716.5 21265.4 2734.92 21269.7 2753.33 21336 2771.75 21349.5 2789.73 21362.8 2809.02 21325.7 2827 21346.8 2845.42 21368.3 2863.83 21477 2882.25 21478.7 2900.67 21480.4 2919.08 21386.1 2937.5 21357.1 2955.92 21328.1 2974.33 21300.9 2992.75 21304.7 3011.17 21308.6 3029.58 21373.1 3048 21380.1 3066.42 21387.1 3084.83 21352.2 3103.25 21346.6 3121.67 21341.1 3149.29 21346.6 3158.5 21346.6" stroke="#FFB226" stroke-width="9.16667" stroke-linecap="round" stroke-linejoin="round" stroke-miterlimit="10" fill="none"/></g><g><path d="M1832.5 21270.5C1850.92 21244.2 1869.33 21188.1 1887.75 21191.7 1906.17 21195.3 1924.58 21262.8 1943 21292.2 1961.42 21321.7 1979.83 21391.3 1998.25 21368.4 2016.67 21345.5 2035.08 21141.5 2053.5 21155 2071.92 21168.5 2090.33 21445.2 2108.75 21449.3 2127.17 21453.5 2145.58 21206.4 2164 21180 2182.42 21153.6 2200.83 21268.4 2219.25 21290.9 2237.67 21313.5 2256.08 21298.4 2274.5 21315.4 2292.92 21332.4 2311.33 21393.3 2329.75 21393.2 2348.17 21393.1 2366.58 21329.2 2385 21314.6 2403.42 21300.1 2421.83 21308.6 2440.25 21305.8 2458.67 21303 2477.08 21298.5 2495.5 21298 2513.92 21297.4 2532.33 21294.3 2550.75 21302.7 2569.17 21311.2 2587.58 21347.9 2606 21348.8 2624.42 21349.6 2642.83 21317.2 2661.25 21307.9 2679.67 21298.5 2698.08 21292.9 2716.5 21292.6 2734.92 21292.4 2753.33 21302.9 2771.75 21306.5 2790.17 21310.2 2808.58 21307.8 2827 21314.6 2845.42 21321.5 2863.83 21357 2882.25 21347.7 2900.67 21338.3 2919.08 21267.3 2937.5 21258.6 2955.92 21249.8 2974.33 21282.1 2992.75 21295.1 3011.17 21308.1 3029.58 21334.6 3048 21336.8 3066.42 21338.9 3084.83 21314.1 3103.25 21308 3121.67 21301.9 3149.29 21301.5 3158.5 21300.1" stroke="#000000" stroke-width="9.16667" stroke-linecap="round" stroke-linejoin="round" stroke-miterlimit="10" fill="none"/></g><g><text font-family="Inter,Inter_MSFontService,sans-serif" font-weight="400" font-size="32" transform="matrix(1 0 0 1 1759.39 21690)">80</text></g><g><text font-family="Inter,Inter_MSFontService,sans-serif" font-weight="400" font-size="32" transform="matrix(1 0 0 1 1759.16 21521)">90</text></g><g><text font-family="Inter,Inter_MSFontService,sans-serif" font-weight="400" font-size="32" transform="matrix(1 0 0 1 1744.22 21351)">100</text></g><g><text font-family="Inter,Inter_MSFontService,sans-serif" font-weight="400" font-size="32" transform="matrix(1 0 0 1 1749.38 21182)">110</text></g><g><text font-family="Inter,Inter_MSFontService,sans-serif" font-weight="400" font-size="32" transform="matrix(1 0 0 1 1744.86 21012)">120</text></g><g><text font-family="Inter,Inter_MSFontService,sans-serif" font-weight="400" font-size="32" transform="matrix(0.707107 -0.707107 0.707107 0.707107 1795.84 21768)">12/7</text></g><g><text font-family="Inter,Inter_MSFontService,sans-serif" font-weight="400" font-size="32" transform="matrix(0.707107 -0.707107 0.707107 0.707107 1946.79 21783)">12/28</text></g><g><text font-family="Inter,Inter_MSFontService,sans-serif" font-weight="400" font-size="32" transform="matrix(0.707107 -0.707107 0.707107 0.707107 2129.42 21766)">1/18</text></g><g><text font-family="Inter,Inter_MSFontService,sans-serif" font-weight="400" font-size="32" transform="matrix(0.707107 -0.707107 0.707107 0.707107 2302.47 21759)">2/8</text></g><g><text font-family="Inter,Inter_MSFontService,sans-serif" font-weight="400" font-size="32" transform="matrix(0.707107 -0.707107 0.707107 0.707107 2470.92 21756)">3/1</text></g><g><text font-family="Inter,Inter_MSFontService,sans-serif" font-weight="400" font-size="32" transform="matrix(0.707107 -0.707107 0.707107 0.707107 2619.72 21773)">3/22</text></g><g><text font-family="Inter,Inter_MSFontService,sans-serif" font-weight="400" font-size="32" transform="matrix(0.707107 -0.707107 0.707107 0.707107 2788.49 21770)">4/12</text></g><g><text font-family="Inter,Inter_MSFontService,sans-serif" font-weight="400" font-size="32" transform="matrix(0.707107 -0.707107 0.707107 0.707107 2964.81 21759)">5/3</text></g><g><text font-family="Inter,Inter_MSFontService,sans-serif" font-weight="400" font-size="32" transform="matrix(0.707107 -0.707107 0.707107 0.707107 3116.66 21773)">5/24</text></g><g><text font-family="Inter,Inter_MSFontService,sans-serif" font-weight="400" font-size="32" transform="matrix(0.707107 -0.707107 0.707107 0.707107 3285.21 21770)">6/14</text></g><g><text font-family="Inter,Inter_MSFontService,sans-serif" font-weight="400" font-size="32" transform="matrix(0.707107 -0.707107 0.707107 0.707107 3463.43 21758)">7/5</text></g><g><text font-family="Inter,Inter_MSFontService,sans-serif" font-weight="400" font-size="32" transform="matrix(0.707107 -0.707107 0.707107 0.707107 3615.06 21772)">7/26</text></g><g><text font-family="Inter Medium,Inter Medium_MSFontService,sans-serif" font-weight="700" font-size="46" transform="matrix(1 0 0 1 1745.5 20836)">U.S. Hotel Occupancy and ADR Recovery Levels</text></g><g><path d="M1737.5 20936.5 1825.5 20936.5" stroke="#FFB226" stroke-width="9.16667" stroke-linecap="round" stroke-linejoin="round" stroke-miterlimit="10" fill="none" fill-rule="evenodd"/></g><g><text font-family="Inter Medium,Inter Medium_MSFontService,sans-serif" font-weight="500" font-size="37" transform="matrix(1 0 0 1 1834.49 20948)">Occ Index</text></g><g><path d="M2062.5 20936.5 2150.5 20936.5" stroke="#000000" stroke-width="9.16667" stroke-linecap="round" stroke-linejoin="round" stroke-miterlimit="10" fill="none" fill-rule="evenodd"/></g><g><text font-family="Inter Medium,Inter Medium_MSFontService,sans-serif" font-weight="500" font-size="37" transform="matrix(1 0 0 1 2159.57 20948)">ADR Index</text></g><rect x="1661.5" y="20746.5" width="2108" height="1092" stroke="#D9D9D9" stroke-width="3.4375" stroke-linejoin="round" stroke-miterlimit="10" fill="none"/><g><text fill="#7F7F7F" font-family="Inter,Inter_MSFontService,sans-serif" font-weight="400" font-size="32" transform="matrix(1 0 0 1 1743.19 20893)">YOY, Source: STR, str.com</text></g><g><g><text font-family="Inter Medium,Inter Medium_MSFontService,sans-serif" font-weight="700" font-size="37" transform="matrix(1 0 0 1 2057.67 21809)">2025</text></g></g></g></svg>