<svg width="2106" height="1095" xmlns="http://www.w3.org/2000/svg" xmlns:xlink="http://www.w3.org/1999/xlink" xml:space="preserve" overflow="hidden"><defs><filter id="fx0" x="-10%" y="-10%" width="120%" height="120%" filterUnits="userSpaceOnUse" primitiveUnits="userSpaceOnUse"><feComponentTransfer color-interpolation-filters="sRGB"><feFuncR type="discrete" tableValues="0 0"/><feFuncG type="discrete" tableValues="0 0"/><feFuncB type="discrete" tableValues="0 0"/><feFuncA type="linear" slope="0.501961" intercept="0"/></feComponentTransfer><feGaussianBlur stdDeviation="4.58333 4.58333"/></filter><filter id="fx1" x="-10%" y="-10%" width="120%" height="120%" filterUnits="userSpaceOnUse" primitiveUnits="userSpaceOnUse"><feComponentTransfer color-interpolation-filters="sRGB"><feFuncR type="discrete" tableValues="0 0"/><feFuncG type="discrete" tableValues="0 0"/><feFuncB type="discrete" tableValues="0 0"/><feFuncA type="linear" slope="0.501961" intercept="0"/></feComponentTransfer><feGaussianBlur stdDeviation="4.58333 4.58333"/></filter><clipPath id="clip2"><rect x="1657" y="20745" width="2106" height="1095"/></clipPath><clipPath id="clip3"><rect x="1825" y="21002" width="1885" height="681"/></clipPath><clipPath id="clip4"><rect x="1825" y="21002" width="1885" height="681"/></clipPath></defs><g clip-path="url(#clip2)" transform="translate(-1657 -20745)"><rect x="1658" y="20746" width="2103" height="1092" fill="#FFFFFF"/><g><path d="M2744.5 21002.5 2787.59 21002.5 2831.59 21002.5 2875.59 21002.5 2918.6 21002.5 2962.6 21002.5 3005.6 21002.5 3049.6 21002.5 3093.6 21002.5 3136.6 21002.5 3180.6 21002.5 3224.61 21002.5 3267.61 21002.5 3311.61 21002.5 3354.61 21002.5 3398.61 21002.5 3442.61 21002.5 3485.61 21002.5 3529.62 21002.5 3572.62 21002.5 3616.62 21002.5 3660.62 21002.5 3703.5 21002.5 3703.5 21680.5 3660.62 21680.5 3616.62 21680.5 3572.62 21680.5 3529.62 21680.5 3485.61 21680.5 3442.61 21680.5 3398.61 21680.5 3354.61 21680.5 3311.61 21680.5 3267.61 21680.5 3224.61 21680.5 3180.6 21680.5 3136.6 21680.5 3093.6 21680.5 3049.6 21680.5 3005.6 21680.5 2962.6 21680.5 2918.6 21680.5 2875.59 21680.5 2831.59 21680.5 2787.59 21680.5 2744.5 21680.5Z" stroke="#BFBFBF" stroke-width="3.4375" stroke-linejoin="round" stroke-miterlimit="10" stroke-opacity="0.501961" fill="#D9D9D9" fill-opacity="0.501961"/></g><g><path d="M1825.5 21409.5 3707.5 21409.5" stroke="#D9D9D9" stroke-width="3.4375" stroke-linejoin="round" stroke-miterlimit="10" fill="none" fill-rule="evenodd"/></g><g clip-path="url(#clip3)"><g filter="url(#fx0)" transform="translate(1815 21112)"><g><path d="M19.9817 293.937C34.5186 294.571 49.0554 293.859 63.5926 295.838 78.1295 297.817 92.6667 308.317 107.204 305.813 121.741 303.309 136.278 285.484 150.815 280.817 165.352 276.15 179.889 264.601 194.426 277.809 208.963 291.017 223.5 352.057 238.037 360.063 252.574 368.068 267.111 336.542 281.648 325.842 296.185 315.142 310.722 305.303 325.259 295.861 339.796 286.42 354.333 260.53 368.87 269.192 383.407 277.854 397.945 348.01 412.482 347.832 427.019 347.653 441.555 279.067 456.093 268.12 470.63 257.172 485.167 286.487 499.704 282.148 514.241 277.81 528.778 242.651 543.315 242.089 557.852 241.527 572.389 260.814 586.926 278.778 601.463 296.741 616 348.965 630.537 349.871 640.636 350.499 664.049 322.316 674.149 284.21 688.685 229.361 703.222-0.0175781 717.76 20.7758 732.296 41.5688 746.833 362.958 761.37 408.97 775.907 454.982 790.445 334.233 804.982 296.851 819.519 259.468 834.056 209.287 848.593 184.678 860.632 164.296 880.164 123.774 892.204 149.191 906.741 179.88 921.278 350.295 935.815 368.811 950.352 387.326 964.889 253.717 979.426 260.283 993.963 266.847 1008.5 416.55 1023.04 408.2 1037.57 399.848 1052.11 219.93 1066.65 210.177 1081.19 200.423 1095.72 339.402 1110.26 349.677 1124.8 359.951 1139.33 278.261 1153.87 271.821 1168.41 265.38 1182.94 308.762 1197.48 311.033 1212.02 313.304 1226.56 280.45 1241.09 285.445 1255.63 290.44 1270.17 339.034 1284.7 341.005 1299.24 342.976 1313.78 300.611 1328.32 297.272 1342.85 293.932 1357.39 312.059 1371.93 320.969 1386.46 329.879 1401 356.023 1415.54 350.734 1430.07 345.445 1444.61 307.228 1459.15 289.237 1473.69 271.245 1488.22 239.299 1502.76 242.783 1517.3 246.266 1531.83 299.285 1546.37 310.14 1560.91 320.995 1582.71 308.284 1589.98 307.913" stroke="#FFB226" stroke-width="9" stroke-linecap="round" stroke-linejoin="round" stroke-miterlimit="10" fill="none"/></g></g></g><g clip-path="url(#clip4)"><g filter="url(#fx1)" transform="translate(1815 21247)"><g><path d="M19.9817 155.334C34.5186 150.996 49.0554 143.429 63.5926 142.32 78.1295 141.21 92.6667 151.182 107.204 148.676 121.741 146.169 136.278 128.709 150.815 127.284 165.352 125.857 179.889 131.783 194.426 140.12 208.963 148.457 223.5 173.848 238.037 177.306 252.574 180.764 267.111 167.582 281.648 160.868 296.185 154.154 310.722 153.395 325.259 137.025 339.796 120.654 354.333 47.8273 368.87 62.6449 383.407 77.4621 397.945 211.909 412.482 225.93 427.019 239.95 441.555 162.528 456.093 146.767 470.63 131.007 485.167 138.683 499.704 131.366 514.241 124.048 528.778 99.7654 543.315 102.86 557.852 105.955 572.389 139.154 586.926 149.936 601.463 160.718 616 162.298 630.537 167.554 644.089 172.454 660.596 199.872 674.149 181.471 688.685 161.731 703.222 45.3987 717.76 49.1199 732.296 52.8407 746.833 193.333 761.37 203.796 775.907 214.259 790.445 137.69 804.982 111.898 819.519 86.1061 834.056 46.1475 848.593 49.044 863.13 51.94 877.667 105.771 892.204 129.277 906.741 152.783 921.278 208.335 935.815 190.08 950.352 171.824 964.889 8.98242 979.426 19.7449 993.963 30.5069 1008.5 251.324 1023.04 254.653 1037.57 257.982 1052.11 60.7895 1066.65 39.7206 1081.19 18.6513 1095.72 110.229 1110.26 128.238 1124.8 146.246 1139.33 134.169 1153.87 147.769 1168.41 161.369 1182.94 209.94 1197.48 209.84 1212.02 209.739 1226.56 158.789 1241.09 147.166 1255.63 135.542 1270.17 142.319 1284.7 140.1 1299.24 137.88 1313.78 134.255 1328.32 133.849 1342.85 133.443 1357.39 130.907 1371.93 137.663 1386.46 144.419 1401 173.704 1415.54 174.386 1430.07 175.068 1444.61 149.217 1459.15 141.755 1473.69 134.292 1488.22 129.788 1502.76 129.609 1517.3 129.429 1531.83 137.755 1546.37 140.678 1560.91 143.601 1582.71 146.07 1589.98 147.148" stroke="#000000" stroke-width="9" stroke-linecap="round" stroke-linejoin="round" stroke-miterlimit="10" fill="none"/></g></g></g><g><path d="M1828.5 21399.5C1843.04 21400.1 1857.57 21399.4 1872.11 21401.4 1886.65 21403.3 1901.18 21413.8 1915.72 21411.3 1930.26 21408.8 1944.8 21391 1959.33 21386.3 1973.87 21381.7 1988.41 21370.1 2002.94 21383.3 2017.48 21396.5 2032.02 21457.6 2046.56 21465.6 2061.09 21473.6 2075.63 21442.1 2090.17 21431.4 2104.7 21420.7 2119.24 21410.8 2133.78 21401.4 2148.31 21391.9 2162.85 21366 2177.39 21374.7 2191.93 21383.4 2206.46 21453.5 2221 21453.3 2235.54 21453.2 2250.07 21384.6 2264.61 21373.6 2279.15 21362.7 2293.69 21392 2308.22 21387.7 2322.76 21383.3 2337.3 21348.2 2351.83 21347.6 2366.37 21347 2380.91 21366.3 2395.44 21384.3 2409.98 21402.3 2424.52 21454.5 2439.06 21455.4 2449.15 21456 2472.57 21427.8 2482.67 21389.7 2497.2 21334.9 2511.74 21105.5 2526.28 21126.3 2540.81 21147.1 2555.35 21468.5 2569.89 21514.5 2584.43 21560.5 2598.96 21439.8 2613.5 21402.4 2628.04 21365 2642.57 21314.8 2657.11 21290.2 2669.15 21269.8 2688.68 21229.3 2700.72 21254.7 2715.26 21285.4 2729.8 21455.8 2744.33 21474.3 2758.87 21492.8 2773.41 21359.2 2787.94 21365.8 2802.48 21372.4 2817.02 21522.1 2831.56 21513.7 2846.09 21505.4 2860.63 21325.4 2875.17 21315.7 2889.7 21305.9 2904.24 21444.9 2918.78 21455.2 2933.31 21465.5 2947.85 21383.8 2962.39 21377.3 2976.93 21370.9 2991.46 21414.3 3006 21416.6 3020.54 21418.8 3035.07 21386 3049.61 21391 3064.15 21396 3078.69 21444.6 3093.22 21446.5 3107.76 21448.5 3122.3 21406.1 3136.83 21402.8 3151.37 21399.4 3165.91 21417.6 3180.44 21426.5 3194.98 21435.4 3209.52 21461.5 3224.06 21456.3 3238.59 21451 3253.13 21412.7 3267.67 21394.8 3282.2 21376.8 3296.74 21344.8 3311.28 21348.3 3325.81 21351.8 3340.35 21404.8 3354.89 21415.7 3369.43 21426.5 3391.23 21413.8 3398.5 21413.4" stroke="#FFB226" stroke-width="9.16667" stroke-linecap="round" stroke-linejoin="round" stroke-miterlimit="10" fill="none"/></g><g><path d="M1828.5 21395.9C1843.04 21391.5 1857.57 21383.9 1872.11 21382.8 1886.65 21381.7 1901.18 21391.7 1915.72 21389.2 1930.26 21386.7 1944.8 21369.2 1959.33 21367.8 1973.87 21366.4 1988.41 21372.3 2002.94 21380.6 2017.48 21389 2032.02 21414.4 2046.56 21417.8 2061.09 21421.3 2075.63 21408.1 2090.17 21401.4 2104.7 21394.7 2119.24 21393.9 2133.78 21377.5 2148.31 21361.2 2162.85 21288.3 2177.39 21303.2 2191.93 21318 2206.46 21452.4 2221 21466.4 2235.54 21480.5 2250.07 21403 2264.61 21387.3 2279.15 21371.5 2293.69 21379.2 2308.22 21371.9 2322.76 21364.6 2337.3 21340.3 2351.83 21343.4 2366.37 21346.5 2380.91 21379.7 2395.44 21390.5 2409.98 21401.2 2424.52 21402.8 2439.06 21408.1 2452.61 21413 2469.11 21440.4 2482.67 21422 2497.2 21402.2 2511.74 21285.9 2526.28 21289.6 2540.81 21293.4 2555.35 21433.8 2569.89 21444.3 2584.43 21454.8 2598.96 21378.2 2613.5 21352.4 2628.04 21326.6 2642.57 21286.7 2657.11 21289.6 2671.65 21292.5 2686.19 21346.3 2700.72 21369.8 2715.26 21393.3 2729.8 21448.9 2744.33 21430.6 2758.87 21412.3 2773.41 21249.5 2787.94 21260.3 2802.48 21271 2817.02 21491.8 2831.56 21495.2 2846.09 21498.5 2860.63 21301.3 2875.17 21280.2 2889.7 21259.2 2904.24 21350.7 2918.78 21368.8 2933.31 21386.8 2947.85 21374.7 2962.39 21388.3 2976.93 21401.9 2991.46 21450.5 3006 21450.4 3020.54 21450.3 3035.07 21399.3 3049.61 21387.7 3064.15 21376.1 3078.69 21382.8 3093.22 21380.6 3107.76 21378.4 3122.3 21374.8 3136.83 21374.4 3151.37 21374 3165.91 21371.4 3180.44 21378.2 3194.98 21384.9 3209.52 21414.2 3224.06 21414.9 3238.59 21415.6 3253.13 21389.7 3267.67 21382.3 3282.2 21374.8 3296.74 21370.3 3311.28 21370.1 3325.81 21369.9 3340.35 21378.3 3354.89 21381.2 3369.43 21384.1 3391.23 21386.6 3398.5 21387.7" stroke="#000000" stroke-width="9.16667" stroke-linecap="round" stroke-linejoin="round" stroke-miterlimit="10" fill="none"/></g><g><text font-family="Inter,Inter_MSFontService,sans-serif" font-weight="400" font-size="32" transform="matrix(1 0 0 1 1755.7 21690)">80</text></g><g><text font-family="Inter,Inter_MSFontService,sans-serif" font-weight="400" font-size="32" transform="matrix(1 0 0 1 1755.47 21555)">90</text></g><g><text font-family="Inter,Inter_MSFontService,sans-serif" font-weight="400" font-size="32" transform="matrix(1 0 0 1 1740.53 21419)">100</text></g><g><text font-family="Inter,Inter_MSFontService,sans-serif" font-weight="400" font-size="32" transform="matrix(1 0 0 1 1745.68 21283)">110</text></g><g><text font-family="Inter,Inter_MSFontService,sans-serif" font-weight="400" font-size="32" transform="matrix(1 0 0 1 1741.17 21148)">120</text></g><g><text font-family="Inter,Inter_MSFontService,sans-serif" font-weight="400" font-size="32" transform="matrix(1 0 0 1 1740.16 21012)">130</text></g><g><text font-family="Inter,Inter_MSFontService,sans-serif" font-weight="400" font-size="32" transform="matrix(0.707107 -0.707107 0.707107 0.707107 1800.1 21759)">8/3</text></g><g><text font-family="Inter,Inter_MSFontService,sans-serif" font-weight="400" font-size="32" transform="matrix(0.707107 -0.707107 0.707107 0.707107 1917.09 21773)">8/24</text></g><g><text font-family="Inter,Inter_MSFontService,sans-serif" font-weight="400" font-size="32" transform="matrix(0.707107 -0.707107 0.707107 0.707107 2050.97 21770)">9/14</text></g><g><text font-family="Inter,Inter_MSFontService,sans-serif" font-weight="400" font-size="32" transform="matrix(0.707107 -0.707107 0.707107 0.707107 2182.56 21770)">10/5</text></g><g><text font-family="Inter,Inter_MSFontService,sans-serif" font-weight="400" font-size="32" transform="matrix(0.707107 -0.707107 0.707107 0.707107 2299.33 21784)">10/26</text></g><g><text font-family="Inter,Inter_MSFontService,sans-serif" font-weight="400" font-size="32" transform="matrix(0.707107 -0.707107 0.707107 0.707107 2437.02 21777)">11/16</text></g><g><text font-family="Inter,Inter_MSFontService,sans-serif" font-weight="400" font-size="32" transform="matrix(0.707107 -0.707107 0.707107 0.707107 2576.4 21768)">12/7</text></g><g><text font-family="Inter,Inter_MSFontService,sans-serif" font-weight="400" font-size="32" transform="matrix(0.707107 -0.707107 0.707107 0.707107 2692.49 21783)">12/28</text></g><g><text font-family="Inter,Inter_MSFontService,sans-serif" font-weight="400" font-size="32" transform="matrix(0.707107 -0.707107 0.707107 0.707107 2840.26 21766)">1/18</text></g><g><text font-family="Inter,Inter_MSFontService,sans-serif" font-weight="400" font-size="32" transform="matrix(0.707107 -0.707107 0.707107 0.707107 2978.45 21759)">2/8</text></g><g><text font-family="Inter,Inter_MSFontService,sans-serif" font-weight="400" font-size="32" transform="matrix(0.707107 -0.707107 0.707107 0.707107 3112.03 21756)">3/1</text></g><g><text font-family="Inter,Inter_MSFontService,sans-serif" font-weight="400" font-size="32" transform="matrix(0.707107 -0.707107 0.707107 0.707107 3225.96 21773)">3/22</text></g><g><text font-family="Inter,Inter_MSFontService,sans-serif" font-weight="400" font-size="32" transform="matrix(0.707107 -0.707107 0.707107 0.707107 3359.87 21770)">4/12</text></g><g><text font-family="Inter,Inter_MSFontService,sans-serif" font-weight="400" font-size="32" transform="matrix(0.707107 -0.707107 0.707107 0.707107 3501.32 21759)">5/3</text></g><g><text font-family="Inter,Inter_MSFontService,sans-serif" font-weight="400" font-size="32" transform="matrix(0.707107 -0.707107 0.707107 0.707107 3618.31 21773)">5/24</text></g><g><text font-family="Inter Medium,Inter Medium_MSFontService,sans-serif" font-weight="700" font-size="46" transform="matrix(1 0 0 1 1742.02 20836)">U.S. Hotel Occupancy and ADR Recovery Levels</text></g><g><path d="M1733.5 20936.5 1821.5 20936.5" stroke="#FFB226" stroke-width="9.16667" stroke-linecap="round" stroke-linejoin="round" stroke-miterlimit="10" fill="none" fill-rule="evenodd"/></g><g><text font-family="Inter Medium,Inter Medium_MSFontService,sans-serif" font-weight="500" font-size="37" transform="matrix(1 0 0 1 1830.61 20948)">Occ Index</text></g><g><path d="M2057.5 20936.5 2145.5 20936.5" stroke="#000000" stroke-width="9.16667" stroke-linecap="round" stroke-linejoin="round" stroke-miterlimit="10" fill="none" fill-rule="evenodd"/></g><g><text font-family="Inter Medium,Inter Medium_MSFontService,sans-serif" font-weight="500" font-size="37" transform="matrix(1 0 0 1 2155.16 20948)">ADR Index</text></g><rect x="1658.5" y="20746.5" width="2103" height="1092" stroke="#D9D9D9" stroke-width="3.4375" stroke-linejoin="round" stroke-miterlimit="10" fill="none"/><g><text fill="#7F7F7F" font-family="Inter,Inter_MSFontService,sans-serif" font-weight="400" font-size="32" transform="matrix(1 0 0 1 1739.76 20893)">Indexed to 2023, Source: STR, str.com</text></g><g><g><text font-family="Inter Medium,Inter Medium_MSFontService,sans-serif" font-weight="700" font-size="37" transform="matrix(1 0 0 1 2742.4 21809)">2025</text></g></g></g></svg>