<svg width="2106" height="1094" xmlns="http://www.w3.org/2000/svg" xmlns:xlink="http://www.w3.org/1999/xlink" xml:space="preserve" overflow="hidden"><defs><filter id="fx0" x="-10%" y="-10%" width="120%" height="120%" filterUnits="userSpaceOnUse" primitiveUnits="userSpaceOnUse"><feComponentTransfer color-interpolation-filters="sRGB"><feFuncR type="discrete" tableValues="0 0"/><feFuncG type="discrete" tableValues="0 0"/><feFuncB type="discrete" tableValues="0 0"/><feFuncA type="linear" slope="0.501961" intercept="0"/></feComponentTransfer><feGaussianBlur stdDeviation="4.58333 4.58333"/></filter><filter id="fx1" x="-10%" y="-10%" width="120%" height="120%" filterUnits="userSpaceOnUse" primitiveUnits="userSpaceOnUse"><feComponentTransfer color-interpolation-filters="sRGB"><feFuncR type="discrete" tableValues="0 0"/><feFuncG type="discrete" tableValues="0 0"/><feFuncB type="discrete" tableValues="0 0"/><feFuncA type="linear" slope="0.501961" intercept="0"/></feComponentTransfer><feGaussianBlur stdDeviation="4.58333 4.58333"/></filter><clipPath id="clip2"><rect x="1811" y="24065" width="2106" height="1094"/></clipPath><clipPath id="clip3"><rect x="1978" y="24322" width="1885" height="680"/></clipPath><clipPath id="clip4"><rect x="1978" y="24322" width="1885" height="680"/></clipPath></defs><g clip-path="url(#clip2)" transform="translate(-1811 -24065)"><rect x="1812" y="24066" width="2103" height="1091" fill="#FFFFFF"/><g><rect x="1979" y="24322" width="1882" height="677" fill="#F2F2F2"/></g><g><path d="M1978.5 24547.5 3860.5 24547.5" stroke="#D9D9D9" stroke-width="3.4375" stroke-linejoin="round" stroke-miterlimit="10" fill="none" fill-rule="evenodd"/></g><g clip-path="url(#clip3)"><g filter="url(#fx0)" transform="translate(1971 24477)"><g><path d="M19.9818 74.1829C48.3149 82.9009 76.6483 96.4351 104.982 100.337 133.315 104.238 161.648 97.4415 189.982 97.5919 218.315 97.7419 246.648 101.667 274.982 101.238 303.315 100.809 331.648 98.3399 359.982 95.0193 388.315 91.6983 416.648 77.4931 444.982 81.3138 473.315 85.1341 501.648 114.238 529.982 117.942 558.315 121.645 586.648 94.9445 614.982 103.534 643.315 112.123 671.648 162.975 699.982 169.479 728.315 175.982 756.648 151.5 784.982 142.556 813.315 133.611 841.648 118.11 869.982 115.809 898.315 113.508 926.648 122.112 954.982 128.751 983.315 135.39 1011.65 154.95 1039.98 155.642 1068.31 156.334 1096.65 155.519 1124.98 132.903 1153.31 110.287 1181.65 14.9824 1209.98 19.9462 1238.31 24.9097 1266.65 153.106 1294.98 162.686 1323.31 172.265 1365.81 91.6336 1379.98 77.4233" stroke="#FFB226" stroke-width="9" stroke-linecap="round" stroke-linejoin="round" stroke-miterlimit="10" fill="none"/></g></g></g><g clip-path="url(#clip4)"><g filter="url(#fx1)" transform="translate(1971 24439)"><g><path d="M19.9818 95.7679C48.3149 101.649 76.6483 112.975 104.982 113.412 133.315 113.849 161.648 98.8098 189.982 98.389 218.315 97.9679 246.648 113.476 274.982 110.886 303.315 108.296 331.648 81.7665 359.982 82.8466 388.315 83.9265 416.648 113.519 444.982 117.366 473.315 121.213 501.648 106.706 529.982 105.93 558.315 105.153 586.648 102.88 614.982 112.705 643.315 122.529 671.648 174.982 699.982 164.879 728.315 154.775 756.648 71.6312 784.982 52.0835 813.315 32.5354 841.648 44.3617 869.982 47.5911 898.315 50.8201 926.648 55.018 954.982 71.4585 983.315 87.8986 1011.65 141.623 1039.98 146.233 1068.31 150.842 1096.65 120.157 1124.98 99.1148 1153.31 78.0727 1181.65 15.9824 1209.98 19.9812 1238.31 23.9797 1266.65 107.251 1294.98 123.106 1323.31 138.96 1365.81 116.441 1379.98 115.108" stroke="#000000" stroke-width="9" stroke-linecap="round" stroke-linejoin="round" stroke-miterlimit="10" fill="none"/></g></g></g><g><path d="M1984.5 24544.7C2012.83 24553.4 2041.17 24567 2069.5 24570.9 2097.83 24574.8 2126.17 24568 2154.5 24568.1 2182.83 24568.3 2211.17 24572.2 2239.5 24571.8 2267.83 24571.3 2296.17 24568.9 2324.5 24565.5 2352.83 24562.2 2381.17 24548 2409.5 24551.8 2437.83 24555.7 2466.17 24584.8 2494.5 24588.5 2522.83 24592.2 2551.17 24565.5 2579.5 24574.1 2607.83 24582.6 2636.17 24633.5 2664.5 24640 2692.83 24646.5 2721.17 24622 2749.5 24613.1 2777.83 24604.1 2806.17 24588.6 2834.5 24586.3 2862.83 24584 2891.17 24592.6 2919.5 24599.3 2947.83 24605.9 2976.17 24625.5 3004.5 24626.2 3032.83 24626.9 3061.17 24626 3089.5 24603.4 3117.83 24580.8 3146.17 24485.5 3174.5 24490.5 3202.83 24495.4 3231.17 24623.6 3259.5 24633.2 3287.83 24642.8 3330.33 24562.2 3344.5 24547.9" stroke="#FFB226" stroke-width="9.16667" stroke-linecap="round" stroke-linejoin="round" stroke-miterlimit="10" fill="none"/></g><g><path d="M1984.5 24528.3C2012.83 24534.2 2041.17 24545.5 2069.5 24545.9 2097.83 24546.4 2126.17 24531.3 2154.5 24530.9 2182.83 24530.5 2211.17 24546 2239.5 24543.4 2267.83 24540.8 2296.17 24514.3 2324.5 24515.4 2352.83 24516.4 2381.17 24546 2409.5 24549.9 2437.83 24553.7 2466.17 24539.2 2494.5 24538.4 2522.83 24537.7 2551.17 24535.4 2579.5 24545.2 2607.83 24555 2636.17 24607.5 2664.5 24597.4 2692.83 24587.3 2721.17 24504.1 2749.5 24484.6 2777.83 24465.1 2806.17 24476.9 2834.5 24480.1 2862.83 24483.3 2891.17 24487.5 2919.5 24504 2947.83 24520.4 2976.17 24574.1 3004.5 24578.8 3032.83 24583.4 3061.17 24552.7 3089.5 24531.6 3117.83 24510.6 3146.17 24448.5 3174.5 24452.5 3202.83 24456.5 3231.17 24539.8 3259.5 24555.6 3287.83 24571.5 3330.33 24549 3344.5 24547.6" stroke="#000000" stroke-width="9.16667" stroke-linecap="round" stroke-linejoin="round" stroke-miterlimit="10" fill="none"/></g><g><text font-family="Inter,Inter_MSFontService,sans-serif" font-weight="400" font-size="32" transform="matrix(1 0 0 1 1909.24 25009)">80</text></g><g><text font-family="Inter,Inter_MSFontService,sans-serif" font-weight="400" font-size="32" transform="matrix(1 0 0 1 1909.01 24783)">90</text></g><g><text font-family="Inter,Inter_MSFontService,sans-serif" font-weight="400" font-size="32" transform="matrix(1 0 0 1 1894.07 24558)">100</text></g><g><text font-family="Inter,Inter_MSFontService,sans-serif" font-weight="400" font-size="32" transform="matrix(1 0 0 1 1899.22 24332)">110</text></g><g><text font-family="Inter,Inter_MSFontService,sans-serif" font-weight="400" font-size="32" transform="matrix(0.707107 -0.707107 0.707107 0.707107 1957.31 25077)">8/2</text></g><g><text font-family="Inter,Inter_MSFontService,sans-serif" font-weight="400" font-size="32" transform="matrix(0.707107 -0.707107 0.707107 0.707107 2197.81 25092)">8/23</text></g><g><text font-family="Inter,Inter_MSFontService,sans-serif" font-weight="400" font-size="32" transform="matrix(0.707107 -0.707107 0.707107 0.707107 2455.78 25089)">9/13</text></g><g><text font-family="Inter,Inter_MSFontService,sans-serif" font-weight="400" font-size="32" transform="matrix(0.707107 -0.707107 0.707107 0.707107 2710.57 25089)">10/4</text></g><g><text font-family="Inter,Inter_MSFontService,sans-serif" font-weight="400" font-size="32" transform="matrix(0.707107 -0.707107 0.707107 0.707107 2952.56 25102)">10/25</text></g><g><text font-family="Inter,Inter_MSFontService,sans-serif" font-weight="400" font-size="32" transform="matrix(0.707107 -0.707107 0.707107 0.707107 3214.34 25095)">11/15</text></g><g><text font-family="Inter,Inter_MSFontService,sans-serif" font-weight="400" font-size="32" transform="matrix(0.707107 -0.707107 0.707107 0.707107 3476.27 25088)">12/6</text></g><g><text font-family="Inter,Inter_MSFontService,sans-serif" font-weight="400" font-size="32" transform="matrix(0.707107 -0.707107 0.707107 0.707107 3718.69 25101)">12/27</text></g><g><text font-family="Inter Medium,Inter Medium_MSFontService,sans-serif" font-weight="700" font-size="46" transform="matrix(1 0 0 1 1895.56 24157)">U.S. Hotel Occupancy and ADR Recovery Levels</text></g><g><path d="M1886.5 24256.5 1974.5 24256.5" stroke="#FFB226" stroke-width="9.16667" stroke-linecap="round" stroke-linejoin="round" stroke-miterlimit="10" fill="none" fill-rule="evenodd"/></g><g><text font-family="Inter Medium,Inter Medium_MSFontService,sans-serif" font-weight="500" font-size="37" transform="matrix(1 0 0 1 1984.15 24268)">Occ Index</text></g><g><path d="M2211.5 24256.5 2299.5 24256.5" stroke="#000000" stroke-width="9.16667" stroke-linecap="round" stroke-linejoin="round" stroke-miterlimit="10" fill="none" fill-rule="evenodd"/></g><g><text font-family="Inter Medium,Inter Medium_MSFontService,sans-serif" font-weight="500" font-size="37" transform="matrix(1 0 0 1 2308.7 24268)">ADR Index</text></g><rect x="1812.5" y="24066.5" width="2103" height="1091" stroke="#D9D9D9" stroke-width="3.4375" stroke-linejoin="round" stroke-miterlimit="10" fill="none"/><g><text fill="#7F7F7F" font-family="Inter,Inter_MSFontService,sans-serif" font-weight="400" font-size="32" transform="matrix(1 0 0 1 1893.3 24213)">YOY, Source: STR, str.com</text></g></g></svg>