<svg width="2106" height="1059" xmlns="http://www.w3.org/2000/svg" xmlns:xlink="http://www.w3.org/1999/xlink" xml:space="preserve" overflow="hidden"><defs><filter id="fx0" x="-10%" y="-10%" width="120%" height="120%" filterUnits="userSpaceOnUse" primitiveUnits="userSpaceOnUse"><feComponentTransfer color-interpolation-filters="sRGB"><feFuncR type="discrete" tableValues="0 0"/><feFuncG type="discrete" tableValues="0 0"/><feFuncB type="discrete" tableValues="0 0"/><feFuncA type="linear" slope="0.501961" intercept="0"/></feComponentTransfer><feGaussianBlur stdDeviation="4.58333 4.58333"/></filter><filter id="fx1" x="-10%" y="-10%" width="120%" height="120%" filterUnits="userSpaceOnUse" primitiveUnits="userSpaceOnUse"><feComponentTransfer color-interpolation-filters="sRGB"><feFuncR type="discrete" tableValues="0 0"/><feFuncG type="discrete" tableValues="0 0"/><feFuncB type="discrete" tableValues="0 0"/><feFuncA type="linear" slope="0.501961" intercept="0"/></feComponentTransfer><feGaussianBlur stdDeviation="4.58333 4.58333"/></filter><clipPath id="clip2"><rect x="1657" y="20055" width="2106" height="1059"/></clipPath><clipPath id="clip3"><rect x="1825" y="20303" width="1885" height="659"/></clipPath><clipPath id="clip4"><rect x="1825" y="20303" width="1885" height="659"/></clipPath></defs><g clip-path="url(#clip2)" transform="translate(-1657 -20055)"><rect x="1658" y="20056" width="2103" height="1056" fill="#FFFFFF"/><g><path d="M2744.5 20303.5 2787.59 20303.5 2831.59 20303.5 2875.59 20303.5 2918.6 20303.5 2962.6 20303.5 3005.6 20303.5 3049.6 20303.5 3093.6 20303.5 3136.6 20303.5 3180.6 20303.5 3224.61 20303.5 3267.61 20303.5 3311.61 20303.5 3354.61 20303.5 3398.61 20303.5 3442.61 20303.5 3485.61 20303.5 3529.62 20303.5 3572.62 20303.5 3616.62 20303.5 3660.62 20303.5 3703.5 20303.5 3703.5 20959.5 3660.62 20959.5 3616.62 20959.5 3572.62 20959.5 3529.62 20959.5 3485.61 20959.5 3442.61 20959.5 3398.61 20959.5 3354.61 20959.5 3311.61 20959.5 3267.61 20959.5 3224.61 20959.5 3180.6 20959.5 3136.6 20959.5 3093.6 20959.5 3049.6 20959.5 3005.6 20959.5 2962.6 20959.5 2918.6 20959.5 2875.59 20959.5 2831.59 20959.5 2787.59 20959.5 2744.5 20959.5Z" stroke="#BFBFBF" stroke-width="3.4375" stroke-linejoin="round" stroke-miterlimit="10" stroke-opacity="0.501961" fill="#D9D9D9" fill-opacity="0.501961"/></g><g><path d="M1825.5 20696.5 3707.5 20696.5" stroke="#D9D9D9" stroke-width="3.4375" stroke-linejoin="round" stroke-miterlimit="10" fill="none" fill-rule="evenodd"/></g><g clip-path="url(#clip3)"><g filter="url(#fx0)" transform="translate(1815 20409)"><g><path d="M19.9817 284.6C34.5221 285.212 49.0624 284.525 63.6032 286.434 78.1435 288.344 92.6842 298.474 107.225 296.059 121.765 293.643 136.306 276.444 150.846 271.941 165.387 267.438 179.927 256.296 194.468 269.04 209.008 281.783 223.549 340.676 238.09 348.4 252.63 356.124 267.17 325.707 281.711 315.383 296.252 305.059 310.792 295.566 325.333 286.457 339.873 277.347 354.414 252.368 368.954 260.725 383.495 269.082 398.036 336.772 412.576 336.599 427.117 336.427 441.657 270.253 456.198 259.691 470.738 249.129 485.279 277.412 499.82 273.226 514.36 269.04 528.9 235.118 543.441 234.576 557.981 234.033 572.522 252.642 587.063 269.974 601.603 287.306 616.144 337.693 630.684 338.567 640.871 339.179 664.119 312.291 674.306 275.216 688.846 222.295 703.387 0.982422 717.928 21.0446 732.468 41.1067 747.008 351.194 761.549 395.588 776.089 439.982 790.63 323.478 805.171 287.411 819.711 251.343 834.252 202.927 848.792 179.183 861.009 159.232 880.197 120.066 892.414 144.944 906.955 174.554 921.495 338.977 936.036 356.841 950.576 374.705 965.117 245.795 979.658 252.129 994.198 258.463 1008.74 402.902 1023.28 394.845 1037.82 386.787 1052.36 213.196 1066.9 203.785 1081.44 194.374 1095.98 328.467 1110.52 338.38 1125.06 348.292 1139.6 269.475 1154.14 263.261 1168.68 257.047 1183.22 298.904 1197.77 301.095 1212.31 303.286 1226.85 271.587 1241.39 276.407 1255.93 281.226 1270.47 328.111 1285.01 330.013 1299.55 331.915 1314.09 291.04 1328.63 287.818 1343.17 284.596 1357.71 302.085 1372.25 310.682 1386.79 319.278 1401.33 344.502 1415.87 339.399 1430.41 334.297 1444.95 297.424 1459.5 280.065 1474.04 262.706 1488.58 231.883 1503.12 235.245 1517.66 238.606 1532.2 289.76 1546.74 300.233 1561.11 310.583 1575.99 281.657 1590.36 298.085 1604.9 314.708 1626.71 382.991 1633.98 399.972" stroke="#FFB226" stroke-width="9" stroke-linecap="round" stroke-linejoin="round" stroke-miterlimit="10" fill="none"/></g></g></g><g clip-path="url(#clip4)"><g filter="url(#fx1)" transform="translate(1815 20539)"><g><path d="M19.9817 151.632C34.5221 147.433 49.0624 140.11 63.6032 139.036 78.1435 137.962 92.6842 147.613 107.225 145.188 121.765 142.762 136.306 125.862 150.846 124.483 165.387 123.102 179.927 128.838 194.468 136.907 209.008 144.976 223.549 169.552 238.09 172.899 252.63 176.245 267.17 163.486 281.711 156.988 296.252 150.49 310.792 149.756 325.333 133.911 339.873 118.067 354.414 47.5794 368.954 61.9208 383.495 76.2619 398.036 206.389 412.576 219.96 427.117 233.529 441.657 158.595 456.198 143.34 470.738 128.086 485.279 135.516 499.82 128.433 514.36 121.35 528.9 97.8485 543.441 100.844 557.981 103.84 572.522 135.971 587.063 146.407 601.603 156.843 616.144 158.372 630.684 163.459 644.497 168.291 660.493 195.078 674.306 176.929 688.846 157.824 703.387 45.2293 717.928 48.8306 732.468 52.4319 747.008 188.41 761.549 198.537 776.089 208.664 790.63 134.555 805.171 109.592 819.711 84.6285 834.252 45.9537 848.792 48.7571 863.333 51.5602 877.874 103.661 892.414 126.412 906.955 149.163 921.495 202.93 936.036 185.262 950.576 167.593 965.117 9.98242 979.658 20.3989 994.198 30.8151 1008.74 244.538 1023.28 247.76 1037.82 250.982 1052.36 60.1254 1066.9 39.7331 1081.44 19.3408 1095.98 107.977 1110.52 125.407 1125.06 142.836 1139.6 131.147 1154.14 144.31 1168.68 157.473 1183.22 204.484 1197.77 204.386 1212.31 204.289 1226.85 154.976 1241.39 143.726 1255.93 132.476 1270.47 139.035 1285.01 136.887 1299.55 134.739 1314.09 131.23 1328.63 130.837 1343.17 130.444 1357.71 127.989 1372.25 134.529 1386.79 141.068 1401.33 169.412 1415.87 170.072 1430.41 170.732 1444.95 145.712 1459.5 138.489 1474.04 131.266 1488.58 126.907 1503.12 126.733 1517.66 126.559 1532.2 134.618 1546.74 137.447 1561.28 140.276 1575.82 138.409 1590.36 143.709 1604.9 149.01 1626.71 164.992 1633.98 169.249" stroke="#000000" stroke-width="9" stroke-linecap="round" stroke-linejoin="round" stroke-miterlimit="10" fill="none"/></g></g></g><g><path d="M1828.5 20687.1C1843.04 20687.7 1857.58 20687 1872.12 20689 1886.66 20690.9 1901.2 20701 1915.74 20698.6 1930.28 20696.2 1944.82 20679 1959.36 20674.5 1973.91 20670 1988.45 20658.8 2002.99 20671.6 2017.53 20684.3 2032.07 20743.2 2046.61 20750.9 2061.15 20758.6 2075.69 20728.2 2090.23 20717.9 2104.77 20707.6 2119.31 20698.1 2133.85 20689 2148.39 20679.9 2162.93 20654.9 2177.47 20663.2 2192.01 20671.6 2206.55 20739.3 2221.09 20739.1 2235.63 20738.9 2250.18 20672.8 2264.72 20662.2 2279.26 20651.6 2293.8 20679.9 2308.34 20675.7 2322.88 20671.6 2337.42 20637.6 2351.96 20637.1 2366.5 20636.6 2381.04 20655.2 2395.58 20672.5 2410.12 20689.8 2424.66 20740.2 2439.2 20741.1 2449.39 20741.7 2472.64 20714.8 2482.82 20677.7 2497.36 20624.8 2511.91 20403.5 2526.45 20423.6 2540.99 20443.6 2555.53 20753.7 2570.07 20798.1 2584.61 20842.5 2599.15 20726 2613.69 20689.9 2628.23 20653.9 2642.77 20605.4 2657.31 20581.7 2669.53 20561.8 2688.72 20522.6 2700.93 20547.5 2715.47 20577.1 2730.01 20741.5 2744.55 20759.4 2759.09 20777.2 2773.63 20648.3 2788.18 20654.6 2802.72 20661 2817.26 20805.4 2831.8 20797.4 2846.34 20789.3 2860.88 20615.7 2875.42 20606.3 2889.96 20596.9 2904.5 20731 2919.04 20740.9 2933.58 20750.8 2948.12 20672 2962.66 20665.8 2977.2 20659.6 2991.74 20701.4 3006.28 20703.6 3020.82 20705.8 3035.36 20674.1 3049.91 20678.9 3064.45 20683.7 3078.99 20730.6 3093.53 20732.5 3108.07 20734.4 3122.61 20693.6 3137.15 20690.3 3151.69 20687.1 3166.23 20704.6 3180.77 20713.2 3195.31 20721.8 3209.85 20747 3224.39 20741.9 3238.93 20736.8 3253.47 20699.9 3268.01 20682.6 3282.55 20665.2 3297.09 20634.4 3311.64 20637.8 3326.18 20641.1 3340.72 20692.3 3355.26 20702.8 3369.63 20713.1 3384.51 20684.2 3398.88 20700.6 3413.42 20717.2 3435.23 20785.5 3442.5 20802.5" stroke="#FFB226" stroke-width="9.16667" stroke-linecap="round" stroke-linejoin="round" stroke-miterlimit="10" fill="none"/></g><g><path d="M1828.5 20684.1C1843.04 20680 1857.58 20672.6 1872.12 20671.6 1886.66 20670.5 1901.2 20680.1 1915.74 20677.7 1930.28 20675.3 1944.82 20658.4 1959.36 20657 1973.91 20655.6 1988.45 20661.4 2002.99 20669.4 2017.53 20677.5 2032.07 20702.1 2046.61 20705.4 2061.15 20708.8 2075.69 20696 2090.23 20689.5 2104.77 20683 2119.31 20682.3 2133.85 20666.4 2148.39 20650.6 2162.93 20580.1 2177.47 20594.4 2192.01 20608.8 2206.55 20738.9 2221.09 20752.5 2235.63 20766 2250.18 20691.1 2264.72 20675.9 2279.26 20660.6 2293.8 20668 2308.34 20661 2322.88 20653.9 2337.42 20630.4 2351.96 20633.4 2366.5 20636.4 2381.04 20668.5 2395.58 20678.9 2410.12 20689.4 2424.66 20690.9 2439.2 20696 2453.02 20700.8 2469.01 20727.6 2482.82 20709.4 2497.36 20690.3 2511.91 20577.7 2526.45 20581.3 2540.99 20584.9 2555.53 20720.9 2570.07 20731.1 2584.61 20741.2 2599.15 20667.1 2613.69 20642.1 2628.23 20617.1 2642.77 20578.5 2657.31 20581.3 2671.85 20584.1 2686.39 20636.2 2700.93 20658.9 2715.47 20681.7 2730.01 20735.4 2744.55 20717.8 2759.09 20700.1 2773.63 20542.5 2788.18 20552.9 2802.72 20563.3 2817.26 20777.1 2831.8 20780.3 2846.34 20783.5 2860.88 20592.6 2875.42 20572.2 2889.96 20551.9 2904.5 20640.5 2919.04 20657.9 2933.58 20675.4 2948.12 20663.7 2962.66 20676.8 2977.2 20690 2991.74 20737 3006.28 20736.9 3020.82 20736.8 3035.36 20687.5 3049.91 20676.2 3064.45 20665 3078.99 20671.6 3093.53 20669.4 3108.07 20667.3 3122.61 20663.7 3137.15 20663.4 3151.69 20663 3166.23 20660.5 3180.77 20667 3195.31 20673.6 3209.85 20701.9 3224.39 20702.6 3238.93 20703.2 3253.47 20678.2 3268.01 20671 3282.55 20663.8 3297.09 20659.4 3311.64 20659.2 3326.18 20659.1 3340.72 20667.1 3355.26 20670 3369.8 20672.8 3384.34 20670.9 3398.88 20676.2 3413.42 20681.5 3435.23 20697.5 3442.5 20701.8" stroke="#000000" stroke-width="9.16667" stroke-linecap="round" stroke-linejoin="round" stroke-miterlimit="10" fill="none"/></g><g><text font-family="Inter,Inter_MSFontService,sans-serif" font-weight="400" font-size="32" transform="matrix(1 0 0 1 1755.7 20969)">80</text></g><g><text font-family="Inter,Inter_MSFontService,sans-serif" font-weight="400" font-size="32" transform="matrix(1 0 0 1 1755.47 20838)">90</text></g><g><text font-family="Inter,Inter_MSFontService,sans-serif" font-weight="400" font-size="32" transform="matrix(1 0 0 1 1740.53 20707)">100</text></g><g><text font-family="Inter,Inter_MSFontService,sans-serif" font-weight="400" font-size="32" transform="matrix(1 0 0 1 1745.68 20576)">110</text></g><g><text font-family="Inter,Inter_MSFontService,sans-serif" font-weight="400" font-size="32" transform="matrix(1 0 0 1 1741.17 20445)">120</text></g><g><text font-family="Inter,Inter_MSFontService,sans-serif" font-weight="400" font-size="32" transform="matrix(1 0 0 1 1740.16 20314)">130</text></g><g><text font-family="Inter,Inter_MSFontService,sans-serif" font-weight="400" font-size="32" transform="matrix(0.707107 -0.707107 0.707107 0.707107 1800.1 21038)">8/3</text></g><g><text font-family="Inter,Inter_MSFontService,sans-serif" font-weight="400" font-size="32" transform="matrix(0.707107 -0.707107 0.707107 0.707107 1917.09 21052)">8/24</text></g><g><text font-family="Inter,Inter_MSFontService,sans-serif" font-weight="400" font-size="32" transform="matrix(0.707107 -0.707107 0.707107 0.707107 2050.97 21049)">9/14</text></g><g><text font-family="Inter,Inter_MSFontService,sans-serif" font-weight="400" font-size="32" transform="matrix(0.707107 -0.707107 0.707107 0.707107 2182.56 21048)">10/5</text></g><g><text font-family="Inter,Inter_MSFontService,sans-serif" font-weight="400" font-size="32" transform="matrix(0.707107 -0.707107 0.707107 0.707107 2299.33 21062)">10/26</text></g><g><text font-family="Inter,Inter_MSFontService,sans-serif" font-weight="400" font-size="32" transform="matrix(0.707107 -0.707107 0.707107 0.707107 2437.02 21056)">11/16</text></g><g><text font-family="Inter,Inter_MSFontService,sans-serif" font-weight="400" font-size="32" transform="matrix(0.707107 -0.707107 0.707107 0.707107 2576.4 21047)">12/7</text></g><g><text font-family="Inter,Inter_MSFontService,sans-serif" font-weight="400" font-size="32" transform="matrix(0.707107 -0.707107 0.707107 0.707107 2692.49 21062)">12/28</text></g><g><text font-family="Inter,Inter_MSFontService,sans-serif" font-weight="400" font-size="32" transform="matrix(0.707107 -0.707107 0.707107 0.707107 2840.26 21045)">1/18</text></g><g><text font-family="Inter,Inter_MSFontService,sans-serif" font-weight="400" font-size="32" transform="matrix(0.707107 -0.707107 0.707107 0.707107 2978.45 21038)">2/8</text></g><g><text font-family="Inter,Inter_MSFontService,sans-serif" font-weight="400" font-size="32" transform="matrix(0.707107 -0.707107 0.707107 0.707107 3112.03 21035)">3/1</text></g><g><text font-family="Inter,Inter_MSFontService,sans-serif" font-weight="400" font-size="32" transform="matrix(0.707107 -0.707107 0.707107 0.707107 3225.96 21052)">3/22</text></g><g><text font-family="Inter,Inter_MSFontService,sans-serif" font-weight="400" font-size="32" transform="matrix(0.707107 -0.707107 0.707107 0.707107 3359.87 21049)">4/12</text></g><g><text font-family="Inter,Inter_MSFontService,sans-serif" font-weight="400" font-size="32" transform="matrix(0.707107 -0.707107 0.707107 0.707107 3501.32 21038)">5/3</text></g><g><text font-family="Inter,Inter_MSFontService,sans-serif" font-weight="400" font-size="32" transform="matrix(0.707107 -0.707107 0.707107 0.707107 3618.31 21052)">5/24</text></g><g><text font-family="Inter Medium,Inter Medium_MSFontService,sans-serif" font-weight="700" font-size="46" transform="matrix(1 0 0 1 1742.02 20145)">U.S. Hotel Occupancy and ADR Recovery Levels</text></g><g><path d="M1733.5 20240.5 1821.5 20240.5" stroke="#FFB226" stroke-width="9.16667" stroke-linecap="round" stroke-linejoin="round" stroke-miterlimit="10" fill="none" fill-rule="evenodd"/></g><g><text font-family="Inter Medium,Inter Medium_MSFontService,sans-serif" font-weight="500" font-size="37" transform="matrix(1 0 0 1 1830.61 20252)">Occ Index</text></g><g><path d="M2057.5 20240.5 2145.5 20240.5" stroke="#000000" stroke-width="9.16667" stroke-linecap="round" stroke-linejoin="round" stroke-miterlimit="10" fill="none" fill-rule="evenodd"/></g><g><text font-family="Inter Medium,Inter Medium_MSFontService,sans-serif" font-weight="500" font-size="37" transform="matrix(1 0 0 1 2155.16 20252)">ADR Index</text></g><rect x="1658.5" y="20056.5" width="2103" height="1056" stroke="#D9D9D9" stroke-width="3.4375" stroke-linejoin="round" stroke-miterlimit="10" fill="none"/><g><text fill="#7F7F7F" font-family="Inter,Inter_MSFontService,sans-serif" font-weight="400" font-size="32" transform="matrix(1 0 0 1 1739.76 20199)">Indexed to 2023, Source: STR, str.com</text></g><g><g><text font-family="Inter Medium,Inter Medium_MSFontService,sans-serif" font-weight="700" font-size="37" transform="matrix(1 0 0 1 2742.4 21085)">2025</text></g></g></g></svg>