<svg width="2106" height="1059" xmlns="http://www.w3.org/2000/svg" xmlns:xlink="http://www.w3.org/1999/xlink" xml:space="preserve" overflow="hidden"><defs><filter id="fx0" x="-10%" y="-10%" width="120%" height="120%" filterUnits="userSpaceOnUse" primitiveUnits="userSpaceOnUse"><feComponentTransfer color-interpolation-filters="sRGB"><feFuncR type="discrete" tableValues="0 0"/><feFuncG type="discrete" tableValues="0 0"/><feFuncB type="discrete" tableValues="0 0"/><feFuncA type="linear" slope="0.501961" intercept="0"/></feComponentTransfer><feGaussianBlur stdDeviation="4.58333 4.58333"/></filter><filter id="fx1" x="-10%" y="-10%" width="120%" height="120%" filterUnits="userSpaceOnUse" primitiveUnits="userSpaceOnUse"><feComponentTransfer color-interpolation-filters="sRGB"><feFuncR type="discrete" tableValues="0 0"/><feFuncG type="discrete" tableValues="0 0"/><feFuncB type="discrete" tableValues="0 0"/><feFuncA type="linear" slope="0.501961" intercept="0"/></feComponentTransfer><feGaussianBlur stdDeviation="4.58333 4.58333"/></filter><clipPath id="clip2"><rect x="2126" y="19401" width="2106" height="1059"/></clipPath><clipPath id="clip3"><rect x="2293" y="19650" width="1885" height="659"/></clipPath><clipPath id="clip4"><rect x="2293" y="19650" width="1885" height="659"/></clipPath></defs><g clip-path="url(#clip2)" transform="translate(-2126 -19401)"><rect x="2127" y="19402" width="2103" height="1056" fill="#FFFFFF"/><g><path d="M3918.5 19650.5 3950.63 19650.5 3982.63 19650.5 4013.63 19650.5 4045.63 19650.5 4077.63 19650.5 4109.64 19650.5 4141.5 19650.5 4141.5 20305.5 4109.64 20305.5 4077.63 20305.5 4045.63 20305.5 4013.63 20305.5 3982.63 20305.5 3950.63 20305.5 3918.5 20305.5Z" stroke="#BFBFBF" stroke-width="3.4375" stroke-linejoin="round" stroke-miterlimit="10" stroke-opacity="0.501961" fill="#D9D9D9" fill-opacity="0.501961"/></g><g><path d="M2293.5 20043.5 4175.5 20043.5" stroke="#D9D9D9" stroke-width="3.4375" stroke-linejoin="round" stroke-miterlimit="10" fill="none" fill-rule="evenodd"/></g><g clip-path="url(#clip3)"><g filter="url(#fx0)" transform="translate(2283 19756)"><g><path d="M19.9819 305.203C30.5845 313.452 41.1871 323.747 51.7896 329.951 62.3922 336.156 72.9948 348.017 83.5973 342.43 94.1999 336.843 104.802 304.09 115.405 296.43 126.008 288.771 136.61 290.818 147.213 296.472 157.815 302.126 168.418 325.007 179.02 330.357 189.623 335.706 200.226 327.13 210.828 328.568 221.431 330.005 232.033 343.683 242.636 338.982 253.238 334.281 263.841 302.779 274.443 300.36 285.046 297.941 295.649 321.957 306.251 324.466 316.854 326.975 327.456 321.82 338.059 315.415 348.661 309.009 359.264 276.725 369.867 286.033 380.469 295.34 391.072 379.882 401.674 371.257 412.277 362.633 422.879 252.583 433.482 234.284 443.968 216.186 454.803 250.32 465.29 261.466 475.892 272.735 486.495 293.51 497.097 301.9 507.7 310.289 518.302 310.423 528.905 311.802 539.508 313.181 550.11 316.476 560.713 310.173 571.315 303.871 581.918 276.342 592.52 273.987 603.123 271.632 613.726 295.632 624.328 296.044 634.931 296.456 645.533 278.2 656.136 276.46 666.738 274.719 677.341 281.716 687.944 285.6 698.546 289.484 709.149 296.806 719.751 299.765 730.354 302.724 740.956 298.488 751.559 303.353 762.161 308.218 772.764 336.74 783.367 328.954 793.969 321.167 804.572 260.675 815.174 256.633 825.777 252.59 836.379 289.966 846.982 304.7 857.585 319.433 868.187 348.596 878.79 345.034 889.392 341.471 899.995 291.209 910.597 283.325 921.2 275.442 931.803 297.519 942.405 297.732 953.007 297.944 963.61 286.483 974.212 284.6 984.815 282.717 995.418 284.525 1006.02 286.434 1016.62 288.344 1027.23 298.474 1037.83 296.059 1048.43 293.643 1059.03 276.444 1069.64 271.941 1079.85 267.604 1091.23 256.767 1101.44 269.04 1112.05 281.783 1122.65 340.676 1133.25 348.4 1143.85 356.124 1154.46 325.707 1165.06 315.383 1175.66 305.059 1186.26 295.566 1196.87 286.457 1207.47 277.347 1218.07 252.368 1228.67 260.725 1239.28 269.082 1249.88 336.772 1260.48 336.599 1271.08 336.427 1281.69 270.253 1292.29 259.691 1302.89 249.129 1313.49 277.412 1324.1 273.226 1334.7 269.04 1345.3 235.118 1355.9 234.576 1366.51 234.033 1377.11 252.642 1387.71 269.974 1398.32 287.306 1408.92 337.693 1419.52 338.567 1426.48 339.14 1444.37 309.966 1451.33 275.216 1461.93 222.295 1472.53 0.982422 1483.14 21.0446 1493.74 41.1067 1504.34 351.194 1514.94 395.588 1525.55 439.982 1536.15 323.478 1546.75 287.411 1557.35 251.343 1567.96 202.927 1578.56 179.183 1586.43 161.544 1602.49 122.949 1610.37 144.944 1620.97 174.554 1631.57 338.977 1642.17 356.841 1652.78 374.705 1668.68 269.581 1673.98 252.129" stroke="#FFB226" stroke-width="9" stroke-linecap="round" stroke-linejoin="round" stroke-miterlimit="10" fill="none"/></g></g></g><g clip-path="url(#clip4)"><g filter="url(#fx1)" transform="translate(2283 19886)"><g><path d="M19.9819 78.1591C30.5845 79.5148 41.1871 71.2357 51.7896 82.2264 62.3922 93.2168 72.9948 141.357 83.5973 144.102 94.1999 146.846 104.802 99.3709 115.405 98.6934 126.008 98.0156 136.61 143.611 147.213 140.035 157.815 136.459 168.418 81.8522 179.02 77.2371 189.623 72.6216 200.226 98.07 210.828 112.343 221.431 126.615 232.033 159.974 242.636 162.874 253.238 165.774 263.841 127.88 274.443 129.742 285.046 131.604 295.649 163.372 306.251 174.046 316.854 184.72 327.456 200.538 338.059 193.785 348.661 187.032 359.264 136.792 369.867 133.527 380.469 130.263 391.072 174.359 401.674 174.198 412.277 174.038 422.879 141.133 433.482 132.564 444.085 123.995 454.687 121.553 465.29 122.783 475.892 124.012 486.495 130.735 497.097 139.944 507.7 149.152 518.302 177.31 528.905 178.035 539.508 178.76 550.11 156.855 560.713 144.291 571.315 131.728 581.918 105.703 592.52 102.655 603.123 99.6072 613.726 121.436 624.328 126.003 634.931 130.57 645.533 124.612 656.136 130.055 666.738 135.497 677.341 157.473 687.944 158.658 698.546 159.843 709.149 138.875 719.751 137.166 730.354 135.458 740.956 145.175 751.559 148.407 762.161 151.638 772.764 163.113 783.367 156.554 793.969 149.994 804.572 109.887 815.174 109.051 825.777 108.214 836.379 140 846.982 151.536 857.585 163.072 868.187 181.968 878.79 178.266 889.392 174.563 899.995 135.263 910.597 129.322 921.2 123.38 931.803 138.981 942.405 142.616 953.007 146.252 963.61 151.813 974.212 151.135 984.815 150.456 995.418 139.62 1006.02 138.547 1016.62 137.473 1027.23 147.119 1037.83 144.695 1048.43 142.271 1059.03 125.381 1069.64 124.002 1080.24 122.623 1090.84 128.355 1101.44 136.419 1112.05 144.484 1122.65 169.044 1133.25 172.389 1143.85 175.734 1154.46 162.982 1165.06 156.488 1175.66 149.994 1186.26 149.26 1196.87 133.425 1207.47 117.59 1218.07 47.1462 1228.67 61.4789 1239.28 75.8112 1249.88 205.859 1260.48 219.421 1271.08 232.983 1281.69 158.094 1292.29 142.849 1302.31 128.443 1314.08 134.639 1324.1 127.951 1334.7 120.872 1345.3 97.3846 1355.9 100.379 1366.51 103.372 1377.11 135.484 1387.71 145.914 1398.32 156.343 1408.92 157.871 1419.52 162.955 1427.9 166.971 1442.95 191.498 1451.33 176.417 1461.93 157.324 1472.53 44.7976 1483.14 48.3967 1493.74 51.9958 1504.34 187.891 1514.94 198.011 1525.55 208.132 1536.15 134.069 1546.75 109.121 1557.35 84.1728 1567.96 45.5215 1578.56 48.3233 1589.16 51.1246 1599.76 103.194 1610.37 125.931 1620.97 148.667 1631.57 202.402 1642.17 184.744 1652.78 167.086 1668.68 47.4427 1673.98 19.9824" stroke="#000000" stroke-width="9" stroke-linecap="round" stroke-linejoin="round" stroke-miterlimit="10" fill="none"/></g></g></g><g><path d="M2296.5 20054.7C2307.1 20063 2317.71 20073.3 2328.31 20079.5 2338.91 20085.7 2349.51 20097.5 2360.12 20091.9 2370.72 20086.4 2381.32 20053.6 2391.92 20045.9 2402.53 20038.3 2413.13 20040.3 2423.73 20046 2434.33 20051.6 2444.94 20074.5 2455.54 20079.9 2466.14 20085.2 2476.74 20076.6 2487.35 20078.1 2497.95 20079.5 2508.55 20093.2 2519.15 20088.5 2529.76 20083.8 2540.36 20052.3 2550.96 20049.9 2561.56 20047.5 2572.17 20071.5 2582.77 20074 2593.37 20076.5 2603.97 20071.3 2614.58 20064.9 2625.18 20058.5 2635.78 20026.2 2646.38 20035.6 2656.99 20044.9 2667.59 20129.4 2678.19 20120.8 2688.79 20112.2 2699.4 20002.1 2710 19983.8 2720.49 19965.7 2731.32 19999.8 2741.81 20011 2752.41 20022.3 2763.01 20043 2773.62 20051.4 2784.22 20059.8 2794.82 20059.9 2805.42 20061.3 2816.03 20062.7 2826.63 20066 2837.23 20059.7 2847.83 20053.4 2858.44 20025.9 2869.04 20023.5 2879.64 20021.2 2890.24 20045.2 2900.85 20045.6 2911.45 20046 2922.05 20027.7 2932.65 20026 2943.26 20024.2 2953.86 20031.2 2964.46 20035.1 2975.06 20039 2985.67 20046.3 2996.27 20049.3 3006.87 20052.2 3017.47 20048 3028.08 20052.9 3038.68 20057.7 3049.28 20086.3 3059.88 20078.5 3070.49 20070.7 3081.09 20010.2 3091.69 20006.2 3102.29 20002.1 3112.9 20039.5 3123.5 20054.2 3134.1 20069 3144.71 20098.1 3155.31 20094.6 3165.91 20091 3176.51 20040.7 3187.12 20032.8 3197.72 20025 3208.32 20047 3218.92 20047.2 3229.53 20047.5 3240.13 20036 3250.73 20034.1 3261.33 20032.2 3271.94 20034 3282.54 20036 3293.14 20037.9 3303.74 20048 3314.35 20045.6 3324.95 20043.2 3335.55 20026 3346.15 20021.5 3356.36 20017.1 3367.75 20006.3 3377.96 20018.6 3388.56 20031.3 3399.17 20090.2 3409.77 20097.9 3420.37 20105.6 3430.97 20075.2 3441.58 20064.9 3452.18 20054.6 3462.78 20045.1 3473.38 20036 3483.99 20026.9 3494.59 20001.9 3505.19 20010.2 3515.79 20018.6 3526.4 20086.3 3537 20086.1 3547.6 20085.9 3558.2 20019.8 3568.81 20009.2 3579.41 19998.6 3590.01 20026.9 3600.62 20022.7 3611.22 20018.6 3621.82 19984.6 3632.42 19984.1 3643.03 19983.6 3653.63 20002.2 3664.23 20019.5 3674.83 20036.8 3685.44 20087.2 3696.04 20088.1 3703 20088.7 3720.88 20059.5 3727.85 20024.7 3738.45 19971.8 3749.05 19750.5 3759.65 19770.6 3770.26 19790.6 3780.86 20100.7 3791.46 20145.1 3802.06 20189.5 3812.67 20073 3823.27 20036.9 3833.87 20000.9 3844.47 19952.4 3855.08 19928.7 3862.95 19911.1 3879.01 19872.5 3886.88 19894.5 3897.49 19924.1 3908.09 20088.5 3918.69 20106.4 3929.29 20124.2 3945.2 20019.1 3950.5 20001.6" stroke="#FFB226" stroke-width="9.16667" stroke-linecap="round" stroke-linejoin="round" stroke-miterlimit="10" fill="none"/></g><g><path d="M2296.5 19957.7C2307.1 19959 2317.71 19950.8 2328.31 19961.7 2338.91 19972.7 2349.51 20020.9 2360.12 20023.6 2370.72 20026.4 2381.32 19978.9 2391.92 19978.2 2402.53 19977.5 2413.13 20023.1 2423.73 20019.6 2434.33 20016 2444.94 19961.4 2455.54 19956.8 2466.14 19952.1 2476.74 19977.6 2487.35 19991.9 2497.95 20006.1 2508.55 20039.5 2519.15 20042.4 2529.76 20045.3 2540.36 20007.4 2550.96 20009.3 2561.56 20011.1 2572.17 20042.9 2582.77 20053.6 2593.37 20064.2 2603.97 20080.1 2614.58 20073.3 2625.18 20066.5 2635.78 20016.3 2646.38 20013 2656.99 20009.8 2667.59 20053.9 2678.19 20053.7 2688.79 20053.6 2699.4 20020.7 2710 20012.1 2720.6 20003.5 2731.21 20001.1 2741.81 20002.3 2752.41 20003.5 2763.01 20010.3 2773.62 20019.5 2784.22 20028.7 2794.82 20056.8 2805.42 20057.6 2816.03 20058.3 2826.63 20036.4 2837.23 20023.8 2847.83 20011.2 2858.44 19985.2 2869.04 19982.2 2879.64 19979.1 2890.24 20001 2900.85 20005.5 2911.45 20010.1 2922.05 20004.1 2932.65 20009.6 2943.26 20015 2953.86 20037 2964.46 20038.2 2975.06 20039.4 2985.67 20018.4 2996.27 20016.7 3006.87 20015 3017.47 20024.7 3028.08 20027.9 3038.68 20031.2 3049.28 20042.6 3059.88 20036.1 3070.49 20029.5 3081.09 19989.4 3091.69 19988.6 3102.29 19987.7 3112.9 20019.5 3123.5 20031.1 3134.1 20042.6 3144.71 20061.5 3155.31 20057.8 3165.91 20054.1 3176.51 20014.8 3187.12 20008.8 3197.72 20002.9 3208.32 20018.5 3218.92 20022.1 3229.53 20025.8 3240.13 20031.3 3250.73 20030.7 3261.33 20030 3271.94 20019.1 3282.54 20018.1 3293.14 20017 3303.74 20026.6 3314.35 20024.2 3324.95 20021.8 3335.55 20004.9 3346.15 20003.5 3356.76 20002.1 3367.36 20007.9 3377.96 20015.9 3388.56 20024 3399.17 20048.6 3409.77 20051.9 3420.37 20055.3 3430.97 20042.5 3441.58 20036 3452.18 20029.5 3462.78 20028.8 3473.38 20012.9 3483.99 19997.1 3494.59 19926.7 3505.19 19941 3515.79 19955.3 3526.4 20085.4 3537 20098.9 3547.6 20112.5 3558.2 20037.6 3568.81 20022.4 3578.83 20008 3590.6 20014.2 3600.62 20007.5 3611.22 20000.4 3621.82 19976.9 3632.42 19979.9 3643.03 19982.9 3653.63 20015 3664.23 20025.4 3674.83 20035.9 3685.44 20037.4 3696.04 20042.5 3704.41 20046.5 3719.47 20071 3727.85 20055.9 3738.45 20036.8 3749.05 19924.3 3759.65 19927.9 3770.26 19931.5 3780.86 20067.4 3791.46 20077.5 3802.06 20087.7 3812.67 20013.6 3823.27 19988.6 3833.87 19963.7 3844.47 19925 3855.08 19927.8 3865.68 19930.6 3876.28 19982.7 3886.88 20005.4 3897.49 20028.2 3908.09 20081.9 3918.69 20064.3 3929.29 20046.6 3945.2 19927 3950.5 19899.5" stroke="#000000" stroke-width="9.16667" stroke-linecap="round" stroke-linejoin="round" stroke-miterlimit="10" fill="none"/></g><g><text font-family="Inter,Inter_MSFontService,sans-serif" font-weight="400" font-size="32" transform="matrix(1 0 0 1 2224.14 20316)">80</text></g><g><text font-family="Inter,Inter_MSFontService,sans-serif" font-weight="400" font-size="32" transform="matrix(1 0 0 1 2223.92 20184)">90</text></g><g><text font-family="Inter,Inter_MSFontService,sans-serif" font-weight="400" font-size="32" transform="matrix(1 0 0 1 2208.97 20053)">100</text></g><g><text font-family="Inter,Inter_MSFontService,sans-serif" font-weight="400" font-size="32" transform="matrix(1 0 0 1 2214.13 19922)">110</text></g><g><text font-family="Inter,Inter_MSFontService,sans-serif" font-weight="400" font-size="32" transform="matrix(1 0 0 1 2209.62 19791)">120</text></g><g><text font-family="Inter,Inter_MSFontService,sans-serif" font-weight="400" font-size="32" transform="matrix(1 0 0 1 2208.61 19660)">130</text></g><g><text font-family="Inter,Inter_MSFontService,sans-serif" font-weight="400" font-size="32" transform="matrix(0.707107 -0.707107 0.707107 0.707107 2271.44 20381)">1/6</text></g><g><text font-family="Inter,Inter_MSFontService,sans-serif" font-weight="400" font-size="32" transform="matrix(0.707107 -0.707107 0.707107 0.707107 2354.37 20394)">1/27</text></g><g><text font-family="Inter,Inter_MSFontService,sans-serif" font-weight="400" font-size="32" transform="matrix(0.707107 -0.707107 0.707107 0.707107 2449.82 20394)">2/17</text></g><g><text font-family="Inter,Inter_MSFontService,sans-serif" font-weight="400" font-size="32" transform="matrix(0.707107 -0.707107 0.707107 0.707107 2553.89 20385)">3/9</text></g><g><text font-family="Inter,Inter_MSFontService,sans-serif" font-weight="400" font-size="32" transform="matrix(0.707107 -0.707107 0.707107 0.707107 2634.87 20399)">3/30</text></g><g><text font-family="Inter,Inter_MSFontService,sans-serif" font-weight="400" font-size="32" transform="matrix(0.707107 -0.707107 0.707107 0.707107 2730.9 20399)">4/20</text></g><g><text font-family="Inter,Inter_MSFontService,sans-serif" font-weight="400" font-size="32" transform="matrix(0.707107 -0.707107 0.707107 0.707107 2833.97 20391)">5/11</text></g><g><text font-family="Inter,Inter_MSFontService,sans-serif" font-weight="400" font-size="32" transform="matrix(0.707107 -0.707107 0.707107 0.707107 2939.59 20381)">6/1</text></g><g><text font-family="Inter,Inter_MSFontService,sans-serif" font-weight="400" font-size="32" transform="matrix(0.707107 -0.707107 0.707107 0.707107 3018.13 20398)">6/22</text></g><g><text font-family="Inter,Inter_MSFontService,sans-serif" font-weight="400" font-size="32" transform="matrix(0.707107 -0.707107 0.707107 0.707107 3117.25 20394)">7/13</text></g><g><text font-family="Inter,Inter_MSFontService,sans-serif" font-weight="400" font-size="32" transform="matrix(0.707107 -0.707107 0.707107 0.707107 3222.2 20385)">8/3</text></g><g><text font-family="Inter,Inter_MSFontService,sans-serif" font-weight="400" font-size="32" transform="matrix(0.707107 -0.707107 0.707107 0.707107 3303.79 20399)">8/24</text></g><g><text font-family="Inter,Inter_MSFontService,sans-serif" font-weight="400" font-size="32" transform="matrix(0.707107 -0.707107 0.707107 0.707107 3402.27 20396)">9/14</text></g><g><text font-family="Inter,Inter_MSFontService,sans-serif" font-weight="400" font-size="32" transform="matrix(0.707107 -0.707107 0.707107 0.707107 3498.47 20395)">10/5</text></g><g><text font-family="Inter,Inter_MSFontService,sans-serif" font-weight="400" font-size="32" transform="matrix(0.707107 -0.707107 0.707107 0.707107 3579.84 20409)">10/26</text></g><g><text font-family="Inter,Inter_MSFontService,sans-serif" font-weight="400" font-size="32" transform="matrix(0.707107 -0.707107 0.707107 0.707107 3682.13 20402)">11/16</text></g><g><text font-family="Inter,Inter_MSFontService,sans-serif" font-weight="400" font-size="32" transform="matrix(0.707107 -0.707107 0.707107 0.707107 3786.12 20394)">12/7</text></g><g><text font-family="Inter,Inter_MSFontService,sans-serif" font-weight="400" font-size="32" transform="matrix(0.707107 -0.707107 0.707107 0.707107 3866.8 20408)">12/28</text></g><g><text font-family="Inter,Inter_MSFontService,sans-serif" font-weight="400" font-size="32" transform="matrix(0.707107 -0.707107 0.707107 0.707107 3979.17 20391)">1/18</text></g><g><text font-family="Inter,Inter_MSFontService,sans-serif" font-weight="400" font-size="32" transform="matrix(0.707107 -0.707107 0.707107 0.707107 4081.96 20384)">2/8</text></g><g><text font-family="Inter Medium,Inter Medium_MSFontService,sans-serif" font-weight="700" font-size="46" transform="matrix(1 0 0 1 2210.47 19492)">U.S. Hotel Occupancy and ADR Recovery Levels</text></g><g><path d="M2201.5 19586.5 2289.5 19586.5" stroke="#FFB226" stroke-width="9.16667" stroke-linecap="round" stroke-linejoin="round" stroke-miterlimit="10" fill="none" fill-rule="evenodd"/></g><g><text font-family="Inter Medium,Inter Medium_MSFontService,sans-serif" font-weight="500" font-size="37" transform="matrix(1 0 0 1 2299.05 19598)">Occ Index</text></g><g><path d="M2526.5 19586.5 2614.5 19586.5" stroke="#000000" stroke-width="9.16667" stroke-linecap="round" stroke-linejoin="round" stroke-miterlimit="10" fill="none" fill-rule="evenodd"/></g><g><text font-family="Inter Medium,Inter Medium_MSFontService,sans-serif" font-weight="500" font-size="37" transform="matrix(1 0 0 1 2623.61 19598)">ADR Index</text></g><rect x="2127.5" y="19402.5" width="2103" height="1056" stroke="#D9D9D9" stroke-width="3.4375" stroke-linejoin="round" stroke-miterlimit="10" fill="none"/><g><text fill="#7F7F7F" font-family="Inter,Inter_MSFontService,sans-serif" font-weight="400" font-size="32" transform="matrix(1 0 0 1 2208.21 19546)">Indexed to 2023, Source: STR, str.com</text></g><g><g><text font-family="Inter Medium,Inter Medium_MSFontService,sans-serif" font-weight="700" font-size="37" transform="matrix(1 0 0 1 3920.94 20435)">2025</text></g></g></g></svg>