<svg width="2106" height="1059" xmlns="http://www.w3.org/2000/svg" xmlns:xlink="http://www.w3.org/1999/xlink" xml:space="preserve" overflow="hidden"><defs><filter id="fx0" x="-10%" y="-10%" width="120%" height="120%" filterUnits="userSpaceOnUse" primitiveUnits="userSpaceOnUse"><feComponentTransfer color-interpolation-filters="sRGB"><feFuncR type="discrete" tableValues="0 0"/><feFuncG type="discrete" tableValues="0 0"/><feFuncB type="discrete" tableValues="0 0"/><feFuncA type="linear" slope="0.501961" intercept="0"/></feComponentTransfer><feGaussianBlur stdDeviation="4.58333 4.58333"/></filter><filter id="fx1" x="-10%" y="-10%" width="120%" height="120%" filterUnits="userSpaceOnUse" primitiveUnits="userSpaceOnUse"><feComponentTransfer color-interpolation-filters="sRGB"><feFuncR type="discrete" tableValues="0 0"/><feFuncG type="discrete" tableValues="0 0"/><feFuncB type="discrete" tableValues="0 0"/><feFuncA type="linear" slope="0.501961" intercept="0"/></feComponentTransfer><feGaussianBlur stdDeviation="4.58333 4.58333"/></filter><clipPath id="clip2"><rect x="2444" y="16555" width="2106" height="1059"/></clipPath><clipPath id="clip3"><rect x="2612" y="16804" width="1885" height="658"/></clipPath><clipPath id="clip4"><rect x="2612" y="16804" width="1885" height="658"/></clipPath><clipPath id="clip5"><rect x="2612" y="16804" width="1885" height="658"/></clipPath></defs><g clip-path="url(#clip2)" transform="translate(-2444 -16555)"><rect x="2445" y="16556" width="2103" height="1056" fill="#FFFFFF"/><g><path d="M2612.5 17131.5 4494.5 17131.5" stroke="#D9D9D9" stroke-width="3.4375" stroke-linejoin="round" stroke-miterlimit="10" fill="none" fill-rule="evenodd"/></g><g clip-path="url(#clip3)"><g filter="url(#fx0)" transform="translate(2601 16790)"><g><path d="M19.9819 362.124C32.25 372.46 44.518 385.357 56.786 393.13 69.0537 400.904 81.3217 415.763 93.5897 408.764 105.857 401.764 118.126 360.73 130.394 351.134 142.661 341.537 154.93 344.102 167.198 351.186 179.465 358.27 191.734 386.936 204.002 393.638 216.269 400.34 228.537 389.596 240.805 391.397 253.073 393.198 265.341 410.334 277.609 404.445 289.877 398.555 302.145 359.088 314.413 356.057 326.681 353.026 338.949 383.115 351.217 386.258 363.485 389.402 375.753 382.943 388.021 374.918 400.289 366.893 412.557 326.446 424.825 338.107 437.093 349.767 449.361 455.686 461.629 444.88 473.896 434.075 486.165 296.199 498.433 273.274 510.266 251.161 523.404 293.71 535.237 307.328 547.505 321.447 559.773 347.475 572.041 357.986 584.308 368.496 596.577 368.664 608.845 370.392 621.112 372.119 633.381 376.247 645.649 368.351 657.916 360.455 670.185 325.965 682.453 323.015 694.72 320.065 706.988 350.134 719.256 350.65 731.524 351.166 743.792 328.294 756.06 326.113 768.328 323.932 780.596 332.699 792.864 337.565 805.132 342.431 817.4 351.605 829.668 355.312 841.936 359.018 854.204 353.712 866.472 359.807 878.74 365.901 891.008 401.636 903.276 391.881 915.544 382.125 927.812 306.337 940.08 301.273 952.348 296.209 964.616 343.035 976.884 361.494 989.152 379.953 1001.42 416.49 1013.69 412.027 1025.96 407.563 1038.22 344.592 1050.49 334.715 1062.76 324.838 1075.03 352.498 1087.3 352.764 1099.56 353.03 1111.83 338.671 1124.1 336.312 1136.37 333.953 1148.64 336.217 1160.9 338.61 1173.17 341.003 1185.44 353.694 1197.71 350.668 1209.98 347.642 1222.24 326.094 1234.51 320.453 1245.79 315.267 1260.04 302.144 1271.32 316.817 1283.58 332.782 1295.85 406.567 1308.12 416.244 1320.39 425.921 1332.66 387.813 1344.92 374.879 1357.19 361.944 1369.46 350.051 1381.73 338.638 1393.99 327.225 1406.26 295.93 1418.53 306.401 1430.8 316.871 1443.07 401.675 1455.33 401.459 1467.6 401.243 1479.87 318.337 1492.14 305.104 1504.41 291.871 1516.67 327.306 1528.94 322.062 1541.21 316.818 1553.48 274.318 1565.75 273.639 1578.01 272.96 1590.28 296.273 1602.55 317.987 1614.82 339.701 1627.09 402.829 1639.35 403.924 1647.31 404.634 1668.2 367.575 1676.16 324.554 1688.43 258.253 1700.69-19.0176 1712.96 6.11721 1725.23 31.252 1737.5 419.743 1749.77 475.363 1762.03 530.982 1774.3 385.021 1786.57 339.834 1798.84 294.646 1811.11 233.988 1823.37 204.24 1832.25 182.716 1851.3 134.503 1860.18 161.344 1872.45 198.441 1884.71 338.327 1896.98 426.819" stroke="#FFB226" stroke-width="9" stroke-linecap="round" stroke-linejoin="round" stroke-miterlimit="10" fill="none"/></g></g></g><g clip-path="url(#clip4)"><g filter="url(#fx1)" transform="translate(2601 16974)"><g><path d="M19.9819 56.8211C32.25 58.5212 44.518 48.1389 56.786 61.9218 69.0537 75.7047 81.3217 136.076 93.5897 139.519 105.857 142.96 118.126 83.4225 130.394 82.5727 142.661 81.7224 154.93 138.903 167.198 134.419 179.465 129.934 191.734 61.4524 204.002 55.6645 216.269 49.8762 228.537 81.7907 240.805 99.6904 253.073 117.59 265.341 159.424 277.609 163.061 289.877 166.697 302.145 119.174 314.413 121.51 326.681 123.845 338.949 163.685 351.217 177.071 363.485 190.457 375.753 210.295 388.021 201.826 400.289 193.357 412.557 130.351 424.825 126.257 437.093 122.163 449.361 177.464 461.629 177.262 473.896 177.061 486.165 135.796 498.433 125.049 510.701 114.303 522.969 111.24 535.237 112.783 547.505 114.325 559.773 122.755 572.041 134.304 584.308 145.852 596.577 181.165 608.845 182.074 621.112 182.983 633.381 155.511 645.649 139.756 657.916 124.001 670.185 91.3637 682.453 87.5414 694.72 83.7188 706.988 111.095 719.256 116.821 731.524 122.548 743.792 115.077 756.06 121.902 768.328 128.728 780.596 156.287 792.864 157.773 805.132 159.26 817.4 132.964 829.668 130.821 841.936 128.678 854.204 140.865 866.472 144.917 878.74 148.969 891.008 163.36 903.276 155.135 915.544 146.909 927.812 96.6103 940.08 95.5617 952.348 94.5127 964.616 134.375 976.884 148.842 989.152 163.309 1001.42 187.006 1013.69 182.363 1025.96 177.72 1038.22 128.435 1050.49 120.984 1062.76 113.532 1075.03 133.096 1087.3 137.656 1099.56 142.215 1111.83 149.189 1124.1 148.339 1136.37 147.488 1148.64 133.898 1160.9 132.552 1173.17 131.206 1185.44 143.302 1197.71 140.262 1209.98 137.222 1222.24 116.042 1234.51 114.312 1246.78 112.583 1259.05 119.771 1271.32 129.884 1283.58 139.997 1295.85 170.798 1308.12 174.993 1320.39 179.187 1332.66 163.196 1344.92 155.052 1357.19 146.908 1369.46 145.988 1381.73 126.13 1393.99 106.271 1406.26 17.9284 1418.53 35.9029 1430.8 53.8769 1443.07 216.968 1455.33 233.975 1467.6 250.982 1479.87 157.066 1492.14 137.947 1503.29 120.57 1517.79 127.332 1528.94 119.264 1541.21 110.387 1553.48 80.9315 1565.75 84.6861 1578.01 88.4404 1590.28 128.711 1602.55 141.791 1614.82 154.87 1627.09 156.786 1639.35 163.162 1648.59 167.962 1666.92 198.073 1676.16 180.044 1688.43 156.1 1700.69 14.9824 1712.96 19.4963 1725.23 24.0098 1737.5 194.433 1749.77 207.126 1762.03 219.818 1774.3 126.936 1786.57 95.6495 1798.84 64.3626 1811.11 15.8908 1823.37 19.4045 1835.64 22.9178 1847.91 88.2164 1860.18 116.73 1872.45 145.244 1884.71 165.901 1896.98 190.487" stroke="#000000" stroke-width="9" stroke-linecap="round" stroke-linejoin="round" stroke-miterlimit="10" fill="none"/></g></g></g><g clip-path="url(#clip5)"><path d="M2614.5 17145.6C2626.77 17156 2639.04 17168.9 2651.3 17176.6 2663.57 17184.4 2675.84 17199.3 2688.11 17192.3 2700.38 17185.3 2712.64 17144.2 2724.91 17134.7 2737.18 17125.1 2749.45 17127.6 2761.72 17134.7 2773.98 17141.8 2786.25 17170.5 2798.52 17177.2 2810.79 17183.9 2823.06 17173.1 2835.32 17174.9 2847.59 17176.7 2859.86 17193.9 2872.13 17188 2884.4 17182.1 2896.66 17142.6 2908.93 17139.6 2921.2 17136.5 2933.47 17166.6 2945.74 17169.8 2958 17172.9 2970.27 17166.5 2982.54 17158.4 2994.81 17150.4 3007.08 17110 3019.34 17121.6 3031.61 17133.3 3043.88 17239.2 3056.15 17228.4 3068.41 17217.6 3080.68 17079.7 3092.95 17056.8 3104.78 17034.7 3117.92 17077.2 3129.76 17090.8 3142.02 17105 3154.29 17131 3166.56 17141.5 3178.83 17152 3191.09 17152.2 3203.36 17153.9 3215.63 17155.6 3227.9 17159.8 3240.17 17151.9 3252.43 17144 3264.7 17109.5 3276.97 17106.5 3289.24 17103.6 3301.51 17133.7 3313.77 17134.2 3326.04 17134.7 3338.31 17111.8 3350.58 17109.6 3362.85 17107.4 3375.11 17116.2 3387.38 17121.1 3399.65 17125.9 3411.92 17135.1 3424.19 17138.8 3436.45 17142.5 3448.72 17137.2 3460.99 17143.3 3473.26 17149.4 3485.53 17185.2 3497.79 17175.4 3510.06 17165.6 3522.33 17089.9 3534.6 17084.8 3546.87 17079.7 3559.13 17126.6 3571.4 17145 3583.67 17163.5 3595.94 17200 3608.21 17195.5 3620.47 17191.1 3632.74 17128.1 3645.01 17118.2 3657.28 17108.4 3669.55 17136 3681.81 17136.3 3694.08 17136.5 3706.35 17122.2 3718.62 17119.8 3730.89 17117.5 3743.15 17119.7 3755.42 17122.1 3767.69 17124.5 3779.96 17137.2 3792.23 17134.2 3804.49 17131.2 3816.76 17109.6 3829.03 17104 3840.3 17098.8 3854.56 17085.7 3865.83 17100.3 3878.1 17116.3 3890.37 17190.1 3902.64 17199.8 3914.9 17209.4 3927.17 17171.3 3939.44 17158.4 3951.71 17145.5 3963.98 17133.6 3976.24 17122.2 3988.51 17110.7 4000.78 17079.4 4013.05 17089.9 4025.32 17100.4 4037.58 17185.2 4049.85 17185 4062.12 17184.8 4074.39 17101.9 4086.66 17088.6 4098.92 17075.4 4111.19 17110.8 4123.46 17105.6 4135.73 17100.3 4148 17057.8 4160.26 17057.2 4172.53 17056.5 4184.8 17079.8 4197.07 17101.5 4209.34 17123.2 4221.6 17186.3 4233.87 17187.4 4241.83 17188.2 4262.72 17151.1 4270.68 17108.1 4282.94 17041.8 4295.21 16764.5 4307.48 16789.6 4319.75 16814.8 4332.02 17203.3 4344.28 17258.9 4356.55 17314.5 4368.82 17168.5 4381.09 17123.4 4393.36 17078.2 4405.62 17017.5 4417.89 16987.8 4426.77 16966.2 4445.82 16918 4454.7 16944.9 4466.96 16982 4479.23 17121.8 4491.5 17210.3" stroke="#FFB226" stroke-width="9.16667" stroke-linecap="round" stroke-linejoin="round" stroke-miterlimit="10" fill="none"/></g><g><path d="M2614.5 17024.3C2626.77 17026 2639.04 17015.7 2651.3 17029.4 2663.57 17043.2 2675.84 17103.6 2688.11 17107 2700.38 17110.5 2712.64 17050.9 2724.91 17050.1 2737.18 17049.2 2749.45 17106.4 2761.72 17101.9 2773.98 17097.5 2786.25 17029 2798.52 17023.2 2810.79 17017.4 2823.06 17049.3 2835.32 17067.2 2847.59 17085.1 2859.86 17126.9 2872.13 17130.6 2884.4 17134.2 2896.66 17086.7 2908.93 17089 2921.2 17091.4 2933.47 17131.2 2945.74 17144.6 2958 17158 2970.27 17177.8 2982.54 17169.3 2994.81 17160.9 3007.08 17097.9 3019.34 17093.8 3031.61 17089.7 3043.88 17145 3056.15 17144.8 3068.41 17144.6 3080.68 17103.3 3092.95 17092.6 3105.22 17081.8 3117.49 17078.8 3129.76 17080.3 3142.02 17081.8 3154.29 17090.3 3166.56 17101.8 3178.83 17113.4 3191.09 17148.7 3203.36 17149.6 3215.63 17150.5 3227.9 17123 3240.17 17107.3 3252.43 17091.5 3264.7 17058.9 3276.97 17055.1 3289.24 17051.2 3301.51 17078.6 3313.77 17084.3 3326.04 17090.1 3338.31 17082.6 3350.58 17089.4 3362.85 17096.2 3375.11 17123.8 3387.38 17125.3 3399.65 17126.8 3411.92 17100.5 3424.19 17098.3 3436.45 17096.2 3448.72 17108.4 3460.99 17112.4 3473.26 17116.5 3485.53 17130.9 3497.79 17122.7 3510.06 17114.4 3522.33 17064.1 3534.6 17063.1 3546.87 17062 3559.13 17101.9 3571.4 17116.4 3583.67 17130.8 3595.94 17154.5 3608.21 17149.9 3620.47 17145.2 3632.74 17096 3645.01 17088.5 3657.28 17081 3669.55 17100.6 3681.81 17105.2 3694.08 17109.7 3706.35 17116.7 3718.62 17115.9 3730.89 17115 3743.15 17101.4 3755.42 17100.1 3767.69 17098.7 3779.96 17110.8 3792.23 17107.8 3804.49 17104.7 3816.76 17083.6 3829.03 17081.8 3841.3 17080.1 3853.57 17087.3 3865.83 17097.4 3878.1 17107.5 3890.37 17138.3 3902.64 17142.5 3914.9 17146.7 3927.17 17130.7 3939.44 17122.6 3951.71 17114.4 3963.98 17113.5 3976.24 17093.6 3988.51 17073.8 4000.78 16985.4 4013.05 17003.4 4025.32 17021.4 4037.58 17184.5 4049.85 17201.5 4062.12 17218.5 4074.39 17124.6 4086.66 17105.5 4097.81 17088.1 4112.31 17094.8 4123.46 17086.8 4135.73 17077.9 4148 17048.4 4160.26 17052.2 4172.53 17056 4184.8 17096.2 4197.07 17109.3 4209.34 17122.4 4221.6 17124.3 4233.87 17130.7 4243.11 17135.5 4261.44 17165.6 4270.68 17147.6 4282.94 17123.6 4295.21 16982.5 4307.48 16987 4319.75 16991.5 4332.02 17162 4344.28 17174.6 4356.55 17187.3 4368.82 17094.5 4381.09 17063.2 4393.36 17031.9 4405.62 16983.4 4417.89 16986.9 4430.16 16990.4 4442.43 17055.7 4454.7 17084.2 4466.96 17112.8 4479.23 17133.4 4491.5 17158" stroke="#000000" stroke-width="9.16667" stroke-linecap="round" stroke-linejoin="round" stroke-miterlimit="10" fill="none"/></g><g><text font-family="Inter,Inter_MSFontService,sans-serif" font-weight="400" font-size="32" transform="matrix(1 0 0 1 2542.69 17469)">80</text></g><g><text font-family="Inter,Inter_MSFontService,sans-serif" font-weight="400" font-size="32" transform="matrix(1 0 0 1 2542.46 17305)">90</text></g><g><text font-family="Inter,Inter_MSFontService,sans-serif" font-weight="400" font-size="32" transform="matrix(1 0 0 1 2527.52 17142)">100</text></g><g><text font-family="Inter,Inter_MSFontService,sans-serif" font-weight="400" font-size="32" transform="matrix(1 0 0 1 2532.67 16978)">110</text></g><g><text font-family="Inter,Inter_MSFontService,sans-serif" font-weight="400" font-size="32" transform="matrix(1 0 0 1 2528.16 16814)">120</text></g><g><text font-family="Inter,Inter_MSFontService,sans-serif" font-weight="400" font-size="32" transform="matrix(0.707107 -0.707107 0.707107 0.707107 2590.34 17535)">1/6</text></g><g><text font-family="Inter,Inter_MSFontService,sans-serif" font-weight="400" font-size="32" transform="matrix(0.707107 -0.707107 0.707107 0.707107 2688.2 17547)">1/27</text></g><g><text font-family="Inter,Inter_MSFontService,sans-serif" font-weight="400" font-size="32" transform="matrix(0.707107 -0.707107 0.707107 0.707107 2798.58 17547)">2/17</text></g><g><text font-family="Inter,Inter_MSFontService,sans-serif" font-weight="400" font-size="32" transform="matrix(0.707107 -0.707107 0.707107 0.707107 2917.58 17539)">3/9</text></g><g><text font-family="Inter,Inter_MSFontService,sans-serif" font-weight="400" font-size="32" transform="matrix(0.707107 -0.707107 0.707107 0.707107 3013.49 17553)">3/30</text></g><g><text font-family="Inter,Inter_MSFontService,sans-serif" font-weight="400" font-size="32" transform="matrix(0.707107 -0.707107 0.707107 0.707107 3124.45 17553)">4/20</text></g><g><text font-family="Inter,Inter_MSFontService,sans-serif" font-weight="400" font-size="32" transform="matrix(0.707107 -0.707107 0.707107 0.707107 3242.45 17545)">5/11</text></g><g><text font-family="Inter,Inter_MSFontService,sans-serif" font-weight="400" font-size="32" transform="matrix(0.707107 -0.707107 0.707107 0.707107 3363.01 17535)">6/1</text></g><g><text font-family="Inter,Inter_MSFontService,sans-serif" font-weight="400" font-size="32" transform="matrix(0.707107 -0.707107 0.707107 0.707107 3456.47 17552)">6/22</text></g><g><text font-family="Inter,Inter_MSFontService,sans-serif" font-weight="400" font-size="32" transform="matrix(0.707107 -0.707107 0.707107 0.707107 3570.53 17548)">7/13</text></g><g><text font-family="Inter,Inter_MSFontService,sans-serif" font-weight="400" font-size="32" transform="matrix(0.707107 -0.707107 0.707107 0.707107 3690.4 17538)">8/3</text></g><g><text font-family="Inter,Inter_MSFontService,sans-serif" font-weight="400" font-size="32" transform="matrix(0.707107 -0.707107 0.707107 0.707107 3786.93 17552)">8/24</text></g><g><text font-family="Inter,Inter_MSFontService,sans-serif" font-weight="400" font-size="32" transform="matrix(0.707107 -0.707107 0.707107 0.707107 3900.34 17549)">9/14</text></g><g><text font-family="Inter,Inter_MSFontService,sans-serif" font-weight="400" font-size="32" transform="matrix(0.707107 -0.707107 0.707107 0.707107 4011.47 17549)">10/5</text></g><g><text font-family="Inter,Inter_MSFontService,sans-serif" font-weight="400" font-size="32" transform="matrix(0.707107 -0.707107 0.707107 0.707107 4107.77 17563)">10/26</text></g><g><text font-family="Inter,Inter_MSFontService,sans-serif" font-weight="400" font-size="32" transform="matrix(0.707107 -0.707107 0.707107 0.707107 4224.98 17556)">11/16</text></g><g><text font-family="Inter,Inter_MSFontService,sans-serif" font-weight="400" font-size="32" transform="matrix(0.707107 -0.707107 0.707107 0.707107 4343.9 17547)">12/7</text></g><g><text font-family="Inter,Inter_MSFontService,sans-serif" font-weight="400" font-size="32" transform="matrix(0.707107 -0.707107 0.707107 0.707107 4439.52 17562)">12/28</text></g><g><text font-family="Inter Medium,Inter Medium_MSFontService,sans-serif" font-weight="700" font-size="46" transform="matrix(1 0 0 1 2529.01 16646)">U.S. Hotel Occupancy and ADR Recovery Levels</text></g><g><path d="M2521.5 16741.5 2609.5 16741.5" stroke="#FFB226" stroke-width="9.16667" stroke-linecap="round" stroke-linejoin="round" stroke-miterlimit="10" fill="none" fill-rule="evenodd"/></g><g><text font-family="Inter Medium,Inter Medium_MSFontService,sans-serif" font-weight="500" font-size="37" transform="matrix(1 0 0 1 2618.39 16754)">Occ Index</text></g><g><path d="M2846.5 16741.5 2934.5 16741.5" stroke="#000000" stroke-width="9.16667" stroke-linecap="round" stroke-linejoin="round" stroke-miterlimit="10" fill="none" fill-rule="evenodd"/></g><g><text font-family="Inter Medium,Inter Medium_MSFontService,sans-serif" font-weight="500" font-size="37" transform="matrix(1 0 0 1 2943.74 16754)">ADR Index</text></g><rect x="2445.5" y="16556.5" width="2103" height="1056" stroke="#D9D9D9" stroke-width="3.4375" stroke-linejoin="round" stroke-miterlimit="10" fill="none"/><g><text fill="#7F7F7F" font-family="Inter,Inter_MSFontService,sans-serif" font-weight="400" font-size="32" transform="matrix(1 0 0 1 2526.75 16700)">Indexed to 2023, Source: STR, str.com</text></g></g></svg>