<svg width="2106" height="1095" xmlns="http://www.w3.org/2000/svg" xmlns:xlink="http://www.w3.org/1999/xlink" xml:space="preserve" overflow="hidden"><defs><filter id="fx0" x="-10%" y="-10%" width="120%" height="120%" filterUnits="userSpaceOnUse" primitiveUnits="userSpaceOnUse"><feComponentTransfer color-interpolation-filters="sRGB"><feFuncR type="discrete" tableValues="0 0"/><feFuncG type="discrete" tableValues="0 0"/><feFuncB type="discrete" tableValues="0 0"/><feFuncA type="linear" slope="0.501961" intercept="0"/></feComponentTransfer><feGaussianBlur stdDeviation="4.58333 4.58333"/></filter><filter id="fx1" x="-10%" y="-10%" width="120%" height="120%" filterUnits="userSpaceOnUse" primitiveUnits="userSpaceOnUse"><feComponentTransfer color-interpolation-filters="sRGB"><feFuncR type="discrete" tableValues="0 0"/><feFuncG type="discrete" tableValues="0 0"/><feFuncB type="discrete" tableValues="0 0"/><feFuncA type="linear" slope="0.501961" intercept="0"/></feComponentTransfer><feGaussianBlur stdDeviation="4.58333 4.58333"/></filter><clipPath id="clip2"><rect x="1657" y="20745" width="2106" height="1095"/></clipPath><clipPath id="clip3"><rect x="1825" y="21002" width="1885" height="681"/></clipPath><clipPath id="clip4"><rect x="1825" y="21002" width="1885" height="681"/></clipPath></defs><g clip-path="url(#clip2)" transform="translate(-1657 -20745)"><rect x="1658" y="20746" width="2103" height="1092" fill="#FFFFFF"/><g><rect x="1825" y="21002" width="1882" height="678" fill="#F2F2F2"/></g><g><path d="M1825.5 21228.5 3707.5 21228.5" stroke="#D9D9D9" stroke-width="3.4375" stroke-linejoin="round" stroke-miterlimit="10" fill="none" fill-rule="evenodd"/></g><g clip-path="url(#clip3)"><g filter="url(#fx0)" transform="translate(1818 21113)"><g><path d="M19.9818 110.718C48.3149 123.899 76.6483 135.392 104.982 150.26 133.315 165.128 161.648 208.751 189.982 199.926 218.315 191.101 246.648 127.332 274.982 97.3106 303.315 67.2888 331.648 13.9824 359.982 19.7959 388.315 25.6089 416.648 114.077 444.982 132.19 473.315 150.303 501.648 99.7255 529.982 128.474 558.315 157.223 586.648 302.382 614.982 304.683 643.315 306.983 671.648 180.996 699.982 142.274 728.315 103.553 756.648 67.2334 784.982 72.3525 813.315 77.4713 841.648 163.661 869.982 172.988 898.315 182.314 926.648 135.762 954.982 128.311 983.315 120.86 1011.65 123.313 1039.98 128.281 1068.31 133.25 1096.65 147.764 1124.98 158.121 1153.31 168.478 1181.65 187.383 1209.98 190.423 1238.31 193.463 1266.65 193.264 1294.98 176.361 1323.31 159.457 1351.65 98.1297 1379.98 89.0013 1408.31 79.8728 1436.65 114.927 1464.98 121.59 1493.31 128.253 1535.82 127.748 1549.98 128.98" stroke="#FFB226" stroke-width="9" stroke-linecap="round" stroke-linejoin="round" stroke-miterlimit="10" fill="none"/></g></g></g><g clip-path="url(#clip4)"><g filter="url(#fx1)" transform="translate(1818 21103)"><g><path d="M19.9818 74.2144C48.3149 76.3384 76.6483 69.2988 104.982 80.5867 133.315 91.8743 161.648 140.802 189.982 141.942 218.315 143.081 246.648 99.8909 274.982 87.4226 303.315 74.9539 331.648 67.4298 359.982 67.1304 388.315 66.8306 416.648 80.7404 444.982 85.6247 473.315 90.5086 501.648 87.2848 529.982 96.4343 558.315 105.584 586.648 152.982 614.982 140.522 643.315 128.061 671.648 33.3577 699.982 21.6701 728.315 9.98242 756.648 53.0103 784.982 70.3957 813.315 87.7811 841.648 123.107 869.982 125.982 898.315 128.858 926.648 95.7904 954.982 87.6491 983.315 79.5074 1011.65 71.2676 1039.98 77.1327 1068.31 82.9975 1096.65 115.267 1124.98 122.839 1153.31 130.412 1181.65 125.072 1209.98 122.566 1238.31 120.06 1266.65 115.396 1294.98 107.802 1323.31 100.208 1351.65 74.1073 1379.98 77.0029 1408.31 79.8981 1436.65 114.672 1464.98 125.175 1493.31 135.677 1535.82 137.545 1549.98 140.02" stroke="#000000" stroke-width="9" stroke-linecap="round" stroke-linejoin="round" stroke-miterlimit="10" fill="none"/></g></g></g><g><path d="M1831.5 21217.2C1859.83 21230.4 1888.17 21241.9 1916.5 21256.8 1944.83 21271.6 1973.17 21315.3 2001.5 21306.4 2029.83 21297.6 2058.17 21233.8 2086.5 21203.8 2114.83 21173.8 2143.17 21120.5 2171.5 21126.3 2199.83 21132.1 2228.17 21220.6 2256.5 21238.7 2284.83 21256.8 2313.17 21206.2 2341.5 21235 2369.83 21263.7 2398.17 21408.9 2426.5 21411.2 2454.83 21413.5 2483.17 21287.5 2511.5 21248.8 2539.83 21210.1 2568.17 21173.8 2596.5 21178.9 2624.83 21184 2653.17 21270.2 2681.5 21279.5 2709.83 21288.8 2738.17 21242.3 2766.5 21234.8 2794.83 21227.4 2823.17 21229.8 2851.5 21234.8 2879.83 21239.8 2908.17 21254.3 2936.5 21264.6 2964.83 21275 2993.17 21293.9 3021.5 21296.9 3049.83 21300 3078.17 21299.8 3106.5 21282.9 3134.83 21266 3163.17 21204.6 3191.5 21195.5 3219.83 21186.4 3248.17 21221.4 3276.5 21228.1 3304.83 21234.8 3347.33 21234.3 3361.5 21235.5" stroke="#FFB226" stroke-width="9.16667" stroke-linecap="round" stroke-linejoin="round" stroke-miterlimit="10" fill="none"/></g><g><path d="M1831.5 21170.7C1859.83 21172.9 1888.17 21165.8 1916.5 21177.1 1944.83 21188.4 1973.17 21237.3 2001.5 21238.5 2029.83 21239.6 2058.17 21196.4 2086.5 21183.9 2114.83 21171.5 2143.17 21163.9 2171.5 21163.6 2199.83 21163.3 2228.17 21177.3 2256.5 21182.1 2284.83 21187 2313.17 21183.8 2341.5 21193 2369.83 21202.1 2398.17 21249.5 2426.5 21237 2454.83 21224.6 2483.17 21129.9 2511.5 21118.2 2539.83 21106.5 2568.17 21149.5 2596.5 21166.9 2624.83 21184.3 2653.17 21219.6 2681.5 21222.5 2709.83 21225.4 2738.17 21192.3 2766.5 21184.2 2794.83 21176 2823.17 21167.8 2851.5 21173.7 2879.83 21179.5 2908.17 21211.8 2936.5 21219.4 2964.83 21226.9 2993.17 21221.6 3021.5 21219.1 3049.83 21216.6 3078.17 21211.9 3106.5 21204.3 3134.83 21196.7 3163.17 21170.6 3191.5 21173.5 3219.83 21176.4 3248.17 21211.2 3276.5 21221.7 3304.83 21232.2 3347.33 21234.1 3361.5 21236.5" stroke="#000000" stroke-width="9.16667" stroke-linecap="round" stroke-linejoin="round" stroke-miterlimit="10" fill="none"/></g><g><text font-family="Inter,Inter_MSFontService,sans-serif" font-weight="400" font-size="32" transform="matrix(1 0 0 1 1755.7 21690)">80</text></g><g><text font-family="Inter,Inter_MSFontService,sans-serif" font-weight="400" font-size="32" transform="matrix(1 0 0 1 1755.47 21464)">90</text></g><g><text font-family="Inter,Inter_MSFontService,sans-serif" font-weight="400" font-size="32" transform="matrix(1 0 0 1 1740.53 21238)">100</text></g><g><text font-family="Inter,Inter_MSFontService,sans-serif" font-weight="400" font-size="32" transform="matrix(1 0 0 1 1745.68 21012)">110</text></g><g><text font-family="Inter,Inter_MSFontService,sans-serif" font-weight="400" font-size="32" transform="matrix(0.707107 -0.707107 0.707107 0.707107 1806.5 21756)">3/1</text></g><g><text font-family="Inter,Inter_MSFontService,sans-serif" font-weight="400" font-size="32" transform="matrix(0.707107 -0.707107 0.707107 0.707107 2044.53 21773)">3/22</text></g><g><text font-family="Inter,Inter_MSFontService,sans-serif" font-weight="400" font-size="32" transform="matrix(0.707107 -0.707107 0.707107 0.707107 2302.53 21770)">4/12</text></g><g><text font-family="Inter,Inter_MSFontService,sans-serif" font-weight="400" font-size="32" transform="matrix(0.707107 -0.707107 0.707107 0.707107 2568.08 21759)">5/3</text></g><g><text font-family="Inter,Inter_MSFontService,sans-serif" font-weight="400" font-size="32" transform="matrix(0.707107 -0.707107 0.707107 0.707107 2809.16 21773)">5/24</text></g><g><text font-family="Inter,Inter_MSFontService,sans-serif" font-weight="400" font-size="32" transform="matrix(0.707107 -0.707107 0.707107 0.707107 3066.94 21770)">6/14</text></g><g><text font-family="Inter,Inter_MSFontService,sans-serif" font-weight="400" font-size="32" transform="matrix(0.707107 -0.707107 0.707107 0.707107 3334.4 21758)">7/5</text></g><g><text font-family="Inter,Inter_MSFontService,sans-serif" font-weight="400" font-size="32" transform="matrix(0.707107 -0.707107 0.707107 0.707107 3575.26 21772)">7/26</text></g><g><text font-family="Inter Medium,Inter Medium_MSFontService,sans-serif" font-weight="700" font-size="46" transform="matrix(1 0 0 1 1742.02 20836)">U.S. Hotel Occupancy and ADR Recovery Levels</text></g><g><path d="M1733.5 20936.5 1821.5 20936.5" stroke="#FFB226" stroke-width="9.16667" stroke-linecap="round" stroke-linejoin="round" stroke-miterlimit="10" fill="none" fill-rule="evenodd"/></g><g><text font-family="Inter Medium,Inter Medium_MSFontService,sans-serif" font-weight="500" font-size="37" transform="matrix(1 0 0 1 1830.61 20948)">Occ Index</text></g><g><path d="M2057.5 20936.5 2145.5 20936.5" stroke="#000000" stroke-width="9.16667" stroke-linecap="round" stroke-linejoin="round" stroke-miterlimit="10" fill="none" fill-rule="evenodd"/></g><g><text font-family="Inter Medium,Inter Medium_MSFontService,sans-serif" font-weight="500" font-size="37" transform="matrix(1 0 0 1 2155.16 20948)">ADR Index</text></g><rect x="1658.5" y="20746.5" width="2103" height="1092" stroke="#D9D9D9" stroke-width="3.4375" stroke-linejoin="round" stroke-miterlimit="10" fill="none"/><g><text fill="#7F7F7F" font-family="Inter,Inter_MSFontService,sans-serif" font-weight="400" font-size="32" transform="matrix(1 0 0 1 1739.76 20893)">YOY, Source: STR, str.com</text></g></g></svg>