<svg width="2106" height="1059" xmlns="http://www.w3.org/2000/svg" xmlns:xlink="http://www.w3.org/1999/xlink" xml:space="preserve" overflow="hidden"><defs><filter id="fx0" x="-10%" y="-10%" width="120%" height="120%" filterUnits="userSpaceOnUse" primitiveUnits="userSpaceOnUse"><feComponentTransfer color-interpolation-filters="sRGB"><feFuncR type="discrete" tableValues="0 0"/><feFuncG type="discrete" tableValues="0 0"/><feFuncB type="discrete" tableValues="0 0"/><feFuncA type="linear" slope="0.501961" intercept="0"/></feComponentTransfer><feGaussianBlur stdDeviation="4.58333 4.58333"/></filter><filter id="fx1" x="-10%" y="-10%" width="120%" height="120%" filterUnits="userSpaceOnUse" primitiveUnits="userSpaceOnUse"><feComponentTransfer color-interpolation-filters="sRGB"><feFuncR type="discrete" tableValues="0 0"/><feFuncG type="discrete" tableValues="0 0"/><feFuncB type="discrete" tableValues="0 0"/><feFuncA type="linear" slope="0.501961" intercept="0"/></feComponentTransfer><feGaussianBlur stdDeviation="4.58333 4.58333"/></filter><clipPath id="clip2"><rect x="1657" y="20055" width="2106" height="1059"/></clipPath><clipPath id="clip3"><rect x="1825" y="20303" width="1885" height="659"/></clipPath><clipPath id="clip4"><rect x="1825" y="20303" width="1885" height="659"/></clipPath></defs><g clip-path="url(#clip2)" transform="translate(-1657 -20055)"><rect x="1658" y="20056" width="2103" height="1056" fill="#FFFFFF"/><g><rect x="1825" y="20304" width="1882" height="655" fill="#F2F2F2"/></g><g><path d="M1825.5 20522.5 3707.5 20522.5" stroke="#D9D9D9" stroke-width="3.4375" stroke-linejoin="round" stroke-miterlimit="10" fill="none" fill-rule="evenodd"/></g><g clip-path="url(#clip3)"><g filter="url(#fx0)" transform="translate(1815 20411)"><g><path d="M19.9817 107.417C34.1846 120.147 48.3876 131.249 62.5905 145.609 76.7931 159.969 90.9961 202.103 105.199 193.58 119.402 185.056 133.605 123.464 147.808 94.4669 162.01 65.4697 176.213 13.9824 190.416 19.5973 204.619 25.2121 218.822 110.661 233.025 128.156 242.775 140.166 265.884 105.504 275.634 124.567 289.837 152.334 304.04 292.54 318.242 294.761 332.445 296.983 346.648 175.296 360.851 137.896 375.03 100.559 389.281 65.4245 403.46 70.3606 417.663 75.3047 431.866 158.553 446.069 167.561 460.271 176.569 474.475 131.606 488.677 124.409 502.88 117.212 517.083 119.582 531.286 124.38 545.489 129.179 559.692 143.198 573.895 153.202 588.098 163.205 602.301 181.465 616.504 184.401 630.706 187.337 644.909 187.146 659.112 170.819 673.315 154.492 687.518 95.258 701.721 86.4411 715.924 77.6242 730.126 111.482 744.329 117.918 758.532 124.353 772.735 114.517 786.938 125.055 801.141 135.593 815.344 172.908 829.547 181.144 843.75 189.379 857.953 182.474 872.156 174.469 886.358 166.463 900.561 143.06 914.764 133.109 928.967 123.159 943.17 113.582 957.373 114.765 971.576 115.948 992.88 135.967 999.982 140.208" stroke="#FFB226" stroke-width="9" stroke-linecap="round" stroke-linejoin="round" stroke-miterlimit="10" fill="none"/></g></g></g><g clip-path="url(#clip4)"><g filter="url(#fx1)" transform="translate(1815 20401)"><g><path d="M19.9817 71.9686C34.1846 74.0182 48.3876 67.2247 62.5905 78.118 76.7931 89.011 90.9961 136.228 105.199 137.328 119.402 138.427 133.605 96.7475 147.808 84.7152 162.01 72.6825 176.213 65.4212 190.416 65.1323 204.619 64.843 218.822 78.2668 233.025 82.9801 247.228 87.693 261.431 84.5819 275.634 93.4116 289.837 102.241 304.04 147.982 318.242 135.958 332.445 123.932 346.648 32.5402 360.851 21.2615 375.054 9.98242 389.257 51.5061 403.46 68.2837 417.663 85.061 431.866 119.152 446.069 121.927 460.271 124.702 474.475 92.7906 488.677 84.9338 502.88 77.0767 517.083 69.1248 531.286 74.7851 545.489 80.445 559.692 111.586 573.895 118.894 588.098 126.201 602.301 121.049 616.504 118.63 630.706 116.211 644.909 111.71 659.112 104.382 673.315 97.0536 687.518 71.8656 701.721 74.6601 715.924 77.4542 730.126 111.012 744.329 121.147 758.532 131.282 772.735 134.861 786.938 135.473 801.141 136.084 815.344 125.189 829.547 124.815 843.75 124.441 857.953 133.696 872.156 133.229 886.358 132.761 900.561 126.047 914.764 122.008 928.967 117.97 943.17 108.32 957.373 108.997 971.576 109.673 992.88 123.223 999.982 126.069" stroke="#000000" stroke-width="9" stroke-linecap="round" stroke-linejoin="round" stroke-miterlimit="10" fill="none"/></g></g></g><g><path d="M1828.5 20511.9C1842.7 20524.7 1856.91 20535.8 1871.11 20550.1 1885.31 20564.5 1899.51 20606.6 1913.72 20598.1 1927.92 20589.6 1942.12 20528 1956.33 20499 1970.53 20470 1984.73 20418.5 1998.93 20424.1 2013.14 20429.7 2027.34 20515.2 2041.54 20532.7 2051.29 20544.7 2074.4 20510 2084.15 20529.1 2098.35 20556.9 2112.56 20697.1 2126.76 20699.3 2140.96 20701.5 2155.17 20579.8 2169.37 20542.4 2183.55 20505.1 2197.8 20469.9 2211.98 20474.9 2226.18 20479.8 2240.38 20563.1 2254.59 20572.1 2268.79 20581.1 2282.99 20536.1 2297.2 20528.9 2311.4 20521.7 2325.6 20524.1 2339.8 20528.9 2354.01 20533.7 2368.21 20547.7 2382.41 20557.7 2396.62 20567.7 2410.82 20586 2425.02 20588.9 2439.22 20591.9 2453.43 20591.7 2467.63 20575.3 2481.83 20559 2496.04 20499.8 2510.24 20491 2524.44 20482.1 2538.64 20516 2552.85 20522.4 2567.05 20528.9 2581.25 20519 2595.46 20529.6 2609.66 20540.1 2623.86 20577.4 2638.07 20585.7 2652.27 20593.9 2666.47 20587 2680.67 20579 2694.88 20571 2709.08 20547.6 2723.28 20537.6 2737.49 20527.7 2751.69 20518.1 2765.89 20519.3 2780.09 20520.5 2801.4 20540.5 2808.5 20544.7" stroke="#FFB226" stroke-width="9.16667" stroke-linecap="round" stroke-linejoin="round" stroke-miterlimit="10" fill="none"/></g><g><path d="M1828.5 20466.5C1842.7 20468.5 1856.91 20461.7 1871.11 20472.6 1885.31 20483.5 1899.51 20530.7 1913.72 20531.8 1927.92 20532.9 1942.12 20491.3 1956.33 20479.2 1970.53 20467.2 1984.73 20459.9 1998.93 20459.7 2013.14 20459.4 2027.34 20472.8 2041.54 20477.5 2055.75 20482.2 2069.95 20479.1 2084.15 20487.9 2098.35 20496.8 2112.56 20542.5 2126.76 20530.5 2140.96 20518.4 2155.17 20427.1 2169.37 20415.8 2183.57 20404.5 2197.78 20446 2211.98 20462.8 2226.18 20479.6 2240.38 20513.7 2254.59 20516.4 2268.79 20519.2 2282.99 20487.3 2297.2 20479.5 2311.4 20471.6 2325.6 20463.6 2339.8 20469.3 2354.01 20475 2368.21 20506.1 2382.41 20513.4 2396.62 20520.7 2410.82 20515.6 2425.02 20513.1 2439.22 20510.7 2453.43 20506.2 2467.63 20498.9 2481.83 20491.6 2496.04 20466.4 2510.24 20469.2 2524.44 20472 2538.64 20505.5 2552.85 20515.7 2567.05 20525.8 2581.25 20529.4 2595.46 20530 2609.66 20530.6 2623.86 20519.7 2638.07 20519.3 2652.27 20519 2666.47 20528.2 2680.67 20527.7 2694.88 20527.3 2709.08 20520.6 2723.28 20516.5 2737.49 20512.5 2751.69 20502.8 2765.89 20503.5 2780.09 20504.2 2801.4 20517.7 2808.5 20520.6" stroke="#000000" stroke-width="9.16667" stroke-linecap="round" stroke-linejoin="round" stroke-miterlimit="10" fill="none"/></g><g><text font-family="Inter,Inter_MSFontService,sans-serif" font-weight="400" font-size="32" transform="matrix(1 0 0 1 1755.7 20969)">80</text></g><g><text font-family="Inter,Inter_MSFontService,sans-serif" font-weight="400" font-size="32" transform="matrix(1 0 0 1 1755.47 20751)">90</text></g><g><text font-family="Inter,Inter_MSFontService,sans-serif" font-weight="400" font-size="32" transform="matrix(1 0 0 1 1740.53 20532)">100</text></g><g><text font-family="Inter,Inter_MSFontService,sans-serif" font-weight="400" font-size="32" transform="matrix(1 0 0 1 1745.68 20314)">110</text></g><g><text font-family="Inter,Inter_MSFontService,sans-serif" font-weight="400" font-size="32" transform="matrix(0.707107 -0.707107 0.707107 0.707107 1803.48 21035)">3/1</text></g><g><text font-family="Inter,Inter_MSFontService,sans-serif" font-weight="400" font-size="32" transform="matrix(0.707107 -0.707107 0.707107 0.707107 1914.44 21052)">3/22</text></g><g><text font-family="Inter,Inter_MSFontService,sans-serif" font-weight="400" font-size="32" transform="matrix(0.707107 -0.707107 0.707107 0.707107 2045.39 21049)">4/12</text></g><g><text font-family="Inter,Inter_MSFontService,sans-serif" font-weight="400" font-size="32" transform="matrix(0.707107 -0.707107 0.707107 0.707107 2183.87 21038)">5/3</text></g><g><text font-family="Inter,Inter_MSFontService,sans-serif" font-weight="400" font-size="32" transform="matrix(0.707107 -0.707107 0.707107 0.707107 2297.9 21052)">5/24</text></g><g><text font-family="Inter,Inter_MSFontService,sans-serif" font-weight="400" font-size="32" transform="matrix(0.707107 -0.707107 0.707107 0.707107 2428.62 21049)">6/14</text></g><g><text font-family="Inter,Inter_MSFontService,sans-serif" font-weight="400" font-size="32" transform="matrix(0.707107 -0.707107 0.707107 0.707107 2569.02 21037)">7/5</text></g><g><text font-family="Inter,Inter_MSFontService,sans-serif" font-weight="400" font-size="32" transform="matrix(0.707107 -0.707107 0.707107 0.707107 2682.82 21051)">7/26</text></g><g><text font-family="Inter,Inter_MSFontService,sans-serif" font-weight="400" font-size="32" transform="matrix(0.707107 -0.707107 0.707107 0.707107 2812.86 21049)">8/16</text></g><g><text font-family="Inter,Inter_MSFontService,sans-serif" font-weight="400" font-size="32" transform="matrix(0.707107 -0.707107 0.707107 0.707107 2951.11 21038)">9/6</text></g><g><text font-family="Inter,Inter_MSFontService,sans-serif" font-weight="400" font-size="32" transform="matrix(0.707107 -0.707107 0.707107 0.707107 3066.47 21051)">9/27</text></g><g><text font-family="Inter,Inter_MSFontService,sans-serif" font-weight="400" font-size="32" transform="matrix(0.707107 -0.707107 0.707107 0.707107 3185.95 21059)">10/18</text></g><g><text font-family="Inter,Inter_MSFontService,sans-serif" font-weight="400" font-size="32" transform="matrix(0.707107 -0.707107 0.707107 0.707107 3328.01 21045)">11/8</text></g><g><text font-family="Inter,Inter_MSFontService,sans-serif" font-weight="400" font-size="32" transform="matrix(0.707107 -0.707107 0.707107 0.707107 3442.01 21059)">11/29</text></g><g><text font-family="Inter,Inter_MSFontService,sans-serif" font-weight="400" font-size="32" transform="matrix(0.707107 -0.707107 0.707107 0.707107 3566.67 21062)">12/20</text></g><g><text font-family="Inter Medium,Inter Medium_MSFontService,sans-serif" font-weight="700" font-size="46" transform="matrix(1 0 0 1 1742.02 20145)">U.S. Hotel Occupancy and ADR Recovery Levels</text></g><g><path d="M1733.5 20240.5 1821.5 20240.5" stroke="#FFB226" stroke-width="9.16667" stroke-linecap="round" stroke-linejoin="round" stroke-miterlimit="10" fill="none" fill-rule="evenodd"/></g><g><text font-family="Inter Medium,Inter Medium_MSFontService,sans-serif" font-weight="500" font-size="37" transform="matrix(1 0 0 1 1830.61 20252)">Occ Index</text></g><g><path d="M2057.5 20240.5 2145.5 20240.5" stroke="#000000" stroke-width="9.16667" stroke-linecap="round" stroke-linejoin="round" stroke-miterlimit="10" fill="none" fill-rule="evenodd"/></g><g><text font-family="Inter Medium,Inter Medium_MSFontService,sans-serif" font-weight="500" font-size="37" transform="matrix(1 0 0 1 2155.16 20252)">ADR Index</text></g><rect x="1658.5" y="20056.5" width="2103" height="1056" stroke="#D9D9D9" stroke-width="3.4375" stroke-linejoin="round" stroke-miterlimit="10" fill="none"/><g><text fill="#7F7F7F" font-family="Inter,Inter_MSFontService,sans-serif" font-weight="400" font-size="32" transform="matrix(1 0 0 1 1739.76 20199)">YOY, Source: STR, str.com</text></g></g></svg>