<svg width="2111" height="1095" xmlns="http://www.w3.org/2000/svg" xmlns:xlink="http://www.w3.org/1999/xlink" xml:space="preserve" overflow="hidden"><defs><filter id="fx0" x="-10%" y="-10%" width="120%" height="120%" filterUnits="userSpaceOnUse" primitiveUnits="userSpaceOnUse"><feComponentTransfer color-interpolation-filters="sRGB"><feFuncR type="discrete" tableValues="0 0"/><feFuncG type="discrete" tableValues="0 0"/><feFuncB type="discrete" tableValues="0 0"/><feFuncA type="linear" slope="0.501961" intercept="0"/></feComponentTransfer><feGaussianBlur stdDeviation="4.58333 4.58333"/></filter><filter id="fx1" x="-10%" y="-10%" width="120%" height="120%" filterUnits="userSpaceOnUse" primitiveUnits="userSpaceOnUse"><feComponentTransfer color-interpolation-filters="sRGB"><feFuncR type="discrete" tableValues="0 0"/><feFuncG type="discrete" tableValues="0 0"/><feFuncB type="discrete" tableValues="0 0"/><feFuncA type="linear" slope="0.501961" intercept="0"/></feComponentTransfer><feGaussianBlur stdDeviation="4.58333 4.58333"/></filter><clipPath id="clip2"><rect x="1660" y="20745" width="2111" height="1095"/></clipPath><clipPath id="clip3"><rect x="1828" y="21002" width="1890" height="681"/></clipPath><clipPath id="clip4"><rect x="1828" y="21002" width="1890" height="681"/></clipPath></defs><g clip-path="url(#clip2)" transform="translate(-1660 -20745)"><rect x="1661" y="20746" width="2108" height="1092" fill="#FFFFFF"/><g><rect x="1829" y="21002" width="1886" height="678" fill="#F2F2F2"/></g><g><path d="M1828.5 21228.5 3714.5 21228.5" stroke="#D9D9D9" stroke-width="3.4375" stroke-linejoin="round" stroke-miterlimit="10" fill="none" fill-rule="evenodd"/></g><g clip-path="url(#clip3)"><g filter="url(#fx0)" transform="translate(1822 21113)"><g><path d="M19.9819 110.718C48.3739 123.899 76.7661 135.392 105.158 150.26 133.55 165.128 161.943 208.751 190.335 199.926 218.727 191.101 247.119 127.332 275.511 97.3106 303.903 67.2888 332.296 13.9824 360.688 19.7959 389.08 25.6089 417.472 114.077 445.864 132.19 474.256 150.303 502.649 99.7255 531.041 128.474 559.433 157.223 587.825 302.382 616.217 304.683 644.609 306.983 673.002 180.996 701.394 142.274 729.786 103.553 758.178 67.2334 786.57 72.3525 814.962 77.4713 843.354 163.661 871.747 172.988 900.139 182.314 928.531 135.762 956.923 128.311 985.315 120.86 1013.71 123.313 1042.1 128.281 1070.49 133.25 1098.88 147.764 1127.28 158.121 1155.67 168.478 1184.06 187.383 1212.45 190.423 1240.84 193.463 1269.24 193.264 1297.63 176.361 1326.02 159.457 1354.41 98.1297 1382.81 89.0013 1411.2 79.8728 1453.79 116.159 1467.98 121.59" stroke="#FFB226" stroke-width="9" stroke-linecap="round" stroke-linejoin="round" stroke-miterlimit="10" fill="none"/></g></g></g><g clip-path="url(#clip4)"><g filter="url(#fx1)" transform="translate(1822 21103)"><g><path d="M19.9819 74.2144C48.3739 76.3384 76.7661 69.2988 105.158 80.5867 133.55 91.8743 161.943 140.802 190.335 141.942 218.727 143.081 247.119 99.8909 275.511 87.4226 303.903 74.9539 332.296 67.4298 360.688 67.1304 389.08 66.8306 417.472 80.7404 445.864 85.6247 474.256 90.5086 502.649 87.2848 531.041 96.4343 559.433 105.584 587.825 152.982 616.217 140.522 644.609 128.061 673.002 33.3577 701.394 21.6701 729.786 9.98242 758.178 53.0103 786.57 70.3957 814.962 87.7811 843.354 123.107 871.747 125.982 900.139 128.858 928.531 95.7904 956.923 87.6491 985.315 79.5074 1013.71 71.2676 1042.1 77.1327 1070.49 82.9975 1098.88 115.267 1127.28 122.839 1155.67 130.412 1184.06 125.072 1212.45 122.566 1240.84 120.06 1269.24 115.396 1297.63 107.802 1326.02 100.208 1354.41 74.1073 1382.81 77.0029 1411.2 79.8981 1453.79 117.146 1467.98 125.175" stroke="#000000" stroke-width="9" stroke-linecap="round" stroke-linejoin="round" stroke-miterlimit="10" fill="none"/></g></g></g><g><path d="M1835.5 21217.2C1863.89 21230.4 1892.28 21241.9 1920.68 21256.8 1949.07 21271.6 1977.46 21315.3 2005.85 21306.4 2034.24 21297.6 2062.64 21233.8 2091.03 21203.8 2119.42 21173.8 2147.81 21120.5 2176.21 21126.3 2204.6 21132.1 2232.99 21220.6 2261.38 21238.7 2289.77 21256.8 2318.17 21206.2 2346.56 21235 2374.95 21263.7 2403.34 21408.9 2431.74 21411.2 2460.13 21413.5 2488.52 21287.5 2516.91 21248.8 2545.3 21210.1 2573.7 21173.8 2602.09 21178.9 2630.48 21184 2658.87 21270.2 2687.26 21279.5 2715.66 21288.8 2744.05 21242.3 2772.44 21234.8 2800.83 21227.4 2829.23 21229.8 2857.62 21234.8 2886.01 21239.8 2914.4 21254.3 2942.79 21264.6 2971.19 21275 2999.58 21293.9 3027.97 21296.9 3056.36 21300 3084.75 21299.8 3113.15 21282.9 3141.54 21266 3169.93 21204.6 3198.32 21195.5 3226.72 21186.4 3269.3 21222.7 3283.5 21228.1" stroke="#FFB226" stroke-width="9.16667" stroke-linecap="round" stroke-linejoin="round" stroke-miterlimit="10" fill="none"/></g><g><path d="M1835.5 21170.7C1863.89 21172.9 1892.28 21165.8 1920.68 21177.1 1949.07 21188.4 1977.46 21237.3 2005.85 21238.5 2034.24 21239.6 2062.64 21196.4 2091.03 21183.9 2119.42 21171.5 2147.81 21163.9 2176.21 21163.6 2204.6 21163.3 2232.99 21177.3 2261.38 21182.1 2289.77 21187 2318.17 21183.8 2346.56 21193 2374.95 21202.1 2403.34 21249.5 2431.74 21237 2460.13 21224.6 2488.52 21129.9 2516.91 21118.2 2545.3 21106.5 2573.7 21149.5 2602.09 21166.9 2630.48 21184.3 2658.87 21219.6 2687.26 21222.5 2715.66 21225.4 2744.05 21192.3 2772.44 21184.2 2800.83 21176 2829.23 21167.8 2857.62 21173.7 2886.01 21179.5 2914.4 21211.8 2942.79 21219.4 2971.19 21226.9 2999.58 21221.6 3027.97 21219.1 3056.36 21216.6 3084.75 21211.9 3113.15 21204.3 3141.54 21196.7 3169.93 21170.6 3198.32 21173.5 3226.72 21176.4 3269.3 21213.7 3283.5 21221.7" stroke="#000000" stroke-width="9.16667" stroke-linecap="round" stroke-linejoin="round" stroke-miterlimit="10" fill="none"/></g><g><text font-family="Inter,Inter_MSFontService,sans-serif" font-weight="400" font-size="32" transform="matrix(1 0 0 1 1759.39 21690)">80</text></g><g><text font-family="Inter,Inter_MSFontService,sans-serif" font-weight="400" font-size="32" transform="matrix(1 0 0 1 1759.16 21464)">90</text></g><g><text font-family="Inter,Inter_MSFontService,sans-serif" font-weight="400" font-size="32" transform="matrix(1 0 0 1 1744.22 21238)">100</text></g><g><text font-family="Inter,Inter_MSFontService,sans-serif" font-weight="400" font-size="32" transform="matrix(1 0 0 1 1749.38 21012)">110</text></g><g><text font-family="Inter,Inter_MSFontService,sans-serif" font-weight="400" font-size="32" transform="matrix(0.707107 -0.707107 0.707107 0.707107 1810.21 21756)">3/1</text></g><g><text font-family="Inter,Inter_MSFontService,sans-serif" font-weight="400" font-size="32" transform="matrix(0.707107 -0.707107 0.707107 0.707107 2048.81 21773)">3/22</text></g><g><text font-family="Inter,Inter_MSFontService,sans-serif" font-weight="400" font-size="32" transform="matrix(0.707107 -0.707107 0.707107 0.707107 2307.39 21770)">4/12</text></g><g><text font-family="Inter,Inter_MSFontService,sans-serif" font-weight="400" font-size="32" transform="matrix(0.707107 -0.707107 0.707107 0.707107 2573.51 21759)">5/3</text></g><g><text font-family="Inter,Inter_MSFontService,sans-serif" font-weight="400" font-size="32" transform="matrix(0.707107 -0.707107 0.707107 0.707107 2815.17 21773)">5/24</text></g><g><text font-family="Inter,Inter_MSFontService,sans-serif" font-weight="400" font-size="32" transform="matrix(0.707107 -0.707107 0.707107 0.707107 3073.53 21770)">6/14</text></g><g><text font-family="Inter,Inter_MSFontService,sans-serif" font-weight="400" font-size="32" transform="matrix(0.707107 -0.707107 0.707107 0.707107 3341.55 21758)">7/5</text></g><g><text font-family="Inter,Inter_MSFontService,sans-serif" font-weight="400" font-size="32" transform="matrix(0.707107 -0.707107 0.707107 0.707107 3582.99 21772)">7/26</text></g><g><text font-family="Inter Medium,Inter Medium_MSFontService,sans-serif" font-weight="700" font-size="46" transform="matrix(1 0 0 1 1745.5 20836)">U.S. Hotel Occupancy and ADR Recovery Levels</text></g><g><path d="M1737.5 20936.5 1825.5 20936.5" stroke="#FFB226" stroke-width="9.16667" stroke-linecap="round" stroke-linejoin="round" stroke-miterlimit="10" fill="none" fill-rule="evenodd"/></g><g><text font-family="Inter Medium,Inter Medium_MSFontService,sans-serif" font-weight="500" font-size="37" transform="matrix(1 0 0 1 1834.49 20948)">Occ Index</text></g><g><path d="M2062.5 20936.5 2150.5 20936.5" stroke="#000000" stroke-width="9.16667" stroke-linecap="round" stroke-linejoin="round" stroke-miterlimit="10" fill="none" fill-rule="evenodd"/></g><g><text font-family="Inter Medium,Inter Medium_MSFontService,sans-serif" font-weight="500" font-size="37" transform="matrix(1 0 0 1 2159.57 20948)">ADR Index</text></g><rect x="1661.5" y="20746.5" width="2108" height="1092" stroke="#D9D9D9" stroke-width="3.4375" stroke-linejoin="round" stroke-miterlimit="10" fill="none"/><g><text fill="#7F7F7F" font-family="Inter,Inter_MSFontService,sans-serif" font-weight="400" font-size="32" transform="matrix(1 0 0 1 1743.19 20893)">YOY, Source: STR, str.com</text></g></g></svg>