<svg width="2106" height="1094" xmlns="http://www.w3.org/2000/svg" xmlns:xlink="http://www.w3.org/1999/xlink" xml:space="preserve" overflow="hidden"><defs><filter id="fx0" x="-10%" y="-10%" width="120%" height="120%" filterUnits="userSpaceOnUse" primitiveUnits="userSpaceOnUse"><feComponentTransfer color-interpolation-filters="sRGB"><feFuncR type="discrete" tableValues="0 0"/><feFuncG type="discrete" tableValues="0 0"/><feFuncB type="discrete" tableValues="0 0"/><feFuncA type="linear" slope="0.501961" intercept="0"/></feComponentTransfer><feGaussianBlur stdDeviation="4.58333 4.58333"/></filter><filter id="fx1" x="-10%" y="-10%" width="120%" height="120%" filterUnits="userSpaceOnUse" primitiveUnits="userSpaceOnUse"><feComponentTransfer color-interpolation-filters="sRGB"><feFuncR type="discrete" tableValues="0 0"/><feFuncG type="discrete" tableValues="0 0"/><feFuncB type="discrete" tableValues="0 0"/><feFuncA type="linear" slope="0.501961" intercept="0"/></feComponentTransfer><feGaussianBlur stdDeviation="4.58333 4.58333"/></filter><clipPath id="clip2"><rect x="1811" y="24065" width="2106" height="1094"/></clipPath><clipPath id="clip3"><rect x="1978" y="24322" width="1885" height="680"/></clipPath><clipPath id="clip4"><rect x="1978" y="24322" width="1885" height="680"/></clipPath></defs><g clip-path="url(#clip2)" transform="translate(-1811 -24065)"><rect x="1812" y="24066" width="2103" height="1091" fill="#FFFFFF"/><g><rect x="1979" y="24322" width="1882" height="677" fill="#F2F2F2"/></g><g><path d="M1978.5 24547.5 3860.5 24547.5" stroke="#D9D9D9" stroke-width="3.4375" stroke-linejoin="round" stroke-miterlimit="10" fill="none" fill-rule="evenodd"/></g><g clip-path="url(#clip3)"><g filter="url(#fx0)" transform="translate(1970 24501)"><g><path d="M19.9817 121.761C40.7814 117.106 61.5815 124.582 82.3816 107.797 103.181 91.0111 123.981 30.1119 144.781 21.0472 165.581 11.9824 186.382 46.7919 207.182 53.4085 227.981 60.0248 248.781 49.9125 269.582 60.7466 290.381 71.5804 311.182 109.945 331.982 118.412 352.782 126.879 373.582 119.78 394.382 111.549 415.181 103.318 435.981 79.2572 456.782 69.0273 477.581 58.797 498.382 48.951 519.182 50.1676 539.982 51.384 560.782 72.4232 581.582 76.3255 602.381 80.2274 623.182 73.4297 643.982 73.5801 664.782 73.7302 685.582 77.6555 706.382 77.2269 727.182 76.798 747.982 74.3283 768.782 71.0072 789.581 67.6857 810.382 53.4783 831.182 57.2996 851.982 61.1205 872.782 90.2291 893.582 93.9331 914.382 97.6368 935.182 70.9323 955.982 79.5231 976.782 88.1139 997.582 138.973 1018.38 145.478 1039.18 151.982 1059.98 127.497 1080.78 118.551 1101.58 109.604 1122.38 94.1012 1143.18 91.8003 1163.98 89.499 1184.78 98.1038 1205.58 104.744 1226.38 111.384 1257.58 127.156 1267.98 131.639" stroke="#FFB226" stroke-width="9" stroke-linecap="round" stroke-linejoin="round" stroke-miterlimit="10" fill="none"/></g></g></g><g clip-path="url(#clip4)"><g filter="url(#fx1)" transform="translate(1970 24461)"><g><path d="M19.9817 83.9417C40.7814 79.0483 61.5815 76.8124 82.3816 69.2622 103.181 61.7116 123.981 35.7608 144.781 38.6397 165.581 41.5183 186.382 76.0921 207.182 86.5349 227.981 96.9774 248.781 100.665 269.582 101.295 290.381 101.924 311.182 90.6995 331.982 90.3142 352.782 89.9285 373.582 99.4645 394.382 98.9825 415.181 98.5002 435.981 91.5829 456.782 87.422 477.581 83.2607 498.382 73.3193 519.182 74.0165 539.982 74.7138 560.782 91.1699 581.582 91.6055 602.381 92.0408 623.182 77.0489 643.982 76.6295 664.782 76.2097 685.582 91.6695 706.382 89.0875 727.182 86.5051 747.982 60.059 768.782 61.1358 789.581 62.2123 810.382 91.7119 831.182 95.5472 851.982 99.3822 872.782 84.9208 893.582 84.1466 914.382 83.3721 935.182 81.1063 955.982 90.9004 976.782 100.694 997.582 152.982 1018.38 142.911 1039.18 132.839 1059.98 49.9555 1080.78 30.4692 1101.58 10.9824 1122.38 22.7716 1143.18 25.9908 1163.98 29.2098 1184.78 33.3944 1205.58 49.7834 1226.38 66.172 1257.58 111.9 1267.98 124.323" stroke="#000000" stroke-width="9" stroke-linecap="round" stroke-linejoin="round" stroke-miterlimit="10" fill="none"/></g></g></g><g><path d="M1983.5 24616.3C2004.3 24611.6 2025.1 24619.1 2045.9 24602.3 2066.7 24585.5 2087.5 24524.6 2108.3 24515.6 2129.1 24506.5 2149.9 24541.3 2170.7 24547.9 2191.5 24554.5 2212.3 24544.4 2233.1 24555.3 2253.9 24566.1 2274.7 24604.5 2295.5 24612.9 2316.3 24621.4 2337.1 24614.3 2357.9 24606.1 2378.7 24597.8 2399.5 24573.8 2420.3 24563.5 2441.1 24553.3 2461.9 24543.5 2482.7 24544.7 2503.5 24545.9 2524.3 24566.9 2545.1 24570.8 2565.9 24574.7 2586.7 24567.9 2607.5 24568.1 2628.3 24568.2 2649.1 24572.2 2669.9 24571.7 2690.7 24571.3 2711.5 24568.8 2732.3 24565.5 2753.1 24562.2 2773.9 24548 2794.7 24551.8 2815.5 24555.6 2836.3 24584.7 2857.1 24588.5 2877.9 24592.2 2898.7 24565.4 2919.5 24574 2940.3 24582.6 2961.1 24633.5 2981.9 24640 3002.7 24646.5 3023.5 24622 3044.3 24613.1 3065.1 24604.1 3085.9 24588.6 3106.7 24586.3 3127.5 24584 3148.3 24592.6 3169.1 24599.3 3189.9 24605.9 3221.1 24621.7 3231.5 24626.2" stroke="#FFB226" stroke-width="9.16667" stroke-linecap="round" stroke-linejoin="round" stroke-miterlimit="10" fill="none"/></g><g><path d="M1983.5 24538.5C2004.3 24533.6 2025.1 24531.3 2045.9 24523.8 2066.7 24516.2 2087.5 24490.3 2108.3 24493.2 2129.1 24496 2149.9 24530.6 2170.7 24541.1 2191.5 24551.5 2212.3 24555.2 2233.1 24555.8 2253.9 24556.4 2274.7 24545.2 2295.5 24544.8 2316.3 24544.4 2337.1 24554 2357.9 24553.5 2378.7 24553 2399.5 24546.1 2420.3 24541.9 2441.1 24537.8 2461.9 24527.8 2482.7 24528.5 2503.5 24529.2 2524.3 24545.7 2545.1 24546.1 2565.9 24546.6 2586.7 24531.6 2607.5 24531.1 2628.3 24530.7 2649.1 24546.2 2669.9 24543.6 2690.7 24541 2711.5 24514.6 2732.3 24515.7 2753.1 24516.7 2773.9 24546.2 2794.7 24550.1 2815.5 24553.9 2836.3 24539.4 2857.1 24538.7 2877.9 24537.9 2898.7 24535.6 2919.5 24545.4 2940.3 24555.2 2961.1 24607.5 2981.9 24597.4 3002.7 24587.4 3023.5 24504.5 3044.3 24485 3065.1 24465.5 3085.9 24477.3 3106.7 24480.5 3127.5 24483.7 3148.3 24487.9 3169.1 24504.3 3189.9 24520.7 3221.1 24566.4 3231.5 24578.8" stroke="#000000" stroke-width="9.16667" stroke-linecap="round" stroke-linejoin="round" stroke-miterlimit="10" fill="none"/></g><g><text font-family="Inter,Inter_MSFontService,sans-serif" font-weight="400" font-size="32" transform="matrix(1 0 0 1 1909.24 25009)">80</text></g><g><text font-family="Inter,Inter_MSFontService,sans-serif" font-weight="400" font-size="32" transform="matrix(1 0 0 1 1909.01 24783)">90</text></g><g><text font-family="Inter,Inter_MSFontService,sans-serif" font-weight="400" font-size="32" transform="matrix(1 0 0 1 1894.07 24558)">100</text></g><g><text font-family="Inter,Inter_MSFontService,sans-serif" font-weight="400" font-size="32" transform="matrix(1 0 0 1 1899.22 24332)">110</text></g><g><text font-family="Inter,Inter_MSFontService,sans-serif" font-weight="400" font-size="32" transform="matrix(0.707107 -0.707107 0.707107 0.707107 1956.31 25077)">6/7</text></g><g><text font-family="Inter,Inter_MSFontService,sans-serif" font-weight="400" font-size="32" transform="matrix(0.707107 -0.707107 0.707107 0.707107 2128.83 25092)">6/28</text></g><g><text font-family="Inter,Inter_MSFontService,sans-serif" font-weight="400" font-size="32" transform="matrix(0.707107 -0.707107 0.707107 0.707107 2320.34 25087)">7/19</text></g><g><text font-family="Inter,Inter_MSFontService,sans-serif" font-weight="400" font-size="32" transform="matrix(0.707107 -0.707107 0.707107 0.707107 2517.11 25078)">8/9</text></g><g><text font-family="Inter,Inter_MSFontService,sans-serif" font-weight="400" font-size="32" transform="matrix(0.707107 -0.707107 0.707107 0.707107 2689.93 25092)">8/30</text></g><g><text font-family="Inter,Inter_MSFontService,sans-serif" font-weight="400" font-size="32" transform="matrix(0.707107 -0.707107 0.707107 0.707107 2877.76 25092)">9/20</text></g><g><text font-family="Inter,Inter_MSFontService,sans-serif" font-weight="400" font-size="32" transform="matrix(0.707107 -0.707107 0.707107 0.707107 3061.31 25095)">10/11</text></g><g><text font-family="Inter,Inter_MSFontService,sans-serif" font-weight="400" font-size="32" transform="matrix(0.707107 -0.707107 0.707107 0.707107 3262.77 25081)">11/1</text></g><g><text font-family="Inter,Inter_MSFontService,sans-serif" font-weight="400" font-size="32" transform="matrix(0.707107 -0.707107 0.707107 0.707107 3433.13 25098)">11/22</text></g><g><text font-family="Inter,Inter_MSFontService,sans-serif" font-weight="400" font-size="32" transform="matrix(0.707107 -0.707107 0.707107 0.707107 3619.7 25099)">12/13</text></g><g><text font-family="Inter,Inter_MSFontService,sans-serif" font-weight="400" font-size="32" transform="matrix(0.707107 -0.707107 0.707107 0.707107 3831.24 25075)">1/3</text></g><g><text font-family="Inter Medium,Inter Medium_MSFontService,sans-serif" font-weight="700" font-size="46" transform="matrix(1 0 0 1 1895.56 24157)">U.S. Hotel Occupancy and ADR Recovery Levels</text></g><g><path d="M1886.5 24256.5 1974.5 24256.5" stroke="#FFB226" stroke-width="9.16667" stroke-linecap="round" stroke-linejoin="round" stroke-miterlimit="10" fill="none" fill-rule="evenodd"/></g><g><text font-family="Inter Medium,Inter Medium_MSFontService,sans-serif" font-weight="500" font-size="37" transform="matrix(1 0 0 1 1984.15 24268)">Occ Index</text></g><g><path d="M2211.5 24256.5 2299.5 24256.5" stroke="#000000" stroke-width="9.16667" stroke-linecap="round" stroke-linejoin="round" stroke-miterlimit="10" fill="none" fill-rule="evenodd"/></g><g><text font-family="Inter Medium,Inter Medium_MSFontService,sans-serif" font-weight="500" font-size="37" transform="matrix(1 0 0 1 2308.7 24268)">ADR Index</text></g><rect x="1812.5" y="24066.5" width="2103" height="1091" stroke="#D9D9D9" stroke-width="3.4375" stroke-linejoin="round" stroke-miterlimit="10" fill="none"/><g><text fill="#7F7F7F" font-family="Inter,Inter_MSFontService,sans-serif" font-weight="400" font-size="32" transform="matrix(1 0 0 1 1893.3 24213)">YOY, Source: STR, str.com</text></g></g></svg>