<svg width="2106" height="1059" xmlns="http://www.w3.org/2000/svg" xmlns:xlink="http://www.w3.org/1999/xlink" xml:space="preserve" overflow="hidden"><defs><filter id="fx0" x="-10%" y="-10%" width="120%" height="120%" filterUnits="userSpaceOnUse" primitiveUnits="userSpaceOnUse"><feComponentTransfer color-interpolation-filters="sRGB"><feFuncR type="discrete" tableValues="0 0"/><feFuncG type="discrete" tableValues="0 0"/><feFuncB type="discrete" tableValues="0 0"/><feFuncA type="linear" slope="0.501961" intercept="0"/></feComponentTransfer><feGaussianBlur stdDeviation="4.58333 4.58333"/></filter><filter id="fx1" x="-10%" y="-10%" width="120%" height="120%" filterUnits="userSpaceOnUse" primitiveUnits="userSpaceOnUse"><feComponentTransfer color-interpolation-filters="sRGB"><feFuncR type="discrete" tableValues="0 0"/><feFuncG type="discrete" tableValues="0 0"/><feFuncB type="discrete" tableValues="0 0"/><feFuncA type="linear" slope="0.501961" intercept="0"/></feComponentTransfer><feGaussianBlur stdDeviation="4.58333 4.58333"/></filter><clipPath id="clip2"><rect x="1657" y="20055" width="2106" height="1059"/></clipPath><clipPath id="clip3"><rect x="1825" y="20303" width="1885" height="659"/></clipPath><clipPath id="clip4"><rect x="1825" y="20303" width="1885" height="659"/></clipPath></defs><g clip-path="url(#clip2)" transform="translate(-1657 -20055)"><rect x="1658" y="20056" width="2103" height="1056" fill="#FFFFFF"/><g><path d="M2910.5 20303.5 2946.6 20303.5 2982.6 20303.5 3018.6 20303.5 3054.6 20303.5 3090.6 20303.5 3126.6 20303.5 3163.6 20303.5 3199.6 20303.5 3235.61 20303.5 3271.61 20303.5 3307.61 20303.5 3343.61 20303.5 3379.61 20303.5 3415.61 20303.5 3451.61 20303.5 3487.61 20303.5 3523.62 20303.5 3559.62 20303.5 3596.62 20303.5 3632.62 20303.5 3668.62 20303.5 3704.5 20303.5 3704.5 20959.5 3668.62 20959.5 3632.62 20959.5 3596.62 20959.5 3559.62 20959.5 3523.62 20959.5 3487.61 20959.5 3451.61 20959.5 3415.61 20959.5 3379.61 20959.5 3343.61 20959.5 3307.61 20959.5 3271.61 20959.5 3235.61 20959.5 3199.6 20959.5 3163.6 20959.5 3126.6 20959.5 3090.6 20959.5 3054.6 20959.5 3018.6 20959.5 2982.6 20959.5 2946.6 20959.5 2910.5 20959.5Z" stroke="#BFBFBF" stroke-width="3.4375" stroke-linejoin="round" stroke-miterlimit="10" stroke-opacity="0.501961" fill="#D9D9D9" fill-opacity="0.501961"/></g><g><path d="M1825.5 20696.5 3707.5 20696.5" stroke="#D9D9D9" stroke-width="3.4375" stroke-linejoin="round" stroke-miterlimit="10" fill="none" fill-rule="evenodd"/></g><g clip-path="url(#clip3)"><g filter="url(#fx0)" transform="translate(1814 20409)"><g><path d="M19.9817 285.6C32.0177 290.322 44.0537 296.806 56.0897 299.765 68.1257 302.724 80.1613 298.488 92.1977 303.353 104.234 308.218 116.27 336.74 128.306 328.954 140.342 321.167 152.378 260.675 164.414 256.633 176.45 252.59 188.486 289.966 200.522 304.7 212.558 319.433 224.594 348.596 236.63 345.034 248.666 341.471 260.702 291.209 272.738 283.325 284.774 275.442 296.81 297.519 308.846 297.732 320.882 297.944 332.918 286.483 344.954 284.6 356.99 282.717 369.026 284.525 381.063 286.434 393.099 288.344 405.135 298.474 417.171 296.059 429.207 293.643 441.242 276.444 453.279 271.941 465.315 267.438 477.351 256.296 489.387 269.04 501.423 281.783 513.459 340.676 525.495 348.4 537.531 356.124 549.567 325.707 561.603 315.383 573.639 305.059 585.675 295.566 597.711 286.457 609.747 277.347 621.783 252.368 633.82 260.725 645.856 269.082 657.892 336.772 669.928 336.599 681.964 336.427 693.999 270.253 706.036 259.691 718.072 249.129 730.108 277.412 742.144 273.226 754.18 269.04 766.216 235.118 778.252 234.576 790.288 234.033 802.324 252.642 814.36 269.974 826.396 287.306 838.432 337.693 850.468 338.567 858.552 339.154 878.493 310.757 886.576 275.216 898.612 222.295 910.648 0.982422 922.684 21.0446 934.72 41.1067 946.756 351.194 958.793 395.588 970.829 439.982 982.865 323.478 994.901 287.411 1006.94 251.343 1018.97 202.927 1031.01 179.183 1040.37 160.709 1057.75 121.907 1067.12 144.944 1079.15 174.554 1091.19 338.977 1103.23 356.841 1115.26 374.705 1127.3 245.795 1139.33 252.129 1151.37 258.463 1163.4 402.902 1175.44 394.845 1187.48 386.787 1199.51 213.196 1211.55 203.785 1223.59 194.374 1235.62 328.467 1247.66 338.38 1259.69 348.292 1271.73 269.475 1283.77 263.261 1295.8 257.047 1307.84 298.904 1319.87 301.095 1331.91 303.286 1349.96 280.521 1355.98 276.407" stroke="#FFB226" stroke-width="9" stroke-linecap="round" stroke-linejoin="round" stroke-miterlimit="10" fill="none"/></g></g></g><g clip-path="url(#clip4)"><g filter="url(#fx1)" transform="translate(1814 20539)"><g><path d="M19.9817 159.159C32.0177 151.991 44.0537 139.364 56.0897 137.655 68.1257 135.945 80.1613 145.668 92.1977 148.902 104.234 152.135 116.27 163.617 128.306 157.054 140.342 150.49 152.378 110.358 164.414 109.522 176.45 108.685 188.486 140.49 200.522 152.033 212.558 163.576 224.594 182.483 236.63 178.779 248.666 175.074 260.702 135.75 272.738 129.805 284.774 123.86 296.81 139.47 308.846 143.108 320.882 146.746 332.918 152.31 344.954 151.632 356.99 150.953 369.026 140.11 381.063 139.036 393.099 137.962 405.135 147.613 417.171 145.188 429.207 142.762 441.242 125.862 453.279 124.483 465.315 123.102 477.351 128.838 489.387 136.907 501.423 144.976 513.459 169.552 525.495 172.899 537.531 176.245 549.567 163.486 561.603 156.988 573.639 150.49 585.675 149.756 597.711 133.911 609.747 118.067 621.783 47.5794 633.82 61.9208 645.856 76.2619 657.892 206.389 669.928 219.96 681.964 233.529 693.999 158.595 706.036 143.34 718.072 128.086 730.108 135.516 742.144 128.433 754.18 121.35 766.216 97.8485 778.252 100.844 790.288 103.84 802.324 135.971 814.36 146.407 826.396 156.843 838.432 158.372 850.468 163.459 860.727 167.795 876.317 193.213 886.576 176.929 898.612 157.824 910.648 45.2293 922.684 48.8306 934.72 52.4319 946.756 188.41 958.793 198.537 970.829 208.664 982.865 134.555 994.901 109.592 1006.94 84.6285 1018.97 45.9537 1031.01 48.7571 1043.04 51.5602 1055.08 103.661 1067.12 126.412 1079.15 149.163 1091.19 202.93 1103.23 185.262 1115.26 167.593 1127.3 9.98242 1139.33 20.3989 1151.37 30.8151 1163.4 244.538 1175.44 247.76 1187.48 250.982 1199.51 60.1254 1211.55 39.7331 1223.59 19.3408 1235.62 107.977 1247.66 125.407 1259.23 142.16 1272.2 131.657 1283.77 144.31 1295.8 157.473 1307.84 204.484 1319.87 204.386 1331.91 204.289 1349.96 153.836 1355.98 143.726" stroke="#000000" stroke-width="9" stroke-linecap="round" stroke-linejoin="round" stroke-miterlimit="10" fill="none"/></g></g></g><g><path d="M1827.5 20688.1C1839.54 20692.8 1851.57 20699.3 1863.61 20702.3 1875.64 20705.2 1887.68 20701 1899.72 20705.9 1911.75 20710.7 1923.79 20739.3 1935.82 20731.5 1947.86 20723.7 1959.9 20663.2 1971.93 20659.2 1983.97 20655.1 1996 20692.5 2008.04 20707.2 2020.08 20722 2032.11 20751.1 2044.15 20747.6 2056.18 20744 2068.22 20693.7 2080.26 20685.8 2092.29 20678 2104.33 20700 2116.36 20700.2 2128.4 20700.5 2140.44 20689 2152.47 20687.1 2164.51 20685.2 2176.54 20687 2188.58 20689 2200.62 20690.9 2212.65 20701 2224.69 20698.6 2236.73 20696.2 2248.76 20679 2260.8 20674.5 2272.83 20670 2284.87 20658.8 2296.91 20671.6 2308.94 20684.3 2320.98 20743.2 2333.01 20750.9 2345.05 20758.6 2357.09 20728.2 2369.12 20717.9 2381.16 20707.6 2393.19 20698.1 2405.23 20689 2417.27 20679.9 2429.3 20654.9 2441.34 20663.2 2453.37 20671.6 2465.41 20739.3 2477.45 20739.1 2489.48 20738.9 2501.52 20672.8 2513.55 20662.2 2525.59 20651.6 2537.63 20679.9 2549.66 20675.7 2561.7 20671.6 2573.73 20637.6 2585.77 20637.1 2597.81 20636.6 2609.84 20655.2 2621.88 20672.5 2633.91 20689.8 2645.95 20740.2 2657.99 20741.1 2666.07 20741.7 2686.01 20713.3 2694.09 20677.7 2706.13 20624.8 2718.17 20403.5 2730.2 20423.6 2742.24 20443.6 2754.27 20753.7 2766.31 20798.1 2778.35 20842.5 2790.38 20726 2802.42 20689.9 2814.46 20653.9 2826.49 20605.4 2838.53 20581.7 2847.89 20563.2 2865.27 20524.4 2874.63 20547.5 2886.67 20577.1 2898.71 20741.5 2910.74 20759.4 2922.78 20777.2 2934.82 20648.3 2946.85 20654.6 2958.89 20661 2970.92 20805.4 2982.96 20797.4 2995 20789.3 3007.03 20615.7 3019.07 20606.3 3031.1 20596.9 3043.14 20731 3055.18 20740.9 3067.21 20750.8 3079.25 20672 3091.28 20665.8 3103.32 20659.6 3115.36 20701.4 3127.39 20703.6 3139.43 20705.8 3157.48 20683 3163.5 20678.9" stroke="#FFB226" stroke-width="9.16667" stroke-linecap="round" stroke-linejoin="round" stroke-miterlimit="10" fill="none"/></g><g><path d="M1827.5 20691.7C1839.54 20684.5 1851.57 20671.9 1863.61 20670.2 1875.64 20668.5 1887.68 20678.2 1899.72 20681.4 1911.75 20684.7 1923.79 20696.1 1935.82 20689.6 1947.86 20683 1959.9 20642.9 1971.93 20642 1983.97 20641.2 1996 20673 2008.04 20684.6 2020.08 20696.1 2032.11 20715 2044.15 20711.3 2056.18 20707.6 2068.22 20668.3 2080.26 20662.3 2092.29 20656.4 2104.33 20672 2116.36 20675.6 2128.4 20679.3 2140.44 20684.8 2152.47 20684.1 2164.51 20683.5 2176.54 20672.6 2188.58 20671.6 2200.62 20670.5 2212.65 20680.1 2224.69 20677.7 2236.73 20675.3 2248.76 20658.4 2260.8 20657 2272.83 20655.6 2284.87 20661.4 2296.91 20669.4 2308.94 20677.5 2320.98 20702.1 2333.01 20705.4 2345.05 20708.8 2357.09 20696 2369.12 20689.5 2381.16 20683 2393.19 20682.3 2405.23 20666.4 2417.27 20650.6 2429.3 20580.1 2441.34 20594.4 2453.37 20608.8 2465.41 20738.9 2477.45 20752.5 2489.48 20766 2501.52 20691.1 2513.55 20675.9 2525.59 20660.6 2537.63 20668 2549.66 20661 2561.7 20653.9 2573.73 20630.4 2585.77 20633.4 2597.81 20636.4 2609.84 20668.5 2621.88 20678.9 2633.91 20689.4 2645.95 20690.9 2657.99 20696 2668.25 20700.3 2683.83 20725.7 2694.09 20709.4 2706.13 20690.3 2718.17 20577.7 2730.2 20581.3 2742.24 20584.9 2754.27 20720.9 2766.31 20731.1 2778.35 20741.2 2790.38 20667.1 2802.42 20642.1 2814.46 20617.1 2826.49 20578.5 2838.53 20581.3 2850.56 20584.1 2862.6 20636.2 2874.63 20658.9 2886.67 20681.7 2898.71 20735.4 2910.74 20717.8 2922.78 20700.1 2934.82 20542.5 2946.85 20552.9 2958.89 20563.3 2970.92 20777.1 2982.96 20780.3 2995 20783.5 3007.03 20592.6 3019.07 20572.2 3031.1 20551.9 3043.14 20640.5 3055.18 20657.9 3066.74 20674.7 3079.71 20664.2 3091.28 20676.8 3103.32 20690 3115.36 20737 3127.39 20736.9 3139.43 20736.8 3157.48 20686.4 3163.5 20676.2" stroke="#000000" stroke-width="9.16667" stroke-linecap="round" stroke-linejoin="round" stroke-miterlimit="10" fill="none"/></g><g><text font-family="Inter,Inter_MSFontService,sans-serif" font-weight="400" font-size="32" transform="matrix(1 0 0 1 1755.7 20969)">80</text></g><g><text font-family="Inter,Inter_MSFontService,sans-serif" font-weight="400" font-size="32" transform="matrix(1 0 0 1 1755.47 20838)">90</text></g><g><text font-family="Inter,Inter_MSFontService,sans-serif" font-weight="400" font-size="32" transform="matrix(1 0 0 1 1740.53 20707)">100</text></g><g><text font-family="Inter,Inter_MSFontService,sans-serif" font-weight="400" font-size="32" transform="matrix(1 0 0 1 1745.68 20576)">110</text></g><g><text font-family="Inter,Inter_MSFontService,sans-serif" font-weight="400" font-size="32" transform="matrix(1 0 0 1 1741.17 20445)">120</text></g><g><text font-family="Inter,Inter_MSFontService,sans-serif" font-weight="400" font-size="32" transform="matrix(1 0 0 1 1740.16 20314)">130</text></g><g><text font-family="Inter,Inter_MSFontService,sans-serif" font-weight="400" font-size="32" transform="matrix(0.707107 -0.707107 0.707107 0.707107 1803.3 21035)">6/1</text></g><g><text font-family="Inter,Inter_MSFontService,sans-serif" font-weight="400" font-size="32" transform="matrix(0.707107 -0.707107 0.707107 0.707107 1894.65 21051)">6/22</text></g><g><text font-family="Inter,Inter_MSFontService,sans-serif" font-weight="400" font-size="32" transform="matrix(0.707107 -0.707107 0.707107 0.707107 2006.59 21048)">7/13</text></g><g><text font-family="Inter,Inter_MSFontService,sans-serif" font-weight="400" font-size="32" transform="matrix(0.707107 -0.707107 0.707107 0.707107 2124.35 21038)">8/3</text></g><g><text font-family="Inter,Inter_MSFontService,sans-serif" font-weight="400" font-size="32" transform="matrix(0.707107 -0.707107 0.707107 0.707107 2218.76 21052)">8/24</text></g><g><text font-family="Inter,Inter_MSFontService,sans-serif" font-weight="400" font-size="32" transform="matrix(0.707107 -0.707107 0.707107 0.707107 2330.05 21049)">9/14</text></g><g><text font-family="Inter,Inter_MSFontService,sans-serif" font-weight="400" font-size="32" transform="matrix(0.707107 -0.707107 0.707107 0.707107 2439.06 21048)">10/5</text></g><g><text font-family="Inter,Inter_MSFontService,sans-serif" font-weight="400" font-size="32" transform="matrix(0.707107 -0.707107 0.707107 0.707107 2533.24 21062)">10/26</text></g><g><text font-family="Inter,Inter_MSFontService,sans-serif" font-weight="400" font-size="32" transform="matrix(0.707107 -0.707107 0.707107 0.707107 2648.35 21056)">11/16</text></g><g><text font-family="Inter,Inter_MSFontService,sans-serif" font-weight="400" font-size="32" transform="matrix(0.707107 -0.707107 0.707107 0.707107 2765.15 21047)">12/7</text></g><g><text font-family="Inter,Inter_MSFontService,sans-serif" font-weight="400" font-size="32" transform="matrix(0.707107 -0.707107 0.707107 0.707107 2858.65 21062)">12/28</text></g><g><text font-family="Inter,Inter_MSFontService,sans-serif" font-weight="400" font-size="32" transform="matrix(0.707107 -0.707107 0.707107 0.707107 2983.83 21045)">1/18</text></g><g><text font-family="Inter,Inter_MSFontService,sans-serif" font-weight="400" font-size="32" transform="matrix(0.707107 -0.707107 0.707107 0.707107 3099.44 21038)">2/8</text></g><g><text font-family="Inter,Inter_MSFontService,sans-serif" font-weight="400" font-size="32" transform="matrix(0.707107 -0.707107 0.707107 0.707107 3210.44 21035)">3/1</text></g><g><text font-family="Inter,Inter_MSFontService,sans-serif" font-weight="400" font-size="32" transform="matrix(0.707107 -0.707107 0.707107 0.707107 3301.78 21052)">3/22</text></g><g><text font-family="Inter,Inter_MSFontService,sans-serif" font-weight="400" font-size="32" transform="matrix(0.707107 -0.707107 0.707107 0.707107 3413.11 21049)">4/12</text></g><g><text font-family="Inter,Inter_MSFontService,sans-serif" font-weight="400" font-size="32" transform="matrix(0.707107 -0.707107 0.707107 0.707107 3531.97 21038)">5/3</text></g><g><text font-family="Inter,Inter_MSFontService,sans-serif" font-weight="400" font-size="32" transform="matrix(0.707107 -0.707107 0.707107 0.707107 3626.38 21052)">5/24</text></g><g><text font-family="Inter Medium,Inter Medium_MSFontService,sans-serif" font-weight="700" font-size="46" transform="matrix(1 0 0 1 1742.02 20145)">U.S. Hotel Occupancy and ADR Recovery Levels</text></g><g><path d="M1733.5 20240.5 1821.5 20240.5" stroke="#FFB226" stroke-width="9.16667" stroke-linecap="round" stroke-linejoin="round" stroke-miterlimit="10" fill="none" fill-rule="evenodd"/></g><g><text font-family="Inter Medium,Inter Medium_MSFontService,sans-serif" font-weight="500" font-size="37" transform="matrix(1 0 0 1 1830.61 20252)">Occ Index</text></g><g><path d="M2057.5 20240.5 2145.5 20240.5" stroke="#000000" stroke-width="9.16667" stroke-linecap="round" stroke-linejoin="round" stroke-miterlimit="10" fill="none" fill-rule="evenodd"/></g><g><text font-family="Inter Medium,Inter Medium_MSFontService,sans-serif" font-weight="500" font-size="37" transform="matrix(1 0 0 1 2155.16 20252)">ADR Index</text></g><rect x="1658.5" y="20056.5" width="2103" height="1056" stroke="#D9D9D9" stroke-width="3.4375" stroke-linejoin="round" stroke-miterlimit="10" fill="none"/><g><text fill="#7F7F7F" font-family="Inter,Inter_MSFontService,sans-serif" font-weight="400" font-size="32" transform="matrix(1 0 0 1 1739.76 20199)">Indexed to 2023, Source: STR, str.com</text></g><g><g><text font-family="Inter Medium,Inter Medium_MSFontService,sans-serif" font-weight="700" font-size="37" transform="matrix(1 0 0 1 2904.79 21085)">2025</text></g></g></g></svg>