<svg width="2106" height="1059" xmlns="http://www.w3.org/2000/svg" xmlns:xlink="http://www.w3.org/1999/xlink" xml:space="preserve" overflow="hidden"><defs><filter id="fx0" x="-10%" y="-10%" width="120%" height="120%" filterUnits="userSpaceOnUse" primitiveUnits="userSpaceOnUse"><feComponentTransfer color-interpolation-filters="sRGB"><feFuncR type="discrete" tableValues="0 0"/><feFuncG type="discrete" tableValues="0 0"/><feFuncB type="discrete" tableValues="0 0"/><feFuncA type="linear" slope="0.501961" intercept="0"/></feComponentTransfer><feGaussianBlur stdDeviation="4.58333 4.58333"/></filter><filter id="fx1" x="-10%" y="-10%" width="120%" height="120%" filterUnits="userSpaceOnUse" primitiveUnits="userSpaceOnUse"><feComponentTransfer color-interpolation-filters="sRGB"><feFuncR type="discrete" tableValues="0 0"/><feFuncG type="discrete" tableValues="0 0"/><feFuncB type="discrete" tableValues="0 0"/><feFuncA type="linear" slope="0.501961" intercept="0"/></feComponentTransfer><feGaussianBlur stdDeviation="4.58333 4.58333"/></filter><clipPath id="clip2"><rect x="1811" y="23263" width="2106" height="1059"/></clipPath><clipPath id="clip3"><rect x="1978" y="23512" width="1885" height="658"/></clipPath><clipPath id="clip4"><rect x="1978" y="23512" width="1885" height="658"/></clipPath></defs><g clip-path="url(#clip2)" transform="translate(-1811 -23263)"><rect x="1812" y="23264" width="2103" height="1056" fill="#FFFFFF"/><g><rect x="1979" y="23512" width="1882" height="655" fill="#F2F2F2"/></g><g><path d="M1978.5 23730.5 3860.5 23730.5" stroke="#D9D9D9" stroke-width="3.4375" stroke-linejoin="round" stroke-miterlimit="10" fill="none" fill-rule="evenodd"/></g><g clip-path="url(#clip3)"><g filter="url(#fx0)" transform="translate(1970 23685)"><g><path d="M19.9817 118.625C40.7909 114.103 61.6005 121.366 82.4101 105.06 103.219 88.7533 124.029 29.594 144.839 20.7882 165.648 11.9824 186.458 45.7971 207.267 52.2249 228.077 58.6524 248.886 48.8287 269.696 59.3534 290.505 69.8776 311.315 107.146 332.125 115.371 352.934 123.596 373.743 116.7 394.553 108.705 415.362 100.709 436.172 77.3353 456.981 67.3975 477.791 57.4595 498.601 47.895 519.41 49.0767 540.22 50.2581 561.029 70.6963 581.839 74.487 602.648 78.2774 623.458 71.6741 644.268 71.8203 665.077 71.9661 685.886 75.7792 706.696 75.3627 727.505 74.9461 748.315 72.5472 769.124 69.3211 789.934 66.0945 810.744 52.2928 831.553 56.0048 852.362 59.7165 873.172 87.9935 893.982 91.5918 914.791 95.1898 935.601 69.2478 956.41 77.5933 977.22 85.9386 998.029 135.345 1018.84 141.664 1039.65 147.982 1060.46 124.197 1081.27 115.506 1102.08 106.815 1122.89 91.7553 1143.7 89.5199 1164.51 87.2842 1185.31 95.6431 1206.12 102.093 1226.93 108.543 1247.74 127.548 1268.55 128.22 1289.36 128.892 1320.58 109.81 1330.98 106.128" stroke="#FFB226" stroke-width="9" stroke-linecap="round" stroke-linejoin="round" stroke-miterlimit="10" fill="none"/></g></g></g><g clip-path="url(#clip4)"><g filter="url(#fx1)" transform="translate(1970 23646)"><g><path d="M19.9817 81.887C40.7909 77.1313 61.6005 74.9583 82.4101 67.6207 103.219 60.283 124.029 35.0631 144.839 37.8611 165.648 40.6587 186.458 74.2586 207.267 84.4069 228.077 94.5552 248.886 98.1384 269.696 98.7508 290.505 99.3628 311.315 88.4539 332.125 88.0795 352.934 87.7048 373.743 96.972 394.553 96.5039 415.362 96.0354 436.172 89.313 456.981 85.2693 477.791 81.2255 498.601 71.5638 519.41 72.2415 540.22 72.9188 561.029 88.9116 581.839 89.335 602.648 89.7581 623.458 75.1884 644.268 74.7805 665.077 74.3726 685.886 89.397 706.696 86.8876 727.505 84.3777 748.315 58.677 769.124 59.7233 789.934 60.7696 810.744 89.4378 831.553 93.1652 852.362 96.8923 873.172 82.8384 893.982 82.0861 914.791 81.3334 935.601 79.1312 956.41 88.6494 977.22 98.1672 998.029 148.983 1018.84 139.195 1039.65 129.406 1060.46 48.858 1081.27 29.9204 1102.08 10.9824 1122.89 22.4395 1143.7 25.5679 1164.51 28.6963 1185.31 32.7631 1206.12 48.6906 1226.93 64.6178 1247.74 116.666 1268.55 121.131 1289.36 125.597 1320.58 83.0912 1330.98 75.4835" stroke="#000000" stroke-width="9" stroke-linecap="round" stroke-linejoin="round" stroke-miterlimit="10" fill="none"/></g></g></g><g><path d="M1983.5 23797.1C2004.31 23792.6 2025.12 23799.9 2045.93 23783.6 2066.74 23767.3 2087.55 23708.1 2108.36 23699.3 2129.17 23690.5 2149.98 23724.3 2170.79 23730.7 2191.59 23737.2 2212.4 23727.3 2233.21 23737.9 2254.02 23748.4 2274.83 23785.7 2295.64 23793.9 2316.45 23802.1 2337.26 23795.2 2358.07 23787.2 2378.88 23779.2 2399.69 23755.9 2420.5 23745.9 2441.31 23736 2462.12 23726.4 2482.93 23727.6 2503.74 23728.8 2524.55 23749.2 2545.36 23753 2566.17 23756.8 2586.98 23750.2 2607.79 23750.3 2628.59 23750.5 2649.4 23754.3 2670.21 23753.9 2691.02 23753.5 2711.83 23751.1 2732.64 23747.8 2753.45 23744.6 2774.26 23730.8 2795.07 23734.5 2815.88 23738.2 2836.69 23766.5 2857.5 23770.1 2878.31 23773.7 2899.12 23747.8 2919.93 23756.1 2940.74 23764.5 2961.55 23813.9 2982.36 23820.2 3003.17 23826.5 3023.98 23802.7 3044.79 23794 3065.59 23785.3 3086.4 23770.3 3107.21 23768 3128.02 23765.8 3148.83 23774.2 3169.64 23780.6 3190.45 23787.1 3211.26 23806.1 3232.07 23806.7 3252.88 23807.4 3284.1 23788.3 3294.5 23784.6" stroke="#FFB226" stroke-width="9.16667" stroke-linecap="round" stroke-linejoin="round" stroke-miterlimit="10" fill="none"/></g><g><path d="M1983.5 23721.4C2004.31 23716.6 2025.12 23714.5 2045.93 23707.1 2066.74 23699.8 2087.55 23674.6 2108.36 23677.4 2129.17 23680.2 2149.98 23713.8 2170.79 23723.9 2191.59 23734.1 2212.4 23737.7 2233.21 23738.3 2254.02 23738.9 2274.83 23728 2295.64 23727.6 2316.45 23727.2 2337.26 23736.5 2358.07 23736 2378.88 23735.6 2399.69 23728.8 2420.5 23724.8 2441.31 23720.7 2462.12 23711.1 2482.93 23711.8 2503.74 23712.4 2524.55 23728.4 2545.36 23728.9 2566.17 23729.3 2586.98 23714.7 2607.79 23714.3 2628.59 23713.9 2649.4 23728.9 2670.21 23726.4 2691.02 23723.9 2711.83 23698.2 2732.64 23699.2 2753.45 23700.3 2774.26 23729 2795.07 23732.7 2815.88 23736.4 2836.69 23722.4 2857.5 23721.6 2878.31 23720.9 2899.12 23718.6 2919.93 23728.2 2940.74 23737.7 2961.55 23788.5 2982.36 23778.7 3003.17 23768.9 3023.98 23688.4 3044.79 23669.4 3065.59 23650.5 3086.4 23662 3107.21 23665.1 3128.02 23668.2 3148.83 23672.3 3169.64 23688.2 3190.45 23704.1 3211.26 23756.2 3232.07 23760.6 3252.88 23765.1 3284.1 23722.6 3294.5 23715" stroke="#000000" stroke-width="9.16667" stroke-linecap="round" stroke-linejoin="round" stroke-miterlimit="10" fill="none"/></g><g><text font-family="Inter,Inter_MSFontService,sans-serif" font-weight="400" font-size="32" transform="matrix(1 0 0 1 1909.24 24177)">80</text></g><g><text font-family="Inter,Inter_MSFontService,sans-serif" font-weight="400" font-size="32" transform="matrix(1 0 0 1 1909.01 23959)">90</text></g><g><text font-family="Inter,Inter_MSFontService,sans-serif" font-weight="400" font-size="32" transform="matrix(1 0 0 1 1894.07 23740)">100</text></g><g><text font-family="Inter,Inter_MSFontService,sans-serif" font-weight="400" font-size="32" transform="matrix(1 0 0 1 1899.22 23522)">110</text></g><g><text font-family="Inter,Inter_MSFontService,sans-serif" font-weight="400" font-size="32" transform="matrix(0.707107 -0.707107 0.707107 0.707107 1956.31 24245)">6/7</text></g><g><text font-family="Inter,Inter_MSFontService,sans-serif" font-weight="400" font-size="32" transform="matrix(0.707107 -0.707107 0.707107 0.707107 2128.83 24260)">6/28</text></g><g><text font-family="Inter,Inter_MSFontService,sans-serif" font-weight="400" font-size="32" transform="matrix(0.707107 -0.707107 0.707107 0.707107 2320.34 24256)">7/19</text></g><g><text font-family="Inter,Inter_MSFontService,sans-serif" font-weight="400" font-size="32" transform="matrix(0.707107 -0.707107 0.707107 0.707107 2517.11 24246)">8/9</text></g><g><text font-family="Inter,Inter_MSFontService,sans-serif" font-weight="400" font-size="32" transform="matrix(0.707107 -0.707107 0.707107 0.707107 2689.93 24261)">8/30</text></g><g><text font-family="Inter,Inter_MSFontService,sans-serif" font-weight="400" font-size="32" transform="matrix(0.707107 -0.707107 0.707107 0.707107 2877.76 24260)">9/20</text></g><g><text font-family="Inter,Inter_MSFontService,sans-serif" font-weight="400" font-size="32" transform="matrix(0.707107 -0.707107 0.707107 0.707107 3061.31 24264)">10/11</text></g><g><text font-family="Inter,Inter_MSFontService,sans-serif" font-weight="400" font-size="32" transform="matrix(0.707107 -0.707107 0.707107 0.707107 3262.77 24250)">11/1</text></g><g><text font-family="Inter,Inter_MSFontService,sans-serif" font-weight="400" font-size="32" transform="matrix(0.707107 -0.707107 0.707107 0.707107 3433.13 24267)">11/22</text></g><g><text font-family="Inter,Inter_MSFontService,sans-serif" font-weight="400" font-size="32" transform="matrix(0.707107 -0.707107 0.707107 0.707107 3619.7 24267)">12/13</text></g><g><text font-family="Inter,Inter_MSFontService,sans-serif" font-weight="400" font-size="32" transform="matrix(0.707107 -0.707107 0.707107 0.707107 3831.24 24243)">1/3</text></g><g><text font-family="Inter Medium,Inter Medium_MSFontService,sans-serif" font-weight="700" font-size="46" transform="matrix(1 0 0 1 1895.56 23354)">U.S. Hotel Occupancy and ADR Recovery Levels</text></g><g><path d="M1886.5 23448.5 1974.5 23448.5" stroke="#FFB226" stroke-width="9.16667" stroke-linecap="round" stroke-linejoin="round" stroke-miterlimit="10" fill="none" fill-rule="evenodd"/></g><g><text font-family="Inter Medium,Inter Medium_MSFontService,sans-serif" font-weight="500" font-size="37" transform="matrix(1 0 0 1 1984.15 23460)">Occ Index</text></g><g><path d="M2211.5 23448.5 2299.5 23448.5" stroke="#000000" stroke-width="9.16667" stroke-linecap="round" stroke-linejoin="round" stroke-miterlimit="10" fill="none" fill-rule="evenodd"/></g><g><text font-family="Inter Medium,Inter Medium_MSFontService,sans-serif" font-weight="500" font-size="37" transform="matrix(1 0 0 1 2308.7 23460)">ADR Index</text></g><rect x="1812.5" y="23264.5" width="2103" height="1056" stroke="#D9D9D9" stroke-width="3.4375" stroke-linejoin="round" stroke-miterlimit="10" fill="none"/><g><text fill="#7F7F7F" font-family="Inter,Inter_MSFontService,sans-serif" font-weight="400" font-size="32" transform="matrix(1 0 0 1 1893.3 23408)">YOY, Source: STR, str.com</text></g></g></svg>