<svg width="2106" height="1059" xmlns="http://www.w3.org/2000/svg" xmlns:xlink="http://www.w3.org/1999/xlink" xml:space="preserve" overflow="hidden"><defs><filter id="fx0" x="-10%" y="-10%" width="120%" height="120%" filterUnits="userSpaceOnUse" primitiveUnits="userSpaceOnUse"><feComponentTransfer color-interpolation-filters="sRGB"><feFuncR type="discrete" tableValues="0 0"/><feFuncG type="discrete" tableValues="0 0"/><feFuncB type="discrete" tableValues="0 0"/><feFuncA type="linear" slope="0.501961" intercept="0"/></feComponentTransfer><feGaussianBlur stdDeviation="4.58333 4.58333"/></filter><filter id="fx1" x="-10%" y="-10%" width="120%" height="120%" filterUnits="userSpaceOnUse" primitiveUnits="userSpaceOnUse"><feComponentTransfer color-interpolation-filters="sRGB"><feFuncR type="discrete" tableValues="0 0"/><feFuncG type="discrete" tableValues="0 0"/><feFuncB type="discrete" tableValues="0 0"/><feFuncA type="linear" slope="0.501961" intercept="0"/></feComponentTransfer><feGaussianBlur stdDeviation="4.58333 4.58333"/></filter><clipPath id="clip2"><rect x="1811" y="23263" width="2106" height="1059"/></clipPath><clipPath id="clip3"><rect x="1978" y="23512" width="1885" height="658"/></clipPath><clipPath id="clip4"><rect x="1978" y="23512" width="1885" height="658"/></clipPath></defs><g clip-path="url(#clip2)" transform="translate(-1811 -23263)"><rect x="1812" y="23264" width="2103" height="1056" fill="#FFFFFF"/><g><rect x="1979" y="23512" width="1882" height="655" fill="#F2F2F2"/></g><g><path d="M1978.5 23730.5 3860.5 23730.5" stroke="#D9D9D9" stroke-width="3.4375" stroke-linejoin="round" stroke-miterlimit="10" fill="none" fill-rule="evenodd"/></g><g clip-path="url(#clip3)"><g filter="url(#fx0)" transform="translate(1968 23619)"><g><path d="M19.9817 107.417C34.1901 120.147 48.3984 131.248 62.6068 145.609 76.8148 159.969 91.0232 202.103 105.232 193.58 119.44 185.056 133.648 123.464 147.857 94.4668 162.065 65.4696 176.273 13.9824 190.482 19.5973 204.69 25.2121 218.898 110.661 233.107 128.156 242.86 140.166 265.978 105.504 275.732 124.567 289.94 152.334 304.148 292.54 318.357 294.761 332.565 296.982 346.773 175.296 360.982 137.896 375.166 100.559 389.422 65.4245 403.607 70.3606 417.815 75.3046 432.023 158.553 446.232 167.561 460.44 176.569 474.648 131.606 488.857 124.409 503.065 117.212 517.273 119.581 531.482 124.38 545.69 129.179 559.898 143.198 574.107 153.202 588.315 163.205 602.523 181.465 616.732 184.401 630.94 187.337 645.148 187.145 659.357 170.819 673.565 154.492 687.773 95.2579 701.982 86.441 716.19 77.6241 730.398 111.482 744.606 117.917 758.814 124.353 773.023 114.517 787.232 125.055 801.44 135.592 815.648 172.908 829.857 181.144 844.065 189.379 858.273 182.474 872.482 174.468 886.69 166.462 900.898 143.06 915.107 133.109 929.315 123.159 943.523 113.582 957.732 114.765 971.94 115.948 986.148 136.412 1000.36 140.208 1014.56 144.003 1028.77 137.391 1042.98 137.538 1057.19 137.684 1071.4 141.501 1085.61 141.084 1099.81 140.667 1114.02 138.265 1128.23 135.035 1142.44 131.805 1156.65 117.985 1170.86 121.702 1185.06 125.418 1199.27 153.731 1213.48 157.334 1227.69 160.937 1241.9 134.962 1256.11 143.318 1270.31 151.674 1284.52 201.142 1298.73 207.469 1312.94 213.796 1327.15 189.98 1341.36 181.278 1355.56 172.577 1376.88 159.596 1383.98 155.26" stroke="#FFB226" stroke-width="9" stroke-linecap="round" stroke-linejoin="round" stroke-miterlimit="10" fill="none"/></g></g></g><g clip-path="url(#clip4)"><g filter="url(#fx1)" transform="translate(1968 23609)"><g><path d="M19.9817 72.0891C34.1901 74.1427 48.3984 67.336 62.6068 78.2505 76.8148 89.1646 91.0232 136.473 105.232 137.575 119.44 138.677 133.648 96.9161 147.857 84.8605 162.065 72.8044 176.273 65.5289 190.482 65.2395 204.69 64.9497 218.898 78.3995 233.107 83.122 247.315 87.8441 261.523 84.7269 275.732 93.5738 289.94 102.42 304.148 148.251 318.357 136.202 332.565 124.154 346.773 32.5841 360.982 21.2834 375.19 9.98242 389.398 51.5868 403.607 68.3971 417.815 85.2069 432.023 119.364 446.232 122.144 460.44 124.925 474.648 92.9516 488.857 85.0795 503.065 77.2071 517.273 69.2398 531.482 74.911 545.69 80.5819 559.898 111.783 574.107 119.105 588.315 126.427 602.523 121.265 616.732 118.841 630.94 116.418 645.148 111.908 659.357 104.566 673.565 97.2229 687.773 71.9859 701.982 74.7858 716.19 77.5853 730.398 111.208 744.606 121.363 758.814 131.518 773.023 135.104 787.232 135.717 801.44 136.329 815.648 125.413 829.857 125.038 844.065 124.663 858.273 133.937 872.482 133.468 886.69 132.999 900.898 126.272 915.107 122.226 929.315 118.18 943.523 108.511 957.732 109.189 971.94 109.867 986.148 125.871 1000.36 126.295 1014.56 126.718 1028.77 112.138 1042.98 111.73 1057.19 111.322 1071.4 126.357 1085.61 123.845 1099.81 121.334 1114.02 95.6158 1128.23 96.6628 1142.44 97.7098 1156.65 126.397 1170.86 130.127 1185.06 133.857 1199.27 119.794 1213.48 119.041 1227.69 118.287 1241.9 116.084 1256.11 125.608 1270.31 135.133 1284.52 185.982 1298.73 176.188 1312.94 166.393 1327.15 85.7902 1341.36 66.8398 1354.21 49.6975 1377.56 63.1408 1383.98 62.4844" stroke="#000000" stroke-width="9" stroke-linecap="round" stroke-linejoin="round" stroke-miterlimit="10" fill="none"/></g></g></g><g><path d="M1981.5 23719.9C1995.71 23732.7 2009.92 23743.8 2024.12 23758.1 2038.33 23772.5 2052.54 23814.6 2066.75 23806.1 2080.96 23797.6 2095.17 23736 2109.38 23707 2123.58 23678 2137.79 23626.5 2152 23632.1 2166.21 23637.7 2180.42 23723.2 2194.62 23740.7 2204.38 23752.7 2227.5 23718 2237.25 23737.1 2251.46 23764.9 2265.67 23905.1 2279.87 23907.3 2294.08 23909.5 2308.29 23787.8 2322.5 23750.4 2336.68 23713.1 2350.94 23677.9 2365.12 23682.9 2379.33 23687.8 2393.54 23771.1 2407.75 23780.1 2421.96 23789.1 2436.17 23744.1 2450.38 23736.9 2464.58 23729.7 2478.79 23732.1 2493 23736.9 2507.21 23741.7 2521.42 23755.7 2535.62 23765.7 2549.83 23775.7 2564.04 23794 2578.25 23796.9 2592.46 23799.9 2606.67 23799.7 2620.87 23783.3 2635.08 23767 2649.29 23707.8 2663.5 23699 2677.71 23690.1 2691.92 23724 2706.12 23730.4 2720.33 23736.9 2734.54 23727 2748.75 23737.6 2762.96 23748.1 2777.17 23785.4 2791.38 23793.7 2805.58 23801.9 2819.79 23795 2834 23787 2848.21 23779 2862.42 23755.6 2876.62 23745.6 2890.83 23735.7 2905.04 23726.1 2919.25 23727.3 2933.46 23728.5 2947.67 23748.9 2961.87 23752.7 2976.08 23756.5 2990.29 23749.9 3004.5 23750.1 3018.71 23750.2 3032.92 23754 3047.12 23753.6 3061.33 23753.2 3075.54 23750.8 3089.75 23747.6 3103.96 23744.3 3118.17 23730.5 3132.38 23734.2 3146.58 23737.9 3160.79 23766.2 3175 23769.9 3189.21 23773.5 3203.42 23747.5 3217.62 23755.8 3231.83 23764.2 3246.04 23813.7 3260.25 23820 3274.46 23826.3 3288.67 23802.5 3302.87 23793.8 3317.08 23785.1 3338.4 23772.1 3345.5 23767.8" stroke="#FFB226" stroke-width="9.16667" stroke-linecap="round" stroke-linejoin="round" stroke-miterlimit="10" fill="none"/></g><g><path d="M1981.5 23674.6C1995.71 23676.7 2009.92 23669.9 2024.12 23680.8 2038.33 23691.7 2052.54 23739 2066.75 23740.1 2080.96 23741.2 2095.17 23699.4 2109.38 23687.4 2123.58 23675.3 2137.79 23668 2152 23667.8 2166.21 23667.5 2180.42 23680.9 2194.62 23685.6 2208.83 23690.4 2223.04 23687.2 2237.25 23696.1 2251.46 23704.9 2265.67 23750.8 2279.87 23738.7 2294.08 23726.7 2308.29 23635.1 2322.5 23623.8 2336.71 23612.5 2350.92 23654.1 2365.12 23670.9 2379.33 23687.7 2393.54 23721.9 2407.75 23724.7 2421.96 23727.4 2436.17 23695.5 2450.38 23687.6 2464.58 23679.7 2478.79 23671.8 2493 23677.4 2507.21 23683.1 2521.42 23714.3 2535.62 23721.6 2549.83 23728.9 2564.04 23723.8 2578.25 23721.4 2592.46 23718.9 2606.67 23714.4 2620.87 23707.1 2635.08 23699.7 2649.29 23674.5 2663.5 23677.3 2677.71 23680.1 2691.92 23713.7 2706.12 23723.9 2720.33 23734 2734.54 23737.6 2748.75 23738.2 2762.96 23738.8 2777.17 23727.9 2791.38 23727.6 2805.58 23727.2 2819.79 23736.5 2834 23736 2848.21 23735.5 2862.42 23728.8 2876.62 23724.7 2890.83 23720.7 2905.04 23711 2919.25 23711.7 2933.46 23712.4 2947.67 23728.4 2961.87 23728.8 2976.08 23729.2 2990.29 23714.7 3004.5 23714.2 3018.71 23713.8 3032.92 23728.9 3047.12 23726.4 3061.33 23723.9 3075.54 23698.1 3089.75 23699.2 3103.96 23700.2 3118.17 23728.9 3132.38 23732.6 3146.58 23736.4 3160.79 23722.3 3175 23721.6 3189.21 23720.8 3203.42 23718.6 3217.62 23728.1 3231.83 23737.7 3246.04 23788.5 3260.25 23778.7 3274.46 23768.9 3288.67 23688.3 3302.87 23669.4 3315.73 23652.2 3339.07 23665.7 3345.5 23665" stroke="#000000" stroke-width="9.16667" stroke-linecap="round" stroke-linejoin="round" stroke-miterlimit="10" fill="none"/></g><g><text font-family="Inter,Inter_MSFontService,sans-serif" font-weight="400" font-size="32" transform="matrix(1 0 0 1 1909.24 24177)">80</text></g><g><text font-family="Inter,Inter_MSFontService,sans-serif" font-weight="400" font-size="32" transform="matrix(1 0 0 1 1909.01 23959)">90</text></g><g><text font-family="Inter,Inter_MSFontService,sans-serif" font-weight="400" font-size="32" transform="matrix(1 0 0 1 1894.07 23740)">100</text></g><g><text font-family="Inter,Inter_MSFontService,sans-serif" font-weight="400" font-size="32" transform="matrix(1 0 0 1 1899.22 23522)">110</text></g><g><text font-family="Inter,Inter_MSFontService,sans-serif" font-weight="400" font-size="32" transform="matrix(0.707107 -0.707107 0.707107 0.707107 1957.02 24243)">3/1</text></g><g><text font-family="Inter,Inter_MSFontService,sans-serif" font-weight="400" font-size="32" transform="matrix(0.707107 -0.707107 0.707107 0.707107 2067.99 24260)">3/22</text></g><g><text font-family="Inter,Inter_MSFontService,sans-serif" font-weight="400" font-size="32" transform="matrix(0.707107 -0.707107 0.707107 0.707107 2198.93 24257)">4/12</text></g><g><text font-family="Inter,Inter_MSFontService,sans-serif" font-weight="400" font-size="32" transform="matrix(0.707107 -0.707107 0.707107 0.707107 2337.41 24246)">5/3</text></g><g><text font-family="Inter,Inter_MSFontService,sans-serif" font-weight="400" font-size="32" transform="matrix(0.707107 -0.707107 0.707107 0.707107 2451.44 24260)">5/24</text></g><g><text font-family="Inter,Inter_MSFontService,sans-serif" font-weight="400" font-size="32" transform="matrix(0.707107 -0.707107 0.707107 0.707107 2582.16 24257)">6/14</text></g><g><text font-family="Inter,Inter_MSFontService,sans-serif" font-weight="400" font-size="32" transform="matrix(0.707107 -0.707107 0.707107 0.707107 2722.56 24245)">7/5</text></g><g><text font-family="Inter,Inter_MSFontService,sans-serif" font-weight="400" font-size="32" transform="matrix(0.707107 -0.707107 0.707107 0.707107 2836.36 24259)">7/26</text></g><g><text font-family="Inter,Inter_MSFontService,sans-serif" font-weight="400" font-size="32" transform="matrix(0.707107 -0.707107 0.707107 0.707107 2966.4 24257)">8/16</text></g><g><text font-family="Inter,Inter_MSFontService,sans-serif" font-weight="400" font-size="32" transform="matrix(0.707107 -0.707107 0.707107 0.707107 3104.66 24246)">9/6</text></g><g><text font-family="Inter,Inter_MSFontService,sans-serif" font-weight="400" font-size="32" transform="matrix(0.707107 -0.707107 0.707107 0.707107 3220.01 24259)">9/27</text></g><g><text font-family="Inter,Inter_MSFontService,sans-serif" font-weight="400" font-size="32" transform="matrix(0.707107 -0.707107 0.707107 0.707107 3339.49 24267)">10/18</text></g><g><text font-family="Inter,Inter_MSFontService,sans-serif" font-weight="400" font-size="32" transform="matrix(0.707107 -0.707107 0.707107 0.707107 3481.55 24253)">11/8</text></g><g><text font-family="Inter,Inter_MSFontService,sans-serif" font-weight="400" font-size="32" transform="matrix(0.707107 -0.707107 0.707107 0.707107 3595.55 24267)">11/29</text></g><g><text font-family="Inter,Inter_MSFontService,sans-serif" font-weight="400" font-size="32" transform="matrix(0.707107 -0.707107 0.707107 0.707107 3720.21 24270)">12/20</text></g><g><text font-family="Inter Medium,Inter Medium_MSFontService,sans-serif" font-weight="700" font-size="46" transform="matrix(1 0 0 1 1895.56 23354)">U.S. Hotel Occupancy and ADR Recovery Levels</text></g><g><path d="M1886.5 23448.5 1974.5 23448.5" stroke="#FFB226" stroke-width="9.16667" stroke-linecap="round" stroke-linejoin="round" stroke-miterlimit="10" fill="none" fill-rule="evenodd"/></g><g><text font-family="Inter Medium,Inter Medium_MSFontService,sans-serif" font-weight="500" font-size="37" transform="matrix(1 0 0 1 1984.15 23460)">Occ Index</text></g><g><path d="M2211.5 23448.5 2299.5 23448.5" stroke="#000000" stroke-width="9.16667" stroke-linecap="round" stroke-linejoin="round" stroke-miterlimit="10" fill="none" fill-rule="evenodd"/></g><g><text font-family="Inter Medium,Inter Medium_MSFontService,sans-serif" font-weight="500" font-size="37" transform="matrix(1 0 0 1 2308.7 23460)">ADR Index</text></g><rect x="1812.5" y="23264.5" width="2103" height="1056" stroke="#D9D9D9" stroke-width="3.4375" stroke-linejoin="round" stroke-miterlimit="10" fill="none"/><g><text fill="#7F7F7F" font-family="Inter,Inter_MSFontService,sans-serif" font-weight="400" font-size="32" transform="matrix(1 0 0 1 1893.3 23408)">YOY, Source: STR, str.com</text></g></g></svg>