<svg width="2103" height="1058" xmlns="http://www.w3.org/2000/svg" xmlns:xlink="http://www.w3.org/1999/xlink" xml:space="preserve" overflow="hidden"><defs><filter id="fx0" x="-10%" y="-10%" width="120%" height="120%" filterUnits="userSpaceOnUse" primitiveUnits="userSpaceOnUse"><feComponentTransfer color-interpolation-filters="sRGB"><feFuncR type="discrete" tableValues="0 0"/><feFuncG type="discrete" tableValues="0 0"/><feFuncB type="discrete" tableValues="0 0"/><feFuncA type="linear" slope="0.501961" intercept="0"/></feComponentTransfer><feGaussianBlur stdDeviation="4.58333 4.58333"/></filter><filter id="fx1" x="-10%" y="-10%" width="120%" height="120%" filterUnits="userSpaceOnUse" primitiveUnits="userSpaceOnUse"><feComponentTransfer color-interpolation-filters="sRGB"><feFuncR type="discrete" tableValues="0 0"/><feFuncG type="discrete" tableValues="0 0"/><feFuncB type="discrete" tableValues="0 0"/><feFuncA type="linear" slope="0.501961" intercept="0"/></feComponentTransfer><feGaussianBlur stdDeviation="4.58333 4.58333"/></filter><clipPath id="clip2"><rect x="1655" y="20031" width="2103" height="1058"/></clipPath><clipPath id="clip3"><rect x="1822" y="20279" width="1883" height="658"/></clipPath><clipPath id="clip4"><rect x="1822" y="20279" width="1883" height="658"/></clipPath></defs><g clip-path="url(#clip2)" transform="translate(-1655 -20031)"><rect x="1656" y="20032" width="2100" height="1055" fill="#FFFFFF"/><g><path d="M3304.5 20279.5 3353.61 20279.5 3402.61 20279.5 3451.61 20279.5 3501.61 20279.5 3550.62 20279.5 3599.62 20279.5 3648.5 20279.5 3648.5 20934.5 3599.62 20934.5 3550.62 20934.5 3501.61 20934.5 3451.61 20934.5 3402.61 20934.5 3353.61 20934.5 3304.5 20934.5Z" stroke="#BFBFBF" stroke-width="3.4375" stroke-linejoin="round" stroke-miterlimit="10" stroke-opacity="0.501961" fill="#D9D9D9" fill-opacity="0.501961"/></g><g><path d="M1822.5 20672.5 3701.5 20672.5" stroke="#D9D9D9" stroke-width="3.4375" stroke-linejoin="round" stroke-miterlimit="10" fill="none" fill-rule="evenodd"/></g><g clip-path="url(#clip3)"><g filter="url(#fx0)" transform="translate(1813 20385)"><g><path d="M19.9817 285.6C36.4029 290.322 52.8246 296.806 69.2462 299.765 85.6674 302.724 102.089 298.488 118.511 303.353 134.932 308.218 151.354 336.741 167.776 328.954 184.197 321.168 200.619 260.675 217.04 256.633 233.462 252.591 249.884 289.966 266.305 304.7 282.727 319.433 299.148 348.596 315.57 345.034 331.991 341.471 348.413 291.209 364.835 283.326 381.256 275.442 397.677 297.52 414.099 297.732 430.52 297.944 446.942 286.483 463.364 284.6 479.786 282.717 496.207 284.525 512.629 286.435 529.05 288.344 545.472 298.474 561.893 296.059 578.315 293.644 594.737 276.444 611.158 271.941 627.579 267.438 644.001 256.297 660.423 269.04 676.844 281.783 693.266 340.676 709.688 348.401 726.109 356.125 742.531 325.707 758.952 315.383 775.374 305.059 791.795 295.566 808.217 286.457 824.638 277.347 841.06 252.368 857.482 260.726 873.903 269.083 890.325 336.772 906.746 336.6 923.167 336.427 939.589 270.253 956.011 259.691 972.433 249.129 988.854 277.412 1005.28 273.226 1021.7 269.04 1038.12 235.118 1054.54 234.576 1070.96 234.034 1087.38 252.642 1103.81 269.974 1120.23 287.305 1136.65 337.693 1153.07 338.567 1164.96 339.2 1190.44 313.542 1202.33 275.216 1218.76 222.295 1235.18 0.982422 1251.6 21.0448 1268.02 41.1067 1284.44 351.194 1300.86 395.588 1317.29 439.982 1333.71 323.479 1350.13 287.411 1366.55 251.343 1382.97 202.927 1399.39 179.183 1413.94 158.143 1434.11 118.708 1448.66 144.944 1465.08 174.554 1481.5 338.976 1497.92 356.841 1514.34 374.705 1530.77 245.795 1547.19 252.129 1563.61 258.463 1580.03 402.902 1596.45 394.845 1612.87 386.787 1629.3 213.196 1645.72 203.785 1662.14 194.374 1686.77 315.948 1694.98 338.38" stroke="#FFB226" stroke-width="9" stroke-linecap="round" stroke-linejoin="round" stroke-miterlimit="10" fill="none"/></g></g></g><g clip-path="url(#clip4)"><g filter="url(#fx1)" transform="translate(1813 20515)"><g><path d="M19.9817 159.16C36.4029 151.991 52.8246 139.364 69.2462 137.655 85.6674 135.945 102.089 145.668 118.511 148.902 134.932 152.135 151.354 163.618 167.776 157.054 184.197 150.491 200.619 110.359 217.04 109.522 233.462 108.685 249.884 140.49 266.305 152.034 282.727 163.576 299.148 182.484 315.57 178.779 331.991 175.074 348.413 135.751 364.835 129.806 381.256 123.86 397.677 139.47 414.099 143.108 430.52 146.746 446.942 152.31 463.364 151.632 479.786 150.953 496.207 140.11 512.629 139.036 529.05 137.962 545.472 147.613 561.893 145.188 578.315 142.762 594.737 125.863 611.158 124.483 627.579 123.103 644.001 128.837 660.423 136.907 676.844 144.976 693.266 169.552 709.688 172.899 726.109 176.245 742.531 163.486 758.952 156.988 775.374 150.49 791.795 149.756 808.217 133.911 824.638 118.066 841.06 47.5794 857.482 61.921 873.903 76.2624 890.325 206.39 906.746 219.96 923.167 233.53 939.589 158.595 956.011 143.34 972.433 128.086 988.854 135.516 1005.28 128.434 1021.7 121.351 1038.12 97.8488 1054.54 100.845 1070.96 103.84 1087.38 135.971 1103.81 146.407 1120.23 156.843 1136.65 158.372 1153.07 163.459 1169.49 168.546 1185.91 196.033 1202.33 176.929 1218.76 157.824 1235.18 45.229 1251.6 48.8307 1268.02 52.432 1284.44 188.41 1300.86 198.537 1317.29 208.664 1333.71 134.555 1350.13 109.592 1366.55 84.6286 1382.97 45.9535 1399.39 48.7571 1415.81 51.5602 1432.24 103.661 1448.66 126.412 1465.08 149.163 1481.5 202.93 1497.92 185.262 1514.34 167.593 1530.77 9.98242 1547.19 20.3992 1563.61 30.8155 1580.03 244.538 1596.45 247.76 1612.87 250.982 1629.3 60.1253 1645.72 39.7331 1662.14 19.3405 1686.77 111.128 1694.98 125.406" stroke="#000000" stroke-width="9" stroke-linecap="round" stroke-linejoin="round" stroke-miterlimit="10" fill="none"/></g></g></g><g><path d="M1826.5 20664.1C1842.92 20668.8 1859.34 20675.3 1875.76 20678.3 1892.19 20681.2 1908.61 20677 1925.03 20681.9 1941.45 20686.7 1957.87 20715.3 1974.29 20707.5 1990.71 20699.7 2007.14 20639.2 2023.56 20635.2 2039.98 20631.1 2056.4 20668.5 2072.82 20683.2 2089.24 20698 2105.67 20727.1 2122.09 20723.6 2138.51 20720 2154.93 20669.7 2171.35 20661.8 2187.77 20654 2204.2 20676 2220.62 20676.2 2237.04 20676.5 2253.46 20665 2269.88 20663.1 2286.3 20661.2 2302.73 20663 2319.15 20665 2335.57 20666.9 2351.99 20677 2368.41 20674.6 2384.83 20672.2 2401.25 20655 2417.68 20650.5 2434.1 20646 2450.52 20634.8 2466.94 20647.6 2483.36 20660.3 2499.78 20719.2 2516.21 20726.9 2532.63 20734.6 2549.05 20704.2 2565.47 20693.9 2581.89 20683.6 2598.31 20674.1 2614.74 20665 2631.16 20655.9 2647.58 20630.9 2664 20639.2 2680.42 20647.6 2696.84 20715.3 2713.26 20715.1 2729.69 20714.9 2746.11 20648.8 2762.53 20638.2 2778.95 20627.6 2795.37 20655.9 2811.79 20651.7 2828.22 20647.6 2844.64 20613.6 2861.06 20613.1 2877.48 20612.6 2893.9 20631.2 2910.32 20648.5 2926.74 20665.8 2943.17 20716.2 2959.59 20717.1 2971.48 20717.7 2996.96 20692.1 3008.85 20653.7 3025.27 20600.8 3041.7 20379.5 3058.12 20399.6 3074.54 20419.6 3090.96 20729.7 3107.38 20774.1 3123.8 20818.5 3140.23 20702 3156.65 20665.9 3173.07 20629.9 3189.49 20581.4 3205.91 20557.7 3220.46 20536.7 3240.63 20497.2 3255.18 20523.5 3271.6 20553.1 3288.02 20717.5 3304.44 20735.4 3320.86 20753.2 3337.28 20624.3 3353.71 20630.6 3370.13 20637 3386.55 20781.4 3402.97 20773.4 3419.39 20765.3 3435.81 20591.7 3452.24 20582.3 3468.66 20572.9 3493.29 20694.5 3501.5 20716.9" stroke="#FFB226" stroke-width="9.16667" stroke-linecap="round" stroke-linejoin="round" stroke-miterlimit="10" fill="none"/></g><g><path d="M1826.5 20667.7C1842.92 20660.5 1859.34 20647.9 1875.76 20646.2 1892.19 20644.5 1908.61 20654.2 1925.03 20657.4 1941.45 20660.7 1957.87 20672.1 1974.29 20665.6 1990.71 20659 2007.14 20618.9 2023.56 20618 2039.98 20617.2 2056.4 20649 2072.82 20660.6 2089.24 20672.1 2105.67 20691 2122.09 20687.3 2138.51 20683.6 2154.93 20644.3 2171.35 20638.3 2187.77 20632.4 2204.2 20648 2220.62 20651.6 2237.04 20655.3 2253.46 20660.8 2269.88 20660.2 2286.3 20659.5 2302.73 20648.6 2319.15 20647.6 2335.57 20646.5 2351.99 20656.1 2368.41 20653.7 2384.83 20651.3 2401.25 20634.4 2417.68 20633 2434.1 20631.6 2450.52 20637.4 2466.94 20645.4 2483.36 20653.5 2499.78 20678.1 2516.21 20681.4 2532.63 20684.8 2549.05 20672 2565.47 20665.5 2581.89 20659 2598.31 20658.3 2614.74 20642.4 2631.16 20626.6 2647.58 20556.1 2664 20570.4 2680.42 20584.8 2696.84 20714.9 2713.26 20728.5 2729.69 20742 2746.11 20667.1 2762.53 20651.9 2778.95 20636.6 2795.37 20644 2811.79 20637 2828.22 20629.9 2844.64 20606.4 2861.06 20609.4 2877.48 20612.4 2893.9 20644.5 2910.32 20654.9 2926.74 20665.4 2943.17 20666.9 2959.59 20672 2976.01 20677.1 2992.43 20704.6 3008.85 20685.4 3025.27 20666.3 3041.7 20553.7 3058.12 20557.3 3074.54 20560.9 3090.96 20696.9 3107.38 20707.1 3123.8 20717.2 3140.23 20643.1 3156.65 20618.1 3173.07 20593.1 3189.49 20554.5 3205.91 20557.3 3222.33 20560.1 3238.75 20612.2 3255.18 20634.9 3271.6 20657.7 3288.02 20711.4 3304.44 20693.8 3320.86 20676.1 3337.28 20518.5 3353.71 20528.9 3370.13 20539.3 3386.55 20753.1 3402.97 20756.3 3419.39 20759.5 3435.81 20568.6 3452.24 20548.2 3468.66 20527.9 3493.29 20619.6 3501.5 20633.9" stroke="#000000" stroke-width="9.16667" stroke-linecap="round" stroke-linejoin="round" stroke-miterlimit="10" fill="none"/></g><g><text font-family="Inter,Inter_MSFontService,sans-serif" font-weight="400" font-size="32" transform="matrix(1 0 0 1 1753.23 20944)">80</text></g><g><text font-family="Inter,Inter_MSFontService,sans-serif" font-weight="400" font-size="32" transform="matrix(1 0 0 1 1753 20813)">90</text></g><g><text font-family="Inter,Inter_MSFontService,sans-serif" font-weight="400" font-size="32" transform="matrix(1 0 0 1 1738.06 20682)">100</text></g><g><text font-family="Inter,Inter_MSFontService,sans-serif" font-weight="400" font-size="32" transform="matrix(1 0 0 1 1743.22 20551)">110</text></g><g><text font-family="Inter,Inter_MSFontService,sans-serif" font-weight="400" font-size="32" transform="matrix(1 0 0 1 1738.7 20421)">120</text></g><g><text font-family="Inter,Inter_MSFontService,sans-serif" font-weight="400" font-size="32" transform="matrix(1 0 0 1 1737.69 20290)">130</text></g><g><text font-family="Inter,Inter_MSFontService,sans-serif" font-weight="400" font-size="32" transform="matrix(0.707107 -0.707107 0.707107 0.707107 1801.78 21010)">6/1</text></g><g><text font-family="Inter,Inter_MSFontService,sans-serif" font-weight="400" font-size="32" transform="matrix(0.707107 -0.707107 0.707107 0.707107 1932.64 21027)">6/22</text></g><g><text font-family="Inter,Inter_MSFontService,sans-serif" font-weight="400" font-size="32" transform="matrix(0.707107 -0.707107 0.707107 0.707107 2084.1 21023)">7/13</text></g><g><text font-family="Inter,Inter_MSFontService,sans-serif" font-weight="400" font-size="32" transform="matrix(0.707107 -0.707107 0.707107 0.707107 2241.37 21013)">8/3</text></g><g><text font-family="Inter,Inter_MSFontService,sans-serif" font-weight="400" font-size="32" transform="matrix(0.707107 -0.707107 0.707107 0.707107 2375.29 21027)">8/24</text></g><g><text font-family="Inter,Inter_MSFontService,sans-serif" font-weight="400" font-size="32" transform="matrix(0.707107 -0.707107 0.707107 0.707107 2526.1 21024)">9/14</text></g><g><text font-family="Inter,Inter_MSFontService,sans-serif" font-weight="400" font-size="32" transform="matrix(0.707107 -0.707107 0.707107 0.707107 2674.63 21023)">10/5</text></g><g><text font-family="Inter,Inter_MSFontService,sans-serif" font-weight="400" font-size="32" transform="matrix(0.707107 -0.707107 0.707107 0.707107 2808.32 21038)">10/26</text></g><g><text font-family="Inter,Inter_MSFontService,sans-serif" font-weight="400" font-size="32" transform="matrix(0.707107 -0.707107 0.707107 0.707107 2962.94 21031)">11/16</text></g><g><text font-family="Inter,Inter_MSFontService,sans-serif" font-weight="400" font-size="32" transform="matrix(0.707107 -0.707107 0.707107 0.707107 3119.26 21022)">12/7</text></g><g><text font-family="Inter,Inter_MSFontService,sans-serif" font-weight="400" font-size="32" transform="matrix(0.707107 -0.707107 0.707107 0.707107 3252.27 21037)">12/28</text></g><g><text font-family="Inter,Inter_MSFontService,sans-serif" font-weight="400" font-size="32" transform="matrix(0.707107 -0.707107 0.707107 0.707107 3416.97 21020)">1/18</text></g><g><text font-family="Inter,Inter_MSFontService,sans-serif" font-weight="400" font-size="32" transform="matrix(0.707107 -0.707107 0.707107 0.707107 3572.09 21013)">2/8</text></g><g><text font-family="Inter Medium,Inter Medium_MSFontService,sans-serif" font-weight="700" font-size="46" transform="matrix(1 0 0 1 1739.7 20121)">U.S. Hotel Occupancy and ADR Recovery Levels</text></g><g><path d="M1730.5 20215.5 1818.5 20215.5" stroke="#FFB226" stroke-width="9.16667" stroke-linecap="round" stroke-linejoin="round" stroke-miterlimit="10" fill="none" fill-rule="evenodd"/></g><g><text font-family="Inter Medium,Inter Medium_MSFontService,sans-serif" font-weight="500" font-size="37" transform="matrix(1 0 0 1 1828.02 20228)">Occ Index</text></g><g><path d="M2054.5 20215.5 2142.5 20215.5" stroke="#000000" stroke-width="9.16667" stroke-linecap="round" stroke-linejoin="round" stroke-miterlimit="10" fill="none" fill-rule="evenodd"/></g><g><text font-family="Inter Medium,Inter Medium_MSFontService,sans-serif" font-weight="500" font-size="37" transform="matrix(1 0 0 1 2152.23 20228)">ADR Index</text></g><rect x="1656.5" y="20032.5" width="2100" height="1055" stroke="#D9D9D9" stroke-width="3.4375" stroke-linejoin="round" stroke-miterlimit="10" fill="none"/><g><text fill="#7F7F7F" font-family="Inter,Inter_MSFontService,sans-serif" font-weight="400" font-size="32" transform="matrix(1 0 0 1 1737.48 20176)">Indexed to 2023, Source: STR, str.com</text></g><g><g><text font-family="Inter Medium,Inter Medium_MSFontService,sans-serif" font-weight="700" font-size="37" transform="matrix(1 0 0 1 3305.76 21052)">2025</text></g></g></g></svg>