<svg width="2103" height="1058" xmlns="http://www.w3.org/2000/svg" xmlns:xlink="http://www.w3.org/1999/xlink" xml:space="preserve" overflow="hidden"><defs><filter id="fx0" x="-10%" y="-10%" width="120%" height="120%" filterUnits="userSpaceOnUse" primitiveUnits="userSpaceOnUse"><feComponentTransfer color-interpolation-filters="sRGB"><feFuncR type="discrete" tableValues="0 0"/><feFuncG type="discrete" tableValues="0 0"/><feFuncB type="discrete" tableValues="0 0"/><feFuncA type="linear" slope="0.501961" intercept="0"/></feComponentTransfer><feGaussianBlur stdDeviation="4.58333 4.58333"/></filter><filter id="fx1" x="-10%" y="-10%" width="120%" height="120%" filterUnits="userSpaceOnUse" primitiveUnits="userSpaceOnUse"><feComponentTransfer color-interpolation-filters="sRGB"><feFuncR type="discrete" tableValues="0 0"/><feFuncG type="discrete" tableValues="0 0"/><feFuncB type="discrete" tableValues="0 0"/><feFuncA type="linear" slope="0.501961" intercept="0"/></feComponentTransfer><feGaussianBlur stdDeviation="4.58333 4.58333"/></filter><clipPath id="clip2"><rect x="2123" y="19378" width="2103" height="1058"/></clipPath><clipPath id="clip3"><rect x="2290" y="19626" width="1882" height="658"/></clipPath><clipPath id="clip4"><rect x="2290" y="19626" width="1882" height="658"/></clipPath></defs><g clip-path="url(#clip2)" transform="translate(-2123 -19378)"><rect x="2124" y="19379" width="2100" height="1055" fill="#FFFFFF"/><g><path d="M3771.5 19626.5 3821.63 19626.5 3870.63 19626.5 3919.63 19626.5 3968.63 19626.5 4018.63 19626.5 4067.63 19626.5 4116.5 19626.5 4116.5 20281.5 4067.63 20281.5 4018.63 20281.5 3968.63 20281.5 3919.63 20281.5 3870.63 20281.5 3821.63 20281.5 3771.5 20281.5Z" stroke="#BFBFBF" stroke-width="3.4375" stroke-linejoin="round" stroke-miterlimit="10" stroke-opacity="0.501961" fill="#D9D9D9" fill-opacity="0.501961"/></g><g><path d="M2290.5 20019.5 4169.5 20019.5" stroke="#D9D9D9" stroke-width="3.4375" stroke-linejoin="round" stroke-miterlimit="10" fill="none" fill-rule="evenodd"/></g><g clip-path="url(#clip3)"><g filter="url(#fx0)" transform="translate(2281 19732)"><g><path d="M19.9819 285.6C36.3958 290.322 52.81 296.806 69.2242 299.765 85.638 302.724 102.053 298.488 118.467 303.353 134.881 308.218 151.295 336.741 167.709 328.954 184.123 321.168 200.537 260.675 216.952 256.633 233.366 252.591 249.78 289.966 266.194 304.7 282.608 319.433 299.022 348.596 315.436 345.034 331.85 341.471 348.265 291.209 364.679 283.326 381.093 275.442 397.507 297.52 413.921 297.732 430.335 297.944 446.749 286.483 463.164 284.6 479.578 282.717 495.992 284.525 512.406 286.435 528.82 288.344 545.234 298.474 561.648 296.059 578.062 293.644 594.477 276.444 610.891 271.941 627.305 267.438 643.719 256.297 660.133 269.04 676.547 281.783 692.962 340.676 709.376 348.401 725.79 356.125 742.204 325.707 758.618 315.383 775.032 305.059 791.446 295.566 807.861 286.457 824.274 277.347 840.689 252.368 857.103 260.726 873.517 269.083 889.931 336.772 906.345 336.6 922.759 336.427 939.174 270.253 955.588 259.691 972.002 249.129 988.416 277.412 1004.83 273.226 1021.24 269.04 1037.66 235.118 1054.07 234.576 1070.49 234.034 1086.9 252.642 1103.32 269.974 1119.73 287.305 1136.14 337.693 1152.56 338.567 1164.44 339.2 1189.91 313.542 1201.8 275.216 1218.21 222.295 1234.63 0.982422 1251.04 21.0448 1267.46 41.1067 1283.87 351.194 1300.28 395.588 1316.7 439.982 1333.11 323.479 1349.53 287.411 1365.94 251.343 1382.36 202.927 1398.77 179.183 1413.31 158.143 1433.47 118.708 1448.01 144.944 1464.43 174.554 1480.84 338.976 1497.25 356.841 1513.67 374.705 1530.08 245.795 1546.5 252.129 1562.91 258.463 1579.33 402.902 1595.74 394.845 1612.15 386.787 1636.77 235.628 1644.98 203.785" stroke="#FFB226" stroke-width="9" stroke-linecap="round" stroke-linejoin="round" stroke-miterlimit="10" fill="none"/></g></g></g><g clip-path="url(#clip4)"><g filter="url(#fx1)" transform="translate(2281 19862)"><g><path d="M19.9819 159.16C36.3958 151.991 52.81 139.364 69.2242 137.655 85.638 135.945 102.053 145.668 118.467 148.902 134.881 152.135 151.295 163.618 167.709 157.054 184.123 150.491 200.537 110.359 216.952 109.522 233.366 108.685 249.78 140.49 266.194 152.034 282.608 163.576 299.022 182.484 315.436 178.779 331.85 175.074 348.265 135.751 364.679 129.806 381.093 123.86 397.507 139.47 413.921 143.108 430.335 146.746 446.749 152.31 463.164 151.632 479.578 150.953 495.992 140.11 512.406 139.036 528.82 137.962 545.234 147.613 561.648 145.188 578.062 142.762 594.477 125.863 610.891 124.483 627.305 123.103 643.719 128.837 660.133 136.907 676.547 144.976 692.962 169.552 709.376 172.899 725.79 176.245 742.204 163.486 758.618 156.988 775.032 150.49 791.446 149.756 807.861 133.911 824.274 118.066 840.689 47.5794 857.103 61.921 873.517 76.2624 889.931 206.39 906.345 219.96 922.759 233.53 939.174 158.595 955.588 143.34 972.002 128.086 988.416 135.516 1004.83 128.434 1021.24 121.351 1037.66 97.8488 1054.07 100.845 1070.49 103.84 1086.9 135.971 1103.32 146.407 1119.73 156.843 1136.14 158.372 1152.56 163.459 1168.97 168.546 1185.39 196.033 1201.8 176.929 1218.21 157.824 1234.63 45.229 1251.04 48.8307 1267.46 52.432 1283.87 188.41 1300.28 198.537 1316.7 208.664 1333.11 134.555 1349.53 109.592 1365.94 84.6286 1382.36 45.9535 1398.77 48.7571 1415.18 51.5602 1431.6 103.661 1448.01 126.412 1464.43 149.163 1480.84 202.93 1497.25 185.262 1513.67 167.593 1530.08 9.98242 1546.5 20.3992 1562.91 30.8155 1579.33 244.538 1595.74 247.76 1612.15 250.982 1636.77 74.4042 1644.98 39.7331" stroke="#000000" stroke-width="9" stroke-linecap="round" stroke-linejoin="round" stroke-miterlimit="10" fill="none"/></g></g></g><g><path d="M2294.5 20011.1C2310.91 20015.8 2327.33 20022.3 2343.74 20025.3 2360.16 20028.2 2376.57 20024 2392.98 20028.9 2409.4 20033.7 2425.81 20062.3 2442.23 20054.5 2458.64 20046.7 2475.06 19986.2 2491.47 19982.2 2507.88 19978.1 2524.3 20015.5 2540.71 20030.2 2557.13 20045 2573.54 20074.1 2589.95 20070.6 2606.37 20067 2622.78 20016.7 2639.2 20008.8 2655.61 20001 2672.02 20023 2688.44 20023.2 2704.85 20023.5 2721.27 20012 2737.68 20010.1 2754.1 20008.2 2770.51 20010 2786.92 20012 2803.34 20013.9 2819.75 20024 2836.17 20021.6 2852.58 20019.2 2868.99 20002 2885.41 19997.5 2901.82 19993 2918.24 19981.8 2934.65 19994.6 2951.07 20007.3 2967.48 20066.2 2983.89 20073.9 3000.31 20081.6 3016.72 20051.2 3033.14 20040.9 3049.55 20030.6 3065.96 20021.1 3082.38 20012 3098.79 20002.9 3115.21 19977.9 3131.62 19986.2 3148.04 19994.6 3164.45 20062.3 3180.86 20062.1 3197.28 20061.9 3213.69 19995.8 3230.11 19985.2 3246.52 19974.6 3262.93 20002.9 3279.35 19998.7 3295.76 19994.6 3312.18 19960.6 3328.59 19960.1 3345 19959.6 3361.42 19978.2 3377.83 19995.5 3394.25 20012.8 3410.66 20063.2 3427.08 20064.1 3438.96 20064.7 3464.43 20039.1 3476.32 20000.7 3492.73 19947.8 3509.15 19726.5 3525.56 19746.6 3541.97 19766.6 3558.39 20076.7 3574.8 20121.1 3591.22 20165.5 3607.63 20049 3624.05 20012.9 3640.46 19976.9 3656.87 19928.4 3673.29 19904.7 3687.83 19883.7 3707.99 19844.2 3722.53 19870.5 3738.94 19900.1 3755.36 20064.5 3771.77 20082.4 3788.19 20100.2 3804.6 19971.3 3821.02 19977.6 3837.43 19984 3853.84 20128.4 3870.26 20120.4 3886.67 20112.3 3911.29 19961.1 3919.5 19929.3" stroke="#FFB226" stroke-width="9.16667" stroke-linecap="round" stroke-linejoin="round" stroke-miterlimit="10" fill="none"/></g><g><path d="M2294.5 20014.7C2310.91 20007.5 2327.33 19994.9 2343.74 19993.2 2360.16 19991.5 2376.57 20001.2 2392.98 20004.4 2409.4 20007.7 2425.81 20019.1 2442.23 20012.6 2458.64 20006 2475.06 19965.9 2491.47 19965 2507.88 19964.2 2524.3 19996 2540.71 20007.6 2557.13 20019.1 2573.54 20038 2589.95 20034.3 2606.37 20030.6 2622.78 19991.3 2639.2 19985.3 2655.61 19979.4 2672.02 19995 2688.44 19998.6 2704.85 20002.3 2721.27 20007.8 2737.68 20007.2 2754.1 20006.5 2770.51 19995.6 2786.92 19994.6 2803.34 19993.5 2819.75 20003.1 2836.17 20000.7 2852.58 19998.3 2868.99 19981.4 2885.41 19980 2901.82 19978.6 2918.24 19984.4 2934.65 19992.4 2951.07 20000.5 2967.48 20025.1 2983.89 20028.4 3000.31 20031.8 3016.72 20019 3033.14 20012.5 3049.55 20006 3065.96 20005.3 3082.38 19989.4 3098.79 19973.6 3115.21 19903.1 3131.62 19917.4 3148.04 19931.8 3164.45 20061.9 3180.86 20075.5 3197.28 20089 3213.69 20014.1 3230.11 19998.9 3246.52 19983.6 3262.93 19991 3279.35 19984 3295.76 19976.9 3312.18 19953.4 3328.59 19956.4 3345 19959.4 3361.42 19991.5 3377.83 20001.9 3394.25 20012.4 3410.66 20013.9 3427.08 20019 3443.49 20024.1 3459.9 20051.6 3476.32 20032.4 3492.73 20013.3 3509.15 19900.7 3525.56 19904.3 3541.97 19907.9 3558.39 20043.9 3574.8 20054.1 3591.22 20064.2 3607.63 19990.1 3624.05 19965.1 3640.46 19940.1 3656.87 19901.5 3673.29 19904.3 3689.7 19907.1 3706.12 19959.2 3722.53 19981.9 3738.94 20004.7 3755.36 20058.4 3771.77 20040.8 3788.19 20023.1 3804.6 19865.5 3821.02 19875.9 3837.43 19886.3 3853.84 20100.1 3870.26 20103.3 3886.67 20106.5 3911.29 19929.9 3919.5 19895.2" stroke="#000000" stroke-width="9.16667" stroke-linecap="round" stroke-linejoin="round" stroke-miterlimit="10" fill="none"/></g><g><text font-family="Inter,Inter_MSFontService,sans-serif" font-weight="400" font-size="32" transform="matrix(1 0 0 1 2221.05 20291)">80</text></g><g><text font-family="Inter,Inter_MSFontService,sans-serif" font-weight="400" font-size="32" transform="matrix(1 0 0 1 2220.82 20161)">90</text></g><g><text font-family="Inter,Inter_MSFontService,sans-serif" font-weight="400" font-size="32" transform="matrix(1 0 0 1 2205.88 20030)">100</text></g><g><text font-family="Inter,Inter_MSFontService,sans-serif" font-weight="400" font-size="32" transform="matrix(1 0 0 1 2211.03 19899)">110</text></g><g><text font-family="Inter,Inter_MSFontService,sans-serif" font-weight="400" font-size="32" transform="matrix(1 0 0 1 2206.52 19768)">120</text></g><g><text font-family="Inter,Inter_MSFontService,sans-serif" font-weight="400" font-size="32" transform="matrix(1 0 0 1 2205.51 19637)">130</text></g><g><text font-family="Inter,Inter_MSFontService,sans-serif" font-weight="400" font-size="32" transform="matrix(0.707107 -0.707107 0.707107 0.707107 2269.59 20357)">6/1</text></g><g><text font-family="Inter,Inter_MSFontService,sans-serif" font-weight="400" font-size="32" transform="matrix(0.707107 -0.707107 0.707107 0.707107 2400.46 20374)">6/22</text></g><g><text font-family="Inter,Inter_MSFontService,sans-serif" font-weight="400" font-size="32" transform="matrix(0.707107 -0.707107 0.707107 0.707107 2551.91 20370)">7/13</text></g><g><text font-family="Inter,Inter_MSFontService,sans-serif" font-weight="400" font-size="32" transform="matrix(0.707107 -0.707107 0.707107 0.707107 2709.19 20361)">8/3</text></g><g><text font-family="Inter,Inter_MSFontService,sans-serif" font-weight="400" font-size="32" transform="matrix(0.707107 -0.707107 0.707107 0.707107 2843.11 20375)">8/24</text></g><g><text font-family="Inter,Inter_MSFontService,sans-serif" font-weight="400" font-size="32" transform="matrix(0.707107 -0.707107 0.707107 0.707107 2993.92 20371)">9/14</text></g><g><text font-family="Inter,Inter_MSFontService,sans-serif" font-weight="400" font-size="32" transform="matrix(0.707107 -0.707107 0.707107 0.707107 3142.44 20371)">10/5</text></g><g><text font-family="Inter,Inter_MSFontService,sans-serif" font-weight="400" font-size="32" transform="matrix(0.707107 -0.707107 0.707107 0.707107 3276.14 20385)">10/26</text></g><g><text font-family="Inter,Inter_MSFontService,sans-serif" font-weight="400" font-size="32" transform="matrix(0.707107 -0.707107 0.707107 0.707107 3430.76 20378)">11/16</text></g><g><text font-family="Inter,Inter_MSFontService,sans-serif" font-weight="400" font-size="32" transform="matrix(0.707107 -0.707107 0.707107 0.707107 3587.07 20369)">12/7</text></g><g><text font-family="Inter,Inter_MSFontService,sans-serif" font-weight="400" font-size="32" transform="matrix(0.707107 -0.707107 0.707107 0.707107 3720.09 20384)">12/28</text></g><g><text font-family="Inter,Inter_MSFontService,sans-serif" font-weight="400" font-size="32" transform="matrix(0.707107 -0.707107 0.707107 0.707107 3884.79 20367)">1/18</text></g><g><text font-family="Inter,Inter_MSFontService,sans-serif" font-weight="400" font-size="32" transform="matrix(0.707107 -0.707107 0.707107 0.707107 4039.91 20360)">2/8</text></g><g><text font-family="Inter Medium,Inter Medium_MSFontService,sans-serif" font-weight="700" font-size="46" transform="matrix(1 0 0 1 2207.52 19469)">U.S. Hotel Occupancy and ADR Recovery Levels</text></g><g><path d="M2198.5 19563.5 2286.5 19563.5" stroke="#FFB226" stroke-width="9.16667" stroke-linecap="round" stroke-linejoin="round" stroke-miterlimit="10" fill="none" fill-rule="evenodd"/></g><g><text font-family="Inter Medium,Inter Medium_MSFontService,sans-serif" font-weight="500" font-size="37" transform="matrix(1 0 0 1 2295.83 19575)">Occ Index</text></g><g><path d="M2522.5 19563.5 2610.5 19563.5" stroke="#000000" stroke-width="9.16667" stroke-linecap="round" stroke-linejoin="round" stroke-miterlimit="10" fill="none" fill-rule="evenodd"/></g><g><text font-family="Inter Medium,Inter Medium_MSFontService,sans-serif" font-weight="500" font-size="37" transform="matrix(1 0 0 1 2620.04 19575)">ADR Index</text></g><rect x="2124.5" y="19379.5" width="2100" height="1055" stroke="#D9D9D9" stroke-width="3.4375" stroke-linejoin="round" stroke-miterlimit="10" fill="none"/><g><text fill="#7F7F7F" font-family="Inter,Inter_MSFontService,sans-serif" font-weight="400" font-size="32" transform="matrix(1 0 0 1 2205.29 19523)">Indexed to 2023, Source: STR, str.com</text></g><g><g><text font-family="Inter Medium,Inter Medium_MSFontService,sans-serif" font-weight="700" font-size="37" transform="matrix(1 0 0 1 3773.57 20399)">2025</text></g></g></g></svg>