<svg width="2106" height="1095" xmlns="http://www.w3.org/2000/svg" xmlns:xlink="http://www.w3.org/1999/xlink" xml:space="preserve" overflow="hidden"><defs><filter id="fx0" x="-10%" y="-10%" width="120%" height="120%" filterUnits="userSpaceOnUse" primitiveUnits="userSpaceOnUse"><feComponentTransfer color-interpolation-filters="sRGB"><feFuncR type="discrete" tableValues="0 0"/><feFuncG type="discrete" tableValues="0 0"/><feFuncB type="discrete" tableValues="0 0"/><feFuncA type="linear" slope="0.501961" intercept="0"/></feComponentTransfer><feGaussianBlur stdDeviation="4.58333 4.58333"/></filter><filter id="fx1" x="-10%" y="-10%" width="120%" height="120%" filterUnits="userSpaceOnUse" primitiveUnits="userSpaceOnUse"><feComponentTransfer color-interpolation-filters="sRGB"><feFuncR type="discrete" tableValues="0 0"/><feFuncG type="discrete" tableValues="0 0"/><feFuncB type="discrete" tableValues="0 0"/><feFuncA type="linear" slope="0.501961" intercept="0"/></feComponentTransfer><feGaussianBlur stdDeviation="4.58333 4.58333"/></filter><clipPath id="clip2"><rect x="1657" y="20745" width="2106" height="1095"/></clipPath><clipPath id="clip3"><rect x="1825" y="21002" width="1885" height="681"/></clipPath><clipPath id="clip4"><rect x="1825" y="21002" width="1885" height="681"/></clipPath></defs><g clip-path="url(#clip2)" transform="translate(-1657 -20745)"><rect x="1658" y="20746" width="2103" height="1092" fill="#FFFFFF"/><g><rect x="1825" y="21002" width="1882" height="678" fill="#F2F2F2"/></g><g><path d="M1825.5 21228.5 3707.5 21228.5" stroke="#D9D9D9" stroke-width="3.4375" stroke-linejoin="round" stroke-miterlimit="10" fill="none" fill-rule="evenodd"/></g><g clip-path="url(#clip3)"><g filter="url(#fx0)" transform="translate(1816 21113)"><g><path d="M19.9817 110.718C38.3465 123.899 56.7117 135.392 75.0769 150.26 93.4417 165.128 111.807 208.751 130.172 199.926 148.537 191.101 166.902 127.332 185.267 97.3106 203.632 67.2888 221.997 13.9824 240.363 19.7959 258.727 25.6089 277.093 114.077 295.458 132.19 310.346 146.875 335.664 105.168 350.553 128.474 368.918 157.223 387.283 302.382 405.648 304.683 424.013 306.983 442.378 180.996 460.743 142.274 479.108 103.553 497.473 67.2334 515.839 72.3525 534.204 77.4713 552.569 163.661 570.934 172.988 589.299 182.314 607.664 135.762 626.029 128.311 644.394 120.86 662.759 123.313 681.124 128.281 699.489 133.25 717.854 147.764 736.22 158.121 754.584 168.478 772.95 187.383 791.315 190.423 809.68 193.463 828.045 193.264 846.41 176.361 864.775 159.457 883.14 98.1297 901.505 89.0013 919.87 79.8728 938.236 114.927 956.601 121.59 974.966 128.253 993.331 118.07 1011.7 128.98 1030.06 139.889 1048.43 178.524 1066.79 187.05 1085.16 195.577 1103.52 188.427 1121.89 180.139 1140.25 171.85 1167.8 144.455 1176.98 137.319" stroke="#FFB226" stroke-width="9" stroke-linecap="round" stroke-linejoin="round" stroke-miterlimit="10" fill="none"/></g></g></g><g clip-path="url(#clip4)"><g filter="url(#fx1)" transform="translate(1816 21103)"><g><path d="M19.9817 74.2144C38.3465 76.3384 56.7117 69.2988 75.0769 80.5867 93.4417 91.8743 111.807 140.802 130.172 141.942 148.537 143.081 166.902 99.8909 185.267 87.4226 203.632 74.9539 221.997 67.4298 240.363 67.1304 258.727 66.8306 277.093 80.7404 295.458 85.6247 313.823 90.5086 332.188 87.2848 350.553 96.4343 368.918 105.584 387.283 152.982 405.648 140.522 424.013 128.061 442.378 33.3577 460.743 21.6701 479.108 9.98242 497.473 53.0103 515.839 70.3957 534.204 87.7811 552.569 123.107 570.934 125.982 589.299 128.858 607.664 95.7904 626.029 87.6491 644.394 79.5074 662.759 71.2676 681.124 77.1327 699.489 82.9975 717.854 115.267 736.22 122.839 754.584 130.412 772.95 125.072 791.315 122.566 809.68 120.06 828.045 115.396 846.41 107.802 864.775 100.208 883.14 74.1073 901.505 77.0029 919.87 79.8981 938.236 114.672 956.601 125.175 974.966 135.677 993.331 139.386 1011.7 140.02 1030.06 140.653 1048.43 129.363 1066.79 128.975 1085.16 128.588 1103.52 138.178 1121.89 137.694 1140.25 137.209 1167.8 128.005 1176.98 126.067" stroke="#000000" stroke-width="9" stroke-linecap="round" stroke-linejoin="round" stroke-miterlimit="10" fill="none"/></g></g></g><g><path d="M1829.5 21217.2C1847.86 21230.4 1866.23 21241.9 1884.6 21256.8 1902.96 21271.6 1921.33 21315.3 1939.69 21306.4 1958.06 21297.6 1976.42 21233.8 1994.79 21203.8 2013.15 21173.8 2031.52 21120.5 2049.88 21126.3 2068.25 21132.1 2086.61 21220.6 2104.98 21238.7 2119.86 21253.4 2145.18 21211.7 2160.07 21235 2178.44 21263.7 2196.8 21408.9 2215.17 21411.2 2233.53 21413.5 2251.9 21287.5 2270.26 21248.8 2288.63 21210.1 2306.99 21173.8 2325.36 21178.9 2343.72 21184 2362.09 21270.2 2380.45 21279.5 2398.82 21288.8 2417.18 21242.3 2435.55 21234.8 2453.91 21227.4 2472.28 21229.8 2490.64 21234.8 2509.01 21239.8 2527.37 21254.3 2545.74 21264.6 2564.1 21275 2582.47 21293.9 2600.83 21296.9 2619.2 21300 2637.56 21299.8 2655.93 21282.9 2674.29 21266 2692.66 21204.6 2711.02 21195.5 2729.39 21186.4 2747.75 21221.4 2766.12 21228.1 2784.48 21234.8 2802.85 21224.6 2821.21 21235.5 2839.58 21246.4 2857.94 21285 2876.31 21293.6 2894.67 21302.1 2913.04 21294.9 2931.4 21286.7 2949.77 21278.4 2977.32 21251 2986.5 21243.8" stroke="#FFB226" stroke-width="9.16667" stroke-linecap="round" stroke-linejoin="round" stroke-miterlimit="10" fill="none"/></g><g><path d="M1829.5 21170.7C1847.86 21172.9 1866.23 21165.8 1884.6 21177.1 1902.96 21188.4 1921.33 21237.3 1939.69 21238.5 1958.06 21239.6 1976.42 21196.4 1994.79 21183.9 2013.15 21171.5 2031.52 21163.9 2049.88 21163.6 2068.25 21163.3 2086.61 21177.3 2104.98 21182.1 2123.34 21187 2141.71 21183.8 2160.07 21193 2178.44 21202.1 2196.8 21249.5 2215.17 21237 2233.53 21224.6 2251.9 21129.9 2270.26 21118.2 2288.63 21106.5 2306.99 21149.5 2325.36 21166.9 2343.72 21184.3 2362.09 21219.6 2380.45 21222.5 2398.82 21225.4 2417.18 21192.3 2435.55 21184.2 2453.91 21176 2472.28 21167.8 2490.64 21173.7 2509.01 21179.5 2527.37 21211.8 2545.74 21219.4 2564.1 21226.9 2582.47 21221.6 2600.83 21219.1 2619.2 21216.6 2637.56 21211.9 2655.93 21204.3 2674.29 21196.7 2692.66 21170.6 2711.02 21173.5 2729.39 21176.4 2747.75 21211.2 2766.12 21221.7 2784.48 21232.2 2802.85 21235.9 2821.21 21236.5 2839.58 21237.2 2857.94 21225.9 2876.31 21225.5 2894.67 21225.1 2913.04 21234.7 2931.4 21234.2 2949.77 21233.7 2977.32 21224.5 2986.5 21222.6" stroke="#000000" stroke-width="9.16667" stroke-linecap="round" stroke-linejoin="round" stroke-miterlimit="10" fill="none"/></g><g><text font-family="Inter,Inter_MSFontService,sans-serif" font-weight="400" font-size="32" transform="matrix(1 0 0 1 1755.7 21690)">80</text></g><g><text font-family="Inter,Inter_MSFontService,sans-serif" font-weight="400" font-size="32" transform="matrix(1 0 0 1 1755.47 21464)">90</text></g><g><text font-family="Inter,Inter_MSFontService,sans-serif" font-weight="400" font-size="32" transform="matrix(1 0 0 1 1740.53 21238)">100</text></g><g><text font-family="Inter,Inter_MSFontService,sans-serif" font-weight="400" font-size="32" transform="matrix(1 0 0 1 1745.68 21012)">110</text></g><g><text font-family="Inter,Inter_MSFontService,sans-serif" font-weight="400" font-size="32" transform="matrix(0.707107 -0.707107 0.707107 0.707107 1804.37 21756)">3/1</text></g><g><text font-family="Inter,Inter_MSFontService,sans-serif" font-weight="400" font-size="32" transform="matrix(0.707107 -0.707107 0.707107 0.707107 1952.79 21773)">3/22</text></g><g><text font-family="Inter,Inter_MSFontService,sans-serif" font-weight="400" font-size="32" transform="matrix(0.707107 -0.707107 0.707107 0.707107 2121.19 21770)">4/12</text></g><g><text font-family="Inter,Inter_MSFontService,sans-serif" font-weight="400" font-size="32" transform="matrix(0.707107 -0.707107 0.707107 0.707107 2297.13 21759)">5/3</text></g><g><text font-family="Inter,Inter_MSFontService,sans-serif" font-weight="400" font-size="32" transform="matrix(0.707107 -0.707107 0.707107 0.707107 2448.62 21773)">5/24</text></g><g><text font-family="Inter,Inter_MSFontService,sans-serif" font-weight="400" font-size="32" transform="matrix(0.707107 -0.707107 0.707107 0.707107 2616.79 21770)">6/14</text></g><g><text font-family="Inter,Inter_MSFontService,sans-serif" font-weight="400" font-size="32" transform="matrix(0.707107 -0.707107 0.707107 0.707107 2794.64 21758)">7/5</text></g><g><text font-family="Inter,Inter_MSFontService,sans-serif" font-weight="400" font-size="32" transform="matrix(0.707107 -0.707107 0.707107 0.707107 2945.9 21772)">7/26</text></g><g><text font-family="Inter,Inter_MSFontService,sans-serif" font-weight="400" font-size="32" transform="matrix(0.707107 -0.707107 0.707107 0.707107 3113.4 21770)">8/16</text></g><g><text font-family="Inter,Inter_MSFontService,sans-serif" font-weight="400" font-size="32" transform="matrix(0.707107 -0.707107 0.707107 0.707107 3289.11 21759)">9/6</text></g><g><text font-family="Inter,Inter_MSFontService,sans-serif" font-weight="400" font-size="32" transform="matrix(0.707107 -0.707107 0.707107 0.707107 3441.92 21772)">9/27</text></g><g><text font-family="Inter,Inter_MSFontService,sans-serif" font-weight="400" font-size="32" transform="matrix(0.707107 -0.707107 0.707107 0.707107 3598.85 21780)">10/18</text></g><g><text font-family="Inter Medium,Inter Medium_MSFontService,sans-serif" font-weight="700" font-size="46" transform="matrix(1 0 0 1 1742.02 20836)">U.S. Hotel Occupancy and ADR Recovery Levels</text></g><g><path d="M1733.5 20936.5 1821.5 20936.5" stroke="#FFB226" stroke-width="9.16667" stroke-linecap="round" stroke-linejoin="round" stroke-miterlimit="10" fill="none" fill-rule="evenodd"/></g><g><text font-family="Inter Medium,Inter Medium_MSFontService,sans-serif" font-weight="500" font-size="37" transform="matrix(1 0 0 1 1830.61 20948)">Occ Index</text></g><g><path d="M2057.5 20936.5 2145.5 20936.5" stroke="#000000" stroke-width="9.16667" stroke-linecap="round" stroke-linejoin="round" stroke-miterlimit="10" fill="none" fill-rule="evenodd"/></g><g><text font-family="Inter Medium,Inter Medium_MSFontService,sans-serif" font-weight="500" font-size="37" transform="matrix(1 0 0 1 2155.16 20948)">ADR Index</text></g><rect x="1658.5" y="20746.5" width="2103" height="1092" stroke="#D9D9D9" stroke-width="3.4375" stroke-linejoin="round" stroke-miterlimit="10" fill="none"/><g><text fill="#7F7F7F" font-family="Inter,Inter_MSFontService,sans-serif" font-weight="400" font-size="32" transform="matrix(1 0 0 1 1739.76 20893)">YOY, Source: STR, str.com</text></g></g></svg>