<svg width="2111" height="1095" xmlns="http://www.w3.org/2000/svg" xmlns:xlink="http://www.w3.org/1999/xlink" xml:space="preserve" overflow="hidden"><defs><filter id="fx0" x="-10%" y="-10%" width="120%" height="120%" filterUnits="userSpaceOnUse" primitiveUnits="userSpaceOnUse"><feComponentTransfer color-interpolation-filters="sRGB"><feFuncR type="discrete" tableValues="0 0"/><feFuncG type="discrete" tableValues="0 0"/><feFuncB type="discrete" tableValues="0 0"/><feFuncA type="linear" slope="0.501961" intercept="0"/></feComponentTransfer><feGaussianBlur stdDeviation="4.58333 4.58333"/></filter><filter id="fx1" x="-10%" y="-10%" width="120%" height="120%" filterUnits="userSpaceOnUse" primitiveUnits="userSpaceOnUse"><feComponentTransfer color-interpolation-filters="sRGB"><feFuncR type="discrete" tableValues="0 0"/><feFuncG type="discrete" tableValues="0 0"/><feFuncB type="discrete" tableValues="0 0"/><feFuncA type="linear" slope="0.501961" intercept="0"/></feComponentTransfer><feGaussianBlur stdDeviation="4.58333 4.58333"/></filter><clipPath id="clip2"><rect x="1660" y="20745" width="2111" height="1095"/></clipPath><clipPath id="clip3"><rect x="1828" y="21002" width="1890" height="681"/></clipPath><clipPath id="clip4"><rect x="1828" y="21002" width="1890" height="681"/></clipPath></defs><g clip-path="url(#clip2)" transform="translate(-1660 -20745)"><rect x="1661" y="20746" width="2108" height="1092" fill="#FFFFFF"/><g><path d="M1998.5 21002.5 2053.57 21002.5 2109.57 21002.5 2164.57 21002.5 2219.57 21002.5 2274.57 21002.5 2329.58 21002.5 2385.58 21002.5 2440.58 21002.5 2495.58 21002.5 2550.58 21002.5 2606.59 21002.5 2661.59 21002.5 2716.59 21002.5 2771.59 21002.5 2827.59 21002.5 2882.59 21002.5 2937.6 21002.5 2992.6 21002.5 3048.6 21002.5 3103.6 21002.5 3158.6 21002.5 3213.61 21002.5 3269.61 21002.5 3324.61 21002.5 3379.61 21002.5 3434.61 21002.5 3489.61 21002.5 3545.62 21002.5 3600.62 21002.5 3655.62 21002.5 3711.5 21002.5 3711.5 21680.5 3655.62 21680.5 3600.62 21680.5 3545.62 21680.5 3489.61 21680.5 3434.61 21680.5 3379.61 21680.5 3324.61 21680.5 3269.61 21680.5 3213.61 21680.5 3158.6 21680.5 3103.6 21680.5 3048.6 21680.5 2992.6 21680.5 2937.6 21680.5 2882.59 21680.5 2827.59 21680.5 2771.59 21680.5 2716.59 21680.5 2661.59 21680.5 2606.59 21680.5 2550.58 21680.5 2495.58 21680.5 2440.58 21680.5 2385.58 21680.5 2329.58 21680.5 2274.57 21680.5 2219.57 21680.5 2164.57 21680.5 2109.57 21680.5 2053.57 21680.5 1998.5 21680.5Z" stroke="#BFBFBF" stroke-width="3.4375" stroke-linejoin="round" stroke-miterlimit="10" stroke-opacity="0.501961" fill="#D9D9D9" fill-opacity="0.501961"/></g><g><path d="M1828.5 21341.5 3714.5 21341.5" stroke="#D9D9D9" stroke-width="3.4375" stroke-linejoin="round" stroke-miterlimit="10" fill="none" fill-rule="evenodd"/></g><g clip-path="url(#clip3)"><g filter="url(#fx0)" transform="translate(1819 21125)"><g><path d="M19.9818 214.416C38.4014 167.696 56.821 105.006 75.241 74.2559 90.5799 48.6485 115.161-2.01758 130.5 29.9152 148.92 68.2609 167.34 281.196 185.76 304.331 204.179 327.466 222.599 160.522 241.019 168.725 259.438 176.927 277.858 363.983 296.278 353.548 314.698 343.113 333.117 118.305 351.537 106.117 369.957 93.9294 388.377 267.586 406.797 280.423 425.216 293.261 443.636 191.189 462.056 183.142 480.475 175.094 498.895 229.301 517.315 232.138 535.735 234.975 554.155 193.923 572.575 200.165 590.994 206.407 609.414 267.125 627.834 269.588 646.253 272.051 664.673 219.116 683.093 214.944 701.512 210.771 719.932 233.42 738.352 244.553 756.772 255.686 775.192 288.352 793.612 281.744 812.031 275.136 830.451 227.384 848.871 204.903 867.29 182.422 885.71 142.505 904.13 146.859 922.549 151.211 940.969 217.458 959.389 231.022 977.375 244.266 996.662 207.218 1014.65 228.239 1033.07 249.767 1051.49 358.466 1069.91 360.189 1088.33 361.911 1106.75 267.569 1125.17 238.573 1143.59 209.577 1162.01 182.381 1180.43 186.215 1198.85 190.047 1217.27 254.588 1235.69 261.572 1254.11 268.556 1272.52 233.696 1290.94 228.117 1309.36 222.537 1327.78 224.374 1346.2 228.095 1364.62 231.815 1383.04 242.684 1401.46 250.44 1419.88 258.195 1438.3 272.352 1456.72 274.628 1475.14 276.904 1502.77 265.853 1511.98 264.098" stroke="#FFB226" stroke-width="9" stroke-linecap="round" stroke-linejoin="round" stroke-miterlimit="10" fill="none"/></g></g></g><g clip-path="url(#clip4)"><g filter="url(#fx1)" transform="translate(1819 21141)"><g><path d="M19.9818 135.937C38.4014 109.685 56.821 53.5508 75.241 57.1803 93.6606 60.8095 112.08 128.259 130.5 157.713 148.92 187.166 167.34 256.773 185.76 233.899 204.179 211.025 222.599 6.98242 241.019 20.4679 259.438 33.9529 277.858 310.639 296.278 314.811 314.698 318.982 333.117 71.8976 351.537 45.4977 369.957 19.0975 388.377 133.847 406.797 156.411 425.216 178.975 443.636 163.842 462.056 180.884 480.475 197.925 498.895 258.785 517.315 258.659 535.735 258.533 554.155 194.692 572.575 180.128 590.994 165.563 609.414 174.055 627.834 171.274 646.253 168.493 664.673 163.95 683.093 163.441 701.512 162.932 719.932 159.755 738.352 168.22 756.772 176.686 775.192 213.381 793.612 214.235 812.031 215.089 830.451 182.698 848.871 173.347 867.29 163.996 885.71 158.353 904.13 158.129 922.549 157.904 940.969 168.336 959.389 171.999 977.809 175.662 996.229 173.244 1014.65 180.106 1033.07 186.967 1051.49 222.515 1069.91 213.17 1088.33 203.825 1106.75 132.8 1125.17 124.035 1143.59 115.269 1162.01 147.539 1180.43 160.578 1198.85 173.616 1217.27 200.11 1235.69 202.266 1254.11 204.423 1272.52 179.623 1290.94 173.517 1309.36 167.411 1327.78 161.231 1346.2 165.63 1364.62 170.029 1383.04 194.23 1401.46 199.909 1419.88 205.588 1438.3 201.584 1456.72 199.704 1475.14 197.825 1502.77 190.477 1511.98 188.632" stroke="#000000" stroke-width="9" stroke-linecap="round" stroke-linejoin="round" stroke-miterlimit="10" fill="none"/></g></g></g><g><path d="M1832.5 21332.9C1850.92 21286.2 1869.34 21223.5 1887.76 21192.8 1903.1 21167.2 1927.68 21116.5 1943.02 21148.4 1961.44 21186.8 1979.86 21399.7 1998.28 21422.8 2016.7 21446 2035.12 21279 2053.54 21287.2 2071.96 21295.4 2090.38 21482.5 2108.8 21472.1 2127.22 21461.6 2145.64 21236.8 2164.06 21224.6 2182.47 21212.4 2200.9 21386.1 2219.31 21398.9 2237.73 21411.8 2256.15 21309.7 2274.57 21301.7 2292.99 21293.6 2311.41 21347.8 2329.83 21350.7 2348.25 21353.5 2366.67 21312.4 2385.09 21318.7 2403.51 21324.9 2421.93 21385.6 2440.35 21388.1 2458.77 21390.6 2477.19 21337.6 2495.61 21333.5 2514.03 21329.3 2532.45 21351.9 2550.87 21363.1 2569.29 21374.2 2587.71 21406.9 2606.13 21400.3 2624.55 21393.7 2642.97 21345.9 2661.39 21323.4 2679.81 21300.9 2698.23 21261 2716.65 21265.4 2735.07 21269.7 2753.49 21336 2771.91 21349.5 2789.89 21362.8 2809.18 21325.7 2827.17 21346.8 2845.59 21368.3 2864.01 21477 2882.43 21478.7 2900.85 21480.4 2919.27 21386.1 2937.69 21357.1 2956.1 21328.1 2974.52 21300.9 2992.94 21304.7 3011.36 21308.6 3029.78 21373.1 3048.2 21380.1 3066.62 21387.1 3085.04 21352.2 3103.46 21346.6 3121.88 21341.1 3140.3 21342.9 3158.72 21346.6 3177.14 21350.3 3195.56 21361.2 3213.98 21369 3232.4 21376.7 3250.82 21390.9 3269.24 21393.1 3287.66 21395.4 3315.29 21384.4 3324.5 21382.6" stroke="#FFB226" stroke-width="9.16667" stroke-linecap="round" stroke-linejoin="round" stroke-miterlimit="10" fill="none"/></g><g><path d="M1832.5 21270.5C1850.92 21244.2 1869.34 21188.1 1887.76 21191.7 1906.18 21195.3 1924.6 21262.8 1943.02 21292.2 1961.44 21321.7 1979.86 21391.3 1998.28 21368.4 2016.7 21345.5 2035.12 21141.5 2053.54 21155 2071.96 21168.5 2090.38 21445.2 2108.8 21449.3 2127.22 21453.5 2145.64 21206.4 2164.06 21180 2182.47 21153.6 2200.9 21268.4 2219.31 21290.9 2237.73 21313.5 2256.15 21298.4 2274.57 21315.4 2292.99 21332.4 2311.41 21393.3 2329.83 21393.2 2348.25 21393.1 2366.67 21329.2 2385.09 21314.6 2403.51 21300.1 2421.93 21308.6 2440.35 21305.8 2458.77 21303 2477.19 21298.5 2495.61 21298 2514.03 21297.4 2532.45 21294.3 2550.87 21302.7 2569.29 21311.2 2587.71 21347.9 2606.13 21348.8 2624.55 21349.6 2642.97 21317.2 2661.39 21307.9 2679.81 21298.5 2698.23 21292.9 2716.65 21292.6 2735.07 21292.4 2753.49 21302.9 2771.91 21306.5 2790.33 21310.2 2808.75 21307.8 2827.17 21314.6 2845.59 21321.5 2864.01 21357 2882.43 21347.7 2900.85 21338.3 2919.27 21267.3 2937.69 21258.6 2956.1 21249.8 2974.52 21282.1 2992.94 21295.1 3011.36 21308.1 3029.78 21334.6 3048.2 21336.8 3066.62 21338.9 3085.04 21314.1 3103.46 21308 3121.88 21301.9 3140.3 21295.7 3158.72 21300.1 3177.14 21304.5 3195.56 21328.7 3213.98 21334.4 3232.4 21340.1 3250.82 21336.1 3269.24 21334.2 3287.66 21332.3 3315.29 21325 3324.5 21323.1" stroke="#000000" stroke-width="9.16667" stroke-linecap="round" stroke-linejoin="round" stroke-miterlimit="10" fill="none"/></g><g><text font-family="Inter,Inter_MSFontService,sans-serif" font-weight="400" font-size="32" transform="matrix(1 0 0 1 1759.39 21690)">80</text></g><g><text font-family="Inter,Inter_MSFontService,sans-serif" font-weight="400" font-size="32" transform="matrix(1 0 0 1 1759.16 21521)">90</text></g><g><text font-family="Inter,Inter_MSFontService,sans-serif" font-weight="400" font-size="32" transform="matrix(1 0 0 1 1744.22 21351)">100</text></g><g><text font-family="Inter,Inter_MSFontService,sans-serif" font-weight="400" font-size="32" transform="matrix(1 0 0 1 1749.38 21182)">110</text></g><g><text font-family="Inter,Inter_MSFontService,sans-serif" font-weight="400" font-size="32" transform="matrix(1 0 0 1 1744.86 21012)">120</text></g><g><text font-family="Inter,Inter_MSFontService,sans-serif" font-weight="400" font-size="32" transform="matrix(0.707107 -0.707107 0.707107 0.707107 1795.84 21768)">12/7</text></g><g><text font-family="Inter,Inter_MSFontService,sans-serif" font-weight="400" font-size="32" transform="matrix(0.707107 -0.707107 0.707107 0.707107 1946.79 21783)">12/28</text></g><g><text font-family="Inter,Inter_MSFontService,sans-serif" font-weight="400" font-size="32" transform="matrix(0.707107 -0.707107 0.707107 0.707107 2129.42 21766)">1/18</text></g><g><text font-family="Inter,Inter_MSFontService,sans-serif" font-weight="400" font-size="32" transform="matrix(0.707107 -0.707107 0.707107 0.707107 2302.47 21759)">2/8</text></g><g><text font-family="Inter,Inter_MSFontService,sans-serif" font-weight="400" font-size="32" transform="matrix(0.707107 -0.707107 0.707107 0.707107 2470.92 21756)">3/1</text></g><g><text font-family="Inter,Inter_MSFontService,sans-serif" font-weight="400" font-size="32" transform="matrix(0.707107 -0.707107 0.707107 0.707107 2619.72 21773)">3/22</text></g><g><text font-family="Inter,Inter_MSFontService,sans-serif" font-weight="400" font-size="32" transform="matrix(0.707107 -0.707107 0.707107 0.707107 2788.49 21770)">4/12</text></g><g><text font-family="Inter,Inter_MSFontService,sans-serif" font-weight="400" font-size="32" transform="matrix(0.707107 -0.707107 0.707107 0.707107 2964.81 21759)">5/3</text></g><g><text font-family="Inter,Inter_MSFontService,sans-serif" font-weight="400" font-size="32" transform="matrix(0.707107 -0.707107 0.707107 0.707107 3116.66 21773)">5/24</text></g><g><text font-family="Inter,Inter_MSFontService,sans-serif" font-weight="400" font-size="32" transform="matrix(0.707107 -0.707107 0.707107 0.707107 3285.21 21770)">6/14</text></g><g><text font-family="Inter,Inter_MSFontService,sans-serif" font-weight="400" font-size="32" transform="matrix(0.707107 -0.707107 0.707107 0.707107 3463.43 21758)">7/5</text></g><g><text font-family="Inter,Inter_MSFontService,sans-serif" font-weight="400" font-size="32" transform="matrix(0.707107 -0.707107 0.707107 0.707107 3615.06 21772)">7/26</text></g><g><text font-family="Inter Medium,Inter Medium_MSFontService,sans-serif" font-weight="700" font-size="46" transform="matrix(1 0 0 1 1745.5 20836)">U.S. Hotel Occupancy and ADR Recovery Levels</text></g><g><path d="M1737.5 20936.5 1825.5 20936.5" stroke="#FFB226" stroke-width="9.16667" stroke-linecap="round" stroke-linejoin="round" stroke-miterlimit="10" fill="none" fill-rule="evenodd"/></g><g><text font-family="Inter Medium,Inter Medium_MSFontService,sans-serif" font-weight="500" font-size="37" transform="matrix(1 0 0 1 1834.49 20948)">Occ Index</text></g><g><path d="M2062.5 20936.5 2150.5 20936.5" stroke="#000000" stroke-width="9.16667" stroke-linecap="round" stroke-linejoin="round" stroke-miterlimit="10" fill="none" fill-rule="evenodd"/></g><g><text font-family="Inter Medium,Inter Medium_MSFontService,sans-serif" font-weight="500" font-size="37" transform="matrix(1 0 0 1 2159.57 20948)">ADR Index</text></g><rect x="1661.5" y="20746.5" width="2108" height="1092" stroke="#D9D9D9" stroke-width="3.4375" stroke-linejoin="round" stroke-miterlimit="10" fill="none"/><g><text fill="#7F7F7F" font-family="Inter,Inter_MSFontService,sans-serif" font-weight="400" font-size="32" transform="matrix(1 0 0 1 1743.19 20893)">YOY, Source: STR, str.com</text></g><g><g><text font-family="Inter Medium,Inter Medium_MSFontService,sans-serif" font-weight="700" font-size="37" transform="matrix(1 0 0 1 2057.67 21809)">2025</text></g></g></g></svg>