<svg width="2103" height="1058" xmlns="http://www.w3.org/2000/svg" xmlns:xlink="http://www.w3.org/1999/xlink" xml:space="preserve" overflow="hidden"><defs><filter id="fx0" x="-10%" y="-10%" width="120%" height="120%" filterUnits="userSpaceOnUse" primitiveUnits="userSpaceOnUse"><feComponentTransfer color-interpolation-filters="sRGB"><feFuncR type="discrete" tableValues="0 0"/><feFuncG type="discrete" tableValues="0 0"/><feFuncB type="discrete" tableValues="0 0"/><feFuncA type="linear" slope="0.501961" intercept="0"/></feComponentTransfer><feGaussianBlur stdDeviation="4.58333 4.58333"/></filter><filter id="fx1" x="-10%" y="-10%" width="120%" height="120%" filterUnits="userSpaceOnUse" primitiveUnits="userSpaceOnUse"><feComponentTransfer color-interpolation-filters="sRGB"><feFuncR type="discrete" tableValues="0 0"/><feFuncG type="discrete" tableValues="0 0"/><feFuncB type="discrete" tableValues="0 0"/><feFuncA type="linear" slope="0.501961" intercept="0"/></feComponentTransfer><feGaussianBlur stdDeviation="4.58333 4.58333"/></filter><clipPath id="clip2"><rect x="1655" y="20031" width="2103" height="1058"/></clipPath><clipPath id="clip3"><rect x="1822" y="20279" width="1883" height="658"/></clipPath><clipPath id="clip4"><rect x="1822" y="20279" width="1883" height="658"/></clipPath></defs><g clip-path="url(#clip2)" transform="translate(-1655 -20031)"><rect x="1656" y="20032" width="2100" height="1055" fill="#FFFFFF"/><g><path d="M1991.5 20279.5 2046.57 20279.5 2101.57 20279.5 2156.57 20279.5 2211.57 20279.5 2266.57 20279.5 2321.58 20279.5 2376.58 20279.5 2432.58 20279.5 2487.58 20279.5 2542.58 20279.5 2597.59 20279.5 2652.59 20279.5 2707.59 20279.5 2762.59 20279.5 2817.59 20279.5 2872.59 20279.5 2927.6 20279.5 2982.6 20279.5 3037.6 20279.5 3092.6 20279.5 3147.6 20279.5 3202.61 20279.5 3257.61 20279.5 3312.61 20279.5 3367.61 20279.5 3422.61 20279.5 3477.61 20279.5 3532.62 20279.5 3587.62 20279.5 3642.62 20279.5 3697.5 20279.5 3697.5 20934.5 3642.62 20934.5 3587.62 20934.5 3532.62 20934.5 3477.61 20934.5 3422.61 20934.5 3367.61 20934.5 3312.61 20934.5 3257.61 20934.5 3202.61 20934.5 3147.6 20934.5 3092.6 20934.5 3037.6 20934.5 2982.6 20934.5 2927.6 20934.5 2872.59 20934.5 2817.59 20934.5 2762.59 20934.5 2707.59 20934.5 2652.59 20934.5 2597.59 20934.5 2542.58 20934.5 2487.58 20934.5 2432.58 20934.5 2376.58 20934.5 2321.58 20934.5 2266.57 20934.5 2211.57 20934.5 2156.57 20934.5 2101.57 20934.5 2046.57 20934.5 1991.5 20934.5Z" stroke="#BFBFBF" stroke-width="3.4375" stroke-linejoin="round" stroke-miterlimit="10" stroke-opacity="0.501961" fill="#D9D9D9" fill-opacity="0.501961"/></g><g><path d="M1822.5 20606.5 3701.5 20606.5" stroke="#D9D9D9" stroke-width="3.4375" stroke-linejoin="round" stroke-miterlimit="10" fill="none" fill-rule="evenodd"/></g><g clip-path="url(#clip3)"><g filter="url(#fx0)" transform="translate(1813 20398)"><g><path d="M19.9817 206.898C38.3316 161.89 56.6812 101.498 75.0315 71.8745 90.5182 46.8734 114.595-2.01758 130.082 29.1589 148.432 66.0992 166.781 271.23 185.132 293.517 203.482 315.804 221.831 154.979 240.182 162.881 258.532 170.783 276.881 350.982 295.232 340.93 313.582 330.878 331.931 114.309 350.282 102.568 368.632 90.8272 386.981 258.119 405.332 270.486 423.682 282.853 442.032 184.522 460.382 176.77 478.732 169.017 497.081 221.237 515.432 223.97 533.782 226.703 552.132 187.156 570.482 193.169 588.832 199.182 607.181 257.675 625.532 260.048 643.882 262.421 662.232 211.425 680.582 207.406 698.932 203.386 717.281 225.205 735.632 235.93 753.982 246.655 772.332 278.124 790.682 271.758 809.032 265.392 827.382 219.391 845.732 197.734 864.082 176.077 882.432 137.622 900.782 141.816 919.132 146.01 937.482 209.829 955.832 222.895 974.074 235.884 992.64 199.598 1010.88 220.214 1029.23 240.953 1047.58 345.668 1065.93 347.327 1084.28 348.986 1111.81 249.696 1120.98 230.17" stroke="#FFB226" stroke-width="9" stroke-linecap="round" stroke-linejoin="round" stroke-miterlimit="10" fill="none"/></g></g></g><g clip-path="url(#clip4)"><g filter="url(#fx1)" transform="translate(1813 20414)"><g><path d="M19.9817 131.391C38.3316 106.064 56.6812 51.9088 75.0315 55.4101 93.3815 58.9114 111.731 123.983 130.082 152.398 148.432 180.813 166.781 247.966 185.132 225.899 203.482 203.831 221.831 6.98242 240.182 19.9923 258.532 33.0019 276.881 299.933 295.232 303.958 313.582 307.982 331.931 69.6086 350.282 44.1397 368.632 18.6703 386.981 129.373 405.332 151.142 423.682 172.911 442.032 158.312 460.382 174.752 478.732 191.192 497.081 249.907 515.432 249.786 533.782 249.664 552.132 188.073 570.482 174.023 588.832 159.972 607.181 168.165 625.532 165.482 643.882 162.799 662.232 158.416 680.582 157.925 698.932 157.434 717.281 154.369 735.632 162.536 753.982 170.703 772.332 206.103 790.682 206.928 809.032 207.752 827.382 176.503 845.732 167.482 864.082 158.46 882.432 153.016 900.782 152.8 919.132 152.583 937.482 162.647 955.832 166.181 974.182 169.714 992.531 167.382 1010.88 174.002 1029.23 180.622 1047.58 214.916 1065.93 205.901 1084.28 196.885 1111.81 134.24 1120.98 119.908" stroke="#000000" stroke-width="9" stroke-linecap="round" stroke-linejoin="round" stroke-miterlimit="10" fill="none"/></g></g></g><g><path d="M1826.5 20598.4C1844.85 20553.4 1863.2 20493 1881.55 20463.4 1897.04 20438.4 1921.11 20389.5 1936.6 20420.7 1954.95 20457.6 1973.3 20662.7 1991.65 20685 2010 20707.3 2028.35 20546.5 2046.7 20554.4 2065.05 20562.3 2083.4 20742.5 2101.75 20732.4 2120.1 20722.4 2138.45 20505.8 2156.8 20494.1 2175.15 20482.3 2193.5 20649.6 2211.85 20662 2230.2 20674.4 2248.55 20576 2266.9 20568.3 2285.25 20560.5 2303.6 20612.8 2321.95 20615.5 2340.3 20618.2 2358.65 20578.7 2377 20584.7 2395.35 20590.7 2413.7 20649.2 2432.05 20651.6 2450.4 20653.9 2468.75 20602.9 2487.1 20598.9 2505.45 20594.9 2523.8 20616.7 2542.15 20627.4 2560.5 20638.2 2578.85 20669.6 2597.2 20663.3 2615.55 20656.9 2633.9 20610.9 2652.25 20589.3 2670.6 20567.6 2688.95 20529.1 2707.3 20533.3 2725.65 20537.5 2744 20601.3 2762.35 20614.4 2780.59 20627.4 2799.16 20591.1 2817.4 20611.7 2835.75 20632.5 2854.1 20737.2 2872.45 20738.8 2890.8 20740.5 2918.32 20641.2 2927.5 20621.7" stroke="#FFB226" stroke-width="9.16667" stroke-linecap="round" stroke-linejoin="round" stroke-miterlimit="10" fill="none"/></g><g><path d="M1826.5 20538.9C1844.85 20513.6 1863.2 20459.4 1881.55 20462.9 1899.9 20466.4 1918.25 20531.5 1936.6 20559.9 1954.95 20588.3 1973.3 20655.5 1991.65 20633.4 2010 20611.3 2028.35 20414.5 2046.7 20427.5 2065.05 20440.5 2083.4 20707.5 2101.75 20711.5 2120.1 20715.5 2138.45 20477.1 2156.8 20451.7 2175.15 20426.2 2193.5 20536.9 2211.85 20558.7 2230.2 20580.4 2248.55 20565.8 2266.9 20582.3 2285.25 20598.7 2303.6 20657.4 2321.95 20657.3 2340.3 20657.2 2358.65 20595.6 2377 20581.5 2395.35 20567.5 2413.7 20575.7 2432.05 20573 2450.4 20570.3 2468.75 20565.9 2487.1 20565.4 2505.45 20565 2523.8 20561.9 2542.15 20570.1 2560.5 20578.2 2578.85 20613.6 2597.2 20614.4 2615.55 20615.3 2633.9 20584 2652.25 20575 2670.6 20566 2688.95 20560.5 2707.3 20560.3 2725.65 20560.1 2744 20570.2 2762.35 20573.7 2780.7 20577.2 2799.05 20574.9 2817.4 20581.5 2835.75 20588.1 2854.1 20622.4 2872.45 20613.4 2890.8 20604.4 2918.32 20541.8 2927.5 20527.4" stroke="#000000" stroke-width="9.16667" stroke-linecap="round" stroke-linejoin="round" stroke-miterlimit="10" fill="none"/></g><g><text font-family="Inter,Inter_MSFontService,sans-serif" font-weight="400" font-size="32" transform="matrix(1 0 0 1 1753.23 20944)">80</text></g><g><text font-family="Inter,Inter_MSFontService,sans-serif" font-weight="400" font-size="32" transform="matrix(1 0 0 1 1753 20781)">90</text></g><g><text font-family="Inter,Inter_MSFontService,sans-serif" font-weight="400" font-size="32" transform="matrix(1 0 0 1 1738.06 20617)">100</text></g><g><text font-family="Inter,Inter_MSFontService,sans-serif" font-weight="400" font-size="32" transform="matrix(1 0 0 1 1743.22 20453)">110</text></g><g><text font-family="Inter,Inter_MSFontService,sans-serif" font-weight="400" font-size="32" transform="matrix(1 0 0 1 1738.7 20290)">120</text></g><g><text font-family="Inter,Inter_MSFontService,sans-serif" font-weight="400" font-size="32" transform="matrix(0.707107 -0.707107 0.707107 0.707107 1789.66 21022)">12/7</text></g><g><text font-family="Inter,Inter_MSFontService,sans-serif" font-weight="400" font-size="32" transform="matrix(0.707107 -0.707107 0.707107 0.707107 1939.99 21037)">12/28</text></g><g><text font-family="Inter,Inter_MSFontService,sans-serif" font-weight="400" font-size="32" transform="matrix(0.707107 -0.707107 0.707107 0.707107 2122 21020)">1/18</text></g><g><text font-family="Inter,Inter_MSFontService,sans-serif" font-weight="400" font-size="32" transform="matrix(0.707107 -0.707107 0.707107 0.707107 2294.43 21013)">2/8</text></g><g><text font-family="Inter,Inter_MSFontService,sans-serif" font-weight="400" font-size="32" transform="matrix(0.707107 -0.707107 0.707107 0.707107 2462.26 21010)">3/1</text></g><g><text font-family="Inter,Inter_MSFontService,sans-serif" font-weight="400" font-size="32" transform="matrix(0.707107 -0.707107 0.707107 0.707107 2610.44 21027)">3/22</text></g><g><text font-family="Inter,Inter_MSFontService,sans-serif" font-weight="400" font-size="32" transform="matrix(0.707107 -0.707107 0.707107 0.707107 2778.59 21024)">4/12</text></g><g><text font-family="Inter,Inter_MSFontService,sans-serif" font-weight="400" font-size="32" transform="matrix(0.707107 -0.707107 0.707107 0.707107 2954.28 21013)">5/3</text></g><g><text font-family="Inter,Inter_MSFontService,sans-serif" font-weight="400" font-size="32" transform="matrix(0.707107 -0.707107 0.707107 0.707107 3105.52 21027)">5/24</text></g><g><text font-family="Inter,Inter_MSFontService,sans-serif" font-weight="400" font-size="32" transform="matrix(0.707107 -0.707107 0.707107 0.707107 3273.45 21024)">6/14</text></g><g><text font-family="Inter,Inter_MSFontService,sans-serif" font-weight="400" font-size="32" transform="matrix(0.707107 -0.707107 0.707107 0.707107 3451.05 21012)">7/5</text></g><g><text font-family="Inter,Inter_MSFontService,sans-serif" font-weight="400" font-size="32" transform="matrix(0.707107 -0.707107 0.707107 0.707107 3602.06 21026)">7/26</text></g><g><text font-family="Inter Medium,Inter Medium_MSFontService,sans-serif" font-weight="700" font-size="46" transform="matrix(1 0 0 1 1739.7 20121)">U.S. Hotel Occupancy and ADR Recovery Levels</text></g><g><path d="M1730.5 20215.5 1818.5 20215.5" stroke="#FFB226" stroke-width="9.16667" stroke-linecap="round" stroke-linejoin="round" stroke-miterlimit="10" fill="none" fill-rule="evenodd"/></g><g><text font-family="Inter Medium,Inter Medium_MSFontService,sans-serif" font-weight="500" font-size="37" transform="matrix(1 0 0 1 1828.02 20228)">Occ Index</text></g><g><path d="M2054.5 20215.5 2142.5 20215.5" stroke="#000000" stroke-width="9.16667" stroke-linecap="round" stroke-linejoin="round" stroke-miterlimit="10" fill="none" fill-rule="evenodd"/></g><g><text font-family="Inter Medium,Inter Medium_MSFontService,sans-serif" font-weight="500" font-size="37" transform="matrix(1 0 0 1 2152.23 20228)">ADR Index</text></g><rect x="1656.5" y="20032.5" width="2100" height="1055" stroke="#D9D9D9" stroke-width="3.4375" stroke-linejoin="round" stroke-miterlimit="10" fill="none"/><g><text fill="#7F7F7F" font-family="Inter,Inter_MSFontService,sans-serif" font-weight="400" font-size="32" transform="matrix(1 0 0 1 1737.48 20176)">YOY, Source: STR, str.com</text></g><g><g><text font-family="Inter Medium,Inter Medium_MSFontService,sans-serif" font-weight="700" font-size="37" transform="matrix(1 0 0 1 2050.78 21060)">2025</text></g></g></g></svg>