<svg width="2106" height="1059" xmlns="http://www.w3.org/2000/svg" xmlns:xlink="http://www.w3.org/1999/xlink" xml:space="preserve" overflow="hidden"><defs><filter id="fx0" x="-10%" y="-10%" width="120%" height="120%" filterUnits="userSpaceOnUse" primitiveUnits="userSpaceOnUse"><feComponentTransfer color-interpolation-filters="sRGB"><feFuncR type="discrete" tableValues="0 0"/><feFuncG type="discrete" tableValues="0 0"/><feFuncB type="discrete" tableValues="0 0"/><feFuncA type="linear" slope="0.501961" intercept="0"/></feComponentTransfer><feGaussianBlur stdDeviation="4.58333 4.58333"/></filter><filter id="fx1" x="-10%" y="-10%" width="120%" height="120%" filterUnits="userSpaceOnUse" primitiveUnits="userSpaceOnUse"><feComponentTransfer color-interpolation-filters="sRGB"><feFuncR type="discrete" tableValues="0 0"/><feFuncG type="discrete" tableValues="0 0"/><feFuncB type="discrete" tableValues="0 0"/><feFuncA type="linear" slope="0.501961" intercept="0"/></feComponentTransfer><feGaussianBlur stdDeviation="4.58333 4.58333"/></filter><clipPath id="clip2"><rect x="1657" y="20055" width="2106" height="1059"/></clipPath><clipPath id="clip3"><rect x="1825" y="20303" width="1885" height="659"/></clipPath><clipPath id="clip4"><rect x="1825" y="20303" width="1885" height="659"/></clipPath></defs><g clip-path="url(#clip2)" transform="translate(-1657 -20055)"><rect x="1658" y="20056" width="2103" height="1056" fill="#FFFFFF"/><g><rect x="1825" y="20304" width="1882" height="655" fill="#F2F2F2"/></g><g><path d="M1825.5 20522.5 3707.5 20522.5" stroke="#D9D9D9" stroke-width="3.4375" stroke-linejoin="round" stroke-miterlimit="10" fill="none" fill-rule="evenodd"/></g><g clip-path="url(#clip3)"><g filter="url(#fx0)" transform="translate(1815 20411)"><g><path d="M19.9817 107.417C34.1886 120.147 48.3956 131.249 62.6025 145.609 76.8091 159.969 91.016 202.103 105.223 193.58 119.43 185.056 133.637 123.464 147.844 94.4669 162.05 65.4697 176.257 13.9824 190.464 19.5973 204.671 25.2121 218.878 110.661 233.085 128.156 242.838 140.166 265.953 105.504 275.706 124.567 289.913 152.334 304.119 292.54 318.326 294.761 332.533 296.983 346.74 175.296 360.947 137.896 375.13 100.559 389.385 65.4245 403.568 70.3606 417.775 75.3047 431.982 158.553 446.189 167.561 460.395 176.569 474.602 131.606 488.809 124.409 503.016 117.212 517.223 119.582 531.43 124.38 545.636 129.179 559.844 143.198 574.051 153.202 588.258 163.205 602.465 181.465 616.672 184.401 630.878 187.337 645.085 187.146 659.292 170.819 673.499 154.492 687.706 95.258 701.913 86.4411 716.119 77.6242 730.326 111.482 744.533 117.918 758.74 124.353 772.947 114.517 787.154 125.055 801.361 135.593 815.568 172.908 829.775 181.144 843.982 189.379 858.188 182.474 872.395 174.469 886.602 166.463 900.809 143.06 915.016 133.109 929.223 123.159 943.43 113.582 957.637 114.765 971.844 115.948 986.051 136.412 1000.26 140.208 1014.46 144.003 1028.67 137.391 1042.88 137.538 1057.08 137.684 1071.29 141.502 1085.5 141.085 1099.71 140.668 1113.91 138.266 1128.12 135.035 1142.33 131.805 1156.53 117.986 1170.74 121.702 1184.95 125.419 1199.15 153.731 1213.36 157.334 1227.57 160.937 1248.88 145.654 1255.98 143.318" stroke="#FFB226" stroke-width="9" stroke-linecap="round" stroke-linejoin="round" stroke-miterlimit="10" fill="none"/></g></g></g><g clip-path="url(#clip4)"><g filter="url(#fx1)" transform="translate(1815 20401)"><g><path d="M19.9817 71.9686C34.1886 74.0182 48.3956 67.2247 62.6025 78.118 76.8091 89.011 91.016 136.228 105.223 137.328 119.43 138.427 133.637 96.7475 147.844 84.7152 162.05 72.6825 176.257 65.4212 190.464 65.1323 204.671 64.843 218.878 78.2668 233.085 82.9801 247.292 87.693 261.499 84.5819 275.706 93.4116 289.913 102.241 304.119 147.982 318.326 135.958 332.533 123.932 346.74 32.5402 360.947 21.2615 375.154 9.98242 389.361 51.5061 403.568 68.2837 417.775 85.061 431.982 119.152 446.189 121.927 460.395 124.702 474.602 92.7906 488.809 84.9338 503.016 77.0767 517.223 69.1248 531.43 74.7851 545.636 80.445 559.844 111.586 574.051 118.894 588.258 126.201 602.465 121.049 616.672 118.63 630.878 116.211 645.085 111.71 659.292 104.382 673.499 97.0536 687.706 71.8656 701.913 74.6601 716.119 77.4542 730.326 111.012 744.533 121.147 758.74 131.282 772.947 134.861 787.154 135.473 801.361 136.084 815.568 125.189 829.775 124.815 843.982 124.441 858.188 133.696 872.395 133.229 886.602 132.761 900.809 126.047 915.016 122.008 929.223 117.97 943.43 108.32 957.637 108.997 971.844 109.673 986.051 125.646 1000.26 126.069 1014.46 126.491 1028.67 111.94 1042.88 111.533 1057.08 111.125 1071.29 126.131 1085.5 123.624 1099.71 121.118 1113.91 95.4496 1128.12 96.4946 1142.33 97.5395 1156.53 126.172 1170.74 129.894 1184.95 133.617 1199.15 119.58 1213.36 118.829 1227.57 118.077 1248.88 124.292 1255.98 125.384" stroke="#000000" stroke-width="9" stroke-linecap="round" stroke-linejoin="round" stroke-miterlimit="10" fill="none"/></g></g></g><g><path d="M1828.5 20511.9C1842.71 20524.7 1856.91 20535.8 1871.12 20550.1 1885.33 20564.5 1899.53 20606.6 1913.74 20598.1 1927.95 20589.6 1942.16 20528 1956.36 20499 1970.57 20470 1984.78 20418.5 1998.98 20424.1 2013.19 20429.7 2027.4 20515.2 2041.6 20532.7 2051.36 20544.7 2074.47 20510 2084.22 20529.1 2098.43 20556.9 2112.64 20697.1 2126.84 20699.3 2141.05 20701.5 2155.26 20579.8 2169.47 20542.4 2183.65 20505.1 2197.9 20469.9 2212.09 20474.9 2226.29 20479.8 2240.5 20563.1 2254.71 20572.1 2268.91 20581.1 2283.12 20536.1 2297.33 20528.9 2311.53 20521.7 2325.74 20524.1 2339.95 20528.9 2354.15 20533.7 2368.36 20547.7 2382.57 20557.7 2396.78 20567.7 2410.98 20586 2425.19 20588.9 2439.4 20591.9 2453.6 20591.7 2467.81 20575.3 2482.02 20559 2496.22 20499.8 2510.43 20491 2524.64 20482.1 2538.84 20516 2553.05 20522.4 2567.26 20528.9 2581.47 20519 2595.67 20529.6 2609.88 20540.1 2624.09 20577.4 2638.29 20585.7 2652.5 20593.9 2666.71 20587 2680.91 20579 2695.12 20571 2709.33 20547.6 2723.53 20537.6 2737.74 20527.7 2751.95 20518.1 2766.16 20519.3 2780.36 20520.5 2794.57 20540.9 2808.78 20544.7 2822.98 20548.5 2837.19 20541.9 2851.4 20542.1 2865.6 20542.2 2879.81 20546 2894.02 20545.6 2908.22 20545.2 2922.43 20542.8 2936.64 20539.6 2950.84 20536.3 2965.05 20522.5 2979.26 20526.2 2993.47 20529.9 3007.67 20558.2 3021.88 20561.9 3036.09 20565.5 3057.4 20550.2 3064.5 20547.8" stroke="#FFB226" stroke-width="9.16667" stroke-linecap="round" stroke-linejoin="round" stroke-miterlimit="10" fill="none"/></g><g><path d="M1828.5 20466.5C1842.71 20468.5 1856.91 20461.7 1871.12 20472.6 1885.33 20483.5 1899.53 20530.7 1913.74 20531.8 1927.95 20532.9 1942.16 20491.3 1956.36 20479.2 1970.57 20467.2 1984.78 20459.9 1998.98 20459.7 2013.19 20459.4 2027.4 20472.8 2041.6 20477.5 2055.81 20482.2 2070.02 20479.1 2084.22 20487.9 2098.43 20496.8 2112.64 20542.5 2126.84 20530.5 2141.05 20518.4 2155.26 20427.1 2169.47 20415.8 2183.67 20404.5 2197.88 20446 2212.09 20462.8 2226.29 20479.6 2240.5 20513.7 2254.71 20516.4 2268.91 20519.2 2283.12 20487.3 2297.33 20479.5 2311.53 20471.6 2325.74 20463.6 2339.95 20469.3 2354.15 20475 2368.36 20506.1 2382.57 20513.4 2396.78 20520.7 2410.98 20515.6 2425.19 20513.1 2439.4 20510.7 2453.6 20506.2 2467.81 20498.9 2482.02 20491.6 2496.22 20466.4 2510.43 20469.2 2524.64 20472 2538.84 20505.5 2553.05 20515.7 2567.26 20525.8 2581.47 20529.4 2595.67 20530 2609.88 20530.6 2624.09 20519.7 2638.29 20519.3 2652.5 20519 2666.71 20528.2 2680.91 20527.7 2695.12 20527.3 2709.33 20520.6 2723.53 20516.5 2737.74 20512.5 2751.95 20502.8 2766.16 20503.5 2780.36 20504.2 2794.57 20520.2 2808.78 20520.6 2822.98 20521 2837.19 20506.5 2851.4 20506.1 2865.6 20505.6 2879.81 20520.6 2894.02 20518.1 2908.22 20515.6 2922.43 20490 2936.64 20491 2950.84 20492.1 2965.05 20520.7 2979.26 20524.4 2993.47 20528.1 3007.67 20514.1 3021.88 20513.3 3036.09 20512.6 3057.4 20518.8 3064.5 20519.9" stroke="#000000" stroke-width="9.16667" stroke-linecap="round" stroke-linejoin="round" stroke-miterlimit="10" fill="none"/></g><g><text font-family="Inter,Inter_MSFontService,sans-serif" font-weight="400" font-size="32" transform="matrix(1 0 0 1 1755.7 20969)">80</text></g><g><text font-family="Inter,Inter_MSFontService,sans-serif" font-weight="400" font-size="32" transform="matrix(1 0 0 1 1755.47 20751)">90</text></g><g><text font-family="Inter,Inter_MSFontService,sans-serif" font-weight="400" font-size="32" transform="matrix(1 0 0 1 1740.53 20532)">100</text></g><g><text font-family="Inter,Inter_MSFontService,sans-serif" font-weight="400" font-size="32" transform="matrix(1 0 0 1 1745.68 20314)">110</text></g><g><text font-family="Inter,Inter_MSFontService,sans-serif" font-weight="400" font-size="32" transform="matrix(0.707107 -0.707107 0.707107 0.707107 1803.48 21035)">3/1</text></g><g><text font-family="Inter,Inter_MSFontService,sans-serif" font-weight="400" font-size="32" transform="matrix(0.707107 -0.707107 0.707107 0.707107 1914.44 21052)">3/22</text></g><g><text font-family="Inter,Inter_MSFontService,sans-serif" font-weight="400" font-size="32" transform="matrix(0.707107 -0.707107 0.707107 0.707107 2045.39 21049)">4/12</text></g><g><text font-family="Inter,Inter_MSFontService,sans-serif" font-weight="400" font-size="32" transform="matrix(0.707107 -0.707107 0.707107 0.707107 2183.87 21038)">5/3</text></g><g><text font-family="Inter,Inter_MSFontService,sans-serif" font-weight="400" font-size="32" transform="matrix(0.707107 -0.707107 0.707107 0.707107 2297.9 21052)">5/24</text></g><g><text font-family="Inter,Inter_MSFontService,sans-serif" font-weight="400" font-size="32" transform="matrix(0.707107 -0.707107 0.707107 0.707107 2428.62 21049)">6/14</text></g><g><text font-family="Inter,Inter_MSFontService,sans-serif" font-weight="400" font-size="32" transform="matrix(0.707107 -0.707107 0.707107 0.707107 2569.02 21037)">7/5</text></g><g><text font-family="Inter,Inter_MSFontService,sans-serif" font-weight="400" font-size="32" transform="matrix(0.707107 -0.707107 0.707107 0.707107 2682.82 21051)">7/26</text></g><g><text font-family="Inter,Inter_MSFontService,sans-serif" font-weight="400" font-size="32" transform="matrix(0.707107 -0.707107 0.707107 0.707107 2812.86 21049)">8/16</text></g><g><text font-family="Inter,Inter_MSFontService,sans-serif" font-weight="400" font-size="32" transform="matrix(0.707107 -0.707107 0.707107 0.707107 2951.11 21038)">9/6</text></g><g><text font-family="Inter,Inter_MSFontService,sans-serif" font-weight="400" font-size="32" transform="matrix(0.707107 -0.707107 0.707107 0.707107 3066.47 21051)">9/27</text></g><g><text font-family="Inter,Inter_MSFontService,sans-serif" font-weight="400" font-size="32" transform="matrix(0.707107 -0.707107 0.707107 0.707107 3185.95 21059)">10/18</text></g><g><text font-family="Inter,Inter_MSFontService,sans-serif" font-weight="400" font-size="32" transform="matrix(0.707107 -0.707107 0.707107 0.707107 3328.01 21045)">11/8</text></g><g><text font-family="Inter,Inter_MSFontService,sans-serif" font-weight="400" font-size="32" transform="matrix(0.707107 -0.707107 0.707107 0.707107 3442.01 21059)">11/29</text></g><g><text font-family="Inter,Inter_MSFontService,sans-serif" font-weight="400" font-size="32" transform="matrix(0.707107 -0.707107 0.707107 0.707107 3566.67 21062)">12/20</text></g><g><text font-family="Inter Medium,Inter Medium_MSFontService,sans-serif" font-weight="700" font-size="46" transform="matrix(1 0 0 1 1742.02 20145)">U.S. Hotel Occupancy and ADR Recovery Levels</text></g><g><path d="M1733.5 20240.5 1821.5 20240.5" stroke="#FFB226" stroke-width="9.16667" stroke-linecap="round" stroke-linejoin="round" stroke-miterlimit="10" fill="none" fill-rule="evenodd"/></g><g><text font-family="Inter Medium,Inter Medium_MSFontService,sans-serif" font-weight="500" font-size="37" transform="matrix(1 0 0 1 1830.61 20252)">Occ Index</text></g><g><path d="M2057.5 20240.5 2145.5 20240.5" stroke="#000000" stroke-width="9.16667" stroke-linecap="round" stroke-linejoin="round" stroke-miterlimit="10" fill="none" fill-rule="evenodd"/></g><g><text font-family="Inter Medium,Inter Medium_MSFontService,sans-serif" font-weight="500" font-size="37" transform="matrix(1 0 0 1 2155.16 20252)">ADR Index</text></g><rect x="1658.5" y="20056.5" width="2103" height="1056" stroke="#D9D9D9" stroke-width="3.4375" stroke-linejoin="round" stroke-miterlimit="10" fill="none"/><g><text fill="#7F7F7F" font-family="Inter,Inter_MSFontService,sans-serif" font-weight="400" font-size="32" transform="matrix(1 0 0 1 1739.76 20199)">YOY, Source: STR, str.com</text></g></g></svg>