<svg width="2106" height="1059" xmlns="http://www.w3.org/2000/svg" xmlns:xlink="http://www.w3.org/1999/xlink" xml:space="preserve" overflow="hidden"><defs><filter id="fx0" x="-10%" y="-10%" width="120%" height="120%" filterUnits="userSpaceOnUse" primitiveUnits="userSpaceOnUse"><feComponentTransfer color-interpolation-filters="sRGB"><feFuncR type="discrete" tableValues="0 0"/><feFuncG type="discrete" tableValues="0 0"/><feFuncB type="discrete" tableValues="0 0"/><feFuncA type="linear" slope="0.501961" intercept="0"/></feComponentTransfer><feGaussianBlur stdDeviation="4.58333 4.58333"/></filter><filter id="fx1" x="-10%" y="-10%" width="120%" height="120%" filterUnits="userSpaceOnUse" primitiveUnits="userSpaceOnUse"><feComponentTransfer color-interpolation-filters="sRGB"><feFuncR type="discrete" tableValues="0 0"/><feFuncG type="discrete" tableValues="0 0"/><feFuncB type="discrete" tableValues="0 0"/><feFuncA type="linear" slope="0.501961" intercept="0"/></feComponentTransfer><feGaussianBlur stdDeviation="4.58333 4.58333"/></filter><clipPath id="clip2"><rect x="1657" y="20055" width="2106" height="1059"/></clipPath><clipPath id="clip3"><rect x="1825" y="20303" width="1885" height="659"/></clipPath><clipPath id="clip4"><rect x="1825" y="20303" width="1885" height="659"/></clipPath></defs><g clip-path="url(#clip2)" transform="translate(-1657 -20055)"><rect x="1658" y="20056" width="2103" height="1056" fill="#FFFFFF"/><g><rect x="1825" y="20304" width="1882" height="655" fill="#F2F2F2"/></g><g><path d="M1825.5 20522.5 3707.5 20522.5" stroke="#D9D9D9" stroke-width="3.4375" stroke-linejoin="round" stroke-miterlimit="10" fill="none" fill-rule="evenodd"/></g><g clip-path="url(#clip3)"><g filter="url(#fx0)" transform="translate(1815 20411)"><g><path d="M19.9817 107.417C34.1901 120.147 48.3984 131.249 62.6068 145.609 76.8148 159.969 91.0232 202.103 105.232 193.58 119.44 185.056 133.648 123.464 147.857 94.4669 162.065 65.4697 176.273 13.9824 190.482 19.5973 204.69 25.2121 218.898 110.661 233.107 128.156 242.86 140.166 265.978 105.504 275.732 124.567 289.94 152.334 304.148 292.54 318.357 294.761 332.565 296.983 346.773 175.296 360.982 137.896 375.166 100.559 389.422 65.4245 403.607 70.3606 417.815 75.3047 432.023 158.553 446.232 167.561 460.44 176.569 474.648 131.606 488.857 124.409 503.065 117.212 517.273 119.582 531.482 124.38 545.69 129.179 559.898 143.198 574.107 153.202 588.315 163.205 602.523 181.465 616.732 184.401 630.94 187.337 645.148 187.146 659.357 170.819 673.565 154.492 687.773 95.258 701.982 86.4411 716.19 77.6242 730.398 111.482 744.606 117.918 758.814 124.353 773.023 114.517 787.232 125.055 801.44 135.593 815.648 172.908 829.857 181.144 844.065 189.379 858.273 182.474 872.482 174.469 886.69 166.463 900.898 143.06 915.107 133.109 929.315 123.159 943.523 113.582 957.732 114.765 971.94 115.948 986.148 136.412 1000.36 140.208 1014.56 144.003 1035.88 137.983 1042.98 137.538" stroke="#FFB226" stroke-width="9" stroke-linecap="round" stroke-linejoin="round" stroke-miterlimit="10" fill="none"/></g></g></g><g clip-path="url(#clip4)"><g filter="url(#fx1)" transform="translate(1815 20401)"><g><path d="M19.9817 71.9686C34.1901 74.0182 48.3984 67.2247 62.6068 78.118 76.8148 89.011 91.0232 136.228 105.232 137.328 119.44 138.427 133.648 96.7475 147.857 84.7152 162.065 72.6825 176.273 65.4212 190.482 65.1323 204.69 64.843 218.898 78.2668 233.107 82.9801 247.315 87.693 261.523 84.5819 275.732 93.4116 289.94 102.241 304.148 147.982 318.357 135.958 332.565 123.932 346.773 32.5402 360.982 21.2615 375.19 9.98242 389.398 51.5061 403.607 68.2837 417.815 85.061 432.023 119.152 446.232 121.927 460.44 124.702 474.648 92.7906 488.857 84.9338 503.065 77.0767 517.273 69.1248 531.482 74.7851 545.69 80.445 559.898 111.586 574.107 118.894 588.315 126.201 602.523 121.049 616.732 118.63 630.94 116.211 645.148 111.71 659.357 104.382 673.565 97.0536 687.773 71.8656 701.982 74.6601 716.19 77.4542 730.398 111.012 744.606 121.147 758.814 131.282 773.023 134.861 787.232 135.473 801.44 136.084 815.648 125.189 829.857 124.815 844.065 124.441 858.273 133.696 872.482 133.229 886.69 132.761 900.898 126.047 915.107 122.008 929.315 117.97 943.523 108.32 957.732 108.997 971.94 109.673 986.148 125.646 1000.36 126.069 1014.56 126.491 1035.88 113.955 1042.98 111.533" stroke="#000000" stroke-width="9" stroke-linecap="round" stroke-linejoin="round" stroke-miterlimit="10" fill="none"/></g></g></g><g><path d="M1828.5 20511.9C1842.71 20524.7 1856.92 20535.8 1871.12 20550.1 1885.33 20564.5 1899.54 20606.6 1913.75 20598.1 1927.96 20589.6 1942.17 20528 1956.37 20499 1970.58 20470 1984.79 20418.5 1999 20424.1 2013.21 20429.7 2027.42 20515.2 2041.62 20532.7 2051.38 20544.7 2074.5 20510 2084.25 20529.1 2098.46 20556.9 2112.67 20697.1 2126.87 20699.3 2141.08 20701.5 2155.29 20579.8 2169.5 20542.4 2183.68 20505.1 2197.94 20469.9 2212.12 20474.9 2226.33 20479.8 2240.54 20563.1 2254.75 20572.1 2268.96 20581.1 2283.17 20536.1 2297.38 20528.9 2311.58 20521.7 2325.79 20524.1 2340 20528.9 2354.21 20533.7 2368.42 20547.7 2382.62 20557.7 2396.83 20567.7 2411.04 20586 2425.25 20588.9 2439.46 20591.9 2453.67 20591.7 2467.87 20575.3 2482.08 20559 2496.29 20499.8 2510.5 20491 2524.71 20482.1 2538.92 20516 2553.12 20522.4 2567.33 20528.9 2581.54 20519 2595.75 20529.6 2609.96 20540.1 2624.17 20577.4 2638.38 20585.7 2652.58 20593.9 2666.79 20587 2681 20579 2695.21 20571 2709.42 20547.6 2723.62 20537.6 2737.83 20527.7 2752.04 20518.1 2766.25 20519.3 2780.46 20520.5 2794.67 20540.9 2808.87 20544.7 2823.08 20548.5 2844.4 20542.5 2851.5 20542.1" stroke="#FFB226" stroke-width="9.16667" stroke-linecap="round" stroke-linejoin="round" stroke-miterlimit="10" fill="none"/></g><g><path d="M1828.5 20466.5C1842.71 20468.5 1856.92 20461.7 1871.12 20472.6 1885.33 20483.5 1899.54 20530.7 1913.75 20531.8 1927.96 20532.9 1942.17 20491.3 1956.37 20479.2 1970.58 20467.2 1984.79 20459.9 1999 20459.7 2013.21 20459.4 2027.42 20472.8 2041.62 20477.5 2055.83 20482.2 2070.04 20479.1 2084.25 20487.9 2098.46 20496.8 2112.67 20542.5 2126.87 20530.5 2141.08 20518.4 2155.29 20427.1 2169.5 20415.8 2183.71 20404.5 2197.92 20446 2212.12 20462.8 2226.33 20479.6 2240.54 20513.7 2254.75 20516.4 2268.96 20519.2 2283.17 20487.3 2297.38 20479.5 2311.58 20471.6 2325.79 20463.6 2340 20469.3 2354.21 20475 2368.42 20506.1 2382.62 20513.4 2396.83 20520.7 2411.04 20515.6 2425.25 20513.1 2439.46 20510.7 2453.67 20506.2 2467.87 20498.9 2482.08 20491.6 2496.29 20466.4 2510.5 20469.2 2524.71 20472 2538.92 20505.5 2553.12 20515.7 2567.33 20525.8 2581.54 20529.4 2595.75 20530 2609.96 20530.6 2624.17 20519.7 2638.38 20519.3 2652.58 20519 2666.79 20528.2 2681 20527.7 2695.21 20527.3 2709.42 20520.6 2723.62 20516.5 2737.83 20512.5 2752.04 20502.8 2766.25 20503.5 2780.46 20504.2 2794.67 20520.2 2808.87 20520.6 2823.08 20521 2844.4 20508.5 2851.5 20506.1" stroke="#000000" stroke-width="9.16667" stroke-linecap="round" stroke-linejoin="round" stroke-miterlimit="10" fill="none"/></g><g><text font-family="Inter,Inter_MSFontService,sans-serif" font-weight="400" font-size="32" transform="matrix(1 0 0 1 1755.7 20969)">80</text></g><g><text font-family="Inter,Inter_MSFontService,sans-serif" font-weight="400" font-size="32" transform="matrix(1 0 0 1 1755.47 20751)">90</text></g><g><text font-family="Inter,Inter_MSFontService,sans-serif" font-weight="400" font-size="32" transform="matrix(1 0 0 1 1740.53 20532)">100</text></g><g><text font-family="Inter,Inter_MSFontService,sans-serif" font-weight="400" font-size="32" transform="matrix(1 0 0 1 1745.68 20314)">110</text></g><g><text font-family="Inter,Inter_MSFontService,sans-serif" font-weight="400" font-size="32" transform="matrix(0.707107 -0.707107 0.707107 0.707107 1803.48 21035)">3/1</text></g><g><text font-family="Inter,Inter_MSFontService,sans-serif" font-weight="400" font-size="32" transform="matrix(0.707107 -0.707107 0.707107 0.707107 1914.44 21052)">3/22</text></g><g><text font-family="Inter,Inter_MSFontService,sans-serif" font-weight="400" font-size="32" transform="matrix(0.707107 -0.707107 0.707107 0.707107 2045.39 21049)">4/12</text></g><g><text font-family="Inter,Inter_MSFontService,sans-serif" font-weight="400" font-size="32" transform="matrix(0.707107 -0.707107 0.707107 0.707107 2183.87 21038)">5/3</text></g><g><text font-family="Inter,Inter_MSFontService,sans-serif" font-weight="400" font-size="32" transform="matrix(0.707107 -0.707107 0.707107 0.707107 2297.9 21052)">5/24</text></g><g><text font-family="Inter,Inter_MSFontService,sans-serif" font-weight="400" font-size="32" transform="matrix(0.707107 -0.707107 0.707107 0.707107 2428.62 21049)">6/14</text></g><g><text font-family="Inter,Inter_MSFontService,sans-serif" font-weight="400" font-size="32" transform="matrix(0.707107 -0.707107 0.707107 0.707107 2569.02 21037)">7/5</text></g><g><text font-family="Inter,Inter_MSFontService,sans-serif" font-weight="400" font-size="32" transform="matrix(0.707107 -0.707107 0.707107 0.707107 2682.82 21051)">7/26</text></g><g><text font-family="Inter,Inter_MSFontService,sans-serif" font-weight="400" font-size="32" transform="matrix(0.707107 -0.707107 0.707107 0.707107 2812.86 21049)">8/16</text></g><g><text font-family="Inter,Inter_MSFontService,sans-serif" font-weight="400" font-size="32" transform="matrix(0.707107 -0.707107 0.707107 0.707107 2951.11 21038)">9/6</text></g><g><text font-family="Inter,Inter_MSFontService,sans-serif" font-weight="400" font-size="32" transform="matrix(0.707107 -0.707107 0.707107 0.707107 3066.47 21051)">9/27</text></g><g><text font-family="Inter,Inter_MSFontService,sans-serif" font-weight="400" font-size="32" transform="matrix(0.707107 -0.707107 0.707107 0.707107 3185.95 21059)">10/18</text></g><g><text font-family="Inter,Inter_MSFontService,sans-serif" font-weight="400" font-size="32" transform="matrix(0.707107 -0.707107 0.707107 0.707107 3328.01 21045)">11/8</text></g><g><text font-family="Inter,Inter_MSFontService,sans-serif" font-weight="400" font-size="32" transform="matrix(0.707107 -0.707107 0.707107 0.707107 3442.01 21059)">11/29</text></g><g><text font-family="Inter,Inter_MSFontService,sans-serif" font-weight="400" font-size="32" transform="matrix(0.707107 -0.707107 0.707107 0.707107 3566.67 21062)">12/20</text></g><g><text font-family="Inter Medium,Inter Medium_MSFontService,sans-serif" font-weight="700" font-size="46" transform="matrix(1 0 0 1 1742.02 20145)">U.S. Hotel Occupancy and ADR Recovery Levels</text></g><g><path d="M1733.5 20240.5 1821.5 20240.5" stroke="#FFB226" stroke-width="9.16667" stroke-linecap="round" stroke-linejoin="round" stroke-miterlimit="10" fill="none" fill-rule="evenodd"/></g><g><text font-family="Inter Medium,Inter Medium_MSFontService,sans-serif" font-weight="500" font-size="37" transform="matrix(1 0 0 1 1830.61 20252)">Occ Index</text></g><g><path d="M2057.5 20240.5 2145.5 20240.5" stroke="#000000" stroke-width="9.16667" stroke-linecap="round" stroke-linejoin="round" stroke-miterlimit="10" fill="none" fill-rule="evenodd"/></g><g><text font-family="Inter Medium,Inter Medium_MSFontService,sans-serif" font-weight="500" font-size="37" transform="matrix(1 0 0 1 2155.16 20252)">ADR Index</text></g><rect x="1658.5" y="20056.5" width="2103" height="1056" stroke="#D9D9D9" stroke-width="3.4375" stroke-linejoin="round" stroke-miterlimit="10" fill="none"/><g><text fill="#7F7F7F" font-family="Inter,Inter_MSFontService,sans-serif" font-weight="400" font-size="32" transform="matrix(1 0 0 1 1739.76 20199)">YOY, Source: STR, str.com</text></g></g></svg>