<svg width="2117" height="1094" xmlns="http://www.w3.org/2000/svg" xmlns:xlink="http://www.w3.org/1999/xlink" xml:space="preserve" overflow="hidden"><defs><filter id="fx0" x="-10%" y="-10%" width="120%" height="120%" filterUnits="userSpaceOnUse" primitiveUnits="userSpaceOnUse"><feComponentTransfer color-interpolation-filters="sRGB"><feFuncR type="discrete" tableValues="0 0"/><feFuncG type="discrete" tableValues="0 0"/><feFuncB type="discrete" tableValues="0 0"/><feFuncA type="linear" slope="0.501961" intercept="0"/></feComponentTransfer><feGaussianBlur stdDeviation="4.58333 4.58333"/></filter><filter id="fx1" x="-10%" y="-10%" width="120%" height="120%" filterUnits="userSpaceOnUse" primitiveUnits="userSpaceOnUse"><feComponentTransfer color-interpolation-filters="sRGB"><feFuncR type="discrete" tableValues="0 0"/><feFuncG type="discrete" tableValues="0 0"/><feFuncB type="discrete" tableValues="0 0"/><feFuncA type="linear" slope="0.501961" intercept="0"/></feComponentTransfer><feGaussianBlur stdDeviation="4.58333 4.58333"/></filter><clipPath id="clip2"><rect x="1820" y="24065" width="2117" height="1094"/></clipPath><clipPath id="clip3"><rect x="1989" y="24322" width="1895" height="680"/></clipPath><clipPath id="clip4"><rect x="1989" y="24322" width="1895" height="680"/></clipPath></defs><g clip-path="url(#clip2)" transform="translate(-1820 -24065)"><rect x="1821" y="24066" width="2114" height="1091" fill="#FFFFFF"/><g><rect x="1989" y="24322" width="1892" height="677" fill="#FFFFFF"/></g><g><path d="M1989.5 24660.5 3880.5 24660.5" stroke="#C00000" stroke-width="3.4375" stroke-linejoin="round" stroke-miterlimit="10" fill="none" fill-rule="evenodd"/></g><g clip-path="url(#clip3)"><g filter="url(#fx0)" transform="translate(1981 24505)"><g><path d="M19.9817 145.498C45.048 137.745 70.1147 126.79 95.1814 122.239 120.248 117.688 145.315 118.965 170.382 118.191 195.448 117.415 220.515 96.1848 245.582 117.588 270.648 138.992 295.715 236.24 320.782 246.611 345.848 256.982 370.915 217.375 395.982 179.815 421.048 142.255 446.115 35.5205 471.182 21.2516 496.248 6.98242 521.315 73.7821 546.382 94.2014 571.448 114.62 596.515 133.38 621.582 143.767 646.649 154.155 671.715 157.722 696.782 156.526 721.849 155.33 746.915 137.388 771.982 136.59 797.048 135.792 822.115 153.09 847.182 151.739 872.248 150.388 897.315 130.601 922.382 128.485 947.449 126.369 972.515 138.837 997.582 139.04 1022.65 139.243 1047.72 129.118 1072.78 129.706 1097.85 130.294 1135.45 140.424 1147.98 142.568" stroke="#FFB226" stroke-width="9" stroke-linecap="round" stroke-linejoin="round" stroke-miterlimit="10" fill="none"/></g></g></g><g clip-path="url(#clip4)"><g filter="url(#fx1)" transform="translate(1981 24500)"><g><path d="M19.9817 104.836C45.048 106.687 70.1147 105.981 95.1814 110.39 120.248 114.799 145.315 136.878 170.382 131.29 195.448 125.702 220.515 70.8709 245.582 76.8603 270.648 82.8493 295.715 156.469 320.782 167.226 345.848 177.983 370.915 157.438 395.982 141.402 421.048 125.367 446.115 79.1914 471.182 71.0112 496.248 62.8306 521.315 82.2466 546.382 92.3198 571.448 102.393 596.515 124.437 621.582 131.449 646.649 138.461 671.715 139.757 696.782 134.394 721.849 129.031 746.915 104.85 771.982 99.2712 797.048 93.6918 822.115 102.684 847.182 100.918 872.248 99.1511 897.315 89.5599 922.382 88.672 947.449 87.7837 972.515 97.3247 997.582 95.5901 1022.65 93.8552 1047.72 90.8639 1072.78 78.2626 1097.85 65.6614 1135.45 29.6955 1147.98 19.9824" stroke="#000000" stroke-width="9" stroke-linecap="round" stroke-linejoin="round" stroke-miterlimit="10" fill="none"/></g></g></g><g><path d="M1994.5 24644C2019.57 24636.3 2044.63 24625.3 2069.7 24620.8 2094.77 24616.2 2119.83 24617.5 2144.9 24616.7 2169.97 24615.9 2195.03 24594.7 2220.1 24616.1 2245.17 24637.5 2270.23 24734.8 2295.3 24745.1 2320.37 24755.5 2345.43 24715.9 2370.5 24678.3 2395.57 24640.8 2420.63 24534 2445.7 24519.8 2470.77 24505.5 2495.83 24572.3 2520.9 24592.7 2545.97 24613.1 2571.03 24631.9 2596.1 24642.3 2621.17 24652.7 2646.23 24656.2 2671.3 24655 2696.37 24653.8 2721.43 24635.9 2746.5 24635.1 2771.57 24634.3 2796.63 24651.6 2821.7 24650.3 2846.77 24648.9 2871.83 24629.1 2896.9 24627 2921.97 24624.9 2947.03 24637.4 2972.1 24637.6 2997.17 24637.8 3022.23 24627.6 3047.3 24628.2 3072.37 24628.8 3109.97 24638.9 3122.5 24641.1" stroke="#FFB226" stroke-width="9.16667" stroke-linecap="round" stroke-linejoin="round" stroke-miterlimit="10" fill="none"/></g><g><path d="M1994.5 24598.4C2019.57 24600.2 2044.63 24599.5 2069.7 24603.9 2094.77 24608.3 2119.83 24630.4 2144.9 24624.8 2169.97 24619.2 2195.03 24564.4 2220.1 24570.4 2245.17 24576.4 2270.23 24650 2295.3 24660.7 2320.37 24671.5 2345.43 24651 2370.5 24634.9 2395.57 24618.9 2420.63 24572.7 2445.7 24564.5 2470.77 24556.3 2495.83 24575.8 2520.9 24585.8 2545.97 24595.9 2571.03 24618 2596.1 24625 2621.17 24632 2646.23 24633.3 2671.3 24627.9 2696.37 24622.5 2721.43 24598.4 2746.5 24592.8 2771.57 24587.2 2796.63 24596.2 2821.7 24594.4 2846.77 24592.7 2871.83 24583.1 2896.9 24582.2 2921.97 24581.3 2947.03 24590.8 2972.1 24589.1 2997.17 24587.4 3022.23 24584.4 3047.3 24571.8 3072.37 24559.2 3109.97 24523.2 3122.5 24513.5" stroke="#000000" stroke-width="9.16667" stroke-linecap="round" stroke-linejoin="round" stroke-miterlimit="10" fill="none"/></g><g><text font-family="Inter,Inter_MSFontService,sans-serif" font-weight="400" font-size="32" transform="matrix(1 0 0 1 1919.66 25009)">80</text></g><g><text font-family="Inter,Inter_MSFontService,sans-serif" font-weight="400" font-size="32" transform="matrix(1 0 0 1 1919.43 24840)">90</text></g><g><text font-family="Inter,Inter_MSFontService,sans-serif" font-weight="400" font-size="32" transform="matrix(1 0 0 1 1904.49 24671)">100</text></g><g><text font-family="Inter,Inter_MSFontService,sans-serif" font-weight="400" font-size="32" transform="matrix(1 0 0 1 1909.64 24501)">110</text></g><g><text font-family="Inter,Inter_MSFontService,sans-serif" font-weight="400" font-size="32" transform="matrix(1 0 0 1 1905.13 24332)">120</text></g><g><text font-family="Inter,Inter_MSFontService,sans-serif" font-weight="400" font-size="32" transform="matrix(0.707107 -0.707107 0.707107 0.707107 1967.35 25077)">3/7</text></g><g><text font-family="Inter,Inter_MSFontService,sans-serif" font-weight="400" font-size="32" transform="matrix(0.707107 -0.707107 0.707107 0.707107 2030.42 25089)">3/14</text></g><g><text font-family="Inter,Inter_MSFontService,sans-serif" font-weight="400" font-size="32" transform="matrix(0.707107 -0.707107 0.707107 0.707107 2106.49 25088)">3/21</text></g><g><text font-family="Inter,Inter_MSFontService,sans-serif" font-weight="400" font-size="32" transform="matrix(0.707107 -0.707107 0.707107 0.707107 2178.26 25092)">3/28</text></g><g><text font-family="Inter,Inter_MSFontService,sans-serif" font-weight="400" font-size="32" transform="matrix(0.707107 -0.707107 0.707107 0.707107 2266.5 25079)">4/4</text></g><g><text font-family="Inter,Inter_MSFontService,sans-serif" font-weight="400" font-size="32" transform="matrix(0.707107 -0.707107 0.707107 0.707107 2335.23 25085)">4/11</text></g><g><text font-family="Inter,Inter_MSFontService,sans-serif" font-weight="400" font-size="32" transform="matrix(0.707107 -0.707107 0.707107 0.707107 2407 25089)">4/18</text></g><g><text font-family="Inter,Inter_MSFontService,sans-serif" font-weight="400" font-size="32" transform="matrix(0.707107 -0.707107 0.707107 0.707107 2479.23 25092)">4/25</text></g><g><text font-family="Inter,Inter_MSFontService,sans-serif" font-weight="400" font-size="32" transform="matrix(0.707107 -0.707107 0.707107 0.707107 2569.02 25077)">5/2</text></g><g><text font-family="Inter,Inter_MSFontService,sans-serif" font-weight="400" font-size="32" transform="matrix(0.707107 -0.707107 0.707107 0.707107 2643.82 25078)">5/9</text></g><g><text font-family="Inter,Inter_MSFontService,sans-serif" font-weight="400" font-size="32" transform="matrix(0.707107 -0.707107 0.707107 0.707107 2708.51 25088)">5/16</text></g><g><text font-family="Inter,Inter_MSFontService,sans-serif" font-weight="400" font-size="32" transform="matrix(0.707107 -0.707107 0.707107 0.707107 2780.25 25092)">5/23</text></g><g><text font-family="Inter,Inter_MSFontService,sans-serif" font-weight="400" font-size="32" transform="matrix(0.707107 -0.707107 0.707107 0.707107 2855.02 25092)">5/30</text></g><g><text font-family="Inter,Inter_MSFontService,sans-serif" font-weight="400" font-size="32" transform="matrix(0.707107 -0.707107 0.707107 0.707107 2944.36 25078)">6/6</text></g><g><text font-family="Inter,Inter_MSFontService,sans-serif" font-weight="400" font-size="32" transform="matrix(0.707107 -0.707107 0.707107 0.707107 3008.76 25089)">6/13</text></g><g><text font-family="Inter,Inter_MSFontService,sans-serif" font-weight="400" font-size="32" transform="matrix(0.707107 -0.707107 0.707107 0.707107 3081.05 25092)">6/20</text></g><g><text font-family="Inter,Inter_MSFontService,sans-serif" font-weight="400" font-size="32" transform="matrix(0.707107 -0.707107 0.707107 0.707107 3157.51 25090)">6/27</text></g><g><text font-family="Inter,Inter_MSFontService,sans-serif" font-weight="400" font-size="32" transform="matrix(0.707107 -0.707107 0.707107 0.707107 3246.04 25077)">7/4</text></g><g><text font-family="Inter,Inter_MSFontService,sans-serif" font-weight="400" font-size="32" transform="matrix(0.707107 -0.707107 0.707107 0.707107 3314.76 25084)">7/11</text></g><g><text font-family="Inter,Inter_MSFontService,sans-serif" font-weight="400" font-size="32" transform="matrix(0.707107 -0.707107 0.707107 0.707107 3386.54 25087)">7/18</text></g><g><text font-family="Inter,Inter_MSFontService,sans-serif" font-weight="400" font-size="32" transform="matrix(0.707107 -0.707107 0.707107 0.707107 3458.76 25090)">7/25</text></g><g><text font-family="Inter,Inter_MSFontService,sans-serif" font-weight="400" font-size="32" transform="matrix(0.707107 -0.707107 0.707107 0.707107 3549.93 25074)">8/1</text></g><g><text font-family="Inter,Inter_MSFontService,sans-serif" font-weight="400" font-size="32" transform="matrix(0.707107 -0.707107 0.707107 0.707107 3621.7 25078)">8/8</text></g><g><text font-family="Inter,Inter_MSFontService,sans-serif" font-weight="400" font-size="32" transform="matrix(0.707107 -0.707107 0.707107 0.707107 3686.59 25088)">8/15</text></g><g><text font-family="Inter,Inter_MSFontService,sans-serif" font-weight="400" font-size="32" transform="matrix(0.707107 -0.707107 0.707107 0.707107 3758.69 25091)">8/22</text></g><g><text font-family="Inter,Inter_MSFontService,sans-serif" font-weight="400" font-size="32" transform="matrix(0.707107 -0.707107 0.707107 0.707107 3833.49 25092)">8/29</text></g><g><text font-family="Inter Medium,Inter Medium_MSFontService,sans-serif" font-weight="700" font-size="46" transform="matrix(1 0 0 1 1905.48 24157)">U.S. Hotel Occupancy and ADR Recovery Levels</text></g><g><path d="M1897.5 24256.5 1985.5 24256.5" stroke="#FFB226" stroke-width="9.16667" stroke-linecap="round" stroke-linejoin="round" stroke-miterlimit="10" fill="none" fill-rule="evenodd"/></g><g><text font-family="Inter Medium,Inter Medium_MSFontService,sans-serif" font-weight="500" font-size="37" transform="matrix(1 0 0 1 1994.99 24268)">Occ Index</text></g><g><path d="M2223.5 24256.5 2311.5 24256.5" stroke="#000000" stroke-width="9.16667" stroke-linecap="round" stroke-linejoin="round" stroke-miterlimit="10" fill="none" fill-rule="evenodd"/></g><g><text font-family="Inter Medium,Inter Medium_MSFontService,sans-serif" font-weight="500" font-size="37" transform="matrix(1 0 0 1 2320.73 24268)">ADR Index</text></g><rect x="1821.5" y="24066.5" width="2114" height="1091" stroke="#D9D9D9" stroke-width="3.4375" stroke-linejoin="round" stroke-miterlimit="10" fill="none"/><g><text fill="#7F7F7F" font-family="Inter,Inter_MSFontService,sans-serif" font-weight="400" font-size="32" transform="matrix(1 0 0 1 1903.12 24213)">YOY, Source: STR, str.com</text></g></g></svg>