<svg width="2110" height="1067" xmlns="http://www.w3.org/2000/svg" xmlns:xlink="http://www.w3.org/1999/xlink" xml:space="preserve" overflow="hidden"><defs><filter id="fx0" x="-10%" y="-10%" width="120%" height="120%" filterUnits="userSpaceOnUse" primitiveUnits="userSpaceOnUse"><feComponentTransfer color-interpolation-filters="sRGB"><feFuncR type="discrete" tableValues="0 0"/><feFuncG type="discrete" tableValues="0 0"/><feFuncB type="discrete" tableValues="0 0"/><feFuncA type="linear" slope="0.501961" intercept="0"/></feComponentTransfer><feGaussianBlur stdDeviation="4.58333 4.58333"/></filter><filter id="fx1" x="-10%" y="-10%" width="120%" height="120%" filterUnits="userSpaceOnUse" primitiveUnits="userSpaceOnUse"><feComponentTransfer color-interpolation-filters="sRGB"><feFuncR type="discrete" tableValues="0 0"/><feFuncG type="discrete" tableValues="0 0"/><feFuncB type="discrete" tableValues="0 0"/><feFuncA type="linear" slope="0.501961" intercept="0"/></feComponentTransfer><feGaussianBlur stdDeviation="4.58333 4.58333"/></filter><clipPath id="clip2"><rect x="1813" y="23448" width="2110" height="1067"/></clipPath><clipPath id="clip3"><rect x="1981" y="23699" width="1888" height="663"/></clipPath><clipPath id="clip4"><rect x="1981" y="23699" width="1888" height="663"/></clipPath></defs><g clip-path="url(#clip2)" transform="translate(-1813 -23448)"><rect x="1814" y="23449" width="2107" height="1064" fill="#FFFFFF"/><g><rect x="1982" y="23699" width="1884" height="660" fill="#FFFFFF"/></g><g><path d="M1981.5 23919.5 3866.5 23919.5" stroke="#C00000" stroke-width="3.4375" stroke-linejoin="round" stroke-miterlimit="10" fill="none" fill-rule="evenodd"/></g><g clip-path="url(#clip3)"><g filter="url(#fx0)" transform="translate(1974 23721)"><g><path d="M19.9819 272.117C44.9651 260.806 69.9486 256.919 94.9321 238.184 119.915 219.449 144.898 151.394 169.882 159.706 194.865 168.019 219.849 297.287 244.832 288.059 269.815 278.832 294.798 109.994 319.782 104.34 344.765 98.6864 369.748 239.367 394.732 254.137 419.715 268.906 444.699 198.469 469.682 192.957 494.665 187.446 519.648 202.823 544.632 221.067 569.615 239.312 594.599 308.421 619.582 302.424 644.565 296.427 669.548 210.545 694.532 185.086 719.515 159.627 744.498 157.965 769.482 149.669 794.465 141.373 819.449 126.119 844.432 135.311 869.415 144.502 894.398 196.768 919.382 204.817 944.365 212.866 969.349 192.196 994.332 183.606 1019.32 175.016 1044.3 159.212 1069.28 153.277 1094.27 147.342 1119.25 149.009 1144.23 147.998 1169.22 146.987 1194.2 119.302 1219.18 147.212 1244.17 175.122 1269.15 301.935 1294.13 315.459 1319.11 328.983 1344.1 277.334 1369.08 228.356 1394.07 179.378 1419.05 40.1959 1444.03 21.5893 1469.02 2.98242 1506.49 100.861 1518.98 116.716" stroke="#FFB226" stroke-width="9" stroke-linecap="round" stroke-linejoin="round" stroke-miterlimit="10" fill="none"/></g></g></g><g clip-path="url(#clip4)"><g filter="url(#fx1)" transform="translate(1974 23779)"><g><path d="M19.9819 141.865C44.9651 137.532 69.9486 133.042 94.9321 128.866 119.915 124.69 144.898 99.1656 169.882 116.807 194.865 134.449 219.849 243.982 244.832 234.715 269.815 225.446 294.798 72.9003 319.782 61.199 344.765 49.4977 369.748 153.569 394.732 164.507 419.715 175.444 444.699 126.095 469.682 126.822 494.665 127.549 519.648 166.313 544.632 168.868 569.615 171.423 594.599 152.109 619.582 142.153 644.565 132.197 669.548 115.482 694.532 109.134 719.515 102.786 744.498 108.489 769.482 104.067 794.465 99.6444 819.449 74.9943 844.432 82.6002 869.415 90.2057 894.398 152.575 919.382 149.702 944.365 146.828 969.349 78.2177 994.332 65.3591 1019.32 52.5002 1044.3 66.8408 1069.28 72.5485 1094.27 78.2558 1119.25 106.838 1144.23 99.6038 1169.22 92.3695 1194.2 21.3906 1219.18 29.144 1244.17 36.897 1269.15 132.198 1294.13 146.123 1319.11 160.048 1344.1 133.453 1369.08 112.694 1394.07 91.9356 1419.05 32.1617 1444.03 21.5722 1469.02 10.9824 1506.49 44.5587 1518.98 49.1563" stroke="#000000" stroke-width="9" stroke-linecap="round" stroke-linejoin="round" stroke-miterlimit="10" fill="none"/></g></g></g><g><path d="M1987.5 23986.6C2012.48 23975.3 2037.47 23971.4 2062.45 23952.7 2087.43 23934 2112.42 23865.9 2137.4 23874.2 2162.38 23882.5 2187.37 24011.8 2212.35 24002.6 2237.33 23993.3 2262.32 23824.5 2287.3 23818.9 2312.28 23813.2 2337.27 23953.9 2362.25 23968.7 2387.23 23983.4 2412.22 23913 2437.2 23907.5 2462.18 23902 2487.17 23917.3 2512.15 23935.6 2537.13 23953.8 2562.12 24022.9 2587.1 24016.9 2612.08 24010.9 2637.07 23925.1 2662.05 23899.6 2687.03 23874.1 2712.02 23872.5 2737 23864.2 2761.98 23855.9 2786.97 23840.6 2811.95 23849.8 2836.93 23859 2861.92 23911.3 2886.9 23919.3 2911.88 23927.4 2936.87 23906.7 2961.85 23898.1 2986.83 23889.5 3011.82 23873.7 3036.8 23867.8 3061.78 23861.9 3086.77 23863.5 3111.75 23862.5 3136.73 23861.5 3161.72 23833.8 3186.7 23861.7 3211.68 23889.6 3236.67 24016.5 3261.65 24030 3286.63 24043.5 3311.62 23991.9 3336.6 23942.9 3361.58 23893.9 3386.57 23754.7 3411.55 23736.1 3436.53 23717.5 3474.01 23815.4 3486.5 23831.2" stroke="#FFB226" stroke-width="9.16667" stroke-linecap="round" stroke-linejoin="round" stroke-miterlimit="10" fill="none"/></g><g><path d="M1987.5 23914.4C2012.48 23910 2037.47 23905.6 2062.45 23901.4 2087.43 23897.2 2112.42 23871.7 2137.4 23889.3 2162.38 23907 2187.37 24016.5 2212.35 24007.2 2237.33 23998 2262.32 23845.4 2287.3 23833.7 2312.28 23822 2337.27 23926.1 2362.25 23937 2387.23 23948 2412.22 23898.6 2437.2 23899.3 2462.18 23900.1 2487.17 23938.8 2512.15 23941.4 2537.13 23943.9 2562.12 23924.6 2587.1 23914.7 2612.08 23904.7 2637.07 23888 2662.05 23881.7 2687.03 23875.3 2712.02 23881 2737 23876.6 2761.98 23872.2 2786.97 23847.5 2811.95 23855.1 2836.93 23862.7 2861.92 23925.1 2886.9 23922.2 2911.88 23919.3 2936.87 23850.7 2961.85 23837.9 2986.83 23825 3011.82 23839.4 3036.8 23845.1 3061.78 23850.8 3086.77 23879.4 3111.75 23872.1 3136.73 23864.9 3161.72 23793.9 3186.7 23801.7 3211.68 23809.4 3236.67 23904.7 3261.65 23918.6 3286.63 23932.6 3311.62 23906 3336.6 23885.2 3361.58 23864.5 3386.57 23804.7 3411.55 23794.1 3436.53 23783.5 3474.01 23817.1 3486.5 23821.7" stroke="#000000" stroke-width="9.16667" stroke-linecap="round" stroke-linejoin="round" stroke-miterlimit="10" fill="none"/></g><g><text font-family="Inter,Inter_MSFontService,sans-serif" font-weight="400" font-size="32" transform="matrix(1 0 0 1 1912.06 24369)">80</text></g><g><text font-family="Inter,Inter_MSFontService,sans-serif" font-weight="400" font-size="32" transform="matrix(1 0 0 1 1912.01 24149)">90</text></g><g><text font-family="Inter,Inter_MSFontService,sans-serif" font-weight="400" font-size="32" transform="matrix(1 0 0 1 1898.63 23929)">100</text></g><g><text font-family="Inter,Inter_MSFontService,sans-serif" font-weight="400" font-size="32" transform="matrix(1 0 0 1 1905.82 23709)">110</text></g><g><text font-family="Inter,Inter_MSFontService,sans-serif" font-weight="400" font-size="32" transform="matrix(0.707107 -0.707107 0.707107 0.707107 1950.17 24447)">12/6</text></g><g><text font-family="Inter,Inter_MSFontService,sans-serif" font-weight="400" font-size="32" transform="matrix(0.707107 -0.707107 0.707107 0.707107 2015.95 24456)">12/13</text></g><g><text font-family="Inter,Inter_MSFontService,sans-serif" font-weight="400" font-size="32" transform="matrix(0.707107 -0.707107 0.707107 0.707107 2085.99 24461)">12/20</text></g><g><text font-family="Inter,Inter_MSFontService,sans-serif" font-weight="400" font-size="32" transform="matrix(0.707107 -0.707107 0.707107 0.707107 2162.42 24460)">12/27</text></g><g><text font-family="Inter,Inter_MSFontService,sans-serif" font-weight="400" font-size="32" transform="matrix(0.707107 -0.707107 0.707107 0.707107 2263.87 24433)">1/3</text></g><g><text font-family="Inter,Inter_MSFontService,sans-serif" font-weight="400" font-size="32" transform="matrix(0.707107 -0.707107 0.707107 0.707107 2329.31 24443)">1/10</text></g><g><text font-family="Inter,Inter_MSFontService,sans-serif" font-weight="400" font-size="32" transform="matrix(0.707107 -0.707107 0.707107 0.707107 2405.74 24441)">1/17</text></g><g><text font-family="Inter,Inter_MSFontService,sans-serif" font-weight="400" font-size="32" transform="matrix(0.707107 -0.707107 0.707107 0.707107 2474.26 24448)">1/24</text></g><g><text font-family="Inter,Inter_MSFontService,sans-serif" font-weight="400" font-size="32" transform="matrix(0.707107 -0.707107 0.707107 0.707107 2554.47 24443)">1/31</text></g><g><text font-family="Inter,Inter_MSFontService,sans-serif" font-weight="400" font-size="32" transform="matrix(0.707107 -0.707107 0.707107 0.707107 2635.21 24437)">2/7</text></g><g><text font-family="Inter,Inter_MSFontService,sans-serif" font-weight="400" font-size="32" transform="matrix(0.707107 -0.707107 0.707107 0.707107 2699.13 24448)">2/14</text></g><g><text font-family="Inter,Inter_MSFontService,sans-serif" font-weight="400" font-size="32" transform="matrix(0.707107 -0.707107 0.707107 0.707107 2774.89 24447)">2/21</text></g><g><text font-family="Inter,Inter_MSFontService,sans-serif" font-weight="400" font-size="32" transform="matrix(0.707107 -0.707107 0.707107 0.707107 2845.03 24452)">2/28</text></g><g><text font-family="Inter,Inter_MSFontService,sans-serif" font-weight="400" font-size="32" transform="matrix(0.707107 -0.707107 0.707107 0.707107 2934.85 24437)">3/7</text></g><g><text font-family="Inter,Inter_MSFontService,sans-serif" font-weight="400" font-size="32" transform="matrix(0.707107 -0.707107 0.707107 0.707107 2998.76 24448)">3/14</text></g><g><text font-family="Inter,Inter_MSFontService,sans-serif" font-weight="400" font-size="32" transform="matrix(0.707107 -0.707107 0.707107 0.707107 3074.53 24447)">3/21</text></g><g><text font-family="Inter,Inter_MSFontService,sans-serif" font-weight="400" font-size="32" transform="matrix(0.707107 -0.707107 0.707107 0.707107 3144.67 24452)">3/28</text></g><g><text font-family="Inter,Inter_MSFontService,sans-serif" font-weight="400" font-size="32" transform="matrix(0.707107 -0.707107 0.707107 0.707107 3232.22 24439)">4/4</text></g><g><text font-family="Inter,Inter_MSFontService,sans-serif" font-weight="400" font-size="32" transform="matrix(0.707107 -0.707107 0.707107 0.707107 3303.38 24443)">4/11</text></g><g><text font-family="Inter,Inter_MSFontService,sans-serif" font-weight="400" font-size="32" transform="matrix(0.707107 -0.707107 0.707107 0.707107 3373.52 24448)">4/18</text></g><g><text font-family="Inter,Inter_MSFontService,sans-serif" font-weight="400" font-size="32" transform="matrix(0.707107 -0.707107 0.707107 0.707107 3444.42 24452)">4/25</text></g><g><text font-family="Inter,Inter_MSFontService,sans-serif" font-weight="400" font-size="32" transform="matrix(0.707107 -0.707107 0.707107 0.707107 3534.03 24437)">5/2</text></g><g><text font-family="Inter,Inter_MSFontService,sans-serif" font-weight="400" font-size="32" transform="matrix(0.707107 -0.707107 0.707107 0.707107 3608.75 24438)">5/9</text></g><g><text font-family="Inter,Inter_MSFontService,sans-serif" font-weight="400" font-size="32" transform="matrix(0.707107 -0.707107 0.707107 0.707107 3674.49 24447)">5/16</text></g><g><text font-family="Inter,Inter_MSFontService,sans-serif" font-weight="400" font-size="32" transform="matrix(0.707107 -0.707107 0.707107 0.707107 3744.87 24451)">5/23</text></g><g><text font-family="Inter,Inter_MSFontService,sans-serif" font-weight="400" font-size="32" transform="matrix(0.707107 -0.707107 0.707107 0.707107 3819.36 24452)">5/30</text></g><g><text font-family="Inter Medium,Inter Medium_MSFontService,sans-serif" font-weight="700" font-size="46" transform="matrix(1 0 0 1 1898.49 23539)">U.S. Hotel Occupancy and ADR Recovery Levels</text></g><g><path d="M1889.5 23634.5 1977.5 23634.5" stroke="#FFB226" stroke-width="9.16667" stroke-linecap="round" stroke-linejoin="round" stroke-miterlimit="10" fill="none" fill-rule="evenodd"/></g><g><text font-family="Inter Medium,Inter Medium_MSFontService,sans-serif" font-weight="500" font-size="37" transform="matrix(1 0 0 1 1986.82 23647)">Occ Index</text></g><g><path d="M2214.5 23634.5 2302.5 23634.5" stroke="#000000" stroke-width="9.16667" stroke-linecap="round" stroke-linejoin="round" stroke-miterlimit="10" fill="none" fill-rule="evenodd"/></g><g><text font-family="Inter Medium,Inter Medium_MSFontService,sans-serif" font-weight="500" font-size="37" transform="matrix(1 0 0 1 2312.07 23647)">ADR Index</text></g><rect x="1814.5" y="23449.5" width="2107" height="1064" stroke="#D9D9D9" stroke-width="3.4375" stroke-linejoin="round" stroke-miterlimit="10" fill="none"/><g><text fill="#7F7F7F" font-family="Inter,Inter_MSFontService,sans-serif" font-weight="400" font-size="32" transform="matrix(1 0 0 1 1896.2 23594)">YOY, Source: STR, str.com</text></g></g></svg>