<svg width="2106" height="1064" xmlns="http://www.w3.org/2000/svg" xmlns:xlink="http://www.w3.org/1999/xlink" xml:space="preserve" overflow="hidden"><defs><filter id="fx0" x="-10%" y="-10%" width="120%" height="120%" filterUnits="userSpaceOnUse" primitiveUnits="userSpaceOnUse"><feComponentTransfer color-interpolation-filters="sRGB"><feFuncR type="discrete" tableValues="0 0"/><feFuncG type="discrete" tableValues="0 0"/><feFuncB type="discrete" tableValues="0 0"/><feFuncA type="linear" slope="0.501961" intercept="0"/></feComponentTransfer><feGaussianBlur stdDeviation="4.58333 4.58333"/></filter><filter id="fx1" x="-10%" y="-10%" width="120%" height="120%" filterUnits="userSpaceOnUse" primitiveUnits="userSpaceOnUse"><feComponentTransfer color-interpolation-filters="sRGB"><feFuncR type="discrete" tableValues="0 0"/><feFuncG type="discrete" tableValues="0 0"/><feFuncB type="discrete" tableValues="0 0"/><feFuncA type="linear" slope="0.501961" intercept="0"/></feComponentTransfer><feGaussianBlur stdDeviation="4.58333 4.58333"/></filter><clipPath id="clip2"><rect x="1811" y="23378" width="2106" height="1064"/></clipPath><clipPath id="clip3"><rect x="1978" y="23627" width="1885" height="662"/></clipPath><clipPath id="clip4"><rect x="1978" y="23627" width="1885" height="662"/></clipPath></defs><g clip-path="url(#clip2)" transform="translate(-1811 -23378)"><rect x="1812" y="23379" width="2103" height="1061" fill="#FFFFFF"/><g><rect x="1979" y="23628" width="1882" height="658" fill="#F2F2F2"/></g><g><path d="M1978.5 23847.5 3860.5 23847.5" stroke="#D9D9D9" stroke-width="3.4375" stroke-linejoin="round" stroke-miterlimit="10" fill="none" fill-rule="evenodd"/></g><g clip-path="url(#clip3)"><g filter="url(#fx0)" transform="translate(1976 23734)"><g><path d="M19.9819 186.9C71.6486 175.659 123.315 164.323 174.982 153.176 226.649 142.028 278.315 125.54 329.982 120.013 381.649 114.486 433.315 136.657 484.982 120.013 536.649 103.37 588.315 11.9824 639.982 20.1522 691.649 28.3216 743.315 154.352 794.982 169.031 846.649 183.71 898.315 113.704 949.982 108.226 1001.65 102.748 1053.32 118.031 1104.98 136.164 1156.65 154.296 1208.32 222.982 1259.98 217.023 1311.65 211.063 1363.32 125.706 1414.98 100.403 1466.65 75.1001 1544.15 71.0698 1569.98 65.2034" stroke="#FFB226" stroke-width="9" stroke-linecap="round" stroke-linejoin="round" stroke-miterlimit="10" fill="none"/></g></g></g><g clip-path="url(#clip4)"><g filter="url(#fx1)" transform="translate(1976 23748)"><g><path d="M19.9819 101.186C71.6486 96.8249 123.315 87.3198 174.982 88.103 226.649 88.8861 278.315 102.921 329.982 105.885 381.649 108.849 433.315 120.2 484.982 105.885 536.649 91.5704 588.315 16.9824 639.982 19.9975 691.649 23.0121 743.315 112.966 794.982 123.974 846.649 134.982 898.315 85.3138 949.982 86.0457 1001.65 86.7774 1053.32 125.792 1104.98 128.364 1156.65 130.936 1208.32 111.496 1259.98 101.476 1311.65 91.456 1363.32 74.6322 1414.98 68.2435 1466.65 61.8543 1544.15 63.9932 1569.98 63.1432" stroke="#000000" stroke-width="9" stroke-linecap="round" stroke-linejoin="round" stroke-miterlimit="10" fill="none"/></g></g></g><g><path d="M1989.5 23914.4C2041.17 23903.2 2092.83 23891.8 2144.5 23880.7 2196.17 23869.5 2247.83 23853.1 2299.5 23847.5 2351.17 23842 2402.83 23864.2 2454.5 23847.5 2506.17 23830.9 2557.83 23739.5 2609.5 23747.7 2661.17 23755.8 2712.83 23881.9 2764.5 23896.5 2816.17 23911.2 2867.83 23841.2 2919.5 23835.7 2971.17 23830.3 3022.83 23845.5 3074.5 23863.7 3126.17 23881.8 3177.83 23950.5 3229.5 23944.5 3281.17 23938.6 3332.83 23853.2 3384.5 23827.9 3436.17 23802.6 3513.67 23798.6 3539.5 23792.7" stroke="#FFB226" stroke-width="9.16667" stroke-linecap="round" stroke-linejoin="round" stroke-miterlimit="10" fill="none"/></g><g><path d="M1989.5 23842.7C2041.17 23838.3 2092.83 23828.8 2144.5 23829.6 2196.17 23830.4 2247.83 23844.4 2299.5 23847.4 2351.17 23850.4 2402.83 23861.7 2454.5 23847.4 2506.17 23833.1 2557.83 23758.5 2609.5 23761.5 2661.17 23764.5 2712.83 23854.5 2764.5 23865.5 2816.17 23876.5 2867.83 23826.8 2919.5 23827.6 2971.17 23828.3 3022.83 23867.3 3074.5 23869.9 3126.17 23872.5 3177.83 23853 3229.5 23843 3281.17 23833 3332.83 23816.2 3384.5 23809.8 3436.17 23803.4 3513.67 23805.5 3539.5 23804.7" stroke="#000000" stroke-width="9.16667" stroke-linecap="round" stroke-linejoin="round" stroke-miterlimit="10" fill="none"/></g><g><text font-family="Inter,Inter_MSFontService,sans-serif" font-weight="400" font-size="32" transform="matrix(1 0 0 1 1908.99 24296)">80</text></g><g><text font-family="Inter,Inter_MSFontService,sans-serif" font-weight="400" font-size="32" transform="matrix(1 0 0 1 1908.94 24077)">90</text></g><g><text font-family="Inter,Inter_MSFontService,sans-serif" font-weight="400" font-size="32" transform="matrix(1 0 0 1 1895.56 23857)">100</text></g><g><text font-family="Inter,Inter_MSFontService,sans-serif" font-weight="400" font-size="32" transform="matrix(1 0 0 1 1902.75 23638)">110</text></g><g><text font-family="Inter,Inter_MSFontService,sans-serif" font-weight="400" font-size="32" transform="matrix(0.707107 -0.707107 0.707107 0.707107 1952.81 24374)">12/6</text></g><g><text font-family="Inter,Inter_MSFontService,sans-serif" font-weight="400" font-size="32" transform="matrix(0.707107 -0.707107 0.707107 0.707107 2098.6 24383)">12/13</text></g><g><text font-family="Inter,Inter_MSFontService,sans-serif" font-weight="400" font-size="32" transform="matrix(0.707107 -0.707107 0.707107 0.707107 2248.66 24388)">12/20</text></g><g><text font-family="Inter,Inter_MSFontService,sans-serif" font-weight="400" font-size="32" transform="matrix(0.707107 -0.707107 0.707107 0.707107 2405.1 24387)">12/27</text></g><g><text font-family="Inter,Inter_MSFontService,sans-serif" font-weight="400" font-size="32" transform="matrix(0.707107 -0.707107 0.707107 0.707107 2586.56 24360)">1/3</text></g><g><text font-family="Inter,Inter_MSFontService,sans-serif" font-weight="400" font-size="32" transform="matrix(0.707107 -0.707107 0.707107 0.707107 2732.01 24370)">1/10</text></g><g><text font-family="Inter,Inter_MSFontService,sans-serif" font-weight="400" font-size="32" transform="matrix(0.707107 -0.707107 0.707107 0.707107 2888.45 24368)">1/17</text></g><g><text font-family="Inter,Inter_MSFontService,sans-serif" font-weight="400" font-size="32" transform="matrix(0.707107 -0.707107 0.707107 0.707107 3036.98 24375)">1/24</text></g><g><text font-family="Inter,Inter_MSFontService,sans-serif" font-weight="400" font-size="32" transform="matrix(0.707107 -0.707107 0.707107 0.707107 3197.2 24370)">1/31</text></g><g><text font-family="Inter,Inter_MSFontService,sans-serif" font-weight="400" font-size="32" transform="matrix(0.707107 -0.707107 0.707107 0.707107 3357.95 24364)">2/7</text></g><g><text font-family="Inter,Inter_MSFontService,sans-serif" font-weight="400" font-size="32" transform="matrix(0.707107 -0.707107 0.707107 0.707107 3501.88 24375)">2/14</text></g><g><text font-family="Inter,Inter_MSFontService,sans-serif" font-weight="400" font-size="32" transform="matrix(0.707107 -0.707107 0.707107 0.707107 3657.66 24374)">2/21</text></g><g><text font-family="Inter,Inter_MSFontService,sans-serif" font-weight="400" font-size="32" transform="matrix(0.707107 -0.707107 0.707107 0.707107 3807.81 24379)">2/28</text></g><g><text font-family="Inter Medium,Inter Medium_MSFontService,sans-serif" font-weight="700" font-size="46" transform="matrix(1 0 0 1 1895.56 23468)">U.S. Hotel Occupancy and ADR Recovery Levels</text></g><g><path d="M1886.5 23563.5 1974.5 23563.5" stroke="#FFB226" stroke-width="9.16667" stroke-linecap="round" stroke-linejoin="round" stroke-miterlimit="10" fill="none" fill-rule="evenodd"/></g><g><text font-family="Inter Medium,Inter Medium_MSFontService,sans-serif" font-weight="500" font-size="37" transform="matrix(1 0 0 1 1983.62 23576)">Occ Index</text></g><g><path d="M2211.5 23563.5 2299.5 23563.5" stroke="#000000" stroke-width="9.16667" stroke-linecap="round" stroke-linejoin="round" stroke-miterlimit="10" fill="none" fill-rule="evenodd"/></g><g><text font-family="Inter Medium,Inter Medium_MSFontService,sans-serif" font-weight="500" font-size="37" transform="matrix(1 0 0 1 2308.52 23576)">ADR Index</text></g><rect x="1812.5" y="23379.5" width="2103" height="1061" stroke="#D9D9D9" stroke-width="3.4375" stroke-linejoin="round" stroke-miterlimit="10" fill="none"/><g><text fill="#7F7F7F" font-family="Inter,Inter_MSFontService,sans-serif" font-weight="400" font-size="32" transform="matrix(1 0 0 1 1893.3 23523)">YOY, Source: STR, str.com</text></g></g></svg>