<svg width="2106" height="1094" xmlns="http://www.w3.org/2000/svg" xmlns:xlink="http://www.w3.org/1999/xlink" xml:space="preserve" overflow="hidden"><defs><filter id="fx0" x="-10%" y="-10%" width="120%" height="120%" filterUnits="userSpaceOnUse" primitiveUnits="userSpaceOnUse"><feComponentTransfer color-interpolation-filters="sRGB"><feFuncR type="discrete" tableValues="0 0"/><feFuncG type="discrete" tableValues="0 0"/><feFuncB type="discrete" tableValues="0 0"/><feFuncA type="linear" slope="0.501961" intercept="0"/></feComponentTransfer><feGaussianBlur stdDeviation="4.58333 4.58333"/></filter><filter id="fx1" x="-10%" y="-10%" width="120%" height="120%" filterUnits="userSpaceOnUse" primitiveUnits="userSpaceOnUse"><feComponentTransfer color-interpolation-filters="sRGB"><feFuncR type="discrete" tableValues="0 0"/><feFuncG type="discrete" tableValues="0 0"/><feFuncB type="discrete" tableValues="0 0"/><feFuncA type="linear" slope="0.501961" intercept="0"/></feComponentTransfer><feGaussianBlur stdDeviation="4.58333 4.58333"/></filter><clipPath id="clip2"><rect x="1811" y="24065" width="2106" height="1094"/></clipPath><clipPath id="clip3"><rect x="1978" y="24322" width="1885" height="680"/></clipPath><clipPath id="clip4"><rect x="1978" y="24322" width="1885" height="680"/></clipPath></defs><g clip-path="url(#clip2)" transform="translate(-1811 -24065)"><rect x="1812" y="24066" width="2103" height="1091" fill="#FFFFFF"/><g><rect x="1979" y="24322" width="1882" height="677" fill="#F2F2F2"/></g><g><path d="M1978.5 24547.5 3860.5 24547.5" stroke="#D9D9D9" stroke-width="3.4375" stroke-linejoin="round" stroke-miterlimit="10" fill="none" fill-rule="evenodd"/></g><g clip-path="url(#clip3)"><g filter="url(#fx0)" transform="translate(1973 24432)"><g><path d="M19.9818 177.675C56.5743 140.074 93.1669 59.9161 129.76 64.873 166.352 69.8297 202.945 197.85 239.537 207.416 276.13 216.982 312.722 134.965 349.315 122.271 385.908 109.577 422.5 119.835 459.093 131.254 495.686 142.673 532.278 186.62 568.871 190.784 605.464 194.948 642.056 167.658 678.649 156.24 715.241 144.82 751.833 127.932 788.426 122.271 825.019 116.61 861.611 139.319 898.204 122.271 934.797 105.223 989.685 37.0304 1007.98 19.9824" stroke="#FFB226" stroke-width="9" stroke-linecap="round" stroke-linejoin="round" stroke-miterlimit="10" fill="none"/></g></g></g><g clip-path="url(#clip4)"><g filter="url(#fx1)" transform="translate(1973 24439)"><g><path d="M19.9818 99.1299C56.5743 72.7473 93.1669 15.9824 129.76 19.982 166.352 23.9811 202.945 107.268 239.537 123.125 276.13 138.982 312.722 117.045 349.315 115.126 385.908 113.207 422.5 112.411 459.093 111.611 495.686 110.812 532.278 112.769 568.871 110.329 605.464 107.89 642.056 96.1747 678.649 96.9742 715.241 97.7733 751.833 112.1 788.426 115.126 825.019 118.151 861.611 129.738 898.204 115.126 934.797 100.514 989.685 42.0658 1007.98 27.4538" stroke="#000000" stroke-width="9" stroke-linecap="round" stroke-linejoin="round" stroke-miterlimit="10" fill="none"/></g></g></g><g><path d="M1986.5 24603.2C2023.09 24565.6 2059.69 24485.4 2096.28 24490.4 2132.87 24495.3 2169.46 24623.4 2206.06 24632.9 2242.65 24642.5 2279.24 24560.5 2315.83 24547.8 2352.43 24535.1 2389.02 24545.4 2425.61 24556.8 2462.2 24568.2 2498.8 24612.1 2535.39 24616.3 2571.98 24620.5 2608.57 24593.2 2645.17 24581.8 2681.76 24570.3 2718.35 24553.4 2754.94 24547.8 2791.54 24542.1 2828.13 24564.8 2864.72 24547.8 2901.31 24530.7 2956.2 24462.5 2974.5 24445.5" stroke="#FFB226" stroke-width="9.16667" stroke-linecap="round" stroke-linejoin="round" stroke-miterlimit="10" fill="none"/></g><g><path d="M1986.5 24531.6C2023.09 24505.3 2059.69 24448.5 2096.28 24452.5 2132.87 24456.5 2169.46 24539.8 2206.06 24555.6 2242.65 24571.5 2279.24 24549.6 2315.83 24547.6 2352.43 24545.7 2389.02 24544.9 2425.61 24544.1 2462.2 24543.3 2498.8 24545.3 2535.39 24542.8 2571.98 24540.4 2608.57 24528.7 2645.17 24529.5 2681.76 24530.3 2718.35 24544.6 2754.94 24547.6 2791.54 24550.7 2828.13 24562.3 2864.72 24547.6 2901.31 24533 2956.2 24474.6 2974.5 24460" stroke="#000000" stroke-width="9.16667" stroke-linecap="round" stroke-linejoin="round" stroke-miterlimit="10" fill="none"/></g><g><text font-family="Inter,Inter_MSFontService,sans-serif" font-weight="400" font-size="32" transform="matrix(1 0 0 1 1909.24 25009)">80</text></g><g><text font-family="Inter,Inter_MSFontService,sans-serif" font-weight="400" font-size="32" transform="matrix(1 0 0 1 1909.01 24783)">90</text></g><g><text font-family="Inter,Inter_MSFontService,sans-serif" font-weight="400" font-size="32" transform="matrix(1 0 0 1 1894.07 24558)">100</text></g><g><text font-family="Inter,Inter_MSFontService,sans-serif" font-weight="400" font-size="32" transform="matrix(1 0 0 1 1899.22 24332)">110</text></g><g><text font-family="Inter,Inter_MSFontService,sans-serif" font-weight="400" font-size="32" transform="matrix(0.707107 -0.707107 0.707107 0.707107 1955.19 25081)">11/1</text></g><g><text font-family="Inter,Inter_MSFontService,sans-serif" font-weight="400" font-size="32" transform="matrix(0.707107 -0.707107 0.707107 0.707107 2267.57 25098)">11/22</text></g><g><text font-family="Inter,Inter_MSFontService,sans-serif" font-weight="400" font-size="32" transform="matrix(0.707107 -0.707107 0.707107 0.707107 2596.16 25099)">12/13</text></g><g><text font-family="Inter,Inter_MSFontService,sans-serif" font-weight="400" font-size="32" transform="matrix(0.707107 -0.707107 0.707107 0.707107 2949.72 25075)">1/3</text></g><g><text font-family="Inter,Inter_MSFontService,sans-serif" font-weight="400" font-size="32" transform="matrix(0.707107 -0.707107 0.707107 0.707107 3265.17 25088)">1/24</text></g><g><text font-family="Inter,Inter_MSFontService,sans-serif" font-weight="400" font-size="32" transform="matrix(0.707107 -0.707107 0.707107 0.707107 3594.47 25088)">2/14</text></g><g><text font-family="Inter Medium,Inter Medium_MSFontService,sans-serif" font-weight="700" font-size="46" transform="matrix(1 0 0 1 1895.56 24157)">U.S. Hotel Occupancy and ADR Recovery Levels</text></g><g><path d="M1886.5 24256.5 1974.5 24256.5" stroke="#FFB226" stroke-width="9.16667" stroke-linecap="round" stroke-linejoin="round" stroke-miterlimit="10" fill="none" fill-rule="evenodd"/></g><g><text font-family="Inter Medium,Inter Medium_MSFontService,sans-serif" font-weight="500" font-size="37" transform="matrix(1 0 0 1 1984.15 24268)">Occ Index</text></g><g><path d="M2211.5 24256.5 2299.5 24256.5" stroke="#000000" stroke-width="9.16667" stroke-linecap="round" stroke-linejoin="round" stroke-miterlimit="10" fill="none" fill-rule="evenodd"/></g><g><text font-family="Inter Medium,Inter Medium_MSFontService,sans-serif" font-weight="500" font-size="37" transform="matrix(1 0 0 1 2308.7 24268)">ADR Index</text></g><rect x="1812.5" y="24066.5" width="2103" height="1091" stroke="#D9D9D9" stroke-width="3.4375" stroke-linejoin="round" stroke-miterlimit="10" fill="none"/><g><text fill="#7F7F7F" font-family="Inter,Inter_MSFontService,sans-serif" font-weight="400" font-size="32" transform="matrix(1 0 0 1 1893.3 24213)">YOY, Source: STR, str.com</text></g></g></svg>