<svg width="2110" height="1052" xmlns="http://www.w3.org/2000/svg" xmlns:xlink="http://www.w3.org/1999/xlink" xml:space="preserve" overflow="hidden"><defs><filter id="fx0" x="-10%" y="-10%" width="120%" height="120%" filterUnits="userSpaceOnUse" primitiveUnits="userSpaceOnUse"><feComponentTransfer color-interpolation-filters="sRGB"><feFuncR type="discrete" tableValues="0 0"/><feFuncG type="discrete" tableValues="0 0"/><feFuncB type="discrete" tableValues="0 0"/><feFuncA type="linear" slope="0.501961" intercept="0"/></feComponentTransfer><feGaussianBlur stdDeviation="4.58333 4.58333"/></filter><filter id="fx1" x="-10%" y="-10%" width="120%" height="120%" filterUnits="userSpaceOnUse" primitiveUnits="userSpaceOnUse"><feComponentTransfer color-interpolation-filters="sRGB"><feFuncR type="discrete" tableValues="0 0"/><feFuncG type="discrete" tableValues="0 0"/><feFuncB type="discrete" tableValues="0 0"/><feFuncA type="linear" slope="0.501961" intercept="0"/></feComponentTransfer><feGaussianBlur stdDeviation="4.58333 4.58333"/></filter><clipPath id="clip2"><rect x="1815" y="23093" width="2110" height="1052"/></clipPath><clipPath id="clip3"><rect x="1983" y="23340" width="1889" height="654"/></clipPath><clipPath id="clip4"><rect x="1983" y="23340" width="1889" height="654"/></clipPath></defs><g clip-path="url(#clip2)" transform="translate(-1815 -23093)"><rect x="1816" y="23094" width="2107" height="1049" fill="#FFFFFF"/><g><rect x="1983" y="23340" width="1886" height="651" fill="#F2F2F2"/></g><g><path d="M1983.5 23557.5 3868.5 23557.5" stroke="#D9D9D9" stroke-width="3.4375" stroke-linejoin="round" stroke-miterlimit="10" fill="none" fill-rule="evenodd"/></g><g clip-path="url(#clip3)"><g filter="url(#fx0)" transform="translate(1977 23445)"><g><path d="M19.9819 172.085C56.6486 135.834 93.3152 58.5513 129.982 63.3305 166.649 68.1093 203.315 191.536 239.982 200.759 276.649 209.982 313.315 130.907 349.982 118.669 386.648 106.43 423.315 116.32 459.982 127.329 496.648 138.338 533.315 180.709 569.982 184.724 606.648 188.739 643.315 162.428 679.982 151.419 716.648 140.41 753.315 124.127 789.982 118.669 826.648 113.21 863.315 135.105 899.982 118.669 936.648 102.232 973.315 11.9824 1009.98 20.0504 1046.65 28.118 1083.32 152.58 1119.98 167.076 1156.65 181.572 1193.32 112.438 1229.98 107.029 1266.65 101.619 1321.65 130.02 1339.98 134.618" stroke="#FFB226" stroke-width="9" stroke-linecap="round" stroke-linejoin="round" stroke-miterlimit="10" fill="none"/></g></g></g><g clip-path="url(#clip4)"><g filter="url(#fx1)" transform="translate(1977 23452)"><g><path d="M19.9819 96.0028C56.6486 70.6123 93.3152 15.9824 129.982 19.8315 166.649 23.6802 203.315 103.835 239.982 119.096 276.649 134.357 313.315 113.244 349.982 111.397 386.648 109.55 423.315 108.784 459.982 108.015 496.648 107.246 533.315 109.129 569.982 106.781 606.648 104.433 643.315 93.159 679.982 93.9283 716.648 94.6976 753.315 108.486 789.982 111.397 826.648 114.308 863.315 125.459 899.982 111.397 936.648 97.3346 973.315 24.0602 1009.98 27.0223 1046.65 29.9841 1083.32 118.354 1119.98 129.168 1156.65 139.982 1193.32 91.1884 1229.98 91.9072 1266.65 92.626 1321.65 126.552 1339.98 133.481" stroke="#000000" stroke-width="9" stroke-linecap="round" stroke-linejoin="round" stroke-miterlimit="10" fill="none"/></g></g></g><g><path d="M1990.5 23610.6C2027.17 23574.4 2063.83 23497.1 2100.5 23501.8 2137.17 23506.6 2173.83 23630.1 2210.5 23639.3 2247.17 23648.5 2283.83 23569.4 2320.5 23557.2 2357.17 23544.9 2393.83 23554.8 2430.5 23565.8 2467.17 23576.9 2503.83 23619.2 2540.5 23623.2 2577.17 23627.3 2613.83 23600.9 2650.5 23589.9 2687.17 23578.9 2723.83 23562.6 2760.5 23557.2 2797.17 23551.7 2833.83 23573.6 2870.5 23557.2 2907.17 23540.8 2943.83 23450.5 2980.5 23458.6 3017.17 23466.6 3053.83 23591.1 3090.5 23605.6 3127.17 23620.1 3163.83 23551 3200.5 23545.5 3237.17 23540.1 3292.17 23568.5 3310.5 23573.1" stroke="#FFB226" stroke-width="9.16667" stroke-linecap="round" stroke-linejoin="round" stroke-miterlimit="10" fill="none"/></g><g><path d="M1990.5 23541.5C2027.17 23516.1 2063.83 23461.5 2100.5 23465.3 2137.17 23469.2 2173.83 23549.4 2210.5 23564.6 2247.17 23579.9 2283.83 23558.8 2320.5 23556.9 2357.17 23555.1 2393.83 23554.3 2430.5 23553.5 2467.17 23552.8 2503.83 23554.6 2540.5 23552.3 2577.17 23550 2613.83 23538.7 2650.5 23539.4 2687.17 23540.2 2723.83 23554 2760.5 23556.9 2797.17 23559.8 2833.83 23571 2870.5 23556.9 2907.17 23542.9 2943.83 23469.6 2980.5 23472.5 3017.17 23475.5 3053.83 23563.9 3090.5 23574.7 3127.17 23585.5 3163.83 23536.7 3200.5 23537.4 3237.17 23538.1 3292.17 23572.1 3310.5 23579" stroke="#000000" stroke-width="9.16667" stroke-linecap="round" stroke-linejoin="round" stroke-miterlimit="10" fill="none"/></g><g><text font-family="Inter,Inter_MSFontService,sans-serif" font-weight="400" font-size="32" transform="matrix(1 0 0 1 1913.47 24001)">80</text></g><g><text font-family="Inter,Inter_MSFontService,sans-serif" font-weight="400" font-size="32" transform="matrix(1 0 0 1 1913.24 23784)">90</text></g><g><text font-family="Inter,Inter_MSFontService,sans-serif" font-weight="400" font-size="32" transform="matrix(1 0 0 1 1898.3 23567)">100</text></g><g><text font-family="Inter,Inter_MSFontService,sans-serif" font-weight="400" font-size="32" transform="matrix(1 0 0 1 1903.46 23350)">110</text></g><g><text font-family="Inter,Inter_MSFontService,sans-serif" font-weight="400" font-size="32" transform="matrix(0.707107 -0.707107 0.707107 0.707107 1959.44 24073)">11/1</text></g><g><text font-family="Inter,Inter_MSFontService,sans-serif" font-weight="400" font-size="32" transform="matrix(0.707107 -0.707107 0.707107 0.707107 2272.51 24090)">11/22</text></g><g><text font-family="Inter,Inter_MSFontService,sans-serif" font-weight="400" font-size="32" transform="matrix(0.707107 -0.707107 0.707107 0.707107 2601.78 24091)">12/13</text></g><g><text font-family="Inter,Inter_MSFontService,sans-serif" font-weight="400" font-size="32" transform="matrix(0.707107 -0.707107 0.707107 0.707107 2956.03 24067)">1/3</text></g><g><text font-family="Inter,Inter_MSFontService,sans-serif" font-weight="400" font-size="32" transform="matrix(0.707107 -0.707107 0.707107 0.707107 3272.16 24081)">1/24</text></g><g><text font-family="Inter,Inter_MSFontService,sans-serif" font-weight="400" font-size="32" transform="matrix(0.707107 -0.707107 0.707107 0.707107 3602.15 24081)">2/14</text></g><g><text font-family="Inter Medium,Inter Medium_MSFontService,sans-serif" font-weight="700" font-size="46" transform="matrix(1 0 0 1 1899.59 23183)">U.S. Hotel Occupancy and ADR Recovery Levels</text></g><g><path d="M1891.5 23276.5 1979.5 23276.5" stroke="#FFB226" stroke-width="9.16667" stroke-linecap="round" stroke-linejoin="round" stroke-miterlimit="10" fill="none" fill-rule="evenodd"/></g><g><text font-family="Inter Medium,Inter Medium_MSFontService,sans-serif" font-weight="500" font-size="37" transform="matrix(1 0 0 1 1988.56 23289)">Occ Index</text></g><g><path d="M2216.5 23276.5 2304.5 23276.5" stroke="#000000" stroke-width="9.16667" stroke-linecap="round" stroke-linejoin="round" stroke-miterlimit="10" fill="none" fill-rule="evenodd"/></g><g><text font-family="Inter Medium,Inter Medium_MSFontService,sans-serif" font-weight="500" font-size="37" transform="matrix(1 0 0 1 2313.59 23289)">ADR Index</text></g><rect x="1816.5" y="23094.5" width="2107" height="1049" stroke="#D9D9D9" stroke-width="3.4375" stroke-linejoin="round" stroke-miterlimit="10" fill="none"/><g><text fill="#7F7F7F" font-family="Inter,Inter_MSFontService,sans-serif" font-weight="400" font-size="32" transform="matrix(1 0 0 1 1897.29 23237)">YOY, Source: STR, str.com</text></g></g></svg>