<svg width="2102" height="1094" xmlns="http://www.w3.org/2000/svg" xmlns:xlink="http://www.w3.org/1999/xlink" xml:space="preserve" overflow="hidden"><defs><filter id="fx0" x="-10%" y="-10%" width="120%" height="120%" filterUnits="userSpaceOnUse" primitiveUnits="userSpaceOnUse"><feComponentTransfer color-interpolation-filters="sRGB"><feFuncR type="discrete" tableValues="0 0"/><feFuncG type="discrete" tableValues="0 0"/><feFuncB type="discrete" tableValues="0 0"/><feFuncA type="linear" slope="0.501961" intercept="0"/></feComponentTransfer><feGaussianBlur stdDeviation="4.58333 4.58333"/></filter><filter id="fx1" x="-10%" y="-10%" width="120%" height="120%" filterUnits="userSpaceOnUse" primitiveUnits="userSpaceOnUse"><feComponentTransfer color-interpolation-filters="sRGB"><feFuncR type="discrete" tableValues="0 0"/><feFuncG type="discrete" tableValues="0 0"/><feFuncB type="discrete" tableValues="0 0"/><feFuncA type="linear" slope="0.501961" intercept="0"/></feComponentTransfer><feGaussianBlur stdDeviation="4.58333 4.58333"/></filter><clipPath id="clip2"><rect x="1806" y="24065" width="2102" height="1094"/></clipPath><clipPath id="clip3"><rect x="1974" y="24322" width="1881" height="680"/></clipPath><clipPath id="clip4"><rect x="1974" y="24322" width="1881" height="680"/></clipPath></defs><g clip-path="url(#clip2)" transform="translate(-1806 -24065)"><rect x="1807" y="24066" width="2099" height="1091" fill="#FFFFFF"/><g><rect x="1974" y="24322" width="1878" height="677" fill="#FFFFFF"/></g><g><path d="M1974.5 24547.5 3851.5 24547.5" stroke="#C00000" stroke-width="3.4375" stroke-linejoin="round" stroke-miterlimit="10" fill="none" fill-rule="evenodd"/></g><g clip-path="url(#clip3)"><g filter="url(#fx0)" transform="translate(1969 24345)"><g><path d="M19.9817 188.996C58.7436 176.937 97.5055 161.293 136.267 152.819 175.029 144.344 213.791 128.763 252.553 138.152 291.315 147.54 330.077 200.928 368.839 209.151 407.601 217.373 446.363 196.259 485.125 187.484 523.887 178.71 562.648 162.566 601.41 156.504 640.172 150.442 678.934 152.144 717.696 151.112 756.458 150.079 795.22 121.8 833.982 150.309 872.744 178.818 911.506 308.354 950.268 322.168 989.029 335.982 1027.79 283.224 1066.55 233.195 1105.31 183.165 1144.08 40.9945 1182.84 21.9887 1221.6 2.98242 1260.36 91.959 1299.12 119.158 1337.89 146.356 1376.65 171.343 1415.41 185.18 1454.17 199.016 1492.93 203.768 1531.7 202.175 1570.46 200.581 1628.6 180.046 1647.98 175.62" stroke="#FFB226" stroke-width="9" stroke-linecap="round" stroke-linejoin="round" stroke-miterlimit="10" fill="none"/></g></g></g><g clip-path="url(#clip4)"><g filter="url(#fx1)" transform="translate(1969 24404)"><g><path d="M19.9817 111.725C58.7436 109.991 97.5055 111.063 136.267 106.524 175.029 101.985 213.791 76.6837 252.553 84.4906 291.315 92.2971 330.077 156.312 368.839 153.363 407.601 150.414 446.363 79.9924 485.125 66.7942 523.887 53.5956 562.648 68.3152 601.41 74.1734 640.172 80.0313 678.934 109.368 717.696 101.943 756.458 94.5178 795.22 21.6653 833.982 29.6231 872.744 37.5806 911.506 135.397 950.268 149.69 989.029 163.982 1027.79 136.685 1066.55 115.379 1105.31 94.0725 1144.08 32.721 1182.84 21.8519 1221.6 10.9824 1260.36 36.7801 1299.12 50.1638 1337.89 63.5475 1376.65 92.8368 1415.41 102.154 1454.17 111.471 1492.93 113.193 1531.7 106.067 1570.46 98.9411 1628.6 67.1779 1647.98 59.4002" stroke="#000000" stroke-width="9" stroke-linecap="round" stroke-linejoin="round" stroke-miterlimit="10" fill="none"/></g></g></g><g><path d="M1982.5 24527.5C2021.26 24515.5 2060.02 24499.8 2098.79 24491.3 2137.55 24482.9 2176.31 24467.3 2215.07 24476.7 2253.83 24486.1 2292.6 24539.4 2331.36 24547.7 2370.12 24555.9 2408.88 24534.8 2447.64 24526 2486.4 24517.2 2525.17 24501.1 2563.93 24495 2602.69 24489 2641.45 24490.7 2680.21 24489.6 2718.98 24488.6 2757.74 24460.3 2796.5 24488.8 2835.26 24517.3 2874.02 24646.9 2912.79 24660.7 2951.55 24674.5 2990.31 24621.7 3029.07 24571.7 3067.83 24521.7 3106.6 24379.5 3145.36 24360.5 3184.12 24341.5 3222.88 24430.5 3261.64 24457.7 3300.4 24484.9 3339.17 24509.9 3377.93 24523.7 3416.69 24537.5 3455.45 24542.3 3494.21 24540.7 3532.98 24539.1 3591.12 24518.6 3610.5 24514.1" stroke="#FFB226" stroke-width="9.16667" stroke-linecap="round" stroke-linejoin="round" stroke-miterlimit="10" fill="none"/></g><g><path d="M1982.5 24509.2C2021.26 24507.5 2060.02 24508.6 2098.79 24504 2137.55 24499.5 2176.31 24474.2 2215.07 24482 2253.83 24489.8 2292.6 24553.8 2331.36 24550.9 2370.12 24547.9 2408.88 24477.5 2447.64 24464.3 2486.4 24451.1 2525.17 24465.8 2563.93 24471.7 2602.69 24477.5 2641.45 24506.9 2680.21 24499.5 2718.98 24492 2757.74 24419.2 2796.5 24427.1 2835.26 24435.1 2874.02 24532.9 2912.79 24547.2 2951.55 24561.5 2990.31 24534.2 3029.07 24512.9 3067.83 24491.6 3106.6 24430.2 3145.36 24419.4 3184.12 24408.5 3222.88 24434.3 3261.64 24447.7 3300.4 24461.1 3339.17 24490.4 3377.93 24499.7 3416.69 24509 3455.45 24510.7 3494.21 24503.6 3532.98 24496.5 3591.12 24464.7 3610.5 24456.9" stroke="#000000" stroke-width="9.16667" stroke-linecap="round" stroke-linejoin="round" stroke-miterlimit="10" fill="none"/></g><g><text font-family="Inter,Inter_MSFontService,sans-serif" font-weight="400" font-size="32" transform="matrix(1 0 0 1 1904.63 25009)">80</text></g><g><text font-family="Inter,Inter_MSFontService,sans-serif" font-weight="400" font-size="32" transform="matrix(1 0 0 1 1904.4 24783)">90</text></g><g><text font-family="Inter,Inter_MSFontService,sans-serif" font-weight="400" font-size="32" transform="matrix(1 0 0 1 1889.46 24558)">100</text></g><g><text font-family="Inter,Inter_MSFontService,sans-serif" font-weight="400" font-size="32" transform="matrix(1 0 0 1 1894.61 24332)">110</text></g><g><text font-family="Inter,Inter_MSFontService,sans-serif" font-weight="400" font-size="32" transform="matrix(0.707107 -0.707107 0.707107 0.707107 1955.97 25076)">2/7</text></g><g><text font-family="Inter,Inter_MSFontService,sans-serif" font-weight="400" font-size="32" transform="matrix(0.707107 -0.707107 0.707107 0.707107 2060.12 25088)">2/14</text></g><g><text font-family="Inter,Inter_MSFontService,sans-serif" font-weight="400" font-size="32" transform="matrix(0.707107 -0.707107 0.707107 0.707107 2177.27 25088)">2/21</text></g><g><text font-family="Inter,Inter_MSFontService,sans-serif" font-weight="400" font-size="32" transform="matrix(0.707107 -0.707107 0.707107 0.707107 2290.12 25091)">2/28</text></g><g><text font-family="Inter,Inter_MSFontService,sans-serif" font-weight="400" font-size="32" transform="matrix(0.707107 -0.707107 0.707107 0.707107 2420.47 25077)">3/7</text></g><g><text font-family="Inter,Inter_MSFontService,sans-serif" font-weight="400" font-size="32" transform="matrix(0.707107 -0.707107 0.707107 0.707107 2524.62 25089)">3/14</text></g><g><text font-family="Inter,Inter_MSFontService,sans-serif" font-weight="400" font-size="32" transform="matrix(0.707107 -0.707107 0.707107 0.707107 2641.77 25088)">3/21</text></g><g><text font-family="Inter,Inter_MSFontService,sans-serif" font-weight="400" font-size="32" transform="matrix(0.707107 -0.707107 0.707107 0.707107 2754.62 25092)">3/28</text></g><g><text font-family="Inter,Inter_MSFontService,sans-serif" font-weight="400" font-size="32" transform="matrix(0.707107 -0.707107 0.707107 0.707107 2883.93 25079)">4/4</text></g><g><text font-family="Inter,Inter_MSFontService,sans-serif" font-weight="400" font-size="32" transform="matrix(0.707107 -0.707107 0.707107 0.707107 2993.74 25085)">4/11</text></g><g><text font-family="Inter,Inter_MSFontService,sans-serif" font-weight="400" font-size="32" transform="matrix(0.707107 -0.707107 0.707107 0.707107 3106.59 25089)">4/18</text></g><g><text font-family="Inter,Inter_MSFontService,sans-serif" font-weight="400" font-size="32" transform="matrix(0.707107 -0.707107 0.707107 0.707107 3219.9 25092)">4/25</text></g><g><text font-family="Inter,Inter_MSFontService,sans-serif" font-weight="400" font-size="32" transform="matrix(0.707107 -0.707107 0.707107 0.707107 3350.77 25077)">5/2</text></g><g><text font-family="Inter,Inter_MSFontService,sans-serif" font-weight="400" font-size="32" transform="matrix(0.707107 -0.707107 0.707107 0.707107 3466.65 25078)">5/9</text></g><g><text font-family="Inter,Inter_MSFontService,sans-serif" font-weight="400" font-size="32" transform="matrix(0.707107 -0.707107 0.707107 0.707107 3572.42 25088)">5/16</text></g><g><text font-family="Inter,Inter_MSFontService,sans-serif" font-weight="400" font-size="32" transform="matrix(0.707107 -0.707107 0.707107 0.707107 3685.24 25092)">5/23</text></g><g><text font-family="Inter,Inter_MSFontService,sans-serif" font-weight="400" font-size="32" transform="matrix(0.707107 -0.707107 0.707107 0.707107 3801.09 25092)">5/30</text></g><g><text font-family="Inter Medium,Inter Medium_MSFontService,sans-serif" font-weight="700" font-size="46" transform="matrix(1 0 0 1 1891.17 24157)">U.S. Hotel Occupancy and ADR Recovery Levels</text></g><g><path d="M1882.5 24256.5 1970.5 24256.5" stroke="#FFB226" stroke-width="9.16667" stroke-linecap="round" stroke-linejoin="round" stroke-miterlimit="10" fill="none" fill-rule="evenodd"/></g><g><text font-family="Inter Medium,Inter Medium_MSFontService,sans-serif" font-weight="500" font-size="37" transform="matrix(1 0 0 1 1979.35 24268)">Occ Index</text></g><g><path d="M2206.5 24256.5 2294.5 24256.5" stroke="#000000" stroke-width="9.16667" stroke-linecap="round" stroke-linejoin="round" stroke-miterlimit="10" fill="none" fill-rule="evenodd"/></g><g><text font-family="Inter Medium,Inter Medium_MSFontService,sans-serif" font-weight="500" font-size="37" transform="matrix(1 0 0 1 2303.38 24268)">ADR Index</text></g><rect x="1807.5" y="24066.5" width="2099" height="1091" stroke="#D9D9D9" stroke-width="3.4375" stroke-linejoin="round" stroke-miterlimit="10" fill="none"/><g><text fill="#7F7F7F" font-family="Inter,Inter_MSFontService,sans-serif" font-weight="400" font-size="32" transform="matrix(1 0 0 1 1888.96 24213)">YOY, Source: STR, str.com</text></g></g></svg>