<svg width="2102" height="1094" xmlns="http://www.w3.org/2000/svg" xmlns:xlink="http://www.w3.org/1999/xlink" xml:space="preserve" overflow="hidden"><defs><filter id="fx0" x="-10%" y="-10%" width="120%" height="120%" filterUnits="userSpaceOnUse" primitiveUnits="userSpaceOnUse"><feComponentTransfer color-interpolation-filters="sRGB"><feFuncR type="discrete" tableValues="0 0"/><feFuncG type="discrete" tableValues="0 0"/><feFuncB type="discrete" tableValues="0 0"/><feFuncA type="linear" slope="0.501961" intercept="0"/></feComponentTransfer><feGaussianBlur stdDeviation="4.58333 4.58333"/></filter><filter id="fx1" x="-10%" y="-10%" width="120%" height="120%" filterUnits="userSpaceOnUse" primitiveUnits="userSpaceOnUse"><feComponentTransfer color-interpolation-filters="sRGB"><feFuncR type="discrete" tableValues="0 0"/><feFuncG type="discrete" tableValues="0 0"/><feFuncB type="discrete" tableValues="0 0"/><feFuncA type="linear" slope="0.501961" intercept="0"/></feComponentTransfer><feGaussianBlur stdDeviation="4.58333 4.58333"/></filter><clipPath id="clip2"><rect x="1806" y="24065" width="2102" height="1094"/></clipPath><clipPath id="clip3"><rect x="1974" y="24322" width="1881" height="680"/></clipPath><clipPath id="clip4"><rect x="1974" y="24322" width="1881" height="680"/></clipPath></defs><g clip-path="url(#clip2)" transform="translate(-1806 -24065)"><rect x="1807" y="24066" width="2099" height="1091" fill="#FFFFFF"/><g><rect x="1974" y="24322" width="1878" height="677" fill="#FFFFFF"/></g><g><path d="M1974.5 24547.5 3851.5 24547.5" stroke="#C00000" stroke-width="3.4375" stroke-linejoin="round" stroke-miterlimit="10" fill="none" fill-rule="evenodd"/></g><g clip-path="url(#clip3)"><g filter="url(#fx0)" transform="translate(1966 24431)"><g><path d="M19.9819 191.874C44.8794 180.313 69.7769 168.656 94.6744 157.191 119.572 145.726 144.469 128.769 169.367 123.085 194.264 117.401 219.161 140.202 244.059 123.085 268.956 105.968 293.854 11.9824 318.751 20.3844 343.648 28.786 368.546 158.4 393.443 173.496 418.341 188.593 443.238 116.597 468.136 110.963 493.033 105.329 517.931 121.046 542.828 139.695 567.725 158.343 592.623 228.982 617.52 222.853 642.417 216.724 667.315 128.94 692.213 102.918 717.11 76.8948 742.007 75.1963 766.905 66.7168 791.802 58.2369 816.7 42.6455 841.597 52.0402 866.494 61.435 891.392 114.858 916.289 123.085 941.187 131.313 978.533 105.018 990.982 101.405" stroke="#FFB226" stroke-width="9" stroke-linecap="round" stroke-linejoin="round" stroke-miterlimit="10" fill="none"/></g></g></g><g clip-path="url(#clip4)"><g filter="url(#fx1)" transform="translate(1966 24447)"><g><path d="M19.9819 102.614C44.8794 98.1785 69.7769 88.5119 94.6744 89.3084 119.572 90.1045 144.469 104.378 169.367 107.392 194.264 110.406 219.161 121.949 244.059 107.392 268.956 92.8345 293.854 16.9824 318.751 20.0487 343.648 23.1146 368.546 114.593 393.443 125.788 418.341 136.982 443.238 86.472 468.136 87.2164 493.033 87.9604 517.931 127.637 542.828 130.252 567.725 132.868 592.623 113.099 617.52 102.909 642.417 92.7188 667.315 75.6095 692.213 69.1123 717.11 62.6151 742.007 68.452 766.905 63.9257 791.802 59.399 816.7 34.1686 841.597 41.9538 866.494 49.7386 891.392 113.576 916.289 110.635 941.187 107.693 978.533 38.6946 990.982 24.3066" stroke="#000000" stroke-width="9" stroke-linecap="round" stroke-linejoin="round" stroke-miterlimit="10" fill="none"/></g></g></g><g><path d="M1979.5 24616.4C2004.4 24604.8 2029.3 24593.2 2054.19 24581.7 2079.09 24570.2 2103.99 24553.3 2128.88 24547.6 2153.78 24541.9 2178.68 24564.7 2203.58 24547.6 2228.47 24530.5 2253.37 24436.5 2278.27 24444.9 2303.17 24453.3 2328.06 24582.9 2352.96 24598 2377.86 24613.1 2402.76 24541.1 2427.65 24535.5 2452.55 24529.8 2477.45 24545.6 2502.35 24564.2 2527.24 24582.9 2552.14 24653.5 2577.04 24647.4 2601.94 24641.2 2626.83 24553.5 2651.73 24527.4 2676.63 24501.4 2701.53 24499.7 2726.42 24491.2 2751.32 24482.8 2776.22 24467.2 2801.12 24476.6 2826.01 24486 2850.91 24539.4 2875.81 24547.6 2900.7 24555.8 2938.05 24529.5 2950.5 24525.9" stroke="#FFB226" stroke-width="9.16667" stroke-linecap="round" stroke-linejoin="round" stroke-miterlimit="10" fill="none"/></g><g><path d="M1979.5 24543.1C2004.4 24538.7 2029.3 24529 2054.19 24529.8 2079.09 24530.6 2103.99 24544.9 2128.88 24547.9 2153.78 24550.9 2178.68 24562.5 2203.58 24547.9 2228.47 24533.4 2253.37 24457.5 2278.27 24460.6 2303.17 24463.6 2328.06 24555.1 2352.96 24566.3 2377.86 24577.5 2402.76 24527 2427.65 24527.7 2452.55 24528.5 2477.45 24568.2 2502.35 24570.8 2527.24 24573.4 2552.14 24553.6 2577.04 24543.4 2601.94 24533.2 2626.83 24516.1 2651.73 24509.6 2676.63 24503.1 2701.53 24509 2726.42 24504.4 2751.32 24499.9 2776.22 24474.7 2801.12 24482.5 2826.01 24490.3 2850.91 24554.1 2875.81 24551.2 2900.7 24548.2 2938.05 24479.2 2950.5 24464.8" stroke="#000000" stroke-width="9.16667" stroke-linecap="round" stroke-linejoin="round" stroke-miterlimit="10" fill="none"/></g><g><text font-family="Inter,Inter_MSFontService,sans-serif" font-weight="400" font-size="32" transform="matrix(1 0 0 1 1904.63 25009)">80</text></g><g><text font-family="Inter,Inter_MSFontService,sans-serif" font-weight="400" font-size="32" transform="matrix(1 0 0 1 1904.4 24783)">90</text></g><g><text font-family="Inter,Inter_MSFontService,sans-serif" font-weight="400" font-size="32" transform="matrix(1 0 0 1 1889.46 24558)">100</text></g><g><text font-family="Inter,Inter_MSFontService,sans-serif" font-weight="400" font-size="32" transform="matrix(1 0 0 1 1894.61 24332)">110</text></g><g><text font-family="Inter,Inter_MSFontService,sans-serif" font-weight="400" font-size="32" transform="matrix(0.707107 -0.707107 0.707107 0.707107 1941.26 25088)">12/6</text></g><g><text font-family="Inter,Inter_MSFontService,sans-serif" font-weight="400" font-size="32" transform="matrix(0.707107 -0.707107 0.707107 0.707107 2005.11 25099)">12/13</text></g><g><text font-family="Inter,Inter_MSFontService,sans-serif" font-weight="400" font-size="32" transform="matrix(0.707107 -0.707107 0.707107 0.707107 2076.85 25102)">12/20</text></g><g><text font-family="Inter,Inter_MSFontService,sans-serif" font-weight="400" font-size="32" transform="matrix(0.707107 -0.707107 0.707107 0.707107 2152.75 25101)">12/27</text></g><g><text font-family="Inter,Inter_MSFontService,sans-serif" font-weight="400" font-size="32" transform="matrix(0.707107 -0.707107 0.707107 0.707107 2253.39 25075)">1/3</text></g><g><text font-family="Inter,Inter_MSFontService,sans-serif" font-weight="400" font-size="32" transform="matrix(0.707107 -0.707107 0.707107 0.707107 2317.78 25085)">1/10</text></g><g><text font-family="Inter,Inter_MSFontService,sans-serif" font-weight="400" font-size="32" transform="matrix(0.707107 -0.707107 0.707107 0.707107 2393.69 25084)">1/17</text></g><g><text font-family="Inter,Inter_MSFontService,sans-serif" font-weight="400" font-size="32" transform="matrix(0.707107 -0.707107 0.707107 0.707107 2463.55 25088)">1/24</text></g><g><text font-family="Inter,Inter_MSFontService,sans-serif" font-weight="400" font-size="32" transform="matrix(0.707107 -0.707107 0.707107 0.707107 2541.54 25085)">1/31</text></g><g><text font-family="Inter,Inter_MSFontService,sans-serif" font-weight="400" font-size="32" transform="matrix(0.707107 -0.707107 0.707107 0.707107 2625.05 25076)">2/7</text></g><g><text font-family="Inter,Inter_MSFontService,sans-serif" font-weight="400" font-size="32" transform="matrix(0.707107 -0.707107 0.707107 0.707107 2687.56 25088)">2/14</text></g><g><text font-family="Inter,Inter_MSFontService,sans-serif" font-weight="400" font-size="32" transform="matrix(0.707107 -0.707107 0.707107 0.707107 2763.08 25088)">2/21</text></g><g><text font-family="Inter,Inter_MSFontService,sans-serif" font-weight="400" font-size="32" transform="matrix(0.707107 -0.707107 0.707107 0.707107 2834.3 25091)">2/28</text></g><g><text font-family="Inter,Inter_MSFontService,sans-serif" font-weight="400" font-size="32" transform="matrix(0.707107 -0.707107 0.707107 0.707107 2923.02 25077)">3/7</text></g><g><text font-family="Inter,Inter_MSFontService,sans-serif" font-weight="400" font-size="32" transform="matrix(0.707107 -0.707107 0.707107 0.707107 2985.54 25089)">3/14</text></g><g><text font-family="Inter,Inter_MSFontService,sans-serif" font-weight="400" font-size="32" transform="matrix(0.707107 -0.707107 0.707107 0.707107 3061.05 25088)">3/21</text></g><g><text font-family="Inter,Inter_MSFontService,sans-serif" font-weight="400" font-size="32" transform="matrix(0.707107 -0.707107 0.707107 0.707107 3132.27 25092)">3/28</text></g><g><text font-family="Inter,Inter_MSFontService,sans-serif" font-weight="400" font-size="32" transform="matrix(0.707107 -0.707107 0.707107 0.707107 3219.96 25079)">4/4</text></g><g><text font-family="Inter,Inter_MSFontService,sans-serif" font-weight="400" font-size="32" transform="matrix(0.707107 -0.707107 0.707107 0.707107 3288.13 25085)">4/11</text></g><g><text font-family="Inter,Inter_MSFontService,sans-serif" font-weight="400" font-size="32" transform="matrix(0.707107 -0.707107 0.707107 0.707107 3359.35 25089)">4/18</text></g><g><text font-family="Inter,Inter_MSFontService,sans-serif" font-weight="400" font-size="32" transform="matrix(0.707107 -0.707107 0.707107 0.707107 3431.03 25092)">4/25</text></g><g><text font-family="Inter,Inter_MSFontService,sans-serif" font-weight="400" font-size="32" transform="matrix(0.707107 -0.707107 0.707107 0.707107 3520.27 25077)">5/2</text></g><g><text font-family="Inter,Inter_MSFontService,sans-serif" font-weight="400" font-size="32" transform="matrix(0.707107 -0.707107 0.707107 0.707107 3594.52 25078)">5/9</text></g><g><text font-family="Inter,Inter_MSFontService,sans-serif" font-weight="400" font-size="32" transform="matrix(0.707107 -0.707107 0.707107 0.707107 3658.66 25088)">5/16</text></g><g><text font-family="Inter,Inter_MSFontService,sans-serif" font-weight="400" font-size="32" transform="matrix(0.707107 -0.707107 0.707107 0.707107 3729.84 25092)">5/23</text></g><g><text font-family="Inter,Inter_MSFontService,sans-serif" font-weight="400" font-size="32" transform="matrix(0.707107 -0.707107 0.707107 0.707107 3804.06 25092)">5/30</text></g><g><text font-family="Inter Medium,Inter Medium_MSFontService,sans-serif" font-weight="700" font-size="46" transform="matrix(1 0 0 1 1891.17 24157)">U.S. Hotel Occupancy and ADR Recovery Levels</text></g><g><path d="M1882.5 24256.5 1970.5 24256.5" stroke="#FFB226" stroke-width="9.16667" stroke-linecap="round" stroke-linejoin="round" stroke-miterlimit="10" fill="none" fill-rule="evenodd"/></g><g><text font-family="Inter Medium,Inter Medium_MSFontService,sans-serif" font-weight="500" font-size="37" transform="matrix(1 0 0 1 1979.35 24268)">Occ Index</text></g><g><path d="M2206.5 24256.5 2294.5 24256.5" stroke="#000000" stroke-width="9.16667" stroke-linecap="round" stroke-linejoin="round" stroke-miterlimit="10" fill="none" fill-rule="evenodd"/></g><g><text font-family="Inter Medium,Inter Medium_MSFontService,sans-serif" font-weight="500" font-size="37" transform="matrix(1 0 0 1 2303.38 24268)">ADR Index</text></g><rect x="1807.5" y="24066.5" width="2099" height="1091" stroke="#D9D9D9" stroke-width="3.4375" stroke-linejoin="round" stroke-miterlimit="10" fill="none"/><g><text fill="#7F7F7F" font-family="Inter,Inter_MSFontService,sans-serif" font-weight="400" font-size="32" transform="matrix(1 0 0 1 1888.96 24213)">YOY, Source: STR, str.com</text></g></g></svg>