<svg width="2099" height="1049" xmlns="http://www.w3.org/2000/svg" xmlns:xlink="http://www.w3.org/1999/xlink" xml:space="preserve" overflow="hidden"><defs><filter id="fx0" x="-10%" y="-10%" width="120%" height="120%" filterUnits="userSpaceOnUse" primitiveUnits="userSpaceOnUse"><feComponentTransfer color-interpolation-filters="sRGB"><feFuncR type="discrete" tableValues="0 0"/><feFuncG type="discrete" tableValues="0 0"/><feFuncB type="discrete" tableValues="0 0"/><feFuncA type="linear" slope="0.501961" intercept="0"/></feComponentTransfer><feGaussianBlur stdDeviation="4.58333 4.58333"/></filter><filter id="fx1" x="-10%" y="-10%" width="120%" height="120%" filterUnits="userSpaceOnUse" primitiveUnits="userSpaceOnUse"><feComponentTransfer color-interpolation-filters="sRGB"><feFuncR type="discrete" tableValues="0 0"/><feFuncG type="discrete" tableValues="0 0"/><feFuncB type="discrete" tableValues="0 0"/><feFuncA type="linear" slope="0.501961" intercept="0"/></feComponentTransfer><feGaussianBlur stdDeviation="4.58333 4.58333"/></filter><clipPath id="clip2"><rect x="1804" y="23019" width="2099" height="1049"/></clipPath><clipPath id="clip3"><rect x="1971" y="23265" width="1879" height="652"/></clipPath><clipPath id="clip4"><rect x="1971" y="23265" width="1879" height="652"/></clipPath></defs><g clip-path="url(#clip2)" transform="translate(-1804 -23019)"><rect x="1805" y="23020" width="2096" height="1046" fill="#FFFFFF"/><g><rect x="1972" y="23266" width="1875" height="648" fill="#FFFFFF"/></g><g><path d="M1971.5 23481.5 3847.5 23481.5" stroke="#C00000" stroke-width="3.4375" stroke-linejoin="round" stroke-miterlimit="10" fill="none" fill-rule="evenodd"/></g><g clip-path="url(#clip3)"><g filter="url(#fx0)" transform="translate(1964 23286)"><g><path d="M19.9819 181.282C44.8429 171.358 69.7042 157.336 94.5655 151.511 119.426 145.685 144.287 147.321 169.149 146.329 194.01 145.336 218.871 118.161 243.732 145.557 268.593 172.954 293.454 297.432 318.315 310.707 343.176 323.982 368.037 273.284 392.899 225.208 417.76 177.131 442.621 40.5108 467.482 22.2466 492.343 3.98242 517.204 89.4854 542.065 115.622 566.926 141.759 591.787 165.771 616.649 179.067 641.51 192.363 666.37 196.929 691.232 195.398 716.093 193.867 740.954 170.901 765.815 169.88 790.676 168.859 815.537 190.999 840.398 189.27 865.259 187.541 902.551 164.466 914.982 159.506" stroke="#FFB226" stroke-width="9" stroke-linecap="round" stroke-linejoin="round" stroke-miterlimit="10" fill="none"/></g></g></g><g clip-path="url(#clip4)"><g filter="url(#fx1)" transform="translate(1964 23343)"><g><path d="M19.9819 65.6056C44.8429 67.9689 69.7042 67.0669 94.5655 72.6956 119.426 78.3239 144.287 106.51 169.149 99.3762 194.01 92.2422 218.871 22.2465 243.732 29.8923 268.593 37.5378 293.454 131.518 318.315 145.251 343.176 158.983 368.037 132.756 392.899 112.285 417.76 91.814 442.621 32.8682 467.482 22.4255 492.343 11.9824 517.204 36.7686 542.065 49.6277 566.926 62.4864 591.787 90.6271 616.649 99.579 641.51 108.531 666.37 110.184 691.232 103.338 716.093 96.4919 740.954 65.624 765.815 58.5016 790.676 51.3791 815.537 62.8586 840.398 60.6036 865.259 58.3482 902.551 47.5759 914.982 44.9707" stroke="#000000" stroke-width="9" stroke-linecap="round" stroke-linejoin="round" stroke-miterlimit="10" fill="none"/></g></g></g><g><path d="M1977.5 23460.8C2002.36 23450.9 2027.22 23436.9 2052.08 23431 2076.94 23425.2 2101.81 23426.8 2126.67 23425.8 2151.53 23424.9 2176.39 23397.7 2201.25 23425.1 2226.11 23452.5 2250.97 23576.9 2275.83 23590.2 2300.69 23603.5 2325.56 23552.8 2350.42 23504.7 2375.28 23456.6 2400.14 23320 2425 23301.8 2449.86 23283.5 2474.72 23369 2499.58 23395.1 2524.44 23421.3 2549.31 23445.3 2574.17 23458.6 2599.03 23471.9 2623.89 23476.4 2648.75 23474.9 2673.61 23473.4 2698.47 23450.4 2723.33 23449.4 2748.19 23448.4 2773.06 23470.5 2797.92 23468.8 2822.78 23467.1 2860.07 23444 2872.5 23439" stroke="#FFB226" stroke-width="9.16667" stroke-linecap="round" stroke-linejoin="round" stroke-miterlimit="10" fill="none"/></g><g><path d="M1977.5 23402.1C2002.36 23404.5 2027.22 23403.6 2052.08 23409.2 2076.94 23414.8 2101.81 23443 2126.67 23435.9 2151.53 23428.8 2176.39 23358.8 2201.25 23366.4 2226.11 23374.1 2250.97 23468 2275.83 23481.8 2300.69 23495.5 2325.56 23469.3 2350.42 23448.8 2375.28 23428.3 2400.14 23369.4 2425 23358.9 2449.86 23348.5 2474.72 23373.3 2499.58 23386.1 2524.44 23399 2549.31 23427.1 2574.17 23436.1 2599.03 23445 2623.89 23446.7 2648.75 23439.9 2673.61 23433 2698.47 23402.1 2723.33 23395 2748.19 23387.9 2773.06 23399.4 2797.92 23397.1 2822.78 23394.9 2860.07 23384.1 2872.5 23381.5" stroke="#000000" stroke-width="9.16667" stroke-linecap="round" stroke-linejoin="round" stroke-miterlimit="10" fill="none"/></g><g><text font-family="Inter,Inter_MSFontService,sans-serif" font-weight="400" font-size="32" transform="matrix(1 0 0 1 1902.04 23924)">80</text></g><g><text font-family="Inter,Inter_MSFontService,sans-serif" font-weight="400" font-size="32" transform="matrix(1 0 0 1 1901.99 23708)">90</text></g><g><text font-family="Inter,Inter_MSFontService,sans-serif" font-weight="400" font-size="32" transform="matrix(1 0 0 1 1888.61 23492)">100</text></g><g><text font-family="Inter,Inter_MSFontService,sans-serif" font-weight="400" font-size="32" transform="matrix(1 0 0 1 1895.8 23275)">110</text></g><g><text font-family="Inter,Inter_MSFontService,sans-serif" font-weight="400" font-size="32" transform="matrix(0.707107 -0.707107 0.707107 0.707107 1950.39 23992)">3/7</text></g><g><text font-family="Inter,Inter_MSFontService,sans-serif" font-weight="400" font-size="32" transform="matrix(0.707107 -0.707107 0.707107 0.707107 2013.94 24003)">3/14</text></g><g><text font-family="Inter,Inter_MSFontService,sans-serif" font-weight="400" font-size="32" transform="matrix(0.707107 -0.707107 0.707107 0.707107 2089.34 24002)">3/21</text></g><g><text font-family="Inter,Inter_MSFontService,sans-serif" font-weight="400" font-size="32" transform="matrix(0.707107 -0.707107 0.707107 0.707107 2159.11 24007)">3/28</text></g><g><text font-family="Inter,Inter_MSFontService,sans-serif" font-weight="400" font-size="32" transform="matrix(0.707107 -0.707107 0.707107 0.707107 2246.29 23994)">4/4</text></g><g><text font-family="Inter,Inter_MSFontService,sans-serif" font-weight="400" font-size="32" transform="matrix(0.707107 -0.707107 0.707107 0.707107 2317.08 23998)">4/11</text></g><g><text font-family="Inter,Inter_MSFontService,sans-serif" font-weight="400" font-size="32" transform="matrix(0.707107 -0.707107 0.707107 0.707107 2386.86 24003)">4/18</text></g><g><text font-family="Inter,Inter_MSFontService,sans-serif" font-weight="400" font-size="32" transform="matrix(0.707107 -0.707107 0.707107 0.707107 2457.39 24007)">4/25</text></g><g><text font-family="Inter,Inter_MSFontService,sans-serif" font-weight="400" font-size="32" transform="matrix(0.707107 -0.707107 0.707107 0.707107 2546.63 23993)">5/2</text></g><g><text font-family="Inter,Inter_MSFontService,sans-serif" font-weight="400" font-size="32" transform="matrix(0.707107 -0.707107 0.707107 0.707107 2620.99 23993)">5/9</text></g><g><text font-family="Inter,Inter_MSFontService,sans-serif" font-weight="400" font-size="32" transform="matrix(0.707107 -0.707107 0.707107 0.707107 2686.35 24002)">5/16</text></g><g><text font-family="Inter,Inter_MSFontService,sans-serif" font-weight="400" font-size="32" transform="matrix(0.707107 -0.707107 0.707107 0.707107 2756.37 24007)">5/23</text></g><g><text font-family="Inter,Inter_MSFontService,sans-serif" font-weight="400" font-size="32" transform="matrix(0.707107 -0.707107 0.707107 0.707107 2830.49 24007)">5/30</text></g><g><text font-family="Inter,Inter_MSFontService,sans-serif" font-weight="400" font-size="32" transform="matrix(0.707107 -0.707107 0.707107 0.707107 2918.73 23993)">6/6</text></g><g><text font-family="Inter,Inter_MSFontService,sans-serif" font-weight="400" font-size="32" transform="matrix(0.707107 -0.707107 0.707107 0.707107 2984.15 24002)">6/13</text></g><g><text font-family="Inter,Inter_MSFontService,sans-serif" font-weight="400" font-size="32" transform="matrix(0.707107 -0.707107 0.707107 0.707107 3053.82 24007)">6/20</text></g><g><text font-family="Inter,Inter_MSFontService,sans-serif" font-weight="400" font-size="32" transform="matrix(0.707107 -0.707107 0.707107 0.707107 3129.88 24006)">6/27</text></g><g><text font-family="Inter,Inter_MSFontService,sans-serif" font-weight="400" font-size="32" transform="matrix(0.707107 -0.707107 0.707107 0.707107 3217.73 23993)">7/4</text></g><g><text font-family="Inter,Inter_MSFontService,sans-serif" font-weight="400" font-size="32" transform="matrix(0.707107 -0.707107 0.707107 0.707107 3288.52 23996)">7/11</text></g><g><text font-family="Inter,Inter_MSFontService,sans-serif" font-weight="400" font-size="32" transform="matrix(0.707107 -0.707107 0.707107 0.707107 3358.29 24001)">7/18</text></g><g><text font-family="Inter,Inter_MSFontService,sans-serif" font-weight="400" font-size="32" transform="matrix(0.707107 -0.707107 0.707107 0.707107 3428.83 24005)">7/25</text></g><g><text font-family="Inter,Inter_MSFontService,sans-serif" font-weight="400" font-size="32" transform="matrix(0.707107 -0.707107 0.707107 0.707107 3520.3 23988)">8/1</text></g><g><text font-family="Inter,Inter_MSFontService,sans-serif" font-weight="400" font-size="32" transform="matrix(0.707107 -0.707107 0.707107 0.707107 3590.07 23993)">8/8</text></g><g><text font-family="Inter,Inter_MSFontService,sans-serif" font-weight="400" font-size="32" transform="matrix(0.707107 -0.707107 0.707107 0.707107 3656 24002)">8/15</text></g><g><text font-family="Inter,Inter_MSFontService,sans-serif" font-weight="400" font-size="32" transform="matrix(0.707107 -0.707107 0.707107 0.707107 3725.6 24007)">8/22</text></g><g><text font-family="Inter,Inter_MSFontService,sans-serif" font-weight="400" font-size="32" transform="matrix(0.707107 -0.707107 0.707107 0.707107 3799.96 24007)">8/29</text></g><g><text font-family="Inter Medium,Inter Medium_MSFontService,sans-serif" font-weight="700" font-size="46" transform="matrix(1 0 0 1 1888.94 23109)">U.S. Hotel Occupancy and ADR Recovery Levels</text></g><g><path d="M1879.5 23202.5 1967.5 23202.5" stroke="#FFB226" stroke-width="9.16667" stroke-linecap="round" stroke-linejoin="round" stroke-miterlimit="10" fill="none" fill-rule="evenodd"/></g><g><text font-family="Inter Medium,Inter Medium_MSFontService,sans-serif" font-weight="500" font-size="37" transform="matrix(1 0 0 1 1976.39 23214)">Occ Index</text></g><g><path d="M2203.5 23202.5 2291.5 23202.5" stroke="#000000" stroke-width="9.16667" stroke-linecap="round" stroke-linejoin="round" stroke-miterlimit="10" fill="none" fill-rule="evenodd"/></g><g><text font-family="Inter Medium,Inter Medium_MSFontService,sans-serif" font-weight="500" font-size="37" transform="matrix(1 0 0 1 2300.5 23214)">ADR Index</text></g><rect x="1805.5" y="23020.5" width="2096" height="1046" stroke="#D9D9D9" stroke-width="3.4375" stroke-linejoin="round" stroke-miterlimit="10" fill="none"/><g><text fill="#7F7F7F" font-family="Inter,Inter_MSFontService,sans-serif" font-weight="400" font-size="32" transform="matrix(1 0 0 1 1886.76 23163)">YOY, Source: STR, str.com</text></g></g></svg>