<svg width="2102" height="1094" xmlns="http://www.w3.org/2000/svg" xmlns:xlink="http://www.w3.org/1999/xlink" xml:space="preserve" overflow="hidden"><defs><filter id="fx0" x="-10%" y="-10%" width="120%" height="120%" filterUnits="userSpaceOnUse" primitiveUnits="userSpaceOnUse"><feComponentTransfer color-interpolation-filters="sRGB"><feFuncR type="discrete" tableValues="0 0"/><feFuncG type="discrete" tableValues="0 0"/><feFuncB type="discrete" tableValues="0 0"/><feFuncA type="linear" slope="0.501961" intercept="0"/></feComponentTransfer><feGaussianBlur stdDeviation="4.58333 4.58333"/></filter><filter id="fx1" x="-10%" y="-10%" width="120%" height="120%" filterUnits="userSpaceOnUse" primitiveUnits="userSpaceOnUse"><feComponentTransfer color-interpolation-filters="sRGB"><feFuncR type="discrete" tableValues="0 0"/><feFuncG type="discrete" tableValues="0 0"/><feFuncB type="discrete" tableValues="0 0"/><feFuncA type="linear" slope="0.501961" intercept="0"/></feComponentTransfer><feGaussianBlur stdDeviation="4.58333 4.58333"/></filter><clipPath id="clip2"><rect x="1806" y="24065" width="2102" height="1094"/></clipPath><clipPath id="clip3"><rect x="1974" y="24322" width="1881" height="680"/></clipPath><clipPath id="clip4"><rect x="1974" y="24322" width="1881" height="680"/></clipPath></defs><g clip-path="url(#clip2)" transform="translate(-1806 -24065)"><rect x="1807" y="24066" width="2099" height="1091" fill="#FFFFFF"/><g><rect x="1974" y="24322" width="1878" height="677" fill="#FFFFFF"/></g><g><path d="M1974.5 24547.5 3851.5 24547.5" stroke="#C00000" stroke-width="3.4375" stroke-linejoin="round" stroke-miterlimit="10" fill="none" fill-rule="evenodd"/></g><g clip-path="url(#clip3)"><g filter="url(#fx0)" transform="translate(1966 24347)"><g><path d="M19.9819 275.894C44.8767 264.34 69.7716 260.37 94.6664 241.232 119.561 222.094 144.456 152.576 169.35 161.068 194.245 169.559 219.14 301.605 244.035 292.18 268.929 282.754 293.824 110.287 318.719 104.512 343.613 98.7363 368.508 242.441 393.403 257.527 418.298 272.614 443.193 200.663 468.087 195.033 492.982 189.403 517.877 205.11 542.772 223.747 567.666 242.384 592.561 312.978 617.456 306.853 642.35 300.727 667.245 213 692.14 186.993 717.035 160.987 741.929 159.289 766.824 150.815 791.719 142.341 816.613 126.759 841.508 136.148 866.403 145.537 891.298 198.926 916.193 207.148 941.087 215.37 965.982 194.256 990.877 185.482 1015.77 176.707 1040.67 160.563 1065.56 154.5 1090.46 148.438 1115.35 150.14 1140.25 149.108 1164.79 148.09 1190.38 120.194 1214.93 148.305 1239.82 176.815 1264.72 306.353 1289.61 320.168 1314.51 333.982 1339.4 281.223 1364.3 231.193 1389.19 181.162 1426.53 55.1839 1438.98 19.9824" stroke="#FFB226" stroke-width="9" stroke-linecap="round" stroke-linejoin="round" stroke-miterlimit="10" fill="none"/></g></g></g><g clip-path="url(#clip4)"><g filter="url(#fx1)" transform="translate(1966 24407)"><g><path d="M19.9819 142.925C44.8767 138.467 69.7716 133.848 94.6664 129.551 119.561 125.255 144.456 98.9962 169.35 117.146 194.245 135.295 219.14 247.982 244.035 238.447 268.929 228.913 293.824 71.9747 318.719 59.9367 343.613 47.8983 368.508 154.966 393.403 166.218 418.298 177.47 443.193 126.701 468.087 127.449 492.982 128.197 517.877 168.077 542.772 170.705 567.666 173.334 592.561 153.464 617.456 143.222 642.35 132.979 667.245 115.782 692.14 109.252 717.035 102.721 741.929 108.588 766.824 104.039 791.719 99.4887 816.613 74.129 841.508 81.954 866.403 89.7787 891.298 153.943 916.193 150.987 941.087 148.031 965.982 77.4453 990.877 64.2164 1015.77 50.9871 1040.67 65.741 1065.56 71.6128 1090.46 77.4843 1115.35 106.889 1140.25 99.4472 1165.14 92.0046 1190.03 18.9824 1214.93 26.9588 1239.82 34.9348 1264.72 132.979 1289.61 147.305 1314.51 161.631 1339.4 134.27 1364.3 112.914 1389.19 91.5582 1426.53 34.7936 1438.98 19.1695" stroke="#000000" stroke-width="9" stroke-linecap="round" stroke-linejoin="round" stroke-miterlimit="10" fill="none"/></g></g></g><g><path d="M1979.5 24616.4C2004.39 24604.9 2029.29 24600.9 2054.18 24581.8 2079.08 24562.6 2103.97 24493.1 2128.87 24501.6 2153.76 24510.1 2178.66 24642.1 2203.55 24632.7 2228.45 24623.3 2253.34 24450.8 2278.24 24445 2303.13 24439.3 2328.03 24583 2352.92 24598 2377.82 24613.1 2402.71 24541.2 2427.61 24535.6 2452.5 24529.9 2477.4 24545.6 2502.29 24564.3 2527.18 24582.9 2552.08 24653.5 2576.97 24647.4 2601.87 24641.2 2626.76 24553.5 2651.66 24527.5 2676.55 24501.5 2701.45 24499.8 2726.34 24491.3 2751.24 24482.9 2776.13 24467.3 2801.03 24476.7 2825.92 24486.1 2850.82 24539.4 2875.71 24547.7 2900.61 24555.9 2925.5 24534.8 2950.4 24526 2975.29 24517.2 3000.18 24501.1 3025.08 24495 3049.97 24489 3074.87 24490.7 3099.76 24489.6 3124.31 24488.6 3149.9 24460.7 3174.45 24488.8 3199.34 24517.3 3224.24 24646.9 3249.13 24660.7 3274.03 24674.5 3298.92 24621.7 3323.82 24571.7 3348.71 24521.7 3386.05 24395.7 3398.5 24360.5" stroke="#FFB226" stroke-width="9.16667" stroke-linecap="round" stroke-linejoin="round" stroke-miterlimit="10" fill="none"/></g><g><path d="M1979.5 24543.4C2004.39 24539 2029.29 24534.4 2054.18 24530.1 2079.08 24525.8 2103.97 24499.5 2128.87 24517.7 2153.76 24535.8 2178.66 24648.5 2203.55 24639 2228.45 24629.4 2253.34 24472.5 2278.24 24460.5 2303.13 24448.4 2328.03 24555.5 2352.92 24566.7 2377.82 24578 2402.71 24527.2 2427.61 24528 2452.5 24528.7 2477.4 24568.6 2502.29 24571.2 2527.18 24573.9 2552.08 24554 2576.97 24543.7 2601.87 24533.5 2626.76 24516.3 2651.66 24509.8 2676.55 24503.2 2701.45 24509.1 2726.34 24504.6 2751.24 24500 2776.13 24474.6 2801.03 24482.5 2825.92 24490.3 2850.82 24554.5 2875.71 24551.5 2900.61 24548.5 2925.5 24478 2950.4 24464.7 2975.29 24451.5 3000.18 24466.3 3025.08 24472.1 3049.97 24478 3074.87 24507.4 3099.76 24500 3124.66 24492.5 3149.55 24419.5 3174.45 24427.5 3199.34 24435.5 3224.24 24533.5 3249.13 24547.8 3274.03 24562.1 3298.92 24534.8 3323.82 24513.4 3348.71 24492.1 3386.05 24435.3 3398.5 24419.7" stroke="#000000" stroke-width="9.16667" stroke-linecap="round" stroke-linejoin="round" stroke-miterlimit="10" fill="none"/></g><g><text font-family="Inter,Inter_MSFontService,sans-serif" font-weight="400" font-size="32" transform="matrix(1 0 0 1 1904.63 25009)">80</text></g><g><text font-family="Inter,Inter_MSFontService,sans-serif" font-weight="400" font-size="32" transform="matrix(1 0 0 1 1904.4 24783)">90</text></g><g><text font-family="Inter,Inter_MSFontService,sans-serif" font-weight="400" font-size="32" transform="matrix(1 0 0 1 1889.46 24558)">100</text></g><g><text font-family="Inter,Inter_MSFontService,sans-serif" font-weight="400" font-size="32" transform="matrix(1 0 0 1 1894.61 24332)">110</text></g><g><text font-family="Inter,Inter_MSFontService,sans-serif" font-weight="400" font-size="32" transform="matrix(0.707107 -0.707107 0.707107 0.707107 1941.26 25088)">12/6</text></g><g><text font-family="Inter,Inter_MSFontService,sans-serif" font-weight="400" font-size="32" transform="matrix(0.707107 -0.707107 0.707107 0.707107 2005.11 25099)">12/13</text></g><g><text font-family="Inter,Inter_MSFontService,sans-serif" font-weight="400" font-size="32" transform="matrix(0.707107 -0.707107 0.707107 0.707107 2076.85 25102)">12/20</text></g><g><text font-family="Inter,Inter_MSFontService,sans-serif" font-weight="400" font-size="32" transform="matrix(0.707107 -0.707107 0.707107 0.707107 2152.75 25101)">12/27</text></g><g><text font-family="Inter,Inter_MSFontService,sans-serif" font-weight="400" font-size="32" transform="matrix(0.707107 -0.707107 0.707107 0.707107 2253.39 25075)">1/3</text></g><g><text font-family="Inter,Inter_MSFontService,sans-serif" font-weight="400" font-size="32" transform="matrix(0.707107 -0.707107 0.707107 0.707107 2317.78 25085)">1/10</text></g><g><text font-family="Inter,Inter_MSFontService,sans-serif" font-weight="400" font-size="32" transform="matrix(0.707107 -0.707107 0.707107 0.707107 2393.69 25084)">1/17</text></g><g><text font-family="Inter,Inter_MSFontService,sans-serif" font-weight="400" font-size="32" transform="matrix(0.707107 -0.707107 0.707107 0.707107 2463.55 25088)">1/24</text></g><g><text font-family="Inter,Inter_MSFontService,sans-serif" font-weight="400" font-size="32" transform="matrix(0.707107 -0.707107 0.707107 0.707107 2541.54 25085)">1/31</text></g><g><text font-family="Inter,Inter_MSFontService,sans-serif" font-weight="400" font-size="32" transform="matrix(0.707107 -0.707107 0.707107 0.707107 2625.05 25076)">2/7</text></g><g><text font-family="Inter,Inter_MSFontService,sans-serif" font-weight="400" font-size="32" transform="matrix(0.707107 -0.707107 0.707107 0.707107 2687.56 25088)">2/14</text></g><g><text font-family="Inter,Inter_MSFontService,sans-serif" font-weight="400" font-size="32" transform="matrix(0.707107 -0.707107 0.707107 0.707107 2763.08 25088)">2/21</text></g><g><text font-family="Inter,Inter_MSFontService,sans-serif" font-weight="400" font-size="32" transform="matrix(0.707107 -0.707107 0.707107 0.707107 2834.3 25091)">2/28</text></g><g><text font-family="Inter,Inter_MSFontService,sans-serif" font-weight="400" font-size="32" transform="matrix(0.707107 -0.707107 0.707107 0.707107 2923.02 25077)">3/7</text></g><g><text font-family="Inter,Inter_MSFontService,sans-serif" font-weight="400" font-size="32" transform="matrix(0.707107 -0.707107 0.707107 0.707107 2985.54 25089)">3/14</text></g><g><text font-family="Inter,Inter_MSFontService,sans-serif" font-weight="400" font-size="32" transform="matrix(0.707107 -0.707107 0.707107 0.707107 3061.05 25088)">3/21</text></g><g><text font-family="Inter,Inter_MSFontService,sans-serif" font-weight="400" font-size="32" transform="matrix(0.707107 -0.707107 0.707107 0.707107 3132.27 25092)">3/28</text></g><g><text font-family="Inter,Inter_MSFontService,sans-serif" font-weight="400" font-size="32" transform="matrix(0.707107 -0.707107 0.707107 0.707107 3219.96 25079)">4/4</text></g><g><text font-family="Inter,Inter_MSFontService,sans-serif" font-weight="400" font-size="32" transform="matrix(0.707107 -0.707107 0.707107 0.707107 3288.13 25085)">4/11</text></g><g><text font-family="Inter,Inter_MSFontService,sans-serif" font-weight="400" font-size="32" transform="matrix(0.707107 -0.707107 0.707107 0.707107 3359.35 25089)">4/18</text></g><g><text font-family="Inter,Inter_MSFontService,sans-serif" font-weight="400" font-size="32" transform="matrix(0.707107 -0.707107 0.707107 0.707107 3431.03 25092)">4/25</text></g><g><text font-family="Inter,Inter_MSFontService,sans-serif" font-weight="400" font-size="32" transform="matrix(0.707107 -0.707107 0.707107 0.707107 3520.27 25077)">5/2</text></g><g><text font-family="Inter,Inter_MSFontService,sans-serif" font-weight="400" font-size="32" transform="matrix(0.707107 -0.707107 0.707107 0.707107 3594.52 25078)">5/9</text></g><g><text font-family="Inter,Inter_MSFontService,sans-serif" font-weight="400" font-size="32" transform="matrix(0.707107 -0.707107 0.707107 0.707107 3658.66 25088)">5/16</text></g><g><text font-family="Inter,Inter_MSFontService,sans-serif" font-weight="400" font-size="32" transform="matrix(0.707107 -0.707107 0.707107 0.707107 3729.84 25092)">5/23</text></g><g><text font-family="Inter,Inter_MSFontService,sans-serif" font-weight="400" font-size="32" transform="matrix(0.707107 -0.707107 0.707107 0.707107 3804.06 25092)">5/30</text></g><g><text font-family="Inter Medium,Inter Medium_MSFontService,sans-serif" font-weight="700" font-size="46" transform="matrix(1 0 0 1 1891.17 24157)">U.S. Hotel Occupancy and ADR Recovery Levels</text></g><g><path d="M1882.5 24256.5 1970.5 24256.5" stroke="#FFB226" stroke-width="9.16667" stroke-linecap="round" stroke-linejoin="round" stroke-miterlimit="10" fill="none" fill-rule="evenodd"/></g><g><text font-family="Inter Medium,Inter Medium_MSFontService,sans-serif" font-weight="500" font-size="37" transform="matrix(1 0 0 1 1979.35 24268)">Occ Index</text></g><g><path d="M2206.5 24256.5 2294.5 24256.5" stroke="#000000" stroke-width="9.16667" stroke-linecap="round" stroke-linejoin="round" stroke-miterlimit="10" fill="none" fill-rule="evenodd"/></g><g><text font-family="Inter Medium,Inter Medium_MSFontService,sans-serif" font-weight="500" font-size="37" transform="matrix(1 0 0 1 2303.38 24268)">ADR Index</text></g><rect x="1807.5" y="24066.5" width="2099" height="1091" stroke="#D9D9D9" stroke-width="3.4375" stroke-linejoin="round" stroke-miterlimit="10" fill="none"/><g><text fill="#7F7F7F" font-family="Inter,Inter_MSFontService,sans-serif" font-weight="400" font-size="32" transform="matrix(1 0 0 1 1888.96 24213)">YOY, Source: STR, str.com</text></g></g></svg>