<svg width="2110" height="1067" xmlns="http://www.w3.org/2000/svg" xmlns:xlink="http://www.w3.org/1999/xlink" xml:space="preserve" overflow="hidden"><defs><filter id="fx0" x="-10%" y="-10%" width="120%" height="120%" filterUnits="userSpaceOnUse" primitiveUnits="userSpaceOnUse"><feComponentTransfer color-interpolation-filters="sRGB"><feFuncR type="discrete" tableValues="0 0"/><feFuncG type="discrete" tableValues="0 0"/><feFuncB type="discrete" tableValues="0 0"/><feFuncA type="linear" slope="0.501961" intercept="0"/></feComponentTransfer><feGaussianBlur stdDeviation="4.58333 4.58333"/></filter><filter id="fx1" x="-10%" y="-10%" width="120%" height="120%" filterUnits="userSpaceOnUse" primitiveUnits="userSpaceOnUse"><feComponentTransfer color-interpolation-filters="sRGB"><feFuncR type="discrete" tableValues="0 0"/><feFuncG type="discrete" tableValues="0 0"/><feFuncB type="discrete" tableValues="0 0"/><feFuncA type="linear" slope="0.501961" intercept="0"/></feComponentTransfer><feGaussianBlur stdDeviation="4.58333 4.58333"/></filter><clipPath id="clip2"><rect x="1813" y="23448" width="2110" height="1067"/></clipPath><clipPath id="clip3"><rect x="1981" y="23699" width="1888" height="663"/></clipPath><clipPath id="clip4"><rect x="1981" y="23699" width="1888" height="663"/></clipPath></defs><g clip-path="url(#clip2)" transform="translate(-1813 -23448)"><rect x="1814" y="23449" width="2107" height="1064" fill="#FFFFFF"/><g><rect x="1982" y="23699" width="1884" height="660" fill="#FFFFFF"/></g><g><path d="M1981.5 23919.5 3866.5 23919.5" stroke="#C00000" stroke-width="3.4375" stroke-linejoin="round" stroke-miterlimit="10" fill="none" fill-rule="evenodd"/></g><g clip-path="url(#clip3)"><g filter="url(#fx0)" transform="translate(1974 23806)"><g><path d="M19.9819 186.805C44.9609 175.534 69.9402 171.661 94.9196 152.992 119.899 134.322 144.878 66.5053 169.857 74.7887 194.836 83.0721 219.815 211.888 244.794 202.692 269.773 193.497 294.752 25.2503 319.732 19.6166 344.711 13.9824 369.69 154.17 394.669 168.888 419.648 183.606 444.628 113.415 469.607 107.923 494.586 102.431 519.565 117.754 544.544 135.935 569.523 154.115 594.503 222.982 619.482 217.007 644.461 211.031 669.44 125.449 694.419 100.079 719.398 74.7094 744.378 73.0535 769.357 64.7867 794.336 56.5198 819.315 41.3191 844.294 50.4784 869.273 59.6373 894.252 111.72 919.232 119.741 944.211 127.762 969.19 107.165 994.169 98.6049 1019.15 90.0446 1044.13 74.2956 1069.11 68.3818 1094.09 62.4676 1119.06 64.1285 1144.04 63.1214 1169.02 62.114 1206.49 62.469 1218.98 62.3385" stroke="#FFB226" stroke-width="9" stroke-linecap="round" stroke-linejoin="round" stroke-miterlimit="10" fill="none"/></g></g></g><g clip-path="url(#clip4)"><g filter="url(#fx1)" transform="translate(1974 23788)"><g><path d="M19.9819 132.788C44.9609 128.452 69.9402 123.958 94.9196 119.779 119.899 115.6 144.878 90.0567 169.857 107.712 194.836 125.366 219.815 234.982 244.794 225.707 269.773 216.432 294.752 63.7716 319.732 52.0615 344.711 40.3514 369.69 144.501 394.669 155.447 419.648 166.392 444.628 117.006 469.607 117.734 494.586 118.461 519.565 157.254 544.544 159.812 569.523 162.369 594.503 143.04 619.482 133.077 644.461 123.113 669.44 106.385 694.419 100.033 719.398 93.68 744.378 99.3869 769.357 94.9615 794.336 90.5358 819.315 65.8671 844.294 73.4788 869.273 81.09 894.252 143.506 919.232 140.631 944.211 137.755 969.19 69.093 994.169 56.2248 1019.15 43.3562 1044.13 57.7076 1069.11 63.4196 1094.09 69.1312 1119.06 97.7346 1144.04 90.4951 1169.02 83.2554 1206.49 31.7343 1218.98 19.9824" stroke="#000000" stroke-width="9" stroke-linecap="round" stroke-linejoin="round" stroke-miterlimit="10" fill="none"/></g></g></g><g><path d="M1987.5 23986.3C2012.48 23975.1 2037.46 23971.2 2062.44 23952.5 2087.42 23933.8 2112.4 23866 2137.38 23874.3 2162.35 23882.6 2187.33 24011.4 2212.31 24002.2 2237.29 23993 2262.27 23824.8 2287.25 23819.1 2312.23 23813.5 2337.21 23953.7 2362.19 23968.4 2387.17 23983.1 2412.15 23912.9 2437.13 23907.4 2462.1 23901.9 2487.08 23917.3 2512.06 23935.5 2537.04 23953.6 2562.02 24022.5 2587 24016.5 2611.98 24010.5 2636.96 23925 2661.94 23899.6 2686.92 23874.2 2711.9 23872.6 2736.88 23864.3 2761.85 23856 2786.83 23840.8 2811.81 23850 2836.79 23859.2 2861.77 23911.2 2886.75 23919.3 2911.73 23927.3 2936.71 23906.7 2961.69 23898.1 2986.67 23889.6 3011.65 23873.8 3036.62 23867.9 3061.6 23862 3086.58 23863.6 3111.56 23862.6 3136.54 23861.6 3174.01 23862 3186.5 23861.9" stroke="#FFB226" stroke-width="9.16667" stroke-linecap="round" stroke-linejoin="round" stroke-miterlimit="10" fill="none"/></g><g><path d="M1987.5 23914.3C2012.48 23910 2037.46 23905.5 2062.44 23901.3 2087.42 23897.1 2112.4 23871.6 2137.38 23889.2 2162.35 23906.9 2187.33 24016.5 2212.31 24007.2 2237.29 23997.9 2262.27 23845.3 2287.25 23833.6 2312.23 23821.9 2337.21 23926 2362.19 23937 2387.17 23947.9 2412.15 23898.5 2437.13 23899.3 2462.1 23900 2487.08 23938.8 2512.06 23941.3 2537.04 23943.9 2562.02 23924.6 2587 23914.6 2611.98 23904.6 2636.96 23887.9 2661.94 23881.6 2686.92 23875.2 2711.9 23880.9 2736.88 23876.5 2761.85 23872.1 2786.83 23847.4 2811.81 23855 2836.79 23862.6 2861.77 23925 2886.75 23922.1 2911.73 23919.3 2936.71 23850.6 2961.69 23837.7 2986.67 23824.9 3011.65 23839.2 3036.62 23844.9 3061.6 23850.6 3086.58 23879.3 3111.56 23872 3136.54 23864.8 3174.01 23813.3 3186.5 23801.5" stroke="#000000" stroke-width="9.16667" stroke-linecap="round" stroke-linejoin="round" stroke-miterlimit="10" fill="none"/></g><g><text font-family="Inter,Inter_MSFontService,sans-serif" font-weight="400" font-size="32" transform="matrix(1 0 0 1 1912.06 24369)">80</text></g><g><text font-family="Inter,Inter_MSFontService,sans-serif" font-weight="400" font-size="32" transform="matrix(1 0 0 1 1912.01 24149)">90</text></g><g><text font-family="Inter,Inter_MSFontService,sans-serif" font-weight="400" font-size="32" transform="matrix(1 0 0 1 1898.63 23929)">100</text></g><g><text font-family="Inter,Inter_MSFontService,sans-serif" font-weight="400" font-size="32" transform="matrix(1 0 0 1 1905.82 23709)">110</text></g><g><text font-family="Inter,Inter_MSFontService,sans-serif" font-weight="400" font-size="32" transform="matrix(0.707107 -0.707107 0.707107 0.707107 1950.17 24447)">12/6</text></g><g><text font-family="Inter,Inter_MSFontService,sans-serif" font-weight="400" font-size="32" transform="matrix(0.707107 -0.707107 0.707107 0.707107 2015.95 24456)">12/13</text></g><g><text font-family="Inter,Inter_MSFontService,sans-serif" font-weight="400" font-size="32" transform="matrix(0.707107 -0.707107 0.707107 0.707107 2085.99 24461)">12/20</text></g><g><text font-family="Inter,Inter_MSFontService,sans-serif" font-weight="400" font-size="32" transform="matrix(0.707107 -0.707107 0.707107 0.707107 2162.42 24460)">12/27</text></g><g><text font-family="Inter,Inter_MSFontService,sans-serif" font-weight="400" font-size="32" transform="matrix(0.707107 -0.707107 0.707107 0.707107 2263.87 24433)">1/3</text></g><g><text font-family="Inter,Inter_MSFontService,sans-serif" font-weight="400" font-size="32" transform="matrix(0.707107 -0.707107 0.707107 0.707107 2329.31 24443)">1/10</text></g><g><text font-family="Inter,Inter_MSFontService,sans-serif" font-weight="400" font-size="32" transform="matrix(0.707107 -0.707107 0.707107 0.707107 2405.74 24441)">1/17</text></g><g><text font-family="Inter,Inter_MSFontService,sans-serif" font-weight="400" font-size="32" transform="matrix(0.707107 -0.707107 0.707107 0.707107 2474.26 24448)">1/24</text></g><g><text font-family="Inter,Inter_MSFontService,sans-serif" font-weight="400" font-size="32" transform="matrix(0.707107 -0.707107 0.707107 0.707107 2554.47 24443)">1/31</text></g><g><text font-family="Inter,Inter_MSFontService,sans-serif" font-weight="400" font-size="32" transform="matrix(0.707107 -0.707107 0.707107 0.707107 2635.21 24437)">2/7</text></g><g><text font-family="Inter,Inter_MSFontService,sans-serif" font-weight="400" font-size="32" transform="matrix(0.707107 -0.707107 0.707107 0.707107 2699.13 24448)">2/14</text></g><g><text font-family="Inter,Inter_MSFontService,sans-serif" font-weight="400" font-size="32" transform="matrix(0.707107 -0.707107 0.707107 0.707107 2774.89 24447)">2/21</text></g><g><text font-family="Inter,Inter_MSFontService,sans-serif" font-weight="400" font-size="32" transform="matrix(0.707107 -0.707107 0.707107 0.707107 2845.03 24452)">2/28</text></g><g><text font-family="Inter,Inter_MSFontService,sans-serif" font-weight="400" font-size="32" transform="matrix(0.707107 -0.707107 0.707107 0.707107 2934.85 24437)">3/7</text></g><g><text font-family="Inter,Inter_MSFontService,sans-serif" font-weight="400" font-size="32" transform="matrix(0.707107 -0.707107 0.707107 0.707107 2998.76 24448)">3/14</text></g><g><text font-family="Inter,Inter_MSFontService,sans-serif" font-weight="400" font-size="32" transform="matrix(0.707107 -0.707107 0.707107 0.707107 3074.53 24447)">3/21</text></g><g><text font-family="Inter,Inter_MSFontService,sans-serif" font-weight="400" font-size="32" transform="matrix(0.707107 -0.707107 0.707107 0.707107 3144.67 24452)">3/28</text></g><g><text font-family="Inter,Inter_MSFontService,sans-serif" font-weight="400" font-size="32" transform="matrix(0.707107 -0.707107 0.707107 0.707107 3232.22 24439)">4/4</text></g><g><text font-family="Inter,Inter_MSFontService,sans-serif" font-weight="400" font-size="32" transform="matrix(0.707107 -0.707107 0.707107 0.707107 3303.38 24443)">4/11</text></g><g><text font-family="Inter,Inter_MSFontService,sans-serif" font-weight="400" font-size="32" transform="matrix(0.707107 -0.707107 0.707107 0.707107 3373.52 24448)">4/18</text></g><g><text font-family="Inter,Inter_MSFontService,sans-serif" font-weight="400" font-size="32" transform="matrix(0.707107 -0.707107 0.707107 0.707107 3444.42 24452)">4/25</text></g><g><text font-family="Inter,Inter_MSFontService,sans-serif" font-weight="400" font-size="32" transform="matrix(0.707107 -0.707107 0.707107 0.707107 3534.03 24437)">5/2</text></g><g><text font-family="Inter,Inter_MSFontService,sans-serif" font-weight="400" font-size="32" transform="matrix(0.707107 -0.707107 0.707107 0.707107 3608.75 24438)">5/9</text></g><g><text font-family="Inter,Inter_MSFontService,sans-serif" font-weight="400" font-size="32" transform="matrix(0.707107 -0.707107 0.707107 0.707107 3674.49 24447)">5/16</text></g><g><text font-family="Inter,Inter_MSFontService,sans-serif" font-weight="400" font-size="32" transform="matrix(0.707107 -0.707107 0.707107 0.707107 3744.87 24451)">5/23</text></g><g><text font-family="Inter,Inter_MSFontService,sans-serif" font-weight="400" font-size="32" transform="matrix(0.707107 -0.707107 0.707107 0.707107 3819.36 24452)">5/30</text></g><g><text font-family="Inter Medium,Inter Medium_MSFontService,sans-serif" font-weight="700" font-size="46" transform="matrix(1 0 0 1 1898.49 23539)">U.S. Hotel Occupancy and ADR Recovery Levels</text></g><g><path d="M1889.5 23634.5 1977.5 23634.5" stroke="#FFB226" stroke-width="9.16667" stroke-linecap="round" stroke-linejoin="round" stroke-miterlimit="10" fill="none" fill-rule="evenodd"/></g><g><text font-family="Inter Medium,Inter Medium_MSFontService,sans-serif" font-weight="500" font-size="37" transform="matrix(1 0 0 1 1986.82 23647)">Occ Index</text></g><g><path d="M2214.5 23634.5 2302.5 23634.5" stroke="#000000" stroke-width="9.16667" stroke-linecap="round" stroke-linejoin="round" stroke-miterlimit="10" fill="none" fill-rule="evenodd"/></g><g><text font-family="Inter Medium,Inter Medium_MSFontService,sans-serif" font-weight="500" font-size="37" transform="matrix(1 0 0 1 2312.07 23647)">ADR Index</text></g><rect x="1814.5" y="23449.5" width="2107" height="1064" stroke="#D9D9D9" stroke-width="3.4375" stroke-linejoin="round" stroke-miterlimit="10" fill="none"/><g><text fill="#7F7F7F" font-family="Inter,Inter_MSFontService,sans-serif" font-weight="400" font-size="32" transform="matrix(1 0 0 1 1896.2 23594)">YOY, Source: STR, str.com</text></g></g></svg>