<svg width="2110" height="1067" xmlns="http://www.w3.org/2000/svg" xmlns:xlink="http://www.w3.org/1999/xlink" xml:space="preserve" overflow="hidden"><defs><filter id="fx0" x="-10%" y="-10%" width="120%" height="120%" filterUnits="userSpaceOnUse" primitiveUnits="userSpaceOnUse"><feComponentTransfer color-interpolation-filters="sRGB"><feFuncR type="discrete" tableValues="0 0"/><feFuncG type="discrete" tableValues="0 0"/><feFuncB type="discrete" tableValues="0 0"/><feFuncA type="linear" slope="0.501961" intercept="0"/></feComponentTransfer><feGaussianBlur stdDeviation="4.58333 4.58333"/></filter><filter id="fx1" x="-10%" y="-10%" width="120%" height="120%" filterUnits="userSpaceOnUse" primitiveUnits="userSpaceOnUse"><feComponentTransfer color-interpolation-filters="sRGB"><feFuncR type="discrete" tableValues="0 0"/><feFuncG type="discrete" tableValues="0 0"/><feFuncB type="discrete" tableValues="0 0"/><feFuncA type="linear" slope="0.501961" intercept="0"/></feComponentTransfer><feGaussianBlur stdDeviation="4.58333 4.58333"/></filter><clipPath id="clip2"><rect x="1813" y="23448" width="2110" height="1067"/></clipPath><clipPath id="clip3"><rect x="1981" y="23699" width="1888" height="663"/></clipPath><clipPath id="clip4"><rect x="1981" y="23699" width="1888" height="663"/></clipPath></defs><g clip-path="url(#clip2)" transform="translate(-1813 -23448)"><rect x="1814" y="23449" width="2107" height="1064" fill="#FFFFFF"/><g><rect x="1982" y="23699" width="1884" height="660" fill="#FFFFFF"/></g><g><path d="M1981.5 23919.5 3866.5 23919.5" stroke="#C00000" stroke-width="3.4375" stroke-linejoin="round" stroke-miterlimit="10" fill="none" fill-rule="evenodd"/></g><g clip-path="url(#clip3)"><g filter="url(#fx0)" transform="translate(1977 23720)"><g><path d="M19.9819 186.086C58.8793 174.28 97.7764 158.965 136.674 150.669 175.572 142.373 214.469 127.119 253.367 136.311 292.264 145.502 331.162 197.768 370.059 205.817 408.956 213.866 447.854 193.196 486.751 184.606 525.649 176.016 564.546 160.212 603.443 154.277 642.341 148.342 681.238 150.009 720.136 148.998 759.033 147.987 797.931 120.302 836.828 148.212 875.726 176.122 914.623 302.935 953.52 316.459 992.418 329.983 1031.32 278.334 1070.21 229.356 1109.11 180.378 1148.01 41.1959 1186.9 22.5893 1225.8 3.98242 1264.7 91.0892 1303.6 117.716 1342.49 144.343 1381.39 168.804 1420.29 182.35 1459.19 195.895 1517.53 196.214 1536.98 198.988" stroke="#FFB226" stroke-width="9" stroke-linecap="round" stroke-linejoin="round" stroke-miterlimit="10" fill="none"/></g></g></g><g clip-path="url(#clip4)"><g filter="url(#fx1)" transform="translate(1977 23778)"><g><path d="M19.9819 110.091C58.8793 108.403 97.7764 109.446 136.674 105.026 175.572 100.606 214.469 75.9664 253.367 83.569 292.264 91.1712 331.162 153.513 370.059 150.641 408.956 147.769 447.854 79.1884 486.751 66.3355 525.649 53.4822 564.546 67.8165 603.443 73.5217 642.341 79.2265 681.238 107.796 720.136 100.565 759.033 93.334 797.931 22.386 836.828 30.1361 875.726 37.8857 914.623 133.145 953.52 147.064 992.418 160.983 1031.32 134.399 1070.21 113.65 1109.11 92.9004 1148.01 33.1524 1186.9 22.5676 1225.8 11.9824 1264.7 37.1055 1303.6 50.1396 1342.49 63.1735 1381.39 91.6969 1420.29 100.771 1459.19 109.844 1517.53 103.946 1536.98 104.582" stroke="#000000" stroke-width="9" stroke-linecap="round" stroke-linejoin="round" stroke-miterlimit="10" fill="none"/></g></g></g><g><path d="M1990.5 23899.6C2029.4 23887.8 2068.29 23872.5 2107.19 23864.2 2146.09 23855.9 2184.99 23840.6 2223.89 23849.8 2262.78 23859 2301.68 23911.3 2340.58 23919.3 2379.47 23927.4 2418.37 23906.7 2457.27 23898.1 2496.17 23889.5 2535.06 23873.7 2573.96 23867.8 2612.86 23861.9 2651.76 23863.5 2690.65 23862.5 2729.55 23861.5 2768.45 23833.8 2807.35 23861.7 2846.24 23889.6 2885.14 24016.5 2924.04 24030 2962.94 24043.5 3001.83 23991.9 3040.73 23942.9 3079.63 23893.9 3118.53 23754.7 3157.42 23736.1 3196.32 23717.5 3235.22 23804.6 3274.12 23831.2 3313.01 23857.9 3351.91 23882.3 3390.81 23895.9 3429.71 23909.4 3488.05 23909.7 3507.5 23912.5" stroke="#FFB226" stroke-width="9.16667" stroke-linecap="round" stroke-linejoin="round" stroke-miterlimit="10" fill="none"/></g><g><path d="M1990.5 23881.6C2029.4 23879.9 2068.29 23881 2107.19 23876.5 2146.09 23872.1 2184.99 23847.5 2223.89 23855.1 2262.78 23862.7 2301.68 23925 2340.58 23922.2 2379.47 23919.3 2418.37 23850.7 2457.27 23837.9 2496.17 23825 2535.06 23839.3 2573.96 23845 2612.86 23850.7 2651.76 23879.3 2690.65 23872.1 2729.55 23864.9 2768.45 23793.9 2807.35 23801.7 2846.24 23809.4 2885.14 23904.7 2924.04 23918.6 2962.94 23932.5 3001.83 23905.9 3040.73 23885.2 3079.63 23864.4 3118.53 23804.7 3157.42 23794.1 3196.32 23783.5 3235.22 23808.6 3274.12 23821.7 3313.01 23834.7 3351.91 23863.2 3390.81 23872.3 3429.71 23881.4 3488.05 23875.5 3507.5 23876.1" stroke="#000000" stroke-width="9.16667" stroke-linecap="round" stroke-linejoin="round" stroke-miterlimit="10" fill="none"/></g><g><text font-family="Inter,Inter_MSFontService,sans-serif" font-weight="400" font-size="32" transform="matrix(1 0 0 1 1912.06 24369)">80</text></g><g><text font-family="Inter,Inter_MSFontService,sans-serif" font-weight="400" font-size="32" transform="matrix(1 0 0 1 1912.01 24149)">90</text></g><g><text font-family="Inter,Inter_MSFontService,sans-serif" font-weight="400" font-size="32" transform="matrix(1 0 0 1 1898.63 23929)">100</text></g><g><text font-family="Inter,Inter_MSFontService,sans-serif" font-weight="400" font-size="32" transform="matrix(1 0 0 1 1905.82 23709)">110</text></g><g><text font-family="Inter,Inter_MSFontService,sans-serif" font-weight="400" font-size="32" transform="matrix(0.707107 -0.707107 0.707107 0.707107 1963.6 24437)">2/7</text></g><g><text font-family="Inter,Inter_MSFontService,sans-serif" font-weight="400" font-size="32" transform="matrix(0.707107 -0.707107 0.707107 0.707107 2069.31 24448)">2/14</text></g><g><text font-family="Inter,Inter_MSFontService,sans-serif" font-weight="400" font-size="32" transform="matrix(0.707107 -0.707107 0.707107 0.707107 2186.86 24447)">2/21</text></g><g><text font-family="Inter,Inter_MSFontService,sans-serif" font-weight="400" font-size="32" transform="matrix(0.707107 -0.707107 0.707107 0.707107 2298.79 24452)">2/28</text></g><g><text font-family="Inter,Inter_MSFontService,sans-serif" font-weight="400" font-size="32" transform="matrix(0.707107 -0.707107 0.707107 0.707107 2430.4 24437)">3/7</text></g><g><text font-family="Inter,Inter_MSFontService,sans-serif" font-weight="400" font-size="32" transform="matrix(0.707107 -0.707107 0.707107 0.707107 2536.1 24448)">3/14</text></g><g><text font-family="Inter,Inter_MSFontService,sans-serif" font-weight="400" font-size="32" transform="matrix(0.707107 -0.707107 0.707107 0.707107 2653.66 24447)">3/21</text></g><g><text font-family="Inter,Inter_MSFontService,sans-serif" font-weight="400" font-size="32" transform="matrix(0.707107 -0.707107 0.707107 0.707107 2765.59 24452)">3/28</text></g><g><text font-family="Inter,Inter_MSFontService,sans-serif" font-weight="400" font-size="32" transform="matrix(0.707107 -0.707107 0.707107 0.707107 2894.92 24439)">4/4</text></g><g><text font-family="Inter,Inter_MSFontService,sans-serif" font-weight="400" font-size="32" transform="matrix(0.707107 -0.707107 0.707107 0.707107 3007.87 24443)">4/11</text></g><g><text font-family="Inter,Inter_MSFontService,sans-serif" font-weight="400" font-size="32" transform="matrix(0.707107 -0.707107 0.707107 0.707107 3119.8 24448)">4/18</text></g><g><text font-family="Inter,Inter_MSFontService,sans-serif" font-weight="400" font-size="32" transform="matrix(0.707107 -0.707107 0.707107 0.707107 3232.49 24452)">4/25</text></g><g><text font-family="Inter,Inter_MSFontService,sans-serif" font-weight="400" font-size="32" transform="matrix(0.707107 -0.707107 0.707107 0.707107 3363.89 24437)">5/2</text></g><g><text font-family="Inter,Inter_MSFontService,sans-serif" font-weight="400" font-size="32" transform="matrix(0.707107 -0.707107 0.707107 0.707107 3480.4 24438)">5/9</text></g><g><text font-family="Inter,Inter_MSFontService,sans-serif" font-weight="400" font-size="32" transform="matrix(0.707107 -0.707107 0.707107 0.707107 3587.93 24447)">5/16</text></g><g><text font-family="Inter,Inter_MSFontService,sans-serif" font-weight="400" font-size="32" transform="matrix(0.707107 -0.707107 0.707107 0.707107 3700.1 24451)">5/23</text></g><g><text font-family="Inter,Inter_MSFontService,sans-serif" font-weight="400" font-size="32" transform="matrix(0.707107 -0.707107 0.707107 0.707107 3816.37 24452)">5/30</text></g><g><text font-family="Inter Medium,Inter Medium_MSFontService,sans-serif" font-weight="700" font-size="46" transform="matrix(1 0 0 1 1898.49 23539)">U.S. Hotel Occupancy and ADR Recovery Levels</text></g><g><path d="M1889.5 23634.5 1977.5 23634.5" stroke="#FFB226" stroke-width="9.16667" stroke-linecap="round" stroke-linejoin="round" stroke-miterlimit="10" fill="none" fill-rule="evenodd"/></g><g><text font-family="Inter Medium,Inter Medium_MSFontService,sans-serif" font-weight="500" font-size="37" transform="matrix(1 0 0 1 1986.82 23647)">Occ Index</text></g><g><path d="M2214.5 23634.5 2302.5 23634.5" stroke="#000000" stroke-width="9.16667" stroke-linecap="round" stroke-linejoin="round" stroke-miterlimit="10" fill="none" fill-rule="evenodd"/></g><g><text font-family="Inter Medium,Inter Medium_MSFontService,sans-serif" font-weight="500" font-size="37" transform="matrix(1 0 0 1 2312.07 23647)">ADR Index</text></g><rect x="1814.5" y="23449.5" width="2107" height="1064" stroke="#D9D9D9" stroke-width="3.4375" stroke-linejoin="round" stroke-miterlimit="10" fill="none"/><g><text fill="#7F7F7F" font-family="Inter,Inter_MSFontService,sans-serif" font-weight="400" font-size="32" transform="matrix(1 0 0 1 1896.2 23594)">YOY, Source: STR, str.com</text></g></g></svg>