<svg width="2110" height="1067" xmlns="http://www.w3.org/2000/svg" xmlns:xlink="http://www.w3.org/1999/xlink" xml:space="preserve" overflow="hidden"><defs><filter id="fx0" x="-10%" y="-10%" width="120%" height="120%" filterUnits="userSpaceOnUse" primitiveUnits="userSpaceOnUse"><feComponentTransfer color-interpolation-filters="sRGB"><feFuncR type="discrete" tableValues="0 0"/><feFuncG type="discrete" tableValues="0 0"/><feFuncB type="discrete" tableValues="0 0"/><feFuncA type="linear" slope="0.501961" intercept="0"/></feComponentTransfer><feGaussianBlur stdDeviation="4.58333 4.58333"/></filter><filter id="fx1" x="-10%" y="-10%" width="120%" height="120%" filterUnits="userSpaceOnUse" primitiveUnits="userSpaceOnUse"><feComponentTransfer color-interpolation-filters="sRGB"><feFuncR type="discrete" tableValues="0 0"/><feFuncG type="discrete" tableValues="0 0"/><feFuncB type="discrete" tableValues="0 0"/><feFuncA type="linear" slope="0.501961" intercept="0"/></feComponentTransfer><feGaussianBlur stdDeviation="4.58333 4.58333"/></filter><clipPath id="clip2"><rect x="1813" y="23448" width="2110" height="1067"/></clipPath><clipPath id="clip3"><rect x="1981" y="23699" width="1888" height="663"/></clipPath><clipPath id="clip4"><rect x="1981" y="23699" width="1888" height="663"/></clipPath></defs><g clip-path="url(#clip2)" transform="translate(-1813 -23448)"><rect x="1814" y="23449" width="2107" height="1064" fill="#FFFFFF"/><g><rect x="1982" y="23699" width="1884" height="660" fill="#FFFFFF"/></g><g><path d="M1981.5 23919.5 3866.5 23919.5" stroke="#C00000" stroke-width="3.4375" stroke-linejoin="round" stroke-miterlimit="10" fill="none" fill-rule="evenodd"/></g><g clip-path="url(#clip3)"><g filter="url(#fx0)" transform="translate(1974 23720)"><g><path d="M19.9819 273.117C44.9659 261.806 69.9502 257.919 94.9345 239.184 119.918 220.449 144.902 152.394 169.887 160.706 194.871 169.019 219.855 298.287 244.839 289.059 269.823 279.832 294.807 110.994 319.791 105.34 344.775 99.6864 369.76 240.367 394.744 255.137 419.728 269.906 444.712 199.469 469.696 193.957 494.68 188.446 519.664 203.823 544.648 222.067 569.632 240.312 594.617 309.421 619.601 303.424 644.585 297.427 669.569 211.545 694.553 186.086 719.537 160.627 744.521 158.965 769.506 150.669 794.49 142.373 819.474 127.119 844.458 136.311 869.442 145.502 894.426 197.768 919.41 205.817 944.394 213.866 969.379 193.196 994.363 184.606 1019.35 176.016 1044.33 160.212 1069.32 154.277 1094.3 148.342 1119.28 150.009 1144.27 148.998 1169.25 147.987 1194.24 120.302 1219.22 148.212 1244.2 176.122 1269.19 302.935 1294.17 316.459 1319.16 329.983 1344.14 278.334 1369.12 229.356 1394.11 180.378 1419.09 41.1959 1444.08 22.5893 1469.06 3.98242 1494.05 91.0892 1519.03 117.716 1544.01 144.343 1581.49 171.577 1593.98 182.35" stroke="#FFB226" stroke-width="9" stroke-linecap="round" stroke-linejoin="round" stroke-miterlimit="10" fill="none"/></g></g></g><g clip-path="url(#clip4)"><g filter="url(#fx1)" transform="translate(1974 23778)"><g><path d="M19.9819 142.865C44.9659 138.532 69.9502 134.042 94.9345 129.866 119.918 125.69 144.902 100.166 169.887 117.807 194.871 135.449 219.855 244.982 244.839 235.715 269.823 226.446 294.807 73.9003 319.791 62.199 344.775 50.4977 369.76 154.569 394.744 165.507 419.728 176.444 444.712 127.095 469.696 127.822 494.68 128.549 519.664 167.313 544.648 169.868 569.632 172.423 594.617 153.109 619.601 143.153 644.585 133.197 669.569 116.482 694.553 110.134 719.537 103.786 744.521 109.489 769.506 105.067 794.49 100.644 819.474 75.9943 844.458 83.6002 869.442 91.2057 894.426 153.575 919.41 150.702 944.394 147.828 969.379 79.2177 994.363 66.3591 1019.35 53.5002 1044.33 67.8408 1069.32 73.5485 1094.3 79.2558 1119.28 107.838 1144.27 100.604 1169.25 93.3695 1194.24 22.3906 1219.22 30.144 1244.2 37.897 1269.19 133.198 1294.17 147.123 1319.16 161.048 1344.14 134.453 1369.12 113.694 1394.11 92.9356 1419.09 33.1617 1444.08 22.5722 1469.06 11.9824 1494.05 37.1164 1519.03 50.1563 1544.01 63.1958 1581.49 92.3673 1593.98 100.81" stroke="#000000" stroke-width="9" stroke-linecap="round" stroke-linejoin="round" stroke-miterlimit="10" fill="none"/></g></g></g><g><path d="M1987.5 23986.6C2012.48 23975.3 2037.47 23971.4 2062.45 23952.7 2087.44 23934 2112.42 23865.9 2137.4 23874.2 2162.39 23882.5 2187.37 24011.8 2212.36 24002.6 2237.34 23993.3 2262.33 23824.5 2287.31 23818.9 2312.29 23813.2 2337.28 23953.9 2362.26 23968.7 2387.25 23983.4 2412.23 23913 2437.21 23907.5 2462.2 23902 2487.18 23917.3 2512.17 23935.6 2537.15 23953.8 2562.13 24022.9 2587.12 24016.9 2612.1 24010.9 2637.09 23925.1 2662.07 23899.6 2687.06 23874.1 2712.04 23872.5 2737.02 23864.2 2762.01 23855.9 2786.99 23840.6 2811.98 23849.8 2836.96 23859 2861.94 23911.3 2886.93 23919.3 2911.91 23927.4 2936.9 23906.7 2961.88 23898.1 2986.86 23889.5 3011.85 23873.7 3036.83 23867.8 3061.82 23861.9 3086.8 23863.5 3111.79 23862.5 3136.77 23861.5 3161.75 23833.8 3186.74 23861.7 3211.72 23889.6 3236.71 24016.5 3261.69 24030 3286.67 24043.5 3311.66 23991.9 3336.64 23942.9 3361.63 23893.9 3386.61 23754.7 3411.6 23736.1 3436.58 23717.5 3461.56 23804.6 3486.55 23831.2 3511.53 23857.9 3549.01 23885.1 3561.5 23895.9" stroke="#FFB226" stroke-width="9.16667" stroke-linecap="round" stroke-linejoin="round" stroke-miterlimit="10" fill="none"/></g><g><path d="M1987.5 23914.4C2012.48 23910 2037.47 23905.6 2062.45 23901.4 2087.44 23897.2 2112.42 23871.7 2137.4 23889.3 2162.39 23907 2187.37 24016.5 2212.36 24007.2 2237.34 23998 2262.33 23845.4 2287.31 23833.7 2312.29 23822 2337.28 23926.1 2362.26 23937 2387.25 23948 2412.23 23898.6 2437.21 23899.3 2462.2 23900.1 2487.18 23938.8 2512.17 23941.4 2537.15 23943.9 2562.13 23924.6 2587.12 23914.7 2612.1 23904.7 2637.09 23888 2662.07 23881.7 2687.06 23875.3 2712.04 23881 2737.02 23876.6 2762.01 23872.2 2786.99 23847.5 2811.98 23855.1 2836.96 23862.7 2861.94 23925.1 2886.93 23922.2 2911.91 23919.3 2936.9 23850.7 2961.88 23837.9 2986.86 23825 3011.85 23839.4 3036.83 23845.1 3061.82 23850.8 3086.8 23879.4 3111.79 23872.1 3136.77 23864.9 3161.75 23793.9 3186.74 23801.7 3211.72 23809.4 3236.71 23904.7 3261.69 23918.6 3286.67 23932.6 3311.66 23906 3336.64 23885.2 3361.63 23864.5 3386.61 23804.7 3411.6 23794.1 3436.58 23783.5 3461.56 23808.6 3486.55 23821.7 3511.53 23834.7 3549.01 23863.9 3561.5 23872.3" stroke="#000000" stroke-width="9.16667" stroke-linecap="round" stroke-linejoin="round" stroke-miterlimit="10" fill="none"/></g><g><text font-family="Inter,Inter_MSFontService,sans-serif" font-weight="400" font-size="32" transform="matrix(1 0 0 1 1912.06 24369)">80</text></g><g><text font-family="Inter,Inter_MSFontService,sans-serif" font-weight="400" font-size="32" transform="matrix(1 0 0 1 1912.01 24149)">90</text></g><g><text font-family="Inter,Inter_MSFontService,sans-serif" font-weight="400" font-size="32" transform="matrix(1 0 0 1 1898.63 23929)">100</text></g><g><text font-family="Inter,Inter_MSFontService,sans-serif" font-weight="400" font-size="32" transform="matrix(1 0 0 1 1905.82 23709)">110</text></g><g><text font-family="Inter,Inter_MSFontService,sans-serif" font-weight="400" font-size="32" transform="matrix(0.707107 -0.707107 0.707107 0.707107 1950.17 24447)">12/6</text></g><g><text font-family="Inter,Inter_MSFontService,sans-serif" font-weight="400" font-size="32" transform="matrix(0.707107 -0.707107 0.707107 0.707107 2015.95 24456)">12/13</text></g><g><text font-family="Inter,Inter_MSFontService,sans-serif" font-weight="400" font-size="32" transform="matrix(0.707107 -0.707107 0.707107 0.707107 2085.99 24461)">12/20</text></g><g><text font-family="Inter,Inter_MSFontService,sans-serif" font-weight="400" font-size="32" transform="matrix(0.707107 -0.707107 0.707107 0.707107 2162.42 24460)">12/27</text></g><g><text font-family="Inter,Inter_MSFontService,sans-serif" font-weight="400" font-size="32" transform="matrix(0.707107 -0.707107 0.707107 0.707107 2263.87 24433)">1/3</text></g><g><text font-family="Inter,Inter_MSFontService,sans-serif" font-weight="400" font-size="32" transform="matrix(0.707107 -0.707107 0.707107 0.707107 2329.31 24443)">1/10</text></g><g><text font-family="Inter,Inter_MSFontService,sans-serif" font-weight="400" font-size="32" transform="matrix(0.707107 -0.707107 0.707107 0.707107 2405.74 24441)">1/17</text></g><g><text font-family="Inter,Inter_MSFontService,sans-serif" font-weight="400" font-size="32" transform="matrix(0.707107 -0.707107 0.707107 0.707107 2474.26 24448)">1/24</text></g><g><text font-family="Inter,Inter_MSFontService,sans-serif" font-weight="400" font-size="32" transform="matrix(0.707107 -0.707107 0.707107 0.707107 2554.47 24443)">1/31</text></g><g><text font-family="Inter,Inter_MSFontService,sans-serif" font-weight="400" font-size="32" transform="matrix(0.707107 -0.707107 0.707107 0.707107 2635.21 24437)">2/7</text></g><g><text font-family="Inter,Inter_MSFontService,sans-serif" font-weight="400" font-size="32" transform="matrix(0.707107 -0.707107 0.707107 0.707107 2699.13 24448)">2/14</text></g><g><text font-family="Inter,Inter_MSFontService,sans-serif" font-weight="400" font-size="32" transform="matrix(0.707107 -0.707107 0.707107 0.707107 2774.89 24447)">2/21</text></g><g><text font-family="Inter,Inter_MSFontService,sans-serif" font-weight="400" font-size="32" transform="matrix(0.707107 -0.707107 0.707107 0.707107 2845.03 24452)">2/28</text></g><g><text font-family="Inter,Inter_MSFontService,sans-serif" font-weight="400" font-size="32" transform="matrix(0.707107 -0.707107 0.707107 0.707107 2934.85 24437)">3/7</text></g><g><text font-family="Inter,Inter_MSFontService,sans-serif" font-weight="400" font-size="32" transform="matrix(0.707107 -0.707107 0.707107 0.707107 2998.76 24448)">3/14</text></g><g><text font-family="Inter,Inter_MSFontService,sans-serif" font-weight="400" font-size="32" transform="matrix(0.707107 -0.707107 0.707107 0.707107 3074.53 24447)">3/21</text></g><g><text font-family="Inter,Inter_MSFontService,sans-serif" font-weight="400" font-size="32" transform="matrix(0.707107 -0.707107 0.707107 0.707107 3144.67 24452)">3/28</text></g><g><text font-family="Inter,Inter_MSFontService,sans-serif" font-weight="400" font-size="32" transform="matrix(0.707107 -0.707107 0.707107 0.707107 3232.22 24439)">4/4</text></g><g><text font-family="Inter,Inter_MSFontService,sans-serif" font-weight="400" font-size="32" transform="matrix(0.707107 -0.707107 0.707107 0.707107 3303.38 24443)">4/11</text></g><g><text font-family="Inter,Inter_MSFontService,sans-serif" font-weight="400" font-size="32" transform="matrix(0.707107 -0.707107 0.707107 0.707107 3373.52 24448)">4/18</text></g><g><text font-family="Inter,Inter_MSFontService,sans-serif" font-weight="400" font-size="32" transform="matrix(0.707107 -0.707107 0.707107 0.707107 3444.42 24452)">4/25</text></g><g><text font-family="Inter,Inter_MSFontService,sans-serif" font-weight="400" font-size="32" transform="matrix(0.707107 -0.707107 0.707107 0.707107 3534.03 24437)">5/2</text></g><g><text font-family="Inter,Inter_MSFontService,sans-serif" font-weight="400" font-size="32" transform="matrix(0.707107 -0.707107 0.707107 0.707107 3608.75 24438)">5/9</text></g><g><text font-family="Inter,Inter_MSFontService,sans-serif" font-weight="400" font-size="32" transform="matrix(0.707107 -0.707107 0.707107 0.707107 3674.49 24447)">5/16</text></g><g><text font-family="Inter,Inter_MSFontService,sans-serif" font-weight="400" font-size="32" transform="matrix(0.707107 -0.707107 0.707107 0.707107 3744.87 24451)">5/23</text></g><g><text font-family="Inter,Inter_MSFontService,sans-serif" font-weight="400" font-size="32" transform="matrix(0.707107 -0.707107 0.707107 0.707107 3819.36 24452)">5/30</text></g><g><text font-family="Inter Medium,Inter Medium_MSFontService,sans-serif" font-weight="700" font-size="46" transform="matrix(1 0 0 1 1898.49 23539)">U.S. Hotel Occupancy and ADR Recovery Levels</text></g><g><path d="M1889.5 23634.5 1977.5 23634.5" stroke="#FFB226" stroke-width="9.16667" stroke-linecap="round" stroke-linejoin="round" stroke-miterlimit="10" fill="none" fill-rule="evenodd"/></g><g><text font-family="Inter Medium,Inter Medium_MSFontService,sans-serif" font-weight="500" font-size="37" transform="matrix(1 0 0 1 1986.82 23647)">Occ Index</text></g><g><path d="M2214.5 23634.5 2302.5 23634.5" stroke="#000000" stroke-width="9.16667" stroke-linecap="round" stroke-linejoin="round" stroke-miterlimit="10" fill="none" fill-rule="evenodd"/></g><g><text font-family="Inter Medium,Inter Medium_MSFontService,sans-serif" font-weight="500" font-size="37" transform="matrix(1 0 0 1 2312.07 23647)">ADR Index</text></g><rect x="1814.5" y="23449.5" width="2107" height="1064" stroke="#D9D9D9" stroke-width="3.4375" stroke-linejoin="round" stroke-miterlimit="10" fill="none"/><g><text fill="#7F7F7F" font-family="Inter,Inter_MSFontService,sans-serif" font-weight="400" font-size="32" transform="matrix(1 0 0 1 1896.2 23594)">YOY, Source: STR, str.com</text></g></g></svg>