<svg width="2110" height="1067" xmlns="http://www.w3.org/2000/svg" xmlns:xlink="http://www.w3.org/1999/xlink" xml:space="preserve" overflow="hidden"><defs><filter id="fx0" x="-10%" y="-10%" width="120%" height="120%" filterUnits="userSpaceOnUse" primitiveUnits="userSpaceOnUse"><feComponentTransfer color-interpolation-filters="sRGB"><feFuncR type="discrete" tableValues="0 0"/><feFuncG type="discrete" tableValues="0 0"/><feFuncB type="discrete" tableValues="0 0"/><feFuncA type="linear" slope="0.501961" intercept="0"/></feComponentTransfer><feGaussianBlur stdDeviation="4.58333 4.58333"/></filter><filter id="fx1" x="-10%" y="-10%" width="120%" height="120%" filterUnits="userSpaceOnUse" primitiveUnits="userSpaceOnUse"><feComponentTransfer color-interpolation-filters="sRGB"><feFuncR type="discrete" tableValues="0 0"/><feFuncG type="discrete" tableValues="0 0"/><feFuncB type="discrete" tableValues="0 0"/><feFuncA type="linear" slope="0.501961" intercept="0"/></feComponentTransfer><feGaussianBlur stdDeviation="4.58333 4.58333"/></filter><clipPath id="clip2"><rect x="1813" y="23448" width="2110" height="1067"/></clipPath><clipPath id="clip3"><rect x="1981" y="23699" width="1888" height="663"/></clipPath><clipPath id="clip4"><rect x="1981" y="23699" width="1888" height="663"/></clipPath></defs><g clip-path="url(#clip2)" transform="translate(-1813 -23448)"><rect x="1814" y="23449" width="2107" height="1064" fill="#FFFFFF"/><g><rect x="1982" y="23699" width="1884" height="660" fill="#FFFFFF"/></g><g><path d="M1981.5 23919.5 3866.5 23919.5" stroke="#C00000" stroke-width="3.4375" stroke-linejoin="round" stroke-miterlimit="10" fill="none" fill-rule="evenodd"/></g><g clip-path="url(#clip3)"><g filter="url(#fx0)" transform="translate(1974 23806)"><g><path d="M19.9819 186.794C44.9621 175.524 69.9427 171.651 94.9233 152.983 119.903 134.314 144.884 66.502 169.864 74.785 194.844 83.0679 219.825 211.875 244.806 202.68 269.786 193.486 294.766 25.2497 319.746 19.6162 344.727 13.9824 369.707 154.162 394.688 168.878 419.668 183.595 444.649 113.409 469.629 107.917 494.609 102.425 519.59 117.748 544.57 135.927 569.55 154.106 594.531 222.97 619.511 216.994 644.492 211.019 669.472 125.442 694.452 100.074 719.433 74.7057 744.413 73.0499 769.394 64.7835 794.374 56.5172 819.354 41.3174 844.335 50.4761 869.315 59.6345 894.295 111.714 919.276 119.735 944.256 127.755 969.237 107.159 994.217 98.5996 1019.2 90.0399 1044.18 74.2919 1069.16 68.3784 1094.14 62.4646 1119.12 64.1254 1144.1 63.1184 1169.08 62.111 1194.06 34.5248 1219.04 62.3355 1244.02 90.1459 1281.49 202.041 1293.98 229.982" stroke="#FFB226" stroke-width="9" stroke-linecap="round" stroke-linejoin="round" stroke-miterlimit="10" fill="none"/></g></g></g><g clip-path="url(#clip4)"><g filter="url(#fx1)" transform="translate(1974 23788)"><g><path d="M19.9819 132.678C44.9621 128.337 69.9427 123.839 94.9233 119.655 119.903 115.471 144.884 89.9001 169.864 107.574 194.844 125.248 219.825 234.983 244.806 225.698 269.786 216.413 294.766 63.5866 319.746 51.8638 344.727 40.1411 369.707 144.404 394.688 155.361 419.668 166.318 444.649 116.879 469.629 117.607 494.609 118.335 519.59 157.17 544.57 159.731 569.55 162.29 594.531 142.94 619.511 132.967 644.492 122.992 669.472 106.246 694.452 99.887 719.433 93.5274 744.413 99.2404 769.394 94.8103 794.374 90.3798 819.354 65.6844 844.335 73.3043 869.315 80.9238 894.295 143.408 919.276 140.529 944.256 137.65 969.237 68.9138 994.217 56.0316 1019.2 43.1491 1044.18 57.516 1069.16 63.2342 1094.14 68.952 1119.12 97.5863 1144.1 90.3391 1169.08 83.0915 1194.06 11.9824 1219.04 19.75 1244.02 27.5173 1281.49 117.411 1293.98 136.943" stroke="#000000" stroke-width="9" stroke-linecap="round" stroke-linejoin="round" stroke-miterlimit="10" fill="none"/></g></g></g><g><path d="M1987.5 23986.3C2012.48 23975 2037.46 23971.2 2062.44 23952.5 2087.42 23933.8 2112.4 23866 2137.38 23874.3 2162.36 23882.6 2187.34 24011.4 2212.32 24002.2 2237.3 23993 2262.28 23824.8 2287.26 23819.1 2312.24 23813.5 2337.23 23953.7 2362.21 23968.4 2387.19 23983.1 2412.17 23912.9 2437.15 23907.4 2462.13 23901.9 2487.11 23917.3 2512.09 23935.4 2537.07 23953.6 2562.05 24022.5 2587.03 24016.5 2612.01 24010.5 2636.99 23925 2661.97 23899.6 2686.95 23874.2 2711.93 23872.6 2736.91 23864.3 2761.89 23856 2786.87 23840.8 2811.85 23850 2836.83 23859.2 2861.81 23911.2 2886.79 23919.3 2911.77 23927.3 2936.75 23906.7 2961.74 23898.1 2986.72 23889.6 3011.7 23873.8 3036.68 23867.9 3061.66 23862 3086.64 23863.6 3111.62 23862.6 3136.6 23861.6 3161.58 23834 3186.56 23861.9 3211.54 23889.7 3249.01 24001.6 3261.5 24029.5" stroke="#FFB226" stroke-width="9.16667" stroke-linecap="round" stroke-linejoin="round" stroke-miterlimit="10" fill="none"/></g><g><path d="M1987.5 23914.2C2012.48 23909.9 2037.46 23905.4 2062.44 23901.2 2087.42 23897 2112.4 23871.4 2137.38 23889.1 2162.36 23906.8 2187.34 24016.5 2212.32 24007.2 2237.3 23997.9 2262.28 23845.1 2287.26 23833.4 2312.24 23821.7 2337.23 23925.9 2362.21 23936.9 2387.19 23947.8 2412.17 23898.4 2437.15 23899.1 2462.13 23899.9 2487.11 23938.7 2512.09 23941.2 2537.07 23943.8 2562.05 23924.5 2587.03 23914.5 2612.01 23904.5 2636.99 23887.8 2661.97 23881.4 2686.95 23875 2711.93 23880.8 2736.91 23876.3 2761.89 23871.9 2786.87 23847.2 2811.85 23854.8 2836.83 23862.4 2861.81 23924.9 2886.79 23922 2911.77 23919.2 2936.75 23850.4 2961.74 23837.5 2986.72 23824.7 3011.7 23839 3036.68 23844.8 3061.66 23850.5 3086.64 23879.1 3111.62 23871.9 3136.6 23864.6 3161.58 23793.5 3186.56 23801.3 3211.54 23809 3249.01 23898.9 3261.5 23918.5" stroke="#000000" stroke-width="9.16667" stroke-linecap="round" stroke-linejoin="round" stroke-miterlimit="10" fill="none"/></g><g><text font-family="Inter,Inter_MSFontService,sans-serif" font-weight="400" font-size="32" transform="matrix(1 0 0 1 1912.06 24369)">80</text></g><g><text font-family="Inter,Inter_MSFontService,sans-serif" font-weight="400" font-size="32" transform="matrix(1 0 0 1 1912.01 24149)">90</text></g><g><text font-family="Inter,Inter_MSFontService,sans-serif" font-weight="400" font-size="32" transform="matrix(1 0 0 1 1898.63 23929)">100</text></g><g><text font-family="Inter,Inter_MSFontService,sans-serif" font-weight="400" font-size="32" transform="matrix(1 0 0 1 1905.82 23709)">110</text></g><g><text font-family="Inter,Inter_MSFontService,sans-serif" font-weight="400" font-size="32" transform="matrix(0.707107 -0.707107 0.707107 0.707107 1950.17 24447)">12/6</text></g><g><text font-family="Inter,Inter_MSFontService,sans-serif" font-weight="400" font-size="32" transform="matrix(0.707107 -0.707107 0.707107 0.707107 2015.95 24456)">12/13</text></g><g><text font-family="Inter,Inter_MSFontService,sans-serif" font-weight="400" font-size="32" transform="matrix(0.707107 -0.707107 0.707107 0.707107 2085.99 24461)">12/20</text></g><g><text font-family="Inter,Inter_MSFontService,sans-serif" font-weight="400" font-size="32" transform="matrix(0.707107 -0.707107 0.707107 0.707107 2162.42 24460)">12/27</text></g><g><text font-family="Inter,Inter_MSFontService,sans-serif" font-weight="400" font-size="32" transform="matrix(0.707107 -0.707107 0.707107 0.707107 2263.87 24433)">1/3</text></g><g><text font-family="Inter,Inter_MSFontService,sans-serif" font-weight="400" font-size="32" transform="matrix(0.707107 -0.707107 0.707107 0.707107 2329.31 24443)">1/10</text></g><g><text font-family="Inter,Inter_MSFontService,sans-serif" font-weight="400" font-size="32" transform="matrix(0.707107 -0.707107 0.707107 0.707107 2405.74 24441)">1/17</text></g><g><text font-family="Inter,Inter_MSFontService,sans-serif" font-weight="400" font-size="32" transform="matrix(0.707107 -0.707107 0.707107 0.707107 2474.26 24448)">1/24</text></g><g><text font-family="Inter,Inter_MSFontService,sans-serif" font-weight="400" font-size="32" transform="matrix(0.707107 -0.707107 0.707107 0.707107 2554.47 24443)">1/31</text></g><g><text font-family="Inter,Inter_MSFontService,sans-serif" font-weight="400" font-size="32" transform="matrix(0.707107 -0.707107 0.707107 0.707107 2635.21 24437)">2/7</text></g><g><text font-family="Inter,Inter_MSFontService,sans-serif" font-weight="400" font-size="32" transform="matrix(0.707107 -0.707107 0.707107 0.707107 2699.13 24448)">2/14</text></g><g><text font-family="Inter,Inter_MSFontService,sans-serif" font-weight="400" font-size="32" transform="matrix(0.707107 -0.707107 0.707107 0.707107 2774.89 24447)">2/21</text></g><g><text font-family="Inter,Inter_MSFontService,sans-serif" font-weight="400" font-size="32" transform="matrix(0.707107 -0.707107 0.707107 0.707107 2845.03 24452)">2/28</text></g><g><text font-family="Inter,Inter_MSFontService,sans-serif" font-weight="400" font-size="32" transform="matrix(0.707107 -0.707107 0.707107 0.707107 2934.85 24437)">3/7</text></g><g><text font-family="Inter,Inter_MSFontService,sans-serif" font-weight="400" font-size="32" transform="matrix(0.707107 -0.707107 0.707107 0.707107 2998.76 24448)">3/14</text></g><g><text font-family="Inter,Inter_MSFontService,sans-serif" font-weight="400" font-size="32" transform="matrix(0.707107 -0.707107 0.707107 0.707107 3074.53 24447)">3/21</text></g><g><text font-family="Inter,Inter_MSFontService,sans-serif" font-weight="400" font-size="32" transform="matrix(0.707107 -0.707107 0.707107 0.707107 3144.67 24452)">3/28</text></g><g><text font-family="Inter,Inter_MSFontService,sans-serif" font-weight="400" font-size="32" transform="matrix(0.707107 -0.707107 0.707107 0.707107 3232.22 24439)">4/4</text></g><g><text font-family="Inter,Inter_MSFontService,sans-serif" font-weight="400" font-size="32" transform="matrix(0.707107 -0.707107 0.707107 0.707107 3303.38 24443)">4/11</text></g><g><text font-family="Inter,Inter_MSFontService,sans-serif" font-weight="400" font-size="32" transform="matrix(0.707107 -0.707107 0.707107 0.707107 3373.52 24448)">4/18</text></g><g><text font-family="Inter,Inter_MSFontService,sans-serif" font-weight="400" font-size="32" transform="matrix(0.707107 -0.707107 0.707107 0.707107 3444.42 24452)">4/25</text></g><g><text font-family="Inter,Inter_MSFontService,sans-serif" font-weight="400" font-size="32" transform="matrix(0.707107 -0.707107 0.707107 0.707107 3534.03 24437)">5/2</text></g><g><text font-family="Inter,Inter_MSFontService,sans-serif" font-weight="400" font-size="32" transform="matrix(0.707107 -0.707107 0.707107 0.707107 3608.75 24438)">5/9</text></g><g><text font-family="Inter,Inter_MSFontService,sans-serif" font-weight="400" font-size="32" transform="matrix(0.707107 -0.707107 0.707107 0.707107 3674.49 24447)">5/16</text></g><g><text font-family="Inter,Inter_MSFontService,sans-serif" font-weight="400" font-size="32" transform="matrix(0.707107 -0.707107 0.707107 0.707107 3744.87 24451)">5/23</text></g><g><text font-family="Inter,Inter_MSFontService,sans-serif" font-weight="400" font-size="32" transform="matrix(0.707107 -0.707107 0.707107 0.707107 3819.36 24452)">5/30</text></g><g><text font-family="Inter Medium,Inter Medium_MSFontService,sans-serif" font-weight="700" font-size="46" transform="matrix(1 0 0 1 1898.49 23539)">U.S. Hotel Occupancy and ADR Recovery Levels</text></g><g><path d="M1889.5 23634.5 1977.5 23634.5" stroke="#FFB226" stroke-width="9.16667" stroke-linecap="round" stroke-linejoin="round" stroke-miterlimit="10" fill="none" fill-rule="evenodd"/></g><g><text font-family="Inter Medium,Inter Medium_MSFontService,sans-serif" font-weight="500" font-size="37" transform="matrix(1 0 0 1 1986.82 23647)">Occ Index</text></g><g><path d="M2214.5 23634.5 2302.5 23634.5" stroke="#000000" stroke-width="9.16667" stroke-linecap="round" stroke-linejoin="round" stroke-miterlimit="10" fill="none" fill-rule="evenodd"/></g><g><text font-family="Inter Medium,Inter Medium_MSFontService,sans-serif" font-weight="500" font-size="37" transform="matrix(1 0 0 1 2312.07 23647)">ADR Index</text></g><rect x="1814.5" y="23449.5" width="2107" height="1064" stroke="#D9D9D9" stroke-width="3.4375" stroke-linejoin="round" stroke-miterlimit="10" fill="none"/><g><text fill="#7F7F7F" font-family="Inter,Inter_MSFontService,sans-serif" font-weight="400" font-size="32" transform="matrix(1 0 0 1 1896.2 23594)">YOY, Source: STR, str.com</text></g></g></svg>