<svg width="2117" height="1094" xmlns="http://www.w3.org/2000/svg" xmlns:xlink="http://www.w3.org/1999/xlink" xml:space="preserve" overflow="hidden"><defs><filter id="fx0" x="-10%" y="-10%" width="120%" height="120%" filterUnits="userSpaceOnUse" primitiveUnits="userSpaceOnUse"><feComponentTransfer color-interpolation-filters="sRGB"><feFuncR type="discrete" tableValues="0 0"/><feFuncG type="discrete" tableValues="0 0"/><feFuncB type="discrete" tableValues="0 0"/><feFuncA type="linear" slope="0.501961" intercept="0"/></feComponentTransfer><feGaussianBlur stdDeviation="4.58333 4.58333"/></filter><filter id="fx1" x="-10%" y="-10%" width="120%" height="120%" filterUnits="userSpaceOnUse" primitiveUnits="userSpaceOnUse"><feComponentTransfer color-interpolation-filters="sRGB"><feFuncR type="discrete" tableValues="0 0"/><feFuncG type="discrete" tableValues="0 0"/><feFuncB type="discrete" tableValues="0 0"/><feFuncA type="linear" slope="0.501961" intercept="0"/></feComponentTransfer><feGaussianBlur stdDeviation="4.58333 4.58333"/></filter><clipPath id="clip2"><rect x="1820" y="24065" width="2117" height="1094"/></clipPath><clipPath id="clip3"><rect x="1989" y="24322" width="1895" height="680"/></clipPath><clipPath id="clip4"><rect x="1989" y="24322" width="1895" height="680"/></clipPath></defs><g clip-path="url(#clip2)" transform="translate(-1820 -24065)"><rect x="1821" y="24066" width="2114" height="1091" fill="#FFFFFF"/><g><rect x="1989" y="24322" width="1892" height="677" fill="#FFFFFF"/></g><g><path d="M1989.5 24547.5 3880.5 24547.5" stroke="#C00000" stroke-width="3.4375" stroke-linejoin="round" stroke-miterlimit="10" fill="none" fill-rule="evenodd"/></g><g clip-path="url(#clip3)"><g filter="url(#fx0)" transform="translate(1981 24345)"><g><path d="M19.9817 187.484C45.0583 177.157 70.1352 162.566 95.2122 156.504 120.289 150.442 145.366 152.144 170.443 151.112 195.272 150.089 220.845 122.081 245.674 150.309 270.751 178.818 295.828 308.354 320.905 322.168 345.982 335.982 371.059 283.224 396.136 233.195 421.212 183.165 446.289 40.9945 471.366 21.9887 496.443 2.98242 521.52 91.959 546.597 119.158 571.674 146.356 596.751 171.343 621.828 185.18 646.905 199.016 671.982 203.768 697.059 202.175 722.136 200.581 747.213 176.683 772.289 175.62 797.366 174.557 822.443 197.597 847.52 195.798 872.597 193.998 897.674 167.643 922.751 164.824 947.828 162.004 985.443 176.539 997.982 178.882" stroke="#FFB226" stroke-width="9" stroke-linecap="round" stroke-linejoin="round" stroke-miterlimit="10" fill="none"/></g></g></g><g clip-path="url(#clip4)"><g filter="url(#fx1)" transform="translate(1981 24404)"><g><path d="M19.9817 66.7942C45.0583 69.2537 70.1352 68.3152 95.2122 74.1734 120.289 80.0313 145.366 109.368 170.443 101.943 195.52 94.5178 220.597 21.6653 245.674 29.6231 270.751 37.5806 295.828 135.397 320.905 149.69 345.982 163.982 371.059 136.685 396.136 115.379 421.212 94.0725 446.289 32.721 471.366 21.8519 496.443 10.9824 521.52 36.7801 546.597 50.1638 571.674 63.5475 596.751 92.8368 621.828 102.154 646.905 111.471 671.982 113.193 697.059 106.067 722.136 98.9411 747.213 66.8133 772.289 59.4002 797.366 51.9867 822.443 63.9352 847.52 61.588 872.597 59.2406 897.674 46.4963 922.751 45.3168 947.828 44.137 985.443 52.9771 997.982 54.5093" stroke="#000000" stroke-width="9" stroke-linecap="round" stroke-linejoin="round" stroke-miterlimit="10" fill="none"/></g></g></g><g><path d="M1994.5 24526C2019.58 24515.7 2044.65 24501.1 2069.73 24495 2094.81 24489 2119.88 24490.7 2144.96 24489.6 2169.79 24488.6 2195.36 24460.6 2220.19 24488.8 2245.27 24517.3 2270.35 24646.9 2295.42 24660.7 2320.5 24674.5 2345.58 24621.7 2370.65 24571.7 2395.73 24521.7 2420.81 24379.5 2445.88 24360.5 2470.96 24341.5 2496.04 24430.5 2521.12 24457.7 2546.19 24484.9 2571.27 24509.9 2596.35 24523.7 2621.42 24537.5 2646.5 24542.3 2671.58 24540.7 2696.65 24539.1 2721.73 24515.2 2746.81 24514.1 2771.88 24513.1 2796.96 24536.1 2822.04 24534.3 2847.11 24532.5 2872.19 24506.2 2897.27 24503.3 2922.35 24500.5 2959.96 24515.1 2972.5 24517.4" stroke="#FFB226" stroke-width="9.16667" stroke-linecap="round" stroke-linejoin="round" stroke-miterlimit="10" fill="none"/></g><g><path d="M1994.5 24464.3C2019.58 24466.8 2044.65 24465.8 2069.73 24471.7 2094.81 24477.5 2119.88 24506.9 2144.96 24499.5 2170.04 24492 2195.12 24419.2 2220.19 24427.1 2245.27 24435.1 2270.35 24532.9 2295.42 24547.2 2320.5 24561.5 2345.58 24534.2 2370.65 24512.9 2395.73 24491.6 2420.81 24430.2 2445.88 24419.4 2470.96 24408.5 2496.04 24434.3 2521.12 24447.7 2546.19 24461.1 2571.27 24490.4 2596.35 24499.7 2621.42 24509 2646.5 24510.7 2671.58 24503.6 2696.65 24496.5 2721.73 24464.3 2746.81 24456.9 2771.88 24449.5 2796.96 24461.5 2822.04 24459.1 2847.11 24456.8 2872.19 24444 2897.27 24442.8 2922.35 24441.7 2959.96 24450.5 2972.5 24452" stroke="#000000" stroke-width="9.16667" stroke-linecap="round" stroke-linejoin="round" stroke-miterlimit="10" fill="none"/></g><g><text font-family="Inter,Inter_MSFontService,sans-serif" font-weight="400" font-size="32" transform="matrix(1 0 0 1 1919.66 25009)">80</text></g><g><text font-family="Inter,Inter_MSFontService,sans-serif" font-weight="400" font-size="32" transform="matrix(1 0 0 1 1919.43 24783)">90</text></g><g><text font-family="Inter,Inter_MSFontService,sans-serif" font-weight="400" font-size="32" transform="matrix(1 0 0 1 1904.49 24558)">100</text></g><g><text font-family="Inter,Inter_MSFontService,sans-serif" font-weight="400" font-size="32" transform="matrix(1 0 0 1 1909.64 24332)">110</text></g><g><text font-family="Inter,Inter_MSFontService,sans-serif" font-weight="400" font-size="32" transform="matrix(0.707107 -0.707107 0.707107 0.707107 1967.35 25077)">3/7</text></g><g><text font-family="Inter,Inter_MSFontService,sans-serif" font-weight="400" font-size="32" transform="matrix(0.707107 -0.707107 0.707107 0.707107 2030.42 25089)">3/14</text></g><g><text font-family="Inter,Inter_MSFontService,sans-serif" font-weight="400" font-size="32" transform="matrix(0.707107 -0.707107 0.707107 0.707107 2106.49 25088)">3/21</text></g><g><text font-family="Inter,Inter_MSFontService,sans-serif" font-weight="400" font-size="32" transform="matrix(0.707107 -0.707107 0.707107 0.707107 2178.26 25092)">3/28</text></g><g><text font-family="Inter,Inter_MSFontService,sans-serif" font-weight="400" font-size="32" transform="matrix(0.707107 -0.707107 0.707107 0.707107 2266.5 25079)">4/4</text></g><g><text font-family="Inter,Inter_MSFontService,sans-serif" font-weight="400" font-size="32" transform="matrix(0.707107 -0.707107 0.707107 0.707107 2335.23 25085)">4/11</text></g><g><text font-family="Inter,Inter_MSFontService,sans-serif" font-weight="400" font-size="32" transform="matrix(0.707107 -0.707107 0.707107 0.707107 2407 25089)">4/18</text></g><g><text font-family="Inter,Inter_MSFontService,sans-serif" font-weight="400" font-size="32" transform="matrix(0.707107 -0.707107 0.707107 0.707107 2479.23 25092)">4/25</text></g><g><text font-family="Inter,Inter_MSFontService,sans-serif" font-weight="400" font-size="32" transform="matrix(0.707107 -0.707107 0.707107 0.707107 2569.02 25077)">5/2</text></g><g><text font-family="Inter,Inter_MSFontService,sans-serif" font-weight="400" font-size="32" transform="matrix(0.707107 -0.707107 0.707107 0.707107 2643.82 25078)">5/9</text></g><g><text font-family="Inter,Inter_MSFontService,sans-serif" font-weight="400" font-size="32" transform="matrix(0.707107 -0.707107 0.707107 0.707107 2708.51 25088)">5/16</text></g><g><text font-family="Inter,Inter_MSFontService,sans-serif" font-weight="400" font-size="32" transform="matrix(0.707107 -0.707107 0.707107 0.707107 2780.25 25092)">5/23</text></g><g><text font-family="Inter,Inter_MSFontService,sans-serif" font-weight="400" font-size="32" transform="matrix(0.707107 -0.707107 0.707107 0.707107 2855.02 25092)">5/30</text></g><g><text font-family="Inter,Inter_MSFontService,sans-serif" font-weight="400" font-size="32" transform="matrix(0.707107 -0.707107 0.707107 0.707107 2944.36 25078)">6/6</text></g><g><text font-family="Inter,Inter_MSFontService,sans-serif" font-weight="400" font-size="32" transform="matrix(0.707107 -0.707107 0.707107 0.707107 3008.76 25089)">6/13</text></g><g><text font-family="Inter,Inter_MSFontService,sans-serif" font-weight="400" font-size="32" transform="matrix(0.707107 -0.707107 0.707107 0.707107 3081.05 25092)">6/20</text></g><g><text font-family="Inter,Inter_MSFontService,sans-serif" font-weight="400" font-size="32" transform="matrix(0.707107 -0.707107 0.707107 0.707107 3157.51 25090)">6/27</text></g><g><text font-family="Inter,Inter_MSFontService,sans-serif" font-weight="400" font-size="32" transform="matrix(0.707107 -0.707107 0.707107 0.707107 3246.04 25077)">7/4</text></g><g><text font-family="Inter,Inter_MSFontService,sans-serif" font-weight="400" font-size="32" transform="matrix(0.707107 -0.707107 0.707107 0.707107 3314.76 25084)">7/11</text></g><g><text font-family="Inter,Inter_MSFontService,sans-serif" font-weight="400" font-size="32" transform="matrix(0.707107 -0.707107 0.707107 0.707107 3386.54 25087)">7/18</text></g><g><text font-family="Inter,Inter_MSFontService,sans-serif" font-weight="400" font-size="32" transform="matrix(0.707107 -0.707107 0.707107 0.707107 3458.76 25090)">7/25</text></g><g><text font-family="Inter,Inter_MSFontService,sans-serif" font-weight="400" font-size="32" transform="matrix(0.707107 -0.707107 0.707107 0.707107 3549.93 25074)">8/1</text></g><g><text font-family="Inter,Inter_MSFontService,sans-serif" font-weight="400" font-size="32" transform="matrix(0.707107 -0.707107 0.707107 0.707107 3621.7 25078)">8/8</text></g><g><text font-family="Inter,Inter_MSFontService,sans-serif" font-weight="400" font-size="32" transform="matrix(0.707107 -0.707107 0.707107 0.707107 3686.59 25088)">8/15</text></g><g><text font-family="Inter,Inter_MSFontService,sans-serif" font-weight="400" font-size="32" transform="matrix(0.707107 -0.707107 0.707107 0.707107 3758.69 25091)">8/22</text></g><g><text font-family="Inter,Inter_MSFontService,sans-serif" font-weight="400" font-size="32" transform="matrix(0.707107 -0.707107 0.707107 0.707107 3833.49 25092)">8/29</text></g><g><text font-family="Inter Medium,Inter Medium_MSFontService,sans-serif" font-weight="700" font-size="46" transform="matrix(1 0 0 1 1905.48 24157)">U.S. Hotel Occupancy and ADR Recovery Levels</text></g><g><path d="M1897.5 24256.5 1985.5 24256.5" stroke="#FFB226" stroke-width="9.16667" stroke-linecap="round" stroke-linejoin="round" stroke-miterlimit="10" fill="none" fill-rule="evenodd"/></g><g><text font-family="Inter Medium,Inter Medium_MSFontService,sans-serif" font-weight="500" font-size="37" transform="matrix(1 0 0 1 1994.99 24268)">Occ Index</text></g><g><path d="M2223.5 24256.5 2311.5 24256.5" stroke="#000000" stroke-width="9.16667" stroke-linecap="round" stroke-linejoin="round" stroke-miterlimit="10" fill="none" fill-rule="evenodd"/></g><g><text font-family="Inter Medium,Inter Medium_MSFontService,sans-serif" font-weight="500" font-size="37" transform="matrix(1 0 0 1 2320.73 24268)">ADR Index</text></g><rect x="1821.5" y="24066.5" width="2114" height="1091" stroke="#D9D9D9" stroke-width="3.4375" stroke-linejoin="round" stroke-miterlimit="10" fill="none"/><g><text fill="#7F7F7F" font-family="Inter,Inter_MSFontService,sans-serif" font-weight="400" font-size="32" transform="matrix(1 0 0 1 1903.12 24213)">YOY, Source: STR, str.com</text></g></g></svg>