<svg width="2099" height="1049" xmlns="http://www.w3.org/2000/svg" xmlns:xlink="http://www.w3.org/1999/xlink" xml:space="preserve" overflow="hidden"><defs><filter id="fx0" x="-10%" y="-10%" width="120%" height="120%" filterUnits="userSpaceOnUse" primitiveUnits="userSpaceOnUse"><feComponentTransfer color-interpolation-filters="sRGB"><feFuncR type="discrete" tableValues="0 0"/><feFuncG type="discrete" tableValues="0 0"/><feFuncB type="discrete" tableValues="0 0"/><feFuncA type="linear" slope="0.501961" intercept="0"/></feComponentTransfer><feGaussianBlur stdDeviation="4.58333 4.58333"/></filter><filter id="fx1" x="-10%" y="-10%" width="120%" height="120%" filterUnits="userSpaceOnUse" primitiveUnits="userSpaceOnUse"><feComponentTransfer color-interpolation-filters="sRGB"><feFuncR type="discrete" tableValues="0 0"/><feFuncG type="discrete" tableValues="0 0"/><feFuncB type="discrete" tableValues="0 0"/><feFuncA type="linear" slope="0.501961" intercept="0"/></feComponentTransfer><feGaussianBlur stdDeviation="4.58333 4.58333"/></filter><clipPath id="clip2"><rect x="1804" y="23019" width="2099" height="1049"/></clipPath><clipPath id="clip3"><rect x="1971" y="23265" width="1879" height="652"/></clipPath><clipPath id="clip4"><rect x="1971" y="23265" width="1879" height="652"/></clipPath></defs><g clip-path="url(#clip2)" transform="translate(-1804 -23019)"><rect x="1805" y="23020" width="2096" height="1046" fill="#FFFFFF"/><g><rect x="1972" y="23266" width="1875" height="648" fill="#FFFFFF"/></g><g><path d="M1971.5 23481.5 3847.5 23481.5" stroke="#C00000" stroke-width="3.4375" stroke-linejoin="round" stroke-miterlimit="10" fill="none" fill-rule="evenodd"/></g><g clip-path="url(#clip3)"><g filter="url(#fx0)" transform="translate(1964 23286)"><g><path d="M19.9819 181.282C44.8389 171.358 69.6963 157.336 94.5536 151.511 119.411 145.685 144.268 147.321 169.125 146.329 193.982 145.336 218.839 118.161 243.696 145.557 268.553 172.954 293.41 297.432 318.268 310.707 343.125 323.982 367.982 273.284 392.839 225.208 417.696 177.131 442.553 40.5108 467.41 22.2466 492.267 3.98242 517.125 89.4854 541.982 115.622 566.839 141.759 591.696 165.771 616.553 179.067 641.41 192.363 666.267 196.929 691.125 195.398 715.982 193.867 740.839 170.901 765.696 169.88 790.553 168.859 815.41 190.999 840.268 189.27 865.125 187.541 889.982 162.215 914.839 159.506 939.696 156.796 964.553 172.755 989.411 173.016 1014.27 173.276 1051.55 163.059 1063.98 161.068" stroke="#FFB226" stroke-width="9" stroke-linecap="round" stroke-linejoin="round" stroke-miterlimit="10" fill="none"/></g></g></g><g clip-path="url(#clip4)"><g filter="url(#fx1)" transform="translate(1964 23343)"><g><path d="M19.9819 65.6056C44.8389 67.9689 69.6963 67.0669 94.5536 72.6956 119.411 78.3239 144.268 106.51 169.125 99.3762 193.982 92.2422 218.839 22.2465 243.696 29.8923 268.553 37.5378 293.41 131.518 318.268 145.251 343.125 158.983 367.982 132.756 392.839 112.285 417.696 91.814 442.553 32.8682 467.41 22.4255 492.267 11.9824 517.125 36.7686 541.982 49.6277 566.839 62.4864 591.696 90.6271 616.553 99.579 641.41 108.531 666.267 110.184 691.125 103.338 715.982 96.4919 740.839 65.624 765.696 58.5016 790.553 51.3791 815.41 62.8586 840.268 60.6036 865.125 58.3482 889.982 46.1042 914.839 44.9707 939.696 43.8369 964.553 56.017 989.411 53.8024 1014.27 51.5874 1051.55 35.3691 1063.98 31.6824" stroke="#000000" stroke-width="9" stroke-linecap="round" stroke-linejoin="round" stroke-miterlimit="10" fill="none"/></g></g></g><g><path d="M1977.5 23460.8C2002.36 23450.9 2027.21 23436.9 2052.07 23431 2076.93 23425.2 2101.79 23426.8 2126.64 23425.8 2151.5 23424.9 2176.36 23397.7 2201.21 23425.1 2226.07 23452.5 2250.93 23576.9 2275.79 23590.2 2300.64 23603.5 2325.5 23552.8 2350.36 23504.7 2375.21 23456.6 2400.07 23320 2424.93 23301.8 2449.79 23283.5 2474.64 23369 2499.5 23395.1 2524.36 23421.3 2549.21 23445.3 2574.07 23458.6 2598.93 23471.9 2623.79 23476.4 2648.64 23474.9 2673.5 23473.4 2698.36 23450.4 2723.21 23449.4 2748.07 23448.4 2772.93 23470.5 2797.79 23468.8 2822.64 23467.1 2847.5 23441.7 2872.36 23439 2897.21 23436.3 2922.07 23452.3 2946.93 23452.5 2971.79 23452.8 3009.07 23442.6 3021.5 23440.6" stroke="#FFB226" stroke-width="9.16667" stroke-linecap="round" stroke-linejoin="round" stroke-miterlimit="10" fill="none"/></g><g><path d="M1977.5 23402.1C2002.36 23404.5 2027.21 23403.6 2052.07 23409.2 2076.93 23414.8 2101.79 23443 2126.64 23435.9 2151.5 23428.8 2176.36 23358.8 2201.21 23366.4 2226.07 23374.1 2250.93 23468 2275.79 23481.8 2300.64 23495.5 2325.5 23469.3 2350.36 23448.8 2375.21 23428.3 2400.07 23369.4 2424.93 23358.9 2449.79 23348.5 2474.64 23373.3 2499.5 23386.1 2524.36 23399 2549.21 23427.1 2574.07 23436.1 2598.93 23445 2623.79 23446.7 2648.64 23439.9 2673.5 23433 2698.36 23402.1 2723.21 23395 2748.07 23387.9 2772.93 23399.4 2797.79 23397.1 2822.64 23394.9 2847.5 23382.6 2872.36 23381.5 2897.21 23380.4 2922.07 23392.5 2946.93 23390.3 2971.79 23388.1 3009.07 23371.9 3021.5 23368.2" stroke="#000000" stroke-width="9.16667" stroke-linecap="round" stroke-linejoin="round" stroke-miterlimit="10" fill="none"/></g><g><text font-family="Inter,Inter_MSFontService,sans-serif" font-weight="400" font-size="32" transform="matrix(1 0 0 1 1902.04 23924)">80</text></g><g><text font-family="Inter,Inter_MSFontService,sans-serif" font-weight="400" font-size="32" transform="matrix(1 0 0 1 1901.99 23708)">90</text></g><g><text font-family="Inter,Inter_MSFontService,sans-serif" font-weight="400" font-size="32" transform="matrix(1 0 0 1 1888.61 23492)">100</text></g><g><text font-family="Inter,Inter_MSFontService,sans-serif" font-weight="400" font-size="32" transform="matrix(1 0 0 1 1895.8 23275)">110</text></g><g><text font-family="Inter,Inter_MSFontService,sans-serif" font-weight="400" font-size="32" transform="matrix(0.707107 -0.707107 0.707107 0.707107 1950.39 23992)">3/7</text></g><g><text font-family="Inter,Inter_MSFontService,sans-serif" font-weight="400" font-size="32" transform="matrix(0.707107 -0.707107 0.707107 0.707107 2013.94 24003)">3/14</text></g><g><text font-family="Inter,Inter_MSFontService,sans-serif" font-weight="400" font-size="32" transform="matrix(0.707107 -0.707107 0.707107 0.707107 2089.34 24002)">3/21</text></g><g><text font-family="Inter,Inter_MSFontService,sans-serif" font-weight="400" font-size="32" transform="matrix(0.707107 -0.707107 0.707107 0.707107 2159.11 24007)">3/28</text></g><g><text font-family="Inter,Inter_MSFontService,sans-serif" font-weight="400" font-size="32" transform="matrix(0.707107 -0.707107 0.707107 0.707107 2246.29 23994)">4/4</text></g><g><text font-family="Inter,Inter_MSFontService,sans-serif" font-weight="400" font-size="32" transform="matrix(0.707107 -0.707107 0.707107 0.707107 2317.08 23998)">4/11</text></g><g><text font-family="Inter,Inter_MSFontService,sans-serif" font-weight="400" font-size="32" transform="matrix(0.707107 -0.707107 0.707107 0.707107 2386.86 24003)">4/18</text></g><g><text font-family="Inter,Inter_MSFontService,sans-serif" font-weight="400" font-size="32" transform="matrix(0.707107 -0.707107 0.707107 0.707107 2457.39 24007)">4/25</text></g><g><text font-family="Inter,Inter_MSFontService,sans-serif" font-weight="400" font-size="32" transform="matrix(0.707107 -0.707107 0.707107 0.707107 2546.63 23993)">5/2</text></g><g><text font-family="Inter,Inter_MSFontService,sans-serif" font-weight="400" font-size="32" transform="matrix(0.707107 -0.707107 0.707107 0.707107 2620.99 23993)">5/9</text></g><g><text font-family="Inter,Inter_MSFontService,sans-serif" font-weight="400" font-size="32" transform="matrix(0.707107 -0.707107 0.707107 0.707107 2686.35 24002)">5/16</text></g><g><text font-family="Inter,Inter_MSFontService,sans-serif" font-weight="400" font-size="32" transform="matrix(0.707107 -0.707107 0.707107 0.707107 2756.37 24007)">5/23</text></g><g><text font-family="Inter,Inter_MSFontService,sans-serif" font-weight="400" font-size="32" transform="matrix(0.707107 -0.707107 0.707107 0.707107 2830.49 24007)">5/30</text></g><g><text font-family="Inter,Inter_MSFontService,sans-serif" font-weight="400" font-size="32" transform="matrix(0.707107 -0.707107 0.707107 0.707107 2918.73 23993)">6/6</text></g><g><text font-family="Inter,Inter_MSFontService,sans-serif" font-weight="400" font-size="32" transform="matrix(0.707107 -0.707107 0.707107 0.707107 2984.15 24002)">6/13</text></g><g><text font-family="Inter,Inter_MSFontService,sans-serif" font-weight="400" font-size="32" transform="matrix(0.707107 -0.707107 0.707107 0.707107 3053.82 24007)">6/20</text></g><g><text font-family="Inter,Inter_MSFontService,sans-serif" font-weight="400" font-size="32" transform="matrix(0.707107 -0.707107 0.707107 0.707107 3129.88 24006)">6/27</text></g><g><text font-family="Inter,Inter_MSFontService,sans-serif" font-weight="400" font-size="32" transform="matrix(0.707107 -0.707107 0.707107 0.707107 3217.73 23993)">7/4</text></g><g><text font-family="Inter,Inter_MSFontService,sans-serif" font-weight="400" font-size="32" transform="matrix(0.707107 -0.707107 0.707107 0.707107 3288.52 23996)">7/11</text></g><g><text font-family="Inter,Inter_MSFontService,sans-serif" font-weight="400" font-size="32" transform="matrix(0.707107 -0.707107 0.707107 0.707107 3358.29 24001)">7/18</text></g><g><text font-family="Inter,Inter_MSFontService,sans-serif" font-weight="400" font-size="32" transform="matrix(0.707107 -0.707107 0.707107 0.707107 3428.83 24005)">7/25</text></g><g><text font-family="Inter,Inter_MSFontService,sans-serif" font-weight="400" font-size="32" transform="matrix(0.707107 -0.707107 0.707107 0.707107 3520.3 23988)">8/1</text></g><g><text font-family="Inter,Inter_MSFontService,sans-serif" font-weight="400" font-size="32" transform="matrix(0.707107 -0.707107 0.707107 0.707107 3590.07 23993)">8/8</text></g><g><text font-family="Inter,Inter_MSFontService,sans-serif" font-weight="400" font-size="32" transform="matrix(0.707107 -0.707107 0.707107 0.707107 3656 24002)">8/15</text></g><g><text font-family="Inter,Inter_MSFontService,sans-serif" font-weight="400" font-size="32" transform="matrix(0.707107 -0.707107 0.707107 0.707107 3725.6 24007)">8/22</text></g><g><text font-family="Inter,Inter_MSFontService,sans-serif" font-weight="400" font-size="32" transform="matrix(0.707107 -0.707107 0.707107 0.707107 3799.96 24007)">8/29</text></g><g><text font-family="Inter Medium,Inter Medium_MSFontService,sans-serif" font-weight="700" font-size="46" transform="matrix(1 0 0 1 1888.94 23109)">U.S. Hotel Occupancy and ADR Recovery Levels</text></g><g><path d="M1879.5 23202.5 1967.5 23202.5" stroke="#FFB226" stroke-width="9.16667" stroke-linecap="round" stroke-linejoin="round" stroke-miterlimit="10" fill="none" fill-rule="evenodd"/></g><g><text font-family="Inter Medium,Inter Medium_MSFontService,sans-serif" font-weight="500" font-size="37" transform="matrix(1 0 0 1 1976.39 23214)">Occ Index</text></g><g><path d="M2203.5 23202.5 2291.5 23202.5" stroke="#000000" stroke-width="9.16667" stroke-linecap="round" stroke-linejoin="round" stroke-miterlimit="10" fill="none" fill-rule="evenodd"/></g><g><text font-family="Inter Medium,Inter Medium_MSFontService,sans-serif" font-weight="500" font-size="37" transform="matrix(1 0 0 1 2300.5 23214)">ADR Index</text></g><rect x="1805.5" y="23020.5" width="2096" height="1046" stroke="#D9D9D9" stroke-width="3.4375" stroke-linejoin="round" stroke-miterlimit="10" fill="none"/><g><text fill="#7F7F7F" font-family="Inter,Inter_MSFontService,sans-serif" font-weight="400" font-size="32" transform="matrix(1 0 0 1 1886.76 23163)">YOY, Source: STR, str.com</text></g></g></svg>