<svg width="2106" height="1052" xmlns="http://www.w3.org/2000/svg" xmlns:xlink="http://www.w3.org/1999/xlink" xml:space="preserve" overflow="hidden"><defs><filter id="fx0" x="-10%" y="-10%" width="120%" height="120%" filterUnits="userSpaceOnUse" primitiveUnits="userSpaceOnUse"><feComponentTransfer color-interpolation-filters="sRGB"><feFuncR type="discrete" tableValues="0 0"/><feFuncG type="discrete" tableValues="0 0"/><feFuncB type="discrete" tableValues="0 0"/><feFuncA type="linear" slope="0.501961" intercept="0"/></feComponentTransfer><feGaussianBlur stdDeviation="4.58333 4.58333"/></filter><filter id="fx1" x="-10%" y="-10%" width="120%" height="120%" filterUnits="userSpaceOnUse" primitiveUnits="userSpaceOnUse"><feComponentTransfer color-interpolation-filters="sRGB"><feFuncR type="discrete" tableValues="0 0"/><feFuncG type="discrete" tableValues="0 0"/><feFuncB type="discrete" tableValues="0 0"/><feFuncA type="linear" slope="0.501961" intercept="0"/></feComponentTransfer><feGaussianBlur stdDeviation="4.58333 4.58333"/></filter><clipPath id="clip2"><rect x="1811" y="23103" width="2106" height="1052"/></clipPath><clipPath id="clip3"><rect x="1978" y="23350" width="1885" height="654"/></clipPath><clipPath id="clip4"><rect x="1978" y="23350" width="1885" height="654"/></clipPath></defs><g clip-path="url(#clip2)" transform="translate(-1811 -23103)"><rect x="1812" y="23104" width="2103" height="1049" fill="#FFFFFF"/><g><rect x="1979" y="23350" width="1882" height="651" fill="#F2F2F2"/></g><g><path d="M1978.5 23567.5 3860.5 23567.5" stroke="#D9D9D9" stroke-width="3.4375" stroke-linejoin="round" stroke-miterlimit="10" fill="none" fill-rule="evenodd"/></g><g clip-path="url(#clip3)"><g filter="url(#fx0)" transform="translate(1976 23455)"><g><path d="M19.9819 185.242C71.6486 174.107 123.315 162.879 174.982 151.837 226.649 140.795 278.315 124.464 329.982 118.989 381.649 113.514 433.315 135.475 484.982 118.989 536.649 102.503 588.315 11.9824 639.982 20.0747 691.649 28.1665 743.315 153.002 794.982 167.542 846.649 182.082 898.315 112.74 949.982 107.314 1001.65 101.888 1053.32 117.026 1104.98 134.986 1156.65 152.947 1208.32 220.982 1259.98 215.079 1311.65 209.175 1389.15 118.817 1414.98 99.5652" stroke="#FFB226" stroke-width="9" stroke-linecap="round" stroke-linejoin="round" stroke-miterlimit="10" fill="none"/></g></g></g><g clip-path="url(#clip4)"><g filter="url(#fx1)" transform="translate(1976 23469)"><g><path d="M19.9819 99.7594C71.6486 95.4718 123.315 86.1275 174.982 86.8974 226.649 87.6669 278.315 101.465 329.982 104.378 381.649 107.292 433.315 118.45 484.982 104.378 536.649 90.3061 588.315 16.9824 639.982 19.9464 691.649 22.9101 743.315 111.339 794.982 122.161 846.649 132.982 898.315 84.1561 949.982 84.8755 1001.65 85.5944 1053.32 123.948 1104.98 126.477 1156.65 129.005 1208.32 109.895 1259.98 100.045 1311.65 90.1942 1389.15 72.8194 1414.98 67.3747" stroke="#000000" stroke-width="9" stroke-linecap="round" stroke-linejoin="round" stroke-miterlimit="10" fill="none"/></g></g></g><g><path d="M1989.5 23633.8C2041.17 23622.6 2092.83 23611.4 2144.5 23600.4 2196.17 23589.3 2247.83 23573 2299.5 23567.5 2351.17 23562 2402.83 23584 2454.5 23567.5 2506.17 23551 2557.83 23460.5 2609.5 23468.6 2661.17 23476.7 2712.83 23601.5 2764.5 23616.1 2816.17 23630.6 2867.83 23561.3 2919.5 23555.8 2971.17 23550.4 3022.83 23565.5 3074.5 23583.5 3126.17 23601.5 3177.83 23669.5 3229.5 23663.6 3281.17 23657.7 3358.67 23567.3 3384.5 23548.1" stroke="#FFB226" stroke-width="9.16667" stroke-linecap="round" stroke-linejoin="round" stroke-miterlimit="10" fill="none"/></g><g><path d="M1989.5 23562.3C2041.17 23558 2092.83 23548.6 2144.5 23549.4 2196.17 23550.2 2247.83 23564 2299.5 23566.9 2351.17 23569.8 2402.83 23581 2454.5 23566.9 2506.17 23552.8 2557.83 23479.5 2609.5 23482.5 2661.17 23485.4 2712.83 23573.9 2764.5 23584.7 2816.17 23595.5 2867.83 23546.7 2919.5 23547.4 2971.17 23548.1 3022.83 23586.5 3074.5 23589 3126.17 23591.5 3177.83 23572.4 3229.5 23562.6 3281.17 23552.7 3358.67 23535.3 3384.5 23529.9" stroke="#000000" stroke-width="9.16667" stroke-linecap="round" stroke-linejoin="round" stroke-miterlimit="10" fill="none"/></g><g><text font-family="Inter,Inter_MSFontService,sans-serif" font-weight="400" font-size="32" transform="matrix(1 0 0 1 1909.24 24011)">80</text></g><g><text font-family="Inter,Inter_MSFontService,sans-serif" font-weight="400" font-size="32" transform="matrix(1 0 0 1 1909.01 23794)">90</text></g><g><text font-family="Inter,Inter_MSFontService,sans-serif" font-weight="400" font-size="32" transform="matrix(1 0 0 1 1894.07 23577)">100</text></g><g><text font-family="Inter,Inter_MSFontService,sans-serif" font-weight="400" font-size="32" transform="matrix(1 0 0 1 1899.22 23360)">110</text></g><g><text font-family="Inter,Inter_MSFontService,sans-serif" font-weight="400" font-size="32" transform="matrix(0.707107 -0.707107 0.707107 0.707107 1951.61 24090)">12/6</text></g><g><text font-family="Inter,Inter_MSFontService,sans-serif" font-weight="400" font-size="32" transform="matrix(0.707107 -0.707107 0.707107 0.707107 2403.98 24103)">12/27</text></g><g><text font-family="Inter,Inter_MSFontService,sans-serif" font-weight="400" font-size="32" transform="matrix(0.707107 -0.707107 0.707107 0.707107 2885.79 24086)">1/17</text></g><g><text font-family="Inter,Inter_MSFontService,sans-serif" font-weight="400" font-size="32" transform="matrix(0.707107 -0.707107 0.707107 0.707107 3358.03 24079)">2/7</text></g><g><text font-family="Inter,Inter_MSFontService,sans-serif" font-weight="400" font-size="32" transform="matrix(0.707107 -0.707107 0.707107 0.707107 3808.17 24093)">2/28</text></g><g><text font-family="Inter Medium,Inter Medium_MSFontService,sans-serif" font-weight="700" font-size="46" transform="matrix(1 0 0 1 1895.56 23193)">U.S. Hotel Occupancy and ADR Recovery Levels</text></g><g><path d="M1886.5 23286.5 1974.5 23286.5" stroke="#FFB226" stroke-width="9.16667" stroke-linecap="round" stroke-linejoin="round" stroke-miterlimit="10" fill="none" fill-rule="evenodd"/></g><g><text font-family="Inter Medium,Inter Medium_MSFontService,sans-serif" font-weight="500" font-size="37" transform="matrix(1 0 0 1 1984.15 23299)">Occ Index</text></g><g><path d="M2211.5 23286.5 2299.5 23286.5" stroke="#000000" stroke-width="9.16667" stroke-linecap="round" stroke-linejoin="round" stroke-miterlimit="10" fill="none" fill-rule="evenodd"/></g><g><text font-family="Inter Medium,Inter Medium_MSFontService,sans-serif" font-weight="500" font-size="37" transform="matrix(1 0 0 1 2308.7 23299)">ADR Index</text></g><rect x="1812.5" y="23104.5" width="2103" height="1049" stroke="#D9D9D9" stroke-width="3.4375" stroke-linejoin="round" stroke-miterlimit="10" fill="none"/><g><text fill="#7F7F7F" font-family="Inter,Inter_MSFontService,sans-serif" font-weight="400" font-size="32" transform="matrix(1 0 0 1 1893.3 23247)">YOY, Source: STR, str.com</text></g></g></svg>