<svg width="2110" height="1067" xmlns="http://www.w3.org/2000/svg" xmlns:xlink="http://www.w3.org/1999/xlink" xml:space="preserve" overflow="hidden"><defs><filter id="fx0" x="-10%" y="-10%" width="120%" height="120%" filterUnits="userSpaceOnUse" primitiveUnits="userSpaceOnUse"><feComponentTransfer color-interpolation-filters="sRGB"><feFuncR type="discrete" tableValues="0 0"/><feFuncG type="discrete" tableValues="0 0"/><feFuncB type="discrete" tableValues="0 0"/><feFuncA type="linear" slope="0.501961" intercept="0"/></feComponentTransfer><feGaussianBlur stdDeviation="4.58333 4.58333"/></filter><filter id="fx1" x="-10%" y="-10%" width="120%" height="120%" filterUnits="userSpaceOnUse" primitiveUnits="userSpaceOnUse"><feComponentTransfer color-interpolation-filters="sRGB"><feFuncR type="discrete" tableValues="0 0"/><feFuncG type="discrete" tableValues="0 0"/><feFuncB type="discrete" tableValues="0 0"/><feFuncA type="linear" slope="0.501961" intercept="0"/></feComponentTransfer><feGaussianBlur stdDeviation="4.58333 4.58333"/></filter><clipPath id="clip2"><rect x="1813" y="23448" width="2110" height="1067"/></clipPath><clipPath id="clip3"><rect x="1981" y="23699" width="1888" height="663"/></clipPath><clipPath id="clip4"><rect x="1981" y="23699" width="1888" height="663"/></clipPath></defs><g clip-path="url(#clip2)" transform="translate(-1813 -23448)"><rect x="1814" y="23449" width="2107" height="1064" fill="#FFFFFF"/><g><rect x="1982" y="23699" width="1884" height="660" fill="#FFFFFF"/></g><g><path d="M1981.5 23919.5 3866.5 23919.5" stroke="#C00000" stroke-width="3.4375" stroke-linejoin="round" stroke-miterlimit="10" fill="none" fill-rule="evenodd"/></g><g clip-path="url(#clip3)"><g filter="url(#fx0)" transform="translate(1974 23806)"><g><path d="M19.9819 187.189C44.9632 175.893 69.9449 172.012 94.9265 153.301 119.908 134.59 144.889 66.6221 169.871 74.9239 194.852 83.2258 219.834 212.328 244.815 203.112 269.797 193.896 294.778 25.2754 319.76 19.6291 344.741 13.9824 369.722 154.482 394.704 169.233 419.685 183.983 444.667 113.636 469.649 108.132 494.63 102.627 519.611 117.985 544.593 136.206 569.574 154.427 594.556 223.447 619.537 217.458 644.519 211.469 669.5 125.697 694.482 100.271 719.463 74.8445 744.445 73.1849 769.426 64.8997 794.408 56.6144 819.389 41.3799 844.371 50.5595 869.352 59.7389 894.333 111.937 919.315 119.977 944.296 128.016 969.278 107.372 994.26 98.7931 1019.24 90.2138 1044.22 74.4297 1069.2 68.5027 1094.19 62.5754 1119.17 64.24 1144.15 63.2307 1169.13 62.221 1194.11 34.5718 1219.09 62.4461 1244.07 90.32 1269.06 216.969 1294.04 230.476 1319.02 243.982 1356.49 157.984 1368.98 143.485" stroke="#FFB226" stroke-width="9" stroke-linecap="round" stroke-linejoin="round" stroke-miterlimit="10" fill="none"/></g></g></g><g clip-path="url(#clip4)"><g filter="url(#fx1)" transform="translate(1974 23788)"><g><path d="M19.9819 132.678C44.9632 128.337 69.9449 123.839 94.9265 119.655 119.908 115.471 144.889 89.9001 169.871 107.574 194.852 125.248 219.834 234.983 244.815 225.698 269.797 216.413 294.778 63.5866 319.76 51.8638 344.741 40.1411 369.722 144.404 394.704 155.361 419.685 166.318 444.667 116.879 469.649 117.607 494.63 118.335 519.611 157.17 544.593 159.731 569.574 162.29 594.556 142.94 619.537 132.967 644.519 122.992 669.5 106.246 694.482 99.887 719.463 93.5274 744.445 99.2404 769.426 94.8103 794.408 90.3798 819.389 65.6844 844.371 73.3043 869.352 80.9238 894.333 143.408 919.315 140.529 944.296 137.65 969.278 68.9138 994.26 56.0316 1019.24 43.1491 1044.22 57.516 1069.2 63.2342 1094.19 68.952 1119.17 97.5863 1144.15 90.3391 1169.13 83.0915 1194.11 11.9824 1219.09 19.75 1244.07 27.5173 1269.06 122.993 1294.04 136.943 1319.02 150.894 1356.49 109.035 1368.98 103.454" stroke="#000000" stroke-width="9" stroke-linecap="round" stroke-linejoin="round" stroke-miterlimit="10" fill="none"/></g></g></g><g><path d="M1987.5 23986.7C2012.48 23975.4 2037.46 23971.5 2062.44 23952.8 2087.43 23934.1 2112.41 23866.1 2137.39 23874.4 2162.37 23882.7 2187.35 24011.8 2212.33 24002.6 2237.31 23993.4 2262.3 23824.8 2287.28 23819.1 2312.26 23813.5 2337.24 23954 2362.22 23968.8 2387.2 23983.5 2412.19 23913.2 2437.17 23907.7 2462.15 23902.1 2487.13 23917.5 2512.11 23935.7 2537.09 23953.9 2562.07 24023 2587.06 24017 2612.04 24011 2637.02 23925.2 2662 23899.8 2686.98 23874.4 2711.96 23872.7 2736.94 23864.4 2761.93 23856.1 2786.91 23840.9 2811.89 23850.1 2836.87 23859.3 2861.85 23911.5 2886.83 23919.5 2911.81 23927.5 2936.8 23906.9 2961.78 23898.3 2986.76 23889.7 3011.74 23873.9 3036.72 23868 3061.7 23862.1 3086.69 23863.8 3111.67 23862.7 3136.65 23861.7 3161.63 23834.1 3186.61 23862 3211.59 23889.8 3236.57 24016.5 3261.56 24030 3286.54 24043.5 3324.01 23957.5 3336.5 23943" stroke="#FFB226" stroke-width="9.16667" stroke-linecap="round" stroke-linejoin="round" stroke-miterlimit="10" fill="none"/></g><g><path d="M1987.5 23914.2C2012.48 23909.9 2037.46 23905.4 2062.44 23901.2 2087.43 23897 2112.41 23871.4 2137.39 23889.1 2162.37 23906.8 2187.35 24016.5 2212.33 24007.2 2237.31 23997.9 2262.3 23845.1 2287.28 23833.4 2312.26 23821.7 2337.24 23925.9 2362.22 23936.9 2387.2 23947.8 2412.19 23898.4 2437.17 23899.1 2462.15 23899.9 2487.13 23938.7 2512.11 23941.2 2537.09 23943.8 2562.07 23924.5 2587.06 23914.5 2612.04 23904.5 2637.02 23887.8 2662 23881.4 2686.98 23875 2711.96 23880.8 2736.94 23876.3 2761.93 23871.9 2786.91 23847.2 2811.89 23854.8 2836.87 23862.4 2861.85 23924.9 2886.83 23922 2911.81 23919.2 2936.8 23850.4 2961.78 23837.5 2986.76 23824.7 3011.74 23839 3036.72 23844.8 3061.7 23850.5 3086.69 23879.1 3111.67 23871.9 3136.65 23864.6 3161.63 23793.5 3186.61 23801.3 3211.59 23809 3236.57 23904.5 3261.56 23918.5 3286.54 23932.4 3324.01 23890.6 3336.5 23885" stroke="#000000" stroke-width="9.16667" stroke-linecap="round" stroke-linejoin="round" stroke-miterlimit="10" fill="none"/></g><g><text font-family="Inter,Inter_MSFontService,sans-serif" font-weight="400" font-size="32" transform="matrix(1 0 0 1 1912.06 24369)">80</text></g><g><text font-family="Inter,Inter_MSFontService,sans-serif" font-weight="400" font-size="32" transform="matrix(1 0 0 1 1912.01 24149)">90</text></g><g><text font-family="Inter,Inter_MSFontService,sans-serif" font-weight="400" font-size="32" transform="matrix(1 0 0 1 1898.63 23929)">100</text></g><g><text font-family="Inter,Inter_MSFontService,sans-serif" font-weight="400" font-size="32" transform="matrix(1 0 0 1 1905.82 23709)">110</text></g><g><text font-family="Inter,Inter_MSFontService,sans-serif" font-weight="400" font-size="32" transform="matrix(0.707107 -0.707107 0.707107 0.707107 1950.17 24447)">12/6</text></g><g><text font-family="Inter,Inter_MSFontService,sans-serif" font-weight="400" font-size="32" transform="matrix(0.707107 -0.707107 0.707107 0.707107 2015.95 24456)">12/13</text></g><g><text font-family="Inter,Inter_MSFontService,sans-serif" font-weight="400" font-size="32" transform="matrix(0.707107 -0.707107 0.707107 0.707107 2085.99 24461)">12/20</text></g><g><text font-family="Inter,Inter_MSFontService,sans-serif" font-weight="400" font-size="32" transform="matrix(0.707107 -0.707107 0.707107 0.707107 2162.42 24460)">12/27</text></g><g><text font-family="Inter,Inter_MSFontService,sans-serif" font-weight="400" font-size="32" transform="matrix(0.707107 -0.707107 0.707107 0.707107 2263.87 24433)">1/3</text></g><g><text font-family="Inter,Inter_MSFontService,sans-serif" font-weight="400" font-size="32" transform="matrix(0.707107 -0.707107 0.707107 0.707107 2329.31 24443)">1/10</text></g><g><text font-family="Inter,Inter_MSFontService,sans-serif" font-weight="400" font-size="32" transform="matrix(0.707107 -0.707107 0.707107 0.707107 2405.74 24441)">1/17</text></g><g><text font-family="Inter,Inter_MSFontService,sans-serif" font-weight="400" font-size="32" transform="matrix(0.707107 -0.707107 0.707107 0.707107 2474.26 24448)">1/24</text></g><g><text font-family="Inter,Inter_MSFontService,sans-serif" font-weight="400" font-size="32" transform="matrix(0.707107 -0.707107 0.707107 0.707107 2554.47 24443)">1/31</text></g><g><text font-family="Inter,Inter_MSFontService,sans-serif" font-weight="400" font-size="32" transform="matrix(0.707107 -0.707107 0.707107 0.707107 2635.21 24437)">2/7</text></g><g><text font-family="Inter,Inter_MSFontService,sans-serif" font-weight="400" font-size="32" transform="matrix(0.707107 -0.707107 0.707107 0.707107 2699.13 24448)">2/14</text></g><g><text font-family="Inter,Inter_MSFontService,sans-serif" font-weight="400" font-size="32" transform="matrix(0.707107 -0.707107 0.707107 0.707107 2774.89 24447)">2/21</text></g><g><text font-family="Inter,Inter_MSFontService,sans-serif" font-weight="400" font-size="32" transform="matrix(0.707107 -0.707107 0.707107 0.707107 2845.03 24452)">2/28</text></g><g><text font-family="Inter,Inter_MSFontService,sans-serif" font-weight="400" font-size="32" transform="matrix(0.707107 -0.707107 0.707107 0.707107 2934.85 24437)">3/7</text></g><g><text font-family="Inter,Inter_MSFontService,sans-serif" font-weight="400" font-size="32" transform="matrix(0.707107 -0.707107 0.707107 0.707107 2998.76 24448)">3/14</text></g><g><text font-family="Inter,Inter_MSFontService,sans-serif" font-weight="400" font-size="32" transform="matrix(0.707107 -0.707107 0.707107 0.707107 3074.53 24447)">3/21</text></g><g><text font-family="Inter,Inter_MSFontService,sans-serif" font-weight="400" font-size="32" transform="matrix(0.707107 -0.707107 0.707107 0.707107 3144.67 24452)">3/28</text></g><g><text font-family="Inter,Inter_MSFontService,sans-serif" font-weight="400" font-size="32" transform="matrix(0.707107 -0.707107 0.707107 0.707107 3232.22 24439)">4/4</text></g><g><text font-family="Inter,Inter_MSFontService,sans-serif" font-weight="400" font-size="32" transform="matrix(0.707107 -0.707107 0.707107 0.707107 3303.38 24443)">4/11</text></g><g><text font-family="Inter,Inter_MSFontService,sans-serif" font-weight="400" font-size="32" transform="matrix(0.707107 -0.707107 0.707107 0.707107 3373.52 24448)">4/18</text></g><g><text font-family="Inter,Inter_MSFontService,sans-serif" font-weight="400" font-size="32" transform="matrix(0.707107 -0.707107 0.707107 0.707107 3444.42 24452)">4/25</text></g><g><text font-family="Inter,Inter_MSFontService,sans-serif" font-weight="400" font-size="32" transform="matrix(0.707107 -0.707107 0.707107 0.707107 3534.03 24437)">5/2</text></g><g><text font-family="Inter,Inter_MSFontService,sans-serif" font-weight="400" font-size="32" transform="matrix(0.707107 -0.707107 0.707107 0.707107 3608.75 24438)">5/9</text></g><g><text font-family="Inter,Inter_MSFontService,sans-serif" font-weight="400" font-size="32" transform="matrix(0.707107 -0.707107 0.707107 0.707107 3674.49 24447)">5/16</text></g><g><text font-family="Inter,Inter_MSFontService,sans-serif" font-weight="400" font-size="32" transform="matrix(0.707107 -0.707107 0.707107 0.707107 3744.87 24451)">5/23</text></g><g><text font-family="Inter,Inter_MSFontService,sans-serif" font-weight="400" font-size="32" transform="matrix(0.707107 -0.707107 0.707107 0.707107 3819.36 24452)">5/30</text></g><g><text font-family="Inter Medium,Inter Medium_MSFontService,sans-serif" font-weight="700" font-size="46" transform="matrix(1 0 0 1 1898.49 23539)">U.S. Hotel Occupancy and ADR Recovery Levels</text></g><g><path d="M1889.5 23634.5 1977.5 23634.5" stroke="#FFB226" stroke-width="9.16667" stroke-linecap="round" stroke-linejoin="round" stroke-miterlimit="10" fill="none" fill-rule="evenodd"/></g><g><text font-family="Inter Medium,Inter Medium_MSFontService,sans-serif" font-weight="500" font-size="37" transform="matrix(1 0 0 1 1986.82 23647)">Occ Index</text></g><g><path d="M2214.5 23634.5 2302.5 23634.5" stroke="#000000" stroke-width="9.16667" stroke-linecap="round" stroke-linejoin="round" stroke-miterlimit="10" fill="none" fill-rule="evenodd"/></g><g><text font-family="Inter Medium,Inter Medium_MSFontService,sans-serif" font-weight="500" font-size="37" transform="matrix(1 0 0 1 2312.07 23647)">ADR Index</text></g><rect x="1814.5" y="23449.5" width="2107" height="1064" stroke="#D9D9D9" stroke-width="3.4375" stroke-linejoin="round" stroke-miterlimit="10" fill="none"/><g><text fill="#7F7F7F" font-family="Inter,Inter_MSFontService,sans-serif" font-weight="400" font-size="32" transform="matrix(1 0 0 1 1896.2 23594)">YOY, Source: STR, str.com</text></g></g></svg>