<svg width="2106" height="1094" xmlns="http://www.w3.org/2000/svg" xmlns:xlink="http://www.w3.org/1999/xlink" xml:space="preserve" overflow="hidden"><defs><filter id="fx0" x="-10%" y="-10%" width="120%" height="120%" filterUnits="userSpaceOnUse" primitiveUnits="userSpaceOnUse"><feComponentTransfer color-interpolation-filters="sRGB"><feFuncR type="discrete" tableValues="0 0"/><feFuncG type="discrete" tableValues="0 0"/><feFuncB type="discrete" tableValues="0 0"/><feFuncA type="linear" slope="0.501961" intercept="0"/></feComponentTransfer><feGaussianBlur stdDeviation="4.58333 4.58333"/></filter><filter id="fx1" x="-10%" y="-10%" width="120%" height="120%" filterUnits="userSpaceOnUse" primitiveUnits="userSpaceOnUse"><feComponentTransfer color-interpolation-filters="sRGB"><feFuncR type="discrete" tableValues="0 0"/><feFuncG type="discrete" tableValues="0 0"/><feFuncB type="discrete" tableValues="0 0"/><feFuncA type="linear" slope="0.501961" intercept="0"/></feComponentTransfer><feGaussianBlur stdDeviation="4.58333 4.58333"/></filter><clipPath id="clip2"><rect x="1811" y="24065" width="2106" height="1094"/></clipPath><clipPath id="clip3"><rect x="1978" y="24322" width="1885" height="680"/></clipPath><clipPath id="clip4"><rect x="1978" y="24322" width="1885" height="680"/></clipPath></defs><g clip-path="url(#clip2)" transform="translate(-1811 -24065)"><rect x="1812" y="24066" width="2103" height="1091" fill="#FFFFFF"/><g><rect x="1979" y="24322" width="1882" height="677" fill="#F2F2F2"/></g><g><path d="M1978.5 24547.5 3860.5 24547.5" stroke="#D9D9D9" stroke-width="3.4375" stroke-linejoin="round" stroke-miterlimit="10" fill="none" fill-rule="evenodd"/></g><g clip-path="url(#clip3)"><g filter="url(#fx0)" transform="translate(1973 24431)"><g><path d="M19.9818 178.554C56.5817 140.838 93.1817 60.4329 129.782 65.4051 166.382 70.377 202.982 198.791 239.582 208.387 276.182 217.982 312.782 135.712 349.382 122.98 385.982 110.247 422.581 120.536 459.182 131.99 495.782 143.444 532.382 187.526 568.982 191.703 605.582 195.88 642.182 168.507 678.782 157.053 715.382 145.598 751.981 128.658 788.582 122.98 825.182 117.301 861.781 140.08 898.382 122.98 934.982 105.879 971.581 11.9824 1008.18 20.3764 1044.78 28.77 1099.68 147.848 1117.98 173.343" stroke="#FFB226" stroke-width="9" stroke-linecap="round" stroke-linejoin="round" stroke-miterlimit="10" fill="none"/></g></g></g><g clip-path="url(#clip4)"><g filter="url(#fx1)" transform="translate(1973 24439)"><g><path d="M19.9818 99.1299C56.5817 72.7473 93.1817 15.9824 129.782 19.982 166.382 23.9811 202.982 107.268 239.582 123.125 276.182 138.982 312.782 117.045 349.382 115.126 385.982 113.207 422.581 112.411 459.182 111.611 495.782 110.812 532.382 112.769 568.982 110.329 605.582 107.89 642.182 96.1747 678.782 96.9742 715.382 97.7733 751.981 112.1 788.582 115.126 825.182 118.151 861.781 129.738 898.382 115.126 934.982 100.514 971.581 24.376 1008.18 27.4538 1044.78 30.5313 1099.68 115.901 1117.98 133.591" stroke="#000000" stroke-width="9" stroke-linecap="round" stroke-linejoin="round" stroke-miterlimit="10" fill="none"/></g></g></g><g><path d="M1986.5 24603.1C2023.1 24565.4 2059.7 24485 2096.3 24489.9 2132.9 24494.9 2169.5 24623.3 2206.1 24632.9 2242.7 24642.5 2279.3 24560.2 2315.9 24547.5 2352.5 24534.8 2389.1 24545.1 2425.7 24556.5 2462.3 24568 2498.9 24612 2535.5 24616.2 2572.1 24620.4 2608.7 24593 2645.3 24581.6 2681.9 24570.1 2718.5 24553.2 2755.1 24547.5 2791.7 24541.8 2828.3 24564.6 2864.9 24547.5 2901.5 24530.4 2938.1 24436.5 2974.7 24444.9 3011.3 24453.3 3066.2 24572.4 3084.5 24597.9" stroke="#FFB226" stroke-width="9.16667" stroke-linecap="round" stroke-linejoin="round" stroke-miterlimit="10" fill="none"/></g><g><path d="M1986.5 24531.6C2023.1 24505.3 2059.7 24448.5 2096.3 24452.5 2132.9 24456.5 2169.5 24539.8 2206.1 24555.6 2242.7 24571.5 2279.3 24549.6 2315.9 24547.6 2352.5 24545.7 2389.1 24544.9 2425.7 24544.1 2462.3 24543.3 2498.9 24545.3 2535.5 24542.8 2572.1 24540.4 2608.7 24528.7 2645.3 24529.5 2681.9 24530.3 2718.5 24544.6 2755.1 24547.6 2791.7 24550.7 2828.3 24562.3 2864.9 24547.6 2901.5 24533 2938.1 24456.9 2974.7 24460 3011.3 24463 3066.2 24548.4 3084.5 24566.1" stroke="#000000" stroke-width="9.16667" stroke-linecap="round" stroke-linejoin="round" stroke-miterlimit="10" fill="none"/></g><g><text font-family="Inter,Inter_MSFontService,sans-serif" font-weight="400" font-size="32" transform="matrix(1 0 0 1 1909.24 25009)">80</text></g><g><text font-family="Inter,Inter_MSFontService,sans-serif" font-weight="400" font-size="32" transform="matrix(1 0 0 1 1909.01 24783)">90</text></g><g><text font-family="Inter,Inter_MSFontService,sans-serif" font-weight="400" font-size="32" transform="matrix(1 0 0 1 1894.07 24558)">100</text></g><g><text font-family="Inter,Inter_MSFontService,sans-serif" font-weight="400" font-size="32" transform="matrix(1 0 0 1 1899.22 24332)">110</text></g><g><text font-family="Inter,Inter_MSFontService,sans-serif" font-weight="400" font-size="32" transform="matrix(0.707107 -0.707107 0.707107 0.707107 1955.19 25081)">11/1</text></g><g><text font-family="Inter,Inter_MSFontService,sans-serif" font-weight="400" font-size="32" transform="matrix(0.707107 -0.707107 0.707107 0.707107 2267.57 25098)">11/22</text></g><g><text font-family="Inter,Inter_MSFontService,sans-serif" font-weight="400" font-size="32" transform="matrix(0.707107 -0.707107 0.707107 0.707107 2596.16 25099)">12/13</text></g><g><text font-family="Inter,Inter_MSFontService,sans-serif" font-weight="400" font-size="32" transform="matrix(0.707107 -0.707107 0.707107 0.707107 2949.72 25075)">1/3</text></g><g><text font-family="Inter,Inter_MSFontService,sans-serif" font-weight="400" font-size="32" transform="matrix(0.707107 -0.707107 0.707107 0.707107 3265.17 25088)">1/24</text></g><g><text font-family="Inter,Inter_MSFontService,sans-serif" font-weight="400" font-size="32" transform="matrix(0.707107 -0.707107 0.707107 0.707107 3594.47 25088)">2/14</text></g><g><text font-family="Inter Medium,Inter Medium_MSFontService,sans-serif" font-weight="700" font-size="46" transform="matrix(1 0 0 1 1895.56 24157)">U.S. Hotel Occupancy and ADR Recovery Levels</text></g><g><path d="M1886.5 24256.5 1974.5 24256.5" stroke="#FFB226" stroke-width="9.16667" stroke-linecap="round" stroke-linejoin="round" stroke-miterlimit="10" fill="none" fill-rule="evenodd"/></g><g><text font-family="Inter Medium,Inter Medium_MSFontService,sans-serif" font-weight="500" font-size="37" transform="matrix(1 0 0 1 1984.15 24268)">Occ Index</text></g><g><path d="M2211.5 24256.5 2299.5 24256.5" stroke="#000000" stroke-width="9.16667" stroke-linecap="round" stroke-linejoin="round" stroke-miterlimit="10" fill="none" fill-rule="evenodd"/></g><g><text font-family="Inter Medium,Inter Medium_MSFontService,sans-serif" font-weight="500" font-size="37" transform="matrix(1 0 0 1 2308.7 24268)">ADR Index</text></g><rect x="1812.5" y="24066.5" width="2103" height="1091" stroke="#D9D9D9" stroke-width="3.4375" stroke-linejoin="round" stroke-miterlimit="10" fill="none"/><g><text fill="#7F7F7F" font-family="Inter,Inter_MSFontService,sans-serif" font-weight="400" font-size="32" transform="matrix(1 0 0 1 1893.3 24213)">YOY, Source: STR, str.com</text></g></g></svg>