<svg width="2102" height="1094" xmlns="http://www.w3.org/2000/svg" xmlns:xlink="http://www.w3.org/1999/xlink" xml:space="preserve" overflow="hidden"><defs><filter id="fx0" x="-10%" y="-10%" width="120%" height="120%" filterUnits="userSpaceOnUse" primitiveUnits="userSpaceOnUse"><feComponentTransfer color-interpolation-filters="sRGB"><feFuncR type="discrete" tableValues="0 0"/><feFuncG type="discrete" tableValues="0 0"/><feFuncB type="discrete" tableValues="0 0"/><feFuncA type="linear" slope="0.501961" intercept="0"/></feComponentTransfer><feGaussianBlur stdDeviation="4.58333 4.58333"/></filter><filter id="fx1" x="-10%" y="-10%" width="120%" height="120%" filterUnits="userSpaceOnUse" primitiveUnits="userSpaceOnUse"><feComponentTransfer color-interpolation-filters="sRGB"><feFuncR type="discrete" tableValues="0 0"/><feFuncG type="discrete" tableValues="0 0"/><feFuncB type="discrete" tableValues="0 0"/><feFuncA type="linear" slope="0.501961" intercept="0"/></feComponentTransfer><feGaussianBlur stdDeviation="4.58333 4.58333"/></filter><clipPath id="clip2"><rect x="1806" y="24065" width="2102" height="1094"/></clipPath><clipPath id="clip3"><rect x="1974" y="24322" width="1881" height="680"/></clipPath><clipPath id="clip4"><rect x="1974" y="24322" width="1881" height="680"/></clipPath></defs><g clip-path="url(#clip2)" transform="translate(-1806 -24065)"><rect x="1807" y="24066" width="2099" height="1091" fill="#FFFFFF"/><g><rect x="1974" y="24322" width="1878" height="677" fill="#FFFFFF"/></g><g><path d="M1974.5 24547.5 3851.5 24547.5" stroke="#C00000" stroke-width="3.4375" stroke-linejoin="round" stroke-miterlimit="10" fill="none" fill-rule="evenodd"/></g><g clip-path="url(#clip3)"><g filter="url(#fx0)" transform="translate(1966 24431)"><g><path d="M19.9819 191.874C44.863 180.313 69.744 168.656 94.625 157.191 119.506 145.726 144.387 128.769 169.268 123.085 194.148 117.401 219.029 140.202 243.91 123.085 268.791 105.968 293.672 11.9824 318.553 20.3844 343.434 28.786 368.315 158.4 393.196 173.496 418.077 188.593 442.958 116.597 467.839 110.963 492.72 105.329 517.601 121.046 542.482 139.695 567.363 158.343 592.244 228.982 617.125 222.853 642.005 216.724 666.887 128.94 691.768 102.918 716.648 76.8948 741.529 75.1963 766.41 66.7168 791.291 58.2369 816.172 42.6455 841.053 52.0402 865.934 61.435 890.815 114.858 915.696 123.085 940.577 131.313 965.458 110.185 990.339 101.405 1015.22 92.6247 1052.54 75.5712 1064.98 70.4044" stroke="#FFB226" stroke-width="9" stroke-linecap="round" stroke-linejoin="round" stroke-miterlimit="10" fill="none"/></g></g></g><g clip-path="url(#clip4)"><g filter="url(#fx1)" transform="translate(1966 24447)"><g><path d="M19.9819 102.569C44.863 98.1283 69.744 88.4493 94.625 89.2468 119.506 90.0439 144.387 104.336 169.268 107.354 194.148 110.371 219.029 121.93 243.91 107.354 268.791 92.7774 293.672 16.8275 318.553 19.8978 343.434 22.9676 368.315 114.564 393.196 125.773 418.077 136.982 442.958 86.4068 467.839 87.1521 492.72 87.8971 517.601 127.625 542.482 130.244 567.363 132.862 592.244 113.068 617.125 102.865 642.005 92.6616 666.887 75.5302 691.768 69.0246 716.648 62.5191 741.529 68.3635 766.41 63.8313 791.291 59.2988 816.172 34.0359 841.053 41.8311 865.934 49.6259 890.815 113.545 915.696 110.601 940.577 107.656 965.458 37.3396 990.339 24.1612 1015.22 10.9824 1052.54 30.3013 1064.98 31.5294" stroke="#000000" stroke-width="9" stroke-linecap="round" stroke-linejoin="round" stroke-miterlimit="10" fill="none"/></g></g></g><g><path d="M1979.5 24616.4C2004.38 24604.8 2029.26 24593.2 2054.14 24581.7 2079.02 24570.2 2103.9 24553.3 2128.79 24547.6 2153.67 24541.9 2178.55 24564.7 2203.43 24547.6 2228.31 24530.5 2253.19 24436.5 2278.07 24444.9 2302.95 24453.3 2327.83 24582.9 2352.71 24598 2377.59 24613.1 2402.48 24541.1 2427.36 24535.5 2452.24 24529.8 2477.12 24545.6 2502 24564.2 2526.88 24582.9 2551.76 24653.5 2576.64 24647.4 2601.52 24641.2 2626.4 24553.5 2651.29 24527.4 2676.17 24501.4 2701.05 24499.7 2725.93 24491.2 2750.81 24482.8 2775.69 24467.2 2800.57 24476.6 2825.45 24486 2850.33 24539.4 2875.21 24547.6 2900.09 24555.8 2924.98 24534.7 2949.86 24525.9 2974.74 24517.1 3012.06 24500.1 3024.5 24494.9" stroke="#FFB226" stroke-width="9.16667" stroke-linecap="round" stroke-linejoin="round" stroke-miterlimit="10" fill="none"/></g><g><path d="M1979.5 24543.1C2004.38 24538.6 2029.26 24529 2054.14 24529.8 2079.02 24530.6 2103.9 24544.9 2128.79 24547.9 2153.67 24550.9 2178.55 24562.4 2203.43 24547.9 2228.31 24533.3 2253.19 24457.3 2278.07 24460.4 2302.95 24463.5 2327.83 24555.1 2352.71 24566.3 2377.59 24577.5 2402.48 24526.9 2427.36 24527.7 2452.24 24528.4 2477.12 24568.1 2502 24570.8 2526.88 24573.4 2551.76 24553.6 2576.64 24543.4 2601.52 24533.2 2626.4 24516 2651.29 24509.5 2676.17 24503 2701.05 24508.9 2725.93 24504.3 2750.81 24499.8 2775.69 24474.6 2800.57 24482.3 2825.45 24490.1 2850.33 24554.1 2875.21 24551.1 2900.09 24548.2 2924.98 24477.9 2949.86 24464.7 2974.74 24451.5 3012.06 24470.8 3024.5 24472" stroke="#000000" stroke-width="9.16667" stroke-linecap="round" stroke-linejoin="round" stroke-miterlimit="10" fill="none"/></g><g><text font-family="Inter,Inter_MSFontService,sans-serif" font-weight="400" font-size="32" transform="matrix(1 0 0 1 1904.63 25009)">80</text></g><g><text font-family="Inter,Inter_MSFontService,sans-serif" font-weight="400" font-size="32" transform="matrix(1 0 0 1 1904.4 24783)">90</text></g><g><text font-family="Inter,Inter_MSFontService,sans-serif" font-weight="400" font-size="32" transform="matrix(1 0 0 1 1889.46 24558)">100</text></g><g><text font-family="Inter,Inter_MSFontService,sans-serif" font-weight="400" font-size="32" transform="matrix(1 0 0 1 1894.61 24332)">110</text></g><g><text font-family="Inter,Inter_MSFontService,sans-serif" font-weight="400" font-size="32" transform="matrix(0.707107 -0.707107 0.707107 0.707107 1941.26 25088)">12/6</text></g><g><text font-family="Inter,Inter_MSFontService,sans-serif" font-weight="400" font-size="32" transform="matrix(0.707107 -0.707107 0.707107 0.707107 2005.11 25099)">12/13</text></g><g><text font-family="Inter,Inter_MSFontService,sans-serif" font-weight="400" font-size="32" transform="matrix(0.707107 -0.707107 0.707107 0.707107 2076.85 25102)">12/20</text></g><g><text font-family="Inter,Inter_MSFontService,sans-serif" font-weight="400" font-size="32" transform="matrix(0.707107 -0.707107 0.707107 0.707107 2152.75 25101)">12/27</text></g><g><text font-family="Inter,Inter_MSFontService,sans-serif" font-weight="400" font-size="32" transform="matrix(0.707107 -0.707107 0.707107 0.707107 2253.39 25075)">1/3</text></g><g><text font-family="Inter,Inter_MSFontService,sans-serif" font-weight="400" font-size="32" transform="matrix(0.707107 -0.707107 0.707107 0.707107 2317.78 25085)">1/10</text></g><g><text font-family="Inter,Inter_MSFontService,sans-serif" font-weight="400" font-size="32" transform="matrix(0.707107 -0.707107 0.707107 0.707107 2393.69 25084)">1/17</text></g><g><text font-family="Inter,Inter_MSFontService,sans-serif" font-weight="400" font-size="32" transform="matrix(0.707107 -0.707107 0.707107 0.707107 2463.55 25088)">1/24</text></g><g><text font-family="Inter,Inter_MSFontService,sans-serif" font-weight="400" font-size="32" transform="matrix(0.707107 -0.707107 0.707107 0.707107 2541.54 25085)">1/31</text></g><g><text font-family="Inter,Inter_MSFontService,sans-serif" font-weight="400" font-size="32" transform="matrix(0.707107 -0.707107 0.707107 0.707107 2625.05 25076)">2/7</text></g><g><text font-family="Inter,Inter_MSFontService,sans-serif" font-weight="400" font-size="32" transform="matrix(0.707107 -0.707107 0.707107 0.707107 2687.56 25088)">2/14</text></g><g><text font-family="Inter,Inter_MSFontService,sans-serif" font-weight="400" font-size="32" transform="matrix(0.707107 -0.707107 0.707107 0.707107 2763.08 25088)">2/21</text></g><g><text font-family="Inter,Inter_MSFontService,sans-serif" font-weight="400" font-size="32" transform="matrix(0.707107 -0.707107 0.707107 0.707107 2834.3 25091)">2/28</text></g><g><text font-family="Inter,Inter_MSFontService,sans-serif" font-weight="400" font-size="32" transform="matrix(0.707107 -0.707107 0.707107 0.707107 2923.02 25077)">3/7</text></g><g><text font-family="Inter,Inter_MSFontService,sans-serif" font-weight="400" font-size="32" transform="matrix(0.707107 -0.707107 0.707107 0.707107 2985.54 25089)">3/14</text></g><g><text font-family="Inter,Inter_MSFontService,sans-serif" font-weight="400" font-size="32" transform="matrix(0.707107 -0.707107 0.707107 0.707107 3061.05 25088)">3/21</text></g><g><text font-family="Inter,Inter_MSFontService,sans-serif" font-weight="400" font-size="32" transform="matrix(0.707107 -0.707107 0.707107 0.707107 3132.27 25092)">3/28</text></g><g><text font-family="Inter,Inter_MSFontService,sans-serif" font-weight="400" font-size="32" transform="matrix(0.707107 -0.707107 0.707107 0.707107 3219.96 25079)">4/4</text></g><g><text font-family="Inter,Inter_MSFontService,sans-serif" font-weight="400" font-size="32" transform="matrix(0.707107 -0.707107 0.707107 0.707107 3288.13 25085)">4/11</text></g><g><text font-family="Inter,Inter_MSFontService,sans-serif" font-weight="400" font-size="32" transform="matrix(0.707107 -0.707107 0.707107 0.707107 3359.35 25089)">4/18</text></g><g><text font-family="Inter,Inter_MSFontService,sans-serif" font-weight="400" font-size="32" transform="matrix(0.707107 -0.707107 0.707107 0.707107 3431.03 25092)">4/25</text></g><g><text font-family="Inter,Inter_MSFontService,sans-serif" font-weight="400" font-size="32" transform="matrix(0.707107 -0.707107 0.707107 0.707107 3520.27 25077)">5/2</text></g><g><text font-family="Inter,Inter_MSFontService,sans-serif" font-weight="400" font-size="32" transform="matrix(0.707107 -0.707107 0.707107 0.707107 3594.52 25078)">5/9</text></g><g><text font-family="Inter,Inter_MSFontService,sans-serif" font-weight="400" font-size="32" transform="matrix(0.707107 -0.707107 0.707107 0.707107 3658.66 25088)">5/16</text></g><g><text font-family="Inter,Inter_MSFontService,sans-serif" font-weight="400" font-size="32" transform="matrix(0.707107 -0.707107 0.707107 0.707107 3729.84 25092)">5/23</text></g><g><text font-family="Inter,Inter_MSFontService,sans-serif" font-weight="400" font-size="32" transform="matrix(0.707107 -0.707107 0.707107 0.707107 3804.06 25092)">5/30</text></g><g><text font-family="Inter Medium,Inter Medium_MSFontService,sans-serif" font-weight="700" font-size="46" transform="matrix(1 0 0 1 1891.17 24157)">U.S. Hotel Occupancy and ADR Recovery Levels</text></g><g><path d="M1882.5 24256.5 1970.5 24256.5" stroke="#FFB226" stroke-width="9.16667" stroke-linecap="round" stroke-linejoin="round" stroke-miterlimit="10" fill="none" fill-rule="evenodd"/></g><g><text font-family="Inter Medium,Inter Medium_MSFontService,sans-serif" font-weight="500" font-size="37" transform="matrix(1 0 0 1 1979.35 24268)">Occ Index</text></g><g><path d="M2206.5 24256.5 2294.5 24256.5" stroke="#000000" stroke-width="9.16667" stroke-linecap="round" stroke-linejoin="round" stroke-miterlimit="10" fill="none" fill-rule="evenodd"/></g><g><text font-family="Inter Medium,Inter Medium_MSFontService,sans-serif" font-weight="500" font-size="37" transform="matrix(1 0 0 1 2303.38 24268)">ADR Index</text></g><rect x="1807.5" y="24066.5" width="2099" height="1091" stroke="#D9D9D9" stroke-width="3.4375" stroke-linejoin="round" stroke-miterlimit="10" fill="none"/><g><text fill="#7F7F7F" font-family="Inter,Inter_MSFontService,sans-serif" font-weight="400" font-size="32" transform="matrix(1 0 0 1 1888.96 24213)">YOY, Source: STR, str.com</text></g></g></svg>