<svg width="2110" height="1067" xmlns="http://www.w3.org/2000/svg" xmlns:xlink="http://www.w3.org/1999/xlink" xml:space="preserve" overflow="hidden"><defs><filter id="fx0" x="-10%" y="-10%" width="120%" height="120%" filterUnits="userSpaceOnUse" primitiveUnits="userSpaceOnUse"><feComponentTransfer color-interpolation-filters="sRGB"><feFuncR type="discrete" tableValues="0 0"/><feFuncG type="discrete" tableValues="0 0"/><feFuncB type="discrete" tableValues="0 0"/><feFuncA type="linear" slope="0.501961" intercept="0"/></feComponentTransfer><feGaussianBlur stdDeviation="4.58333 4.58333"/></filter><filter id="fx1" x="-10%" y="-10%" width="120%" height="120%" filterUnits="userSpaceOnUse" primitiveUnits="userSpaceOnUse"><feComponentTransfer color-interpolation-filters="sRGB"><feFuncR type="discrete" tableValues="0 0"/><feFuncG type="discrete" tableValues="0 0"/><feFuncB type="discrete" tableValues="0 0"/><feFuncA type="linear" slope="0.501961" intercept="0"/></feComponentTransfer><feGaussianBlur stdDeviation="4.58333 4.58333"/></filter><clipPath id="clip2"><rect x="1813" y="23448" width="2110" height="1067"/></clipPath><clipPath id="clip3"><rect x="1981" y="23699" width="1888" height="663"/></clipPath><clipPath id="clip4"><rect x="1981" y="23699" width="1888" height="663"/></clipPath></defs><g clip-path="url(#clip2)" transform="translate(-1813 -23448)"><rect x="1814" y="23449" width="2107" height="1064" fill="#FFFFFF"/><g><rect x="1982" y="23699" width="1884" height="660" fill="#FFFFFF"/></g><g><path d="M1981.5 23919.5 3866.5 23919.5" stroke="#C00000" stroke-width="3.4375" stroke-linejoin="round" stroke-miterlimit="10" fill="none" fill-rule="evenodd"/></g><g clip-path="url(#clip3)"><g filter="url(#fx0)" transform="translate(1974 23805)"><g><path d="M19.9819 187.729C44.954 176.435 69.9263 165.046 94.8987 153.845 119.871 142.644 144.843 126.078 169.815 120.525 194.787 114.972 219.76 137.248 244.732 120.525 269.704 103.803 294.676 11.9824 319.648 20.1907 344.62 28.3987 369.593 155.026 394.565 169.775 419.537 184.523 444.51 114.186 469.482 108.682 494.454 103.178 519.426 118.534 544.398 136.752 569.371 154.971 594.343 223.983 619.315 217.994 644.287 212.006 669.259 126.245 694.232 100.822 719.204 75.399 744.176 73.7396 769.149 65.4554 794.121 57.1713 819.093 41.9387 844.065 51.1172 869.037 60.2953 906.495 108.957 918.982 120.525" stroke="#FFB226" stroke-width="9" stroke-linecap="round" stroke-linejoin="round" stroke-miterlimit="10" fill="none"/></g></g></g><g clip-path="url(#clip4)"><g filter="url(#fx1)" transform="translate(1974 23820)"><g><path d="M19.9819 101.186C44.954 96.8251 69.9263 87.3198 94.8987 88.1029 119.871 88.886 144.843 102.921 169.815 105.885 194.787 108.848 219.76 120.199 244.732 105.885 269.704 91.5703 294.676 16.9824 319.648 19.9976 344.62 23.0124 369.593 112.966 394.565 123.975 419.537 134.982 444.51 85.314 469.482 86.0457 494.454 86.7771 519.426 125.792 544.398 128.364 569.371 130.936 594.343 111.496 619.315 101.476 644.287 91.4559 669.259 74.6321 694.232 68.2434 719.204 61.8543 744.176 67.5938 769.149 63.1432 794.121 58.6921 819.093 33.8822 844.065 41.5374 869.037 49.1923 906.495 97.8175 918.982 109.074" stroke="#000000" stroke-width="9" stroke-linecap="round" stroke-linejoin="round" stroke-miterlimit="10" fill="none"/></g></g></g><g><path d="M1987.5 23986.2C2012.47 23975 2037.44 23963.6 2062.42 23952.4 2087.39 23941.2 2112.36 23924.6 2137.33 23919 2162.31 23913.5 2187.28 23935.8 2212.25 23919 2237.22 23902.3 2262.19 23810.5 2287.17 23818.7 2312.14 23826.9 2337.11 23953.5 2362.08 23968.3 2387.06 23983 2412.03 23912.7 2437 23907.2 2461.97 23901.7 2486.94 23917.1 2511.92 23935.3 2536.89 23953.5 2561.86 24022.5 2586.83 24016.5 2611.81 24010.5 2636.78 23924.8 2661.75 23899.3 2686.72 23873.9 2711.69 23872.3 2736.67 23864 2761.64 23855.7 2786.61 23840.5 2811.58 23849.6 2836.56 23858.8 2874.01 23907.5 2886.5 23919" stroke="#FFB226" stroke-width="9.16667" stroke-linecap="round" stroke-linejoin="round" stroke-miterlimit="10" fill="none"/></g><g><path d="M1987.5 23914.7C2012.47 23910.3 2037.44 23900.8 2062.42 23901.6 2087.39 23902.4 2112.36 23916.4 2137.33 23919.4 2162.31 23922.4 2187.28 23933.7 2212.25 23919.4 2237.22 23905.1 2262.19 23830.5 2287.17 23833.5 2312.14 23836.5 2337.11 23926.5 2362.08 23937.5 2387.06 23948.5 2412.03 23898.8 2437 23899.6 2461.97 23900.3 2486.94 23939.3 2511.92 23941.9 2536.89 23944.5 2561.86 23925 2586.83 23915 2611.81 23905 2636.78 23888.2 2661.75 23881.8 2686.72 23875.4 2711.69 23881.1 2736.67 23876.7 2761.64 23872.2 2786.61 23847.4 2811.58 23855.1 2836.56 23862.7 2874.01 23911.3 2886.5 23922.6" stroke="#000000" stroke-width="9.16667" stroke-linecap="round" stroke-linejoin="round" stroke-miterlimit="10" fill="none"/></g><g><text font-family="Inter,Inter_MSFontService,sans-serif" font-weight="400" font-size="32" transform="matrix(1 0 0 1 1912.06 24369)">80</text></g><g><text font-family="Inter,Inter_MSFontService,sans-serif" font-weight="400" font-size="32" transform="matrix(1 0 0 1 1912.01 24149)">90</text></g><g><text font-family="Inter,Inter_MSFontService,sans-serif" font-weight="400" font-size="32" transform="matrix(1 0 0 1 1898.63 23929)">100</text></g><g><text font-family="Inter,Inter_MSFontService,sans-serif" font-weight="400" font-size="32" transform="matrix(1 0 0 1 1905.82 23709)">110</text></g><g><text font-family="Inter,Inter_MSFontService,sans-serif" font-weight="400" font-size="32" transform="matrix(0.707107 -0.707107 0.707107 0.707107 1950.17 24447)">12/6</text></g><g><text font-family="Inter,Inter_MSFontService,sans-serif" font-weight="400" font-size="32" transform="matrix(0.707107 -0.707107 0.707107 0.707107 2015.95 24456)">12/13</text></g><g><text font-family="Inter,Inter_MSFontService,sans-serif" font-weight="400" font-size="32" transform="matrix(0.707107 -0.707107 0.707107 0.707107 2085.99 24461)">12/20</text></g><g><text font-family="Inter,Inter_MSFontService,sans-serif" font-weight="400" font-size="32" transform="matrix(0.707107 -0.707107 0.707107 0.707107 2162.42 24460)">12/27</text></g><g><text font-family="Inter,Inter_MSFontService,sans-serif" font-weight="400" font-size="32" transform="matrix(0.707107 -0.707107 0.707107 0.707107 2263.87 24433)">1/3</text></g><g><text font-family="Inter,Inter_MSFontService,sans-serif" font-weight="400" font-size="32" transform="matrix(0.707107 -0.707107 0.707107 0.707107 2329.31 24443)">1/10</text></g><g><text font-family="Inter,Inter_MSFontService,sans-serif" font-weight="400" font-size="32" transform="matrix(0.707107 -0.707107 0.707107 0.707107 2405.74 24441)">1/17</text></g><g><text font-family="Inter,Inter_MSFontService,sans-serif" font-weight="400" font-size="32" transform="matrix(0.707107 -0.707107 0.707107 0.707107 2474.26 24448)">1/24</text></g><g><text font-family="Inter,Inter_MSFontService,sans-serif" font-weight="400" font-size="32" transform="matrix(0.707107 -0.707107 0.707107 0.707107 2554.47 24443)">1/31</text></g><g><text font-family="Inter,Inter_MSFontService,sans-serif" font-weight="400" font-size="32" transform="matrix(0.707107 -0.707107 0.707107 0.707107 2635.21 24437)">2/7</text></g><g><text font-family="Inter,Inter_MSFontService,sans-serif" font-weight="400" font-size="32" transform="matrix(0.707107 -0.707107 0.707107 0.707107 2699.13 24448)">2/14</text></g><g><text font-family="Inter,Inter_MSFontService,sans-serif" font-weight="400" font-size="32" transform="matrix(0.707107 -0.707107 0.707107 0.707107 2774.89 24447)">2/21</text></g><g><text font-family="Inter,Inter_MSFontService,sans-serif" font-weight="400" font-size="32" transform="matrix(0.707107 -0.707107 0.707107 0.707107 2845.03 24452)">2/28</text></g><g><text font-family="Inter,Inter_MSFontService,sans-serif" font-weight="400" font-size="32" transform="matrix(0.707107 -0.707107 0.707107 0.707107 2934.85 24437)">3/7</text></g><g><text font-family="Inter,Inter_MSFontService,sans-serif" font-weight="400" font-size="32" transform="matrix(0.707107 -0.707107 0.707107 0.707107 2998.76 24448)">3/14</text></g><g><text font-family="Inter,Inter_MSFontService,sans-serif" font-weight="400" font-size="32" transform="matrix(0.707107 -0.707107 0.707107 0.707107 3074.53 24447)">3/21</text></g><g><text font-family="Inter,Inter_MSFontService,sans-serif" font-weight="400" font-size="32" transform="matrix(0.707107 -0.707107 0.707107 0.707107 3144.67 24452)">3/28</text></g><g><text font-family="Inter,Inter_MSFontService,sans-serif" font-weight="400" font-size="32" transform="matrix(0.707107 -0.707107 0.707107 0.707107 3232.22 24439)">4/4</text></g><g><text font-family="Inter,Inter_MSFontService,sans-serif" font-weight="400" font-size="32" transform="matrix(0.707107 -0.707107 0.707107 0.707107 3303.38 24443)">4/11</text></g><g><text font-family="Inter,Inter_MSFontService,sans-serif" font-weight="400" font-size="32" transform="matrix(0.707107 -0.707107 0.707107 0.707107 3373.52 24448)">4/18</text></g><g><text font-family="Inter,Inter_MSFontService,sans-serif" font-weight="400" font-size="32" transform="matrix(0.707107 -0.707107 0.707107 0.707107 3444.42 24452)">4/25</text></g><g><text font-family="Inter,Inter_MSFontService,sans-serif" font-weight="400" font-size="32" transform="matrix(0.707107 -0.707107 0.707107 0.707107 3534.03 24437)">5/2</text></g><g><text font-family="Inter,Inter_MSFontService,sans-serif" font-weight="400" font-size="32" transform="matrix(0.707107 -0.707107 0.707107 0.707107 3608.75 24438)">5/9</text></g><g><text font-family="Inter,Inter_MSFontService,sans-serif" font-weight="400" font-size="32" transform="matrix(0.707107 -0.707107 0.707107 0.707107 3674.49 24447)">5/16</text></g><g><text font-family="Inter,Inter_MSFontService,sans-serif" font-weight="400" font-size="32" transform="matrix(0.707107 -0.707107 0.707107 0.707107 3744.87 24451)">5/23</text></g><g><text font-family="Inter,Inter_MSFontService,sans-serif" font-weight="400" font-size="32" transform="matrix(0.707107 -0.707107 0.707107 0.707107 3819.36 24452)">5/30</text></g><g><text font-family="Inter Medium,Inter Medium_MSFontService,sans-serif" font-weight="700" font-size="46" transform="matrix(1 0 0 1 1898.49 23539)">U.S. Hotel Occupancy and ADR Recovery Levels</text></g><g><path d="M1889.5 23634.5 1977.5 23634.5" stroke="#FFB226" stroke-width="9.16667" stroke-linecap="round" stroke-linejoin="round" stroke-miterlimit="10" fill="none" fill-rule="evenodd"/></g><g><text font-family="Inter Medium,Inter Medium_MSFontService,sans-serif" font-weight="500" font-size="37" transform="matrix(1 0 0 1 1986.82 23647)">Occ Index</text></g><g><path d="M2214.5 23634.5 2302.5 23634.5" stroke="#000000" stroke-width="9.16667" stroke-linecap="round" stroke-linejoin="round" stroke-miterlimit="10" fill="none" fill-rule="evenodd"/></g><g><text font-family="Inter Medium,Inter Medium_MSFontService,sans-serif" font-weight="500" font-size="37" transform="matrix(1 0 0 1 2312.07 23647)">ADR Index</text></g><rect x="1814.5" y="23449.5" width="2107" height="1064" stroke="#D9D9D9" stroke-width="3.4375" stroke-linejoin="round" stroke-miterlimit="10" fill="none"/><g><text fill="#7F7F7F" font-family="Inter,Inter_MSFontService,sans-serif" font-weight="400" font-size="32" transform="matrix(1 0 0 1 1896.2 23594)">YOY, Source: STR, str.com</text></g></g></svg>