<svg width="2095" height="1077" xmlns="http://www.w3.org/2000/svg" xmlns:xlink="http://www.w3.org/1999/xlink" xml:space="preserve" overflow="hidden"><defs><filter id="fx0" x="-10%" y="-10%" width="120%" height="120%" filterUnits="userSpaceOnUse" primitiveUnits="userSpaceOnUse"><feComponentTransfer color-interpolation-filters="sRGB"><feFuncR type="discrete" tableValues="0 0"/><feFuncG type="discrete" tableValues="0 0"/><feFuncB type="discrete" tableValues="0 0"/><feFuncA type="linear" slope="0.501961" intercept="0"/></feComponentTransfer><feGaussianBlur stdDeviation="4.58333 4.58333"/></filter><filter id="fx1" x="-10%" y="-10%" width="120%" height="120%" filterUnits="userSpaceOnUse" primitiveUnits="userSpaceOnUse"><feComponentTransfer color-interpolation-filters="sRGB"><feFuncR type="discrete" tableValues="0 0"/><feFuncG type="discrete" tableValues="0 0"/><feFuncB type="discrete" tableValues="0 0"/><feFuncA type="linear" slope="0.501961" intercept="0"/></feComponentTransfer><feGaussianBlur stdDeviation="4.58333 4.58333"/></filter><clipPath id="clip2"><rect x="1801" y="23701" width="2095" height="1077"/></clipPath><clipPath id="clip3"><rect x="1967" y="23954" width="1876" height="670"/></clipPath><clipPath id="clip4"><rect x="1967" y="23954" width="1876" height="670"/></clipPath></defs><g clip-path="url(#clip2)" transform="translate(-1801 -23701)"><rect x="1802" y="23702" width="2092" height="1074" fill="#FFFFFF"/><g><rect x="1968" y="23954" width="1872" height="667" fill="#F2F2F2"/></g><g><path d="M1967.5 24176.5 3839.5 24176.5" stroke="#D9D9D9" stroke-width="3.4375" stroke-linejoin="round" stroke-miterlimit="10" fill="none" fill-rule="evenodd"/></g><g clip-path="url(#clip3)"><g filter="url(#fx0)" transform="translate(1962 24061)"><g><path d="M19.9818 176.937C56.3758 139.587 92.7698 59.9627 129.164 64.8866 165.557 69.8104 201.951 196.977 238.346 206.48 274.739 215.982 311.134 134.511 347.528 121.902 383.921 109.293 420.315 119.482 456.709 130.825 493.103 142.167 529.497 185.822 565.891 189.959 602.284 194.095 638.679 166.987 675.073 155.645 711.466 144.302 747.861 127.525 784.255 121.902 820.648 116.278 857.043 138.836 893.437 121.902 929.83 104.967 966.224 11.9824 1002.62 20.2948 1039.01 28.6072 1075.41 156.841 1111.8 171.777 1148.19 186.712 1202.78 120.22 1220.98 109.909" stroke="#FFB226" stroke-width="9" stroke-linecap="round" stroke-linejoin="round" stroke-miterlimit="10" fill="none"/></g></g></g><g clip-path="url(#clip4)"><g filter="url(#fx1)" transform="translate(1962 24069)"><g><path d="M19.9818 97.939C56.3758 71.934 92.7698 15.9824 129.164 19.9247 165.557 23.8665 201.951 105.96 238.346 121.591 274.739 137.221 311.134 115.597 347.528 113.706 383.921 111.814 420.315 111.03 456.709 110.242 493.103 109.454 529.497 111.383 565.891 108.978 602.284 106.574 638.679 95.0263 675.073 95.8142 711.466 96.6022 747.861 110.724 784.255 113.706 820.648 116.688 857.043 128.108 893.437 113.706 929.83 99.3028 966.224 24.2556 1002.62 27.2891 1039.01 30.3226 1075.41 120.831 1111.8 131.907 1148.19 142.982 1202.78 100.104 1220.98 93.7443" stroke="#000000" stroke-width="9" stroke-linecap="round" stroke-linejoin="round" stroke-miterlimit="10" fill="none"/></g></g></g><g><path d="M1975.5 24231.5C2011.89 24194.1 2048.29 24114.5 2084.68 24119.4 2121.08 24124.3 2157.47 24251.5 2193.86 24261 2230.26 24270.5 2266.65 24189 2303.05 24176.4 2339.44 24163.8 2375.83 24174 2412.23 24185.3 2448.62 24196.7 2485.02 24240.3 2521.41 24244.5 2557.8 24248.6 2594.2 24221.5 2630.59 24210.2 2666.98 24198.8 2703.38 24182 2739.77 24176.4 2776.17 24170.8 2812.56 24193.4 2848.95 24176.4 2885.35 24159.5 2921.74 24066.5 2958.14 24074.8 2994.53 24083.1 3030.92 24211.4 3067.32 24226.3 3103.71 24241.2 3158.3 24174.7 3176.5 24164.4" stroke="#FFB226" stroke-width="9.16667" stroke-linecap="round" stroke-linejoin="round" stroke-miterlimit="10" fill="none"/></g><g><path d="M1975.5 24160.5C2011.89 24134.5 2048.29 24078.5 2084.68 24082.4 2121.08 24086.4 2157.47 24168.5 2193.86 24184.1 2230.26 24199.7 2266.65 24178.1 2303.05 24176.2 2339.44 24174.3 2375.83 24173.5 2412.23 24172.8 2448.62 24172 2485.02 24173.9 2521.41 24171.5 2557.8 24169.1 2594.2 24157.5 2630.59 24158.3 2666.98 24159.1 2703.38 24173.2 2739.77 24176.2 2776.17 24179.2 2812.56 24190.6 2848.95 24176.2 2885.35 24161.8 2921.74 24086.8 2958.14 24089.8 2994.53 24092.8 3030.92 24183.3 3067.32 24194.4 3103.71 24205.5 3158.3 24162.6 3176.5 24156.3" stroke="#000000" stroke-width="9.16667" stroke-linecap="round" stroke-linejoin="round" stroke-miterlimit="10" fill="none"/></g><g><text font-family="Inter,Inter_MSFontService,sans-serif" font-weight="400" font-size="32" transform="matrix(1 0 0 1 1898.34 24631)">80</text></g><g><text font-family="Inter,Inter_MSFontService,sans-serif" font-weight="400" font-size="32" transform="matrix(1 0 0 1 1898.11 24409)">90</text></g><g><text font-family="Inter,Inter_MSFontService,sans-serif" font-weight="400" font-size="32" transform="matrix(1 0 0 1 1883.17 24186)">100</text></g><g><text font-family="Inter,Inter_MSFontService,sans-serif" font-weight="400" font-size="32" transform="matrix(1 0 0 1 1888.33 23964)">110</text></g><g><text font-family="Inter,Inter_MSFontService,sans-serif" font-weight="400" font-size="32" transform="matrix(0.707107 -0.707107 0.707107 0.707107 1944.25 24703)">11/1</text></g><g><text font-family="Inter,Inter_MSFontService,sans-serif" font-weight="400" font-size="32" transform="matrix(0.707107 -0.707107 0.707107 0.707107 2254.87 24720)">11/22</text></g><g><text font-family="Inter,Inter_MSFontService,sans-serif" font-weight="400" font-size="32" transform="matrix(0.707107 -0.707107 0.707107 0.707107 2581.7 24721)">12/13</text></g><g><text font-family="Inter,Inter_MSFontService,sans-serif" font-weight="400" font-size="32" transform="matrix(0.707107 -0.707107 0.707107 0.707107 2933.5 24697)">1/3</text></g><g><text font-family="Inter,Inter_MSFontService,sans-serif" font-weight="400" font-size="32" transform="matrix(0.707107 -0.707107 0.707107 0.707107 3247.19 24711)">1/24</text></g><g><text font-family="Inter,Inter_MSFontService,sans-serif" font-weight="400" font-size="32" transform="matrix(0.707107 -0.707107 0.707107 0.707107 3574.73 24711)">2/14</text></g><g><text font-family="Inter Medium,Inter Medium_MSFontService,sans-serif" font-weight="700" font-size="46" transform="matrix(1 0 0 1 1885.18 23792)">U.S. Hotel Occupancy and ADR Recovery Levels</text></g><g><path d="M1875.5 23889.5 1963.5 23889.5" stroke="#FFB226" stroke-width="9.16667" stroke-linecap="round" stroke-linejoin="round" stroke-miterlimit="10" fill="none" fill-rule="evenodd"/></g><g><text font-family="Inter Medium,Inter Medium_MSFontService,sans-serif" font-weight="500" font-size="37" transform="matrix(1 0 0 1 1972.81 23901)">Occ Index</text></g><g><path d="M2198.5 23889.5 2286.5 23889.5" stroke="#000000" stroke-width="9.16667" stroke-linecap="round" stroke-linejoin="round" stroke-miterlimit="10" fill="none" fill-rule="evenodd"/></g><g><text font-family="Inter Medium,Inter Medium_MSFontService,sans-serif" font-weight="500" font-size="37" transform="matrix(1 0 0 1 2296.13 23901)">ADR Index</text></g><rect x="1802.5" y="23702.5" width="2092" height="1074" stroke="#D9D9D9" stroke-width="3.4375" stroke-linejoin="round" stroke-miterlimit="10" fill="none"/><g><text fill="#7F7F7F" font-family="Inter,Inter_MSFontService,sans-serif" font-weight="400" font-size="32" transform="matrix(1 0 0 1 1883.04 23847)">YOY, Source: STR, str.com</text></g></g></svg>