<svg width="2110" height="1067" xmlns="http://www.w3.org/2000/svg" xmlns:xlink="http://www.w3.org/1999/xlink" xml:space="preserve" overflow="hidden"><defs><filter id="fx0" x="-10%" y="-10%" width="120%" height="120%" filterUnits="userSpaceOnUse" primitiveUnits="userSpaceOnUse"><feComponentTransfer color-interpolation-filters="sRGB"><feFuncR type="discrete" tableValues="0 0"/><feFuncG type="discrete" tableValues="0 0"/><feFuncB type="discrete" tableValues="0 0"/><feFuncA type="linear" slope="0.501961" intercept="0"/></feComponentTransfer><feGaussianBlur stdDeviation="4.58333 4.58333"/></filter><filter id="fx1" x="-10%" y="-10%" width="120%" height="120%" filterUnits="userSpaceOnUse" primitiveUnits="userSpaceOnUse"><feComponentTransfer color-interpolation-filters="sRGB"><feFuncR type="discrete" tableValues="0 0"/><feFuncG type="discrete" tableValues="0 0"/><feFuncB type="discrete" tableValues="0 0"/><feFuncA type="linear" slope="0.501961" intercept="0"/></feComponentTransfer><feGaussianBlur stdDeviation="4.58333 4.58333"/></filter><clipPath id="clip2"><rect x="1813" y="23448" width="2110" height="1067"/></clipPath><clipPath id="clip3"><rect x="1981" y="23699" width="1888" height="663"/></clipPath><clipPath id="clip4"><rect x="1981" y="23699" width="1888" height="663"/></clipPath></defs><g clip-path="url(#clip2)" transform="translate(-1813 -23448)"><rect x="1814" y="23449" width="2107" height="1064" fill="#FFFFFF"/><g><rect x="1982" y="23699" width="1884" height="660" fill="#FFFFFF"/></g><g><path d="M1981.5 23919.5 3866.5 23919.5" stroke="#C00000" stroke-width="3.4375" stroke-linejoin="round" stroke-miterlimit="10" fill="none" fill-rule="evenodd"/></g><g clip-path="url(#clip3)"><g filter="url(#fx0)" transform="translate(1973 23720)"><g><path d="M19.9818 186.086C41.5373 174.28 63.0927 158.965 84.6485 150.669 106.204 142.373 127.759 127.119 149.315 136.311 170.871 145.502 192.426 197.768 213.982 205.817 235.537 213.866 257.093 193.196 278.649 184.606 300.204 176.016 321.759 160.212 343.315 154.277 364.87 148.342 386.426 150.009 407.982 148.998 427.775 148.07 452.855 122.584 472.648 148.212 494.204 176.122 515.759 302.935 537.315 316.459 558.871 329.983 580.426 278.334 601.982 229.356 623.537 180.378 645.093 41.1959 666.649 22.5893 688.204 3.98242 709.76 91.0892 731.315 117.716 752.871 144.343 774.426 168.804 795.982 182.35 817.538 195.895 839.093 200.547 860.649 198.988 882.204 197.428 903.76 174.031 925.316 172.991 946.871 171.95 979.204 189.453 989.982 192.745" stroke="#FFB226" stroke-width="9" stroke-linecap="round" stroke-linejoin="round" stroke-miterlimit="10" fill="none"/></g></g></g><g clip-path="url(#clip4)"><g filter="url(#fx1)" transform="translate(1973 23778)"><g><path d="M19.9818 110.091C41.5373 108.403 63.0927 109.446 84.6485 105.026 106.204 100.606 127.759 75.9664 149.315 83.569 170.871 91.1712 192.426 153.513 213.982 150.641 235.537 147.769 257.093 79.1884 278.649 66.3355 300.204 53.4822 321.759 67.8165 343.315 73.5217 364.87 79.2265 386.426 107.796 407.982 100.565 429.537 93.334 451.093 22.386 472.648 30.1361 494.204 37.8857 515.759 133.145 537.315 147.064 558.871 160.983 580.426 134.399 601.982 113.65 623.537 92.9004 645.093 33.1524 666.649 22.5676 688.204 11.9824 709.76 37.1055 731.315 50.1396 752.871 63.1735 774.426 91.6969 795.982 100.771 817.538 109.844 839.093 111.521 860.649 104.582 882.204 97.6419 903.76 66.3538 925.316 59.1345 946.871 51.9148 979.204 60.91 989.982 61.2653" stroke="#000000" stroke-width="9" stroke-linecap="round" stroke-linejoin="round" stroke-miterlimit="10" fill="none"/></g></g></g><g><path d="M1986.5 23899.6C2008.06 23887.8 2029.61 23872.5 2051.17 23864.2 2072.72 23855.9 2094.28 23840.6 2115.83 23849.8 2137.39 23859 2158.94 23911.3 2180.5 23919.3 2202.06 23927.4 2223.61 23906.7 2245.17 23898.1 2266.72 23889.5 2288.28 23873.7 2309.83 23867.8 2331.39 23861.9 2352.94 23863.5 2374.5 23862.5 2394.29 23861.6 2419.37 23836.1 2439.17 23861.7 2460.72 23889.6 2482.28 24016.5 2503.83 24030 2525.39 24043.5 2546.94 23991.9 2568.5 23942.9 2590.06 23893.9 2611.61 23754.7 2633.17 23736.1 2654.72 23717.5 2676.28 23804.6 2697.83 23831.2 2719.39 23857.9 2740.94 23882.3 2762.5 23895.9 2784.06 23909.4 2805.61 23914.1 2827.17 23912.5 2848.72 23910.9 2870.28 23887.5 2891.83 23886.5 2913.39 23885.5 2945.72 23903 2956.5 23906.3" stroke="#FFB226" stroke-width="9.16667" stroke-linecap="round" stroke-linejoin="round" stroke-miterlimit="10" fill="none"/></g><g><path d="M1986.5 23881.6C2008.06 23879.9 2029.61 23881 2051.17 23876.5 2072.72 23872.1 2094.28 23847.5 2115.83 23855.1 2137.39 23862.7 2158.94 23925 2180.5 23922.2 2202.06 23919.3 2223.61 23850.7 2245.17 23837.9 2266.72 23825 2288.28 23839.3 2309.83 23845 2331.39 23850.7 2352.94 23879.3 2374.5 23872.1 2396.06 23864.9 2417.61 23793.9 2439.17 23801.7 2460.72 23809.4 2482.28 23904.7 2503.83 23918.6 2525.39 23932.5 2546.94 23905.9 2568.5 23885.2 2590.06 23864.4 2611.61 23804.7 2633.17 23794.1 2654.72 23783.5 2676.28 23808.6 2697.83 23821.7 2719.39 23834.7 2740.94 23863.2 2762.5 23872.3 2784.06 23881.4 2805.61 23883 2827.17 23876.1 2848.72 23869.2 2870.28 23837.9 2891.83 23830.7 2913.39 23823.4 2945.72 23832.4 2956.5 23832.8" stroke="#000000" stroke-width="9.16667" stroke-linecap="round" stroke-linejoin="round" stroke-miterlimit="10" fill="none"/></g><g><text font-family="Inter,Inter_MSFontService,sans-serif" font-weight="400" font-size="32" transform="matrix(1 0 0 1 1912.06 24369)">80</text></g><g><text font-family="Inter,Inter_MSFontService,sans-serif" font-weight="400" font-size="32" transform="matrix(1 0 0 1 1912.01 24149)">90</text></g><g><text font-family="Inter,Inter_MSFontService,sans-serif" font-weight="400" font-size="32" transform="matrix(1 0 0 1 1898.63 23929)">100</text></g><g><text font-family="Inter,Inter_MSFontService,sans-serif" font-weight="400" font-size="32" transform="matrix(1 0 0 1 1905.82 23709)">110</text></g><g><text font-family="Inter,Inter_MSFontService,sans-serif" font-weight="400" font-size="32" transform="matrix(0.707107 -0.707107 0.707107 0.707107 1959.88 24437)">2/7</text></g><g><text font-family="Inter,Inter_MSFontService,sans-serif" font-weight="400" font-size="32" transform="matrix(0.707107 -0.707107 0.707107 0.707107 2013.51 24448)">2/14</text></g><g><text font-family="Inter,Inter_MSFontService,sans-serif" font-weight="400" font-size="32" transform="matrix(0.707107 -0.707107 0.707107 0.707107 2078.99 24447)">2/21</text></g><g><text font-family="Inter,Inter_MSFontService,sans-serif" font-weight="400" font-size="32" transform="matrix(0.707107 -0.707107 0.707107 0.707107 2138.84 24452)">2/28</text></g><g><text font-family="Inter,Inter_MSFontService,sans-serif" font-weight="400" font-size="32" transform="matrix(0.707107 -0.707107 0.707107 0.707107 2218.37 24437)">3/7</text></g><g><text font-family="Inter,Inter_MSFontService,sans-serif" font-weight="400" font-size="32" transform="matrix(0.707107 -0.707107 0.707107 0.707107 2272 24448)">3/14</text></g><g><text font-family="Inter,Inter_MSFontService,sans-serif" font-weight="400" font-size="32" transform="matrix(0.707107 -0.707107 0.707107 0.707107 2337.48 24447)">3/21</text></g><g><text font-family="Inter,Inter_MSFontService,sans-serif" font-weight="400" font-size="32" transform="matrix(0.707107 -0.707107 0.707107 0.707107 2397.33 24452)">3/28</text></g><g><text font-family="Inter,Inter_MSFontService,sans-serif" font-weight="400" font-size="32" transform="matrix(0.707107 -0.707107 0.707107 0.707107 2474.59 24439)">4/4</text></g><g><text font-family="Inter,Inter_MSFontService,sans-serif" font-weight="400" font-size="32" transform="matrix(0.707107 -0.707107 0.707107 0.707107 2535.46 24443)">4/11</text></g><g><text font-family="Inter,Inter_MSFontService,sans-serif" font-weight="400" font-size="32" transform="matrix(0.707107 -0.707107 0.707107 0.707107 2595.32 24448)">4/18</text></g><g><text font-family="Inter,Inter_MSFontService,sans-serif" font-weight="400" font-size="32" transform="matrix(0.707107 -0.707107 0.707107 0.707107 2655.93 24452)">4/25</text></g><g><text font-family="Inter,Inter_MSFontService,sans-serif" font-weight="400" font-size="32" transform="matrix(0.707107 -0.707107 0.707107 0.707107 2735.25 24437)">5/2</text></g><g><text font-family="Inter,Inter_MSFontService,sans-serif" font-weight="400" font-size="32" transform="matrix(0.707107 -0.707107 0.707107 0.707107 2799.69 24438)">5/9</text></g><g><text font-family="Inter,Inter_MSFontService,sans-serif" font-weight="400" font-size="32" transform="matrix(0.707107 -0.707107 0.707107 0.707107 2855.13 24447)">5/16</text></g><g><text font-family="Inter,Inter_MSFontService,sans-serif" font-weight="400" font-size="32" transform="matrix(0.707107 -0.707107 0.707107 0.707107 2915.23 24451)">5/23</text></g><g><text font-family="Inter,Inter_MSFontService,sans-serif" font-weight="400" font-size="32" transform="matrix(0.707107 -0.707107 0.707107 0.707107 2979.43 24452)">5/30</text></g><g><text font-family="Inter,Inter_MSFontService,sans-serif" font-weight="400" font-size="32" transform="matrix(0.707107 -0.707107 0.707107 0.707107 3057.75 24438)">6/6</text></g><g><text font-family="Inter,Inter_MSFontService,sans-serif" font-weight="400" font-size="32" transform="matrix(0.707107 -0.707107 0.707107 0.707107 3113.25 24447)">6/13</text></g><g><text font-family="Inter,Inter_MSFontService,sans-serif" font-weight="400" font-size="32" transform="matrix(0.707107 -0.707107 0.707107 0.707107 3173.01 24452)">6/20</text></g><g><text font-family="Inter,Inter_MSFontService,sans-serif" font-weight="400" font-size="32" transform="matrix(0.707107 -0.707107 0.707107 0.707107 3239.15 24451)">6/27</text></g><g><text font-family="Inter,Inter_MSFontService,sans-serif" font-weight="400" font-size="32" transform="matrix(0.707107 -0.707107 0.707107 0.707107 3317.07 24438)">7/4</text></g><g><text font-family="Inter,Inter_MSFontService,sans-serif" font-weight="400" font-size="32" transform="matrix(0.707107 -0.707107 0.707107 0.707107 3377.94 24441)">7/11</text></g><g><text font-family="Inter,Inter_MSFontService,sans-serif" font-weight="400" font-size="32" transform="matrix(0.707107 -0.707107 0.707107 0.707107 3437.8 24446)">7/18</text></g><g><text font-family="Inter,Inter_MSFontService,sans-serif" font-weight="400" font-size="32" transform="matrix(0.707107 -0.707107 0.707107 0.707107 3498.41 24450)">7/25</text></g><g><text font-family="Inter,Inter_MSFontService,sans-serif" font-weight="400" font-size="32" transform="matrix(0.707107 -0.707107 0.707107 0.707107 3579.96 24433)">8/1</text></g><g><text font-family="Inter,Inter_MSFontService,sans-serif" font-weight="400" font-size="32" transform="matrix(0.707107 -0.707107 0.707107 0.707107 3639.82 24438)">8/8</text></g><g><text font-family="Inter,Inter_MSFontService,sans-serif" font-weight="400" font-size="32" transform="matrix(0.707107 -0.707107 0.707107 0.707107 3695.83 24447)">8/15</text></g><g><text font-family="Inter,Inter_MSFontService,sans-serif" font-weight="400" font-size="32" transform="matrix(0.707107 -0.707107 0.707107 0.707107 3755.51 24452)">8/22</text></g><g><text font-family="Inter,Inter_MSFontService,sans-serif" font-weight="400" font-size="32" transform="matrix(0.707107 -0.707107 0.707107 0.707107 3819.95 24452)">8/29</text></g><g><text font-family="Inter Medium,Inter Medium_MSFontService,sans-serif" font-weight="700" font-size="46" transform="matrix(1 0 0 1 1898.49 23539)">U.S. Hotel Occupancy and ADR Recovery Levels</text></g><g><path d="M1889.5 23634.5 1977.5 23634.5" stroke="#FFB226" stroke-width="9.16667" stroke-linecap="round" stroke-linejoin="round" stroke-miterlimit="10" fill="none" fill-rule="evenodd"/></g><g><text font-family="Inter Medium,Inter Medium_MSFontService,sans-serif" font-weight="500" font-size="37" transform="matrix(1 0 0 1 1986.82 23647)">Occ Index</text></g><g><path d="M2214.5 23634.5 2302.5 23634.5" stroke="#000000" stroke-width="9.16667" stroke-linecap="round" stroke-linejoin="round" stroke-miterlimit="10" fill="none" fill-rule="evenodd"/></g><g><text font-family="Inter Medium,Inter Medium_MSFontService,sans-serif" font-weight="500" font-size="37" transform="matrix(1 0 0 1 2312.07 23647)">ADR Index</text></g><rect x="1814.5" y="23449.5" width="2107" height="1064" stroke="#D9D9D9" stroke-width="3.4375" stroke-linejoin="round" stroke-miterlimit="10" fill="none"/><g><text fill="#7F7F7F" font-family="Inter,Inter_MSFontService,sans-serif" font-weight="400" font-size="32" transform="matrix(1 0 0 1 1896.2 23594)">YOY, Source: STR, str.com</text></g></g></svg>