<?xml version="1.0" standalone="no"?>
<!DOCTYPE svg PUBLIC "-//W3C//DTD SVG 20010904//EN"
 "http://www.w3.org/TR/2001/REC-SVG-20010904/DTD/svg10.dtd">
<svg version="1.0" xmlns="http://www.w3.org/2000/svg"
 width="512.000000pt" height="512.000000pt" viewBox="0 0 512.000000 512.000000"
 preserveAspectRatio="xMidYMid meet">
<metadata>
Created by potrace 1.14, written by Peter Selinger 2001-2017
</metadata>
<g transform="translate(0.000000,512.000000) scale(0.100000,-0.100000)"
fill="#000000" stroke="none">
<path d="M415 5110 c-183 -38 -330 -170 -391 -350 -18 -53 -19 -134 -19 -2200
0 -2066 1 -2147 19 -2200 52 -154 168 -274 322 -332 l59 -23 2155 0 2155 0 59
23 c154 58 270 178 322 332 18 53 19 134 19 2200 0 2066 -1 2147 -19 2200 -52
154 -168 274 -322 332 l-59 23 -2130 1 c-1172 1 -2148 -2 -2170 -6z m1233
-1127 l-3 -137 -105 -18 c-58 -9 -135 -22 -172 -29 l-68 -11 0 -1232 0 -1233
173 -29 172 -29 3 -138 3 -137 -561 0 -560 0 0 138 0 137 167 28 c92 16 171
31 175 33 5 3 8 558 8 1233 l0 1228 -172 29 -173 30 -3 137 -3 137 561 0 561
0 -3 -137z m1896 104 c137 -33 197 -56 316 -118 390 -204 648 -602 721 -1114
19 -134 17 -495 -3 -625 -59 -364 -191 -642 -413 -866 -146 -147 -296 -241
-483 -304 -188 -63 -198 -63 -975 -67 l-708 -4 3 138 3 138 173 29 172 29 0
1232 0 1232 -127 22 c-71 12 -148 25 -173 29 l-45 8 -3 137 -3 138 718 -4 718
-3 109 -27z"/>
<path d="M2770 2555 l0 -1238 293 6 c322 6 387 15 523 77 302 137 521 484 574
912 17 131 8 483 -14 603 -73 388 -307 708 -596 814 -129 48 -172 53 -482 58
l-298 5 0 -1237z"/>
</g>
</svg>
